  0
SECTION
  2
HEADER
  9
$ACADVER
  1
AC1009
  9
$INSBASE
 10
177.9999997912175
 20
6.7085914059697132
 30
0.0
  9
$EXTMIN
 10
-158.20453813839151
 20
448.95961761889879
 30
-0.0000000349181948
  9
$EXTMAX
 10
-98.817789008897421
 20
536.6125181276816
 30
0.0000000814935746
  9
$LIMMIN
 10
-185.22394776397229
 20
352.48648918188883
  9
$LIMMAX
 10
-7.2239477639723191
 20
600.78648918188867
  9
$ORTHOMODE
 70
     0
  9
$REGENMODE
 70
     1
  9
$FILLMODE
 70
     1
  9
$QTEXTMODE
 70
     0
  9
$MIRRTEXT
 70
     1
  9
$DRAGMODE
 70
     2
  9
$LTSCALE
 40
1.0
  9
$OSMODE
 70
   679
  9
$ATTMODE
 70
     1
  9
$TEXTSIZE
 40
5.0
  9
$TRACEWID
 40
1.0
  9
$TEXTSTYLE
  7
STANDARD
  9
$CLAYER
  8
0
  9
$CELTYPE
  6
BYLAYER
  9
$CECOLOR
 62
   256
  9
$DIMSCALE
 40
1.0
  9
$DIMASZ
 40
2.5
  9
$DIMEXO
 40
1.0
  9
$DIMDLI
 40
10.0
  9
$DIMRND
 40
0.0
  9
$DIMDLE
 40
0.0
  9
$DIMEXE
 40
1.0
  9
$DIMTP
 40
0.1
  9
$DIMTM
 40
0.1
  9
$DIMTXT
 40
3.5
  9
$DIMCEN
 40
0.0
  9
$DIMTSZ
 40
0.0
  9
$DIMTOL
 70
     1
  9
$DIMLIM
 70
     0
  9
$DIMTIH
 70
     0
  9
$DIMTOH
 70
     0
  9
$DIMSE1
 70
     0
  9
$DIMSE2
 70
     0
  9
$DIMTAD
 70
     3
  9
$DIMZIN
 70
     8
  9
$DIMBLK
  1
OPEN30
  9
$DIMASO
 70
     1
  9
$DIMSHO
 70
     1
  9
$DIMPOST
  1

  9
$DIMAPOST
  1
"
  9
$DIMALT
 70
     0
  9
$DIMALTD
 70
     2
  9
$DIMALTF
 40
0.0393701
  9
$DIMLFAC
 40
1.0
  9
$DIMTOFL
 70
     1
  9
$DIMTVP
 40
0.0
  9
$DIMTIX
 70
     0
  9
$DIMSOXD
 70
     0
  9
$DIMSAH
 70
     0
  9
$DIMBLK1
  1

  9
$DIMBLK2
  1

  9
$DIMSTYLE
  2
AM_JIS
  9
$DIMCLRD
 70
   256
  9
$DIMCLRE
 70
   256
  9
$DIMCLRT
 70
     2
  9
$DIMTFAC
 40
0.71
  9
$DIMGAP
 40
1.5
  9
$LUNITS
 70
     2
  9
$LUPREC
 70
     2
  9
$SKETCHINC
 40
1.0
  9
$FILLETRAD
 40
0.0
  9
$AUNITS
 70
     0
  9
$AUPREC
 70
     0
  9
$MENU
  1
.
  9
$ELEVATION
 40
0.0
  9
$PELEVATION
 40
0.0
  9
$THICKNESS
 40
0.0
  9
$LIMCHECK
 70
     0
  9
$BLIPMODE
 70
     0
  9
$CHAMFERA
 40
0.0
  9
$CHAMFERB
 40
0.0
  9
$SKPOLY
 70
     0
  9
$TDCREATE
 40
2456989.6000408102
  9
$TDUPDATE
 40
2456989.8436435531
  9
$TDINDWG
 40
0.0690780787
  9
$TDUSRTIMER
 40
0.0690778935
  9
$USRTIMER
 70
     1
  9
$ANGBASE
 50
0.0
  9
$ANGDIR
 70
     0
  9
$PDMODE
 70
     0
  9
$PDSIZE
 40
0.0
  9
$PLINEWID
 40
0.0
  9
$COORDS
 70
     0
  9
$SPLFRAME
 70
     0
  9
$SPLINETYPE
 70
     6
  9
$SPLINESEGS
 70
     8
  9
$ATTDIA
 70
     1
  9
$ATTREQ
 70
     1
  9
$HANDLING
 70
     1
  9
$HANDSEED
  5
5484
  9
$SURFTAB1
 70
     6
  9
$SURFTAB2
 70
     6
  9
$SURFTYPE
 70
     6
  9
$SURFU
 70
     6
  9
$SURFV
 70
     6
  9
$UCSNAME
  2

  9
$UCSORG
 10
0.0
 20
0.0
 30
0.0
  9
$UCSXDIR
 10
1.0
 20
0.0
 30
0.0
  9
$UCSYDIR
 10
0.0
 20
1.0
 30
0.0
  9
$PUCSNAME
  2

  9
$PUCSORG
 10
0.0
 20
0.0
 30
0.0
  9
$PUCSXDIR
 10
1.0
 20
0.0
 30
0.0
  9
$PUCSYDIR
 10
0.0
 20
1.0
 30
0.0
  9
$USERI1
 70
     0
  9
$USERI2
 70
     0
  9
$USERI3
 70
     0
  9
$USERI4
 70
     0
  9
$USERI5
 70
     0
  9
$USERR1
 40
0.0
  9
$USERR2
 40
0.0
  9
$USERR3
 40
0.0
  9
$USERR4
 40
0.0
  9
$USERR5
 40
0.0
  9
$WORLDVIEW
 70
     1
  9
$SHADEDGE
 70
     3
  9
$SHADEDIF
 70
    70
  9
$TILEMODE
 70
     1
  9
$MAXACTVP
 70
    64
  9
$PLIMCHECK
 70
     0
  9
$PEXTMIN
 10
1.0000000000000000E+020
 20
1.0000000000000000E+020
 30
1.0000000000000000E+020
  9
$PEXTMAX
 10
-1.0000000000000000E+020
 20
-1.0000000000000000E+020
 30
-1.0000000000000000E+020
  9
$PLIMMIN
 10
-5.873748779296875
 20
-5.8737497329711914
  9
$PLIMMAX
 10
291.05224609375
 20
204.0995779037475
  9
$UNITMODE
 70
     0
  9
$VISRETAIN
 70
     1
  9
$PLINEGEN
 70
     0
  9
$PSLTSCALE
 70
     1
  0
ENDSEC
  0
SECTION
  2
TABLES
  0
TABLE
  2
VPORT
 70
     1
  0
VPORT
  2
*ACTIVE
 70
     0
 10
0.0
 20
0.0
 11
1.0
 21
1.0
 12
-128.51116357364441
 22
492.78606787329022
 13
0.0
 23
0.0
 14
2.5
 24
2.5
 15
10.0
 25
10.0
 16
0.0
 26
0.0
 36
1.0
 17
0.0
 27
0.0
 37
0.0
 40
88.35398528145015
 41
1.6081582200247211
 42
50.0
 43
0.0
 44
0.0
 50
0.0
 51
0.0
 71
     0
 72
   100
 73
     1
 74
     1
 75
     0
 76
     0
 77
     0
 78
     0
  0
ENDTAB
  0
TABLE
  2
LTYPE
 70
    18
  0
LTYPE
  2
CONTINUOUS
 70
     0
  3
Solid line
 72
    65
 73
     0
 40
0.0
  0
LTYPE
  2
AM_ISO02W050
 70
     0
  3
__ __ __ __ __ __ __ __ __ __ __ __ __ __ __
 72
    65
 73
     2
 40
7.5
 49
6.0
 49
-1.5
  0
LTYPE
  2
AM_ISO08W050
 70
     0
  3
____ . ____ . ____ . ____ . ____ . ____ . ____
 72
    65
 73
     4
 40
18.0
 49
12.0
 49
-1.5
 49
3.0
 49
-1.5
  0
LTYPE
  2
AM_ISO09W050
 70
     0
  3
_____ . . _____ . . _____ . . ____ .. ____
 72
    65
 73
     6
 40
22.5
 49
12.0
 49
-1.5
 49
3.0
 49
-1.5
 49
3.0
 49
-1.5
  0
LTYPE
  2
AMCONSTR
 70
     0
  3
_______________________
 72
    65
 73
     2
 40
9999.0
 49
9999.0
 49
0.0
  0
LTYPE
  2
AM_ISO02W050X2
 70
     0
  3
 _ _ _ _ _ _ _ _ _ _ _ _
 72
    65
 73
     2
 40
3.75
 49
3.0
 49
-0.75
  0
LTYPE
  2
AM_ISO08W050X2
 70
     0
  3
__ . __ . __ . __ . __ . __
 72
    65
 73
     4
 40
9.0
 49
6.0
 49
-0.75
 49
1.5
 49
-0.75
  0
LTYPE
  2
AMZIGZAG
 70
     0
  3
/\/-/\/-/\/-/\/-/\/-/\/
 72
    65
 73
     2
 40
11.0001
 49
0.0001
 49
-11.0
  0
LTYPE
  2
CENTER
 70
     0
  3
____ _ ____ _
 72
    65
 73
     4
 40
13.42150481887249
 49
8.3884405117953058
 49
-1.67768810235906
 49
1.67768810235906
 49
-1.67768810235906
  0
LTYPE
  2
HIDDEN
 70
     0
  3
_ _ _ _ _ _ _
 72
    65
 73
     2
 40
2.5165321535385901
 49
1.67768810235906
 49
-0.8388440511795305
  0
LTYPE
  2
PHANTOM2
 70
     0
  3
Phantom (.5x) ___ _ _ ___ _ _ ___ _ _ ___ _ _
 72
    65
 73
     6
 40
1.25
 49
0.625
 49
-0.125
 49
0.125
 49
-0.125
 49
0.125
 49
-0.125
  0
LTYPE
  2
ACJISTGB
 70
     0
  3
__ . . __ . .
 72
    65
 73
     6
 40
9.0
 49
4.0
 49
-1.0
 49
1.0
 49
-1.0
 49
1.0
 49
-1.0
  0
LTYPE
  2
ACJISTGL
 70
     0
  3
_ _ _ _ _
 72
    65
 73
     2
 40
3.0
 49
2.0
 49
-1.0
  0
LTYPE
  2
ACANSTGBM
 70
     0
  3
__ . . __ . .
 72
    65
 73
     6
 40
9.0
 49
4.0
 49
-1.0
 49
1.0
 49
-1.0
 49
1.0
 49
-1.0
  0
LTYPE
  2
ACANSTGLM
 70
     0
  3
_ _ _ _ _
 72
    65
 73
     2
 40
3.0
 49
2.0
 49
-1.0
  0
LTYPE
  2
ACISOWELD
 70
     0
  3
_ _ _ _ _
 72
    65
 73
     2
 40
2.0
 49
2.0
 49
-1.0
  0
LTYPE
  2
ACISOTGB
 70
     0
  3
__ . . __ . .
 72
    65
 73
     6
 40
9.0
 49
4.0
 49
-1.0
 49
1.0
 49
-1.0
 49
1.0
 49
-1.0
  0
LTYPE
  2
ACISOTGL
 70
     0
  3
_ _ _ _ _
 72
    65
 73
     2
 40
3.0
 49
2.0
 49
-1.0
  0
ENDTAB
  0
TABLE
  2
LAYER
 70
     3
  0
LAYER
  2
0
 70
     0
 62
     7
  6
CONTINUOUS
  0
LAYER
  2
DEFPOINTS
 70
     0
 62
     7
  6
CONTINUOUS
  0
ENDTAB
  0
TABLE
  2
STYLE
 70
     8
  0
STYLE
  2
STANDARD
 70
     0
 40
0.0
 41
1.0
 50
0.0
 71
     0
 42
5.0
  3
isocp.shx
  4
extfont.shx
  0
STYLE
  2

 70
     1
 40
0.0
 41
1.0
 50
0.0
 71
     0
 42
2.5
  3
ltypeshp.shx
  4

  0
STYLE
  2
ACJISTS
 70
     0
 40
1.0
 41
1.0
 50
0.0
 71
     0
 42
3.5
  3
isocp.shx
  4
bigfont.shx
  0
STYLE
  2
ACJISGDT
 70
     0
 40
0.0
 41
1.0
 50
0.0
 71
     0
 42
3.5
  3
amgdt.shx
  4

  0
STYLE
  2
ACANSTS
 70
     0
 40
1.0
 41
1.0
 50
0.0
 71
     0
 42
5.0
  3
romans.shx
  4
extfont.shx
  0
STYLE
  2
ACANSGDT
 70
     0
 40
0.0
 41
1.0
 50
0.0
 71
     0
 42
5.0
  3
amgdtans.shx
  4

  0
STYLE
  2
ACISOTS
 70
     0
 40
1.0
 41
1.0
 50
0.0
 71
     0
 42
3.5
  3
isocp.shx
  4
extfont.shx
  0
STYLE
  2
ACISOGDT
 70
     0
 40
0.0
 41
1.0
 50
0.0
 71
     0
 42
3.5
  3
amgdt.shx
  4

  0
ENDTAB
  0
TABLE
  2
VIEW
 70
    11
  0
VIEW
  2
AM_VIEW1
 70
     1
 40
148.46299743652341
 10
150.7615237454755
 20
216.82074642181399
 41
313.27054504954492
 11
0.0
 21
0.0
 31
1.0
 12
0.0
 22
0.0
 32
0.0
 42
50.0
 43
0.0
 44
0.0
 50
0.0
 71
     0
  0
VIEW
  2
AM_VIEW2
 70
     1
 40
148.46299743652341
 10
257.43763396936822
 20
216.82074642181399
 41
313.27054504954492
 11
0.0
 21
0.0
 31
1.0
 12
0.0
 22
0.0
 32
0.0
 42
50.0
 43
0.0
 44
0.0
 50
0.0
 71
     0
  0
VIEW
  2
AM_VIEW3
 70
     1
 40
148.46299743652341
 10
150.7615237454755
 20
68.357748985290513
 41
313.27054504954492
 11
0.0
 21
0.0
 31
1.0
 12
0.0
 22
0.0
 32
0.0
 42
50.0
 43
0.0
 44
0.0
 50
0.0
 71
     0
  0
VIEW
  2
AM_VIEW4
 70
     1
 40
148.46299743652341
 10
257.43763396936822
 20
68.357748985290513
 41
313.27054504954492
 11
0.0
 21
0.0
 31
1.0
 12
0.0
 22
0.0
 32
0.0
 42
50.0
 43
0.0
 44
0.0
 50
0.0
 71
     0
  0
VIEW
  2
AM_VIEW5
 70
     1
 40
148.46299743652341
 10
204.0995788574219
 20
142.58924770355219
 41
313.27054504954481
 11
0.0
 21
0.0
 31
1.0
 12
0.0
 22
0.0
 32
0.0
 42
50.0
 43
0.0
 44
0.0
 50
0.0
 71
     0
  0
VIEW
  2
AM_VIEW6
 70
     1
 40
296.92302561309822
 10
204.0995788574219
 20
142.58924770355219
 41
626.53482468818868
 11
0.0
 21
0.0
 31
1.0
 12
0.0
 22
0.0
 32
0.0
 42
50.0
 43
0.0
 44
0.0
 50
0.0
 71
     0
  0
ENDTAB
  0
TABLE
  2
UCS
 70
     0
  0
ENDTAB
  0
TABLE
  2
APPID
 70
    55
  0
APPID
  2
ACAD
 70
     0
  0
APPID
  2
MCAD_NO_VIS
 70
     0
  0
APPID
  2
ACAD_TEMP_GRAPHIC
 70
     0
  0
APPID
  2
GENIUS_GENODEF_13
 70
     0
  0
APPID
  2
GENIUS_GENOBJ-N-TIT_13
 70
     0
  0
APPID
  2
GENIUS_GENTITLE_13
 70
     0
  0
APPID
  2
GENIUS_GENOENT_13
 70
     0
  0
APPID
  2
GENIUS_GENOREF_13
 70
     0
  0
APPID
  2
GENIUS_GENOLIS_13
 70
     0
  0
APPID
  2
GENIUS_GENZVEED_13
 70
     0
  0
APPID
  2
GENIUS_GENSCREG_15
 70
     0
  0
APPID
  2
GENIUS_GENOBJ-N-SDF_13
 70
     0
  0
APPID
  2
GENIUS_GENOBJ-N-CEN_13
 70
     0
  0
APPID
  2
GENIUS_GENOBJ-N-SEC_13
 70
     0
  0
APPID
  2
GENIUS_GENREC_14
 70
     0
  0
APPID
  2
GENIUS_GENOBJ-N-REC_13
 70
     0
  0
APPID
  2
GENIUS_GENBH_13
 70
     0
  0
APPID
  2
GENIUS_GENOBJ-NBEHI-BHF_13
 70
     0
  0
APPID
  2
GENIUS_GENOBJ-NBEHI-BHB_13
 70
     0
  0
APPID
  2
GENIUS_GENDTOL_13
 70
     0
  0
APPID
  2
GENIUS_GENOBJ-N-HTC_13
 70
     0
  0
APPID
  2
GENIUS_GENHATCH_13
 70
     0
  0
APPID
  2
GENIUS_GENOBJ-N-CRS_13
 70
     0
  0
APPID
  2
GENIUS_GENOBJ-N-CRC_13
 70
     0
  0
APPID
  2
GENIUS_GENCRC_14
 70
     0
  0
APPID
  2
GENIUS_GENOBJ-F-SHCL_13
 70
     0
  0
APPID
  2
GENIUS_GEFMSH_13
 70
     0
  0
APPID
  2
GENIUS_GEFSH_13
 70
     0
  0
APPID
  2
GENIUS_GEFSHP_13
 70
     0
  0
APPID
  2
GENIUS_GENOBJ-F-SHS_13
 70
     0
  0
APPID
  2
GENIUS_GENOBJ-F-SHSS_13
 70
     0
  0
APPID
  2
GENIUS_GEFSHP0_13
 70
     0
  0
APPID
  2
GENIUS_GEFSH0_13
 70
     0
  0
APPID
  2
GEVID995428964
 70
     0
  0
APPID
  2
GEVDC
 70
     0
  0
APPID
  2
GENIUS_GENBH_14
 70
     0
  0
APPID
  2
GEVID995428965
 70
     0
  0
APPID
  2
GEVID995428966
 70
     0
  0
APPID
  2
GENIUS_GENBHRL_14
 70
     0
  0
APPID
  2
GEVID995428967
 70
     0
  0
APPID
  2
GEVID995428968
 70
     0
  0
APPID
  2
GENIUS_GENOBJ-F-SHCV_13
 70
     0
  0
APPID
  2
ACATTRIBSERVICES
 70
     0
  0
APPID
  2
GENIUS_GENTRA_14
 70
     0
  0
APPID
  2
DESIGNERASSEMBLIES
 70
     0
  0
APPID
  2
ACAD_PSEXT
 70
     0
  0
APPID
  2
ACAD_NAV_VCDISPLAY
 70
     0
  0
APPID
  2
GENIUS_GENCEN_19
 70
     0
  0
APPID
  2
ACAECLAYERSTANDARD
 70
     0
  0
APPID
  2
ACAD_DSTYLE_DIMBREAK
 70
     0
  0
APPID
  2
ACAD_DSTYLE_DIMJAG
 70
     0
  0
APPID
  2
ACAD_DSTYLE_DIMINSPECT
 70
     0
  0
APPID
  2
ACAD_DSTYLE_DIMRADIAL_EXTENSION
 70
     0
  0
APPID
  2
ACAD_EXEMPT_FROM_CAD_STANDARDS
 70
     0
  0
APPID
  2
ACAD_MLEADERVER
 70
     0
  0
ENDTAB
  0
TABLE
  2
DIMSTYLE
 70
     8
  0
DIMSTYLE
  2
AM_JIS
 70
     0
  3

  4
"
  5
OPEN30
  6

  7

 40
1.0
 41
2.5
 42
1.0
 43
10.0
 44
1.0
 45
0.0
 46
0.0
 47
0.1
 48
0.1
140
3.5
141
0.0
142
0.0
143
0.0393701
144
1.0
145
0.0
146
0.71
147
1.5
 71
     1
 72
     0
 73
     0
 74
     0
 75
     0
 76
     0
 77
     3
 78
     8
170
     0
171
     2
172
     1
173
     0
174
     0
175
     0
176
   256
177
   256
178
     2
  0
DIMSTYLE
  2
AM_JIS$3
 70
     0
  3

  4
"
  5
OPEN30
  6

  7

 40
1.0
 41
2.5
 42
1.0
 43
10.0
 44
1.0
 45
0.0
 46
0.0
 47
0.1
 48
0.1
140
3.5
141
0.0
142
0.0
143
0.0393701
144
1.0
145
0.0
146
0.71
147
1.5
 71
     1
 72
     0
 73
     1
 74
     1
 75
     0
 76
     0
 77
     3
 78
     8
170
     0
171
     2
172
     0
173
     0
174
     0
175
     0
176
   256
177
   256
178
     2
  0
DIMSTYLE
  2
AM_JIS$4
 70
     0
  3

  4
"
  5
OPEN30
  6

  7

 40
1.0
 41
2.5
 42
1.0
 43
10.0
 44
1.0
 45
0.0
 46
0.0
 47
0.1
 48
0.1
140
3.5
141
0.0
142
0.0
143
0.0393701
144
1.0
145
0.0
146
0.71
147
1.5
 71
     1
 72
     0
 73
     0
 74
     0
 75
     0
 76
     0
 77
     3
 78
     8
170
     0
171
     2
172
     0
173
     0
174
     0
175
     0
176
   256
177
   256
178
     2
  0
DIMSTYLE
  2
AM_JIS$6
 70
     0
  3

  4
"
  5
OPEN30
  6

  7

 40
1.0
 41
2.5
 42
1.0
 43
10.0
 44
1.0
 45
0.0
 46
0.0
 47
0.1
 48
0.1
140
3.5
141
0.0
142
0.0
143
0.0393701
144
1.0
145
0.0
146
0.71
147
1.5
 71
     1
 72
     0
 73
     0
 74
     0
 75
     0
 76
     0
 77
     3
 78
     8
170
     0
171
     2
172
     1
173
     0
174
     0
175
     0
176
   256
177
   256
178
     2
  0
DIMSTYLE
  2
AM_JIS$7
 70
     0
  3

  4
"
  5
OPEN30
  6

  7

 40
1.0
 41
2.5
 42
1.0
 43
10.0
 44
1.0
 45
0.0
 46
0.0
 47
0.1
 48
0.1
140
5.0
141
0.0
142
0.0
143
0.0393701
144
1.0
145
0.0
146
0.71
147
1.5
 71
     1
 72
     0
 73
     0
 74
     0
 75
     0
 76
     0
 77
     3
 78
     8
170
     0
171
     2
172
     1
173
     0
174
     0
175
     0
176
   256
177
   256
178
     2
  0
DIMSTYLE
  2
AM_JIS$SF
 70
     0
  3

  4
"
  5
OPEN30
  6
OPEN30
  7
OPEN30
 40
1.0
 41
2.5
 42
1.0
 43
10.0
 44
1.0
 45
0.0
 46
0.0
 47
0.1
 48
0.1
140
3.5
141
0.0
142
0.0
143
0.0393701
144
1.0
145
0.0
146
0.71
147
1.5
 71
     0
 72
     0
 73
     0
 74
     0
 75
     1
 76
     1
 77
     3
 78
     8
170
     0
171
     2
172
     1
173
     0
174
     0
175
     0
176
   256
177
   256
178
     2
  0
DIMSTYLE
  2
AM_JIS$SH
 70
     0
  3

  4
"
  5
OPEN30
  6
GENAXEH
  7
OPEN30
 40
1.0
 41
2.5
 42
1.0
 43
10.0
 44
1.0
 45
0.0
 46
0.0
 47
0.1
 48
0.1
140
3.5
141
0.0
142
0.0
143
0.0393701
144
2.0
145
0.0
146
0.71
147
1.5
 71
     0
 72
     0
 73
     0
 74
     0
 75
     1
 76
     1
 77
     3
 78
     8
170
     0
171
     2
172
     1
173
     1
174
     0
175
     0
176
   256
177
   256
178
     2
  0
DIMSTYLE
  2
STANDARD
 70
     0
  3

  4

  5

  6

  7

 40
1.0
 41
0.18
 42
0.0625
 43
0.38
 44
0.18
 45
0.0
 46
0.0
 47
0.0
 48
0.0
140
0.18
141
0.09
142
0.0
143
25.399999999999999
144
1.0
145
0.0
146
1.0
147
0.09
 71
     0
 72
     0
 73
     1
 74
     1
 75
     0
 76
     0
 77
     0
 78
     0
170
     0
171
     2
172
     0
173
     0
174
     0
175
     0
176
     0
177
     0
178
     0
  0
ENDTAB
  0
ENDSEC
  0
SECTION
  2
BLOCKS
  0
BLOCK
  8
0
  2
$MODEL_SPACE
 70
     2
 10
0.0
 20
0.0
 30
0.0
  3
$MODEL_SPACE
  1

  0
ENDBLK
  5
A
  8
0
  0
BLOCK
 67
     1
  8
0
  2
$PAPER_SPACE
 70
     0
 10
0.0
 20
0.0
 30
0.0
  3
$PAPER_SPACE
  1

  0
ENDBLK
  5
3C1E
 67
     1
  8
0
  0
BLOCK
  8
0
  2
GENAXEH
 70
     0
 10
0.0
 20
0.0
 30
0.0
  3
GENAXEH
  1

  0
LINE
  5
98
  8
0
 10
-1.0
 20
0.0
 30
0.0
 11
1.0
 21
0.0
 31
0.0
  0
ENDBLK
  5
9A
  8
0
  0
BLOCK
  8
0
 62
     0
  2
_OPEN30
 70
     0
 10
0.0
 20
0.0
 30
0.0
  3
_OPEN30
  1

  0
LINE
  5
21
  8
0
 62
     0
 10
-1.0
 20
0.26794919
 30
0.0
 11
0.0
 21
0.0
 31
0.0
  0
LINE
  5
22
  8
0
 62
     0
 10
0.0
 20
0.0
 30
0.0
 11
-1.0
 21
-0.26794919
 31
0.0
  0
LINE
  5
23
  8
0
 62
     0
 10
0.0
 20
0.0
 30
0.0
 11
-1.0
 21
0.0
 31
0.0
  0
ENDBLK
  5
25
  8
0
 62
     0
  0
BLOCK
  8
0
  2
*U4
 70
     1
 10
0.0
 20
0.0
 30
0.0
  3
*U4
  1

  0
TEXT
  5
5481
  8
0
 62
     2
 10
-120.56400766092941
 20
449.84949267077582
 30
0.0
 40
3.5
  1
pm-y45
  0
ENDBLK
  5
5483
  8
0
  0
ENDSEC
  0
SECTION
  2
ENTITIES
  0
INSERT
  5
3F57
  8
0
  2
*U4
 10
0.0
 20
0.0
 30
0.0
  0
LINE
  5
4F5F
  8
0
  6
CONTINUOUS
 62
     7
 10
-153.09616906987031
 20
485.9981682121541
 30
0.0
 11
-153.09616906987031
 21
477.59816821215418
 31
0.0
  0
LINE
  5
4F60
  8
0
  6
CONTINUOUS
 62
     7
 10
-153.09616906987031
 20
477.59816821215418
 30
0.0
 11
-147.09616906987031
 21
477.59816821215418
 31
0.0
  0
LINE
  5
4F61
  8
0
  6
CONTINUOUS
 62
     7
 10
-147.09616906987031
 20
477.59816821215418
 30
0.0
 11
-147.09616906987031
 21
485.9981682121541
 31
0.0
  0
LINE
  5
4F62
  8
0
  6
CONTINUOUS
 62
     7
 10
-147.09616906987031
 20
485.9981682121541
 30
0.0
 11
-143.3961690698703
 21
485.9981682121541
 31
0.0
  0
LINE
  5
4F63
  8
0
  6
CONTINUOUS
 62
     7
 10
-143.3961690698703
 20
485.9981682121541
 30
0.0
 11
-143.3961690698703
 21
475.6981682121542
 31
0.0
  0
LINE
  5
4F64
  8
0
  6
CONTINUOUS
 62
     7
 10
-153.09616906987031
 20
485.9981682121541
 30
0.0
 11
-156.7961690698703
 21
485.9981682121541
 31
0.0
  0
LINE
  5
4F65
  8
0
  6
CONTINUOUS
 62
     7
 10
-156.7961690698703
 20
485.9981682121541
 30
0.0
 11
-156.7961690698703
 21
475.6981682121542
 31
0.0
  0
LINE
  5
4F66
  8
0
  6
CONTINUOUS
 62
     7
 10
-156.7961690698703
 20
478.59816821215412
 30
0.0
 11
-156.7961690698703
 21
471.39816821215408
 31
0.0
  0
LINE
  5
4F67
  8
0
  6
CONTINUOUS
 62
     7
 10
-143.3961690698703
 20
471.39816821215408
 30
0.0
 11
-143.3961690698703
 21
478.59816821215412
 31
0.0
  0
LINE
  5
4F68
  8
0
  6
CONTINUOUS
 62
     7
 10
-156.7961690698703
 20
515.14035000931904
 30
0.0
 11
-156.7961690698703
 21
532.74035000931895
 31
0.0
  0
LINE
  5
4F69
  8
0
  6
CONTINUOUS
 62
     7
 10
-143.3961690698703
 20
515.14035000931904
 30
0.0
 11
-143.3961690698703
 21
532.74035000931895
 31
0.0
  0
ARC
  5
4F6A
  8
0
  6
CONTINUOUS
 62
     7
 10
-145.3961690698703
 20
532.74035000931895
 30
0.0
 40
2.0
 50
0.0
 51
90.0
  0
LINE
  5
4F6B
  8
0
  6
CONTINUOUS
 62
     7
 10
-143.3961690698703
 20
527.24035000931895
 30
0.0
 11
-156.7961690698703
 21
527.24035000931895
 31
0.0
  0
LINE
  5
4F6C
  8
0
  6
CONTINUOUS
 62
     7
 10
-156.7961690698703
 20
521.24035000931895
 30
0.0
 11
-143.3961690698703
 21
521.24035000931895
 31
0.0
  0
LINE
  5
4F6D
  8
0
  6
CONTINUOUS
 62
     7
 10
-153.09616906987031
 20
527.24035000931895
 30
0.0
 11
-153.09616906987031
 21
521.24035000931895
 31
0.0
  0
LINE
  5
4F6E
  8
0
  6
CONTINUOUS
 62
     7
 10
-147.09616906987031
 20
527.24035000931895
 30
0.0
 11
-147.09616906987031
 21
521.24035000931895
 31
0.0
  0
LINE
  5
4F6F
  8
0
  6
CONTINUOUS
 62
     7
 10
-112.3248707874347
 20
475.89816821215408
 30
0.0
 11
-112.3248707874347
 21
485.9981682121541
 31
0.0
  0
LINE
  5
4F70
  8
0
  6
CONTINUOUS
 62
     7
 10
-112.3248707874347
 20
485.9981682121541
 30
0.0
 11
-106.3248707874347
 21
485.9981682121541
 31
0.0
  0
LINE
  5
4F71
  8
0
  6
CONTINUOUS
 62
     7
 10
-106.3248707874347
 20
485.9981682121541
 30
0.0
 11
-106.3248707874347
 21
473.89816821215408
 31
0.0
  0
LINE
  5
4F73
  8
0
  6
CENTER
 62
     4
 10
-109.3248707874347
 20
487.39516821215409
 30
0.0
 11
-109.3248707874347
 21
470.44456547382748
 31
0.0
1001
GENIUS_GENOBJ-N-CEN_13
1002
{
1000
OWNER
1000
GEN
1002
}
1001
GENIUS_GENODEF_13
1002
{
1000
HIER
1070
     0
1002
}
1002
{
1000
MANEDIT
1070
     0
1002
}
1002
{
1000
NOSEL
1070
     0
1002
}
1002
{
1000
BEHIND
1070
     0
1002
}
1002
{
1000
OTHER
1070
     0
1002
}
1002
{
1000
REACTOR
1002
}
1001
GENIUS_GENCEN_19
1002
{
1040
1.397
1002
}
  0
LINE
  5
4F75
  8
0
  6
CENTER
 62
     4
 10
-150.09616906987031
 20
536.60232422932552
 30
0.0
 11
-150.09616906987031
 21
501.24916455743352
 31
0.0
1001
GENIUS_GENODEF_13
1002
{
1000
HIER
1070
     0
1002
}
1002
{
1000
MANEDIT
1070
     0
1002
}
1002
{
1000
NOSEL
1070
     0
1002
}
1002
{
1000
BEHIND
1070
     0
1002
}
1002
{
1000
OTHER
1070
     0
1002
}
1002
{
1000
REACTOR
1002
}
1001
GENIUS_GENOBJ-N-CEN_13
1002
{
1000
OWNER
1000
GEN
1002
}
1001
GENIUS_GENCEN_19
1002
{
1040
1.397
1002
}
  0
LINE
  5
4F76
  8
0
  6
CENTER
 62
     4
 10
-150.09616906987031
 20
487.1759046700314
 30
0.0
 11
-150.09616906987031
 21
470.44456547382748
 31
0.0
1001
GENIUS_GENODEF_13
1002
{
1000
HIER
1070
     0
1002
}
1002
{
1000
MANEDIT
1070
     0
1002
}
1002
{
1000
NOSEL
1070
     0
1002
}
1002
{
1000
BEHIND
1070
     0
1002
}
1002
{
1000
OTHER
1070
     0
1002
}
1002
{
1000
REACTOR
1002
}
1001
GENIUS_GENOBJ-N-CEN_13
1002
{
1000
OWNER
1000
GEN
1002
}
1001
GENIUS_GENCEN_19
1002
{
1040
1.397
1002
}
  0
CIRCLE
  5
4F77
  8
0
  6
CONTINUOUS
 62
     7
 10
-150.09616906987031
 20
473.39816821215408
 30
0.0
 40
1.25
  0
LINE
  5
4F78
  8
0
  6
CONTINUOUS
 62
     7
 10
-156.7961690698703
 20
475.89816821215408
 30
0.0
 11
-143.3961690698703
 21
475.89816821215408
 31
0.0
  0
LINE
  5
4F79
  8
0
  6
CENTER
 62
     4
 10
-152.74316906987031
 20
473.39816821215408
 30
0.0
 11
-147.44916906987029
 21
473.39816821215408
 31
0.0
1001
GENIUS_GENOBJ-N-CEN_13
1002
{
1000
OWNER
1000
GEN
1002
}
1001
GENIUS_GENODEF_13
1002
{
1000
HIER
1070
     0
1002
}
1002
{
1000
MANEDIT
1070
     0
1002
}
1002
{
1000
NOSEL
1070
     0
1002
}
1002
{
1000
BEHIND
1070
     0
1002
}
1002
{
1000
OTHER
1070
     0
1002
}
1002
{
1000
REACTOR
1002
}
1001
GENIUS_GENCEN_19
1002
{
1040
1.397
1002
}
  0
LINE
  5
4F7A
  8
0
  6
CONTINUOUS
 62
     7
 10
-152.59616906987031
 20
514.14035000931904
 30
0.0
 11
-152.59616906987031
 21
512.64035000931904
 31
0.0
  0
LINE
  5
4F7B
  8
0
  6
CONTINUOUS
 62
     7
 10
-152.59616906987031
 20
512.64035000931904
 30
0.0
 11
-147.59616906987031
 21
512.64035000931904
 31
0.0
  0
LINE
  5
4F7C
  8
0
  6
CONTINUOUS
 62
     7
 10
-147.59616906987031
 20
512.64035000931904
 30
0.0
 11
-147.59616906987031
 21
514.14035000931904
 31
0.0
  0
LINE
  5
4F7D
  8
0
  6
CONTINUOUS
 62
     7
 10
-151.34616906987031
 20
512.64035000931904
 30
0.0
 11
-151.34616906987031
 21
503.54035000931901
 31
0.0
  0
LINE
  5
4F7E
  8
0
  6
CONTINUOUS
 62
     7
 10
-148.84616906987031
 20
503.54035000931901
 30
0.0
 11
-148.84616906987031
 21
512.64035000931904
 31
0.0
  0
LINE
  5
4F80
  8
0
  6
CONTINUOUS
 62
     7
 10
-112.3248707874347
 20
475.89816821215408
 30
0.0
 11
-120.9248707874347
 21
475.89816821215408
 31
0.0
  0
LINE
  5
4F81
  8
0
  6
CONTINUOUS
 62
     7
 10
-120.9248707874347
 20
475.89816821215408
 30
0.0
 11
-120.9248707874347
 21
471.39816821215408
 31
0.0
  0
LINE
  5
4F82
  8
0
  6
CONTINUOUS
 62
     7
 10
-120.9248707874347
 20
471.39816821215408
 30
0.0
 11
-98.824870787434747
 21
471.39816821215408
 31
0.0
  0
LINE
  5
4F83
  8
0
  6
CONTINUOUS
 62
     7
 10
-119.4248707874348
 20
475.89816821215408
 30
0.0
 11
-119.4248707874348
 21
471.39816821215408
 31
0.0
  0
LINE
  5
4F84
  8
0
  6
CONTINUOUS
 62
     7
 10
-120.9248707874347
 20
474.64816821215408
 30
0.0
 11
-130.02487078743479
 21
474.64816821215408
 31
0.0
  0
LINE
  5
4F85
  8
0
  6
CONTINUOUS
 62
     7
 10
-130.02487078743479
 20
472.14816821215408
 30
0.0
 11
-120.9248707874347
 21
472.14816821215408
 31
0.0
  0
LINE
  5
4F87
  8
0
  6
CONTINUOUS
 62
     7
 10
-155.7961690698703
 20
514.14035000931904
 30
0.0
 11
-152.59616906987031
 21
514.14035000931904
 31
0.0
  0
LINE
  5
4F88
  8
0
  6
CONTINUOUS
 62
     7
 10
-147.59616906987031
 20
514.14035000931904
 30
0.0
 11
-144.3961690698703
 21
514.14035000931904
 31
0.0
  0
ARC
  5
4F89
  8
0
  6
CONTINUOUS
 62
     7
 10
-155.7961690698703
 20
515.14035000931904
 30
0.0
 40
1.0
 50
180.0
 51
270.0
  0
ARC
  5
4F8A
  8
0
  6
CONTINUOUS
 62
     7
 10
-144.3961690698703
 20
515.14035000931904
 30
0.0
 40
1.0
 50
270.0
 51
0.0
  0
LINE
  5
4F8B
  8
0
  6
CONTINUOUS
 62
     7
 10
-154.7961690698703
 20
534.74035000931895
 30
0.0
 11
-145.3961690698703
 21
534.74035000931895
 31
0.0
  0
ARC
  5
4F8C
  8
0
  6
CONTINUOUS
 62
     7
 10
-154.7961690698703
 20
532.74035000931895
 30
0.0
 40
2.0
 50
90.0
 51
180.0
  0
LINE
  5
4F8D
  8
0
  6
CONTINUOUS
 62
     7
 10
-156.7961690698703
 20
471.39816821215408
 30
0.0
 11
-143.3961690698703
 21
471.39816821215408
 31
0.0
  0
CIRCLE
  5
4F8E
  8
0
  6
CONTINUOUS
 62
     7
 10
-153.59616906987031
 20
531.24035000931895
 30
0.0
 40
1.75
  0
CIRCLE
  5
4F8F
  8
0
  6
CONTINUOUS
 62
     7
 10
-146.59616906987031
 20
531.24035000931895
 30
0.0
 40
1.75
  0
LINE
  5
4F90
  8
0
  6
CENTER
 62
     4
 10
-158.19316906987029
 20
524.24035000931895
 30
0.0
 11
-141.99916906987031
 21
524.24035000931895
 31
0.0
1001
GENIUS_GENOBJ-N-CEN_13
1002
{
1000
OWNER
1000
GEN
1002
}
1001
GENIUS_GENODEF_13
1002
{
1000
HIER
1070
     0
1002
}
1002
{
1000
MANEDIT
1070
     0
1002
}
1002
{
1000
NOSEL
1070
     0
1002
}
1002
{
1000
BEHIND
1070
     0
1002
}
1002
{
1000
OTHER
1070
     0
1002
}
1002
{
1000
REACTOR
1002
}
1001
GENIUS_GENCEN_19
1002
{
1040
1.397
1002
}
  0
LINE
  5
4F92
  8
0
  6
CENTER
 62
     4
 10
-153.59616906987031
 20
534.38735000931911
 30
0.0
 11
-153.59616906987031
 21
528.09335000931901
 31
0.0
1001
GENIUS_GENOBJ-N-CEN_13
1002
{
1000
OWNER
1000
GEN
1002
}
1001
GENIUS_GENODEF_13
1002
{
1000
HIER
1070
     0
1002
}
1002
{
1000
MANEDIT
1070
     0
1002
}
1002
{
1000
NOSEL
1070
     0
1002
}
1002
{
1000
BEHIND
1070
     0
1002
}
1002
{
1000
OTHER
1070
     0
1002
}
1002
{
1000
REACTOR
1002
}
1001
GENIUS_GENCEN_19
1002
{
1040
1.397
1002
}
  0
LINE
  5
4F93
  8
0
  6
CENTER
 62
     4
 10
-146.59616906987031
 20
534.38735000931911
 30
0.0
 11
-146.59616906987031
 21
528.09335000931901
 31
0.0
1001
GENIUS_GENOBJ-N-CEN_13
1002
{
1000
OWNER
1000
GEN
1002
}
1001
GENIUS_GENODEF_13
1002
{
1000
HIER
1070
     0
1002
}
1002
{
1000
MANEDIT
1070
     0
1002
}
1002
{
1000
NOSEL
1070
     0
1002
}
1002
{
1000
BEHIND
1070
     0
1002
}
1002
{
1000
OTHER
1070
     0
1002
}
1002
{
1000
REACTOR
1002
}
1001
GENIUS_GENCEN_19
1002
{
1040
1.397
1002
}
  0
LINE
  5
4F94
  8
0
  6
CENTER
 62
     4
 10
-156.74316906987031
 20
531.24035000931895
 30
0.0
 11
-150.44916906987029
 21
531.24035000931895
 31
0.0
1001
GENIUS_GENODEF_13
1002
{
1000
HIER
1070
     0
1002
}
1002
{
1000
MANEDIT
1070
     0
1002
}
1002
{
1000
NOSEL
1070
     0
1002
}
1002
{
1000
BEHIND
1070
     0
1002
}
1002
{
1000
OTHER
1070
     0
1002
}
1002
{
1000
REACTOR
1002
}
1001
GENIUS_GENOBJ-N-CEN_13
1002
{
1000
OWNER
1000
GEN
1002
}
1001
GENIUS_GENCEN_19
1002
{
1040
1.397
1002
}
  0
LINE
  5
4F95
  8
0
  6
CENTER
 62
     4
 10
-149.74316906987031
 20
531.24035000931895
 30
0.0
 11
-143.44916906987029
 21
531.24035000931895
 31
0.0
1001
GENIUS_GENOBJ-N-CEN_13
1002
{
1000
OWNER
1000
GEN
1002
}
1001
GENIUS_GENODEF_13
1002
{
1000
HIER
1070
     0
1002
}
1002
{
1000
MANEDIT
1070
     0
1002
}
1002
{
1000
NOSEL
1070
     0
1002
}
1002
{
1000
BEHIND
1070
     0
1002
}
1002
{
1000
OTHER
1070
     0
1002
}
1002
{
1000
REACTOR
1002
}
1001
GENIUS_GENCEN_19
1002
{
1040
1.397
1002
}
  0
LINE
  5
4F96
  8
0
  6
CONTINUOUS
 62
     7
 10
-98.824870787434747
 20
471.39816821215408
 30
0.0
 11
-98.824870787434747
 21
473.89816821215408
 31
0.0
  0
LINE
  5
4F97
  8
0
  6
CONTINUOUS
 62
     7
 10
-98.824870787434747
 20
473.89816821215408
 30
0.0
 11
-106.3248707874347
 21
473.89816821215408
 31
0.0
  0
LINE
  5
4F98
  8
0
  6
CENTER
 62
     4
 10
-102.3248707874347
 20
475.29516821215401
 30
0.0
 11
-102.3248707874347
 21
470.00116821215408
 31
0.0
1001
GENIUS_GENOBJ-N-CEN_13
1002
{
1000
OWNER
1000
GEN
1002
}
1001
GENIUS_GENODEF_13
1002
{
1000
HIER
1070
     0
1002
}
1002
{
1000
MANEDIT
1070
     0
1002
}
1002
{
1000
NOSEL
1070
     0
1002
}
1002
{
1000
BEHIND
1070
     0
1002
}
1002
{
1000
OTHER
1070
     0
1002
}
1002
{
1000
REACTOR
1002
}
1001
GENIUS_GENCEN_19
1002
{
1040
1.397
1002
}
  0
LINE
  5
4FA5
  8
0
  6
CONTINUOUS
 62
     7
 10
-152.59616906987031
 20
475.89816821215408
 30
0.0
 11
-152.59616906987031
 21
471.39816821215408
 31
0.0
  0
LINE
  5
4FA6
  8
0
  6
CONTINUOUS
 62
     7
 10
-147.59616906987031
 20
475.89816821215408
 30
0.0
 11
-147.59616906987031
 21
471.39816821215408
 31
0.0
  0
LINE
  5
4FA7
  8
0
  6
CONTINUOUS
 62
     4
 10
-151.9662190481329
 20
483.9981682121541
 30
0.0
 11
-148.09616906987031
 21
483.9981682121541
 31
0.0
  0
LINE
  5
4FA8
  8
0
  6
CONTINUOUS
 62
     4
 10
-148.09616906987031
 20
483.9981682121541
 30
0.0
 11
-149.09616906987031
 21
484.40242950892582
 31
0.0
  0
LINE
  5
4FA9
  8
0
  6
CONTINUOUS
 62
     4
 10
-148.09616906987031
 20
483.9981682121541
 30
0.0
 11
-149.09616906987031
 21
483.59390691538238
 31
0.0
  0
LINE
  5
4FAA
  8
0
  6
CONTINUOUS
 62
     4
 10
-151.9662190481329
 20
524.24035000931895
 30
0.0
 11
-148.09616906987031
 21
524.24035000931895
 31
0.0
  0
LINE
  5
4FAB
  8
0
  6
CONTINUOUS
 62
     4
 10
-148.09616906987031
 20
524.24035000931895
 30
0.0
 11
-149.09616906987031
 21
524.64461130609072
 31
0.0
  0
LINE
  5
4FAC
  8
0
  6
CONTINUOUS
 62
     4
 10
-148.09616906987031
 20
524.24035000931895
 30
0.0
 11
-149.09616906987031
 21
523.83608871254728
 31
0.0
  0
LINE
  5
4FAD
  8
0
  6
CONTINUOUS
 62
     7
 10
-153.09616906987031
 20
477.59816821215418
 30
0.0
 11
-153.09616906987031
 21
476.59816821215412
 31
0.0
  0
LINE
  5
4FAE
  8
0
  6
CONTINUOUS
 62
     7
 10
-153.09616906987031
 20
476.59816821215412
 30
0.0
 11
-147.09616906987031
 21
476.59816821215412
 31
0.0
  0
LINE
  5
4FAF
  8
0
  6
CONTINUOUS
 62
     7
 10
-147.09616906987031
 20
476.59816821215412
 30
0.0
 11
-147.09616906987031
 21
477.59816821215418
 31
0.0
  0
LINE
  5
540A
  8
0
  6
CONTINUOUS
 62
     7
 10
-153.0961690698702
 20
526.74035000931895
 30
0.0
 11
-147.09616906987031
 21
526.74035000931895
 31
0.0
  0
LINE
  5
540B
  8
0
  6
CONTINUOUS
 62
     7
 10
-153.0961690698702
 20
521.74035000931906
 30
0.0
 11
-147.09616906987031
 21
521.74035000931906
 31
0.0
  0
VIEWPORT
  5
3C22
 67
     1
  8
0
 10
142.58924865722659
 20
99.112914085388184
 30
0.0
 40
357.25521212877948
 41
222.15178063964851
 68
     1
 69
     1
1001
ACAD
1000
MVIEW
1002
{
1070
    16
1010
0.0
1020
0.0
1030
0.0
1010
0.0
1020
0.0
1030
1.0
1040
0.0
1040
222.15178063964851
1040
142.58924865722659
1040
99.112914085388184
1040
50.0
1040
0.0
1040
0.0
1070
     0
1070
   100
1070
     1
1070
     1
1070
     0
1070
     0
1070
     0
1070
     0
1040
0.0
1040
0.0
1040
0.0
1040
10.0
1040
10.0
1040
10.0
1040
10.0
1070
     0
1002
{
1002
}
1002
}
1001
GENIUS_GENOBJ-N-SDF_13
1002
{
1000
OWNER
1000
GEN
1002
}
1001
GENIUS_GENODEF_13
1002
{
1000
HIER
1070
     0
1002
}
1002
{
1000
MANEDIT
1070
     0
1002
}
1002
{
1000
NOSEL
1070
     0
1002
}
1002
{
1000
BEHIND
1070
     0
1002
}
1002
{
1000
OTHER
1070
     0
1002
}
1002
{
1000
REACTOR
1002
}
1001
GENIUS_GENSCREG_15
1000
PF
1040
1.0
1000
DF
1040
1.0
1000
MIN
1011
-36.038357407163232
1021
0.0
1031
0.0
1021
-11.96297623443604
1031
0.0
1000
MAX
1011
321.2168547216163
1021
0.0
1031
0.0
1021
210.18880440521241
1031
0.0
1000
FLAGS
1070
     4
  0
ENDSEC
  0
EOF
