  0
SECTION
  2
HEADER
  9
$ACADVER
  1
AC1009
  9
$INSBASE
 10
177.9999997912175
 20
6.7085914059697132
 30
0.0
  9
$EXTMIN
 10
104.7996198390299
 20
139.17627033821341
 30
-0.0000000000022887
  9
$EXTMAX
 10
173.41095594498941
 20
203.73887690242711
 30
0.0000000000000001
  9
$LIMMIN
 10
0.0
 20
0.0
  9
$LIMMAX
 10
190.0
 20
277.0
  9
$ORTHOMODE
 70
     0
  9
$REGENMODE
 70
     1
  9
$FILLMODE
 70
     1
  9
$QTEXTMODE
 70
     0
  9
$MIRRTEXT
 70
     1
  9
$DRAGMODE
 70
     2
  9
$LTSCALE
 40
1.0
  9
$OSMODE
 70
   549
  9
$ATTMODE
 70
     1
  9
$TEXTSIZE
 40
5.0
  9
$TRACEWID
 40
1.0
  9
$TEXTSTYLE
  7
STANDARD
  9
$CLAYER
  8
0
  9
$CELTYPE
  6
BYLAYER
  9
$CECOLOR
 62
   256
  9
$DIMSCALE
 40
1.0
  9
$DIMASZ
 40
2.5
  9
$DIMEXO
 40
1.0
  9
$DIMDLI
 40
10.0
  9
$DIMRND
 40
0.0
  9
$DIMDLE
 40
0.0
  9
$DIMEXE
 40
1.0
  9
$DIMTP
 40
0.1
  9
$DIMTM
 40
0.1
  9
$DIMTXT
 40
3.5
  9
$DIMCEN
 40
0.0
  9
$DIMTSZ
 40
0.0
  9
$DIMTOL
 70
     1
  9
$DIMLIM
 70
     0
  9
$DIMTIH
 70
     0
  9
$DIMTOH
 70
     0
  9
$DIMSE1
 70
     0
  9
$DIMSE2
 70
     0
  9
$DIMTAD
 70
     3
  9
$DIMZIN
 70
     8
  9
$DIMBLK
  1
OPEN30
  9
$DIMASO
 70
     1
  9
$DIMSHO
 70
     1
  9
$DIMPOST
  1

  9
$DIMAPOST
  1
"
  9
$DIMALT
 70
     0
  9
$DIMALTD
 70
     2
  9
$DIMALTF
 40
0.0393701
  9
$DIMLFAC
 40
1.0
  9
$DIMTOFL
 70
     1
  9
$DIMTVP
 40
0.0
  9
$DIMTIX
 70
     0
  9
$DIMSOXD
 70
     0
  9
$DIMSAH
 70
     0
  9
$DIMBLK1
  1

  9
$DIMBLK2
  1

  9
$DIMSTYLE
  2
AM_JIS
  9
$DIMCLRD
 70
   256
  9
$DIMCLRE
 70
   256
  9
$DIMCLRT
 70
     2
  9
$DIMTFAC
 40
0.71
  9
$DIMGAP
 40
1.5
  9
$LUNITS
 70
     2
  9
$LUPREC
 70
     2
  9
$SKETCHINC
 40
1.0
  9
$FILLETRAD
 40
0.0
  9
$AUNITS
 70
     0
  9
$AUPREC
 70
     0
  9
$MENU
  1
.
  9
$ELEVATION
 40
0.0
  9
$PELEVATION
 40
0.0
  9
$THICKNESS
 40
0.0
  9
$LIMCHECK
 70
     0
  9
$BLIPMODE
 70
     0
  9
$CHAMFERA
 40
0.0
  9
$CHAMFERB
 40
0.0
  9
$SKPOLY
 70
     0
  9
$TDCREATE
 40
2457185.6406089808
  9
$TDUPDATE
 40
2457235.480283658
  9
$TDINDWG
 40
0.0761270602
  9
$TDUSRTIMER
 40
0.0761270602
  9
$USRTIMER
 70
     1
  9
$ANGBASE
 50
0.0
  9
$ANGDIR
 70
     0
  9
$PDMODE
 70
     0
  9
$PDSIZE
 40
0.0
  9
$PLINEWID
 40
0.0
  9
$COORDS
 70
     2
  9
$SPLFRAME
 70
     0
  9
$SPLINETYPE
 70
     6
  9
$SPLINESEGS
 70
     8
  9
$ATTDIA
 70
     1
  9
$ATTREQ
 70
     1
  9
$HANDLING
 70
     1
  9
$HANDSEED
  5
5B9B
  9
$SURFTAB1
 70
     6
  9
$SURFTAB2
 70
     6
  9
$SURFTYPE
 70
     6
  9
$SURFU
 70
     6
  9
$SURFV
 70
     6
  9
$UCSNAME
  2

  9
$UCSORG
 10
0.0
 20
0.0
 30
0.0
  9
$UCSXDIR
 10
1.0
 20
0.0
 30
0.0
  9
$UCSYDIR
 10
0.0
 20
1.0
 30
0.0
  9
$PUCSNAME
  2

  9
$PUCSORG
 10
0.0
 20
0.0
 30
0.0
  9
$PUCSXDIR
 10
1.0
 20
0.0
 30
0.0
  9
$PUCSYDIR
 10
0.0
 20
1.0
 30
0.0
  9
$USERI1
 70
     0
  9
$USERI2
 70
     0
  9
$USERI3
 70
     0
  9
$USERI4
 70
     0
  9
$USERI5
 70
     0
  9
$USERR1
 40
0.0
  9
$USERR2
 40
0.0
  9
$USERR3
 40
0.0
  9
$USERR4
 40
0.0
  9
$USERR5
 40
0.0
  9
$WORLDVIEW
 70
     1
  9
$SHADEDGE
 70
     3
  9
$SHADEDIF
 70
    70
  9
$TILEMODE
 70
     1
  9
$MAXACTVP
 70
    64
  9
$PLIMCHECK
 70
     0
  9
$PEXTMIN
 10
1.0000000000000000E+020
 20
1.0000000000000000E+020
 30
1.0000000000000000E+020
  9
$PEXTMAX
 10
-1.0000000000000000E+020
 20
-1.0000000000000000E+020
 30
-1.0000000000000000E+020
  9
$PLIMMIN
 10
-5.873748779296875
 20
-5.8737497329711914
  9
$PLIMMAX
 10
291.09457397460932
 20
204.0995779037475
  9
$UNITMODE
 70
     0
  9
$VISRETAIN
 70
     1
  9
$PLINEGEN
 70
     0
  9
$PSLTSCALE
 70
     1
  0
ENDSEC
  0
SECTION
  2
TABLES
  0
TABLE
  2
VPORT
 70
     1
  0
VPORT
  2
*ACTIVE
 70
     0
 10
0.0
 20
0.0
 11
1.0
 21
1.0
 12
135.0785106238971
 22
172.993768149804
 13
0.0
 23
0.0
 14
2.5
 24
2.5
 15
10.0
 25
10.0
 16
0.0
 26
0.0
 36
1.0
 17
0.0
 27
0.0
 37
0.0
 40
104.02393096898599
 41
1.63095238095238
 42
50.0
 43
0.0
 44
0.0
 50
0.0
 51
0.0
 71
     0
 72
   100
 73
     1
 74
     1
 75
     0
 76
     0
 77
     0
 78
     0
  0
ENDTAB
  0
TABLE
  2
LTYPE
 70
    25
  0
LTYPE
  2
CONTINUOUS
 70
     0
  3
Solid line
 72
    65
 73
     0
 40
0.0
  0
LTYPE
  2
AM_ISO02W050
 70
     0
  3
__ __ __ __ __ __ __ __ __ __ __ __ __ __ __
 72
    65
 73
     2
 40
7.5
 49
6.0
 49
-1.5
  0
LTYPE
  2
AM_ISO08W050
 70
     0
  3
____ . ____ . ____ . ____ . ____ . ____ . ____
 72
    65
 73
     4
 40
18.0
 49
12.0
 49
-1.5
 49
3.0
 49
-1.5
  0
LTYPE
  2
AM_ISO09W050
 70
     0
  3
_____ . . _____ . . _____ . . ____ .. ____
 72
    65
 73
     6
 40
22.5
 49
12.0
 49
-1.5
 49
3.0
 49
-1.5
 49
3.0
 49
-1.5
  0
LTYPE
  2
AMCONSTR
 70
     0
  3
_______________________
 72
    65
 73
     2
 40
9999.0
 49
9999.0
 49
0.0
  0
LTYPE
  2
AM_ISO02W050X2
 70
     0
  3
 _ _ _ _ _ _ _ _ _ _ _ _
 72
    65
 73
     2
 40
3.75
 49
3.0
 49
-0.75
  0
LTYPE
  2
AM_ISO08W050X2
 70
     0
  3
__ . __ . __ . __ . __ . __
 72
    65
 73
     4
 40
9.0
 49
6.0
 49
-0.75
 49
1.5
 49
-0.75
  0
LTYPE
  2
AMZIGZAG
 70
     0
  3
/\/-/\/-/\/-/\/-/\/-/\/
 72
    65
 73
     2
 40
11.0001
 49
0.0001
 49
-11.0
  0
LTYPE
  2
CENTER
 70
     0
  3
____ _ ____ _
 72
    65
 73
     4
 40
13.42150481887249
 49
8.3884405117953058
 49
-1.67768810235906
 49
1.67768810235906
 49
-1.67768810235906
  0
LTYPE
  2
HIDDEN
 70
     0
  3
_ _ _ _ _ _ _
 72
    65
 73
     2
 40
2.5165321535385901
 49
1.67768810235906
 49
-0.8388440511795305
  0
LTYPE
  2
PHANTOM2
 70
     0
  3
Phantom (.5x) ___ _ _ ___ _ _ ___ _ _ ___ _ _
 72
    65
 73
     6
 40
1.25
 49
0.625
 49
-0.125
 49
0.125
 49
-0.125
 49
0.125
 49
-0.125
  0
LTYPE
  2
ACJISTGB
 70
     0
  3
__ . . __ . .
 72
    65
 73
     6
 40
9.0
 49
4.0
 49
-1.0
 49
1.0
 49
-1.0
 49
1.0
 49
-1.0
  0
LTYPE
  2
ACJISTGL
 70
     0
  3
_ _ _ _ _
 72
    65
 73
     2
 40
3.0
 49
2.0
 49
-1.0
  0
LTYPE
  2
ACANSTGBM
 70
     0
  3
__ . . __ . .
 72
    65
 73
     6
 40
9.0
 49
4.0
 49
-1.0
 49
1.0
 49
-1.0
 49
1.0
 49
-1.0
  0
LTYPE
  2
ACANSTGLM
 70
     0
  3
_ _ _ _ _
 72
    65
 73
     2
 40
3.0
 49
2.0
 49
-1.0
  0
LTYPE
  2
ACISOWELD
 70
     0
  3
_ _ _ _ _
 72
    65
 73
     2
 40
2.0
 49
2.0
 49
-1.0
  0
LTYPE
  2
ACISOTGL
 70
     0
  3
_ _ _ _ _
 72
    65
 73
     2
 40
3.0
 49
2.0
 49
-1.0
  0
LTYPE
  2
ACISOTGB
 70
     0
  3
__ . . __ . .
 72
    65
 73
     6
 40
9.0
 49
4.0
 49
-1.0
 49
1.0
 49
-1.0
 49
1.0
 49
-1.0
  0
ENDTAB
  0
TABLE
  2
LAYER
 70
    21
  0
LAYER
  2
0
 70
     0
 62
     7
  6
CONTINUOUS
  0
LAYER
  2
DEFPOINTS
 70
     0
 62
     7
  6
CONTINUOUS
  0
ENDTAB
  0
TABLE
  2
STYLE
 70
     9
  0
STYLE
  2
STANDARD
 70
     0
 40
0.0
 41
1.0
 50
0.0
 71
     0
 42
5.0
  3
isocp.shx
  4
extfont.shx
  0
STYLE
  2

 70
     1
 40
0.0
 41
1.0
 50
0.0
 71
     0
 42
2.5
  3
ltypeshp.shx
  4

  0
STYLE
  2
ACJISTS
 70
     0
 40
1.0
 41
1.0
 50
0.0
 71
     0
 42
3.5
  3
isocp.shx
  4
bigfont.shx
  0
STYLE
  2
ACJISGDT
 70
     0
 40
0.0
 41
1.0
 50
0.0
 71
     0
 42
3.5
  3
amgdt.shx
  4

  0
STYLE
  2
ACANSTS
 70
     0
 40
1.0
 41
1.0
 50
0.0
 71
     0
 42
5.0
  3
romans.shx
  4
extfont.shx
  0
STYLE
  2
ACANSGDT
 70
     0
 40
0.0
 41
1.0
 50
0.0
 71
     0
 42
5.0
  3
amgdtans.shx
  4

  0
STYLE
  2
ACISOGDT
 70
     0
 40
0.0
 41
1.0
 50
0.0
 71
     0
 42
2.5
  3
amgdt.shx
  4

  0
ENDTAB
  0
TABLE
  2
VIEW
 70
     7
  0
VIEW
  2
AM_VIEW1
 70
     1
 40
210.0
 10
215.76588321825781
 20
297.20624923706049
 41
443.11926605504578
 11
0.0
 21
0.0
 31
1.0
 12
0.0
 22
0.0
 32
0.0
 42
50.0
 43
0.0
 44
0.0
 50
0.0
 71
     0
  0
VIEW
  2
AM_VIEW2
 70
     1
 40
210.0
 10
366.64661716321189
 20
297.20624923706049
 41
443.11926605504578
 11
0.0
 21
0.0
 31
1.0
 12
0.0
 22
0.0
 32
0.0
 42
50.0
 43
0.0
 44
0.0
 50
0.0
 71
     0
  0
VIEW
  2
AM_VIEW3
 70
     1
 40
210.0
 10
215.76588321825781
 20
87.206249237060547
 41
443.11926605504578
 11
0.0
 21
0.0
 31
1.0
 12
0.0
 22
0.0
 32
0.0
 42
50.0
 43
0.0
 44
0.0
 50
0.0
 71
     0
  0
VIEW
  2
AM_VIEW4
 70
     1
 40
210.0
 10
366.64661716321189
 20
87.206249237060547
 41
443.11926605504578
 11
0.0
 21
0.0
 31
1.0
 12
0.0
 22
0.0
 32
0.0
 42
50.0
 43
0.0
 44
0.0
 50
0.0
 71
     0
  0
VIEW
  2
AM_VIEW5
 70
     1
 40
210.0
 10
291.20625019073492
 20
192.20624923706049
 41
443.1192660550459
 11
0.0
 21
0.0
 31
1.0
 12
0.0
 22
0.0
 32
0.0
 42
50.0
 43
0.0
 44
0.0
 50
0.0
 71
     0
  0
VIEW
  2
AM_VIEW6
 70
     1
 40
419.99579999999997
 10
291.20625019073492
 20
192.20624923706049
 41
886.2296697247707
 11
0.0
 21
0.0
 31
1.0
 12
0.0
 22
0.0
 32
0.0
 42
50.0
 43
0.0
 44
0.0
 50
0.0
 71
     0
  0
ENDTAB
  0
TABLE
  2
UCS
 70
     0
  0
ENDTAB
  0
TABLE
  2
APPID
 70
    62
  0
APPID
  2
ACAD
 70
     0
  0
APPID
  2
MCAD_NO_VIS
 70
     0
  0
APPID
  2
ACAD_TEMP_GRAPHIC
 70
     0
  0
APPID
  2
GENIUS_GENODEF_13
 70
     0
  0
APPID
  2
GENIUS_GENOBJ-N-TIT_13
 70
     0
  0
APPID
  2
GENIUS_GENTITLE_13
 70
     0
  0
APPID
  2
GENIUS_GENOENT_13
 70
     0
  0
APPID
  2
GENIUS_GENOREF_13
 70
     0
  0
APPID
  2
GENIUS_GENOLIS_13
 70
     0
  0
APPID
  2
GENIUS_GENZVEED_13
 70
     0
  0
APPID
  2
GENIUS_GENSCREG_15
 70
     0
  0
APPID
  2
GENIUS_GENOBJ-N-SDF_13
 70
     0
  0
APPID
  2
GENIUS_GENOBJ-N-CEN_13
 70
     0
  0
APPID
  2
GENIUS_GENOBJ-N-SEC_13
 70
     0
  0
APPID
  2
GENIUS_GENREC_14
 70
     0
  0
APPID
  2
GENIUS_GENOBJ-N-REC_13
 70
     0
  0
APPID
  2
GENIUS_GENBH_13
 70
     0
  0
APPID
  2
GENIUS_GENOBJ-NBEHI-BHF_13
 70
     0
  0
APPID
  2
GENIUS_GENOBJ-NBEHI-BHB_13
 70
     0
  0
APPID
  2
GENIUS_GENDTOL_13
 70
     0
  0
APPID
  2
GENIUS_GENOBJ-N-HTC_13
 70
     0
  0
APPID
  2
GENIUS_GENHATCH_13
 70
     0
  0
APPID
  2
GENIUS_GENOBJ-N-CRS_13
 70
     0
  0
APPID
  2
GENIUS_GENOBJ-N-CRC_13
 70
     0
  0
APPID
  2
GENIUS_GENCRC_14
 70
     0
  0
APPID
  2
GENIUS_GENOBJ-F-SHCL_13
 70
     0
  0
APPID
  2
GENIUS_GEFMSH_13
 70
     0
  0
APPID
  2
GENIUS_GEFSH_13
 70
     0
  0
APPID
  2
GENIUS_GEFSHP_13
 70
     0
  0
APPID
  2
GENIUS_GENOBJ-F-SHS_13
 70
     0
  0
APPID
  2
GENIUS_GENOBJ-F-SHSS_13
 70
     0
  0
APPID
  2
GENIUS_GEFSHP0_13
 70
     0
  0
APPID
  2
GENIUS_GEFSH0_13
 70
     0
  0
APPID
  2
GEVID995428964
 70
     0
  0
APPID
  2
GEVDC
 70
     0
  0
APPID
  2
GENIUS_GENBH_14
 70
     0
  0
APPID
  2
GEVID995428965
 70
     0
  0
APPID
  2
GEVID995428966
 70
     0
  0
APPID
  2
GENIUS_GENBHRL_14
 70
     0
  0
APPID
  2
GEVID995428967
 70
     0
  0
APPID
  2
GEVID995428968
 70
     0
  0
APPID
  2
GENIUS_GENOBJ-F-SHCV_13
 70
     0
  0
APPID
  2
ACATTRIBSERVICES
 70
     0
  0
APPID
  2
GENIUS_GENTRA_14
 70
     0
  0
APPID
  2
DESIGNERASSEMBLIES
 70
     0
  0
APPID
  2
ACAD_NAV_VCDISPLAY
 70
     0
  0
APPID
  2
ACAD_DSTYLE_DIMJAG
 70
     0
  0
APPID
  2
ACAD_DSTYLE_DIMBREAK
 70
     0
  0
APPID
  2
ACAD_DSTYLE_DIMINSPECT
 70
     0
  0
APPID
  2
GENIUS_GENCEN_19
 70
     0
  0
APPID
  2
ACAD_EXEMPT_FROM_CAD_STANDARDS
 70
     0
  0
APPID
  2
GRADIENTCOLOR1ACI
 70
     0
  0
APPID
  2
GRADIENTCOLOR2ACI
 70
     0
  0
APPID
  2
ACAECLAYERSTANDARD
 70
     0
  0
APPID
  2
ACAD_MLEADERVER
 70
     0
  0
APPID
  2
ACAD_DSTYLE_DIMARC_LENGTH_
 70
     0
  0
APPID
  2
ACAD_DSTYLE_DIM_LINETYPE
 70
     0
  0
APPID
  2
ACAD_DSTYLE_DIM_EXT1_LINETYPE
 70
     0
  0
APPID
  2
ACAD_DSTYLE_DIM_EXT2_LINETYPE
 70
     0
  0
APPID
  2
ACAD_PSEXT
 70
     0
  0
APPID
  2
GENIUS_AMGTXT_16
 70
     0
  0
APPID
  2
ACADANNOMONITORALERTICONDI
 70
     0
  0
ENDTAB
  0
TABLE
  2
DIMSTYLE
 70
    26
  0
DIMSTYLE
  2
AM_JIS
 70
     0
  3

  4
"
  5
OPEN30
  6

  7

 40
1.0
 41
2.5
 42
1.0
 43
10.0
 44
1.0
 45
0.0
 46
0.0
 47
0.1
 48
0.1
140
3.5
141
0.0
142
0.0
143
0.0393701
144
1.0
145
0.0
146
0.71
147
1.5
 71
     1
 72
     0
 73
     0
 74
     0
 75
     0
 76
     0
 77
     3
 78
     8
170
     0
171
     2
172
     1
173
     0
174
     0
175
     0
176
   256
177
   256
178
     2
  0
DIMSTYLE
  2
AM_JIS$3
 70
     0
  3

  4
"
  5
OPEN30
  6

  7

 40
1.0
 41
2.5
 42
1.0
 43
10.0
 44
1.0
 45
0.0
 46
0.0
 47
0.1
 48
0.1
140
3.5
141
0.0
142
0.0
143
0.0393701
144
1.0
145
0.0
146
0.71
147
1.5
 71
     1
 72
     0
 73
     0
 74
     1
 75
     0
 76
     0
 77
     3
 78
     8
170
     0
171
     2
172
     0
173
     0
174
     0
175
     0
176
   256
177
   256
178
     2
  0
DIMSTYLE
  2
AM_JIS$4
 70
     0
  3

  4
"
  5
OPEN30
  6

  7

 40
1.0
 41
2.5
 42
1.0
 43
10.0
 44
1.0
 45
0.0
 46
0.0
 47
0.1
 48
0.1
140
3.5
141
0.0
142
0.0
143
0.0393701
144
1.0
145
0.0
146
0.71
147
1.5
 71
     1
 72
     0
 73
     0
 74
     1
 75
     0
 76
     0
 77
     3
 78
     8
170
     0
171
     2
172
     0
173
     0
174
     0
175
     0
176
   256
177
   256
178
     2
  0
DIMSTYLE
  2
AM_JIS$6
 70
     0
  3

  4
"
  5
OPEN30
  6

  7

 40
1.0
 41
2.5
 42
1.0
 43
10.0
 44
1.0
 45
0.0
 46
0.0
 47
0.1
 48
0.1
140
3.5
141
0.0
142
0.0
143
0.0393701
144
1.0
145
0.0
146
0.71
147
1.5
 71
     1
 72
     0
 73
     0
 74
     0
 75
     0
 76
     0
 77
     0
 78
     8
170
     0
171
     2
172
     1
173
     0
174
     0
175
     0
176
   256
177
   256
178
     2
  0
DIMSTYLE
  2
AM_JIS$7
 70
     0
  3

  4
"
  5
OPEN30
  6

  7

 40
1.0
 41
2.5
 42
1.0
 43
10.0
 44
1.0
 45
0.0
 46
0.0
 47
0.1
 48
0.1
140
5.0
141
0.0
142
0.0
143
0.0393701
144
1.0
145
0.0
146
0.71
147
1.5
 71
     1
 72
     0
 73
     0
 74
     0
 75
     0
 76
     0
 77
     3
 78
     8
170
     0
171
     2
172
     1
173
     0
174
     0
175
     0
176
   256
177
   256
178
     2
  0
DIMSTYLE
  2
AM_JIS$SF
 70
     0
  3

  4
"
  5
OPEN30
  6
OPEN30
  7
OPEN30
 40
1.0
 41
2.5
 42
1.0
 43
10.0
 44
1.0
 45
0.0
 46
0.0
 47
0.1
 48
0.1
140
3.5
141
0.0
142
0.0
143
0.0393701
144
1.0
145
0.0
146
0.71
147
1.5
 71
     0
 72
     0
 73
     0
 74
     0
 75
     1
 76
     1
 77
     3
 78
     8
170
     0
171
     2
172
     1
173
     0
174
     0
175
     0
176
   256
177
   256
178
     2
  0
DIMSTYLE
  2
AM_JIS$SH
 70
     0
  3

  4
"
  5
OPEN30
  6
GENAXEH
  7
OPEN30
 40
1.0
 41
2.5
 42
1.0
 43
10.0
 44
1.0
 45
0.0
 46
0.0
 47
0.1
 48
0.1
140
3.5
141
0.0
142
0.0
143
0.0393701
144
2.0
145
0.0
146
0.71
147
1.5
 71
     0
 72
     0
 73
     0
 74
     0
 75
     1
 76
     1
 77
     3
 78
     8
170
     0
171
     2
172
     1
173
     1
174
     0
175
     0
176
   256
177
   256
178
     2
  0
DIMSTYLE
  2
STANDARD
 70
     0
  3

  4

  5

  6

  7

 40
1.0
 41
0.18
 42
0.0625
 43
0.38
 44
0.18
 45
0.0
 46
0.0
 47
0.0
 48
0.0
140
0.18
141
0.09
142
0.0
143
25.399999999999999
144
1.0
145
0.0
146
1.0
147
0.09
 71
     0
 72
     0
 73
     1
 74
     1
 75
     0
 76
     0
 77
     0
 78
     0
170
     0
171
     2
172
     0
173
     0
174
     0
175
     0
176
     0
177
     0
178
     0
  0
DIMSTYLE
  2
AM_ISO
 70
     0
  3

  4
"
  5

  6

  7

 40
1.0
 41
3.5
 42
1.0
 43
10.0
 44
1.0
 45
0.0
 46
0.0
 47
0.1
 48
0.1
140
3.5
141
0.0
142
0.0
143
0.0393701
144
1.0
145
0.0
146
0.71
147
1.5
 71
     0
 72
     0
 73
     0
 74
     0
 75
     0
 76
     0
 77
     1
 78
     8
170
     0
171
     2
172
     1
173
     0
174
     0
175
     0
176
   256
177
   256
178
     2
  0
DIMSTYLE
  2
AM_ISO$3
 70
     0
  3

  4
"
  5

  6

  7

 40
1.0
 41
3.5
 42
1.0
 43
10.0
 44
1.0
 45
0.0
 46
0.0
 47
0.1
 48
0.1
140
3.5
141
0.0
142
0.0
143
0.0393701
144
1.0
145
0.0
146
0.71
147
1.5
 71
     0
 72
     0
 73
     0
 74
     1
 75
     0
 76
     0
 77
     1
 78
     8
170
     0
171
     2
172
     0
173
     0
174
     0
175
     0
176
   256
177
   256
178
     2
  0
DIMSTYLE
  2
AM_ISO$4
 70
     0
  3

  4
"
  5

  6

  7

 40
1.0
 41
3.5
 42
1.0
 43
10.0
 44
1.0
 45
0.0
 46
0.0
 47
0.1
 48
0.1
140
3.5
141
0.0
142
0.0
143
0.0393701
144
1.0
145
0.0
146
0.71
147
1.5
 71
     0
 72
     0
 73
     0
 74
     1
 75
     0
 76
     0
 77
     1
 78
     8
170
     0
171
     2
172
     0
173
     0
174
     0
175
     0
176
   256
177
   256
178
     2
  0
DIMSTYLE
  2
AM_ISO$6
 70
     0
  3

  4
"
  5

  6

  7

 40
1.0
 41
3.5
 42
1.0
 43
10.0
 44
1.0
 45
0.0
 46
0.0
 47
0.1
 48
0.1
140
3.5
141
0.0
142
0.0
143
0.0393701
144
1.0
145
0.0
146
0.71
147
1.5
 71
     0
 72
     0
 73
     0
 74
     0
 75
     0
 76
     0
 77
     0
 78
     8
170
     0
171
     2
172
     1
173
     0
174
     0
175
     0
176
   256
177
   256
178
     2
  0
DIMSTYLE
  2
AM_ISO$7
 70
     0
  3

  4
"
  5

  6

  7

 40
1.0
 41
3.5
 42
1.0
 43
10.0
 44
1.0
 45
0.0
 46
0.0
 47
0.1
 48
0.1
140
3.5
141
0.0
142
0.0
143
0.0393701
144
1.0
145
0.0
146
0.71
147
1.5
 71
     0
 72
     0
 73
     0
 74
     0
 75
     0
 76
     0
 77
     1
 78
     8
170
     0
171
     2
172
     1
173
     0
174
     0
175
     0
176
   256
177
   256
178
     2
  0
DIMSTYLE
  2
AM_ISO$SF
 70
     0
  3

  4
"
  5

  6

  7

 40
1.0
 41
3.5
 42
1.0
 43
10.0
 44
1.0
 45
0.0
 46
0.0
 47
0.1
 48
0.1
140
3.5
141
0.0
142
0.0
143
0.0393701
144
1.0
145
0.0
146
0.71
147
1.5
 71
     0
 72
     0
 73
     0
 74
     0
 75
     1
 76
     1
 77
     1
 78
     8
170
     0
171
     2
172
     1
173
     0
174
     0
175
     0
176
   256
177
   256
178
     2
  0
DIMSTYLE
  2
AM_ISO$SH
 70
     0
  3

  4
"
  5

  6
GENAXEH
  7

 40
1.0
 41
3.5
 42
1.0
 43
10.0
 44
1.0
 45
0.0
 46
0.0
 47
0.1
 48
0.1
140
3.5
141
0.0
142
0.0
143
0.0393701
144
2.0
145
0.0
146
0.71
147
1.5
 71
     0
 72
     0
 73
     0
 74
     0
 75
     1
 76
     1
 77
     1
 78
     8
170
     0
171
     2
172
     1
173
     1
174
     0
175
     0
176
   256
177
   256
178
     2
  0
ENDTAB
  0
ENDSEC
  0
SECTION
  2
BLOCKS
  0
BLOCK
  8
0
  2
$MODEL_SPACE
 70
     2
 10
0.0
 20
0.0
 30
0.0
  3
$MODEL_SPACE
  1

  0
ENDBLK
  5
A
  8
0
  0
BLOCK
 67
     1
  8
0
  2
$PAPER_SPACE
 70
     0
 10
0.0
 20
0.0
 30
0.0
  3
$PAPER_SPACE
  1

  0
ENDBLK
  5
5A68
 67
     1
  8
0
  0
BLOCK
  8
0
  2
GENAXEH
 70
     0
 10
0.0
 20
0.0
 30
0.0
  3
GENAXEH
  1

  0
LINE
  5
98
  8
0
 10
-1.0
 20
0.0
 30
0.0
 11
1.0
 21
0.0
 31
0.0
  0
ENDBLK
  5
9A
  8
0
  0
BLOCK
  8
0
 62
     0
  2
_OPEN30
 70
     0
 10
0.0
 20
0.0
 30
0.0
  3
_OPEN30
  1

  0
LINE
  5
21
  8
0
 62
     0
 10
-1.0
 20
0.26794919
 30
0.0
 11
0.0
 21
0.0
 31
0.0
  0
LINE
  5
22
  8
0
 62
     0
 10
0.0
 20
0.0
 30
0.0
 11
-1.0
 21
-0.26794919
 31
0.0
  0
LINE
  5
23
  8
0
 62
     0
 10
0.0
 20
0.0
 30
0.0
 11
-1.0
 21
0.0
 31
0.0
  0
ENDBLK
  5
25
  8
0
 62
     0
  0
BLOCK
  8
0
  2
*U88
 70
     1
 10
0.0
 20
0.0
 30
0.0
  3
*U88
  1

  0
TEXT
  5
5B7C
  8
0
 62
     2
 10
62.141920709359972
 20
102.31110715981789
 30
0.0
 40
3.5
  1
íç)Å@àÛéöÉYÉåÇÕ0.2mmà»ì‡Ç∆Ç∑ÇÈÅB
  0
ENDBLK
  5
5B7E
  8
0
  0
BLOCK
  8
0
  2
*U89
 70
     1
 10
0.0
 20
0.0
 30
0.0
  3
*U89
  1

  0
TEXT
  5
5B80
  8
0
 62
     2
 10
118.59859081069381
 20
167.59670959152061
 30
0.0
 40
1.75
  1
0.42
 50
90.0
  0
ENDBLK
  5
5B82
  8
0
  0
BLOCK
  8
0
  2
*U90
 70
     1
 10
0.0
 20
0.0
 30
0.0
  3
*U90
  1

  0
TEXT
  5
5B84
  8
0
 62
     2
 10
118.1205289071825
 20
155.39022843014371
 30
0.0
 40
1.75
  1
0.42
 50
90.0
  0
ENDBLK
  5
5B86
  8
0
  0
BLOCK
  8
0
  2
*U91
 70
     1
 10
0.0
 20
0.0
 30
0.0
  3
*U91
  1

  0
TEXT
  5
5B88
  8
0
 62
     2
 10
117.4790457141719
 20
170.14670964255711
 30
0.0
 40
1.75
  1
0.2
 50
90.0
  0
ENDBLK
  5
5B8A
  8
0
  0
BLOCK
  8
0
  2
*U92
 70
     1
 10
0.0
 20
0.0
 30
0.0
  3
*U92
  1

  0
TEXT
  5
5B8C
  8
0
 62
     2
 10
119.0541390477799
 20
158.1728444292622
 30
0.0
 40
1.75
  1
0.45
 50
90.0
  0
ENDBLK
  5
5B8E
  8
0
  0
BLOCK
  8
0
  2
*U93
 70
     1
 10
0.0
 20
0.0
 30
0.0
  3
*U93
  1

  0
TEXT
  5
5B98
  8
0
 62
     2
 10
157.82709066364049
 20
139.00990021616551
 30
0.0
 40
3.5
  1
PM-U25
  0
ENDBLK
  5
5B9A
  8
0
  0
ENDSEC
  0
SECTION
  2
ENTITIES
  0
LINE
  5
4D7B
  8
0
  6
CONTINUOUS
 62
     7
 10
110.83397638322189
 20
162.85783177660039
 30
0.0
 11
110.83397638322189
 21
151.8578316126877
 31
0.0
  0
LINE
  5
4D7C
  8
0
  6
CONTINUOUS
 62
     7
 10
113.3339763273426
 20
151.8578316126877
 30
0.0
 11
113.3339763273426
 21
162.85783177660039
 31
0.0
  0
LINE
  5
4D87
  8
0
  6
CONTINUOUS
 62
     7
 10
118.78397614964619
 20
177.85783190698561
 30
0.0
 11
118.78397614964619
 21
161.85783161268759
 31
0.0
  0
CIRCLE
  5
4D8C
  8
0
  6
CONTINUOUS
 62
     7
 10
116.0839763552823
 20
164.35783173487721
 30
0.0
 40
1.6000000000000001
  0
CIRCLE
  5
4D8D
  8
0
  6
CONTINUOUS
 62
     7
 10
108.0839763552823
 20
164.35783173487721
 30
0.0
 40
1.6000000000000001
  0
LINE
  5
4D98
  8
0
  6
CONTINUOUS
 62
     7
 10
105.3839765609183
 20
161.85783161268759
 30
0.0
 11
105.3839765609183
 21
177.85783190698561
 31
0.0
  0
LINE
  5
4D9B
  8
0
  6
CONTINUOUS
 62
     7
 10
114.08397645027721
 20
162.85783177660039
 30
0.0
 11
110.0839762602874
 21
162.85783177660039
 31
0.0
  0
LINE
  5
4D9F
  8
0
  6
CONTINUOUS
 62
     7
 10
118.78397614964619
 20
161.85783161268759
 30
0.0
 11
114.08397645027721
 21
161.85783161268759
 31
0.0
  0
LINE
  5
4DA2
  8
0
  6
CONTINUOUS
 62
     7
 10
110.0839762602874
 20
161.85783161268759
 30
0.0
 11
105.3839765609183
 21
161.85783161268759
 31
0.0
  0
LINE
  5
4DA3
  8
0
  6
CONTINUOUS
 62
     7
 10
109.0839763292052
 20
171.3578317146675
 30
0.0
 11
115.08397638135931
 21
171.3578317146675
 31
0.0
  0
LINE
  5
4DBA
  8
0
  6
CONTINUOUS
 62
     7
 10
105.3839765609183
 20
177.85783190698561
 30
0.0
 11
109.0839763292052
 21
177.85783190698561
 31
0.0
  0
LINE
  5
4DBC
  8
0
  6
CONTINUOUS
 62
     7
 10
115.08397638135931
 20
172.05783582245189
 30
0.0
 11
109.0839763292052
 21
172.05783582245189
 31
0.0
  0
LINE
  5
4DBD
  8
0
  6
CONTINUOUS
 62
     7
 10
115.08397638135931
 20
172.35783170395729
 30
0.0
 11
109.0839763292052
 21
172.35783170395729
 31
0.0
  0
LINE
  5
4DD6
  8
0
  6
CONTINUOUS
 62
     7
 10
110.83397638322189
 20
151.8578316126877
 30
0.0
 11
113.3339763273426
 21
151.8578316126877
 31
0.0
  0
LINE
  5
4DE8
  8
0
  6
CONTINUOUS
 62
     7
 10
115.08397638135931
 20
171.3578317146675
 30
0.0
 11
115.08397638135931
 21
177.85783190698561
 31
0.0
  0
LINE
  5
4DE9
  8
0
  6
CONTINUOUS
 62
     7
 10
109.0839763292052
 20
177.85783190698561
 30
0.0
 11
109.0839763292052
 21
171.3578317146675
 31
0.0
  0
LINE
  5
4DF7
  8
0
  6
CONTINUOUS
 62
     7
 10
118.78397614964619
 20
177.85783190698561
 30
0.0
 11
115.08397638135931
 21
177.85783190698561
 31
0.0
  0
LINE
  5
54CF
  8
0
  6
CONTINUOUS
 62
     7
 10
139.5180313771553
 20
161.85783161268759
 30
0.0
 11
139.5180313771553
 21
151.8578316126877
 31
0.0
  0
LINE
  5
54D0
  8
0
  6
CONTINUOUS
 62
     7
 10
142.018031321276
 20
151.8578316126877
 30
0.0
 11
142.018031321276
 21
161.85783161268759
 31
0.0
  0
LINE
  5
54D1
  8
0
  6
CONTINUOUS
 62
     7
 10
139.5180313771553
 20
151.8578316126877
 30
0.0
 11
142.018031321276
 21
151.8578316126877
 31
0.0
  0
LINE
  5
54ED
  8
0
  6
CONTINUOUS
 62
     7
 10
143.76803137529271
 20
177.85783190698561
 30
0.0
 11
143.76803137529271
 21
161.85783161268759
 31
0.0
  0
LINE
  5
54F0
  8
0
  6
CONTINUOUS
 62
     7
 10
137.76803132313859
 20
161.85783161268759
 30
0.0
 11
137.76803132313859
 21
177.85783190698561
 31
0.0
  0
LINE
  5
54F8
  8
0
  6
CONTINUOUS
 62
     7
 10
143.76803137529271
 20
161.85783161268759
 30
0.0
 11
137.76803132313859
 21
161.85783161268759
 31
0.0
  0
LINE
  5
54F9
  8
0
  6
CONTINUOUS
 62
     7
 10
137.76803132313859
 20
177.85783190698561
 30
0.0
 11
143.76803137529271
 21
177.85783190698561
 31
0.0
  0
LINE
  5
5507
  8
0
  6
CENTER
 62
     4
 10
140.76803134921559
 20
178.3433644147282
 30
0.0
 11
140.76803134921559
 21
150.70682992476881
 31
0.0
  0
LINE
  5
5594
  8
0
  6
CONTINUOUS
 62
     7
 10
115.0944481723883
 20
201.7897284824854
 30
0.0
 11
109.0944481202342
 21
201.7897284824854
 31
0.0
  0
LINE
  5
5595
  8
0
  6
CONTINUOUS
 62
     7
 10
109.0944481202342
 20
197.40543665853201
 30
0.0
 11
115.0944481723883
 21
197.40543665853201
 31
0.0
  0
LINE
  5
55AA
  8
0
  6
CONTINUOUS
 62
     7
 10
118.7944479406752
 20
202.59758259658571
 30
0.0
 11
118.7944479406752
 21
196.59758254443159
 31
0.0
  0
LINE
  5
55B9
  8
0
  6
CONTINUOUS
 62
     7
 10
105.3944483519473
 20
196.59758254443159
 30
0.0
 11
105.3944483519473
 21
202.59758259658571
 31
0.0
  0
LINE
  5
55FE
  8
0
  6
CONTINUOUS
 62
     7
 10
118.7944479406752
 20
196.59758254443159
 30
0.0
 11
105.3944483519473
 21
196.59758254443159
 31
0.0
  0
LINE
  5
5600
  8
0
  6
CONTINUOUS
 62
     7
 10
118.7944479406752
 20
202.59758259658571
 30
0.0
 11
105.3944483519473
 21
202.59758259658571
 31
0.0
  0
LINE
  5
5602
  8
0
  6
CENTER
 62
     4
 10
119.3485150081348
 20
199.59627356160721
 30
0.0
 11
104.8050136919969
 21
199.59627356160721
 31
0.0
  0
LINE
  5
5603
  8
0
  6
CENTER
 62
     4
 10
112.09444814631119
 20
195.66473166033569
 30
0.0
 11
112.09444814631119
 21
203.7326052857637
 31
0.0
  0
LINE
  5
5A81
  8
0
  6
CONTINUOUS
 62
     7
 10
110.0839762602874
 20
162.85783177660039
 30
0.0
 11
110.0839762602874
 21
161.85783161268759
 31
0.0
  0
LINE
  5
5A82
  8
0
  6
CONTINUOUS
 62
     7
 10
114.08397645027721
 20
162.85783177660039
 30
0.0
 11
114.08397645027721
 21
161.85783161268759
 31
0.0
  0
LINE
  5
5A87
  8
0
  6
CONTINUOUS
 62
     7
 10
109.0839763292052
 20
202.59758259658571
 30
0.0
 11
109.0839763292052
 21
196.59758254443159
 31
0.0
  0
LINE
  5
5A88
  8
0
  6
CONTINUOUS
 62
     7
 10
115.08397638135931
 20
202.59758259658571
 30
0.0
 11
115.08397638135931
 21
196.59758254443159
 31
0.0
  0
LINE
  5
5A8B
  8
0
  6
CONTINUOUS
 62
     7
 10
109.0839763292052
 20
202.09627356160721
 30
0.0
 11
115.08397638135931
 21
202.09627356160721
 31
0.0
  0
LINE
  5
5A8D
  8
0
  6
CONTINUOUS
 62
     7
 10
115.08397638135931
 20
197.09627356160721
 30
0.0
 11
109.0839763292052
 21
197.09627356160721
 31
0.0
  0
LINE
  5
5A92
  8
0
  6
CONTINUOUS
 62
     2
 10
109.49109675676441
 20
199.59627356160721
 30
0.0
 11
110.5768769808604
 21
199.8872074958114
 31
0.0
  0
LINE
  5
5A94
  8
0
  6
CONTINUOUS
 62
     2
 10
110.5768769808604
 20
199.30533962740299
 30
0.0
 11
109.49109675676441
 21
199.59627356160721
 31
0.0
  0
LINE
  5
5A97
  8
0
  6
CONTINUOUS
 62
     2
 10
109.49109675676441
 20
199.59627356160721
 30
0.0
 11
114.6977995358581
 21
199.59627356160721
 31
0.0
  0
LINE
  5
5A9C
  8
0
  6
CONTINUOUS
 62
     2
 10
109.49109675676441
 20
175.85783190698561
 30
0.0
 11
110.5768769808604
 21
176.1487658411898
 31
0.0
  0
LINE
  5
5A9D
  8
0
  6
CONTINUOUS
 62
     2
 10
110.5768769808604
 20
175.56689797278139
 30
0.0
 11
109.49109675676441
 21
175.85783190698561
 31
0.0
  0
LINE
  5
5A9E
  8
0
  6
CONTINUOUS
 62
     2
 10
109.49109675676441
 20
175.85783190698561
 30
0.0
 11
114.6977995358581
 21
175.85783190698561
 31
0.0
  0
LINE
  5
5AB0
  8
0
  6
CENTER
 62
     4
 10
105.03541427462029
 20
164.35783173487721
 30
0.0
 11
111.1325384359442
 21
164.35783173487721
 31
0.0
  0
LINE
  5
5AB1
  8
0
  6
CENTER
 62
     4
 10
108.0839763552823
 20
167.4063938155391
 30
0.0
 11
108.0839763552823
 21
161.3092696542152
 31
0.0
  0
LINE
  5
5AB2
  8
0
  6
CENTER
 62
     4
 10
113.03541427462019
 20
164.35783173487721
 30
0.0
 11
119.1325384359441
 21
164.35783173487721
 31
0.0
  0
LINE
  5
5AB3
  8
0
  6
CENTER
 62
     4
 10
116.0839763552823
 20
167.4063938155391
 30
0.0
 11
116.0839763552823
 21
161.3092696542152
 31
0.0
  0
INSERT
  5
5AB7
  8
0
  2
*U93
 10
0.0
 20
0.0
 30
0.0
  0
LINE
  5
5AB8
  8
0
  6
CENTER
 62
     4
 10
112.0839763552823
 20
178.3433644147282
 30
0.0
 11
112.0839763552823
 21
150.70682992476881
 31
0.0
  0
VIEWPORT
  5
5A6C
 67
     1
  8
0
 10
142.61041259765619
 20
99.112914085388184
 30
0.0
 40
362.3189755670457
 41
222.15178063964851
 68
     1
 69
     1
1001
ACAD
1000
MVIEW
1002
{
1070
    16
1010
0.0
1020
0.0
1030
0.0
1010
0.0
1020
0.0
1030
1.0
1040
0.0
1040
222.15178063964851
1040
142.61041259765619
1040
99.112914085388184
1040
50.0
1040
0.0
1040
0.0
1070
     0
1070
   100
1070
     1
1070
     1
1070
     0
1070
     0
1070
     0
1070
     0
1040
0.0
1040
0.0
1040
0.0
1040
10.0
1040
10.0
1040
10.0
1040
10.0
1070
     0
1002
{
1002
}
1002
}
  0
ENDSEC
  0
EOF
