  0
SECTION
  2
HEADER
  9
$ACADVER
  1
AC1009
  9
$INSBASE
 10
177.9999997912175
 20
6.7085914059697132
 30
0.0
  9
$EXTMIN
 10
-36.09191622609741
 20
122.4315067204918
 30
0.0
  9
$EXTMAX
 10
25.60280219999397
 20
176.77272459529081
 30
0.0
  9
$LIMMIN
 10
0.0
 20
0.0
  9
$LIMMAX
 10
190.0
 20
277.0
  9
$ORTHOMODE
 70
     0
  9
$REGENMODE
 70
     1
  9
$FILLMODE
 70
     1
  9
$QTEXTMODE
 70
     0
  9
$MIRRTEXT
 70
     1
  9
$DRAGMODE
 70
     2
  9
$LTSCALE
 40
1.0
  9
$OSMODE
 70
   549
  9
$ATTMODE
 70
     1
  9
$TEXTSIZE
 40
5.0
  9
$TRACEWID
 40
1.0
  9
$TEXTSTYLE
  7
STANDARD
  9
$CLAYER
  8
0
  9
$CELTYPE
  6
BYLAYER
  9
$CECOLOR
 62
   256
  9
$DIMSCALE
 40
1.0
  9
$DIMASZ
 40
2.5
  9
$DIMEXO
 40
1.0
  9
$DIMDLI
 40
10.0
  9
$DIMRND
 40
0.0
  9
$DIMDLE
 40
0.0
  9
$DIMEXE
 40
1.0
  9
$DIMTP
 40
0.1
  9
$DIMTM
 40
0.1
  9
$DIMTXT
 40
3.5
  9
$DIMCEN
 40
0.0
  9
$DIMTSZ
 40
0.0
  9
$DIMTOL
 70
     1
  9
$DIMLIM
 70
     0
  9
$DIMTIH
 70
     0
  9
$DIMTOH
 70
     0
  9
$DIMSE1
 70
     0
  9
$DIMSE2
 70
     0
  9
$DIMTAD
 70
     3
  9
$DIMZIN
 70
     8
  9
$DIMBLK
  1
OPEN30
  9
$DIMASO
 70
     1
  9
$DIMSHO
 70
     1
  9
$DIMPOST
  1

  9
$DIMAPOST
  1
"
  9
$DIMALT
 70
     0
  9
$DIMALTD
 70
     2
  9
$DIMALTF
 40
0.0393701
  9
$DIMLFAC
 40
1.0
  9
$DIMTOFL
 70
     1
  9
$DIMTVP
 40
0.0
  9
$DIMTIX
 70
     0
  9
$DIMSOXD
 70
     0
  9
$DIMSAH
 70
     0
  9
$DIMBLK1
  1

  9
$DIMBLK2
  1

  9
$DIMSTYLE
  2
AM_JIS
  9
$DIMCLRD
 70
   256
  9
$DIMCLRE
 70
   256
  9
$DIMCLRT
 70
     2
  9
$DIMTFAC
 40
0.71
  9
$DIMGAP
 40
1.5
  9
$LUNITS
 70
     2
  9
$LUPREC
 70
     2
  9
$SKETCHINC
 40
1.0
  9
$FILLETRAD
 40
0.0
  9
$AUNITS
 70
     0
  9
$AUPREC
 70
     0
  9
$MENU
  1
.
  9
$ELEVATION
 40
0.0
  9
$PELEVATION
 40
0.0
  9
$THICKNESS
 40
0.0
  9
$LIMCHECK
 70
     0
  9
$BLIPMODE
 70
     0
  9
$CHAMFERA
 40
0.0
  9
$CHAMFERB
 40
0.0
  9
$SKPOLY
 70
     0
  9
$TDCREATE
 40
2457185.68899603
  9
$TDUPDATE
 40
2457235.4694938431
  9
$TDINDWG
 40
0.1345278472
  9
$TDUSRTIMER
 40
0.1345278472
  9
$USRTIMER
 70
     1
  9
$ANGBASE
 50
0.0
  9
$ANGDIR
 70
     0
  9
$PDMODE
 70
     0
  9
$PDSIZE
 40
0.0
  9
$PLINEWID
 40
0.0
  9
$COORDS
 70
     2
  9
$SPLFRAME
 70
     0
  9
$SPLINETYPE
 70
     6
  9
$SPLINESEGS
 70
     8
  9
$ATTDIA
 70
     1
  9
$ATTREQ
 70
     1
  9
$HANDLING
 70
     1
  9
$HANDSEED
  5
6E70
  9
$SURFTAB1
 70
     6
  9
$SURFTAB2
 70
     6
  9
$SURFTYPE
 70
     6
  9
$SURFU
 70
     6
  9
$SURFV
 70
     6
  9
$UCSNAME
  2

  9
$UCSORG
 10
0.0
 20
0.0
 30
0.0
  9
$UCSXDIR
 10
1.0
 20
0.0
 30
0.0
  9
$UCSYDIR
 10
0.0
 20
1.0
 30
0.0
  9
$PUCSNAME
  2

  9
$PUCSORG
 10
0.0
 20
0.0
 30
0.0
  9
$PUCSXDIR
 10
1.0
 20
0.0
 30
0.0
  9
$PUCSYDIR
 10
0.0
 20
1.0
 30
0.0
  9
$USERI1
 70
     0
  9
$USERI2
 70
     0
  9
$USERI3
 70
     0
  9
$USERI4
 70
     0
  9
$USERI5
 70
     0
  9
$USERR1
 40
0.0
  9
$USERR2
 40
0.0
  9
$USERR3
 40
0.0
  9
$USERR4
 40
0.0
  9
$USERR5
 40
0.0
  9
$WORLDVIEW
 70
     1
  9
$SHADEDGE
 70
     3
  9
$SHADEDIF
 70
    70
  9
$TILEMODE
 70
     1
  9
$MAXACTVP
 70
    64
  9
$PLIMCHECK
 70
     0
  9
$PEXTMIN
 10
1.0000000000000000E+020
 20
1.0000000000000000E+020
 30
1.0000000000000000E+020
  9
$PEXTMAX
 10
-1.0000000000000000E+020
 20
-1.0000000000000000E+020
 30
-1.0000000000000000E+020
  9
$PLIMMIN
 10
-5.873748779296875
 20
-5.8737497329711914
  9
$PLIMMAX
 10
291.09457397460932
 20
204.0995779037475
  9
$UNITMODE
 70
     0
  9
$VISRETAIN
 70
     1
  9
$PLINEGEN
 70
     0
  9
$PSLTSCALE
 70
     1
  0
ENDSEC
  0
SECTION
  2
TABLES
  0
TABLE
  2
VPORT
 70
     1
  0
VPORT
  2
*ACTIVE
 70
     0
 10
0.0
 20
0.0
 11
1.0
 21
1.0
 12
-2.7134283228643592
 22
148.8375147957056
 13
0.0
 23
0.0
 14
2.5
 24
2.5
 15
10.0
 25
10.0
 16
0.0
 26
0.0
 36
1.0
 17
0.0
 27
0.0
 37
0.0
 40
88.443585202577054
 41
1.63095238095238
 42
50.0
 43
0.0
 44
0.0
 50
0.0
 51
0.0
 71
     0
 72
   100
 73
     1
 74
     1
 75
     0
 76
     0
 77
     0
 78
     0
  0
ENDTAB
  0
TABLE
  2
LTYPE
 70
    18
  0
LTYPE
  2
CONTINUOUS
 70
     0
  3
Solid line
 72
    65
 73
     0
 40
0.0
  0
LTYPE
  2
AM_ISO02W050
 70
     0
  3
__ __ __ __ __ __ __ __ __ __ __ __ __ __ __
 72
    65
 73
     2
 40
7.5
 49
6.0
 49
-1.5
  0
LTYPE
  2
AM_ISO08W050
 70
     0
  3
____ . ____ . ____ . ____ . ____ . ____ . ____
 72
    65
 73
     4
 40
18.0
 49
12.0
 49
-1.5
 49
3.0
 49
-1.5
  0
LTYPE
  2
AM_ISO09W050
 70
     0
  3
_____ . . _____ . . _____ . . ____ .. ____
 72
    65
 73
     6
 40
22.5
 49
12.0
 49
-1.5
 49
3.0
 49
-1.5
 49
3.0
 49
-1.5
  0
LTYPE
  2
AMCONSTR
 70
     0
  3
_______________________
 72
    65
 73
     2
 40
9999.0
 49
9999.0
 49
0.0
  0
LTYPE
  2
AM_ISO02W050X2
 70
     0
  3
 _ _ _ _ _ _ _ _ _ _ _ _
 72
    65
 73
     2
 40
3.75
 49
3.0
 49
-0.75
  0
LTYPE
  2
AM_ISO08W050X2
 70
     0
  3
__ . __ . __ . __ . __ . __
 72
    65
 73
     4
 40
9.0
 49
6.0
 49
-0.75
 49
1.5
 49
-0.75
  0
LTYPE
  2
AMZIGZAG
 70
     0
  3
/\/-/\/-/\/-/\/-/\/-/\/
 72
    65
 73
     2
 40
11.0001
 49
0.0001
 49
-11.0
  0
LTYPE
  2
CENTER
 70
     0
  3
____ _ ____ _
 72
    65
 73
     4
 40
13.42150481887249
 49
8.3884405117953058
 49
-1.67768810235906
 49
1.67768810235906
 49
-1.67768810235906
  0
LTYPE
  2
HIDDEN
 70
     0
  3
_ _ _ _ _ _ _
 72
    65
 73
     2
 40
2.5165321535385901
 49
1.67768810235906
 49
-0.8388440511795305
  0
LTYPE
  2
PHANTOM2
 70
     0
  3
Phantom (.5x) ___ _ _ ___ _ _ ___ _ _ ___ _ _
 72
    65
 73
     6
 40
1.25
 49
0.625
 49
-0.125
 49
0.125
 49
-0.125
 49
0.125
 49
-0.125
  0
LTYPE
  2
ACJISTGB
 70
     0
  3
__ . . __ . .
 72
    65
 73
     6
 40
9.0
 49
4.0
 49
-1.0
 49
1.0
 49
-1.0
 49
1.0
 49
-1.0
  0
LTYPE
  2
ACJISTGL
 70
     0
  3
_ _ _ _ _
 72
    65
 73
     2
 40
3.0
 49
2.0
 49
-1.0
  0
LTYPE
  2
ACANSTGBM
 70
     0
  3
__ . . __ . .
 72
    65
 73
     6
 40
9.0
 49
4.0
 49
-1.0
 49
1.0
 49
-1.0
 49
1.0
 49
-1.0
  0
LTYPE
  2
ACANSTGLM
 70
     0
  3
_ _ _ _ _
 72
    65
 73
     2
 40
3.0
 49
2.0
 49
-1.0
  0
LTYPE
  2
ACISOWELD
 70
     0
  3
_ _ _ _ _
 72
    65
 73
     2
 40
2.0
 49
2.0
 49
-1.0
  0
LTYPE
  2
ACISOTGL
 70
     0
  3
_ _ _ _ _
 72
    65
 73
     2
 40
3.0
 49
2.0
 49
-1.0
  0
LTYPE
  2
ACISOTGB
 70
     0
  3
__ . . __ . .
 72
    65
 73
     6
 40
9.0
 49
4.0
 49
-1.0
 49
1.0
 49
-1.0
 49
1.0
 49
-1.0
  0
ENDTAB
  0
TABLE
  2
LAYER
 70
     2
  0
LAYER
  2
0
 70
     0
 62
     7
  6
CONTINUOUS
  0
LAYER
  2
DEFPOINTS
 70
     0
 62
     7
  6
CONTINUOUS
  0
ENDTAB
  0
TABLE
  2
STYLE
 70
     7
  0
STYLE
  2
STANDARD
 70
     0
 40
0.0
 41
1.0
 50
0.0
 71
     0
 42
5.0
  3
isocp.shx
  4
extfont.shx
  0
STYLE
  2

 70
     1
 40
0.0
 41
1.0
 50
0.0
 71
     0
 42
2.5
  3
ltypeshp.shx
  4

  0
STYLE
  2
ACJISTS
 70
     0
 40
1.0
 41
1.0
 50
0.0
 71
     0
 42
3.5
  3
isocp.shx
  4
bigfont.shx
  0
STYLE
  2
ACJISGDT
 70
     0
 40
0.0
 41
1.0
 50
0.0
 71
     0
 42
3.5
  3
amgdt.shx
  4

  0
STYLE
  2
ACANSTS
 70
     0
 40
1.0
 41
1.0
 50
0.0
 71
     0
 42
5.0
  3
romans.shx
  4
extfont.shx
  0
STYLE
  2
ACANSGDT
 70
     0
 40
0.0
 41
1.0
 50
0.0
 71
     0
 42
5.0
  3
amgdtans.shx
  4

  0
STYLE
  2
ACISOGDT
 70
     0
 40
0.0
 41
1.0
 50
0.0
 71
     0
 42
2.5
  3
amgdt.shx
  4

  0
ENDTAB
  0
TABLE
  2
VIEW
 70
     6
  0
VIEW
  2
AM_VIEW1
 70
     1
 40
210.0
 10
215.76588321825781
 20
297.20624923706049
 41
443.11926605504578
 11
0.0
 21
0.0
 31
1.0
 12
0.0
 22
0.0
 32
0.0
 42
50.0
 43
0.0
 44
0.0
 50
0.0
 71
     0
  0
VIEW
  2
AM_VIEW2
 70
     1
 40
210.0
 10
366.64661716321189
 20
297.20624923706049
 41
443.11926605504578
 11
0.0
 21
0.0
 31
1.0
 12
0.0
 22
0.0
 32
0.0
 42
50.0
 43
0.0
 44
0.0
 50
0.0
 71
     0
  0
VIEW
  2
AM_VIEW3
 70
     1
 40
210.0
 10
215.76588321825781
 20
87.206249237060547
 41
443.11926605504578
 11
0.0
 21
0.0
 31
1.0
 12
0.0
 22
0.0
 32
0.0
 42
50.0
 43
0.0
 44
0.0
 50
0.0
 71
     0
  0
VIEW
  2
AM_VIEW4
 70
     1
 40
210.0
 10
366.64661716321189
 20
87.206249237060547
 41
443.11926605504578
 11
0.0
 21
0.0
 31
1.0
 12
0.0
 22
0.0
 32
0.0
 42
50.0
 43
0.0
 44
0.0
 50
0.0
 71
     0
  0
VIEW
  2
AM_VIEW5
 70
     1
 40
210.0
 10
291.20625019073492
 20
192.20624923706049
 41
443.1192660550459
 11
0.0
 21
0.0
 31
1.0
 12
0.0
 22
0.0
 32
0.0
 42
50.0
 43
0.0
 44
0.0
 50
0.0
 71
     0
  0
VIEW
  2
AM_VIEW6
 70
     1
 40
419.99579999999997
 10
291.20625019073492
 20
192.20624923706049
 41
886.2296697247707
 11
0.0
 21
0.0
 31
1.0
 12
0.0
 22
0.0
 32
0.0
 42
50.0
 43
0.0
 44
0.0
 50
0.0
 71
     0
  0
ENDTAB
  0
TABLE
  2
UCS
 70
     0
  0
ENDTAB
  0
TABLE
  2
APPID
 70
    63
  0
APPID
  2
ACAD
 70
     0
  0
APPID
  2
MCAD_NO_VIS
 70
     0
  0
APPID
  2
ACAD_TEMP_GRAPHIC
 70
     0
  0
APPID
  2
GENIUS_GENODEF_13
 70
     0
  0
APPID
  2
GENIUS_GENOBJ-N-TIT_13
 70
     0
  0
APPID
  2
GENIUS_GENTITLE_13
 70
     0
  0
APPID
  2
GENIUS_GENOENT_13
 70
     0
  0
APPID
  2
GENIUS_GENOREF_13
 70
     0
  0
APPID
  2
GENIUS_GENOLIS_13
 70
     0
  0
APPID
  2
GENIUS_GENZVEED_13
 70
     0
  0
APPID
  2
GENIUS_GENSCREG_15
 70
     0
  0
APPID
  2
GENIUS_GENOBJ-N-SDF_13
 70
     0
  0
APPID
  2
GENIUS_GENOBJ-N-CEN_13
 70
     0
  0
APPID
  2
GENIUS_GENOBJ-N-SEC_13
 70
     0
  0
APPID
  2
GENIUS_GENREC_14
 70
     0
  0
APPID
  2
GENIUS_GENOBJ-N-REC_13
 70
     0
  0
APPID
  2
GENIUS_GENBH_13
 70
     0
  0
APPID
  2
GENIUS_GENOBJ-NBEHI-BHF_13
 70
     0
  0
APPID
  2
GENIUS_GENOBJ-NBEHI-BHB_13
 70
     0
  0
APPID
  2
GENIUS_GENDTOL_13
 70
     0
  0
APPID
  2
GENIUS_GENOBJ-N-HTC_13
 70
     0
  0
APPID
  2
GENIUS_GENHATCH_13
 70
     0
  0
APPID
  2
GENIUS_GENOBJ-N-CRS_13
 70
     0
  0
APPID
  2
GENIUS_GENOBJ-N-CRC_13
 70
     0
  0
APPID
  2
GENIUS_GENCRC_14
 70
     0
  0
APPID
  2
GENIUS_GENOBJ-F-SHCL_13
 70
     0
  0
APPID
  2
GENIUS_GEFMSH_13
 70
     0
  0
APPID
  2
GENIUS_GEFSH_13
 70
     0
  0
APPID
  2
GENIUS_GEFSHP_13
 70
     0
  0
APPID
  2
GENIUS_GENOBJ-F-SHS_13
 70
     0
  0
APPID
  2
GENIUS_GENOBJ-F-SHSS_13
 70
     0
  0
APPID
  2
GENIUS_GEFSHP0_13
 70
     0
  0
APPID
  2
GENIUS_GEFSH0_13
 70
     0
  0
APPID
  2
GEVID995428964
 70
     0
  0
APPID
  2
GEVDC
 70
     0
  0
APPID
  2
GENIUS_GENBH_14
 70
     0
  0
APPID
  2
GEVID995428965
 70
     0
  0
APPID
  2
GEVID995428966
 70
     0
  0
APPID
  2
GENIUS_GENBHRL_14
 70
     0
  0
APPID
  2
GEVID995428967
 70
     0
  0
APPID
  2
GEVID995428968
 70
     0
  0
APPID
  2
GENIUS_GENOBJ-F-SHCV_13
 70
     0
  0
APPID
  2
ACATTRIBSERVICES
 70
     0
  0
APPID
  2
GENIUS_GENTRA_14
 70
     0
  0
APPID
  2
DESIGNERASSEMBLIES
 70
     0
  0
APPID
  2
ACAD_NAV_VCDISPLAY
 70
     0
  0
APPID
  2
ACAD_DSTYLE_DIMJAG
 70
     0
  0
APPID
  2
ACAD_DSTYLE_DIMBREAK
 70
     0
  0
APPID
  2
ACAD_DSTYLE_DIMINSPECT
 70
     0
  0
APPID
  2
GENIUS_GENCEN_19
 70
     0
  0
APPID
  2
GRADIENTCOLOR1ACI
 70
     0
  0
APPID
  2
GRADIENTCOLOR2ACI
 70
     0
  0
APPID
  2
ACAD_MLEADERVER
 70
     0
  0
APPID
  2
ACAD_DSTYLE_DIMARC_LENGTH_
 70
     0
  0
APPID
  2
ACAD_DSTYLE_DIM_LINETYPE
 70
     0
  0
APPID
  2
ACAD_DSTYLE_DIM_EXT1_LINETYPE
 70
     0
  0
APPID
  2
ACAD_DSTYLE_DIM_EXT2_LINETYPE
 70
     0
  0
APPID
  2
ACAD_EXEMPT_FROM_CAD_STANDARDS
 70
     0
  0
APPID
  2
ACAECLAYERSTANDARD
 70
     0
  0
APPID
  2
ACDBDYNAMICBLOCKTRUENAME2
 70
     0
  0
APPID
  2
ACDBDYNAMICBLOCKGUID
 70
     0
  0
APPID
  2
GENIUS_AMGTXT_16
 70
     0
  0
APPID
  2
ACAD_PSEXT
 70
     0
  0
ENDTAB
  0
TABLE
  2
DIMSTYLE
 70
    15
  0
DIMSTYLE
  2
AM_JIS
 70
     0
  3

  4
"
  5
OPEN30
  6

  7

 40
1.0
 41
2.5
 42
1.0
 43
10.0
 44
1.0
 45
0.0
 46
0.0
 47
0.1
 48
0.1
140
3.5
141
0.0
142
0.0
143
0.0393701
144
1.0
145
0.0
146
0.71
147
1.5
 71
     1
 72
     0
 73
     0
 74
     0
 75
     0
 76
     0
 77
     3
 78
     8
170
     0
171
     2
172
     1
173
     0
174
     0
175
     0
176
   256
177
   256
178
     2
  0
DIMSTYLE
  2
AM_JIS$3
 70
     0
  3

  4
"
  5
OPEN30
  6

  7

 40
1.0
 41
2.5
 42
1.0
 43
10.0
 44
1.0
 45
0.0
 46
0.0
 47
0.1
 48
0.1
140
3.5
141
0.0
142
0.0
143
0.0393701
144
1.0
145
0.0
146
0.71
147
1.5
 71
     1
 72
     0
 73
     0
 74
     1
 75
     0
 76
     0
 77
     3
 78
     8
170
     0
171
     2
172
     0
173
     0
174
     0
175
     0
176
   256
177
   256
178
     2
  0
DIMSTYLE
  2
AM_JIS$4
 70
     0
  3

  4
"
  5
OPEN30
  6

  7

 40
1.0
 41
2.5
 42
1.0
 43
10.0
 44
1.0
 45
0.0
 46
0.0
 47
0.1
 48
0.1
140
3.5
141
0.0
142
0.0
143
0.0393701
144
1.0
145
0.0
146
0.71
147
1.5
 71
     1
 72
     0
 73
     0
 74
     1
 75
     0
 76
     0
 77
     3
 78
     8
170
     0
171
     2
172
     0
173
     0
174
     0
175
     0
176
   256
177
   256
178
     2
  0
DIMSTYLE
  2
AM_JIS$6
 70
     0
  3

  4
"
  5
OPEN30
  6

  7

 40
1.0
 41
2.5
 42
1.0
 43
10.0
 44
1.0
 45
0.0
 46
0.0
 47
0.1
 48
0.1
140
3.5
141
0.0
142
0.0
143
0.0393701
144
1.0
145
0.0
146
0.71
147
1.5
 71
     1
 72
     0
 73
     0
 74
     0
 75
     0
 76
     0
 77
     0
 78
     8
170
     0
171
     2
172
     1
173
     0
174
     0
175
     0
176
   256
177
   256
178
     2
  0
DIMSTYLE
  2
AM_JIS$7
 70
     0
  3

  4
"
  5
OPEN30
  6

  7

 40
1.0
 41
2.5
 42
1.0
 43
10.0
 44
1.0
 45
0.0
 46
0.0
 47
0.1
 48
0.1
140
5.0
141
0.0
142
0.0
143
0.0393701
144
1.0
145
0.0
146
0.71
147
1.5
 71
     1
 72
     0
 73
     0
 74
     0
 75
     0
 76
     0
 77
     3
 78
     8
170
     0
171
     2
172
     1
173
     0
174
     0
175
     0
176
   256
177
   256
178
     2
  0
DIMSTYLE
  2
AM_JIS$SF
 70
     0
  3

  4
"
  5
OPEN30
  6
OPEN30
  7
OPEN30
 40
1.0
 41
2.5
 42
1.0
 43
10.0
 44
1.0
 45
0.0
 46
0.0
 47
0.1
 48
0.1
140
3.5
141
0.0
142
0.0
143
0.0393701
144
1.0
145
0.0
146
0.71
147
1.5
 71
     0
 72
     0
 73
     0
 74
     0
 75
     1
 76
     1
 77
     3
 78
     8
170
     0
171
     2
172
     1
173
     0
174
     0
175
     0
176
   256
177
   256
178
     2
  0
DIMSTYLE
  2
AM_JIS$SH
 70
     0
  3

  4
"
  5
OPEN30
  6
GENAXEH
  7
OPEN30
 40
1.0
 41
2.5
 42
1.0
 43
10.0
 44
1.0
 45
0.0
 46
0.0
 47
0.1
 48
0.1
140
3.5
141
0.0
142
0.0
143
0.0393701
144
2.0
145
0.0
146
0.71
147
1.5
 71
     0
 72
     0
 73
     0
 74
     0
 75
     1
 76
     1
 77
     3
 78
     8
170
     0
171
     2
172
     1
173
     1
174
     0
175
     0
176
   256
177
   256
178
     2
  0
DIMSTYLE
  2
STANDARD
 70
     0
  3

  4

  5

  6

  7

 40
1.0
 41
0.18
 42
0.0625
 43
0.38
 44
0.18
 45
0.0
 46
0.0
 47
0.0
 48
0.0
140
0.18
141
0.09
142
0.0
143
25.399999999999999
144
1.0
145
0.0
146
1.0
147
0.09
 71
     0
 72
     0
 73
     1
 74
     1
 75
     0
 76
     0
 77
     0
 78
     0
170
     0
171
     2
172
     0
173
     0
174
     0
175
     0
176
     0
177
     0
178
     0
  0
DIMSTYLE
  2
AM_ISO
 70
     0
  3

  4
"
  5

  6

  7

 40
1.0
 41
3.5
 42
1.0
 43
10.0
 44
1.0
 45
0.0
 46
0.0
 47
0.1
 48
0.1
140
3.5
141
0.0
142
0.0
143
0.0393701
144
1.0
145
0.0
146
0.71
147
1.5
 71
     0
 72
     0
 73
     0
 74
     0
 75
     0
 76
     0
 77
     1
 78
     8
170
     0
171
     2
172
     1
173
     0
174
     0
175
     0
176
   256
177
   256
178
     2
  0
DIMSTYLE
  2
AM_ISO$3
 70
     0
  3

  4
"
  5

  6

  7

 40
1.0
 41
3.5
 42
1.0
 43
10.0
 44
1.0
 45
0.0
 46
0.0
 47
0.1
 48
0.1
140
3.5
141
0.0
142
0.0
143
0.0393701
144
1.0
145
0.0
146
0.71
147
1.5
 71
     0
 72
     0
 73
     0
 74
     1
 75
     0
 76
     0
 77
     1
 78
     8
170
     0
171
     2
172
     0
173
     0
174
     0
175
     0
176
   256
177
   256
178
     2
  0
DIMSTYLE
  2
AM_ISO$4
 70
     0
  3

  4
"
  5

  6

  7

 40
1.0
 41
3.5
 42
1.0
 43
10.0
 44
1.0
 45
0.0
 46
0.0
 47
0.1
 48
0.1
140
3.5
141
0.0
142
0.0
143
0.0393701
144
1.0
145
0.0
146
0.71
147
1.5
 71
     0
 72
     0
 73
     0
 74
     1
 75
     0
 76
     0
 77
     1
 78
     8
170
     0
171
     2
172
     0
173
     0
174
     0
175
     0
176
   256
177
   256
178
     2
  0
DIMSTYLE
  2
AM_ISO$6
 70
     0
  3

  4
"
  5

  6

  7

 40
1.0
 41
3.5
 42
1.0
 43
10.0
 44
1.0
 45
0.0
 46
0.0
 47
0.1
 48
0.1
140
3.5
141
0.0
142
0.0
143
0.0393701
144
1.0
145
0.0
146
0.71
147
1.5
 71
     0
 72
     0
 73
     0
 74
     0
 75
     0
 76
     0
 77
     0
 78
     8
170
     0
171
     2
172
     1
173
     0
174
     0
175
     0
176
   256
177
   256
178
     2
  0
DIMSTYLE
  2
AM_ISO$7
 70
     0
  3

  4
"
  5

  6

  7

 40
1.0
 41
3.5
 42
1.0
 43
10.0
 44
1.0
 45
0.0
 46
0.0
 47
0.1
 48
0.1
140
3.5
141
0.0
142
0.0
143
0.0393701
144
1.0
145
0.0
146
0.71
147
1.5
 71
     0
 72
     0
 73
     0
 74
     0
 75
     0
 76
     0
 77
     1
 78
     8
170
     0
171
     2
172
     1
173
     0
174
     0
175
     0
176
   256
177
   256
178
     2
  0
DIMSTYLE
  2
AM_ISO$SF
 70
     0
  3

  4
"
  5

  6

  7

 40
1.0
 41
3.5
 42
1.0
 43
10.0
 44
1.0
 45
0.0
 46
0.0
 47
0.1
 48
0.1
140
3.5
141
0.0
142
0.0
143
0.0393701
144
1.0
145
0.0
146
0.71
147
1.5
 71
     0
 72
     0
 73
     0
 74
     0
 75
     1
 76
     1
 77
     1
 78
     8
170
     0
171
     2
172
     1
173
     0
174
     0
175
     0
176
   256
177
   256
178
     2
  0
DIMSTYLE
  2
AM_ISO$SH
 70
     0
  3

  4
"
  5

  6
GENAXEH
  7

 40
1.0
 41
3.5
 42
1.0
 43
10.0
 44
1.0
 45
0.0
 46
0.0
 47
0.1
 48
0.1
140
3.5
141
0.0
142
0.0
143
0.0393701
144
2.0
145
0.0
146
0.71
147
1.5
 71
     0
 72
     0
 73
     0
 74
     0
 75
     1
 76
     1
 77
     1
 78
     8
170
     0
171
     2
172
     1
173
     1
174
     0
175
     0
176
   256
177
   256
178
     2
  0
ENDTAB
  0
ENDSEC
  0
SECTION
  2
BLOCKS
  0
BLOCK
  8
0
  2
$MODEL_SPACE
 70
     2
 10
0.0
 20
0.0
 30
0.0
  3
$MODEL_SPACE
  1

  0
ENDBLK
  5
A
  8
0
  0
BLOCK
 67
     1
  8
0
  2
$PAPER_SPACE
 70
     0
 10
0.0
 20
0.0
 30
0.0
  3
$PAPER_SPACE
  1

  0
ENDBLK
  5
6CED
 67
     1
  8
0
  0
BLOCK
  8
0
  2
GENAXEH
 70
     0
 10
0.0
 20
0.0
 30
0.0
  3
GENAXEH
  1

  0
LINE
  5
98
  8
0
 10
-1.0
 20
0.0
 30
0.0
 11
1.0
 21
0.0
 31
0.0
  0
ENDBLK
  5
9A
  8
0
  0
BLOCK
  8
0
 62
     0
  2
_OPEN30
 70
     0
 10
0.0
 20
0.0
 30
0.0
  3
_OPEN30
  1

  0
LINE
  5
21
  8
0
 62
     0
 10
-1.0
 20
0.26794919
 30
0.0
 11
0.0
 21
0.0
 31
0.0
  0
LINE
  5
22
  8
0
 62
     0
 10
0.0
 20
0.0
 30
0.0
 11
-1.0
 21
-0.26794919
 31
0.0
  0
LINE
  5
23
  8
0
 62
     0
 10
0.0
 20
0.0
 30
0.0
 11
-1.0
 21
0.0
 31
0.0
  0
ENDBLK
  5
25
  8
0
 62
     0
  0
BLOCK
  8
0
  2
*U3
 70
     1
 10
0.0
 20
0.0
 30
0.0
  3
*U3
  1

  0
TEXT
  5
6E6D
  8
0
 62
     2
 10
10.027802199993969
 20
122.2565067204918
 30
0.0
 40
3.5
  1
PM-R25
  0
ENDBLK
  5
6E6F
  8
0
  0
ENDSEC
  0
SECTION
  2
ENTITIES
  0
LINE
  5
6148
  8
0
  6
CONTINUOUS
 62
     7
 10
-28.606985739246369
 20
141.41914928365509
 30
0.0
 11
-28.606985739246369
 21
139.9191495034473
 31
0.0
  0
LINE
  5
6149
  8
0
  6
CONTINUOUS
 62
     7
 10
-23.80698551125861
 20
139.9191495034473
 30
0.0
 11
-23.806985511258599
 21
141.9191493656115
 31
0.0
  0
LINE
  5
614A
  8
0
  6
CONTINUOUS
 62
     7
 10
-33.906985583529227
 20
144.91914927527321
 30
0.0
 11
-34.406985665485621
 21
144.41914930973221
 31
0.0
  0
LINE
  5
614B
  8
0
  6
CONTINUOUS
 62
     7
 10
-34.406985665485621
 20
143.41914937864999
 30
0.0
 11
-33.906985583529227
 21
142.9191492966936
 31
0.0
  0
LINE
  5
614C
  8
0
  6
CONTINUOUS
 62
     7
 10
-32.906985419616461
 20
144.91914927527321
 30
0.0
 11
-33.906985583529227
 21
144.91914927527321
 31
0.0
  0
LINE
  5
614D
  8
0
  6
CONTINUOUS
 62
     7
 10
-33.906985583529227
 20
142.9191492966936
 30
0.0
 11
-32.906985419616461
 21
142.9191492966936
 31
0.0
  0
LINE
  5
614E
  8
0
  6
CONTINUOUS
 62
     7
 10
-27.456985597312809
 20
139.9191495034473
 30
0.0
 11
-27.456985597312809
 21
132.91914928738041
 31
0.0
  0
LINE
  5
615B
  8
0
  6
CONTINUOUS
 62
     7
 10
-19.506985830888539
 20
153.9191494699196
 30
0.0
 11
-19.506985830888539
 21
141.9191493656115
 31
0.0
  0
LINE
  5
6163
  8
0
  6
CONTINUOUS
 62
     7
 10
-19.50698583088851
 20
146.91914931206051
 30
0.0
 11
-32.906985419616461
 21
146.91914931206051
 31
0.0
  0
LINE
  5
6164
  8
0
  6
CONTINUOUS
 62
     7
 10
-28.90698569528795
 20
141.9191493656115
 30
0.0
 11
-19.50698583088851
 21
141.9191493656115
 31
0.0
  0
LINE
  5
6165
  8
0
  6
CONTINUOUS
 62
     7
 10
-28.90698569528795
 20
141.41914928365509
 30
0.0
 11
-28.90698569528795
 21
141.9191493656115
 31
0.0
  0
LINE
  5
6166
  8
0
  6
CONTINUOUS
 62
     7
 10
-27.849392426945631
 20
141.41914928365509
 30
0.0
 11
-32.906985419616461
 21
141.41914928365509
 31
0.0
  0
LINE
  5
6168
  8
0
  6
CONTINUOUS
 62
     7
 10
-32.906985419616461
 20
141.41914928365509
 30
0.0
 11
-32.906985419616461
 21
153.9191494699196
 31
0.0
  0
LINE
  5
616D
  8
0
  6
CONTINUOUS
 62
     7
 10
-29.206985651329521
 20
147.41914927760149
 30
0.0
 11
-23.206985599175461
 21
147.41914927760149
 31
0.0
  0
LINE
  5
6181
  8
0
  6
CONTINUOUS
 62
     7
 10
-32.906985419616461
 20
153.9191494699196
 30
0.0
 11
-29.206985651329521
 21
153.9191494699196
 31
0.0
  0
LINE
  5
6184
  8
0
  6
CONTINUOUS
 62
     7
 10
-23.206985599175461
 20
148.119153385386
 30
0.0
 11
-29.206985651329521
 21
148.119153385386
 31
0.0
  0
LINE
  5
6185
  8
0
  6
CONTINUOUS
 62
     7
 10
-23.206985599175461
 20
148.41914926689131
 30
0.0
 11
-29.206985651329521
 21
148.41914926689131
 31
0.0
  0
LINE
  5
6186
  8
0
  6
CONTINUOUS
 62
     7
 10
-23.80698551125861
 20
139.9191495034473
 30
0.0
 11
-28.606985739246369
 21
139.9191495034473
 31
0.0
  0
LINE
  5
6188
  8
0
  6
CONTINUOUS
 62
     7
 10
-27.849392426945631
 20
141.41914928365509
 30
0.0
 11
-27.849392426945631
 21
141.9191493656115
 31
0.0
  0
LINE
  5
61A0
  8
0
  6
CONTINUOUS
 62
     7
 10
-34.406985665485621
 20
143.91914922777579
 30
0.0
 11
-34.406985665485621
 21
144.41914930973221
 31
0.0
  0
LINE
  5
61A1
  8
0
  6
CONTINUOUS
 62
     7
 10
-34.406985665485621
 20
143.41914937864999
 30
0.0
 11
-34.406985665485621
 21
143.91914922777579
 31
0.0
  0
LINE
  5
61A2
  8
0
  6
CONTINUOUS
 62
     7
 10
-33.906985583529227
 20
143.91914922777579
 30
0.0
 11
-33.906985583529227
 21
142.9191492966936
 31
0.0
  0
LINE
  5
61A3
  8
0
  6
CONTINUOUS
 62
     7
 10
-33.906985583529227
 20
144.91914927527321
 30
0.0
 11
-33.906985583529227
 21
143.91914922777579
 31
0.0
  0
LINE
  5
61B6
  8
0
  6
CONTINUOUS
 62
     7
 10
-23.206985599175461
 20
147.41914927760149
 30
0.0
 11
-23.206985599175461
 21
153.9191494699196
 31
0.0
  0
LINE
  5
61B7
  8
0
  6
CONTINUOUS
 62
     7
 10
-29.206985651329521
 20
153.9191494699196
 30
0.0
 11
-29.206985651329521
 21
147.41914927760149
 31
0.0
  0
LINE
  5
61C5
  8
0
  6
CONTINUOUS
 62
     7
 10
-19.50698583088851
 20
153.9191494699196
 30
0.0
 11
-23.206985599175461
 21
153.9191494699196
 31
0.0
  0
LINE
  5
6901
  8
0
  6
CONTINUOUS
 62
     7
 10
2.5584858869956402
 20
139.91914950344719
 30
0.0
 11
2.5584858869956402
 21
132.91914928738041
 31
0.0
  0
LINE
  5
6902
  8
0
  6
CONTINUOUS
 62
     7
 10
5.0584858311162861
 20
132.91914928738041
 30
0.0
 11
5.0584858311162861
 21
139.91914950344719
 31
0.0
  0
LINE
  5
6905
  8
0
  6
CONTINUOUS
 62
     7
 10
1.40848574506208
 20
141.9191493656115
 30
0.0
 11
1.40848574506208
 21
139.91914950344719
 31
0.0
  0
LINE
  5
6906
  8
0
  6
CONTINUOUS
 62
     7
 10
6.2084859730498456
 20
139.91914950344719
 30
0.0
 11
6.2084859730498474
 21
141.9191493656115
 31
0.0
  0
LINE
  5
6909
  8
0
  6
CONTINUOUS
 62
     7
 10
2.5584858869956402
 20
132.91914928738041
 30
0.0
 11
5.0584858311162861
 21
132.91914928738041
 31
0.0
  0
LINE
  5
6920
  8
0
  6
CONTINUOUS
 62
     7
 10
0.8084858329789312
 20
141.9191493656115
 30
0.0
 11
6.8084858851329946
 21
141.9191493656115
 31
0.0
  0
LINE
  5
6921
  8
0
  6
CONTINUOUS
 62
     7
 10
6.8084858851329946
 20
153.9191494699196
 30
0.0
 11
6.8084858851329946
 21
141.41914928365509
 31
0.0
  0
LINE
  5
6926
  8
0
  6
CONTINUOUS
 62
     7
 10
0.8084858329789312
 20
141.41914928365509
 30
0.0
 11
0.8084858329789312
 21
153.9191494699196
 31
0.0
  0
LINE
  5
692F
  8
0
  6
CONTINUOUS
 62
     7
 10
0.8084858329789312
 20
153.9191494699196
 30
0.0
 11
6.8084858851329946
 21
153.9191494699196
 31
0.0
  0
LINE
  5
6936
  8
0
  6
CONTINUOUS
 62
     7
 10
6.2084859730498456
 20
139.91914950344719
 30
0.0
 11
1.40848574506208
 21
139.91914950344719
 31
0.0
  0
LINE
  5
6937
  8
0
  6
CONTINUOUS
 62
     7
 10
1.40848574506208
 20
141.41914928365509
 30
0.0
 11
0.8084858329789312
 21
141.41914928365509
 31
0.0
  0
LINE
  5
6939
  8
0
  6
CONTINUOUS
 62
     7
 10
9.6584857003585967
 20
145.51914930377171
 30
0.0
 11
10.00848603712484
 21
145.51914930377171
 31
0.0
  0
ARC
  5
693A
  8
0
  6
CONTINUOUS
 62
     7
 10
9.6584858590559648
 20
143.9191492978112
 30
0.0
 40
1.600000000000005
 50
90.0
 51
270.0
  0
LINE
  5
693B
  8
0
  6
CONTINUOUS
 62
     7
 10
10.00848603712484
 20
142.3191491517799
 30
0.0
 11
9.6584857003585967
 21
142.3191491517799
 31
0.0
  0
ARC
  5
693C
  8
0
  6
CONTINUOUS
 62
     7
 10
10.008485859055961
 20
143.9191492978112
 30
0.0
 40
1.600000000000005
 50
270.0
 51
90.0
  0
LINE
  5
693E
  8
0
  6
CONTINUOUS
 62
     7
 10
12.50848598124548
 20
141.41914928365509
 30
0.0
 11
6.2084859730498456
 21
141.41914928365509
 31
0.0
  0
LINE
  5
6943
  8
0
  6
CONTINUOUS
 62
     7
 10
12.50848598124548
 20
146.41914928365509
 30
0.0
 11
12.50848598124548
 21
141.41914928365509
 31
0.0
  0
LINE
  5
6944
  8
0
  6
CENTER
 62
     4
 10
10.00848585905595
 20
145.9565050534558
 30
0.0
 11
10.00848585905595
 21
141.9820009289688
 31
0.0
  0
LINE
  5
6945
  8
0
  6
CENTER
 62
     4
 10
9.658485859055979
 20
145.9565050534558
 30
0.0
 11
9.658485859055979
 21
141.9820009289688
 31
0.0
  0
LINE
  5
6946
  8
0
  6
CENTER
 62
     4
 10
12.308485859055949
 20
143.9191492978112
 30
0.0
 11
7.4304515661041526
 21
143.9191492978112
 31
0.0
  0
LINE
  5
6947
  8
0
  6
CENTER
 62
     4
 10
3.8084858590559629
 20
154.40468197766219
 30
0.0
 11
3.8084858590559771
 21
132.23206905831941
 31
0.0
  0
LINE
  5
6957
  8
0
  6
CONTINUOUS
 62
     7
 10
-33.906985583529227
 20
169.0727245205988
 30
0.0
 11
-34.406985665485621
 21
168.5727244968501
 31
0.0
  0
LINE
  5
6958
  8
0
  6
CONTINUOUS
 62
     7
 10
-34.406985665485621
 20
167.57272444935259
 30
0.0
 11
-33.906985583529227
 21
167.07272442560389
 31
0.0
  0
LINE
  5
6959
  8
0
  6
CONTINUOUS
 62
     7
 10
-32.906985419616461
 20
169.0727245205988
 30
0.0
 11
-33.906985583529227
 21
169.0727245205988
 31
0.0
  0
LINE
  5
695A
  8
0
  6
CONTINUOUS
 62
     7
 10
-33.906985583529227
 20
167.07272442560389
 30
0.0
 11
-32.906985419616461
 21
167.07272442560389
 31
0.0
  0
LINE
  5
69DF
  8
0
  6
CONTINUOUS
 62
     7
 10
-23.206985599175461
 20
170.26487038507801
 30
0.0
 11
-29.206985651329529
 21
170.26487038507801
 31
0.0
  0
LINE
  5
69E0
  8
0
  6
CONTINUOUS
 62
     7
 10
-29.206985651329529
 20
165.88057856112459
 30
0.0
 11
-23.206985599175461
 21
165.88057856112459
 31
0.0
  0
LINE
  5
69F6
  8
0
  6
CONTINUOUS
 62
     7
 10
-19.506985830888521
 20
171.07272449917841
 30
0.0
 11
-19.506985830888521
 21
165.07272444702431
 31
0.0
  0
LINE
  5
6A48
  8
0
  6
CONTINUOUS
 62
     7
 10
-19.506985830888521
 20
165.07272444702431
 30
0.0
 11
-32.906985419616461
 21
165.07272444702431
 31
0.0
  0
LINE
  5
6A4A
  8
0
  6
CONTINUOUS
 62
     7
 10
-19.506985830888521
 20
171.07272449917841
 30
0.0
 11
-32.906985419616461
 21
171.07272449917841
 31
0.0
  0
LINE
  5
6A4D
  8
0
  6
CONTINUOUS
 62
     7
 10
-28.90698569528795
 20
176.77272459529081
 30
0.0
 11
-28.90698569528795
 21
171.07272449917841
 31
0.0
  0
LINE
  5
6A4E
  8
0
  6
CONTINUOUS
 62
     7
 10
-32.906985419616461
 20
176.77272459529081
 30
0.0
 11
-28.90698569528795
 21
176.77272459529081
 31
0.0
  0
LINE
  5
6A4F
  8
0
  6
CONTINUOUS
 62
     7
 10
-32.906985419616461
 20
165.07272444702431
 30
0.0
 11
-32.906985419616461
 21
176.77272459529081
 31
0.0
  0
LINE
  5
6A52
  8
0
  6
CONTINUOUS
 62
     7
 10
-34.406985665485621
 20
167.57272444935259
 30
0.0
 11
-34.406985665485621
 21
168.5727244968501
 31
0.0
  0
LINE
  5
6A53
  8
0
  6
CONTINUOUS
 62
     7
 10
-33.906985583529227
 20
169.0727245205988
 30
0.0
 11
-33.906985583529227
 21
167.07272442560389
 31
0.0
  0
LINE
  5
6A54
  8
0
  6
CENTER
 62
     4
 10
-31.775873626936828
 20
168.07272447310129
 30
0.0
 11
-36.09191622609741
 21
168.07272447310129
 31
0.0
  0
LINE
  5
6D06
  8
0
  6
CONTINUOUS
 62
     7
 10
-29.206985651329521
 20
171.07272449917841
 30
0.0
 11
-29.206985651329521
 21
165.07272444702431
 31
0.0
  0
LINE
  5
6D07
  8
0
  6
CONTINUOUS
 62
     7
 10
-23.206985599175461
 20
171.07272449917841
 30
0.0
 11
-23.206985599175461
 21
165.07272444702431
 31
0.0
  0
LINE
  5
6D0B
  8
0
  6
CENTER
 62
     4
 10
-35.2251738022604
 20
143.91914928598339
 30
0.0
 11
-32.050243954211453
 21
143.91914928598339
 31
0.0
  0
LINE
  5
6D0C
  8
0
  6
CENTER
 62
     4
 10
-26.206985625252489
 20
155.66707586090709
 30
0.0
 11
-26.206985625252489
 21
130.8157788886798
 31
0.0
  0
LINE
  5
6D13
  8
0
  6
CONTINUOUS
 62
     7
 10
6.8084858851329946
 20
146.41914928365509
 30
0.0
 11
12.50848598124548
 21
146.41914928365509
 31
0.0
  0
LINE
  5
6D14
  8
0
  6
CONTINUOUS
 62
     7
 10
-24.95698565319217
 20
139.9191495034473
 30
0.0
 11
-24.95698565319217
 21
132.91914928738041
 31
0.0
  0
LINE
  5
6D15
  8
0
  6
CONTINUOUS
 62
     7
 10
-27.456985597312809
 20
132.91914928738041
 30
0.0
 11
-24.95698565319217
 21
132.91914928738041
 31
0.0
  0
INSERT
  5
6D17
  8
0
  2
*U3
 10
0.0
 20
0.0
 30
0.0
  0
LINE
  5
6D1F
  8
0
  6
CONTINUOUS
 62
     2
 10
-28.521757947643589
 20
151.9191494699196
 30
0.0
 11
-23.892213302861389
 21
151.9191494699196
 31
0.0
  0
LINE
  5
6D27
  8
0
  6
CONTINUOUS
 62
     2
 10
-28.521757947643589
 20
168.07272447310129
 30
0.0
 11
-23.892213302861389
 21
168.07272447310129
 31
0.0
  0
LINE
  5
6DCB
  8
0
  6
CONTINUOUS
 62
     2
 10
-28.521757947643589
 20
151.9191494699196
 30
0.0
 11
-26.792002753993341
 21
152.38263597716181
 31
0.0
  0
LINE
  5
6DCC
  8
0
  6
CONTINUOUS
 62
     2
 10
-26.792002753993341
 20
151.45566296267751
 30
0.0
 11
-28.521757947643589
 21
151.9191494699196
 31
0.0
  0
LINE
  5
6DCD
  8
0
  6
CONTINUOUS
 62
     2
 10
-28.521757947643589
 20
168.07272447310129
 30
0.0
 11
-26.792002753993341
 21
168.5362109803435
 31
0.0
  0
LINE
  5
6DCE
  8
0
  6
CONTINUOUS
 62
     2
 10
-26.792002753993341
 20
167.60923796585919
 30
0.0
 11
-28.521757947643589
 21
168.07272447310129
 31
0.0
  0
VIEWPORT
  5
6CF1
 67
     1
  8
0
 10
142.61041259765619
 20
99.112914085388184
 30
0.0
 40
362.3189755670457
 41
222.15178063964851
 68
     1
 69
     1
1001
ACAD
1000
MVIEW
1002
{
1070
    16
1010
0.0
1020
0.0
1030
0.0
1010
0.0
1020
0.0
1030
1.0
1040
0.0
1040
222.15178063964851
1040
142.61041259765619
1040
99.112914085388184
1040
50.0
1040
0.0
1040
0.0
1070
     0
1070
   100
1070
     1
1070
     1
1070
     0
1070
     0
1070
     0
1070
     0
1040
0.0
1040
0.0
1040
0.0
1040
10.0
1040
10.0
1040
10.0
1040
10.0
1070
     0
1002
{
1002
}
1002
}
1001
GENIUS_GENODEF_13
1002
{
1000
HIER
1070
     0
1002
}
1002
{
1000
MANEDIT
1070
     0
1002
}
1002
{
1000
NOSEL
1070
     0
1002
}
1002
{
1000
BEHIND
1070
     0
1002
}
1002
{
1000
OTHER
1070
     0
1002
}
1002
{
1000
REACTOR
1002
}
1001
GENIUS_GENOBJ-N-SDF_13
1002
{
1000
OWNER
1000
GEN
1002
}
1001
GENIUS_GENSCREG_15
1000
PF
1040
1.0
1000
DF
1040
1.0
1000
MIN
1011
-38.54907518586657
1021
0.0
1031
0.0
1021
-11.96297623443604
1031
0.0
1000
MAX
1011
323.76990038117913
1021
0.0
1031
0.0
1021
210.18880440521241
1031
0.0
1000
FLAGS
1070
     4
  0
ENDSEC
  0
EOF
