  0
SECTION
  2
HEADER
  9
$ACADVER
  1
AC1009
  9
$INSBASE
 10
177.99999979121739
 20
6.7085914059697132
 30
0.0
  9
$EXTMIN
 10
-233.41756733295219
 20
-175.03961215390959
 30
-0.0015258207003583
  9
$EXTMAX
 10
-50.406398112385659
 20
85.47628750431204
 30
0.0000000349246037
  9
$LIMMIN
 10
-50.406398751505783
 20
-175.03166293132259
  9
$LIMMAX
 10
132.59360124849411
 20
85.4683370686773
  9
$ORTHOMODE
 70
     0
  9
$REGENMODE
 70
     1
  9
$FILLMODE
 70
     1
  9
$QTEXTMODE
 70
     0
  9
$MIRRTEXT
 70
     1
  9
$DRAGMODE
 70
     2
  9
$LTSCALE
 40
1.0
  9
$OSMODE
 70
  3071
  9
$ATTMODE
 70
     1
  9
$TEXTSIZE
 40
5.0
  9
$TRACEWID
 40
1.0
  9
$TEXTSTYLE
  7
STANDARD
  9
$CLAYER
  8
AM_BOR
  9
$CELTYPE
  6
BYLAYER
  9
$CECOLOR
 62
   256
  9
$DIMSCALE
 40
1.0
  9
$DIMASZ
 40
2.5
  9
$DIMEXO
 40
1.0
  9
$DIMDLI
 40
10.0
  9
$DIMRND
 40
0.0
  9
$DIMDLE
 40
0.0
  9
$DIMEXE
 40
1.0
  9
$DIMTP
 40
0.1
  9
$DIMTM
 40
0.1
  9
$DIMTXT
 40
3.5
  9
$DIMCEN
 40
0.0
  9
$DIMTSZ
 40
0.0
  9
$DIMTOL
 70
     0
  9
$DIMLIM
 70
     0
  9
$DIMTIH
 70
     0
  9
$DIMTOH
 70
     0
  9
$DIMSE1
 70
     0
  9
$DIMSE2
 70
     0
  9
$DIMTAD
 70
     3
  9
$DIMZIN
 70
     8
  9
$DIMBLK
  1
OPEN30
  9
$DIMASO
 70
     1
  9
$DIMSHO
 70
     1
  9
$DIMPOST
  1

  9
$DIMAPOST
  1
"
  9
$DIMALT
 70
     0
  9
$DIMALTD
 70
     2
  9
$DIMALTF
 40
0.0393701
  9
$DIMLFAC
 40
1.0
  9
$DIMTOFL
 70
     1
  9
$DIMTVP
 40
0.0
  9
$DIMTIX
 70
     0
  9
$DIMSOXD
 70
     0
  9
$DIMSAH
 70
     0
  9
$DIMBLK1
  1
OPEN30
  9
$DIMBLK2
  1
OPEN30
  9
$DIMSTYLE
  2
AM_JIS
  9
$DIMCLRD
 70
   256
  9
$DIMCLRE
 70
   256
  9
$DIMCLRT
 70
     2
  9
$DIMTFAC
 40
0.71
  9
$DIMGAP
 40
1.5
  9
$LUNITS
 70
     2
  9
$LUPREC
 70
     2
  9
$SKETCHINC
 40
1.0
  9
$FILLETRAD
 40
2.5
  9
$AUNITS
 70
     0
  9
$AUPREC
 70
     0
  9
$MENU
  1
.
  9
$ELEVATION
 40
0.0
  9
$PELEVATION
 40
0.0
  9
$THICKNESS
 40
0.0
  9
$LIMCHECK
 70
     0
  9
$BLIPMODE
 70
     0
  9
$CHAMFERA
 40
2.5
  9
$CHAMFERB
 40
2.5
  9
$SKPOLY
 70
     0
  9
$TDCREATE
 40
2451870.55721559
  9
$TDUPDATE
 40
2453713.8338406011
  9
$TDINDWG
 40
0.0809426157
  9
$TDUSRTIMER
 40
0.0808119329
  9
$USRTIMER
 70
     1
  9
$ANGBASE
 50
0.0
  9
$ANGDIR
 70
     0
  9
$PDMODE
 70
     0
  9
$PDSIZE
 40
0.0
  9
$PLINEWID
 40
0.0
  9
$COORDS
 70
     0
  9
$SPLFRAME
 70
     0
  9
$SPLINETYPE
 70
     6
  9
$SPLINESEGS
 70
     8
  9
$ATTDIA
 70
     1
  9
$ATTREQ
 70
     1
  9
$HANDLING
 70
     1
  9
$HANDSEED
  5
D5A
  9
$SURFTAB1
 70
     6
  9
$SURFTAB2
 70
     6
  9
$SURFTYPE
 70
     6
  9
$SURFU
 70
     6
  9
$SURFV
 70
     6
  9
$UCSNAME
  2

  9
$UCSORG
 10
0.0
 20
0.0
 30
0.0
  9
$UCSXDIR
 10
1.0
 20
0.0
 30
0.0
  9
$UCSYDIR
 10
0.0
 20
1.0
 30
0.0
  9
$PUCSNAME
  2

  9
$PUCSORG
 10
0.0
 20
0.0
 30
0.0
  9
$PUCSXDIR
 10
1.0
 20
0.0
 30
0.0
  9
$PUCSYDIR
 10
0.0
 20
1.0
 30
0.0
  9
$USERI1
 70
     0
  9
$USERI2
 70
     0
  9
$USERI3
 70
     0
  9
$USERI4
 70
     0
  9
$USERI5
 70
     0
  9
$USERR1
 40
0.0
  9
$USERR2
 40
0.0
  9
$USERR3
 40
0.0
  9
$USERR4
 40
0.0
  9
$USERR5
 40
0.0
  9
$WORLDVIEW
 70
     1
  9
$SHADEDGE
 70
     3
  9
$SHADEDIF
 70
    70
  9
$TILEMODE
 70
     1
  9
$MAXACTVP
 70
    64
  9
$PLIMCHECK
 70
     0
  9
$PEXTMIN
 10
1.0000000000000000E+020
 20
1.0000000000000000E+020
 30
1.0000000000000000E+020
  9
$PEXTMAX
 10
-1.0000000000000000E+020
 20
-1.0000000000000000E+020
 30
-1.0000000000000000E+020
  9
$PLIMMIN
 10
0.0
 20
0.0
  9
$PLIMMAX
 10
420.0
 20
297.0
  9
$UNITMODE
 70
     0
  9
$VISRETAIN
 70
     1
  9
$PLINEGEN
 70
     0
  9
$PSLTSCALE
 70
     1
  0
ENDSEC
  0
SECTION
  2
TABLES
  0
TABLE
  2
VPORT
 70
    35
  0
VPORT
  2
*ACTIVE
 70
     0
 10
0.0
 20
0.0
 11
1.0
 21
1.0
 12
-141.91198272266891
 22
-44.781662324798781
 13
0.0
 23
0.0
 14
2.5
 24
2.5
 15
10.0
 25
10.0
 16
0.0
 26
0.0
 36
1.0
 17
0.0
 27
0.0
 37
0.0
 40
262.4746658210654
 41
1.545796737766624
 42
50.0
 43
0.0
 44
0.0
 50
0.0
 51
0.0
 71
     0
 72
   100
 73
     1
 74
     3
 75
     0
 76
     0
 77
     0
 78
     0
  0
ENDTAB
  0
TABLE
  2
LTYPE
 70
    20
  0
LTYPE
  2
CONTINUOUS
 70
     0
  3
Solid line
 72
    65
 73
     0
 40
0.0
  0
LTYPE
  2
AM_ISO02W050
 70
     0
  3
__ __ __ __ __ __ __ __ __ __ __ __ __ __ __
 72
    65
 73
     2
 40
7.5
 49
6.0
 49
-1.5
  0
LTYPE
  2
AM_ISO08W050
 70
     0
  3
____ . ____ . ____ . ____ . ____ . ____ . ____
 72
    65
 73
     4
 40
18.0
 49
12.0
 49
-1.5
 49
3.0
 49
-1.5
  0
LTYPE
  2
AM_ISO09W050
 70
     0
  3
_____ . . _____ . . _____ . . ____ .. ____
 72
    65
 73
     6
 40
22.5
 49
12.0
 49
-1.5
 49
3.0
 49
-1.5
 49
3.0
 49
-1.5
  0
LTYPE
  2
AMCONSTR
 70
     0
  3
_______________________
 72
    65
 73
     2
 40
9999.0
 49
9999.0
 49
0.0
  0
LTYPE
  2
AM_ISO02W050X2
 70
     0
  3
 _ _ _ _ _ _ _ _ _ _ _ _
 72
    65
 73
     2
 40
3.75
 49
3.0
 49
-0.75
  0
LTYPE
  2
AM_ISO08W050X2
 70
     0
  3
__ . __ . __ . __ . __ . __
 72
    65
 73
     4
 40
9.0
 49
6.0
 49
-0.75
 49
1.5
 49
-0.75
  0
LTYPE
  2
AMZIGZAG
 70
     0
  3
/\/-/\/-/\/-/\/-/\/-/\/
 72
    65
 73
     2
 40
11.000099999999991
 49
0.0001
 49
-11.0
  0
LTYPE
  2
CENTER
 70
     0
  3
____ _ ____ _
 72
    65
 73
     4
 40
13.42150481887249
 49
8.3884405117953058
 49
-1.6776881023590591
 49
1.6776881023590591
 49
-1.6776881023590591
  0
LTYPE
  2
HIDDEN
 70
     0
  3
_ _ _ _ _ _ _
 72
    65
 73
     2
 40
2.5165321535385901
 49
1.6776881023590591
 49
-0.8388440511795305
  0
LTYPE
  2
PHANTOM2
 70
     0
  3
Phantom (.5x) ___ _ _ ___ _ _ ___ _ _ ___ _ _
 72
    65
 73
     6
 40
1.25
 49
0.625
 49
-0.125
 49
0.125
 49
-0.125
 49
0.125
 49
-0.125
  0
LTYPE
  2
HIDDEN2
 70
     0
  3
Hidden (.5x) _ _ _ _ _ _ _ _ _ _ _ _ _ _ _ _ _
 72
    65
 73
     2
 40
0.1875
 49
0.125
 49
-0.0625
  0
LTYPE
  2
CENTER2
 70
     0
  3
Center (.5x) ___ _ ___ _ ___ _ ___ _ ___ _ ___
 72
    65
 73
     4
 40
1.125
 49
0.75
 49
-0.125
 49
0.125
 49
-0.125
  0
LTYPE
  2
AMZIGZAG2
 70
     0
  3
/\/-/\/-/\/-/\/-/\/-/\/
 72
    65
 73
     2
 40
0.4401
 49
0.0001
 49
-0.4400000000000002
  0
LTYPE
  2
ACJISTGB
 70
     0
  3
__ . . __ . .
 72
    65
 73
     6
 40
9.0
 49
4.0
 49
-1.0
 49
1.0
 49
-1.0
 49
1.0
 49
-1.0
  0
LTYPE
  2
ACJISTGL
 70
     0
  3
_ _ _ _ _
 72
    65
 73
     2
 40
3.0
 49
2.0
 49
-1.0
  0
LTYPE
  2
ACANSTGBM
 70
     0
  3
__ . . __ . .
 72
    65
 73
     6
 40
9.0
 49
4.0
 49
-1.0
 49
1.0
 49
-1.0
 49
1.0
 49
-1.0
  0
LTYPE
  2
ACANSTGLM
 70
     0
  3
_ _ _ _ _
 72
    65
 73
     2
 40
3.0
 49
2.0
 49
-1.0
  0
LTYPE
  2
ACANSTGB
 70
     0
  3
__ . . __ . .
 72
    65
 73
     6
 40
0.35433070866
 49
0.15748031496
 49
-0.03937007874
 49
0.03937007874
 49
-0.03937007874
 49
0.03937007874
 49
-0.03937007874
  0
LTYPE
  2
ACANSTGL
 70
     0
  3
_ _ _ _ _
 72
    65
 73
     2
 40
0.11811023622
 49
0.07874015748
 49
-0.03937007874
  0
ENDTAB
  0
TABLE
  2
LAYER
 70
    22
  0
LAYER
  2
0
 70
     0
 62
     7
  6
CONTINUOUS
  0
LAYER
  2
AM_BOR
 70
     0
 62
     7
  6
CONTINUOUS
  0
LAYER
  2
AM_5
 70
     0
 62
     3
  6
CONTINUOUS
  0
LAYER
  2
AM_7
 70
     0
 62
     4
  6
AM_ISO08W050
  0
LAYER
  2
AM_CL
 70
     0
 62
     1
  6
AMCONSTR
  0
LAYER
  2
AM_6
 70
     0
 62
     2
  6
CONTINUOUS
  0
LAYER
  2
AM_1
 70
     0
 62
    14
  6
CONTINUOUS
  0
LAYER
  2
AM_2
 70
     0
 62
     5
  6
CONTINUOUS
  0
LAYER
  2
AM_0
 70
     0
 62
     7
  6
CONTINUOUS
  0
LAYER
  2
AM_3
 70
     0
 62
     6
  6
AM_ISO02W050
  0
LAYER
  2
AM_4
 70
     0
 62
     3
  6
CONTINUOUS
  0
LAYER
  2
AM_8
 70
     0
 62
     1
  6
CONTINUOUS
  0
LAYER
  2
1
 70
     0
 62
     7
  6
CONTINUOUS
  0
LAYER
  2
3
 70
     0
 62
     2
  6
CONTINUOUS
  0
LAYER
  2
2
 70
     0
 62
     2
  6
CONTINUOUS
  0
LAYER
  2
AM_3H
 70
     0
 62
     7
  6
HIDDEN
  0
LAYER
  2
AM_7H
 70
     0
 62
    14
  6
AM_ISO08W050
  0
LAYER
  2
AM_4H
 70
     0
 62
     2
  6
PHANTOM2
  0
LAYER
  2
AM_10
 70
     0
 62
     7
  6
AM_ISO08W050
  0
LAYER
  2
AM_9
 70
     0
 62
   253
  6
CONTINUOUS
  0
LAYER
  2
DEFPOINTS
 70
     0
 62
     7
  6
CONTINUOUS
  0
LAYER
  2
AM_INV
 70
     0
 62
   253
  6
CONTINUOUS
  0
ENDTAB
  0
TABLE
  2
STYLE
 70
     6
  0
STYLE
  2
STANDARD
 70
     0
 40
0.0
 41
1.0
 50
0.0
 71
     0
 42
5.0
  3
ISOCP.SHX
  4
EXTFONT.SHX
  0
STYLE
  2

 70
     1
 40
0.0
 41
1.0
 50
0.0
 71
     0
 42
2.5
  3
ltypeshp.shx
  4

  0
STYLE
  2
ACJISTS
 70
     0
 40
1.0
 41
1.0
 50
0.0
 71
     0
 42
3.5
  3
isocp.shx
  4
bigfont.shx
  0
STYLE
  2
ACJISGDT
 70
     0
 40
0.0
 41
1.0
 50
0.0
 71
     0
 42
3.5
  3
amgdt.shx
  4

  0
STYLE
  2
ACANSTS
 70
     0
 40
1.0
 41
1.0
 50
0.0
 71
     0
 42
5.0
  3
romans.shx
  4
extfont.shx
  0
STYLE
  2
ACANSGDT
 70
     0
 40
0.0
 41
1.0
 50
0.0
 71
     0
 42
5.0
  3
amgdtans.shx
  4

  0
ENDTAB
  0
TABLE
  2
VIEW
 70
     6
  0
VIEW
  2
AM_VIEW1
 70
     0
 40
130.2499999999998
 10
46.573220813711607
 20
20.3433370686773
 41
193.95923913043461
 11
0.0
 21
0.0
 31
1.0
 12
0.0
 22
0.0
 32
0.0
 42
50.0
 43
0.0
 44
0.0
 50
0.0
 71
     0
  0
VIEW
  2
AM_VIEW2
 70
     0
 40
130.2499999999998
 10
35.613981683276833
 20
20.3433370686773
 41
193.95923913043461
 11
0.0
 21
0.0
 31
1.0
 12
0.0
 22
0.0
 32
0.0
 42
50.0
 43
0.0
 44
0.0
 50
0.0
 71
     0
  0
VIEW
  2
AM_VIEW3
 70
     0
 40
130.2499999999998
 10
46.573220813711607
 20
-109.9066629313226
 41
193.95923913043461
 11
0.0
 21
0.0
 31
1.0
 12
0.0
 22
0.0
 32
0.0
 42
50.0
 43
0.0
 44
0.0
 50
0.0
 71
     0
  0
VIEW
  2
AM_VIEW4
 70
     0
 40
130.2499999999998
 10
35.613981683276833
 20
-109.9066629313226
 41
193.95923913043461
 11
0.0
 21
0.0
 31
1.0
 12
0.0
 22
0.0
 32
0.0
 42
50.0
 43
0.0
 44
0.0
 50
0.0
 71
     0
  0
VIEW
  2
AM_VIEW5
 70
     0
 40
130.2499999999998
 10
41.093601248494217
 20
-44.7816629313227
 41
193.95923913043461
 11
0.0
 21
0.0
 31
1.0
 12
0.0
 22
0.0
 32
0.0
 42
50.0
 43
0.0
 44
0.0
 50
0.0
 71
     0
  0
VIEW
  2
AM_VIEW6
 70
     0
 40
260.49739499999993
 10
41.093601248494217
 20
-44.7816629313227
 41
387.9145990760868
 11
0.0
 21
0.0
 31
1.0
 12
0.0
 22
0.0
 32
0.0
 42
50.0
 43
0.0
 44
0.0
 50
0.0
 71
     0
  0
ENDTAB
  0
TABLE
  2
UCS
 70
     0
  0
ENDTAB
  0
TABLE
  2
APPID
 70
    25
  0
APPID
  2
ACAD
 70
     0
  0
APPID
  2
MCAD_NO_VIS
 70
     0
  0
APPID
  2
ACAD_TEMP_GRAPHIC
 70
     0
  0
APPID
  2
GENIUS_GENODEF_13
 70
     0
  0
APPID
  2
GENIUS_GENOBJ-N-TIT_13
 70
     0
  0
APPID
  2
GENIUS_GENTITLE_13
 70
     0
  0
APPID
  2
GENIUS_GENOENT_13
 70
     0
  0
APPID
  2
GENIUS_GENOREF_13
 70
     0
  0
APPID
  2
GENIUS_GENOLIS_13
 70
     0
  0
APPID
  2
GENIUS_GENZVEED_13
 70
     0
  0
APPID
  2
GENIUS_GENSCREG_15
 70
     0
  0
APPID
  2
GENIUS_GENOBJ-N-SDF_13
 70
     0
  0
APPID
  2
GENIUS_GENOBJ-N-CEN_13
 70
     0
  0
APPID
  2
GENIUS_GENOBJ-N-SEC_13
 70
     0
  0
APPID
  2
GENIUS_GENREC_14
 70
     0
  0
APPID
  2
GENIUS_GENOBJ-N-REC_13
 70
     0
  0
APPID
  2
GENIUS_GENBH_13
 70
     0
  0
APPID
  2
GENIUS_GENOBJ-NBEHI-BHF_13
 70
     0
  0
APPID
  2
GENIUS_GENOBJ-NBEHI-BHB_13
 70
     0
  0
APPID
  2
GENIUS_GENDTOL_13
 70
     0
  0
APPID
  2
GENIUS_GENOBJ-N-HTC_13
 70
     0
  0
APPID
  2
GENIUS_GENHATCH_13
 70
     0
  0
APPID
  2
GENIUS_GENSCREG_13
 70
     0
  0
APPID
  2
ACATTRIBSERVICES
 70
     0
  0
APPID
  2
GENIUS_AMGTXT_16
 70
     0
  0
ENDTAB
  0
TABLE
  2
DIMSTYLE
 70
    14
  0
DIMSTYLE
  2
AM_JIS
 70
     0
  3

  4
"
  5

  6

  7

 40
1.0
 41
2.5
 42
1.0
 43
10.0
 44
1.0
 45
0.0
 46
0.0
 47
0.1
 48
0.1
140
3.5
141
0.0
142
0.0
143
0.0393701
144
1.0
145
0.0
146
0.71
147
1.5
 71
     0
 72
     0
 73
     0
 74
     0
 75
     0
 76
     0
 77
     3
 78
     8
170
     0
171
     2
172
     1
173
     0
174
     0
175
     0
176
   256
177
   256
178
     2
  0
DIMSTYLE
  2
AM_JIS$3
 70
     0
  3

  4
"
  5

  6

  7

 40
1.0
 41
2.5
 42
1.0
 43
10.0
 44
1.0
 45
0.0
 46
0.0
 47
0.1
 48
0.1
140
3.5
141
0.0
142
0.0
143
0.0393701
144
1.0
145
0.0
146
0.71
147
1.5
 71
     0
 72
     0
 73
     0
 74
     1
 75
     0
 76
     0
 77
     3
 78
     8
170
     0
171
     2
172
     0
173
     0
174
     0
175
     0
176
   256
177
   256
178
     2
  0
DIMSTYLE
  2
AM_JIS$4
 70
     0
  3

  4
"
  5

  6

  7

 40
1.0
 41
2.5
 42
1.0
 43
10.0
 44
1.0
 45
0.0
 46
0.0
 47
0.1
 48
0.1
140
3.5
141
0.0
142
0.0
143
0.0393701
144
1.0
145
0.0
146
0.71
147
1.5
 71
     0
 72
     0
 73
     0
 74
     1
 75
     0
 76
     0
 77
     3
 78
     8
170
     0
171
     2
172
     0
173
     0
174
     0
175
     0
176
   256
177
   256
178
     2
  0
DIMSTYLE
  2
AM_JIS$6
 70
     0
  3

  4
"
  5

  6

  7

 40
1.0
 41
2.5
 42
1.0
 43
10.0
 44
1.0
 45
0.0
 46
0.0
 47
0.1
 48
0.1
140
3.5
141
0.0
142
0.0
143
0.0393701
144
1.0
145
0.0
146
0.71
147
1.5
 71
     0
 72
     0
 73
     0
 74
     0
 75
     0
 76
     0
 77
     0
 78
     8
170
     0
171
     2
172
     1
173
     0
174
     0
175
     0
176
   256
177
   256
178
     2
  0
DIMSTYLE
  2
AM_JIS$7
 70
     0
  3

  4
"
  5

  6

  7

 40
1.0
 41
2.5
 42
1.0
 43
10.0
 44
1.0
 45
0.0
 46
0.0
 47
0.1
 48
0.1
140
5.0
141
0.0
142
0.0
143
0.0393701
144
1.0
145
0.0
146
0.71
147
1.5
 71
     0
 72
     0
 73
     0
 74
     0
 75
     0
 76
     0
 77
     3
 78
     8
170
     0
171
     2
172
     1
173
     0
174
     0
175
     0
176
   256
177
   256
178
     2
  0
DIMSTYLE
  2
AM_JIS$SF
 70
     0
  3

  4
"
  5

  6

  7

 40
1.0
 41
2.5
 42
1.0
 43
10.0
 44
1.0
 45
0.0
 46
0.0
 47
0.1
 48
0.1
140
3.5
141
0.0
142
0.0
143
0.0393701
144
1.0
145
0.0
146
0.71
147
1.5
 71
     0
 72
     0
 73
     0
 74
     0
 75
     1
 76
     1
 77
     3
 78
     8
170
     0
171
     2
172
     1
173
     0
174
     0
175
     0
176
   256
177
   256
178
     2
  0
DIMSTYLE
  2
AM_JIS$SH
 70
     0
  3

  4
"
  5

  6

  7

 40
1.0
 41
2.5
 42
1.0
 43
10.0
 44
1.0
 45
0.0
 46
0.0
 47
0.1
 48
0.1
140
3.5
141
0.0
142
0.0
143
0.0393701
144
2.0
145
0.0
146
0.71
147
1.5
 71
     0
 72
     0
 73
     0
 74
     0
 75
     1
 76
     1
 77
     3
 78
     8
170
     0
171
     2
172
     1
173
     1
174
     0
175
     0
176
   256
177
   256
178
     2
  0
DIMSTYLE
  2
STANDARD
 70
     0
  3

  4

  5

  6

  7

 40
1.0
 41
0.18
 42
0.0625
 43
0.38
 44
0.18
 45
0.0
 46
0.0
 47
0.0
 48
0.0
140
0.18
141
0.09
142
0.0
143
25.399999999999999
144
1.0
145
0.0
146
1.0
147
0.09
 71
     0
 72
     0
 73
     1
 74
     1
 75
     0
 76
     0
 77
     0
 78
     0
170
     0
171
     2
172
     0
173
     0
174
     0
175
     0
176
     0
177
     0
178
     0
  0
DIMSTYLE
  2
AM_ANSI
 70
     0
  3

  4
mm
  5

  6

  7

 40
1.0
 41
0.1
 42
0.05
 43
0.5
 44
0.1
 45
0.0
 46
0.0
 47
0.1
 48
0.1
140
0.12
141
0.0
142
0.0
143
25.399999999999999
144
1.0
145
0.0
146
0.71
147
0.06
 71
     0
 72
     0
 73
     1
 74
     1
 75
     0
 76
     0
 77
     0
 78
     7
170
     0
171
     2
172
     0
173
     0
174
     0
175
     0
176
   256
177
   256
178
     2
  0
DIMSTYLE
  2
AM_ANSI$3
 70
     0
  3

  4
mm
  5

  6

  7

 40
1.0
 41
0.1
 42
0.05
 43
0.5
 44
0.1
 45
0.0
 46
0.0
 47
0.1
 48
0.1
140
0.12
141
0.0
142
0.0
143
25.399999999999999
144
1.0
145
0.0
146
0.71
147
0.06
 71
     0
 72
     0
 73
     1
 74
     1
 75
     0
 76
     0
 77
     0
 78
     7
170
     0
171
     2
172
     0
173
     0
174
     0
175
     0
176
   256
177
   256
178
     2
  0
DIMSTYLE
  2
AM_ANSI$4
 70
     0
  3

  4
mm
  5

  6

  7

 40
1.0
 41
0.1
 42
0.05
 43
0.5
 44
0.1
 45
0.0
 46
0.0
 47
0.1
 48
0.1
140
0.12
141
0.0
142
0.0
143
25.399999999999999
144
1.0
145
0.0
146
0.71
147
0.06
 71
     0
 72
     0
 73
     1
 74
     1
 75
     0
 76
     0
 77
     0
 78
     7
170
     0
171
     2
172
     0
173
     0
174
     0
175
     0
176
   256
177
   256
178
     2
  0
DIMSTYLE
  2
AM_ANSI$7
 70
     0
  3

  4
mm
  5

  6

  7

 40
1.0
 41
0.1
 42
0.05
 43
0.5
 44
0.1
 45
0.0
 46
0.0
 47
0.1
 48
0.1
140
0.24
141
0.0
142
0.0
143
25.399999999999999
144
1.0
145
0.0
146
0.71
147
0.06
 71
     0
 72
     0
 73
     1
 74
     1
 75
     0
 76
     0
 77
     0
 78
     7
170
     0
171
     2
172
     0
173
     0
174
     0
175
     0
176
   256
177
   256
178
     2
  0
DIMSTYLE
  2
AM_ANSI$SF
 70
     0
  3

  4
mm
  5

  6

  7

 40
1.0
 41
0.1
 42
0.05
 43
0.5
 44
0.1
 45
0.0
 46
0.0
 47
0.1
 48
0.1
140
0.12
141
0.0
142
0.0
143
25.399999999999999
144
1.0
145
0.0
146
0.71
147
0.06
 71
     0
 72
     0
 73
     1
 74
     1
 75
     1
 76
     1
 77
     0
 78
     7
170
     0
171
     2
172
     0
173
     0
174
     0
175
     0
176
   256
177
   256
178
     2
  0
DIMSTYLE
  2
AM_ANSI$SH
 70
     0
  3

  4
mm
  5

  6
GENAXEH
  7

 40
1.0
 41
0.1
 42
0.05
 43
0.5
 44
0.1
 45
0.0
 46
0.0
 47
0.1
 48
0.1
140
0.12
141
0.0
142
0.0
143
25.399999999999999
144
1.0
145
0.0
146
0.71
147
0.06
 71
     0
 72
     0
 73
     1
 74
     1
 75
     1
 76
     1
 77
     0
 78
     7
170
     0
171
     2
172
     0
173
     1
174
     0
175
     0
176
   256
177
   256
178
     2
  0
ENDTAB
  0
ENDSEC
  0
SECTION
  2
BLOCKS
  0
BLOCK
  8
0
  2
$MODEL_SPACE
 70
     0
 10
0.0
 20
0.0
 30
0.0
  3
$MODEL_SPACE
  1

  0
ENDBLK
  5
B0F
  8
0
  0
BLOCK
 67
     1
  8
0
  2
$PAPER_SPACE
 70
     0
 10
0.0
 20
0.0
 30
0.0
  3
$PAPER_SPACE
  1

  0
ENDBLK
  5
B0B
 67
     1
  8
0
  0
BLOCK
  8
0
  2
GENAXEH
 70
     0
 10
0.0
 20
0.0
 30
0.0
  3
GENAXEH
  1

  0
LINE
  5
98
  8
0
 10
-1.0
 20
0.0
 30
0.0
 11
1.0
 21
0.0
 31
0.0
  0
ENDBLK
  5
9A
  8
0
  0
BLOCK
  8
0
 62
     0
  2
_OPEN30
 70
     0
 10
0.0
 20
0.0
 30
0.0
  3
_OPEN30
  1

  0
LINE
  5
21
  8
0
 62
     0
 10
-1.0
 20
0.26794919
 30
0.0
 11
0.0
 21
0.0
 31
0.0
  0
LINE
  5
22
  8
0
 62
     0
 10
0.0
 20
0.0
 30
0.0
 11
-1.0
 21
-0.26794919
 31
0.0
  0
LINE
  5
23
  8
0
 62
     0
 10
0.0
 20
0.0
 30
0.0
 11
-1.0
 21
0.0
 31
0.0
  0
ENDBLK
  5
25
  8
0
 62
     0
  0
BLOCK
  8
0
  2
HOSSY-A4F-2
 70
     0
 10
0.0
 20
0.0
 30
0.0
  3
HOSSY-A4F-2
  1

  0
TEXT
  5
11C
  8
0
 10
-178.0
 20
50.999999999999943
 30
0.0
 40
3.0
  1
!gentitle-ll
  0
TEXT
  5
121
  8
0
 10
-178.0
 20
0.0
 30
0.0
 40
3.0
  1
!gentitle-insert
  0
TEXT
  5
122
  8
0
 10
3.0
 20
251.2999999999999
 30
0.0
 40
3.5
  1
!gentitle-max
  0
TEXT
  5
123
  8
0
 10
-0.0000003049374868
 20
249.4666668662274
 30
0.0
 40
3.5
  1
!gentitle-ru
  0
ENDBLK
  5
12A
  8
0
  0
BLOCK
  8
0
  2
HOSSY-A4T-2
 70
     2
 10
0.0
 20
0.0
 30
0.0
  3
HOSSY-A4T-2
  1

  0
ENDBLK
  5
18E
  8
0
  0
BLOCK
  8
0
  2
HOSSY-A4F
 70
     0
 10
0.0
 20
0.0
 30
0.0
  3
HOSSY-A4F
  1

  0
LINE
  5
289
  8
1
 62
     7
 10
-178.0
 20
248.2999999999999
 30
0.0
 11
0.0
 21
248.2999999999999
 31
0.0
  0
LINE
  5
28A
  8
1
 62
     7
 10
-178.0
 20
0.0
 30
0.0
 11
0.0
 21
0.0
 31
0.0
  0
LINE
  5
28B
  8
1
 62
     7
 10
-178.0
 20
0.0
 30
0.0
 11
-178.0
 21
248.2999999999999
 31
0.0
  0
TEXT
  5
28C
  8
0
 10
-178.0
 20
50.999999999999943
 30
0.0
 40
3.0
  1
!gentitle-ll
  0
LINE
  5
28D
  8
1
 62
     2
 10
-178.0
 20
56.999999999999929
 30
0.0
 11
-173.9999999999998
 21
56.999999999999929
 31
0.0
  0
LINE
  5
28E
  8
1
 62
     2
 10
-178.0
 20
62.999999999999929
 30
0.0
 11
-173.9999999999998
 21
62.999999999999929
 31
0.0
  0
LINE
  5
28F
  8
1
 62
     2
 10
-178.0
 20
68.999999999999929
 30
0.0
 11
-173.9999999999998
 21
68.999999999999929
 31
0.0
  0
LINE
  5
290
  8
1
 62
     7
 10
0.0
 20
248.2999999999999
 30
0.0
 11
0.0
 21
0.0
 31
0.0
  0
TEXT
  5
291
  8
0
 10
0.0
 20
0.0
 30
0.0
 40
3.0
  1
!gentitle-insert
  0
TEXT
  5
292
  8
0
 10
3.0
 20
251.2999999999999
 30
0.0
 40
3.5
  1
!gentitle-max
  0
TEXT
  5
293
  8
0
 10
-0.0000003049374868
 20
249.4666668662274
 30
0.0
 40
3.5
  1
!gentitle-ru
  0
LINE
  5
294
  8
1
 62
     2
 10
-50.0
 20
241.29999999999981
 30
0.0
 11
0.0
 21
241.29999999999981
 31
0.0
  0
LINE
  5
295
  8
1
 62
     2
 10
-50.0
 20
248.2999999999999
 30
0.0
 11
-50.0
 21
241.29999999999981
 31
0.0
  0
LINE
  5
296
  8
1
 62
     2
 10
-4.0
 20
220.29999999999981
 30
0.0
 11
0.0
 21
220.29999999999981
 31
0.0
  0
LINE
  5
297
  8
1
 62
     2
 10
-4.0
 20
227.29999999999981
 30
0.0
 11
0.0
 21
227.29999999999981
 31
0.0
  0
LINE
  5
298
  8
1
 62
     2
 10
-4.0
 20
234.2999999999999
 30
0.0
 11
0.0
 21
234.2999999999999
 31
0.0
  0
ENDBLK
  5
29A
  8
0
  0
BLOCK
  8
0
  2
HOSSY-A4T
 70
     2
 10
0.0
 20
0.0
 30
0.0
  3
HOSSY-A4T
  1

  0
TEXT
  5
2A3
  8
3
 10
-110.2999999999998
 20
-6.7085915585774094
 30
0.0
 40
5.0
  1
サンクス株式会社
 41
0.9
 72
     1
 11
-88.999999999999872
 21
-4.2085915585774094
 31
0.0
 73
     2
  0
ATTDEF
  5
2A4
  8
3
 10
-83.999999999999886
 20
12.0
 30
0.0
 40
3.5
  1

 72
     4
 11
-83.999999999999886
 21
12.0
 31
0.0
  3
設計者
  2
設計者
 70
     0
  0
ATTDEF
  5
2A5
  8
3
 10
-83.999999999999886
 20
4.0
 30
0.0
 40
3.5
  1

 72
     4
 11
-83.999999999999886
 21
4.0
 31
0.0
  3
設計日
  2
設計日
 70
     0
  0
TEXT
  5
2A6
  8
3
 10
-89.032199804834562
 20
16.616453041352401
 30
0.0
 40
3.5
  1
設 計
 41
0.9
 72
     1
 11
-84.727199804834569
 21
18.366453041352401
 31
0.0
 73
     2
  0
TEXT
  5
2A7
  8
3
 10
-91.990335591232835
 20
22.311389319093511
 30
0.0
 40
3.0
  1
年月日
 41
0.9
 72
     1
 11
-87.670335591232856
 21
23.811389319093511
 31
0.0
 73
     2
  0
LINE
  5
2A8
  8
1
 10
-177.9999999999998
 20
21.0
 30
0.0
 11
0.0
 21
21.0
 31
0.0
  0
LINE
  5
2A9
  8
1
 10
-177.9999999999998
 20
0.0
 30
0.0
 11
0.0000000000000853
 21
0.0
 31
0.0
  0
LINE
  5
2AA
  8
1
 10
-154.9999999999998
 20
16.000000000000011
 30
0.0
 11
-59.999999999999893
 21
16.000000000000011
 31
0.0
  0
LINE
  5
2AB
  8
2
 10
-177.9999999999998
 20
33.0
 30
0.0
 11
-59.999999999999893
 21
33.0
 31
0.0
  0
LINE
  5
2AC
  8
2
 10
-177.9999999999998
 20
38.999999999999908
 30
0.0
 11
-59.999999999999893
 21
38.999999999999908
 31
0.0
  0
LINE
  5
2AD
  8
2
 10
-177.9999999999998
 20
44.999999999999922
 30
0.0
 11
-59.999999999999893
 21
44.999999999999922
 31
0.0
  0
LINE
  5
2AE
  8
2
 10
-177.9999999999998
 20
50.999999999999943
 30
0.0
 11
0.0
 21
50.999999999999943
 31
0.0
  0
LINE
  5
2AF
  8
2
 10
-177.9999999999998
 20
27.000000000000011
 30
0.0
 11
-59.999999999999893
 21
27.000000000000011
 31
0.0
  0
ATTDEF
  5
2B0
  8
3
 10
-147.4999999999998
 20
11.000000000000011
 30
0.0
 40
3.5
  1

 72
     4
 11
-147.4999999999998
 21
11.000000000000011
 31
0.0
  3
尺度
  2
尺度
 70
     0
  0
TEXT
  5
2B1
  8
3
 10
-153.58420060292511
 20
1.4310833953594211
 30
0.0
 40
3.199999999999998
  1
第三角法
 41
0.9
  0
TEXT
  5
2B2
  8
3
 10
-151.86966844094181
 20
16.7102435928044
 30
0.0
 40
3.5
  1
尺 度
 41
0.9
 72
     1
 11
-147.5646684409418
 21
18.460243592804389
 31
0.0
 73
     2
  0
LINE
  5
2B3
  8
1
 10
-154.9999999999998
 20
6.0
 30
0.0
 11
-139.9999999999998
 21
6.0
 31
0.0
  0
LINE
  5
2B4
  8
1
 10
-177.9999999999998
 20
-0.0000000000000284
 30
0.0
 11
-177.9999999999998
 21
50.999999999999943
 31
0.0
  0
LINE
  5
2B5
  8
2
 10
-177.9999999999998
 20
38.999999999999908
 30
0.0
 11
-173.99999999999969
 21
44.999999999999922
 31
0.0
  0
LINE
  5
2B6
  8
2
 10
-164.9999999999998
 20
50.999999999999943
 30
0.0
 11
-164.9999999999998
 21
21.0
 31
0.0
  0
LINE
  5
2B7
  8
2
 10
-169.9999999999998
 20
50.999999999999943
 30
0.0
 11
-169.9999999999998
 21
21.0
 31
0.0
  0
LINE
  5
2B8
  8
2
 10
-173.99999999999969
 20
44.999999999999922
 30
0.0
 11
-169.9999999999998
 21
38.999999999999908
 31
0.0
  0
POLYLINE
  5
2B9
  8
3
 66
     1
 10
0.0
 20
0.0
 30
0.0
 70
     1
  0
VERTEX
  5
2BA
  8
3
 10
-176.12945493511791
 20
11.73075439643382
 30
0.0
  0
VERTEX
  5
2BB
  8
3
 10
-172.51180787629431
 20
11.73075439643382
 30
0.0
 42
0.4142135624
  0
VERTEX
  5
2BC
  8
3
 10
-171.01180787629431
 20
13.23075439643382
 30
0.0
  0
VERTEX
  5
2BD
  8
3
 10
-171.01180787629431
 20
13.23075439643382
 30
0.0
 42
0.4142135624
  0
VERTEX
  5
2BE
  8
3
 10
-172.51180787629431
 20
14.73075439643382
 30
0.0
  0
VERTEX
  5
2BF
  8
3
 10
-176.12945493511791
 20
14.73075439643382
 30
0.0
 42
0.4142135624
  0
VERTEX
  5
2C0
  8
3
 10
-177.62945493511771
 20
13.23075439643382
 30
0.0
  0
VERTEX
  5
2C1
  8
3
 10
-177.62945493511771
 20
13.23075439643382
 30
0.0
 42
0.4142135624
  0
SEQEND
  5
2C2
  8
3
  0
TEXT
  5
2C3
  8
3
 10
-177.08870317321211
 20
7.2550724830093127
 30
0.0
 40
2.5
  1
   実長と異なる
 41
0.9
  0
TEXT
  5
2C4
  8
3
 10
-177.08870317321211
 20
1.7550724830093141
 30
0.0
 40
2.5
  1
寸法
 41
0.9
  0
LINE
  5
2C5
  8
3
 10
-177.13965269733711
 20
7.2583435798248086
 30
0.0
 11
-171.723518177355
 21
7.2583435798248086
 31
0.0
  0
TEXT
  5
2C6
  8
3
 10
-177.76660820526419
 20
17.302714550495011
 30
0.0
 40
2.5
  1
（　）参考寸法
 41
0.9
  0
TEXT
  5
2C7
  8
3
 10
-176.9514507858436
 20
22.671692873318712
 30
0.0
 40
3.0
  1
符号
 41
0.9
 72
     1
 11
-174.07145078584361
 21
24.171692873318712
 31
0.0
 73
     2
  0
LINE
  5
2C8
  8
2
 10
-173.99999999999969
 20
38.999999999999908
 30
0.0
 11
-169.9999999999998
 21
33.0
 31
0.0
  0
LINE
  5
2C9
  8
2
 10
-173.99999999999969
 20
33.0
 30
0.0
 11
-169.9999999999998
 21
27.000000000000011
 31
0.0
  0
LINE
  5
2CA
  8
2
 10
-177.9999999999998
 20
27.000000000000011
 30
0.0
 11
-173.99999999999969
 21
33.0
 31
0.0
  0
LINE
  5
2CB
  8
2
 10
-177.9999999999998
 20
33.0
 30
0.0
 11
-173.99999999999969
 21
38.999999999999908
 31
0.0
  0
LINE
  5
2CC
  8
1
 10
-154.9999999999998
 20
21.0
 30
0.0
 11
-154.9999999999998
 21
0.0
 31
0.0
  0
TEXT
  5
2CD
  8
3
 10
-170.54785763353499
 20
12.01163931839401
 30
0.0
 40
2.5
  1
重要管理寸法
 41
0.9
  0
TEXT
  5
2CE
  8
3
 10
-168.7649290035543
 20
22.77112518901621
 30
0.0
 40
3.0
  1
数
 41
0.9
 72
     1
 11
-167.50492900355431
 21
24.27112518901621
 31
0.0
 73
     2
  0
LINE
  5
2CF
  8
2
 10
-173.99999999999969
 20
50.999999999999943
 30
0.0
 11
-169.9999999999998
 21
44.999999999999922
 31
0.0
  0
LINE
  5
2D0
  8
2
 10
-177.9999999999998
 20
44.999999999999922
 30
0.0
 11
-173.99999999999969
 21
50.999999999999943
 31
0.0
  0
LINE
  5
2D1
  8
2
 10
-94.999999999999915
 20
21.0
 30
0.0
 11
-94.999999999999915
 21
50.999999999999943
 31
0.0
  0
ATTDEF
  5
2D2
  8
3
 10
-115.9999999999999
 20
4.0
 30
0.0
 40
3.5
  1

 72
     4
 11
-115.9999999999999
 21
4.0
 31
0.0
  3
承認日１
  2
承認日１
 70
     0
  0
ATTDEF
  5
2D3
  8
3
 10
-115.9999999999999
 20
12.0
 30
0.0
 40
3.5
  1

 72
     4
 11
-115.9999999999999
 21
12.0
 31
0.0
  3
承認者１
  2
承認者１
 70
     0
  0
TEXT
  5
2D4
  8
3
 10
-143.3362860647988
 20
22.749402975158411
 30
0.0
 40
3.0
  1
改   訂   事   項
 41
0.9
 72
     1
 11
-129.9262860647988
 21
24.249402975158421
 31
0.0
 73
     2
  0
LINE
  5
2D5
  8
1
 10
-139.9999999999998
 20
21.0
 30
0.0
 11
-139.9999999999998
 21
0.0
 31
0.0
  0
LINE
  5
2D6
  8
2
 10
-123.9999999999999
 20
16.000000000000011
 30
0.0
 11
-123.9999999999999
 21
0.0
 31
0.0
  0
ATTDEF
  5
2D7
  8
3
 10
-131.9999999999998
 20
4.0
 30
0.0
 40
3.5
  1

 72
     4
 11
-131.9999999999998
 21
4.0
 31
0.0
  3
承認日２
  2
承認日２
 70
     0
  0
ATTDEF
  5
2D8
  8
3
 10
-131.9999999999998
 20
12.0
 30
0.0
 40
3.5
  1

 72
     4
 11
-131.9999999999998
 21
12.0
 31
0.0
  3
承認者２
  2
承認者２
 70
     0
  0
TEXT
  5
2D9
  8
3
 10
-127.0786040642422
 20
16.796730166510191
 30
0.0
 40
3.5
  1
承認
 41
0.9
 72
     1
 11
-123.7186040642423
 21
18.546730166510191
 31
0.0
 73
     2
  0
LINE
  5
2DA
  8
2
 10
-107.9999999999998
 20
21.0
 30
0.0
 11
-107.9999999999998
 21
0.0
 31
0.0
  0
LINE
  5
2DB
  8
2
 10
-91.999999999999929
 20
21.0
 30
0.0
 11
-91.999999999999929
 21
0.0
 31
0.0
  0
ATTDEF
  5
2DC
  8
3
 10
-99.999999999999915
 20
4.0
 30
0.0
 40
3.5
  1

 72
     4
 11
-99.999999999999915
 21
4.0
 31
0.0
  3
検図日
  2
検図日
 70
     0
  0
ATTDEF
  5
2DD
  8
3
 10
-99.999999999999915
 20
12.0
 30
0.0
 40
3.5
  1

 72
     4
 11
-99.999999999999915
 21
12.0
 31
0.0
  3
検図者
  2
検図者
 70
     0
  0
TEXT
  5
2DE
  8
3
 10
-104.8952529473992
 20
16.61890882810739
 30
0.0
 40
3.5
  1
検 図
 41
0.9
 72
     1
 11
-100.6952529473992
 21
18.36890882810739
 31
0.0
 73
     2
  0
LINE
  5
2DF
  8
1
 10
-59.999999999999893
 20
9.0000000000000142
 30
0.0
 11
0.0
 21
9.0000000000000142
 31
0.0
  0
LINE
  5
2E0
  8
2
 10
-59.999999999999893
 20
31.000000000000011
 30
0.0
 11
0.0
 21
31.000000000000011
 31
0.0
  0
LINE
  5
2E1
  8
2
 10
-53.999999999999893
 20
15.000000000000011
 30
0.0
 11
0.0
 21
15.000000000000011
 31
0.0
  0
LINE
  5
2E2
  8
2
 10
-59.999999999999893
 20
40.999999999999929
 30
0.0
 11
0.0
 21
40.999999999999929
 31
0.0
  0
INSERT
  5
2E3
  8
AM_BOR
  2
*U8
 10
0.0
 20
0.0
 30
0.0
  0
LINE
  5
2E4
  8
1
 10
-59.999999999999893
 20
50.999999999999943
 30
0.0
 11
-59.999999999999893
 21
0.0
 31
0.0
  0
LINE
  5
2E5
  8
2
 10
-69.999999999999901
 20
50.999999999999943
 30
0.0
 11
-69.999999999999901
 21
21.0
 31
0.0
  0
LINE
  5
2E6
  8
2
 10
-79.999999999999901
 20
21.0
 30
0.0
 11
-79.999999999999901
 21
50.999999999999943
 31
0.0
  0
LINE
  5
2E7
  8
2
 10
-53.999999999999893
 20
50.999999999999943
 30
0.0
 11
-53.999999999999893
 21
0.0
 31
0.0
  0
LINE
  5
2E8
  8
2
 10
-75.999999999999901
 20
21.0
 30
0.0
 11
-75.999999999999901
 21
0.0
 31
0.0
  0
TEXT
  5
2E9
  8
3
 10
-78.063083895197764
 20
22.149627453221601
 30
0.0
 40
3.0
  1
担当
 41
0.9
 72
     1
 11
-75.240941038054899
 21
23.649627453221608
 31
0.0
 73
     2
  0
ATTDEF
  5
2EA
  8
3
 10
-67.999999999999901
 20
4.0
 30
0.0
 40
3.5
  1

 72
     4
 11
-67.999999999999901
 21
4.0
 31
0.0
  3
製図日
  2
製図日
 70
     0
  0
ATTDEF
  5
2EB
  8
3
 10
-67.999999999999901
 20
12.0
 30
0.0
 40
3.5
  1

 72
     4
 11
-67.999999999999901
 21
12.0
 31
0.0
  3
製図者
  2
製図者
 70
     0
  0
TEXT
  5
2EC
  8
3
 10
-72.974356115720823
 20
16.575654828231109
 30
0.0
 40
3.5
  1
製 図
 41
0.9
 72
     1
 11
-68.774356115720821
 21
18.325654828231109
 31
0.0
 73
     2
  0
TEXT
  5
2ED
  8
3
 10
-67.997002392644305
 20
22.165541242071601
 30
0.0
 40
3.0
  1
検図
 41
0.9
 72
     1
 11
-65.207002392644299
 21
23.665541242071601
 31
0.0
 73
     2
  0
INSERT
  5
2EE
  8
AM_BOR
  2
*U9
 10
0.0
 20
0.0
 30
0.0
  0
INSERT
  5
2EF
  8
AM_BOR
  2
*U10
 10
0.0
 20
0.0
 30
0.0
  0
INSERT
  5
2F0
  8
AM_BOR
  2
*U11
 10
0.0
 20
0.0
 30
0.0
  0
INSERT
  5
2F1
  8
AM_BOR
  2
*U12
 10
0.0
 20
0.0
 30
0.0
  0
LINE
  5
2F2
  8
1
 10
0.0
 20
50.999999999999943
 30
0.0
 11
0.0
 21
-0.0000000000000284
 31
0.0
  0
TEXT
  5
2F3
  8
3
 10
-18.90399711582468
 20
-3.1772703555137678
 30
0.0
 40
2.0
  1
No.GIJ-015-5
 41
0.9
  0
ATTDEF
  5
2F4
  8
3
 10
-27.0
 20
12.000000000000011
 30
0.0
 40
3.5
  1

 72
     4
 11
-27.0
 21
12.000000000000011
 31
0.0
  3
品名下
  2
品名下
 70
     0
  0
ATTDEF
  5
2F5
  8
3
 10
-26.99999999999994
 20
4.5
 30
0.0
 40
3.5
  1

 72
     4
 11
-26.99999999999994
 21
4.5
 31
0.0
  3
図番
  2
図番
 70
     0
  0
ATTDEF
  5
2F6
  8
3
 10
-27.0
 20
17.675755546292581
 30
0.0
 40
3.5
  1

 72
     4
 11
-27.0
 21
17.675755546292581
 31
0.0
  3
品名上
  2
品名上
 70
     0
  0
ATTDEF
  5
2F7
  8
3
 10
-27.0
 20
35.999999999999957
 30
0.0
 40
3.5
  1

 72
     4
 11
-27.0
 21
35.999999999999957
 31
0.0
  3
処理
  2
処理
 70
     0
  0
ATTDEF
  5
2F8
  8
3
 10
-27.0
 20
26.000000000000089
 30
0.0
 40
3.5
  1

 72
     4
 11
-27.0
 21
26.000000000000089
 31
0.0
  3
品番
  2
品番
 70
     0
  0
ATTDEF
  5
2F9
  8
3
 10
-27.0
 20
45.999999999999901
 30
0.0
 40
3.5
  1

 72
     4
 11
-27.0
 21
45.999999999999901
 31
0.0
  3
材質
  2
材質
 70
     0
  0
ENDBLK
  5
2FB
  8
0
  0
BLOCK
  8
0
  2
*U8
 70
     1
 10
0.0
 20
0.0
 30
0.0
  3
*U8
  1

  0
TEXT
  5
A8A
  8
AM_BOR
 10
-58.799999999999898
 20
36.999999999999957
 30
0.0
 40
3.0
  1
処
  0
TEXT
  5
A8B
  8
AM_BOR
 10
-58.799999999999898
 20
31.999999999999972
 30
0.0
 40
3.0
  1
理
  0
ENDBLK
  5
A8D
  8
0
  0
BLOCK
  8
0
  2
*U9
 70
     1
 10
0.0
 20
0.0
 30
0.0
  3
*U9
  1

  0
TEXT
  5
A8F
  8
AM_BOR
 10
-58.474999999999888
 20
5.5
 30
0.0
 40
3.0
  1
図
  0
TEXT
  5
A90
  8
AM_BOR
 10
-58.499999999999893
 20
0.5
 30
0.0
 40
3.0
  1
番
  0
ENDBLK
  5
A92
  8
0
  0
BLOCK
  8
0
  2
*U10
 70
     1
 10
0.0
 20
0.0
 30
0.0
  3
*U10
  1

  0
TEXT
  5
A94
  8
AM_BOR
 10
-58.57499999999991
 20
16.000000000000011
 30
0.0
 40
3.0
  1
品
  0
TEXT
  5
A95
  8
AM_BOR
 10
-58.499999999999893
 20
11.000000000000011
 30
0.0
 40
3.0
  1
名
  0
ENDBLK
  5
A97
  8
0
  0
BLOCK
  8
0
  2
*U11
 70
     1
 10
0.0
 20
0.0
 30
0.0
  3
*U11
  1

  0
TEXT
  5
A99
  8
AM_BOR
 10
-58.57499999999991
 20
27.000000000000011
 30
0.0
 40
3.0
  1
品
  0
TEXT
  5
A9A
  8
AM_BOR
 10
-58.499999999999901
 20
22.000000000000011
 30
0.0
 40
3.0
  1
番
  0
ENDBLK
  5
A9C
  8
0
  0
BLOCK
  8
0
  2
*U12
 70
     1
 10
0.0
 20
0.0
 30
0.0
  3
*U12
  1

  0
TEXT
  5
A9E
  8
AM_BOR
 10
-58.199999999999889
 20
46.999999999999929
 30
0.0
 40
3.0
  1
材
  0
TEXT
  5
A9F
  8
AM_BOR
 10
-58.499999999999893
 20
41.999999999999929
 30
0.0
 40
3.0
  1
質
  0
ENDBLK
  5
AA1
  8
0
  0
BLOCK
  8
0
  2
A$C19251A7F
 70
     0
 10
0.0
 20
0.0
 30
0.0
  3
A$C19251A7F
  1

  0
INSERT
  5
6A8
  8
AM_8
  6
CONTINUOUS
  2
*X14
 10
0.0
 20
0.0
 30
0.0
1001
GENIUS_GENODEF_13
1002
{
1000
HIER
1070
     0
1002
}
1002
{
1000
MANEDIT
1070
     0
1002
}
1002
{
1000
NOSEL
1070
     0
1002
}
1002
{
1000
BEHIND
1070
     0
1002
}
1002
{
1000
REACTOR
1002
}
1001
GENIUS_GENOBJ-N-HTC_13
1002
{
1000
OWNER
1000
GEN
1002
}
1001
GENIUS_GENHATCH_13
1002
{
1000
DATA
1040
45.0
1042
5.0
1000
ANSI31
1070
     0
1011
279.74258539572372
1021
0.0
1031
0.0
1021
111.28237064405479
1031
0.0
1002
}
1002
{
1000
UCS
1010
0.0
1020
0.0
1030
0.0
1010
1.0
1020
0.0
1030
0.0
1010
0.0
1020
1.0
1030
0.0
1002
}
  0
TEXT
  5
6A9
  8
AM_0
 10
434.29928373740478
 20
454.99833974108839
 30
0.0
 40
77.576582108001958
  1
AM_0
  0
ENDBLK
  5
6AB
  8
0
  0
BLOCK
  8
0
  2
*X14
 70
     1
 10
0.0
 20
0.0
 30
0.0
  3
*X14
  1

  0
LINE
  5
AA3
  8
0
 62
     0
 10
908.78211855792745
 20
0.0000021179689327
 30
0.0
 11
912.44608836145346
 21
3.6639719214950319
 31
0.0
  0
LINE
  5
AA4
  8
0
 62
     0
 10
886.33147825525464
 20
0.00000211796889
 30
0.0
 11
912.44608836145346
 21
26.1146122241679
 31
0.0
  0
LINE
  5
AA5
  8
0
 62
     0
 10
863.88083795258103
 20
0.0000021179688758
 30
0.0
 11
912.44608836145346
 21
48.56525252684078
 31
0.0
  0
LINE
  5
AA6
  8
0
 62
     0
 10
841.43019764990868
 20
0.0000021179689327
 30
0.0
 11
912.44608836145346
 21
71.015892829513689
 31
0.0
  0
LINE
  5
AA7
  8
0
 62
     0
 10
818.97955734723587
 20
0.0000021179689043
 30
0.0
 11
912.44608836145346
 21
93.466533132186498
 31
0.0
  0
LINE
  5
AA8
  8
0
 62
     0
 10
796.52891704456283
 20
0.0000021179688758
 30
0.0
 11
912.44608836145346
 21
115.91717343485939
 31
0.0
  0
LINE
  5
AA9
  8
0
 62
     0
 10
774.07827674188979
 20
0.0000021179689043
 30
0.0
 11
912.44608836145346
 21
138.3678137375322
 31
0.0
  0
LINE
  5
AAA
  8
0
 62
     0
 10
751.6276364392171
 20
0.000002117968819
 30
0.0
 11
912.44608836145346
 21
160.81845404020501
 31
0.0
  0
LINE
  5
AAB
  8
0
 62
     0
 10
729.17699613654395
 20
0.0000021179688474
 30
0.0
 11
912.44608836145346
 21
183.26909434287791
 31
0.0
  0
LINE
  5
AAC
  8
0
 62
     0
 10
706.72635583387125
 20
0.000002117968819
 30
0.0
 11
912.44608836145346
 21
205.71973464555089
 31
0.0
  0
LINE
  5
AAD
  8
0
 62
     0
 10
684.27571553119856
 20
0.000002117968819
 30
0.0
 11
912.44608836145346
 21
228.17037494822381
 31
0.0
  0
LINE
  5
AAE
  8
0
 62
     0
 10
661.82507522852552
 20
0.0000021179687906
 30
0.0
 11
906.02143151403016
 21
244.1963584034734
 31
0.0
  0
LINE
  5
AAF
  8
0
 62
     0
 10
639.3744349258526
 20
0.0000021179688758
 30
0.0
 11
883.57079121135735
 21
244.1963584034734
 31
0.0
  0
LINE
  5
AB0
  8
0
 62
     0
 10
616.92379462317956
 20
0.0000021179687621
 30
0.0
 11
861.12015090868454
 21
244.1963584034734
 31
0.0
  0
LINE
  5
AB1
  8
0
 62
     0
 10
594.47315432050675
 20
0.0000021179687053
 30
0.0
 11
838.66951060601139
 21
244.1963584034734
 31
0.0
  0
LINE
  5
AB2
  8
0
 62
     0
 10
572.02251401783383
 20
0.0000021179687906
 30
0.0
 11
816.21887030333835
 21
244.1963584034734
 31
0.0
  0
LINE
  5
AB3
  8
0
 62
     0
 10
549.57187371516113
 20
0.0000021179687337
 30
0.0
 11
793.76823000066588
 21
244.1963584034734
 31
0.0
  0
LINE
  5
AB4
  8
0
 62
     0
 10
527.12123341248787
 20
0.00000211796862
 30
0.0
 11
771.31758969799273
 21
244.1963584034734
 31
0.0
  0
LINE
  5
AB5
  8
0
 62
     0
 10
504.67059310981517
 20
0.0000021179687337
 30
0.0
 11
748.86694939531992
 21
244.1963584034734
 31
0.0
  0
LINE
  5
AB6
  8
0
 62
     0
 10
482.21995280714248
 20
0.0000021179687337
 30
0.0
 11
726.41630909264723
 21
244.1963584034734
 31
0.0
  0
LINE
  5
AB7
  8
0
 62
     0
 10
459.76931250446938
 20
0.00000211796862
 30
0.0
 11
703.96566878997396
 21
244.1963584034732
 31
0.0
  0
LINE
  5
AB8
  8
0
 62
     0
 10
437.3186722017964
 20
0.0000021179687337
 30
0.0
 11
681.51502848730138
 21
244.1963584034734
 31
0.0
  0
LINE
  5
AB9
  8
0
 62
     0
 10
414.86803189912371
 20
0.0000021179686769
 30
0.0
 11
659.06438818462846
 21
244.1963584034734
 31
0.0
  0
LINE
  5
ABA
  8
0
 62
     0
 10
392.4173915964509
 20
0.00000211796862
 30
0.0
 11
636.61374788195565
 21
244.1963584034732
 31
0.0
  0
LINE
  5
ABB
  8
0
 62
     0
 10
369.96675129377792
 20
0.0000021179687337
 30
0.0
 11
614.16310757928272
 21
244.1963584034734
 31
0.0
  0
LINE
  5
ABC
  8
0
 62
     0
 10
347.51611099110488
 20
0.00000211796862
 30
0.0
 11
591.71246727660969
 21
244.1963584034734
 31
0.0
  0
LINE
  5
ABD
  8
0
 62
     0
 10
325.06547068843201
 20
0.0000021179685632
 30
0.0
 11
569.26182697393688
 21
244.1963584034732
 31
0.0
  0
LINE
  5
ABE
  8
0
 62
     0
 10
302.61483038575921
 20
0.0000021179687337
 30
0.0
 11
546.81118667126395
 21
244.1963584034734
 31
0.0
  0
LINE
  5
ABF
  8
0
 62
     0
 10
280.16419008308623
 20
0.00000211796862
 30
0.0
 11
524.36054636859103
 21
244.1963584034732
 31
0.0
  0
LINE
  5
AC0
  8
0
 62
     0
 10
257.71354978041342
 20
0.0000021179685064
 30
0.0
 11
501.90990606591828
 21
244.1963584034732
 31
0.0
  0
LINE
  5
AC1
  8
0
 62
     0
 10
235.26290947774041
 20
0.0000021179685632
 30
0.0
 11
479.4592657632453
 21
244.1963584034732
 31
0.0
  0
LINE
  5
AC2
  8
0
 62
     0
 10
212.81226917506771
 20
0.0000021179686769
 30
0.0
 11
457.00862546057232
 21
244.1963584034732
 31
0.0
  0
LINE
  5
AC3
  8
0
 62
     0
 10
190.3616288723949
 20
0.0000021179686769
 30
0.0
 11
434.5579851578994
 21
244.1963584034732
 31
0.0
  0
LINE
  5
AC4
  8
0
 62
     0
 10
167.91098856972161
 20
0.0000021179685632
 30
0.0
 11
412.10734485522647
 21
244.1963584034732
 31
0.0
  0
LINE
  5
AC5
  8
0
 62
     0
 10
145.460348267049
 20
0.0000021179686769
 30
0.0
 11
389.65670455255372
 21
244.1963584034732
 31
0.0
  0
LINE
  5
AC6
  8
0
 62
     0
 10
123.0097079643762
 20
0.0000021179686769
 30
0.0
 11
367.2060642498808
 21
244.1963584034732
 31
0.0
  0
LINE
  5
AC7
  8
0
 62
     0
 10
100.5590676617032
 20
0.0000021179685632
 30
0.0
 11
344.75542394720782
 21
244.1963584034732
 31
0.0
  0
LINE
  5
AC8
  8
0
 62
     0
 10
78.108427359030443
 20
0.0000021179687337
 30
0.0
 11
322.30478364453489
 21
244.1963584034732
 31
0.0
  0
LINE
  5
AC9
  8
0
 62
     0
 10
55.657787056357563
 20
0.0000021179686769
 30
0.0
 11
299.8541433418622
 21
244.1963584034732
 31
0.0
  0
LINE
  5
ACA
  8
0
 62
     0
 10
33.20714675368459
 20
0.00000211796862
 30
0.0
 11
277.40350303918922
 21
244.1963584034732
 31
0.0
  0
LINE
  5
ACB
  8
0
 62
     0
 10
10.75650645101177
 20
0.0000021179687337
 30
0.0
 11
254.95286273651621
 21
244.1963584034732
 31
0.0
  0
LINE
  5
ACC
  8
0
 62
     0
 10
0.0000034472877815
 20
11.69413941691742
 30
0.0
 11
232.5022224338432
 21
244.196358403473
 31
0.0
  0
LINE
  5
ACD
  8
0
 62
     0
 10
0.0000034472878951
 20
34.14477971959046
 30
0.0
 11
210.05158213117051
 21
244.1963584034732
 31
0.0
  0
LINE
  5
ACE
  8
0
 62
     0
 10
0.0000034472877815
 20
56.59542002226334
 30
0.0
 11
187.6009418284975
 21
244.1963584034732
 31
0.0
  0
LINE
  5
ACF
  8
0
 62
     0
 10
0.0000034472877815
 20
79.046060324936192
 30
0.0
 11
165.1503015258246
 21
244.196358403473
 31
0.0
  0
LINE
  5
AD0
  8
0
 62
     0
 10
0.0000034472878383
 20
101.496700627609
 30
0.0
 11
142.69966122315191
 21
244.1963584034732
 31
0.0
  0
LINE
  5
AD1
  8
0
 62
     0
 10
0.0000034472877815
 20
123.9473409302819
 30
0.0
 11
120.2490209204789
 21
244.1963584034732
 31
0.0
  0
LINE
  5
AD2
  8
0
 62
     0
 10
0.0000034472877815
 20
146.39798123295469
 30
0.0
 11
97.798380617806075
 21
244.196358403473
 31
0.0
  0
LINE
  5
AD3
  8
0
 62
     0
 10
0.0000034472878383
 20
168.84862153562759
 30
0.0
 11
75.347740315133137
 21
244.196358403473
 31
0.0
  0
LINE
  5
AD4
  8
0
 62
     0
 10
0.0000034472877815
 20
191.29926183830051
 30
0.0
 11
52.897100012460271
 21
244.19635840347311
 31
0.0
  0
LINE
  5
AD5
  8
0
 62
     0
 10
0.0000034472877815
 20
213.7499021409734
 30
0.0
 11
30.446459709787401
 21
244.196358403473
 31
0.0
  0
LINE
  5
AD6
  8
0
 62
     0
 10
0.0000034472878383
 20
236.20054244364641
 30
0.0
 11
7.995819407114479
 21
244.196358403473
 31
0.0
  0
ENDBLK
  5
AD8
  8
0
  0
BLOCK
  8
0
  2
カタログA4F
 70
     0
 10
0.0
 20
0.0
 30
0.0
  3
カタログA4F
  1

  0
LINE
  5
85E
  8
AM_BOR
 62
     7
 10
-178.0
 20
260.49999999999989
 30
0.0
 11
0.0
 21
260.49999999999989
 31
0.0
  0
LINE
  5
85F
  8
AM_BOR
 62
     7
 10
0.0
 20
0.0
 30
0.0
 11
-178.0
 21
0.0
 31
0.0
  0
LINE
  5
860
  8
AM_BOR
 62
     7
 10
-178.0
 20
0.0
 30
0.0
 11
-178.0
 21
260.49999999999989
 31
0.0
  0
TEXT
  5
861
  8
AM_BOR
 10
-178.0
 20
30.0
 30
0.0
 40
3.5
  1
!GENTITLE-LL
  0
LINE
  5
862
  8
AM_BOR
 62
     7
 10
0.0
 20
260.49999999999989
 30
0.0
 11
0.0
 21
0.0
 31
0.0
  0
TEXT
  5
863
  8
AM_BOR
 10
0.0
 20
0.0
 30
0.0
 40
3.5
  1
!GENTITLE-INSERT
  0
TEXT
  5
864
  8
AM_BOR
 10
3.0
 20
263.5
 30
0.0
 40
3.5
  1
!GENTITLE-MAX
  0
TEXT
  5
865
  8
AM_BOR
 10
0.0
 20
260.49999999999989
 30
0.0
 40
3.5
  1
!GENTITLE-RU
  0
LINE
  5
866
  8
AM_BOR
 10
-183.0
 20
130.2499999999998
 30
0.0
 11
-178.0
 21
130.2499999999998
 31
0.0
  0
ENDBLK
  5
868
  8
0
  0
BLOCK
  8
0
  2
カタログT
 70
     2
 10
0.0
 20
0.0
 30
0.0
  3
カタログT
  1

  0
ATTDEF
  5
872
  8
AM_BOR
 62
     2
 10
-36.464359161941601
 20
24.968720392210908
 30
0.0
 40
3.5
  1

 72
     4
 11
-36.464359161941601
 21
24.968720392210908
 31
0.0
  3
Type
  2
TYPE
 70
     0
  0
ATTDEF
  5
873
  8
AM_BOR
 62
     2
 10
-36.464359161941601
 20
14.73042719577559
 30
0.0
 40
3.5
  1

 72
     4
 11
-36.464359161941601
 21
14.73042719577559
 31
0.0
  3
Model-name
  2
MODEL-NAME
 70
     0
  0
ATTDEF
  5
874
  8
AM_BOR
 62
     2
 10
-73.114207794603146
 20
3.0951784671507032
 30
0.0
 40
3.5
  1
1.0
 72
     4
 11
-70.487829841847244
 21
4.845178467150701
 31
0.0
  3
Scale
  2
GEN-TITLE-SCA
 70
     0
  0
LINE
  5
875
  8
AM_BOR
 10
-89.999999999999986
 20
-0.0000000000000284
 30
0.0
 11
0.0
 21
0.0
 31
0.0
  0
LINE
  5
876
  8
AM_BOR
 62
     7
 10
-89.999999999999986
 20
29.999999999999961
 30
0.0
 11
0.0000000000000568
 21
29.999999999999961
 31
0.0
  0
LINE
  5
877
  8
AM_BOR
 62
     7
 10
-89.999999999999986
 20
19.999999999999961
 30
0.0
 11
0.0000000000000568
 21
19.999999999999961
 31
0.0
  0
LINE
  5
878
  8
AM_BOR
 62
     7
 10
-89.999999999999986
 20
9.9999999999999716
 30
0.0
 11
0.0000000000000568
 21
9.9999999999999716
 31
0.0
  0
LINE
  5
879
  8
AM_BOR
 62
     7
 10
-89.999999999999986
 20
29.999999999999961
 30
0.0
 11
-89.999999999999986
 21
-0.0000000000000284
 31
0.0
  0
TEXT
  5
87A
  8
AM_BOR
 62
     2
 10
-88.926276878663543
 20
5.9576159478805542
 30
0.0
 40
2.0
  1
Scale;
 41
0.9
 11
-88.926276878663543
 21
6.9576159478805542
 31
0.0
 73
     2
  0
TEXT
  5
87B
  8
AM_BOR
 62
     2
 10
-88.494748526937144
 20
26.239448479021942
 30
0.0
 40
2.0
  1
Type;
 41
0.9
 11
-88.494748526937144
 21
27.239448479021942
 31
0.0
 73
     2
  0
TEXT
  5
87C
  8
AM_BOR
 62
     2
 10
-89.070119662572338
 20
16.314296389314471
 30
0.0
 40
2.0
  1
Model name;
 41
0.9
 11
-89.070119662572338
 21
17.314296389314471
 31
0.0
 73
     2
  0
LINE
  5
87D
  8
AM_BOR
 62
     7
 10
-59.999999999999972
 20
9.9999999999999716
 30
0.0
 11
-59.999999999999972
 21
-0.0000000000000284
 31
0.0
  0
TEXT
  5
87E
  8
AM_BOR
 62
     2
 10
-46.636498409475273
 20
2.512288621430967
 30
0.0
 40
4.0
  1
SUNX Ltd.
 41
0.9
 11
-46.636498409475273
 21
4.512288621430967
 31
0.0
 73
     2
  0
LINE
  5
87F
  8
AM_BOR
 10
0.0000000000000568
 20
29.999999999999961
 30
0.0
 11
0.0
 21
0.0
 31
0.0
  0
ENDBLK
  5
881
  8
0
  0
BLOCK
  8
0
  2
*U17
 70
     1
 10
0.0
 20
0.0
 30
0.0
  3
*U17
  1

  0
LINE
  5
ADA
  8
AM_5
 10
-171.5094823474578
 20
-51.590172614494108
 30
0.0
 11
-162.09047304898851
 21
-51.590172614494108
 31
0.0
  0
LINE
  5
ADB
  8
AM_5
 10
-162.09047304898851
 20
-51.590172614494108
 30
0.0
 11
-150.53587869775779
 21
-51.590172614494108
 31
0.0
  0
LINE
  5
ADC
  8
AM_5
 10
-150.53587869775779
 20
-51.590172614494108
 30
0.0
 11
-148.9418951934197
 21
-48.344275372981748
 31
0.0
  0
TRACE
  5
ADD
  8
AM_5
 10
-148.49309109605451
 20
-48.564672469578142
 30
0.0
 11
-149.39069929078511
 21
-48.123878276385348
 31
0.0
 12
-147.6195126085519
 22
-45.651450778018678
 32
0.0
 13
-147.6195126085519
 23
-45.651450778018678
 33
0.0
  0
TEXT
  5
AEF
  8
0
 62
     2
 10
-151.30199999999999
 20
-51.854599999999991
 30
0.0
 40
3.0
  1
M6×0.75
  7
ACANSTS
  0
ENDBLK
  5
AE0
  8
0
  0
BLOCK
  8
0
  2
*U18
 70
     1
 10
0.0
 20
0.0
 30
0.0
  3
*U18
  1

  0
LINE
  5
AE2
  8
AM_5
  6
AM_ISO02W050X2
 10
-151.29451260854881
 20
-42.65145077801867
 30
0.0
 11
-152.6945126085468
 21
-42.65145077801867
 31
0.0
  0
LINE
  5
AE3
  8
AM_5
  6
AM_ISO02W050X2
 10
-152.6945126085468
 20
-42.65145077801867
 30
0.0
 11
-162.29451260854711
 21
-42.65145077801867
 31
0.0
  0
TRACE
  5
AE4
  8
AM_5
  6
AM_ISO02W050X2
 10
-162.29451260854711
 20
-42.151450780018649
 30
0.0
 11
-162.29451260854711
 21
-43.15145077601867
 31
0.0
 12
-165.29451260854711
 22
-42.65145077801867
 32
0.0
 13
-165.29451260854711
 23
-42.65145077801867
 33
0.0
  0
ENDBLK
  5
AE7
  8
0
  0
BLOCK
  8
0
  2
*U19
 70
     1
 10
0.0
 20
0.0
 30
0.0
  3
*U19
  1

  0
LINE
  5
AE9
  8
AM_5
  6
AM_ISO02W050X2
 10
-151.2945126085535
 20
13.061773029391359
 30
0.0
 11
-152.699114857968
 21
13.061773029391359
 31
0.0
  0
LINE
  5
AEA
  8
AM_5
  6
AM_ISO02W050X2
 10
-152.699114857968
 20
13.061773029391359
 30
0.0
 11
-162.29911485796839
 21
13.061773029391359
 31
0.0
  0
TRACE
  5
AEB
  8
AM_5
  6
AM_ISO02W050X2
 10
-162.29911485796839
 20
13.56177302739135
 30
0.0
 11
-162.29911485796839
 21
12.56177303139135
 31
0.0
 12
-165.29911485796839
 22
13.061773029391359
 32
0.0
 13
-165.29911485796839
 23
13.061773029391359
 33
0.0
  0
ENDBLK
  5
AEE
  8
0
  0
BLOCK
  8
0
  2
*U22
 70
     1
 10
0.0
 20
0.0
 30
0.0
  3
*U22
  1

  0
LINE
  5
C25
  8
AM_5
 10
-141.28781414360481
 20
-48.087209713012371
 30
0.0
 11
-134.699142070128
 21
-48.087209713012371
 31
0.0
  0
LINE
  5
C26
  8
AM_5
 10
-134.699142070128
 20
-48.087209713012371
 30
0.0
 11
-123.1445477188973
 21
-48.087209713012371
 31
0.0
  0
LINE
  5
C27
  8
AM_5
 10
-123.1445477188973
 20
-48.087209713012371
 30
0.0
 11
-121.5505642145592
 21
-44.841312471499997
 31
0.0
  0
TRACE
  5
C28
  8
AM_5
 10
-121.101760117194
 20
-45.06170956809639
 30
0.0
 11
-121.9993683119245
 21
-44.62091537490361
 31
0.0
 12
-120.22818162969131
 22
-42.148487876536933
 32
0.0
 13
-120.22818162969131
 23
-42.148487876536933
 33
0.0
  0
TEXT
  5
C29
  8
0
 62
     2
 10
-123.9109999999999
 20
-48.351599999999998
 30
0.0
 40
3.0
  1
M4×0.7
  7
ACANSTS
  0
ENDBLK
  5
C2B
  8
0
  0
BLOCK
  8
0
  2
*U23
 70
     1
 10
0.0
 20
0.0
 30
0.0
  3
*U23
  1

  0
LINE
  5
C2D
  8
AM_5
  6
AM_ISO02W050X2
 10
-123.9031816296892
 20
-40.148487876536933
 30
0.0
 11
-125.303181629687
 21
-40.148487876536933
 31
0.0
  0
LINE
  5
C2E
  8
AM_5
  6
AM_ISO02W050X2
 10
-125.303181629687
 20
-40.148487876536933
 30
0.0
 11
-134.90318162968751
 21
-40.148487876536933
 31
0.0
  0
TRACE
  5
C2F
  8
AM_5
  6
AM_ISO02W050X2
 10
-134.90318162968751
 20
-39.648487878536933
 30
0.0
 11
-134.90318162968751
 21
-40.648487874536919
 31
0.0
 12
-137.90318162968751
 22
-40.148487876536933
 32
0.0
 13
-137.90318162968751
 23
-40.148487876536933
 33
0.0
  0
ENDBLK
  5
C31
  8
0
  0
BLOCK
  8
0
  2
*U24
 70
     1
 10
0.0
 20
0.0
 30
0.0
  3
*U24
  1

  0
LINE
  5
C33
  8
AM_5
  6
AM_ISO02W050X2
 10
-123.90318162969101
 20
5.1007468536716942
 30
0.0
 11
-125.30318162968879
 21
5.1007468536716942
 31
0.0
  0
LINE
  5
C34
  8
AM_5
  6
AM_ISO02W050X2
 10
-125.30318162968879
 20
5.1007468536716942
 30
0.0
 11
-134.9031816296893
 21
5.1007468536716942
 31
0.0
  0
TRACE
  5
C35
  8
AM_5
  6
AM_ISO02W050X2
 10
-134.9031816296893
 20
5.6007468516716941
 30
0.0
 11
-134.9031816296893
 21
4.6007468556716944
 31
0.0
 12
-137.9031816296893
 22
5.1007468536716942
 32
0.0
 13
-137.9031816296893
 23
5.1007468536716942
 33
0.0
  0
ENDBLK
  5
C37
  8
0
  0
BLOCK
  8
0
  2
A$C0F2D6DF7
 70
     0
 10
0.0
 20
0.0
 30
0.0
  3
A$C0F2D6DF7
  1

  0
LINE
  5
CF8
  8
AM_0
 62
     7
 10
0.3499999999975785
 20
2.0
 30
0.0
 11
6.9999999999973284
 21
2.0
 31
0.0
  0
LINE
  5
CF9
  8
AM_0
 62
     7
 10
6.999999999998237
 20
-2.0
 30
0.0
 11
0.3499999999975785
 21
-2.0
 31
0.0
  0
LINE
  5
CFA
  8
AM_0
 62
     2
 10
0.0
 20
1.263922465979717
 30
0.0
 11
6.9999999999973284
 21
1.263922465979717
 31
0.0
  0
LINE
  5
CFB
  8
AM_0
 62
     2
 10
6.999999999998237
 20
-1.263922465981522
 30
0.0
 11
0.0
 21
-1.263922465981522
 31
0.0
  0
LINE
  5
CFC
  8
AM_0
 62
     7
 10
0.0
 20
-1.6499999999996291
 30
0.0
 11
0.0
 21
1.649999999999636
 31
0.0
  0
LINE
  5
CFD
  8
AM_0
 62
     7
 10
0.0
 20
-1.6499999999996291
 30
0.0
 11
0.3499999999975785
 21
-2.0
 31
0.0
  0
LINE
  5
CFE
  8
AM_0
 62
     2
 10
0.3499999999975785
 20
-2.0
 30
0.0
 11
0.3499999999975785
 21
-1.263922465981522
 31
0.0
  0
LINE
  5
CFF
  8
AM_0
 62
     7
 10
0.0
 20
1.649999999999636
 30
0.0
 11
0.3499999999975785
 21
2.0
 31
0.0
  0
LINE
  5
D00
  8
AM_0
 62
     2
 10
0.3499999999975785
 20
2.0
 30
0.0
 11
0.3499999999975785
 21
1.263922465979717
 31
0.0
  0
ENDBLK
  5
D02
  8
0
  0
ENDSEC
  0
SECTION
  2
ENTITIES
  0
POINT
  5
522
  8
0
 10
0.0
 20
0.0
 30
0.0
1001
GENIUS_GENOBJ-NBEHI-BHF_13
1002
{
1000
OWNER
1000
GENBEHI
1002
}
1001
GENIUS_GENOENT_13
1002
{
1000
MYREF
1005
522
1002
}
1002
{
1000
GRP
1005
0
1002
}
1001
GENIUS_GENOLIS_13
1002
{
1000
ENT
1005
3A1
1002
}
1001
GENIUS_GENODEF_13
1002
{
1000
HIER
1070
     1
1002
}
1002
{
1000
MANEDIT
1070
     0
1002
}
1002
{
1000
NOSEL
1070
     1
1002
}
1002
{
1000
BEHIND
1070
     0
1002
}
1002
{
1000
REACTOR
1002
}
1001
GENIUS_GENBH_13
1002
{
1000
MODIFY
1002
{
1000
U
1000
N
1002
}
1002
{
1000
I
1000
N
1002
}
1002
}
1002
{
1000
FLAGS
1070
   564
1002
}
1002
{
1000
BGO
1005
523
1002
}
  0
POINT
  5
888
  8
0
 10
0.0
 20
0.0
 30
0.0
1001
GENIUS_GENOBJ-N-TIT_13
1002
{
1000
OWNER
1000
GEN
1002
}
1001
GENIUS_GENOENT_13
1002
{
1000
MYREF
1005
888
1002
}
1002
{
1000
GRP
1005
0
1002
}
1001
GENIUS_GENOLIS_13
1002
{
1000
ENT
1005
883
1005
86E
1002
}
1001
GENIUS_GENTITLE_13
1002
{
1000
SCALE
1000
1:1
1002
}
1002
{
1000
BORDER
1000
カタログA4F
1002
}
1002
{
1000
TITLE
1000
カタログT
1002
}
1002
{
1000
UNCHG
1002
{
1000
GEN-TITLE-SCA
1000
GEN-TITLE-SIZ
1002
}
1002
}
1002
{
1000
HRA
1005
86E
1002
}
1002
{
1000
HTIT
1005
883
1002
}
1002
{
1000
GENIUSID
1005
888
1002
}
1001
GENIUS_GENODEF_13
1002
{
1000
HIER
1070
     1
1002
}
1002
{
1000
MANEDIT
1070
     0
1002
}
1002
{
1000
NOSEL
1070
     0
1002
}
1002
{
1000
BEHIND
1070
     0
1002
}
1002
{
1000
REACTOR
1002
}
  0
LINE
  5
999
  8
1
 62
     7
 10
-90.062436728209704
 20
-42.651450778018642
 30
0.0
 11
-86.627202626532224
 21
-48.601450778017579
 31
0.0
  0
LINE
  5
99A
  8
1
 62
     7
 10
-79.756734423173739
 20
-48.601450778017579
 30
0.0
 11
-76.32150032149238
 21
-42.651450778009448
 31
0.0
  0
LINE
  5
99B
  8
1
 62
     7
 10
-90.991968524852609
 20
-43.141454478988862
 30
0.0
 11
-87.233420409183026
 21
-49.651450778015793
 31
0.0
  0
LINE
  5
99C
  8
1
 62
     7
 10
-79.150516640525893
 20
-49.651450778020077
 30
0.0
 11
-75.391968524852231
 21
-43.141454478959758
 31
0.0
  0
LINE
  5
99D
  8
1
 62
     7
 10
-136.0945126085588
 20
-42.65145077801867
 30
0.0
 11
-136.09451260854991
 21
-48.429304145099422
 31
0.0
  0
LINE
  5
99E
  8
1
 62
     7
 10
-137.29451260855339
 20
-36.235512821375991
 30
0.0
 11
-137.2945126085616
 21
-52.651450778007757
 31
0.0
  0
LINE
  5
99F
  8
1
 62
     7
 10
-144.29451260855441
 20
-35.65145077801867
 30
0.0
 11
-144.29451260855251
 21
-49.651450778016851
 31
0.0
  0
LINE
  5
9A0
  8
1
 62
     2
 10
-138.69451260855121
 20
-35.65145077801867
 30
0.0
 11
-138.69451260855121
 21
-49.651450778009583
 31
0.0
  0
LINE
  5
9A1
  8
1
 62
     7
 10
-188.68909734787781
 20
-49.651450778010819
 30
0.0
 11
-184.93054923220831
 21
-43.141454478979767
 31
0.0
  0
LINE
  5
9A2
  8
1
 62
     7
 10
-200.53054923220881
 20
-43.141454478968839
 30
0.0
 11
-196.77200111653821
 21
-49.651450778017427
 31
0.0
  0
LINE
  5
9A3
  8
0
  6
AM_ISO02W050X2
 62
     2
 10
-192.72881914697351
 20
-37.311453557821771
 30
0.0
 11
-192.72881914697351
 21
-47.275511189370491
 31
0.0
  0
LINE
  5
9A5
  8
1
 62
     7
 10
-191.4805492322086
 20
-57.651450778018678
 30
0.0
 11
-191.4805492322086
 21
-52.651450778018678
 31
0.0
  0
LINE
  5
9A6
  8
1
 62
     7
 10
-193.98054923220849
 20
-57.651450778018678
 30
0.0
 11
-193.98054923220849
 21
-52.651450778018678
 31
0.0
  0
ARC
  5
9A7
  8
1
 62
     2
 10
-192.1055492322086
 20
-57.182700778018678
 30
0.0
 40
0.78125
 50
216.8698976458538
 51
323.13010235414612
  0
ARC
  5
9A8
  8
1
 62
     2
 10
-193.3555492322086
 20
-57.182700778018678
 30
0.0
 40
0.78125
 50
216.8698976458538
 51
323.13010235414612
  0
ARC
  5
9A9
  8
1
 62
     2
 10
-193.3555492322086
 20
-58.120200778018678
 30
0.0
 40
0.78125
 50
36.86989764585379
 51
143.1301023541462
  0
LINE
  5
9AA
  8
1
 62
     7
 10
-196.77200111653841
 20
-49.651450778017427
 30
0.0
 11
-188.68909734787781
 21
-49.651450778010819
 31
0.0
  0
LINE
  5
9AB
  8
1
 62
     7
 10
-190.7305492322086
 20
-52.651450778018678
 30
0.0
 11
-190.48054923220681
 21
-50.151450778009583
 31
0.0
  0
LINE
  5
9AC
  8
1
 62
     7
 10
-194.7305492322067
 20
-52.651450778018678
 30
0.0
 11
-194.98054923220681
 21
-50.151450778009583
 31
0.0
  0
LINE
  5
9AD
  8
1
 62
     7
 10
-194.7305492322059
 20
-52.651450778018678
 30
0.0
 11
-190.73054923220951
 21
-52.651450778020489
 31
0.0
  0
TEXT
  5
9AE
  8
AM_0
 10
-193.35516898714201
 20
-48.123578879004747
 30
0.0
 40
0.3
  1
EX-33
  0
LINE
  5
9AF
  8
1
 62
     7
 10
-194.98054923220681
 20
-50.151450778009583
 30
0.0
 11
-194.98054923220681
 21
-49.65145077801867
 31
0.0
  0
LINE
  5
9B0
  8
1
 62
     7
 10
-190.48054923220681
 20
-50.151450778009583
 30
0.0
 11
-190.48054923220681
 21
-49.651450778009583
 31
0.0
  0
LINE
  5
9B1
  8
1
 62
     7
 10
-137.94451260855121
 20
-52.651450778009583
 30
0.0
 11
-137.94451260855121
 21
-57.651450778009583
 31
0.0
  0
LINE
  5
9B2
  8
1
 62
     7
 10
-140.44451260855121
 20
-52.651450778009583
 30
0.0
 11
-140.44451260855121
 21
-57.651450778009583
 31
0.0
  0
ARC
  5
9B3
  8
1
 62
     2
 10
-139.81951260855121
 20
-57.182700778009583
 30
0.0
 40
0.78125
 50
216.8698976458538
 51
323.13010235414612
  0
ARC
  5
9B4
  8
1
 62
     2
 10
-138.56951260855121
 20
-57.182700778009583
 30
0.0
 40
0.78125
 50
216.8698976458538
 51
323.13010235414612
  0
ARC
  5
9B5
  8
1
 62
     2
 10
-138.56951260855121
 20
-58.120200778009583
 30
0.0
 40
0.78125
 50
36.86989764585379
 51
143.1301023541462
  0
LINE
  5
9B6
  8
1
 62
     7
 10
-141.0945126085555
 20
-52.651450778009583
 30
0.0
 11
-137.2945126085616
 21
-52.651450778007757
 31
0.0
  0
LINE
  5
9B7
  8
0
 10
-138.68740582736351
 20
-49.644343996830898
 30
0.0
 11
-137.29451260855981
 21
-49.067388734664981
 31
0.0
  0
LINE
  5
9B8
  8
1
 62
     7
 10
-141.0945126085555
 20
-52.651450778009583
 30
0.0
 11
-141.0945126085509
 21
-49.651450778009583
 31
0.0
  0
LINE
  5
9B9
  8
1
 62
     7
 10
-144.29451260855251
 20
-49.651450778016851
 30
0.0
 11
-138.6945126085412
 21
-49.651450778009583
 31
0.0
  0
LINE
  5
9BA
  8
1
 62
     7
 10
-137.29451260855339
 20
-48.601450778010303
 30
0.0
 11
-136.09451260854991
 21
-48.429304145099422
 31
0.0
  0
LINE
  5
9BB
  8
1
 62
     7
 10
-81.941968524855156
 20
-52.651450778018678
 30
0.0
 11
-81.941968524855156
 21
-57.651450778018678
 31
0.0
  0
LINE
  5
9BC
  8
1
 62
     7
 10
-84.441968524855156
 20
-52.651450778018678
 30
0.0
 11
-84.441968524855156
 21
-57.651450778018678
 31
0.0
  0
ARC
  5
9BD
  8
1
 62
     2
 10
-83.816968524855156
 20
-57.182700778018678
 30
0.0
 40
0.78125
 50
216.8698976458538
 51
323.13010235414612
  0
ARC
  5
9BE
  8
1
 62
     2
 10
-82.566968524855156
 20
-58.120200778018678
 30
0.0
 40
0.78125
 50
36.86989764585379
 51
143.1301023541462
  0
ARC
  5
9BF
  8
1
 62
     2
 10
-82.566968524855156
 20
-57.182700778018678
 30
0.0
 40
0.78125
 50
216.8698976458538
 51
323.13010235414612
  0
LINE
  5
9C0
  8
1
 62
     7
 10
-80.941968524852413
 20
-49.65145077801138
 30
0.0
 11
-79.150516640525922
 21
-49.651450778020077
 31
0.0
  0
LINE
  5
9C1
  8
1
 62
     7
 10
-86.627202626532224
 20
-48.601450778017579
 30
0.0
 11
-79.756734423173711
 21
-48.601450778017579
 31
0.0
  0
LINE
  5
9C2
  8
1
 62
     7
 10
-81.191968524855156
 20
-52.651450778018678
 30
0.0
 11
-80.941968524852413
 21
-50.151450778009583
 31
0.0
  0
LINE
  5
9C3
  8
1
 62
     7
 10
-85.191968524853323
 20
-52.651450778018678
 30
0.0
 11
-85.441968524852399
 21
-50.151450778009583
 31
0.0
  0
LINE
  5
9C4
  8
1
 62
     7
 10
-85.191968524853323
 20
-52.651450778018678
 30
0.0
 11
-81.191968524855156
 21
-52.651450778018678
 31
0.0
  0
LINE
  5
9C5
  8
1
 62
     7
 10
-87.233420409183026
 20
-49.651450778015793
 30
0.0
 11
-85.441968524852399
 21
-49.651450778009583
 31
0.0
  0
LINE
  5
9C6
  8
1
 62
     7
 10
-85.441968524852399
 20
-50.151450778009583
 30
0.0
 11
-85.441968524852399
 21
-48.601450778017579
 31
0.0
  0
LINE
  5
9C7
  8
1
 62
     7
 10
-80.941968524852413
 20
-50.151450778009583
 30
0.0
 11
-80.941968524852413
 21
-48.601450778017579
 31
0.0
  0
LINE
  5
9C8
  8
1
 62
     7
 10
-184.93054923220831
 20
-42.161447077068473
 30
0.0
 11
-188.68909734787991
 21
-35.651450778020163
 31
0.0
  0
LINE
  5
9C9
  8
0
  6
AM_ISO02W050X2
 62
     2
 10
-198.0700013097613
 20
-42.65145077801867
 30
0.0
 11
-187.55901214279589
 21
-42.65145077801867
 31
0.0
  0
LINE
  5
9CA
  8
1
 62
     7
 10
-196.77200111654261
 20
-35.65145077802994
 30
0.0
 11
-200.53054923220881
 21
-42.16144707705029
 31
0.0
  0
LINE
  5
9CE
  8
1
 62
     7
 10
-200.53054923220881
 20
-42.16144707705029
 30
0.0
 11
-200.53054923220881
 21
-43.141454478968839
 31
0.0
  0
LINE
  5
9D1
  8
1
 62
     7
 10
-188.68909734787991
 20
-35.65145077802017
 30
0.0
 11
-196.77200111654261
 21
-35.651450778029918
 31
0.0
  0
LINE
  5
9D2
  8
1
 62
     7
 10
-184.93054923220831
 20
-42.161447077068473
 30
0.0
 11
-184.93054923220831
 21
-43.141454478979767
 31
0.0
  0
INSERT
  5
9D7
  8
AM_5
  2
*U18
 10
0.0
 20
0.0
 30
0.0
  0
LINE
  5
9DD
  8
1
 62
     2
 10
-137.29451260855339
 20
-42.65145077801867
 30
0.0
 11
-138.69451260855121
 21
-42.65145077801867
 31
0.0
  0
LINE
  5
9DE
  8
1
 62
     2
 10
-138.6945126085522
 20
-43.196968106108429
 30
0.0
 11
-144.29451260855339
 21
-43.196968106108429
 31
0.0
  0
LINE
  5
9DF
  8
1
 62
     2
 10
-138.69451260855121
 20
-42.105933449919803
 30
0.0
 11
-144.2945126085535
 21
-42.105933449919803
 31
0.0
  0
TEXT
  5
9E0
  8
AM_0
 10
-141.96451493572761
 20
-44.527764855543182
 30
0.0
 40
0.3
  1
EX-33
  0
LINE
  5
9E1
  8
1
 62
     7
 10
-133.2945126085535
 20
-38.632305059239343
 30
0.0
 11
-133.2945126085535
 21
-45.125981596408778
 31
0.0
  0
LINE
  5
9E2
  8
1
 62
     7
 10
-136.0945126085582
 20
-45.501450778019027
 30
0.0
 11
-133.2945126085535
 21
-45.125981596408778
 31
0.0
  0
LINE
  5
9E3
  8
AM_BOR
 10
-137.2945126085566
 20
-42.651450777999131
 30
0.0
 11
-136.0945126085588
 21
-42.65145077801867
 31
0.0
  0
LINE
  5
9E4
  8
1
 62
     7
 10
-136.0945126085546
 20
-38.351450778017579
 30
0.0
 11
-133.2945126085535
 21
-38.632305059239343
 31
0.0
  0
LINE
  5
9E5
  8
1
 62
     7
 10
-137.29451260855339
 20
-38.351450778017579
 30
0.0
 11
-136.0945126085546
 21
-38.351450778017579
 31
0.0
  0
LINE
  5
9E6
  8
0
 10
-138.68740582736541
 20
-35.658557559208248
 30
0.0
 11
-137.29451260855441
 21
-36.23551282137781
 31
0.0
  0
LINE
  5
9E7
  8
1
 62
     7
 10
-144.29451260855441
 20
-35.65145077801867
 30
0.0
 11
-138.69451260855121
 21
-35.65145077801867
 31
0.0
  0
INSERT
  5
9EB
  8
AM_5
  2
*U19
 10
0.0
 20
0.0
 30
0.0
  0
LINE
  5
9EC
  8
1
 62
     7
 10
-133.2945126085535
 20
16.088313949051319
 30
0.0
 11
-133.2945126085535
 21
10.036876308730591
 31
0.0
  0
LINE
  5
9ED
  8
1
 62
     7
 10
-137.29451260855339
 20
12.46385999221161
 30
0.0
 11
-137.29451260855339
 21
20.198769810069962
 31
0.0
  0
LINE
  5
9EE
  8
1
 62
     7
 10
-139.69451260855479
 20
11.51177302939208
 30
0.0
 11
-139.69451260855479
 21
14.61177302939063
 31
0.0
  0
LINE
  5
9EF
  8
0
 62
     2
 10
-138.94046051047289
 20
14.61177302939063
 30
0.0
 11
-138.94046051047201
 21
11.51177302939389
 31
0.0
  0
LINE
  5
9F0
  8
1
 62
     7
 10
-144.2945126085535
 20
5.2617730293920868
 30
0.0
 11
-144.2945126085535
 21
20.861773029390619
 31
0.0
  0
LINE
  5
9F1
  8
0
 10
-138.69451260855479
 20
5.2617730293920868
 30
0.0
 11
-137.29451260855339
 21
5.9247762487109412
 31
0.0
  0
LINE
  5
9F2
  8
0
 62
     2
 10
-138.69451260855479
 20
9.0203211450614162
 30
0.0
 11
-137.29451260855339
 21
9.2512612527414166
 31
0.0
  0
LINE
  5
9F3
  8
1
 62
     7
 10
-137.29451260855339
 20
11.51177302939208
 30
0.0
 11
-139.69451260855479
 21
11.51177302939208
 31
0.0
  0
LINE
  5
9F4
  8
1
 62
     2
 10
-138.69451260855479
 20
11.51177302939208
 30
0.0
 11
-138.69451260855479
 21
5.2617730293920868
 31
0.0
  0
LINE
  5
9F5
  8
1
 62
     2
 10
-144.2945126085535
 20
9.0203211450614162
 30
0.0
 11
-138.6945126085557
 21
9.0203211450614162
 31
0.0
  0
LINE
  5
9F6
  8
1
 62
     7
 10
-138.69451260855479
 20
5.2617730293920868
 30
0.0
 11
-144.2945126085535
 21
5.2617730293920868
 31
0.0
  0
TEXT
  5
9F7
  8
AM_0
 10
-142.2214681678654
 20
12.848582433884751
 30
0.0
 40
0.3
  1
EX-33
  0
LINE
  5
9F8
  8
1
 62
     7
 10
-136.0945126085546
 20
9.4617730293909954
 30
0.0
 11
-136.09451260855641
 21
6.710920068310541
 31
0.0
  0
LINE
  5
9F9
  8
1
 62
     7
 10
-137.29451260855441
 20
5.9247762487109412
 30
0.0
 11
-137.29451260855339
 21
12.46385999221161
 31
0.0
  0
LINE
  5
9FA
  8
1
 62
     7
 10
-136.09451260855641
 20
6.710920068310541
 30
0.0
 11
-137.29451260855339
 21
6.299595202900262
 31
0.0
  0
LINE
  5
9FB
  8
1
 62
     7
 10
-136.29451260856439
 20
9.4617730293909954
 30
0.0
 11
-133.4680798645351
 21
9.8386307285898056
 31
0.0
  0
LINE
  5
9FC
  8
1
 62
     7
 10
-137.29451260855339
 20
9.4617730293909954
 30
0.0
 11
-136.29451260856439
 21
9.4617730293909954
 31
0.0
  0
ARC
  5
9FD
  8
1
 62
     7
 10
-133.49451260855241
 20
10.036876308730591
 30
0.0
 40
0.2000000000024199
 50
277.59464336848202
 51
0.0
  0
LINE
  5
9FE
  8
0
 10
-138.69451260855479
 20
20.861773029390619
 30
0.0
 11
-137.29451260855339
 21
20.198769810071781
 31
0.0
  0
LINE
  5
9FF
  8
0
 62
     2
 10
-138.6945126085557
 20
17.10322491371948
 30
0.0
 11
-137.29451260855339
 21
16.872284806041289
 31
0.0
  0
LINE
  5
A00
  8
1
 62
     7
 10
-139.69451260855479
 20
14.61177302939063
 30
0.0
 11
-137.29451260855339
 21
14.61177302939063
 31
0.0
  0
LINE
  5
A01
  8
1
 62
     2
 10
-138.69451260855479
 20
20.861773029390619
 30
0.0
 11
-138.69451260855479
 21
14.61177302939063
 31
0.0
  0
LINE
  5
A02
  8
1
 62
     2
 10
-138.6945126085557
 20
17.10322491371948
 30
0.0
 11
-144.2945126085535
 21
17.10322491371948
 31
0.0
  0
LINE
  5
A03
  8
1
 62
     7
 10
-144.2945126085535
 20
20.861773029390619
 30
0.0
 11
-138.69451260855479
 21
20.861773029390619
 31
0.0
  0
LINE
  5
A04
  8
1
 62
     7
 10
-136.0945126085546
 20
16.661773029391721
 30
0.0
 11
-136.09451260855641
 21
19.41262599047036
 31
0.0
  0
LINE
  5
A05
  8
1
 62
     7
 10
-136.0945126085546
 20
16.661773029391721
 30
0.0
 11
-133.46622833730561
 21
16.28630384779057
 31
0.0
  0
LINE
  5
A06
  8
1
 62
     7
 10
-137.29451260855339
 20
16.661773029391721
 30
0.0
 11
-136.0945126085546
 21
16.661773029391721
 31
0.0
  0
ARC
  5
A07
  8
1
 62
     7
 10
-133.49451260855241
 20
16.088313949051319
 30
0.0
 40
0.1999999999989086
 50
0.0
 51
81.869897646300942
  0
LINE
  5
A08
  8
1
 62
     7
 10
-136.09451260855641
 20
19.41262599047036
 30
0.0
 11
-137.29451260855339
 21
19.82395085588972
 31
0.0
  0
LINE
  5
A09
  8
1
 62
     7
 10
-86.627202626529439
 20
-36.701450778017929
 30
0.0
 11
-90.062436728209704
 21
-42.651450778018642
 31
0.0
  0
LINE
  5
A0A
  8
1
 62
     7
 10
-87.233420409181292
 20
-35.651450778018237
 30
0.0
 11
-90.991968524852609
 21
-42.161447077068473
 31
0.0
  0
LINE
  5
A0B
  8
0
 10
-86.712976903151016
 20
-42.65145077801867
 30
0.0
 11
-90.062436728209704
 21
-42.651450778018642
 31
0.0
  0
LINE
  5
A0C
  8
1
 62
     7
 10
-90.991968524852609
 20
-43.141454478988862
 30
0.0
 11
-90.991968524852609
 21
-42.161447077068473
 31
0.0
  0
LINE
  5
A0D
  8
1
 62
     7
 10
-81.691968524852399
 20
-36.40145077801867
 30
0.0
 11
-81.991968524852808
 21
-38.351450778017579
 31
0.0
  0
LINE
  5
A0E
  8
1
 62
     7
 10
-84.691968524852413
 20
-36.40145077801867
 30
0.0
 11
-84.391968524855145
 21
-38.351450778017579
 31
0.0
  0
LINE
  5
A0F
  8
1
 62
     7
 10
-79.756734423171622
 20
-36.701450778017929
 30
0.0
 11
-76.32150032149238
 21
-42.651450778009448
 31
0.0
  0
LINE
  5
A10
  8
1
 62
     7
 10
-75.391968524852231
 20
-42.161447077059393
 30
0.0
 11
-79.150516640520777
 21
-35.651450778030011
 31
0.0
  0
ARC
  5
A11
  8
1
 62
     7
 10
-83.191968524856065
 20
-41.90145077801867
 30
0.0
 40
3.6000000000030781
 50
99.560383694754634
 51
80.439616305192445
  0
ARC
  5
A12
  8
1
 62
     7
 10
-83.191968524856065
 20
-41.90145077801867
 30
0.0
 40
2.8000000000046841
 50
41.99999999954214
 51
318.00000000045782
  0
ARC
  5
A13
  8
1
 62
     7
 10
-83.191968524856065
 20
-41.90145077801867
 30
0.0
 40
2.3000000000027541
 50
318.0000000005702
 51
41.99999999942969
  0
LINE
  5
A14
  8
1
 62
     2
 10
-84.002878047098676
 20
-40.967413441110011
 30
0.0
 11
-82.036913140803577
 21
-42.343996888349679
 31
0.0
  0
LINE
  5
A15
  8
1
 62
     2
 10
-82.381059002612574
 20
-42.835488114929149
 30
0.0
 11
-84.347023908907659
 21
-41.458904667678553
 31
0.0
  0
ARC
  5
A16
  8
1
 62
     2
 10
-83.191968524856065
 20
-41.90145077801867
 30
0.0
 40
2.249999999991624
 50
67.999999999399904
 51
41.999999999690303
  0
LINE
  5
A17
  8
1
 62
     2
 10
-82.036913140803577
 20
-42.343996888349679
 30
0.0
 11
-82.381059002612574
 21
-42.835488114929149
 31
0.0
  0
TEXT
  5
A18
  8
AM_0
 10
-83.833842538964987
 20
-46.408010675802181
 30
0.0
 40
0.3
  1
EX-33
  0
LINE
  5
A19
  8
1
 62
     7
 10
-81.482735426239955
 20
-43.440451172629082
 30
0.0
 11
-81.111163013497631
 21
-43.775016475808329
 31
0.0
  0
LINE
  5
A1A
  8
1
 62
     2
 10
-84.347023908907659
 20
-41.458904667678553
 30
0.0
 11
-84.002878047098676
 21
-40.967413441110011
 31
0.0
  0
LINE
  5
A1B
  8
1
 62
     7
 10
-81.991968524852808
 20
-38.351450778017579
 30
0.0
 11
-84.391968524855145
 21
-38.351450778017579
 31
0.0
  0
LINE
  5
A1C
  8
1
 62
     2
 10
-81.111163013502164
 20
-40.027885080228991
 30
0.0
 11
-81.51989266752048
 21
-40.395906913719273
 31
0.0
  0
LINE
  5
A1D
  8
1
 62
     7
 10
-81.11116301349854
 20
-40.027885080228991
 30
0.0
 11
-81.482735426244517
 21
-40.362450383408252
 31
0.0
  0
ARC
  5
A1E
  8
1
 62
     2
 10
-83.191968524856065
 20
-41.90145077801867
 30
0.0
 40
2.8000000000026559
 50
41.99999999954214
 51
55.000000000048743
  0
LINE
  5
A1F
  8
1
 62
     2
 10
-82.143070063272035
 20
-39.305335985239481
 30
0.0
 11
-82.349103689651429
 21
-39.81528710526004
 31
0.0
  0
ARC
  5
A20
  8
1
 62
     2
 10
-83.191968524856065
 20
-41.90145077801867
 30
0.0
 40
2.7999999999979299
 50
55.000000000048743
 51
67.999999999584077
  0
CIRCLE
  5
A21
  8
1
 62
     2
 10
-82.503676801235315
 20
-40.918468324868847
 30
0.0
 40
0.4000000000035361
  0
LINE
  5
A22
  8
1
 62
     7
 10
-79.670960146560191
 20
-42.65145077801867
 30
0.0
 11
-76.32150032149238
 21
-42.651450778009448
 31
0.0
  0
LINE
  5
A23
  8
1
 62
     7
 10
-75.391968524852231
 20
-43.141454478959758
 30
0.0
 11
-75.391968524852231
 21
-42.161447077059393
 31
0.0
  0
LINE
  5
A24
  8
1
 62
     7
 10
-81.739336945906189
 20
-36.701450778017929
 30
0.0
 11
-79.756734423171622
 21
-36.701450778017929
 31
0.0
  0
LINE
  5
A25
  8
1
 62
     7
 10
-79.150516640520777
 20
-35.651450778030011
 30
0.0
 11
-87.233420409181292
 21
-35.651450778018258
 31
0.0
  0
LINE
  5
A26
  8
1
 62
     2
 10
-81.691968524852399
 20
-36.40145077801867
 30
0.0
 11
-84.691968524852413
 21
-36.40145077801867
 31
0.0
  0
LINE
  5
A27
  8
1
 62
     7
 10
-84.691968524852413
 20
-35.651450778022308
 30
0.0
 11
-84.691968524852413
 21
-36.40145077801867
 31
0.0
  0
LINE
  5
A28
  8
1
 62
     7
 10
-86.627202626529439
 20
-36.701450778017929
 30
0.0
 11
-84.644600103800485
 21
-36.701450778017929
 31
0.0
  0
LINE
  5
A29
  8
1
 62
     7
 10
-81.691968524851518
 20
-35.651450778024113
 30
0.0
 11
-81.691968524852399
 21
-36.40145077801867
 31
0.0
  0
LINE
  5
BD0
  8
AM_BOR
 62
     7
 10
-228.40639875150569
 20
85.468337068677215
 30
0.0
 11
-50.406398751505783
 21
85.468337068677215
 31
0.0
  0
LINE
  5
BD1
  8
AM_BOR
 62
     7
 10
-50.406398751505783
 20
-175.03166293132259
 30
0.0
 11
-228.40639875150569
 21
-175.03166293132259
 31
0.0
  0
LINE
  5
BD2
  8
AM_BOR
 62
     7
 10
-228.40639875150569
 20
-175.03166293132259
 30
0.0
 11
-228.40639875150569
 21
85.468337068677215
 31
0.0
  0
LINE
  5
BD4
  8
AM_BOR
 62
     7
 10
-50.406398751505783
 20
85.468337068677215
 30
0.0
 11
-50.406398751505783
 21
-175.03166293132259
 31
0.0
  0
LINE
  5
BD8
  8
AM_BOR
 10
-233.40639875150569
 20
-44.781662931322813
 30
0.0
 11
-228.40639875150569
 21
-44.781662931322813
 31
0.0
  0
ATTDEF
  5
C02
  8
AM_BOR
 62
     2
 10
-123.169228593353
 20
-171.93648446417191
 30
0.0
 40
3.5
  1
1.0
 72
     4
 11
-120.89422859335301
 21
-170.18648446417191
 31
0.0
  3
Scale
  2
1:1
 70
     0
  0
LINE
  5
C03
  8
AM_BOR
 10
-140.40639875150569
 20
-175.0316629313227
 30
0.0
 11
-50.406398751505783
 21
-175.03166293132259
 31
0.0
  0
LINE
  5
C04
  8
AM_BOR
 62
     7
 10
-140.40639875150569
 20
-145.0316629313227
 30
0.0
 11
-50.406398751505719
 21
-145.0316629313227
 31
0.0
  0
LINE
  5
C05
  8
AM_BOR
 62
     7
 10
-140.40639875150569
 20
-155.0316629313227
 30
0.0
 11
-50.406398751505719
 21
-155.0316629313227
 31
0.0
  0
LINE
  5
C06
  8
AM_BOR
 62
     7
 10
-140.40639875150569
 20
-165.03166293132259
 30
0.0
 11
-50.406398751505719
 21
-165.03166293132259
 31
0.0
  0
LINE
  5
C07
  8
AM_BOR
 62
     7
 10
-140.40639875150569
 20
-145.0316629313227
 30
0.0
 11
-140.40639875150569
 21
-175.0316629313227
 31
0.0
  0
TEXT
  5
C08
  8
AM_BOR
 62
     2
 10
-139.33267563016929
 20
-169.07404698344209
 30
0.0
 40
2.0
  1
Scale;
 41
0.9
 11
-139.33267563016929
 21
-168.07404698344209
 31
0.0
 73
     2
  0
TEXT
  5
C09
  8
AM_BOR
 62
     2
 10
-138.90114727844289
 20
-148.7922144523007
 30
0.0
 40
2.0
  1
Type;
 41
0.9
 11
-138.90114727844289
 21
-147.7922144523007
 31
0.0
 73
     2
  0
TEXT
  5
C0A
  8
AM_BOR
 62
     2
 10
-139.4765184140781
 20
-158.71736654200811
 30
0.0
 40
2.0
  1
Model name;
 41
0.9
 11
-139.4765184140781
 21
-157.71736654200811
 31
0.0
 73
     2
  0
LINE
  5
C0B
  8
AM_BOR
 62
     7
 10
-110.40639875150571
 20
-165.03166293132259
 30
0.0
 11
-110.40639875150571
 21
-175.0316629313227
 31
0.0
  0
TEXT
  5
C0C
  8
AM_BOR
 62
     2
 10
-97.042897160981056
 20
-172.5193743098917
 30
0.0
 40
4.0
  1
SUNX Ltd.
 41
0.9
 11
-97.042897160981056
 21
-170.5193743098917
 31
0.0
 73
     2
  0
LINE
  5
C0D
  8
AM_BOR
 10
-50.406398751505719
 20
-145.0316629313227
 30
0.0
 11
-50.406398751505783
 21
-175.03166293132259
 31
0.0
  0
TEXT
  5
C11
  8
AM_BOR
 10
-110.9338910138175
 20
-151.86395661900519
 30
0.0
 40
3.5
  1
Beam Sensor
  0
TEXT
  5
C1C
  8
AM_BOR
 10
-105.28986112046719
 20
-162.0916276015775
 30
0.0
 40
3.5
  1
EX-33
  0
CIRCLE
  5
CE9
  8
AM_0
 62
     7
 10
-192.72881914697351
 20
-42.65145077801867
 30
0.0
 40
1.049999999998362
  0
ARC
  5
CEA
  8
AM_0
 62
     7
 10
-192.72881914697351
 20
-42.65145077801867
 30
0.0
 40
1.9999999999989
 50
219.19496742598551
 51
320.80503257404558
  0
ARC
  5
CEB
  8
AM_0
 62
     7
 10
-192.72881914697351
 20
-42.65145077801867
 30
0.0
 40
2.0000000000021152
 50
39.194967425985567
 51
140.80503257389699
  0
LINE
  5
CEC
  8
AM_0
 62
     7
 10
-194.27881914697281
 20
-43.915373244000193
 30
0.0
 11
-194.27881914697281
 21
-41.387528312051693
 31
0.0
  0
LINE
  5
CED
  8
AM_0
 62
     7
 10
-191.1788191469725
 20
-41.387528312051693
 30
0.0
 11
-191.1788191469725
 21
-43.915373244000193
 31
0.0
  0
LINE
  5
D18
  8
AM_0
 62
     7
 10
-150.94451260855129
 20
-40.65145077801867
 30
0.0
 11
-144.29451260855151
 21
-40.65145077801867
 31
0.0
  0
LINE
  5
D19
  8
AM_0
 62
     7
 10
-144.2945126085506
 20
-44.651450778018663
 30
0.0
 11
-150.94451260855129
 21
-44.651450778018663
 31
0.0
  0
LINE
  5
D1A
  8
AM_0
 62
     2
 10
-151.29451260854881
 20
-41.387528312038953
 30
0.0
 11
-144.29451260855151
 21
-41.387528312038953
 31
0.0
  0
LINE
  5
D1B
  8
AM_0
 62
     2
 10
-144.2945126085506
 20
-43.915373244000193
 30
0.0
 11
-151.29451260854881
 21
-43.915373244000193
 31
0.0
  0
LINE
  5
D1C
  8
AM_0
 62
     7
 10
-151.29451260854881
 20
-44.3014507780183
 30
0.0
 11
-151.29451260854881
 21
-41.001450778019027
 31
0.0
  0
LINE
  5
D1D
  8
AM_0
 62
     7
 10
-151.29451260854881
 20
-44.3014507780183
 30
0.0
 11
-150.94451260855129
 21
-44.651450778018663
 31
0.0
  0
LINE
  5
D1E
  8
AM_0
 62
     2
 10
-150.94451260855129
 20
-44.651450778018663
 30
0.0
 11
-150.94451260855129
 21
-43.915373244000193
 31
0.0
  0
LINE
  5
D1F
  8
AM_0
 62
     7
 10
-151.29451260854881
 20
-41.001450778019027
 30
0.0
 11
-150.94451260855129
 21
-40.65145077801867
 31
0.0
  0
LINE
  5
D20
  8
AM_0
 62
     2
 10
-150.94451260855129
 20
-40.65145077801867
 30
0.0
 11
-150.94451260855129
 21
-41.387528312038953
 31
0.0
  0
TEXT
  5
D21
  8
0
 62
     2
 10
-167.95175247956871
 20
-49.947169649675743
 30
0.0
 40
3.0
  1
M4×0.7
  7
ACANSTS
  0
LINE
  5
D22
  8
AM_5
 10
-162.0904730489876
 20
-50.590172614494122
 30
0.0
 11
-150.5358786977568
 21
-50.590172614494122
 31
0.0
  0
LINE
  5
D23
  8
AM_5
 10
-168.6791451224644
 20
-50.590172614494122
 30
0.0
 11
-162.0904730489876
 21
-50.590172614494122
 31
0.0
  0
LINE
  5
D24
  8
AM_5
 10
-150.5358786977568
 20
-50.590172614494122
 30
0.0
 11
-148.94189519341879
 21
-47.344275372981741
 31
0.0
  0
TRACE
  5
D25
  8
AM_5
 10
-148.49309109605349
 20
-47.564672469578127
 30
0.0
 11
-149.39069929078411
 21
-47.123878276385348
 31
0.0
 12
-147.61951260855091
 22
-44.651450778018663
 32
0.0
 13
-147.61951260855091
 23
-44.651450778018663
 33
0.0
  0
LINE
  5
D30
  8
AM_0
 62
     7
 10
-144.2945126085535
 20
14.61177302939063
 30
0.0
 11
-151.2945126085535
 21
14.61177302939063
 31
0.0
  0
LINE
  5
D31
  8
AM_0
 62
     7
 10
-144.2945126085535
 20
11.51177302939208
 30
0.0
 11
-151.2945126085535
 21
11.51177302939208
 31
0.0
  0
LINE
  5
D32
  8
AM_0
 62
     7
 10
-151.2945126085535
 20
11.51177302939208
 30
0.0
 11
-151.2945126085535
 21
14.61177302939063
 31
0.0
  0
ENDSEC
  0
EOF
