  0
SECTION
  2
HEADER
  9
$ACADVER
  1
AC1009
  9
$INSBASE
 10
177.9999997912175
 20
6.7085914059697132
 30
0.0
  9
$EXTMIN
 10
-171.187326239443
 20
448.95961761889879
 30
-0.0000000000112498
  9
$EXTMAX
 10
-104.9153537132615
 20
528.65612773755993
 30
0.0000000000002956
  9
$LIMMIN
 10
-185.22394776397229
 20
352.48648918188883
  9
$LIMMAX
 10
-7.2239477639723191
 20
600.78648918188867
  9
$ORTHOMODE
 70
     0
  9
$REGENMODE
 70
     1
  9
$FILLMODE
 70
     1
  9
$QTEXTMODE
 70
     0
  9
$MIRRTEXT
 70
     1
  9
$DRAGMODE
 70
     2
  9
$LTSCALE
 40
1.0
  9
$OSMODE
 70
   679
  9
$ATTMODE
 70
     1
  9
$TEXTSIZE
 40
5.0
  9
$TRACEWID
 40
1.0
  9
$TEXTSTYLE
  7
STANDARD
  9
$CLAYER
  8
0
  9
$CELTYPE
  6
BYLAYER
  9
$CECOLOR
 62
   256
  9
$DIMSCALE
 40
1.0
  9
$DIMASZ
 40
2.5
  9
$DIMEXO
 40
1.0
  9
$DIMDLI
 40
10.0
  9
$DIMRND
 40
0.0
  9
$DIMDLE
 40
0.0
  9
$DIMEXE
 40
1.0
  9
$DIMTP
 40
0.1
  9
$DIMTM
 40
0.1
  9
$DIMTXT
 40
3.5
  9
$DIMCEN
 40
0.0
  9
$DIMTSZ
 40
0.0
  9
$DIMTOL
 70
     1
  9
$DIMLIM
 70
     0
  9
$DIMTIH
 70
     0
  9
$DIMTOH
 70
     0
  9
$DIMSE1
 70
     0
  9
$DIMSE2
 70
     0
  9
$DIMTAD
 70
     3
  9
$DIMZIN
 70
     8
  9
$DIMBLK
  1
OPEN30
  9
$DIMASO
 70
     1
  9
$DIMSHO
 70
     1
  9
$DIMPOST
  1

  9
$DIMAPOST
  1
"
  9
$DIMALT
 70
     0
  9
$DIMALTD
 70
     2
  9
$DIMALTF
 40
0.0393701
  9
$DIMLFAC
 40
1.0
  9
$DIMTOFL
 70
     1
  9
$DIMTVP
 40
0.0
  9
$DIMTIX
 70
     0
  9
$DIMSOXD
 70
     0
  9
$DIMSAH
 70
     0
  9
$DIMBLK1
  1

  9
$DIMBLK2
  1

  9
$DIMSTYLE
  2
AM_JIS
  9
$DIMCLRD
 70
   256
  9
$DIMCLRE
 70
   256
  9
$DIMCLRT
 70
     2
  9
$DIMTFAC
 40
0.71
  9
$DIMGAP
 40
1.5
  9
$LUNITS
 70
     2
  9
$LUPREC
 70
     2
  9
$SKETCHINC
 40
1.0
  9
$FILLETRAD
 40
0.0
  9
$AUNITS
 70
     0
  9
$AUPREC
 70
     0
  9
$MENU
  1
.
  9
$ELEVATION
 40
0.0
  9
$PELEVATION
 40
0.0
  9
$THICKNESS
 40
0.0
  9
$LIMCHECK
 70
     0
  9
$BLIPMODE
 70
     0
  9
$CHAMFERA
 40
0.0
  9
$CHAMFERB
 40
0.0
  9
$SKPOLY
 70
     0
  9
$TDCREATE
 40
2456989.6000408102
  9
$TDUPDATE
 40
2456989.8438822799
  9
$TDINDWG
 40
0.0424516898
  9
$TDUSRTIMER
 40
0.0424515046
  9
$USRTIMER
 70
     1
  9
$ANGBASE
 50
0.0
  9
$ANGDIR
 70
     0
  9
$PDMODE
 70
     0
  9
$PDSIZE
 40
0.0
  9
$PLINEWID
 40
0.0
  9
$COORDS
 70
     0
  9
$SPLFRAME
 70
     0
  9
$SPLINETYPE
 70
     6
  9
$SPLINESEGS
 70
     8
  9
$ATTDIA
 70
     1
  9
$ATTREQ
 70
     1
  9
$HANDLING
 70
     1
  9
$HANDSEED
  5
4EA1
  9
$SURFTAB1
 70
     6
  9
$SURFTAB2
 70
     6
  9
$SURFTYPE
 70
     6
  9
$SURFU
 70
     6
  9
$SURFV
 70
     6
  9
$UCSNAME
  2

  9
$UCSORG
 10
0.0
 20
0.0
 30
0.0
  9
$UCSXDIR
 10
1.0
 20
0.0
 30
0.0
  9
$UCSYDIR
 10
0.0
 20
1.0
 30
0.0
  9
$PUCSNAME
  2

  9
$PUCSORG
 10
0.0
 20
0.0
 30
0.0
  9
$PUCSXDIR
 10
1.0
 20
0.0
 30
0.0
  9
$PUCSYDIR
 10
0.0
 20
1.0
 30
0.0
  9
$USERI1
 70
     0
  9
$USERI2
 70
     0
  9
$USERI3
 70
     0
  9
$USERI4
 70
     0
  9
$USERI5
 70
     0
  9
$USERR1
 40
0.0
  9
$USERR2
 40
0.0
  9
$USERR3
 40
0.0
  9
$USERR4
 40
0.0
  9
$USERR5
 40
0.0
  9
$WORLDVIEW
 70
     1
  9
$SHADEDGE
 70
     3
  9
$SHADEDIF
 70
    70
  9
$TILEMODE
 70
     1
  9
$MAXACTVP
 70
    64
  9
$PLIMCHECK
 70
     0
  9
$PEXTMIN
 10
1.0000000000000000E+020
 20
1.0000000000000000E+020
 30
1.0000000000000000E+020
  9
$PEXTMAX
 10
-1.0000000000000000E+020
 20
-1.0000000000000000E+020
 30
-1.0000000000000000E+020
  9
$PLIMMIN
 10
-5.873748779296875
 20
-5.8737497329711914
  9
$PLIMMAX
 10
291.05224609375
 20
204.0995779037475
  9
$UNITMODE
 70
     0
  9
$VISRETAIN
 70
     1
  9
$PLINEGEN
 70
     0
  9
$PSLTSCALE
 70
     1
  0
ENDSEC
  0
SECTION
  2
TABLES
  0
TABLE
  2
VPORT
 70
     1
  0
VPORT
  2
*ACTIVE
 70
     0
 10
0.0
 20
0.0
 11
1.0
 21
1.0
 12
-138.05133997635221
 22
488.80787267822939
 13
0.0
 23
0.0
 14
2.5
 24
2.5
 15
10.0
 25
10.0
 16
0.0
 26
0.0
 36
1.0
 17
0.0
 27
0.0
 37
0.0
 40
80.335368898577485
 41
1.6081582200247211
 42
50.0
 43
0.0
 44
0.0
 50
0.0
 51
0.0
 71
     0
 72
   100
 73
     1
 74
     1
 75
     0
 76
     0
 77
     0
 78
     0
  0
ENDTAB
  0
TABLE
  2
LTYPE
 70
    18
  0
LTYPE
  2
CONTINUOUS
 70
     0
  3
Solid line
 72
    65
 73
     0
 40
0.0
  0
LTYPE
  2
AM_ISO02W050
 70
     0
  3
__ __ __ __ __ __ __ __ __ __ __ __ __ __ __
 72
    65
 73
     2
 40
7.5
 49
6.0
 49
-1.5
  0
LTYPE
  2
AM_ISO08W050
 70
     0
  3
____ . ____ . ____ . ____ . ____ . ____ . ____
 72
    65
 73
     4
 40
18.0
 49
12.0
 49
-1.5
 49
3.0
 49
-1.5
  0
LTYPE
  2
AM_ISO09W050
 70
     0
  3
_____ . . _____ . . _____ . . ____ .. ____
 72
    65
 73
     6
 40
22.5
 49
12.0
 49
-1.5
 49
3.0
 49
-1.5
 49
3.0
 49
-1.5
  0
LTYPE
  2
AMCONSTR
 70
     0
  3
_______________________
 72
    65
 73
     2
 40
9999.0
 49
9999.0
 49
0.0
  0
LTYPE
  2
AM_ISO02W050X2
 70
     0
  3
 _ _ _ _ _ _ _ _ _ _ _ _
 72
    65
 73
     2
 40
3.75
 49
3.0
 49
-0.75
  0
LTYPE
  2
AM_ISO08W050X2
 70
     0
  3
__ . __ . __ . __ . __ . __
 72
    65
 73
     4
 40
9.0
 49
6.0
 49
-0.75
 49
1.5
 49
-0.75
  0
LTYPE
  2
AMZIGZAG
 70
     0
  3
/\/-/\/-/\/-/\/-/\/-/\/
 72
    65
 73
     2
 40
11.0001
 49
0.0001
 49
-11.0
  0
LTYPE
  2
CENTER
 70
     0
  3
____ _ ____ _
 72
    65
 73
     4
 40
13.42150481887249
 49
8.3884405117953058
 49
-1.67768810235906
 49
1.67768810235906
 49
-1.67768810235906
  0
LTYPE
  2
HIDDEN
 70
     0
  3
_ _ _ _ _ _ _
 72
    65
 73
     2
 40
2.5165321535385901
 49
1.67768810235906
 49
-0.8388440511795305
  0
LTYPE
  2
PHANTOM2
 70
     0
  3
Phantom (.5x) ___ _ _ ___ _ _ ___ _ _ ___ _ _
 72
    65
 73
     6
 40
1.25
 49
0.625
 49
-0.125
 49
0.125
 49
-0.125
 49
0.125
 49
-0.125
  0
LTYPE
  2
ACJISTGB
 70
     0
  3
__ . . __ . .
 72
    65
 73
     6
 40
9.0
 49
4.0
 49
-1.0
 49
1.0
 49
-1.0
 49
1.0
 49
-1.0
  0
LTYPE
  2
ACJISTGL
 70
     0
  3
_ _ _ _ _
 72
    65
 73
     2
 40
3.0
 49
2.0
 49
-1.0
  0
LTYPE
  2
ACANSTGBM
 70
     0
  3
__ . . __ . .
 72
    65
 73
     6
 40
9.0
 49
4.0
 49
-1.0
 49
1.0
 49
-1.0
 49
1.0
 49
-1.0
  0
LTYPE
  2
ACANSTGLM
 70
     0
  3
_ _ _ _ _
 72
    65
 73
     2
 40
3.0
 49
2.0
 49
-1.0
  0
LTYPE
  2
ACISOWELD
 70
     0
  3
_ _ _ _ _
 72
    65
 73
     2
 40
2.0
 49
2.0
 49
-1.0
  0
LTYPE
  2
ACISOTGB
 70
     0
  3
__ . . __ . .
 72
    65
 73
     6
 40
9.0
 49
4.0
 49
-1.0
 49
1.0
 49
-1.0
 49
1.0
 49
-1.0
  0
LTYPE
  2
ACISOTGL
 70
     0
  3
_ _ _ _ _
 72
    65
 73
     2
 40
3.0
 49
2.0
 49
-1.0
  0
ENDTAB
  0
TABLE
  2
LAYER
 70
     3
  0
LAYER
  2
0
 70
     0
 62
     7
  6
CONTINUOUS
  0
LAYER
  2
DEFPOINTS
 70
     0
 62
     7
  6
CONTINUOUS
  0
ENDTAB
  0
TABLE
  2
STYLE
 70
     8
  0
STYLE
  2
STANDARD
 70
     0
 40
0.0
 41
1.0
 50
0.0
 71
     0
 42
5.0
  3
isocp.shx
  4
extfont.shx
  0
STYLE
  2

 70
     1
 40
0.0
 41
1.0
 50
0.0
 71
     0
 42
2.5
  3
ltypeshp.shx
  4

  0
STYLE
  2
ACJISTS
 70
     0
 40
1.0
 41
1.0
 50
0.0
 71
     0
 42
3.5
  3
isocp.shx
  4
bigfont.shx
  0
STYLE
  2
ACJISGDT
 70
     0
 40
0.0
 41
1.0
 50
0.0
 71
     0
 42
3.5
  3
amgdt.shx
  4

  0
STYLE
  2
ACANSTS
 70
     0
 40
1.0
 41
1.0
 50
0.0
 71
     0
 42
5.0
  3
romans.shx
  4
extfont.shx
  0
STYLE
  2
ACANSGDT
 70
     0
 40
0.0
 41
1.0
 50
0.0
 71
     0
 42
5.0
  3
amgdtans.shx
  4

  0
STYLE
  2
ACISOTS
 70
     0
 40
1.0
 41
1.0
 50
0.0
 71
     0
 42
3.5
  3
isocp.shx
  4
extfont.shx
  0
STYLE
  2
ACISOGDT
 70
     0
 40
0.0
 41
1.0
 50
0.0
 71
     0
 42
3.5
  3
amgdt.shx
  4

  0
ENDTAB
  0
TABLE
  2
VIEW
 70
     7
  0
VIEW
  2
AM_VIEW1
 70
     1
 40
148.46299743652341
 10
150.7615237454755
 20
216.82074642181399
 41
313.27054504954492
 11
0.0
 21
0.0
 31
1.0
 12
0.0
 22
0.0
 32
0.0
 42
50.0
 43
0.0
 44
0.0
 50
0.0
 71
     0
  0
VIEW
  2
AM_VIEW2
 70
     1
 40
148.46299743652341
 10
257.43763396936822
 20
216.82074642181399
 41
313.27054504954492
 11
0.0
 21
0.0
 31
1.0
 12
0.0
 22
0.0
 32
0.0
 42
50.0
 43
0.0
 44
0.0
 50
0.0
 71
     0
  0
VIEW
  2
AM_VIEW3
 70
     1
 40
148.46299743652341
 10
150.7615237454755
 20
68.357748985290513
 41
313.27054504954492
 11
0.0
 21
0.0
 31
1.0
 12
0.0
 22
0.0
 32
0.0
 42
50.0
 43
0.0
 44
0.0
 50
0.0
 71
     0
  0
VIEW
  2
AM_VIEW4
 70
     1
 40
148.46299743652341
 10
257.43763396936822
 20
68.357748985290513
 41
313.27054504954492
 11
0.0
 21
0.0
 31
1.0
 12
0.0
 22
0.0
 32
0.0
 42
50.0
 43
0.0
 44
0.0
 50
0.0
 71
     0
  0
VIEW
  2
AM_VIEW5
 70
     1
 40
148.46299743652341
 10
204.0995788574219
 20
142.58924770355219
 41
313.27054504954481
 11
0.0
 21
0.0
 31
1.0
 12
0.0
 22
0.0
 32
0.0
 42
50.0
 43
0.0
 44
0.0
 50
0.0
 71
     0
  0
VIEW
  2
AM_VIEW6
 70
     1
 40
296.92302561309822
 10
204.0995788574219
 20
142.58924770355219
 41
626.53482468818868
 11
0.0
 21
0.0
 31
1.0
 12
0.0
 22
0.0
 32
0.0
 42
50.0
 43
0.0
 44
0.0
 50
0.0
 71
     0
  0
ENDTAB
  0
TABLE
  2
UCS
 70
     0
  0
ENDTAB
  0
TABLE
  2
APPID
 70
    55
  0
APPID
  2
ACAD
 70
     0
  0
APPID
  2
MCAD_NO_VIS
 70
     0
  0
APPID
  2
ACAD_TEMP_GRAPHIC
 70
     0
  0
APPID
  2
GENIUS_GENODEF_13
 70
     0
  0
APPID
  2
GENIUS_GENOBJ-N-TIT_13
 70
     0
  0
APPID
  2
GENIUS_GENTITLE_13
 70
     0
  0
APPID
  2
GENIUS_GENOENT_13
 70
     0
  0
APPID
  2
GENIUS_GENOREF_13
 70
     0
  0
APPID
  2
GENIUS_GENOLIS_13
 70
     0
  0
APPID
  2
GENIUS_GENZVEED_13
 70
     0
  0
APPID
  2
GENIUS_GENSCREG_15
 70
     0
  0
APPID
  2
GENIUS_GENOBJ-N-SDF_13
 70
     0
  0
APPID
  2
GENIUS_GENOBJ-N-CEN_13
 70
     0
  0
APPID
  2
GENIUS_GENOBJ-N-SEC_13
 70
     0
  0
APPID
  2
GENIUS_GENREC_14
 70
     0
  0
APPID
  2
GENIUS_GENOBJ-N-REC_13
 70
     0
  0
APPID
  2
GENIUS_GENBH_13
 70
     0
  0
APPID
  2
GENIUS_GENOBJ-NBEHI-BHF_13
 70
     0
  0
APPID
  2
GENIUS_GENOBJ-NBEHI-BHB_13
 70
     0
  0
APPID
  2
GENIUS_GENDTOL_13
 70
     0
  0
APPID
  2
GENIUS_GENOBJ-N-HTC_13
 70
     0
  0
APPID
  2
GENIUS_GENHATCH_13
 70
     0
  0
APPID
  2
GENIUS_GENOBJ-N-CRS_13
 70
     0
  0
APPID
  2
GENIUS_GENOBJ-N-CRC_13
 70
     0
  0
APPID
  2
GENIUS_GENCRC_14
 70
     0
  0
APPID
  2
GENIUS_GENOBJ-F-SHCL_13
 70
     0
  0
APPID
  2
GENIUS_GEFMSH_13
 70
     0
  0
APPID
  2
GENIUS_GEFSH_13
 70
     0
  0
APPID
  2
GENIUS_GEFSHP_13
 70
     0
  0
APPID
  2
GENIUS_GENOBJ-F-SHS_13
 70
     0
  0
APPID
  2
GENIUS_GENOBJ-F-SHSS_13
 70
     0
  0
APPID
  2
GENIUS_GEFSHP0_13
 70
     0
  0
APPID
  2
GENIUS_GEFSH0_13
 70
     0
  0
APPID
  2
GEVID995428964
 70
     0
  0
APPID
  2
GEVDC
 70
     0
  0
APPID
  2
GENIUS_GENBH_14
 70
     0
  0
APPID
  2
GEVID995428965
 70
     0
  0
APPID
  2
GEVID995428966
 70
     0
  0
APPID
  2
GENIUS_GENBHRL_14
 70
     0
  0
APPID
  2
GEVID995428967
 70
     0
  0
APPID
  2
GEVID995428968
 70
     0
  0
APPID
  2
GENIUS_GENOBJ-F-SHCV_13
 70
     0
  0
APPID
  2
ACATTRIBSERVICES
 70
     0
  0
APPID
  2
GENIUS_GENTRA_14
 70
     0
  0
APPID
  2
DESIGNERASSEMBLIES
 70
     0
  0
APPID
  2
ACAD_PSEXT
 70
     0
  0
APPID
  2
ACAD_NAV_VCDISPLAY
 70
     0
  0
APPID
  2
GENIUS_GENCEN_19
 70
     0
  0
APPID
  2
ACAECLAYERSTANDARD
 70
     0
  0
APPID
  2
ACAD_DSTYLE_DIMBREAK
 70
     0
  0
APPID
  2
ACAD_DSTYLE_DIMJAG
 70
     0
  0
APPID
  2
ACAD_DSTYLE_DIMINSPECT
 70
     0
  0
APPID
  2
ACAD_DSTYLE_DIMRADIAL_EXTENSION
 70
     0
  0
APPID
  2
ACAD_EXEMPT_FROM_CAD_STANDARDS
 70
     0
  0
APPID
  2
ACAD_MLEADERVER
 70
     0
  0
ENDTAB
  0
TABLE
  2
DIMSTYLE
 70
     8
  0
DIMSTYLE
  2
AM_JIS
 70
     0
  3

  4
"
  5
OPEN30
  6

  7

 40
1.0
 41
2.5
 42
1.0
 43
10.0
 44
1.0
 45
0.0
 46
0.0
 47
0.1
 48
0.1
140
3.5
141
0.0
142
0.0
143
0.0393701
144
1.0
145
0.0
146
0.71
147
1.5
 71
     1
 72
     0
 73
     0
 74
     0
 75
     0
 76
     0
 77
     3
 78
     8
170
     0
171
     2
172
     1
173
     0
174
     0
175
     0
176
   256
177
   256
178
     2
  0
DIMSTYLE
  2
AM_JIS$3
 70
     0
  3

  4
"
  5
OPEN30
  6

  7

 40
1.0
 41
2.5
 42
1.0
 43
10.0
 44
1.0
 45
0.0
 46
0.0
 47
0.1
 48
0.1
140
3.5
141
0.0
142
0.0
143
0.0393701
144
1.0
145
0.0
146
0.71
147
1.5
 71
     1
 72
     0
 73
     1
 74
     1
 75
     0
 76
     0
 77
     3
 78
     8
170
     0
171
     2
172
     0
173
     0
174
     0
175
     0
176
   256
177
   256
178
     2
  0
DIMSTYLE
  2
AM_JIS$4
 70
     0
  3

  4
"
  5
OPEN30
  6

  7

 40
1.0
 41
2.5
 42
1.0
 43
10.0
 44
1.0
 45
0.0
 46
0.0
 47
0.1
 48
0.1
140
3.5
141
0.0
142
0.0
143
0.0393701
144
1.0
145
0.0
146
0.71
147
1.5
 71
     1
 72
     0
 73
     0
 74
     0
 75
     0
 76
     0
 77
     3
 78
     8
170
     0
171
     2
172
     0
173
     0
174
     0
175
     0
176
   256
177
   256
178
     2
  0
DIMSTYLE
  2
AM_JIS$6
 70
     0
  3

  4
"
  5
OPEN30
  6

  7

 40
1.0
 41
2.5
 42
1.0
 43
10.0
 44
1.0
 45
0.0
 46
0.0
 47
0.1
 48
0.1
140
3.5
141
0.0
142
0.0
143
0.0393701
144
1.0
145
0.0
146
0.71
147
1.5
 71
     1
 72
     0
 73
     0
 74
     0
 75
     0
 76
     0
 77
     3
 78
     8
170
     0
171
     2
172
     1
173
     0
174
     0
175
     0
176
   256
177
   256
178
     2
  0
DIMSTYLE
  2
AM_JIS$7
 70
     0
  3

  4
"
  5
OPEN30
  6

  7

 40
1.0
 41
2.5
 42
1.0
 43
10.0
 44
1.0
 45
0.0
 46
0.0
 47
0.1
 48
0.1
140
5.0
141
0.0
142
0.0
143
0.0393701
144
1.0
145
0.0
146
0.71
147
1.5
 71
     1
 72
     0
 73
     0
 74
     0
 75
     0
 76
     0
 77
     3
 78
     8
170
     0
171
     2
172
     1
173
     0
174
     0
175
     0
176
   256
177
   256
178
     2
  0
DIMSTYLE
  2
AM_JIS$SF
 70
     0
  3

  4
"
  5
OPEN30
  6
OPEN30
  7
OPEN30
 40
1.0
 41
2.5
 42
1.0
 43
10.0
 44
1.0
 45
0.0
 46
0.0
 47
0.1
 48
0.1
140
3.5
141
0.0
142
0.0
143
0.0393701
144
1.0
145
0.0
146
0.71
147
1.5
 71
     0
 72
     0
 73
     0
 74
     0
 75
     1
 76
     1
 77
     3
 78
     8
170
     0
171
     2
172
     1
173
     0
174
     0
175
     0
176
   256
177
   256
178
     2
  0
DIMSTYLE
  2
AM_JIS$SH
 70
     0
  3

  4
"
  5
OPEN30
  6
GENAXEH
  7
OPEN30
 40
1.0
 41
2.5
 42
1.0
 43
10.0
 44
1.0
 45
0.0
 46
0.0
 47
0.1
 48
0.1
140
3.5
141
0.0
142
0.0
143
0.0393701
144
2.0
145
0.0
146
0.71
147
1.5
 71
     0
 72
     0
 73
     0
 74
     0
 75
     1
 76
     1
 77
     3
 78
     8
170
     0
171
     2
172
     1
173
     1
174
     0
175
     0
176
   256
177
   256
178
     2
  0
DIMSTYLE
  2
STANDARD
 70
     0
  3

  4

  5

  6

  7

 40
1.0
 41
0.18
 42
0.0625
 43
0.38
 44
0.18
 45
0.0
 46
0.0
 47
0.0
 48
0.0
140
0.18
141
0.09
142
0.0
143
25.399999999999999
144
1.0
145
0.0
146
1.0
147
0.09
 71
     0
 72
     0
 73
     1
 74
     1
 75
     0
 76
     0
 77
     0
 78
     0
170
     0
171
     2
172
     0
173
     0
174
     0
175
     0
176
     0
177
     0
178
     0
  0
ENDTAB
  0
ENDSEC
  0
SECTION
  2
BLOCKS
  0
BLOCK
  8
0
  2
$MODEL_SPACE
 70
     2
 10
0.0
 20
0.0
 30
0.0
  3
$MODEL_SPACE
  1

  0
ENDBLK
  5
A
  8
0
  0
BLOCK
 67
     1
  8
0
  2
$PAPER_SPACE
 70
     0
 10
0.0
 20
0.0
 30
0.0
  3
$PAPER_SPACE
  1

  0
ENDBLK
  5
3C1E
 67
     1
  8
0
  0
BLOCK
  8
0
  2
GENAXEH
 70
     0
 10
0.0
 20
0.0
 30
0.0
  3
GENAXEH
  1

  0
LINE
  5
98
  8
0
 10
-1.0
 20
0.0
 30
0.0
 11
1.0
 21
0.0
 31
0.0
  0
ENDBLK
  5
9A
  8
0
  0
BLOCK
  8
0
 62
     0
  2
_OPEN30
 70
     0
 10
0.0
 20
0.0
 30
0.0
  3
_OPEN30
  1

  0
LINE
  5
21
  8
0
 62
     0
 10
-1.0
 20
0.26794919
 30
0.0
 11
0.0
 21
0.0
 31
0.0
  0
LINE
  5
22
  8
0
 62
     0
 10
0.0
 20
0.0
 30
0.0
 11
-1.0
 21
-0.26794919
 31
0.0
  0
LINE
  5
23
  8
0
 62
     0
 10
0.0
 20
0.0
 30
0.0
 11
-1.0
 21
0.0
 31
0.0
  0
ENDBLK
  5
25
  8
0
 62
     0
  0
BLOCK
  8
0
  2
*U4
 70
     1
 10
0.0
 20
0.0
 30
0.0
  3
*U4
  1

  0
TEXT
  5
4E9E
  8
0
 62
     2
 10
-120.56400766092941
 20
449.84949267077582
 30
0.0
 40
3.5
  1
pm-l45
  0
ENDBLK
  5
4EA0
  8
0
  0
ENDSEC
  0
SECTION
  2
ENTITIES
  0
INSERT
  5
3F57
  8
0
  2
*U4
 10
0.0
 20
0.0
 30
0.0
  0
CIRCLE
  5
4AD9
  8
0
  6
CONTINUOUS
 62
     7
 10
-158.18345608213829
 20
473.39816821215408
 30
0.0
 40
1.25
  0
LINE
  5
4ADA
  8
0
  6
CONTINUOUS
 62
     7
 10
-161.18345608213829
 20
485.9981682121541
 30
0.0
 11
-161.18345608213829
 21
477.59816821215418
 31
0.0
  0
LINE
  5
4ADB
  8
0
  6
CONTINUOUS
 62
     7
 10
-161.18345608213829
 20
477.59816821215418
 30
0.0
 11
-155.18345608213829
 21
477.59816821215418
 31
0.0
  0
LINE
  5
4ADC
  8
0
  6
CONTINUOUS
 62
     7
 10
-155.18345608213829
 20
477.59816821215418
 30
0.0
 11
-155.18345608213829
 21
485.9981682121541
 31
0.0
  0
LINE
  5
4ADD
  8
0
  6
CONTINUOUS
 62
     7
 10
-155.18345608213829
 20
485.9981682121541
 30
0.0
 11
-151.48345608213819
 21
485.9981682121541
 31
0.0
  0
LINE
  5
4ADE
  8
0
  6
CONTINUOUS
 62
     7
 10
-151.48345608213819
 20
485.9981682121541
 30
0.0
 11
-151.48345608213819
 21
475.6981682121542
 31
0.0
  0
LINE
  5
4ADF
  8
0
  6
CONTINUOUS
 62
     7
 10
-151.48345608213819
 20
478.59816821215412
 30
0.0
 11
-145.18345608213829
 21
478.59816821215412
 31
0.0
  0
LINE
  5
4AE0
  8
0
  6
CONTINUOUS
 62
     7
 10
-145.18345608213829
 20
478.59816821215412
 30
0.0
 11
-145.18345608213829
 21
471.39816821215408
 31
0.0
  0
LINE
  5
4AE1
  8
0
  6
CONTINUOUS
 62
     7
 10
-161.18345608213829
 20
485.9981682121541
 30
0.0
 11
-164.88345608213831
 21
485.9981682121541
 31
0.0
  0
LINE
  5
4AE2
  8
0
  6
CONTINUOUS
 62
     7
 10
-164.88345608213831
 20
485.9981682121541
 30
0.0
 11
-164.88345608213831
 21
475.6981682121542
 31
0.0
  0
LINE
  5
4AE3
  8
0
  6
CONTINUOUS
 62
     7
 10
-164.88345608213831
 20
478.59816821215412
 30
0.0
 11
-171.18345608213829
 21
478.59816821215412
 31
0.0
  0
LINE
  5
4AE4
  8
0
  6
CONTINUOUS
 62
     7
 10
-171.18345608213829
 20
478.59816821215412
 30
0.0
 11
-171.18345608213829
 21
471.39816821215408
 31
0.0
  0
LINE
  5
4AE5
  8
0
  6
CONTINUOUS
 62
     7
 10
-164.88345608213831
 20
478.59816821215412
 30
0.0
 11
-164.88345608213831
 21
471.39816821215408
 31
0.0
  0
LINE
  5
4AE6
  8
0
  6
CONTINUOUS
 62
     7
 10
-151.48345608213819
 20
471.39816821215408
 30
0.0
 11
-151.48345608213819
 21
478.59816821215412
 31
0.0
  0
CIRCLE
  5
4AE7
  8
0
  6
CONTINUOUS
 62
     7
 10
-167.68345608213829
 20
474.9981682121541
 30
0.0
 40
1.6000000000000001
  0
CIRCLE
  5
4AE8
  8
0
  6
CONTINUOUS
 62
     7
 10
-148.68345608213829
 20
474.9981682121541
 30
0.0
 40
1.6000000000000001
  0
LINE
  5
4AE9
  8
0
  6
CONTINUOUS
 62
     7
 10
-171.18345608213829
 20
527.74035000931917
 30
0.0
 11
-171.18345608213829
 21
520.74035000931906
 31
0.0
  0
LINE
  5
4AEA
  8
0
  6
CONTINUOUS
 62
     7
 10
-171.18345608213829
 20
520.74035000931906
 30
0.0
 11
-164.88345608213831
 21
520.74035000931906
 31
0.0
  0
LINE
  5
4AEB
  8
0
  6
CONTINUOUS
 62
     7
 10
-164.88345608213831
 20
520.74035000931906
 30
0.0
 11
-164.88345608213831
 21
527.74035000931917
 31
0.0
  0
LINE
  5
4AEC
  8
0
  6
CONTINUOUS
 62
     7
 10
-164.88345608213831
 20
527.74035000931917
 30
0.0
 11
-171.18345608213829
 21
527.74035000931917
 31
0.0
  0
LINE
  5
4AED
  8
0
  6
CONTINUOUS
 62
     7
 10
-151.48345608213819
 20
527.74035000931917
 30
0.0
 11
-145.18345608213829
 21
527.74035000931917
 31
0.0
  0
LINE
  5
4AEE
  8
0
  6
CONTINUOUS
 62
     7
 10
-145.18345608213829
 20
527.74035000931917
 30
0.0
 11
-145.18345608213829
 21
520.74035000931906
 31
0.0
  0
LINE
  5
4AEF
  8
0
  6
CONTINUOUS
 62
     7
 10
-145.18345608213829
 20
520.74035000931906
 30
0.0
 11
-151.48345608213819
 21
520.74035000931906
 31
0.0
  0
LINE
  5
4AF0
  8
0
  6
CONTINUOUS
 62
     7
 10
-151.48345608213819
 20
520.74035000931906
 30
0.0
 11
-151.48345608213819
 21
527.74035000931917
 31
0.0
  0
LINE
  5
4AF1
  8
0
  6
CONTINUOUS
 62
     7
 10
-151.48345608213819
 20
527.24035000931906
 30
0.0
 11
-164.88345608213831
 21
527.24035000931906
 31
0.0
  0
LINE
  5
4AF2
  8
0
  6
CONTINUOUS
 62
     7
 10
-164.88345608213831
 20
521.24035000931906
 30
0.0
 11
-151.48345608213819
 21
521.24035000931906
 31
0.0
  0
LINE
  5
4AF3
  8
0
  6
CONTINUOUS
 62
     7
 10
-161.18345608213829
 20
527.24035000931906
 30
0.0
 11
-161.18345608213829
 21
521.24035000931906
 31
0.0
  0
LINE
  5
4AF4
  8
0
  6
CONTINUOUS
 62
     7
 10
-155.18345608213829
 20
527.24035000931906
 30
0.0
 11
-155.18345608213829
 21
521.24035000931906
 31
0.0
  0
LINE
  5
4AF5
  8
0
  6
CONTINUOUS
 62
     7
 10
-169.3334560821383
 20
525.84035000931908
 30
0.0
 11
-166.03345608213829
 21
525.84035000931908
 31
0.0
  0
LINE
  5
4AF6
  8
0
  6
CONTINUOUS
 62
     7
 10
-166.03345608213829
 20
522.64035000931904
 30
0.0
 11
-169.3334560821383
 21
522.64035000931904
 31
0.0
  0
LINE
  5
4AF7
  8
0
  6
CONTINUOUS
 62
     7
 10
-113.3248707874347
 20
478.59816821215412
 30
0.0
 11
-106.3248707874347
 21
478.59816821215412
 31
0.0
  0
LINE
  5
4AF8
  8
0
  6
CONTINUOUS
 62
     7
 10
-106.3248707874347
 20
478.59816821215412
 30
0.0
 11
-106.3248707874347
 21
471.39816821215408
 31
0.0
  0
LINE
  5
4AF9
  8
0
  6
CONTINUOUS
 62
     7
 10
-106.3248707874347
 20
471.39816821215408
 30
0.0
 11
-113.3248707874347
 21
471.39816821215408
 31
0.0
  0
LINE
  5
4AFA
  8
0
  6
CONTINUOUS
 62
     7
 10
-113.3248707874347
 20
471.39816821215408
 30
0.0
 11
-113.3248707874347
 21
478.59816821215412
 31
0.0
  0
LINE
  5
4AFB
  8
0
  6
CONTINUOUS
 62
     7
 10
-112.8248707874347
 20
478.59816821215412
 30
0.0
 11
-112.8248707874347
 21
485.9981682121541
 31
0.0
  0
LINE
  5
4AFC
  8
0
  6
CONTINUOUS
 62
     7
 10
-112.8248707874347
 20
485.9981682121541
 30
0.0
 11
-106.8248707874347
 21
485.9981682121541
 31
0.0
  0
LINE
  5
4AFD
  8
0
  6
CONTINUOUS
 62
     7
 10
-106.8248707874347
 20
485.9981682121541
 30
0.0
 11
-106.8248707874347
 21
478.59816821215412
 31
0.0
  0
LINE
  5
4AFF
  8
0
  6
CENTER
 62
     4
 10
-109.8248707874347
 20
487.39516821215409
 30
0.0
 11
-109.8248707874347
 21
470.44456547382748
 31
0.0
1001
GENIUS_GENOBJ-N-CEN_13
1002
{
1000
OWNER
1000
GEN
1002
}
1001
GENIUS_GENODEF_13
1002
{
1000
HIER
1070
     0
1002
}
1002
{
1000
MANEDIT
1070
     0
1002
}
1002
{
1000
NOSEL
1070
     0
1002
}
1002
{
1000
BEHIND
1070
     0
1002
}
1002
{
1000
OTHER
1070
     0
1002
}
1002
{
1000
REACTOR
1002
}
1001
GENIUS_GENCEN_19
1002
{
1040
1.397
1002
}
  0
LINE
  5
4B01
  8
0
  6
CENTER
 62
     4
 10
-167.68345608213829
 20
477.99516821215411
 30
0.0
 11
-167.68345608213829
 21
472.00116821215408
 31
0.0
1001
GENIUS_GENODEF_13
1002
{
1000
HIER
1070
     0
1002
}
1002
{
1000
MANEDIT
1070
     0
1002
}
1002
{
1000
NOSEL
1070
     0
1002
}
1002
{
1000
BEHIND
1070
     0
1002
}
1002
{
1000
OTHER
1070
     0
1002
}
1002
{
1000
REACTOR
1002
}
1001
GENIUS_GENOBJ-N-CEN_13
1002
{
1000
OWNER
1000
GEN
1002
}
1001
GENIUS_GENCEN_19
1002
{
1040
1.397
1002
}
  0
LINE
  5
4B02
  8
0
  6
CENTER
 62
     4
 10
-170.68045608213831
 20
474.9981682121541
 30
0.0
 11
-164.68645608213831
 21
474.9981682121541
 31
0.0
1001
GENIUS_GENOBJ-N-CEN_13
1002
{
1000
OWNER
1000
GEN
1002
}
1001
GENIUS_GENODEF_13
1002
{
1000
HIER
1070
     0
1002
}
1002
{
1000
MANEDIT
1070
     0
1002
}
1002
{
1000
NOSEL
1070
     0
1002
}
1002
{
1000
BEHIND
1070
     0
1002
}
1002
{
1000
OTHER
1070
     0
1002
}
1002
{
1000
REACTOR
1002
}
1001
GENIUS_GENCEN_19
1002
{
1040
1.397
1002
}
  0
LINE
  5
4B03
  8
0
  6
CENTER
 62
     4
 10
-151.68045608213819
 20
474.9981682121541
 30
0.0
 11
-145.68645608213831
 21
474.9981682121541
 31
0.0
1001
GENIUS_GENODEF_13
1002
{
1000
HIER
1070
     0
1002
}
1002
{
1000
MANEDIT
1070
     0
1002
}
1002
{
1000
NOSEL
1070
     0
1002
}
1002
{
1000
BEHIND
1070
     0
1002
}
1002
{
1000
OTHER
1070
     0
1002
}
1002
{
1000
REACTOR
1002
}
1001
GENIUS_GENOBJ-N-CEN_13
1002
{
1000
OWNER
1000
GEN
1002
}
1001
GENIUS_GENCEN_19
1002
{
1040
1.397
1002
}
  0
LINE
  5
4B04
  8
0
  6
CENTER
 62
     4
 10
-148.68345608213829
 20
477.99516821215411
 30
0.0
 11
-148.68345608213829
 21
472.00116821215408
 31
0.0
1001
GENIUS_GENODEF_13
1002
{
1000
HIER
1070
     0
1002
}
1002
{
1000
MANEDIT
1070
     0
1002
}
1002
{
1000
NOSEL
1070
     0
1002
}
1002
{
1000
BEHIND
1070
     0
1002
}
1002
{
1000
OTHER
1070
     0
1002
}
1002
{
1000
REACTOR
1002
}
1001
GENIUS_GENOBJ-N-CEN_13
1002
{
1000
OWNER
1000
GEN
1002
}
1001
GENIUS_GENCEN_19
1002
{
1040
1.397
1002
}
  0
LINE
  5
4B05
  8
0
  6
CENTER
 62
     4
 10
-158.18345608213829
 20
528.63735000931911
 30
0.0
 11
-158.18345608213829
 21
506.74891409749409
 31
0.0
1001
GENIUS_GENODEF_13
1002
{
1000
HIER
1070
     0
1002
}
1002
{
1000
MANEDIT
1070
     0
1002
}
1002
{
1000
NOSEL
1070
     0
1002
}
1002
{
1000
BEHIND
1070
     0
1002
}
1002
{
1000
OTHER
1070
     0
1002
}
1002
{
1000
REACTOR
1002
}
1001
GENIUS_GENOBJ-N-CEN_13
1002
{
1000
OWNER
1000
GEN
1002
}
1001
GENIUS_GENCEN_19
1002
{
1040
1.397
1002
}
  0
LINE
  5
4B06
  8
0
  6
CENTER
 62
     4
 10
-167.68345608213829
 20
527.2373500093189
 30
0.0
 11
-167.68345608213829
 21
521.24335000931899
 31
0.0
1001
GENIUS_GENODEF_13
1002
{
1000
HIER
1070
     0
1002
}
1002
{
1000
MANEDIT
1070
     0
1002
}
1002
{
1000
NOSEL
1070
     0
1002
}
1002
{
1000
BEHIND
1070
     0
1002
}
1002
{
1000
OTHER
1070
     0
1002
}
1002
{
1000
REACTOR
1002
}
1001
GENIUS_GENOBJ-N-CEN_13
1002
{
1000
OWNER
1000
GEN
1002
}
1001
GENIUS_GENCEN_19
1002
{
1040
1.397
1002
}
  0
LINE
  5
4B07
  8
0
  6
CENTER
 62
     4
 10
-148.68345608213829
 20
527.2373500093189
 30
0.0
 11
-148.68345608213829
 21
521.24335000931899
 31
0.0
1001
GENIUS_GENOBJ-N-CEN_13
1002
{
1000
OWNER
1000
GEN
1002
}
1001
GENIUS_GENODEF_13
1002
{
1000
HIER
1070
     0
1002
}
1002
{
1000
MANEDIT
1070
     0
1002
}
1002
{
1000
NOSEL
1070
     0
1002
}
1002
{
1000
BEHIND
1070
     0
1002
}
1002
{
1000
OTHER
1070
     0
1002
}
1002
{
1000
REACTOR
1002
}
1001
GENIUS_GENCEN_19
1002
{
1040
1.397
1002
}
  0
LINE
  5
4B08
  8
0
  6
CENTER
 62
     4
 10
-114.7218707874347
 20
474.9981682121541
 30
0.0
 11
-104.9278707874346
 21
474.9981682121541
 31
0.0
1001
GENIUS_GENODEF_13
1002
{
1000
HIER
1070
     0
1002
}
1002
{
1000
MANEDIT
1070
     0
1002
}
1002
{
1000
NOSEL
1070
     0
1002
}
1002
{
1000
BEHIND
1070
     0
1002
}
1002
{
1000
OTHER
1070
     0
1002
}
1002
{
1000
REACTOR
1002
}
1001
GENIUS_GENOBJ-N-CEN_13
1002
{
1000
OWNER
1000
GEN
1002
}
1001
GENIUS_GENCEN_19
1002
{
1040
1.397
1002
}
  0
LINE
  5
4B09
  8
0
  6
CENTER
 62
     4
 10
-158.18345608213829
 20
487.15555092519872
 30
0.0
 11
-158.18345608213829
 21
470.44456547382748
 31
0.0
1001
GENIUS_GENODEF_13
1002
{
1000
HIER
1070
     0
1002
}
1002
{
1000
MANEDIT
1070
     0
1002
}
1002
{
1000
NOSEL
1070
     0
1002
}
1002
{
1000
BEHIND
1070
     0
1002
}
1002
{
1000
OTHER
1070
     0
1002
}
1002
{
1000
REACTOR
1002
}
1001
GENIUS_GENOBJ-N-CEN_13
1002
{
1000
OWNER
1000
GEN
1002
}
1001
GENIUS_GENCEN_19
1002
{
1040
1.397
1002
}
  0
LINE
  5
4B13
  8
0
  6
CENTER
 62
     4
 10
-171.0804560821382
 20
524.24035000931917
 30
0.0
 11
-145.2864560821383
 21
524.24035000931917
 31
0.0
1001
GENIUS_GENODEF_13
1002
{
1000
HIER
1070
     0
1002
}
1002
{
1000
MANEDIT
1070
     0
1002
}
1002
{
1000
NOSEL
1070
     0
1002
}
1002
{
1000
BEHIND
1070
     0
1002
}
1002
{
1000
OTHER
1070
     0
1002
}
1002
{
1000
REACTOR
1002
}
1001
GENIUS_GENOBJ-N-CEN_13
1002
{
1000
OWNER
1000
GEN
1002
}
1001
GENIUS_GENCEN_19
1002
{
1040
1.397
1002
}
  0
LINE
  5
4B14
  8
0
  6
CONTINUOUS
 62
     7
 10
-171.18345608213829
 20
471.39816821215408
 30
0.0
 11
-145.18345608213829
 21
471.39816821215408
 31
0.0
  0
LINE
  5
4B15
  8
0
  6
CONTINUOUS
 62
     7
 10
-164.88345608213831
 20
475.89816821215408
 30
0.0
 11
-151.48345608213819
 21
475.89816821215408
 31
0.0
  0
LINE
  5
4B16
  8
0
  6
CENTER
 62
     4
 10
-160.8304560821382
 20
473.39816821215408
 30
0.0
 11
-155.5364560821383
 21
473.39816821215408
 31
0.0
1001
GENIUS_GENOBJ-N-CEN_13
1002
{
1000
OWNER
1000
GEN
1002
}
1001
GENIUS_GENODEF_13
1002
{
1000
HIER
1070
     0
1002
}
1002
{
1000
MANEDIT
1070
     0
1002
}
1002
{
1000
NOSEL
1070
     0
1002
}
1002
{
1000
BEHIND
1070
     0
1002
}
1002
{
1000
OTHER
1070
     0
1002
}
1002
{
1000
REACTOR
1002
}
1001
GENIUS_GENCEN_19
1002
{
1040
1.397
1002
}
  0
LINE
  5
4B18
  8
0
  6
CONTINUOUS
 62
     7
 10
-164.88345608213831
 20
520.74035000931906
 30
0.0
 11
-160.68345608213829
 21
519.24035000931906
 31
0.0
  0
LINE
  5
4B19
  8
0
  6
CONTINUOUS
 62
     7
 10
-155.68345608213829
 20
519.24035000931906
 30
0.0
 11
-151.48345608213819
 21
520.74035000931906
 31
0.0
  0
LINE
  5
4B1A
  8
0
  6
CONTINUOUS
 62
     7
 10
-160.68345608213829
 20
519.24035000931906
 30
0.0
 11
-160.68345608213829
 21
517.74035000931906
 31
0.0
  0
LINE
  5
4B1B
  8
0
  6
CONTINUOUS
 62
     7
 10
-160.68345608213829
 20
517.74035000931906
 30
0.0
 11
-155.68345608213829
 21
517.74035000931906
 31
0.0
  0
LINE
  5
4B1C
  8
0
  6
CONTINUOUS
 62
     7
 10
-155.68345608213829
 20
517.74035000931906
 30
0.0
 11
-155.68345608213829
 21
519.24035000931906
 31
0.0
  0
LINE
  5
4B1E
  8
0
  6
CONTINUOUS
 62
     7
 10
-159.43345608213829
 20
517.74035000931906
 30
0.0
 11
-159.43345608213829
 21
508.64035000931892
 31
0.0
  0
LINE
  5
4B1F
  8
0
  6
CONTINUOUS
 62
     7
 10
-156.93345608213829
 20
508.64035000931892
 30
0.0
 11
-156.93345608213829
 21
517.74035000931906
 31
0.0
  0
LINE
  5
4B21
  8
0
  6
CONTINUOUS
 62
     7
 10
-113.3248707874347
 20
475.89816821215408
 30
0.0
 11
-116.3248707874347
 21
475.89816821215408
 31
0.0
  0
LINE
  5
4B22
  8
0
  6
CONTINUOUS
 62
     7
 10
-116.3248707874347
 20
475.89816821215408
 30
0.0
 11
-116.3248707874347
 21
471.39816821215408
 31
0.0
  0
LINE
  5
4B23
  8
0
  6
CONTINUOUS
 62
     7
 10
-116.3248707874347
 20
471.39816821215408
 30
0.0
 11
-113.3248707874347
 21
471.39816821215408
 31
0.0
  0
LINE
  5
4B24
  8
0
  6
CONTINUOUS
 62
     7
 10
-114.8248707874347
 20
475.89816821215408
 30
0.0
 11
-114.8248707874347
 21
471.39816821215408
 31
0.0
  0
LINE
  5
4B25
  8
0
  6
CONTINUOUS
 62
     7
 10
-116.3248707874347
 20
474.64816821215408
 30
0.0
 11
-125.4248707874347
 21
474.64816821215408
 31
0.0
  0
LINE
  5
4B26
  8
0
  6
CONTINUOUS
 62
     7
 10
-125.4248707874347
 20
472.14816821215408
 30
0.0
 11
-116.3248707874347
 21
472.14816821215408
 31
0.0
  0
ARC
  5
4B2B
  8
0
  6
CONTINUOUS
 62
     7
 10
-168.0834560821383
 20
524.24035000931917
 30
0.0
 40
1.6000000000000001
 50
141.37516712694699
 51
218.62483287305301
  0
ARC
  5
4B2C
  8
0
  6
CONTINUOUS
 62
     7
 10
-167.28345608213829
 20
524.24035000931917
 30
0.0
 40
1.6000000000000001
 50
321.37516712694702
 51
38.624832873052988
  0
LINE
  5
4B2D
  8
0
  6
CONTINUOUS
 62
     7
 10
-169.3334560821383
 20
525.84035000931908
 30
0.0
 11
-169.3334560821383
 21
525.23909922709095
 31
0.0
  0
LINE
  5
4B2E
  8
0
  6
CONTINUOUS
 62
     7
 10
-169.3334560821383
 20
523.24160079154706
 30
0.0
 11
-169.3334560821383
 21
522.64035000931904
 31
0.0
  0
LINE
  5
4B2F
  8
0
  6
CONTINUOUS
 62
     7
 10
-166.03345608213829
 20
525.84035000931908
 30
0.0
 11
-166.03345608213829
 21
525.23909922709095
 31
0.0
  0
LINE
  5
4B30
  8
0
  6
CONTINUOUS
 62
     7
 10
-166.03345608213829
 20
522.64035000931904
 30
0.0
 11
-166.03345608213829
 21
523.24160079154706
 31
0.0
  0
LINE
  5
4B31
  8
0
  6
CONTINUOUS
 62
     7
 10
-150.3334560821383
 20
525.84035000931908
 30
0.0
 11
-147.03345608213829
 21
525.84035000931908
 31
0.0
  0
LINE
  5
4B32
  8
0
  6
CONTINUOUS
 62
     7
 10
-147.03345608213829
 20
522.64035000931904
 30
0.0
 11
-150.3334560821383
 21
522.64035000931904
 31
0.0
  0
ARC
  5
4B33
  8
0
  6
CONTINUOUS
 62
     7
 10
-149.0834560821383
 20
524.24035000931917
 30
0.0
 40
1.6000000000000001
 50
141.37516712694699
 51
218.62483287305301
  0
ARC
  5
4B34
  8
0
  6
CONTINUOUS
 62
     7
 10
-148.28345608213829
 20
524.24035000931917
 30
0.0
 40
1.6000000000000001
 50
321.37516712694702
 51
38.624832873052988
  0
LINE
  5
4B35
  8
0
  6
CONTINUOUS
 62
     7
 10
-150.3334560821383
 20
525.84035000931908
 30
0.0
 11
-150.3334560821383
 21
525.23909922709095
 31
0.0
  0
LINE
  5
4B36
  8
0
  6
CONTINUOUS
 62
     7
 10
-150.3334560821383
 20
523.24160079154706
 30
0.0
 11
-150.3334560821383
 21
522.64035000931904
 31
0.0
  0
LINE
  5
4B37
  8
0
  6
CONTINUOUS
 62
     7
 10
-147.03345608213829
 20
525.84035000931908
 30
0.0
 11
-147.03345608213829
 21
525.23909922709095
 31
0.0
  0
LINE
  5
4B38
  8
0
  6
CONTINUOUS
 62
     7
 10
-147.03345608213829
 20
522.64035000931904
 30
0.0
 11
-147.03345608213829
 21
523.24160079154706
 31
0.0
  0
LINE
  5
4B39
  8
0
  6
CONTINUOUS
 62
     7
 10
-160.68345608213829
 20
475.89816821215408
 30
0.0
 11
-160.68345608213829
 21
471.39816821215408
 31
0.0
  0
LINE
  5
4B3A
  8
0
  6
CONTINUOUS
 62
     7
 10
-155.68345608213829
 20
475.89816821215408
 30
0.0
 11
-155.68345608213829
 21
471.39816821215408
 31
0.0
  0
LINE
  5
4B40
  8
0
  6
CONTINUOUS
 62
     4
 10
-160.05350606040091
 20
483.9981682121541
 30
0.0
 11
-156.18345608213829
 21
483.9981682121541
 31
0.0
  0
LINE
  5
4B41
  8
0
  6
CONTINUOUS
 62
     4
 10
-156.18345608213829
 20
483.9981682121541
 30
0.0
 11
-157.18345608213829
 21
484.40242950892582
 31
0.0
  0
LINE
  5
4B42
  8
0
  6
CONTINUOUS
 62
     4
 10
-156.18345608213829
 20
483.9981682121541
 30
0.0
 11
-157.18345608213829
 21
483.59390691538238
 31
0.0
  0
LINE
  5
4B43
  8
0
  6
CONTINUOUS
 62
     4
 10
-160.05350606040091
 20
524.24035000931917
 30
0.0
 11
-156.18345608213829
 21
524.24035000931917
 31
0.0
  0
LINE
  5
4B44
  8
0
  6
CONTINUOUS
 62
     4
 10
-156.18345608213829
 20
524.24035000931917
 30
0.0
 11
-157.18345608213829
 21
524.64461130609084
 31
0.0
  0
LINE
  5
4B45
  8
0
  6
CONTINUOUS
 62
     4
 10
-156.18345608213829
 20
524.24035000931917
 30
0.0
 11
-157.18345608213829
 21
523.83608871254751
 31
0.0
  0
LINE
  5
4B46
  8
0
  6
CONTINUOUS
 62
     7
 10
-161.18345608213829
 20
477.59816821215418
 30
0.0
 11
-161.18345608213829
 21
476.59816821215412
 31
0.0
  0
LINE
  5
4B47
  8
0
  6
CONTINUOUS
 62
     7
 10
-161.18345608213829
 20
476.59816821215412
 30
0.0
 11
-155.18345608213829
 21
476.59816821215412
 31
0.0
  0
LINE
  5
4B48
  8
0
  6
CONTINUOUS
 62
     7
 10
-155.18345608213829
 20
476.59816821215412
 30
0.0
 11
-155.18345608213829
 21
477.59816821215418
 31
0.0
  0
LINE
  5
4E47
  8
0
  6
CONTINUOUS
 62
     7
 10
-161.18345608213829
 20
526.74035000931906
 30
0.0
 11
-155.18345608213829
 21
526.74035000931906
 31
0.0
  0
LINE
  5
4E48
  8
0
  6
CONTINUOUS
 62
     7
 10
-161.18345608213829
 20
521.74035000931906
 30
0.0
 11
-155.18345608213829
 21
521.74035000931906
 31
0.0
  0
VIEWPORT
  5
3C22
 67
     1
  8
0
 10
142.58924865722659
 20
99.112914085388184
 30
0.0
 40
357.25521212877948
 41
222.15178063964851
 68
     1
 69
     1
1001
ACAD
1000
MVIEW
1002
{
1070
    16
1010
0.0
1020
0.0
1030
0.0
1010
0.0
1020
0.0
1030
1.0
1040
0.0
1040
222.15178063964851
1040
142.58924865722659
1040
99.112914085388184
1040
50.0
1040
0.0
1040
0.0
1070
     0
1070
   100
1070
     1
1070
     1
1070
     0
1070
     0
1070
     0
1070
     0
1040
0.0
1040
0.0
1040
0.0
1040
10.0
1040
10.0
1040
10.0
1040
10.0
1070
     0
1002
{
1002
}
1002
}
1001
GENIUS_GENODEF_13
1002
{
1000
HIER
1070
     0
1002
}
1002
{
1000
MANEDIT
1070
     0
1002
}
1002
{
1000
NOSEL
1070
     0
1002
}
1002
{
1000
BEHIND
1070
     0
1002
}
1002
{
1000
OTHER
1070
     0
1002
}
1002
{
1000
REACTOR
1002
}
1001
GENIUS_GENOBJ-N-SDF_13
1002
{
1000
OWNER
1000
GEN
1002
}
1001
GENIUS_GENSCREG_15
1000
PF
1040
1.0
1000
DF
1040
1.0
1000
MIN
1011
-36.038357407163232
1021
0.0
1031
0.0
1021
-11.96297623443604
1031
0.0
1000
MAX
1011
321.2168547216163
1021
0.0
1031
0.0
1021
210.18880440521241
1031
0.0
1000
FLAGS
1070
     4
  0
ENDSEC
  0
EOF
