  0
SECTION
  2
HEADER
  9
$ACADVER
  1
AC1009
  9
$INSBASE
 10
0.0
 20
0.0
 30
0.0
  9
$EXTMIN
 10
31.940918494878471
 20
117.23016440219961
 30
-0.0015258207003583
  9
$EXTMAX
 10
207.93960619943641
 20
226.1534277330542
 30
0.0000000349246037
  9
$LIMMIN
 10
0.0
 20
0.0
  9
$LIMMAX
 10
210.0
 20
297.0
  9
$ORTHOMODE
 70
     0
  9
$REGENMODE
 70
     1
  9
$FILLMODE
 70
     1
  9
$QTEXTMODE
 70
     0
  9
$MIRRTEXT
 70
     1
  9
$DRAGMODE
 70
     2
  9
$LTSCALE
 40
1.0
  9
$OSMODE
 70
   549
  9
$ATTMODE
 70
     1
  9
$TEXTSIZE
 40
2.5
  9
$TRACEWID
 40
1.0
  9
$TEXTSTYLE
  7
STANDARD
  9
$CLAYER
  8
0
  9
$CELTYPE
  6
BYLAYER
  9
$CECOLOR
 62
   256
  9
$DIMSCALE
 40
1.0
  9
$DIMASZ
 40
3.0
  9
$DIMEXO
 40
1.0
  9
$DIMDLI
 40
3.75
  9
$DIMRND
 40
0.0
  9
$DIMDLE
 40
0.0
  9
$DIMEXE
 40
1.0
  9
$DIMTP
 40
0.0
  9
$DIMTM
 40
0.0
  9
$DIMTXT
 40
3.527777777799999
  9
$DIMCEN
 40
2.5
  9
$DIMTSZ
 40
0.0
  9
$DIMTOL
 70
     0
  9
$DIMLIM
 70
     0
  9
$DIMTIH
 70
     1
  9
$DIMTOH
 70
     1
  9
$DIMSE1
 70
     0
  9
$DIMSE2
 70
     0
  9
$DIMTAD
 70
     1
  9
$DIMZIN
 70
     0
  9
$DIMBLK
  1

  9
$DIMASO
 70
     1
  9
$DIMSHO
 70
     1
  9
$DIMPOST
  1

  9
$DIMAPOST
  1

  9
$DIMALT
 70
     0
  9
$DIMALTD
 70
     3
  9
$DIMALTF
 40
0.0393700787
  9
$DIMLFAC
 40
2.0
  9
$DIMTOFL
 70
     1
  9
$DIMTVP
 40
0.0
  9
$DIMTIX
 70
     0
  9
$DIMSOXD
 70
     0
  9
$DIMSAH
 70
     0
  9
$DIMBLK1
  1

  9
$DIMBLK2
  1

  9
$DIMSTYLE
  2
ISO-25
  9
$DIMCLRD
 70
     0
  9
$DIMCLRE
 70
     0
  9
$DIMCLRT
 70
     0
  9
$DIMTFAC
 40
1.0
  9
$DIMGAP
 40
1.524
  9
$LUNITS
 70
     2
  9
$LUPREC
 70
     2
  9
$SKETCHINC
 40
1.0
  9
$FILLETRAD
 40
10.0
  9
$AUNITS
 70
     0
  9
$AUPREC
 70
     3
  9
$MENU
  1
.
  9
$ELEVATION
 40
0.0
  9
$PELEVATION
 40
0.0
  9
$THICKNESS
 40
0.0
  9
$LIMCHECK
 70
     0
  9
$BLIPMODE
 70
     0
  9
$CHAMFERA
 40
10.0
  9
$CHAMFERB
 40
10.0
  9
$SKPOLY
 70
     0
  9
$TDCREATE
 40
2456456.3811568641
  9
$TDUPDATE
 40
2456476.4500184259
  9
$TDINDWG
 40
0.0331299769
  9
$TDUSRTIMER
 40
0.0331299421
  9
$USRTIMER
 70
     1
  9
$ANGBASE
 50
0.0
  9
$ANGDIR
 70
     0
  9
$PDMODE
 70
     0
  9
$PDSIZE
 40
-1.0
  9
$PLINEWID
 40
0.0
  9
$COORDS
 70
     1
  9
$SPLFRAME
 70
     0
  9
$SPLINETYPE
 70
     6
  9
$SPLINESEGS
 70
     8
  9
$ATTDIA
 70
     1
  9
$ATTREQ
 70
     1
  9
$HANDLING
 70
     1
  9
$HANDSEED
  5
783
  9
$SURFTAB1
 70
     6
  9
$SURFTAB2
 70
     6
  9
$SURFTYPE
 70
     6
  9
$SURFU
 70
     6
  9
$SURFV
 70
     6
  9
$UCSNAME
  2

  9
$UCSORG
 10
0.0
 20
0.0
 30
0.0
  9
$UCSXDIR
 10
1.0
 20
0.0
 30
0.0
  9
$UCSYDIR
 10
0.0
 20
1.0
 30
0.0
  9
$PUCSNAME
  2

  9
$PUCSORG
 10
0.0
 20
0.0
 30
0.0
  9
$PUCSXDIR
 10
1.0
 20
0.0
 30
0.0
  9
$PUCSYDIR
 10
0.0
 20
1.0
 30
0.0
  9
$USERI1
 70
     0
  9
$USERI2
 70
     0
  9
$USERI3
 70
     0
  9
$USERI4
 70
     0
  9
$USERI5
 70
     0
  9
$USERR1
 40
0.0
  9
$USERR2
 40
0.0
  9
$USERR3
 40
0.0
  9
$USERR4
 40
0.0
  9
$USERR5
 40
0.0
  9
$WORLDVIEW
 70
     1
  9
$SHADEDGE
 70
     3
  9
$SHADEDIF
 70
    70
  9
$TILEMODE
 70
     1
  9
$MAXACTVP
 70
    64
  9
$PLIMCHECK
 70
     0
  9
$PEXTMIN
 10
0.0
 20
0.0
 30
0.0
  9
$PEXTMAX
 10
0.0
 20
0.0
 30
0.0
  9
$PLIMMIN
 10
0.0
 20
0.0
  9
$PLIMMAX
 10
12.0
 20
9.0
  9
$UNITMODE
 70
     0
  9
$VISRETAIN
 70
     1
  9
$PLINEGEN
 70
     0
  9
$PSLTSCALE
 70
     1
  0
ENDSEC
  0
SECTION
  2
TABLES
  0
TABLE
  2
VPORT
 70
     1
  0
VPORT
  2
*ACTIVE
 70
     0
 10
0.0
 20
0.0
 11
1.0
 21
1.0
 12
113.3609776887438
 22
169.1133779373898
 13
0.0
 23
0.0
 14
10.0
 24
10.0
 15
10.0
 25
10.0
 16
0.0
 26
0.0
 36
1.0
 17
0.0
 27
0.0
 37
0.0
 40
195.99053220489699
 41
1.443645083932853
 42
50.0
 43
0.0
 44
0.0
 50
0.0
 51
0.0
 71
     0
 72
  2000
 73
     1
 74
     3
 75
     0
 76
     0
 77
     0
 78
     0
  0
ENDTAB
  0
TABLE
  2
LTYPE
 70
    14
  0
LTYPE
  2
CONTINUOUS
 70
     0
  3
Solid line
 72
    65
 73
     0
 40
0.0
  0
LTYPE
  2
CENTER
 70
     0
  3
Center ____ _ ____ _ ____ _ ____ _ ____ _ ____
 72
    65
 73
     4
 40
10.16
 49
6.3499999999999988
 49
-1.27
 49
1.27
 49
-1.27
  0
LTYPE
  2
AM_ISO02W050
 70
     0
  3
__ __ __ __ __ __ __ __ __ __ __ __ __ __ __
 72
    65
 73
     2
 40
7.5
 49
6.0
 49
-1.5
  0
LTYPE
  2
AM_ISO08W050
 70
     0
  3
____ . ____ . ____ . ____ . ____ . ____ . ____
 72
    65
 73
     4
 40
18.0
 49
12.0
 49
-1.5
 49
3.0
 49
-1.5
  0
LTYPE
  2
AM_ISO09W050
 70
     0
  3
_____ . . _____ . . _____ . . ____ .. ____
 72
    65
 73
     6
 40
22.5
 49
12.0
 49
-1.5
 49
3.0
 49
-1.5
 49
3.0
 49
-1.5
  0
LTYPE
  2
AMCONSTR
 70
     0
  3
_______________________
 72
    65
 73
     2
 40
9999.0
 49
9999.0
 49
0.0
  0
LTYPE
  2
AM_ISO08W050X2
 70
     0
  3
__ . __ . __ . __ . __ . __
 72
    65
 73
     4
 40
9.0
 49
6.0
 49
-0.75
 49
1.5
 49
-0.75
  0
LTYPE
  2
AM_ISO02W050X2
 70
     0
  3
 _ _ _ _ _ _ _ _ _ _ _ _
 72
    65
 73
     2
 40
3.75
 49
3.0
 49
-0.75
  0
LTYPE
  2
AMZIGZAG
 70
     0
  3
/\/-/\/-/\/-/\/-/\/-/\/
 72
    65
 73
     2
 40
11.0001
 49
0.0001
 49
-11.0
  0
LTYPE
  2
ACISOWELD
 70
     0
  3
_ _ _ _ _
 72
    65
 73
     2
 40
2.0
 49
2.0
 49
-1.0
  0
LTYPE
  2
ACISOTGL
 70
     0
  3
_ _ _ _ _
 72
    65
 73
     2
 40
3.0
 49
2.0
 49
-1.0
  0
LTYPE
  2
ACISOTGB
 70
     0
  3
__ . . __ . .
 72
    65
 73
     6
 40
9.0
 49
4.0
 49
-1.0
 49
1.0
 49
-1.0
 49
1.0
 49
-1.0
  0
LTYPE
  2
HIDDEN
 70
     0
  3
Hidden __ __ __ __ __ __ __ __ __ __ __ __ __ _
 72
    65
 73
     2
 40
9.5249999999999986
 49
6.3499999999999988
 49
-3.1749999999999989
  0
LTYPE
  2
PHANTOM2
 70
     0
  3
Phantom (.5x) ___ _ _ ___ _ _ ___ _ _ ___ _ _
 72
    65
 73
     6
 40
31.75
 49
15.875
 49
-3.1749999999999989
 49
3.1749999999999989
 49
-3.1749999999999989
 49
3.1749999999999989
 49
-3.1749999999999989
  0
ENDTAB
  0
TABLE
  2
LAYER
 70
     1
  0
LAYER
  2
0
 70
     0
 62
     7
  6
CONTINUOUS
  0
ENDTAB
  0
TABLE
  2
STYLE
 70
     3
  0
STYLE
  2
STANDARD
 70
     0
 40
0.0
 41
1.0
 50
0.0
 71
     0
 42
2.5
  3
txt
  4
bigfont
  0
STYLE
  2

 70
     1
 40
0.0
 41
1.0
 50
0.0
 71
     0
 42
3.527777777799999
  3
genltshp.shx
  4

  0
STYLE
  2
ACISOGDT
 70
     0
 40
0.0
 41
1.0
 50
0.0
 71
     0
 42
3.527777777799999
  3
amgdt.shx
  4

  0
ENDTAB
  0
TABLE
  2
VIEW
 70
     0
  0
ENDTAB
  0
TABLE
  2
UCS
 70
     0
  0
ENDTAB
  0
TABLE
  2
APPID
 70
    15
  0
APPID
  2
ACAD
 70
     0
  0
APPID
  2
MCAD_NO_VIS
 70
     0
  0
APPID
  2
ACAD_TEMP_GRAPHIC
 70
     0
  0
APPID
  2
ACATTRIBSERVICES
 70
     0
  0
APPID
  2
DESIGNERASSEMBLIES
 70
     0
  0
APPID
  2
ACAD_DSTYLE_DIMJAG
 70
     0
  0
APPID
  2
ACAD_DSTYLE_DIMBREAK
 70
     0
  0
APPID
  2
ACAD_NAV_VCDISPLAY
 70
     0
  0
APPID
  2
ACAD_EXEMPT_FROM_CAD_STANDARDS
 70
     0
  0
APPID
  2
ACAECLAYERSTANDARD
 70
     0
  0
APPID
  2
ACAD_MLEADERVER
 70
     0
  0
APPID
  2
ACAD_DSTYLE_DIMARC_LENGTH_
 70
     0
  0
APPID
  2
ACAD_DSTYLE_DIM_LINETYPE
 70
     0
  0
APPID
  2
ACAD_DSTYLE_DIM_EXT1_LINETYPE
 70
     0
  0
APPID
  2
ACAD_DSTYLE_DIM_EXT2_LINETYPE
 70
     0
  0
ENDTAB
  0
TABLE
  2
DIMSTYLE
 70
     8
  0
DIMSTYLE
  2
ISO-25
 70
     0
  3

  4

  5

  6

  7

 40
1.0
 41
2.5
 42
0.625
 43
3.75
 44
1.25
 45
0.0
 46
0.0
 47
0.0
 48
0.0
140
2.5
141
2.5
142
0.0
143
0.0393700787
144
1.0
145
0.0
146
1.0
147
0.625
 71
     0
 72
     0
 73
     0
 74
     0
 75
     0
 76
     0
 77
     1
 78
     8
170
     0
171
     3
172
     1
173
     0
174
     0
175
     0
176
     0
177
     0
178
     0
  0
DIMSTYLE
  2
AM_ISO
 70
     0
  3

  4
"
  5

  6

  7

 40
1.0
 41
3.5
 42
1.0
 43
10.0
 44
1.0
 45
0.0
 46
0.0
 47
0.1
 48
0.1
140
3.5
141
0.0
142
0.0
143
0.0393701
144
1.0
145
0.0
146
0.71
147
1.5
 71
     0
 72
     0
 73
     0
 74
     0
 75
     0
 76
     0
 77
     1
 78
     8
170
     0
171
     2
172
     1
173
     0
174
     0
175
     0
176
   256
177
   256
178
     2
  0
DIMSTYLE
  2
AM_ISO$3
 70
     0
  3

  4
"
  5

  6

  7

 40
1.0
 41
3.5
 42
1.0
 43
10.0
 44
1.0
 45
0.0
 46
0.0
 47
0.1
 48
0.1
140
3.5
141
0.0
142
0.0
143
0.0393701
144
1.0
145
0.0
146
0.71
147
1.5
 71
     0
 72
     0
 73
     0
 74
     1
 75
     0
 76
     0
 77
     1
 78
     8
170
     0
171
     2
172
     0
173
     0
174
     0
175
     0
176
   256
177
   256
178
     2
  0
DIMSTYLE
  2
AM_ISO$4
 70
     0
  3

  4
"
  5

  6

  7

 40
1.0
 41
3.5
 42
1.0
 43
10.0
 44
1.0
 45
0.0
 46
0.0
 47
0.1
 48
0.1
140
3.5
141
0.0
142
0.0
143
0.0393701
144
1.0
145
0.0
146
0.71
147
1.5
 71
     0
 72
     0
 73
     0
 74
     1
 75
     0
 76
     0
 77
     1
 78
     8
170
     0
171
     2
172
     0
173
     0
174
     0
175
     0
176
   256
177
   256
178
     2
  0
DIMSTYLE
  2
AM_ISO$6
 70
     0
  3

  4
"
  5

  6

  7

 40
1.0
 41
3.5
 42
1.0
 43
10.0
 44
1.0
 45
0.0
 46
0.0
 47
0.1
 48
0.1
140
3.5
141
0.0
142
0.0
143
0.0393701
144
1.0
145
0.0
146
0.71
147
1.5
 71
     0
 72
     0
 73
     0
 74
     0
 75
     0
 76
     0
 77
     0
 78
     8
170
     0
171
     2
172
     1
173
     0
174
     0
175
     0
176
   256
177
   256
178
     2
  0
DIMSTYLE
  2
AM_ISO$7
 70
     0
  3

  4
"
  5

  6

  7

 40
1.0
 41
3.5
 42
1.0
 43
10.0
 44
1.0
 45
0.0
 46
0.0
 47
0.1
 48
0.1
140
3.5
141
0.0
142
0.0
143
0.0393701
144
1.0
145
0.0
146
0.71
147
1.5
 71
     0
 72
     0
 73
     0
 74
     0
 75
     0
 76
     0
 77
     1
 78
     8
170
     0
171
     2
172
     1
173
     0
174
     0
175
     0
176
   256
177
   256
178
     2
  0
DIMSTYLE
  2
AM_ISO$SF
 70
     0
  3

  4
"
  5

  6

  7

 40
1.0
 41
3.5
 42
1.0
 43
10.0
 44
1.0
 45
0.0
 46
0.0
 47
0.1
 48
0.1
140
3.5
141
0.0
142
0.0
143
0.0393701
144
1.0
145
0.0
146
0.71
147
1.5
 71
     0
 72
     0
 73
     0
 74
     0
 75
     1
 76
     1
 77
     1
 78
     8
170
     0
171
     2
172
     1
173
     0
174
     0
175
     0
176
   256
177
   256
178
     2
  0
DIMSTYLE
  2
AM_ISO$SH
 70
     0
  3

  4
"
  5

  6
GENAXEH
  7

 40
1.0
 41
3.5
 42
1.0
 43
10.0
 44
1.0
 45
0.0
 46
0.0
 47
0.1
 48
0.1
140
3.5
141
0.0
142
0.0
143
0.0393701
144
2.0
145
0.0
146
0.71
147
1.5
 71
     0
 72
     0
 73
     0
 74
     0
 75
     1
 76
     1
 77
     1
 78
     8
170
     0
171
     2
172
     1
173
     1
174
     0
175
     0
176
   256
177
   256
178
     2
  0
ENDTAB
  0
ENDSEC
  0
SECTION
  2
BLOCKS
  0
BLOCK
  8
0
  2
$MODEL_SPACE
 70
     0
 10
0.0
 20
0.0
 30
0.0
  3
$MODEL_SPACE
  1

  0
ENDBLK
  5
21
  8
0
  0
BLOCK
 67
     1
  8
0
  2
$PAPER_SPACE
 70
     0
 10
0.0
 20
0.0
 30
0.0
  3
$PAPER_SPACE
  1

  0
ENDBLK
  5
382
 67
     1
  8
0
  0
BLOCK
  8
0
  2
GENAXEH
 70
     0
 10
0.0
 20
0.0
 30
0.0
  3
GENAXEH
  1

  0
LINE
  5
238
  8
0
 10
-1.0
 20
0.0
 30
0.0
 11
1.0
 21
0.0
 31
0.0
  0
ENDBLK
  5
23A
  8
0
  0
BLOCK
  8
0
  2
*U2
 70
     1
 10
0.0
 20
0.0
 30
0.0
  3
*U2
  1

  0
TEXT
  5
778
  8
0
 62
     2
 10
55.466805314822153
 20
137.83421933720459
 30
0.0
 40
3.5
  1
EMITTER
  0
ENDBLK
  5
77A
  8
0
  0
BLOCK
  8
0
  2
*U3
 70
     1
 10
0.0
 20
0.0
 30
0.0
  3
*U3
  1

  0
TEXT
  5
77C
  8
0
 62
     2
 10
143.33128429672391
 20
137.83421933720459
 30
0.0
 40
3.5
  1
RECEIVER
  0
ENDBLK
  5
77E
  8
0
  0
BLOCK
  8
0
  2
*U4
 70
     1
 10
0.0
 20
0.0
 30
0.0
  3
*U4
  1

  0
TEXT
  5
780
  8
0
 62
     2
 10
173.5193594152133
 20
117.23044342588381
 30
0.0
 40
3.5
  1
cx-411a-c05
  0
ENDBLK
  5
782
  8
0
  0
ENDSEC
  0
SECTION
  2
ENTITIES
  0
LINE
  5
F1
  8
0
  6
CONTINUOUS
 62
     7
 10
41.697887578799978
 20
166.02511781679999
 30
0.0
 11
40.354384694499977
 21
164.6816149325
 31
0.0
  0
LINE
  5
F2
  8
0
  6
CONTINUOUS
 62
     7
 10
44.879868094099969
 20
160.15613153289999
 30
0.0
 11
46.223370978399977
 21
161.49963441720001
 31
0.0
  0
LINE
  5
F3
  8
0
  6
CONTINUOUS
 62
     7
 10
41.308978849099979
 20
163.72702077790001
 30
0.0
 11
31.9548304536468
 21
154.37287238244679
 31
0.0
  0
LINE
  5
F4
  8
0
  6
CONTINUOUS
 62
     7
 10
34.423221600620188
 20
151.60867334862019
 30
0.0
 11
43.925273939499988
 21
161.11072568750001
 31
0.0
  0
LINE
  5
F5
  8
0
  6
CONTINUOUS
 62
     7
 10
177.0978875788
 20
161.49963441720001
 30
0.0
 11
178.441390463
 21
160.15613153289999
 31
0.0
  0
LINE
  5
F6
  8
0
  6
CONTINUOUS
 62
     7
 10
182.96687386260001
 20
164.6816149325
 30
0.0
 11
181.6233709784
 21
166.02511781679999
 31
0.0
  0
LINE
  5
F7
  8
0
  6
CONTINUOUS
 62
     7
 10
179.39598461759999
 20
161.11072568750001
 30
0.0
 11
189.73698557429009
 21
150.76972473080991
 31
0.0
  0
LINE
  5
F8
  8
0
  6
CONTINUOUS
 62
     7
 10
191.3664281034531
 20
154.37287238244679
 30
0.0
 11
182.01227970799999
 21
163.72702077790001
 31
0.0
  0
CIRCLE
  5
F9
  8
0
  6
CONTINUOUS
 62
     7
 10
57.460629278599988
 20
188.46237611699999
 30
0.0
 40
1.5
  0
CIRCLE
  5
FA
  8
0
  6
CONTINUOUS
 62
     7
 10
57.460629278599988
 20
163.06237611700001
 30
0.0
 40
1.5
  0
LINE
  5
FB
  8
0
  6
CONTINUOUS
 62
     7
 10
40.460629278599981
 20
167.262376117
 30
0.0
 11
40.460629278599981
 21
191.262376117
 31
0.0
  0
LINE
  5
FC
  8
0
  6
CONTINUOUS
 62
     7
 10
60.460629278599988
 20
160.262376117
 30
0.0
 11
47.460629278599967
 21
160.262376117
 31
0.0
  0
LINE
  5
FD
  8
0
  6
CONTINUOUS
 62
     7
 10
47.460629278599967
 20
160.262376117
 30
0.0
 11
40.460629278599981
 21
167.262376117
 31
0.0
  0
LINE
  5
FE
  8
0
  6
CONTINUOUS
 62
     7
 10
40.460629278599981
 20
191.262376117
 30
0.0
 11
60.460629278599988
 21
191.262376117
 31
0.0
  0
LINE
  5
FF
  8
0
  6
CONTINUOUS
 62
     7
 10
60.460629278599988
 20
191.262376117
 30
0.0
 11
60.460629278599988
 21
160.262376117
 31
0.0
  0
ARC
  5
100
  8
0
  6
CONTINUOUS
 62
     7
 10
47.760629278599978
 20
191.66237611700001
 30
0.0
 40
2.0000000000000142
 50
0.0
 51
90.0
  0
ARC
  5
101
  8
0
  6
CONTINUOUS
 62
     7
 10
46.560629278599983
 20
191.66237611700001
 30
0.0
 40
2.0
 50
90.0
 51
180.0
  0
LINE
  5
102
  8
0
  6
CONTINUOUS
 62
     7
 10
46.560629278599983
 20
193.66237611700001
 30
0.0
 11
47.760629278599978
 21
193.66237611700001
 31
0.0
  0
LINE
  5
103
  8
0
  6
CONTINUOUS
 62
     7
 10
44.560629278599968
 20
191.262376117
 30
0.0
 11
44.560629278599968
 21
191.66237611700001
 31
0.0
  0
LINE
  5
104
  8
0
  6
CONTINUOUS
 62
     7
 10
49.760629278599978
 20
191.66237611700001
 30
0.0
 11
49.760629278599978
 21
191.262376117
 31
0.0
  0
LINE
  5
105
  8
0
  6
CONTINUOUS
 62
     7
 10
44.879868094099969
 20
160.15613153289999
 30
0.0
 11
40.354384694499977
 21
164.6816149325
 31
0.0
  0
LINE
  5
107
  8
0
  6
CONTINUOUS
 62
     7
 10
162.86062927859999
 20
191.262376117
 30
0.0
 11
162.86062927859999
 21
160.262376117
 31
0.0
  0
LINE
  5
108
  8
0
  6
CONTINUOUS
 62
     7
 10
182.86062927859999
 20
167.262376117
 30
0.0
 11
182.86062927859999
 21
191.262376117
 31
0.0
  0
LINE
  5
109
  8
0
  6
CONTINUOUS
 62
     7
 10
175.86062927859999
 20
160.262376117
 30
0.0
 11
182.86062927859999
 21
167.262376117
 31
0.0
  0
CIRCLE
  5
10A
  8
0
  6
CONTINUOUS
 62
     7
 10
165.86062927859999
 20
188.46237611699999
 30
0.0
 40
1.5
  0
CIRCLE
  5
10B
  8
0
  6
CONTINUOUS
 62
     7
 10
165.86062927859999
 20
163.06237611700001
 30
0.0
 40
1.5
  0
LINE
  5
10C
  8
0
  6
CONTINUOUS
 62
     7
 10
182.86062927859999
 20
191.262376117
 30
0.0
 11
162.86062927859999
 21
191.262376117
 31
0.0
  0
LINE
  5
10D
  8
0
  6
CONTINUOUS
 62
     7
 10
162.86062927859999
 20
160.262376117
 30
0.0
 11
175.86062927859999
 21
160.262376117
 31
0.0
  0
LINE
  5
10E
  8
0
  6
CONTINUOUS
 62
     7
 10
172.11062927859999
 20
191.262376117
 30
0.0
 11
172.11062927859999
 21
191.862376117
 31
0.0
  0
LINE
  5
10F
  8
0
  6
CONTINUOUS
 62
     7
 10
173.9106292786
 20
193.66237611700001
 30
0.0
 11
175.5606292786
 21
193.66237611700001
 31
0.0
  0
ARC
  5
110
  8
0
  6
CONTINUOUS
 62
     7
 10
175.5606292786
 20
191.862376117
 30
0.0
 40
1.8000000000000109
 50
0.0
 51
90.0
  0
ARC
  5
111
  8
0
  6
CONTINUOUS
 62
     7
 10
173.9106292786
 20
191.862376117
 30
0.0
 40
1.8000000000000109
 50
90.0
 51
180.0
  0
LINE
  5
112
  8
0
  6
CONTINUOUS
 62
     7
 10
177.36062927859999
 20
191.862376117
 30
0.0
 11
177.36062927859999
 21
191.262376117
 31
0.0
  0
LINE
  5
113
  8
0
  6
CONTINUOUS
 62
     7
 10
182.96687386260001
 20
164.6816149325
 30
0.0
 11
178.441390463
 21
160.15613153289999
 31
0.0
  0
LINE
  5
115
  8
0
  6
CONTINUOUS
 62
     7
 10
40.460629278599981
 20
219.7644965131
 30
0.0
 11
34.423221600620188
 21
219.7644965131
 31
0.0
  0
LINE
  5
116
  8
0
  6
CONTINUOUS
 62
     7
 10
34.423221600620188
 20
216.06449651310001
 30
0.0
 11
40.460629278599981
 21
216.06449651310001
 31
0.0
  0
LINE
  5
117
  8
0
  6
CONTINUOUS
 62
     7
 10
182.86062927859999
 20
216.06449651310001
 30
0.0
 11
189.73698557429009
 21
216.06449651310001
 31
0.0
  0
LINE
  5
118
  8
0
  6
CONTINUOUS
 62
     7
 10
189.73698557429009
 20
219.7644965131
 30
0.0
 11
182.86062927859999
 21
219.7644965131
 31
0.0
  0
LINE
  5
119
  8
0
  6
CONTINUOUS
 62
     7
 10
46.560629278599983
 20
221.31449651310001
 30
0.0
 11
47.760629278599978
 21
221.31449651310001
 31
0.0
  0
ARC
  5
11A
  8
0
  6
CONTINUOUS
 62
     7
 10
47.760629278599978
 20
219.31449651310001
 30
0.0
 40
2.0000000000000142
 50
0.0
 51
90.0
  0
ARC
  5
11B
  8
0
  6
CONTINUOUS
 62
     7
 10
46.560629278599983
 20
219.31449651310001
 30
0.0
 40
2.0
 50
90.0
 51
180.0
  0
LINE
  5
11C
  8
0
  6
CONTINUOUS
 62
     7
 10
44.560629278599968
 20
216.5144965131
 30
0.0
 11
44.560629278599968
 21
219.31449651310001
 31
0.0
  0
LINE
  5
11D
  8
0
  6
CONTINUOUS
 62
     7
 10
49.760629278599978
 20
219.31449651310001
 30
0.0
 11
49.760629278599978
 21
216.5144965131
 31
0.0
  0
LINE
  5
11E
  8
0
  6
CONTINUOUS
 62
     7
 10
47.760629278599978
 20
214.5144965131
 30
0.0
 11
46.560629278599983
 21
214.5144965131
 31
0.0
  0
ARC
  5
11F
  8
0
  6
CONTINUOUS
 62
     7
 10
47.760629278599978
 20
216.5144965131
 30
0.0
 40
2.0000000000000142
 50
270.0
 51
0.0
  0
ARC
  5
120
  8
0
  6
CONTINUOUS
 62
     7
 10
46.560629278599983
 20
216.5144965131
 30
0.0
 40
2.0
 50
180.0
 51
270.0
  0
LINE
  5
121
  8
0
  6
CONTINUOUS
 62
     7
 10
40.460629278599981
 20
223.5144965131
 30
0.0
 11
40.460629278599981
 21
212.31449651310001
 31
0.0
  0
LINE
  5
122
  8
0
  6
CONTINUOUS
 62
     7
 10
60.460629278599988
 20
223.5144965131
 30
0.0
 11
60.460629278599988
 21
212.31449651310001
 31
0.0
  0
LINE
  5
123
  8
0
  6
CONTINUOUS
 62
     7
 10
40.460629278599981
 20
212.31449651310001
 30
0.0
 11
60.460629278599988
 21
212.31449651310001
 31
0.0
  0
LINE
  5
124
  8
0
  6
CONTINUOUS
 62
     7
 10
40.460629278599981
 20
223.5144965131
 30
0.0
 11
60.460629278599988
 21
223.5144965131
 31
0.0
  0
ARC
  5
129
  8
0
  6
CONTINUOUS
 62
     7
 10
173.9106292786
 20
219.81449651310001
 30
0.0
 40
1.8000000000000109
 50
90.0
 51
180.0
  0
LINE
  5
12A
  8
0
  6
CONTINUOUS
 62
     7
 10
173.9106292786
 20
221.61449651309999
 30
0.0
 11
175.5606292786
 21
221.61449651309999
 31
0.0
  0
ARC
  5
12B
  8
0
  6
CONTINUOUS
 62
     7
 10
175.5606292786
 20
219.81449651310001
 30
0.0
 40
1.8000000000000109
 50
0.0
 51
90.0
  0
LINE
  5
12C
  8
0
  6
CONTINUOUS
 62
     7
 10
172.11062927859999
 20
218.06449651310001
 30
0.0
 11
172.11062927859999
 21
219.81449651310001
 31
0.0
  0
LINE
  5
12F
  8
0
  6
CONTINUOUS
 62
     7
 10
177.36062927859999
 20
219.81449651310001
 30
0.0
 11
177.36062927859999
 21
218.06449651310001
 31
0.0
  0
LINE
  5
130
  8
0
  6
CONTINUOUS
 62
     7
 10
172.11062927859999
 20
218.06449651310001
 30
0.0
 11
177.36062927859999
 21
218.06449651310001
 31
0.0
  0
LINE
  5
131
  8
0
  6
CONTINUOUS
 62
     7
 10
172.11062927859999
 20
216.0144965131
 30
0.0
 11
172.11062927859999
 21
217.7644965131
 31
0.0
  0
LINE
  5
134
  8
0
  6
CONTINUOUS
 62
     7
 10
177.36062927859999
 20
217.7644965131
 30
0.0
 11
177.36062927859999
 21
216.0144965131
 31
0.0
  0
LINE
  5
135
  8
0
  6
CONTINUOUS
 62
     7
 10
172.11062927859999
 20
217.7644965131
 30
0.0
 11
177.36062927859999
 21
217.7644965131
 31
0.0
  0
LINE
  5
136
  8
0
  6
CONTINUOUS
 62
     7
 10
175.5606292786
 20
214.21449651309999
 30
0.0
 11
173.9106292786
 21
214.21449651309999
 31
0.0
  0
ARC
  5
137
  8
0
  6
CONTINUOUS
 62
     7
 10
173.9106292786
 20
216.0144965131
 30
0.0
 40
1.8000000000000109
 50
180.0
 51
270.0
  0
ARC
  5
138
  8
0
  6
CONTINUOUS
 62
     7
 10
175.5606292786
 20
216.0144965131
 30
0.0
 40
1.8000000000000109
 50
270.0
 51
0.0
  0
LINE
  5
139
  8
0
  6
CONTINUOUS
 62
     7
 10
172.21062927860001
 20
218.06449651310001
 30
0.0
 11
172.21062927860001
 21
217.7644965131
 31
0.0
  0
LINE
  5
13A
  8
0
  6
CONTINUOUS
 62
     7
 10
177.26062927859999
 20
218.06449651310001
 30
0.0
 11
177.26062927859999
 21
217.7644965131
 31
0.0
  0
LINE
  5
13B
  8
0
  6
CONTINUOUS
 62
     7
 10
182.86062927859999
 20
212.31449651310001
 30
0.0
 11
162.86062927859999
 21
212.31449651310001
 31
0.0
  0
LINE
  5
13C
  8
0
  6
CONTINUOUS
 62
     7
 10
162.86062927859999
 20
212.31449651310001
 30
0.0
 11
162.86062927859999
 21
223.5144965131
 31
0.0
  0
LINE
  5
13D
  8
0
  6
CONTINUOUS
 62
     7
 10
182.86062927859999
 20
212.31449651310001
 30
0.0
 11
182.86062927859999
 21
223.5144965131
 31
0.0
  0
LINE
  5
13E
  8
0
  6
CONTINUOUS
 62
     7
 10
182.86062927859999
 20
223.5144965131
 30
0.0
 11
162.86062927859999
 21
223.5144965131
 31
0.0
  0
LINE
  5
156
  8
0
  6
CONTINUOUS
 62
     7
 10
134.76447606010461
 20
191.86237611699991
 30
0.0
 11
134.76447606010461
 21
191.262376117
 31
0.0
  0
ARC
  5
157
  8
0
  6
CONTINUOUS
 62
     7
 10
132.9644760601046
 20
191.86237611699991
 30
0.0
 40
1.8000000000000109
 50
0.0
 51
90.0
  0
LINE
  5
158
  8
0
  6
CONTINUOUS
 62
     7
 10
131.2144760601046
 20
193.66237611700001
 30
0.0
 11
132.9644760601046
 21
193.66237611700001
 31
0.0
  0
LINE
  5
15A
  8
0
  6
CONTINUOUS
 62
     7
 10
131.2144760601046
 20
193.66237611700001
 30
0.0
 11
131.2144760601046
 21
191.262376117
 31
0.0
  0
LINE
  5
15B
  8
0
  6
CONTINUOUS
 62
     7
 10
129.16447606010459
 20
193.66237611700001
 30
0.0
 11
130.91447606010459
 21
193.66237611700001
 31
0.0
  0
LINE
  5
15D
  8
0
  6
CONTINUOUS
 62
     7
 10
130.91447606010459
 20
193.66237611700001
 30
0.0
 11
130.91447606010459
 21
191.262376117
 31
0.0
  0
LINE
  5
15E
  8
0
  6
CONTINUOUS
 62
     7
 10
127.36447606010459
 20
191.262376117
 30
0.0
 11
127.36447606010459
 21
191.86237611699991
 31
0.0
  0
ARC
  5
15F
  8
0
  6
CONTINUOUS
 62
     7
 10
129.16447606010459
 20
191.86237611699991
 30
0.0
 40
1.8000000000000109
 50
90.0
 51
180.0
  0
LINE
  5
160
  8
0
  6
CONTINUOUS
 62
     7
 10
131.2144760601046
 20
193.5623761169999
 30
0.0
 11
130.91447606010459
 21
193.5623761169999
 31
0.0
  0
LINE
  5
161
  8
0
  6
CONTINUOUS
 62
     7
 10
91.645233621652025
 20
160.262376117
 30
0.0
 11
91.645233621652025
 21
154.37287238244679
 31
0.0
  0
LINE
  5
162
  8
0
  6
CONTINUOUS
 62
     7
 10
95.345233621652014
 20
154.37287238244679
 30
0.0
 11
95.345233621652014
 21
160.262376117
 31
0.0
  0
LINE
  5
2F8
  8
0
 10
87.895233621652025
 20
191.262376117
 30
0.0
 11
87.895233621652025
 21
160.262376117
 31
0.0
  0
LINE
  5
2F9
  8
0
 10
87.895233621652025
 20
160.262376117
 30
0.0
 11
99.095233621652014
 21
160.262376117
 31
0.0
  0
LINE
  5
2FA
  8
0
 10
99.095233621652014
 20
160.262376117
 30
0.0
 11
99.095233621652014
 21
191.262376117
 31
0.0
  0
LINE
  5
2FB
  8
0
 10
99.095233621652014
 20
191.262376117
 30
0.0
 11
87.895233621652025
 21
191.262376117
 31
0.0
  0
LINE
  5
2FC
  8
0
  6
CONTINUOUS
 62
     7
 10
89.795233621652031
 20
191.262376117
 30
0.0
 11
89.795233621652031
 21
191.862376117
 31
0.0
  0
ARC
  5
2FD
  8
0
  6
CONTINUOUS
 62
     7
 10
91.595233621652014
 20
191.862376117
 30
0.0
 40
1.8000000000000109
 50
90.0
 51
180.0
  0
LINE
  5
2FE
  8
0
  6
CONTINUOUS
 62
     7
 10
91.595233621652014
 20
193.66237611700001
 30
0.0
 11
95.395233621652025
 21
193.66237611700001
 31
0.0
  0
ARC
  5
2FF
  8
0
  6
CONTINUOUS
 62
     7
 10
95.395233621652025
 20
191.862376117
 30
0.0
 40
1.8000000000000109
 50
0.0
 51
90.0
  0
LINE
  5
300
  8
0
  6
CONTINUOUS
 62
     7
 10
97.195233621652051
 20
191.862376117
 30
0.0
 11
97.195233621652051
 21
191.262376117
 31
0.0
  0
LINE
  5
306
  8
0
  6
CONTINUOUS
 62
     7
 10
129.2144760601046
 20
160.262376117
 30
0.0
 11
129.2144760601046
 21
154.37287238244679
 31
0.0
  0
LINE
  5
307
  8
0
  6
CONTINUOUS
 62
     7
 10
132.91447606010459
 20
154.37287238244679
 30
0.0
 11
132.91447606010459
 21
160.262376117
 31
0.0
  0
LINE
  5
308
  8
0
 10
125.4644760601046
 20
191.262376117
 30
0.0
 11
125.4644760601046
 21
160.262376117
 31
0.0
  0
LINE
  5
309
  8
0
 10
125.4644760601046
 20
160.262376117
 30
0.0
 11
136.66447606010459
 21
160.262376117
 31
0.0
  0
LINE
  5
30A
  8
0
 10
136.66447606010459
 20
160.262376117
 30
0.0
 11
136.66447606010459
 21
191.262376117
 31
0.0
  0
LINE
  5
30B
  8
0
 10
136.66447606010459
 20
191.262376117
 30
0.0
 11
125.4644760601046
 21
191.262376117
 31
0.0
  0
LINE
  5
387
  8
0
  6
CENTER
 62
     4
 10
63.115987511362661
 20
175.762376117
 30
0.0
 11
73.68976680373855
 21
175.762376117
 31
0.0
  0
LINE
  5
38C
  8
0
  6
CENTER
 62
     4
 10
71.455869547129154
 20
176.36094708288249
 30
0.0
 11
73.68976680373855
 21
175.762376117
 31
0.0
  0
LINE
  5
38D
  8
0
  6
CENTER
 62
     4
 10
73.68976680373855
 20
175.762376117
 30
0.0
 11
71.455869547129154
 21
175.1638051511174
 31
0.0
  0
LINE
  5
38E
  8
0
  6
CENTER
 62
     4
 10
93.495233621652034
 20
183.61474242414971
 30
0.0
 11
93.495233621652034
 21
167.1936850263549
 31
0.0
  0
LINE
  5
397
  8
0
  6
CENTER
 62
     4
 10
86.895233621652025
 20
175.762376117
 30
0.0
 11
100.095233621652
 21
175.762376117
 31
0.0
  0
LINE
  5
39A
  8
0
  6
CENTER
 62
     4
 10
63.115987511362661
 20
217.9144965131
 30
0.0
 11
73.68976680373855
 21
217.9144965131
 31
0.0
  0
LINE
  5
39B
  8
0
  6
CENTER
 62
     4
 10
71.455869547129154
 20
218.51306747898261
 30
0.0
 11
73.68976680373855
 21
217.9144965131
 31
0.0
  0
LINE
  5
39C
  8
0
  6
CENTER
 62
     4
 10
73.68976680373855
 20
217.9144965131
 30
0.0
 11
71.455869547129154
 21
217.31592554721749
 31
0.0
  0
INSERT
  5
3A3
  8
0
  2
*U2
 10
0.0
 20
0.0
 30
0.0
  0
INSERT
  5
3A4
  8
0
  2
*U3
 10
0.0
 20
0.0
 30
0.0
  0
INSERT
  5
3A6
  8
0
  2
*U4
 10
0.0
 20
0.0
 30
0.0
  0
LINE
  5
3C4
  8
0
  6
CENTER
 62
     4
 10
131.0644760601046
 20
183.61474242414971
 30
0.0
 11
131.0644760601046
 21
167.19368502635481
 31
0.0
  0
LINE
  5
3C5
  8
0
  6
CENTER
 62
     4
 10
124.4644760601046
 20
175.762376117
 30
0.0
 11
137.66447606010459
 21
175.762376117
 31
0.0
  0
LINE
  5
3C9
  8
0
  6
CENTER
 62
     4
 10
160.20527104583729
 20
175.762376117
 30
0.0
 11
149.6314917534614
 21
175.762376117
 31
0.0
  0
LINE
  5
3CC
  8
0
  6
CENTER
 62
     4
 10
160.20527104583729
 20
217.9144965131
 30
0.0
 11
149.6314917534614
 21
217.9144965131
 31
0.0
  0
LINE
  5
423
  8
0
  6
CENTER
 62
     4
 10
157.9713737892279
 20
176.36094708288249
 30
0.0
 11
160.20527104583729
 21
175.762376117
 31
0.0
  0
LINE
  5
424
  8
0
  6
CENTER
 62
     4
 10
160.20527104583729
 20
175.762376117
 30
0.0
 11
157.9713737892279
 21
175.1638051511174
 31
0.0
  0
LINE
  5
425
  8
0
  6
CENTER
 62
     4
 10
157.9713737892279
 20
218.51306747898261
 30
0.0
 11
160.20527104583729
 21
217.9144965131
 31
0.0
  0
LINE
  5
426
  8
0
  6
CENTER
 62
     4
 10
160.20527104583729
 20
217.9144965131
 30
0.0
 11
157.9713737892279
 21
217.31592554721749
 31
0.0
  0
CIRCLE
  5
47D
  8
0
 62
     2
 10
57.460629278599988
 20
188.46237611699999
 30
0.0
 40
1.3500000000000001
  0
CIRCLE
  5
47E
  8
0
 62
     2
 10
57.460629278599988
 20
163.06237611700001
 30
0.0
 40
1.3500000000000001
  0
CIRCLE
  5
47F
  8
0
 62
     2
 10
165.86062927859999
 20
188.46237611699999
 30
0.0
 40
1.3500000000000001
  0
CIRCLE
  5
480
  8
0
 62
     2
 10
165.86062927859999
 20
163.06237611700001
 30
0.0
 40
1.3500000000000001
  0
LINE
  5
488
  8
0
  6
CENTER
 62
     4
 10
57.460629278599988
 20
190.66916411674359
 30
0.0
 11
57.460629278599988
 21
186.25558811725639
 31
0.0
  0
LINE
  5
489
  8
0
  6
CENTER
 62
     4
 10
55.253841278856413
 20
188.46237611699999
 30
0.0
 11
59.667417278343549
 21
188.46237611699999
 31
0.0
  0
LINE
  5
48A
  8
0
  6
CENTER
 62
     4
 10
57.460629278599988
 20
165.26916411674361
 30
0.0
 11
57.460629278599988
 21
160.85558811725639
 31
0.0
  0
LINE
  5
48B
  8
0
  6
CENTER
 62
     4
 10
55.253841278856413
 20
163.06237611700001
 30
0.0
 11
59.667417278343549
 21
163.06237611700001
 31
0.0
  0
LINE
  5
48C
  8
0
  6
CENTER
 62
     4
 10
165.86062927859999
 20
190.66916411674359
 30
0.0
 11
165.86062927859999
 21
186.25558811725639
 31
0.0
  0
LINE
  5
48D
  8
0
  6
CENTER
 62
     4
 10
163.65384127885639
 20
188.46237611699999
 30
0.0
 11
168.0674172783435
 21
188.46237611699999
 31
0.0
  0
LINE
  5
48E
  8
0
  6
CENTER
 62
     4
 10
165.86062927859999
 20
165.26916411674361
 30
0.0
 11
165.86062927859999
 21
160.85558811725639
 31
0.0
  0
LINE
  5
48F
  8
0
  6
CENTER
 62
     4
 10
163.65384127885639
 20
163.06237611700001
 30
0.0
 11
168.0674172783435
 21
163.06237611700001
 31
0.0
  0
LINE
  5
4E9
  8
0
  6
CENTER
 62
     4
 10
57.460629278599981
 20
226.1516869180268
 30
0.0
 11
57.460629278599981
 21
209.67730610817321
 31
0.0
  0
LINE
  5
4EA
  8
0
  6
CENTER
 62
     4
 10
165.86062927859999
 20
226.1516869180268
 30
0.0
 11
165.86062927859999
 21
209.67730610817321
 31
0.0
  0
LINE
  5
543
  8
0
  6
CENTER
 62
     4
 10
85.052924666077274
 20
188.46237611699999
 30
0.0
 11
101.93754257722679
 21
188.46237611699999
 31
0.0
  0
LINE
  5
544
  8
0
  6
CENTER
 62
     4
 10
85.052924666077274
 20
163.06237611700001
 30
0.0
 11
101.93754257722679
 21
163.06237611700001
 31
0.0
  0
LINE
  5
545
  8
0
  6
CENTER
 62
     4
 10
122.62216710452979
 20
188.46237611699999
 30
0.0
 11
139.5067850156793
 21
188.46237611699999
 31
0.0
  0
LINE
  5
546
  8
0
  6
CENTER
 62
     4
 10
122.62216710452979
 20
163.06237611700001
 30
0.0
 11
139.5067850156793
 21
163.06237611700001
 31
0.0
  0
ENDSEC
  0
EOF
