  0
SECTION
  2
HEADER
  9
$ACADVER
  1
AC1009
  9
$INSBASE
 10
0.0
 20
0.0
 30
0.0
  9
$EXTMIN
 10
87.096379575791275
 20
118.0303165510112
 30
0.0
  9
$EXTMAX
 10
153.3040045319857
 20
184.00880452083319
 30
0.0
  9
$LIMMIN
 10
0.0
 20
0.0
  9
$LIMMAX
 10
210.0
 20
297.0
  9
$ORTHOMODE
 70
     0
  9
$REGENMODE
 70
     1
  9
$FILLMODE
 70
     1
  9
$QTEXTMODE
 70
     0
  9
$MIRRTEXT
 70
     1
  9
$DRAGMODE
 70
     2
  9
$LTSCALE
 40
1.0
  9
$OSMODE
 70
    39
  9
$ATTMODE
 70
     1
  9
$TEXTSIZE
 40
2.5
  9
$TRACEWID
 40
1.0
  9
$TEXTSTYLE
  7
STANDARD
  9
$CLAYER
  8
0
  9
$CELTYPE
  6
BYLAYER
  9
$CECOLOR
 62
   256
  9
$DIMSCALE
 40
1.0
  9
$DIMASZ
 40
6.0
  9
$DIMEXO
 40
1.0
  9
$DIMDLI
 40
3.75
  9
$DIMRND
 40
0.0
  9
$DIMDLE
 40
0.0
  9
$DIMEXE
 40
1.0
  9
$DIMTP
 40
0.0
  9
$DIMTM
 40
0.0
  9
$DIMTXT
 40
3.5
  9
$DIMCEN
 40
2.5
  9
$DIMTSZ
 40
0.0
  9
$DIMTOL
 70
     0
  9
$DIMLIM
 70
     0
  9
$DIMTIH
 70
     1
  9
$DIMTOH
 70
     1
  9
$DIMSE1
 70
     0
  9
$DIMSE2
 70
     0
  9
$DIMTAD
 70
     1
  9
$DIMZIN
 70
     0
  9
$DIMBLK
  1

  9
$DIMASO
 70
     1
  9
$DIMSHO
 70
     1
  9
$DIMPOST
  1

  9
$DIMAPOST
  1

  9
$DIMALT
 70
     0
  9
$DIMALTD
 70
     3
  9
$DIMALTF
 40
0.0393700787401575
  9
$DIMLFAC
 40
1.0
  9
$DIMTOFL
 70
     1
  9
$DIMTVP
 40
0.0
  9
$DIMTIX
 70
     0
  9
$DIMSOXD
 70
     0
  9
$DIMSAH
 70
     0
  9
$DIMBLK1
  1

  9
$DIMBLK2
  1

  9
$DIMSTYLE
  2
ISO-25
  9
$DIMCLRD
 70
     0
  9
$DIMCLRE
 70
     0
  9
$DIMCLRT
 70
     0
  9
$DIMTFAC
 40
1.0
  9
$DIMGAP
 40
1.524
  9
$LUNITS
 70
     2
  9
$LUPREC
 70
     2
  9
$SKETCHINC
 40
1.0
  9
$FILLETRAD
 40
10.0
  9
$AUNITS
 70
     0
  9
$AUPREC
 70
     2
  9
$MENU
  1
.
  9
$ELEVATION
 40
0.0
  9
$PELEVATION
 40
0.0
  9
$THICKNESS
 40
0.0
  9
$LIMCHECK
 70
     0
  9
$BLIPMODE
 70
     0
  9
$CHAMFERA
 40
10.0
  9
$CHAMFERB
 40
10.0
  9
$SKPOLY
 70
     0
  9
$TDCREATE
 40
2457238.482365509
  9
$TDUPDATE
 40
2457242.6867087502
  9
$TDINDWG
 40
0.0149310995
  9
$TDUSRTIMER
 40
0.0149310995
  9
$USRTIMER
 70
     1
  9
$ANGBASE
 50
0.0
  9
$ANGDIR
 70
     0
  9
$PDMODE
 70
     0
  9
$PDSIZE
 40
-1.0
  9
$PLINEWID
 40
0.0
  9
$COORDS
 70
     2
  9
$SPLFRAME
 70
     0
  9
$SPLINETYPE
 70
     6
  9
$SPLINESEGS
 70
     8
  9
$ATTDIA
 70
     1
  9
$ATTREQ
 70
     1
  9
$HANDLING
 70
     1
  9
$HANDSEED
  5
4F6
  9
$SURFTAB1
 70
     6
  9
$SURFTAB2
 70
     6
  9
$SURFTYPE
 70
     6
  9
$SURFU
 70
     6
  9
$SURFV
 70
     6
  9
$UCSNAME
  2

  9
$UCSORG
 10
0.0
 20
0.0
 30
0.0
  9
$UCSXDIR
 10
1.0
 20
0.0
 30
0.0
  9
$UCSYDIR
 10
0.0
 20
1.0
 30
0.0
  9
$PUCSNAME
  2

  9
$PUCSORG
 10
0.0
 20
0.0
 30
0.0
  9
$PUCSXDIR
 10
1.0
 20
0.0
 30
0.0
  9
$PUCSYDIR
 10
0.0
 20
1.0
 30
0.0
  9
$USERI1
 70
     0
  9
$USERI2
 70
     0
  9
$USERI3
 70
     0
  9
$USERI4
 70
     0
  9
$USERI5
 70
     0
  9
$USERR1
 40
0.0
  9
$USERR2
 40
0.0
  9
$USERR3
 40
0.0
  9
$USERR4
 40
0.0
  9
$USERR5
 40
0.0
  9
$WORLDVIEW
 70
     1
  9
$SHADEDGE
 70
     3
  9
$SHADEDIF
 70
    70
  9
$TILEMODE
 70
     1
  9
$MAXACTVP
 70
    64
  9
$PLIMCHECK
 70
     0
  9
$PEXTMIN
 10
1.0000000000000000E+020
 20
1.0000000000000000E+020
 30
1.0000000000000000E+020
  9
$PEXTMAX
 10
-1.0000000000000000E+020
 20
-1.0000000000000000E+020
 30
-1.0000000000000000E+020
  9
$PLIMMIN
 10
0.0
 20
0.0
  9
$PLIMMAX
 10
420.0
 20
297.0
  9
$UNITMODE
 70
     0
  9
$VISRETAIN
 70
     1
  9
$PLINEGEN
 70
     0
  9
$PSLTSCALE
 70
     1
  0
ENDSEC
  0
SECTION
  2
TABLES
  0
TABLE
  2
VPORT
 70
     1
  0
VPORT
  2
*ACTIVE
 70
     0
 10
0.0
 20
0.0
 11
1.0
 21
1.0
 12
119.528379719855
 22
168.64016523256771
 13
0.0
 23
0.0
 14
10.0
 24
10.0
 15
10.0
 25
10.0
 16
0.0
 26
0.0
 36
1.0
 17
0.0
 27
0.0
 37
0.0
 40
126.7494703305596
 41
0.8926673751328375
 42
50.0
 43
0.0
 44
0.0
 50
0.0
 51
0.0
 71
     0
 72
  2000
 73
     1
 74
     3
 75
     0
 76
     0
 77
     0
 78
     0
  0
ENDTAB
  0
TABLE
  2
LTYPE
 70
    17
  0
LTYPE
  2
CONTINUOUS
 70
     0
  3
Solid line
 72
    65
 73
     0
 40
0.0
  0
LTYPE
  2
HIDDEN
 70
     0
  3
Hidden __ __ __ __ __ __ __ __ __ __ __ __ __ __
 72
    65
 73
     2
 40
1.905
 49
1.27
 49
-0.635
  0
LTYPE
  2
PHANTOM
 70
     0
  3
Phantom ______  __  __  ______  __  __  ______
 72
    65
 73
     6
 40
12.699999999999999
 49
6.3499999999999988
 49
-1.27
 49
1.27
 49
-1.27
 49
1.27
 49
-1.27
  0
LTYPE
  2
CENTER
 70
     0
  3
Center ____ _ ____ _ ____ _ ____ _ ____ _ ____
 72
    65
 73
     4
 40
10.16
 49
6.3499999999999988
 49
-1.27
 49
1.27
 49
-1.27
  0
LTYPE
  2
CENTERX2
 70
     0
  3
Center (2x) ________  __  ________  __  _____
 72
    65
 73
     4
 40
20.32
 49
12.699999999999999
 49
-2.54
 49
2.54
 49
-2.54
  0
LTYPE
  2
DOT2
 70
     0
  3
Dot (.5x) ........................................
 72
    65
 73
     2
 40
0.635
 49
0.0
 49
-0.635
  0
LTYPE
  2
PHANTOM2
 70
     0
  3
Phantom (.5x) ___ _ _ ___ _ _ ___ _ _ ___ _ _
 72
    65
 73
     6
 40
31.75
 49
15.875
 49
-3.1749999999999989
 49
3.1749999999999989
 49
-3.1749999999999989
 49
3.1749999999999989
 49
-3.1749999999999989
  0
LTYPE
  2
AM_ISO02W050
 70
     0
  3
__ __ __ __ __ __ __ __ __ __ __ __ __ __ __
 72
    65
 73
     2
 40
7.5
 49
6.0
 49
-1.5
  0
LTYPE
  2
AM_ISO08W050
 70
     0
  3
____ . ____ . ____ . ____ . ____ . ____ . ____
 72
    65
 73
     4
 40
18.0
 49
12.0
 49
-1.5
 49
3.0
 49
-1.5
  0
LTYPE
  2
AM_ISO09W050
 70
     0
  3
_____ . . _____ . . _____ . . ____ .. ____
 72
    65
 73
     6
 40
22.5
 49
12.0
 49
-1.5
 49
3.0
 49
-1.5
 49
3.0
 49
-1.5
  0
LTYPE
  2
AMCONSTR
 70
     0
  3
_______________________
 72
    65
 73
     2
 40
9999.0
 49
9999.0
 49
0.0
  0
LTYPE
  2
AM_ISO08W050X2
 70
     0
  3
__ . __ . __ . __ . __ . __
 72
    65
 73
     4
 40
9.0
 49
6.0
 49
-0.75
 49
1.5
 49
-0.75
  0
LTYPE
  2
AM_ISO02W050X2
 70
     0
  3
 _ _ _ _ _ _ _ _ _ _ _ _
 72
    65
 73
     2
 40
3.75
 49
3.0
 49
-0.75
  0
LTYPE
  2
AMZIGZAG
 70
     0
  3
/\/-/\/-/\/-/\/-/\/-/\/
 72
    65
 73
     2
 40
11.0001
 49
0.0001
 49
-11.0
  0
LTYPE
  2
ACISOWELD
 70
     0
  3
_ _ _ _ _
 72
    65
 73
     2
 40
2.0
 49
2.0
 49
-1.0
  0
LTYPE
  2
ACISOTGL
 70
     0
  3
_ _ _ _ _
 72
    65
 73
     2
 40
3.0
 49
2.0
 49
-1.0
  0
LTYPE
  2
ACISOTGB
 70
     0
  3
__ . . __ . .
 72
    65
 73
     6
 40
9.0
 49
4.0
 49
-1.0
 49
1.0
 49
-1.0
 49
1.0
 49
-1.0
  0
ENDTAB
  0
TABLE
  2
LAYER
 70
     2
  0
LAYER
  2
0
 70
     0
 62
     7
  6
CONTINUOUS
  0
LAYER
  2
AM_CL
 70
     0
 62
     1
  6
AMCONSTR
  0
ENDTAB
  0
TABLE
  2
STYLE
 70
     4
  0
STYLE
  2
STANDARD
 70
     0
 40
0.0
 41
1.0
 50
0.0
 71
     0
 42
2.5
  3
txt
  4
bigfont
  0
STYLE
  2

 70
     1
 40
0.0
 41
1.0
 50
0.0
 71
     0
 42
3.5
  3
genltshp.shx
  4

  0
STYLE
  2
ACISOTS
 70
     0
 40
1.0
 41
1.0
 50
0.0
 71
     0
 42
3.5
  3
isocp.shx
  4
extfont.shx
  0
STYLE
  2
ACISOGDT
 70
     0
 40
0.0
 41
1.0
 50
0.0
 71
     0
 42
3.5
  3
amgdt.shx
  4

  0
ENDTAB
  0
TABLE
  2
VIEW
 70
     0
  0
ENDTAB
  0
TABLE
  2
UCS
 70
     0
  0
ENDTAB
  0
TABLE
  2
APPID
 70
    17
  0
APPID
  2
ACAD
 70
     0
  0
APPID
  2
MCAD_NO_VIS
 70
     0
  0
APPID
  2
ACAD_TEMP_GRAPHIC
 70
     0
  0
APPID
  2
ACATTRIBSERVICES
 70
     0
  0
APPID
  2
DESIGNERASSEMBLIES
 70
     0
  0
APPID
  2
ACAD_DSTYLE_DIMJAG
 70
     0
  0
APPID
  2
ACAD_DSTYLE_DIMBREAK
 70
     0
  0
APPID
  2
ACAD_NAV_VCDISPLAY
 70
     0
  0
APPID
  2
ACAD_PSEXT
 70
     0
  0
APPID
  2
ACAD_EXEMPT_FROM_CAD_STANDARDS
 70
     0
  0
APPID
  2
ACAECLAYERSTANDARD
 70
     0
  0
APPID
  2
ACAD_MLEADERVER
 70
     0
  0
APPID
  2
ACAD_DSTYLE_DIMARC_LENGTH_
 70
     0
  0
APPID
  2
ACAD_DSTYLE_DIM_LINETYPE
 70
     0
  0
APPID
  2
ACAD_DSTYLE_DIM_EXT1_LINETYPE
 70
     0
  0
APPID
  2
ACAD_DSTYLE_DIM_EXT2_LINETYPE
 70
     0
  0
APPID
  2
ACDBDYNAMICBLOCKTRUENAME2
 70
     0
  0
ENDTAB
  0
TABLE
  2
DIMSTYLE
 70
     8
  0
DIMSTYLE
  2
ISO-25
 70
     0
  3

  4

  5

  6

  7

 40
1.0
 41
2.5
 42
0.625
 43
3.75
 44
1.25
 45
0.0
 46
0.0
 47
0.0
 48
0.0
140
2.5
141
2.5
142
0.0
143
0.03937007874016
144
1.0
145
0.0
146
1.0
147
0.625
 71
     0
 72
     0
 73
     0
 74
     0
 75
     0
 76
     0
 77
     1
 78
     8
170
     0
171
     3
172
     1
173
     0
174
     0
175
     0
176
     0
177
     0
178
     0
  0
DIMSTYLE
  2
AM_ISO
 70
     0
  3

  4
"
  5

  6

  7

 40
1.0
 41
3.5
 42
1.0
 43
10.0
 44
1.0
 45
0.0
 46
0.0
 47
0.1
 48
0.1
140
3.5
141
0.0
142
0.0
143
0.0393701
144
1.0
145
0.0
146
0.71
147
1.5
 71
     0
 72
     0
 73
     0
 74
     0
 75
     0
 76
     0
 77
     1
 78
     8
170
     0
171
     2
172
     1
173
     0
174
     0
175
     0
176
   256
177
   256
178
     2
  0
DIMSTYLE
  2
AM_ISO$3
 70
     0
  3

  4
"
  5

  6

  7

 40
1.0
 41
3.5
 42
1.0
 43
10.0
 44
1.0
 45
0.0
 46
0.0
 47
0.1
 48
0.1
140
3.5
141
0.0
142
0.0
143
0.0393701
144
1.0
145
0.0
146
0.71
147
1.5
 71
     0
 72
     0
 73
     0
 74
     1
 75
     0
 76
     0
 77
     1
 78
     8
170
     0
171
     2
172
     0
173
     0
174
     0
175
     0
176
   256
177
   256
178
     2
  0
DIMSTYLE
  2
AM_ISO$4
 70
     0
  3

  4
"
  5

  6

  7

 40
1.0
 41
3.5
 42
1.0
 43
10.0
 44
1.0
 45
0.0
 46
0.0
 47
0.1
 48
0.1
140
3.5
141
0.0
142
0.0
143
0.0393701
144
1.0
145
0.0
146
0.71
147
1.5
 71
     0
 72
     0
 73
     0
 74
     1
 75
     0
 76
     0
 77
     1
 78
     8
170
     0
171
     2
172
     0
173
     0
174
     0
175
     0
176
   256
177
   256
178
     2
  0
DIMSTYLE
  2
AM_ISO$6
 70
     0
  3

  4
"
  5

  6

  7

 40
1.0
 41
3.5
 42
1.0
 43
10.0
 44
1.0
 45
0.0
 46
0.0
 47
0.1
 48
0.1
140
3.5
141
0.0
142
0.0
143
0.0393701
144
1.0
145
0.0
146
0.71
147
1.5
 71
     0
 72
     0
 73
     0
 74
     0
 75
     0
 76
     0
 77
     0
 78
     8
170
     0
171
     2
172
     1
173
     0
174
     0
175
     0
176
   256
177
   256
178
     2
  0
DIMSTYLE
  2
AM_ISO$7
 70
     0
  3

  4
"
  5

  6

  7

 40
1.0
 41
3.5
 42
1.0
 43
10.0
 44
1.0
 45
0.0
 46
0.0
 47
0.1
 48
0.1
140
3.5
141
0.0
142
0.0
143
0.0393701
144
1.0
145
0.0
146
0.71
147
1.5
 71
     0
 72
     0
 73
     0
 74
     0
 75
     0
 76
     0
 77
     1
 78
     8
170
     0
171
     2
172
     1
173
     0
174
     0
175
     0
176
   256
177
   256
178
     2
  0
DIMSTYLE
  2
AM_ISO$SF
 70
     0
  3

  4
"
  5

  6

  7

 40
1.0
 41
3.5
 42
1.0
 43
10.0
 44
1.0
 45
0.0
 46
0.0
 47
0.1
 48
0.1
140
3.5
141
0.0
142
0.0
143
0.0393701
144
1.0
145
0.0
146
0.71
147
1.5
 71
     0
 72
     0
 73
     0
 74
     0
 75
     1
 76
     1
 77
     1
 78
     8
170
     0
171
     2
172
     1
173
     0
174
     0
175
     0
176
   256
177
   256
178
     2
  0
DIMSTYLE
  2
AM_ISO$SH
 70
     0
  3

  4
"
  5

  6
GENAXEH
  7

 40
1.0
 41
3.5
 42
1.0
 43
10.0
 44
1.0
 45
0.0
 46
0.0
 47
0.1
 48
0.1
140
3.5
141
0.0
142
0.0
143
0.0393701
144
2.0
145
0.0
146
0.71
147
1.5
 71
     0
 72
     0
 73
     0
 74
     0
 75
     1
 76
     1
 77
     1
 78
     8
170
     0
171
     2
172
     1
173
     1
174
     0
175
     0
176
   256
177
   256
178
     2
  0
ENDTAB
  0
ENDSEC
  0
SECTION
  2
BLOCKS
  0
BLOCK
  8
0
  2
$MODEL_SPACE
 70
     0
 10
0.0
 20
0.0
 30
0.0
  3
$MODEL_SPACE
  1

  0
ENDBLK
  5
21
  8
0
  0
BLOCK
 67
     1
  8
0
  2
$PAPER_SPACE
 70
     0
 10
0.0
 20
0.0
 30
0.0
  3
$PAPER_SPACE
  1

  0
ENDBLK
  5
1D
 67
     1
  8
0
  0
BLOCK
  8
0
  2
GENAXEH
 70
     0
 10
0.0
 20
0.0
 30
0.0
  3
GENAXEH
  1

  0
LINE
  5
18F
  8
0
 10
-1.0
 20
0.0
 30
0.0
 11
1.0
 21
0.0
 31
0.0
  0
ENDBLK
  5
191
  8
0
  0
BLOCK
  8
0
  2
*U3
 70
     1
 10
0.0
 20
0.0
 30
0.0
  3
*U3
  1

  0
TEXT
  5
4F3
  8
0
 62
     2
 10
111.30446625421121
 20
119.1969832176779
 30
0.0
 40
3.5
  1
pm-l65
  0
ENDBLK
  5
4F5
  8
0
  0
ENDSEC
  0
SECTION
  2
ENTITIES
  0
LINE
  5
44
  8
0
  6
CONTINUOUS
 62
     7
 10
106.7870505617977
 20
139.39142949438201
 30
0.0
 11
106.2870505617977
 21
139.89142949438201
 31
0.0
  0
LINE
  5
45
  8
0
  6
CONTINUOUS
 62
     7
 10
98.087050561797753
 20
139.341429494382
 30
0.0
 11
98.087050561797753
 21
139.89142949438201
 31
0.0
  0
LINE
  5
46
  8
0
  6
CONTINUOUS
 62
     7
 10
103.88705056179769
 20
134.04142949438199
 30
0.0
 11
103.88705056179769
 21
134.841429494382
 31
0.0
  0
LINE
  5
47
  8
0
  6
CONTINUOUS
 62
     7
 10
97.88705056179775
 20
134.04142949438199
 30
0.0
 11
103.88705056179769
 21
134.04142949438199
 31
0.0
  0
LINE
  5
48
  8
0
  6
CONTINUOUS
 62
     7
 10
95.487050561797744
 20
139.89142949438201
 30
0.0
 11
98.087050561797753
 21
139.89142949438201
 31
0.0
  0
LINE
  5
49
  8
0
  6
CONTINUOUS
 62
     7
 10
103.6870505617977
 20
139.89142949438201
 30
0.0
 11
106.2870505617977
 21
139.89142949438201
 31
0.0
  0
LINE
  5
4A
  8
0
  6
CONTINUOUS
 62
     7
 10
95.887050561797736
 20
135.89142949438201
 30
0.0
 11
96.687050561797761
 21
135.89142949438201
 31
0.0
  0
LINE
  5
4B
  8
0
  6
CONTINUOUS
 62
     7
 10
95.887050561797736
 20
139.341429494382
 30
0.0
 11
95.887050561797736
 21
135.89142949438201
 31
0.0
  0
LINE
  5
4C
  8
0
  6
CONTINUOUS
 62
     7
 10
95.487050561797744
 20
139.89142949438201
 30
0.0
 11
94.987050561797744
 21
139.39142949438201
 31
0.0
  0
LINE
  5
4D
  8
0
  6
CONTINUOUS
 62
     7
 10
105.88705056179769
 20
135.89142949438201
 30
0.0
 11
105.88705056179769
 21
139.341429494382
 31
0.0
  0
LINE
  5
4E
  8
0
  6
CONTINUOUS
 62
     7
 10
97.88705056179775
 20
134.841429494382
 30
0.0
 11
97.88705056179775
 21
134.04142949438199
 31
0.0
  0
LINE
  5
4F
  8
0
  6
CONTINUOUS
 62
     7
 10
103.88705056179769
 20
134.841429494382
 30
0.0
 11
105.0870505617977
 21
134.841429494382
 31
0.0
  0
LINE
  5
50
  8
0
  6
CONTINUOUS
 62
     7
 10
96.687050561797761
 20
134.841429494382
 30
0.0
 11
97.88705056179775
 21
134.841429494382
 31
0.0
  0
LINE
  5
51
  8
0
  6
CONTINUOUS
 62
     7
 10
105.0870505617977
 20
134.841429494382
 30
0.0
 11
105.0870505617977
 21
135.89142949438201
 31
0.0
  0
LINE
  5
52
  8
0
  6
CONTINUOUS
 62
     7
 10
96.687050561797761
 20
135.89142949438201
 30
0.0
 11
96.687050561797761
 21
134.841429494382
 31
0.0
  0
LINE
  5
53
  8
0
  6
CONTINUOUS
 62
     7
 10
105.88705056179769
 20
139.341429494382
 30
0.0
 11
103.6870505617977
 21
139.341429494382
 31
0.0
  0
LINE
  5
54
  8
0
  6
CONTINUOUS
 62
     7
 10
103.6870505617977
 20
139.341429494382
 30
0.0
 11
103.6870505617977
 21
139.89142949438201
 31
0.0
  0
LINE
  5
55
  8
0
  6
CONTINUOUS
 62
     7
 10
94.987050561797744
 20
139.39142949438201
 30
0.0
 11
94.187050561797761
 21
139.39142949438201
 31
0.0
  0
LINE
  5
56
  8
0
  6
CONTINUOUS
 62
     7
 10
107.5870505617977
 20
139.39142949438201
 30
0.0
 11
106.7870505617977
 21
139.39142949438201
 31
0.0
  0
LINE
  5
57
  8
0
  6
CONTINUOUS
 62
     7
 10
105.0870505617977
 20
135.89142949438201
 30
0.0
 11
105.88705056179769
 21
135.89142949438201
 31
0.0
  0
LINE
  5
58
  8
0
  6
CONTINUOUS
 62
     7
 10
98.087050561797753
 20
139.341429494382
 30
0.0
 11
95.887050561797736
 21
139.341429494382
 31
0.0
  0
LINE
  5
59
  8
0
  6
CONTINUOUS
 62
     7
 10
94.187050561797761
 20
139.39142949438201
 30
0.0
 11
94.187050561797761
 21
133.39142949438201
 31
0.0
  0
LINE
  5
5A
  8
0
  6
CONTINUOUS
 62
     7
 10
107.5870505617977
 20
133.39142949438201
 30
0.0
 11
107.5870505617977
 21
139.39142949438201
 31
0.0
  0
LINE
  5
5B
  8
0
  6
CONTINUOUS
 62
     7
 10
94.187050561797761
 20
133.39142949438201
 30
0.0
 11
107.5870505617977
 21
133.39142949438201
 31
0.0
  0
LINE
  5
5C
  8
0
  6
CONTINUOUS
 62
     7
 10
103.88705056179769
 20
134.841429494382
 30
0.0
 11
97.88705056179775
 21
134.841429494382
 31
0.0
  0
LINE
  5
5D
  8
0
  6
CONTINUOUS
 62
     7
 10
98.437050561797747
 20
139.341429494382
 30
0.0
 11
98.087050561797753
 21
139.341429494382
 31
0.0
  0
LINE
  5
5E
  8
0
  6
CONTINUOUS
 62
     7
 10
98.437050561797747
 20
138.241429494382
 30
0.0
 11
98.437050561797747
 21
139.341429494382
 31
0.0
  0
LINE
  5
5F
  8
0
  6
CONTINUOUS
 62
     7
 10
98.437050561797747
 20
138.241429494382
 30
0.0
 11
103.3370505617977
 21
138.241429494382
 31
0.0
  0
LINE
  5
60
  8
0
  6
CONTINUOUS
 62
     7
 10
103.3370505617977
 20
138.241429494382
 30
0.0
 11
103.3370505617977
 21
139.341429494382
 31
0.0
  0
LINE
  5
61
  8
0
  6
CONTINUOUS
 62
     7
 10
96.687050561797761
 20
137.54142949438199
 30
0.0
 11
105.0870505617977
 21
137.54142949438199
 31
0.0
  0
LINE
  5
62
  8
0
  6
CONTINUOUS
 62
     7
 10
103.6870505617977
 20
139.341429494382
 30
0.0
 11
103.3370505617977
 21
139.341429494382
 31
0.0
  0
LINE
  5
63
  8
0
  6
CONTINUOUS
 62
     7
 10
105.0870505617977
 20
137.54142949438199
 30
0.0
 11
105.0870505617977
 21
135.89142949438201
 31
0.0
  0
LINE
  5
64
  8
0
  6
CONTINUOUS
 62
     7
 10
96.687050561797761
 20
135.89142949438201
 30
0.0
 11
96.687050561797761
 21
137.54142949438199
 31
0.0
  0
LINE
  5
65
  8
0
  6
CONTINUOUS
 62
     7
 10
102.13705056179769
 20
136.491429494382
 30
0.0
 11
101.63705056179769
 21
136.491429494382
 31
0.0
  0
LINE
  5
66
  8
0
  6
CONTINUOUS
 62
     7
 10
102.13705056179769
 20
135.991429494382
 30
0.0
 11
102.13705056179769
 21
136.491429494382
 31
0.0
  0
LINE
  5
67
  8
0
  6
CONTINUOUS
 62
     7
 10
101.63705056179769
 20
135.991429494382
 30
0.0
 11
102.13705056179769
 21
135.991429494382
 31
0.0
  0
LINE
  5
68
  8
0
  6
CONTINUOUS
 62
     7
 10
101.63705056179769
 20
136.491429494382
 30
0.0
 11
101.63705056179769
 21
135.991429494382
 31
0.0
  0
LINE
  5
69
  8
0
  6
CONTINUOUS
 62
     7
 10
104.13705056179769
 20
136.491429494382
 30
0.0
 11
103.63705056179769
 21
136.491429494382
 31
0.0
  0
LINE
  5
6A
  8
0
  6
CONTINUOUS
 62
     7
 10
104.13705056179769
 20
135.991429494382
 30
0.0
 11
104.13705056179769
 21
136.491429494382
 31
0.0
  0
LINE
  5
6B
  8
0
  6
CONTINUOUS
 62
     7
 10
103.63705056179769
 20
135.991429494382
 30
0.0
 11
104.13705056179769
 21
135.991429494382
 31
0.0
  0
LINE
  5
6C
  8
0
  6
CONTINUOUS
 62
     7
 10
103.63705056179769
 20
136.491429494382
 30
0.0
 11
103.63705056179769
 21
135.991429494382
 31
0.0
  0
LINE
  5
6D
  8
0
  6
CONTINUOUS
 62
     7
 10
98.137050561797764
 20
136.491429494382
 30
0.0
 11
97.63705056179775
 21
136.491429494382
 31
0.0
  0
LINE
  5
6E
  8
0
  6
CONTINUOUS
 62
     7
 10
98.137050561797764
 20
135.991429494382
 30
0.0
 11
98.137050561797764
 21
136.491429494382
 31
0.0
  0
LINE
  5
6F
  8
0
  6
CONTINUOUS
 62
     7
 10
97.63705056179775
 20
135.991429494382
 30
0.0
 11
98.137050561797764
 21
135.991429494382
 31
0.0
  0
LINE
  5
70
  8
0
  6
CONTINUOUS
 62
     7
 10
97.63705056179775
 20
136.491429494382
 30
0.0
 11
97.63705056179775
 21
135.991429494382
 31
0.0
  0
LINE
  5
71
  8
0
  6
CONTINUOUS
 62
     7
 10
100.13705056179769
 20
136.491429494382
 30
0.0
 11
99.637050561797764
 21
136.491429494382
 31
0.0
  0
LINE
  5
72
  8
0
  6
CONTINUOUS
 62
     7
 10
100.13705056179769
 20
135.991429494382
 30
0.0
 11
100.13705056179769
 21
136.491429494382
 31
0.0
  0
LINE
  5
73
  8
0
  6
CONTINUOUS
 62
     7
 10
99.637050561797764
 20
135.991429494382
 30
0.0
 11
100.13705056179769
 21
135.991429494382
 31
0.0
  0
LINE
  5
74
  8
0
  6
CONTINUOUS
 62
     7
 10
99.637050561797764
 20
136.491429494382
 30
0.0
 11
99.637050561797764
 21
135.991429494382
 31
0.0
  0
LINE
  5
75
  8
0
  6
CONTINUOUS
 62
     7
 10
100.0870505617977
 20
138.841429494382
 30
0.0
 11
100.0870505617977
 21
138.241429494382
 31
0.0
  0
LINE
  5
76
  8
0
  6
CONTINUOUS
 62
     7
 10
100.0870505617977
 20
138.841429494382
 30
0.0
 11
101.6870505617977
 21
138.841429494382
 31
0.0
  0
LINE
  5
77
  8
0
  6
CONTINUOUS
 62
     7
 10
101.6870505617977
 20
138.841429494382
 30
0.0
 11
101.6870505617977
 21
138.241429494382
 31
0.0
  0
LINE
  5
78
  8
0
  6
CONTINUOUS
 62
     7
 10
103.6870505617977
 20
139.89142949438201
 30
0.0
 11
98.087050561797753
 21
139.89142949438201
 31
0.0
  0
LINE
  5
79
  8
0
  6
CONTINUOUS
 62
     7
 10
87.787050561797756
 20
140.591429494382
 30
0.0
 11
87.787050561797756
 21
133.39142949438201
 31
0.0
  0
LINE
  5
7A
  8
0
  6
CONTINUOUS
 62
     7
 10
94.187050561797761
 20
140.591429494382
 30
0.0
 11
87.787050561797756
 21
140.591429494382
 31
0.0
  0
LINE
  5
7B
  8
0
  6
CONTINUOUS
 62
     7
 10
94.187050561797761
 20
140.591429494382
 30
0.0
 11
94.187050561797761
 21
139.39142949438201
 31
0.0
  0
CIRCLE
  5
7C
  8
0
  6
CONTINUOUS
 62
     7
 10
90.887050561797764
 20
137.29142949438199
 30
0.0
 40
1.5999999999999941
  0
LINE
  5
7D
  8
0
  6
CONTINUOUS
 62
     7
 10
94.187050561797761
 20
133.39142949438201
 30
0.0
 11
87.787050561797756
 21
133.39142949438201
 31
0.0
  0
LINE
  5
7E
  8
0
  6
CONTINUOUS
 62
     7
 10
107.5870505617977
 20
140.591429494382
 30
0.0
 11
107.5870505617977
 21
139.39142949438201
 31
0.0
  0
LINE
  5
7F
  8
0
  6
CONTINUOUS
 62
     7
 10
113.9870505617977
 20
140.591429494382
 30
0.0
 11
107.5870505617977
 21
140.591429494382
 31
0.0
  0
LINE
  5
80
  8
0
  6
CONTINUOUS
 62
     7
 10
113.9870505617977
 20
140.591429494382
 30
0.0
 11
113.9870505617977
 21
133.39142949438201
 31
0.0
  0
CIRCLE
  5
81
  8
0
  6
CONTINUOUS
 62
     7
 10
110.88705056179769
 20
137.29142949438199
 30
0.0
 40
1.6000000000000081
  0
LINE
  5
82
  8
0
  6
CONTINUOUS
 62
     7
 10
113.9870505617977
 20
133.39142949438201
 30
0.0
 11
107.5870505617977
 21
133.39142949438201
 31
0.0
  0
LINE
  5
83
  8
0
  6
CONTINUOUS
 62
     7
 10
94.187050561797761
 20
140.591429494382
 30
0.0
 11
94.187050561797761
 21
148.29142949438199
 31
0.0
  0
LINE
  5
84
  8
0
  6
CONTINUOUS
 62
     7
 10
94.187050561797761
 20
148.29142949438199
 30
0.0
 11
97.88705056179775
 21
148.29142949438199
 31
0.0
  0
LINE
  5
85
  8
0
  6
CONTINUOUS
 62
     7
 10
97.88705056179775
 20
148.29142949438199
 30
0.0
 11
97.88705056179775
 21
139.89142949438201
 31
0.0
  0
LINE
  5
86
  8
0
  6
CONTINUOUS
 62
     7
 10
103.88705056179769
 20
148.29142949438199
 30
0.0
 11
107.5870505617977
 21
148.29142949438199
 31
0.0
  0
LINE
  5
87
  8
0
  6
CONTINUOUS
 62
     7
 10
107.5870505617977
 20
148.29142949438199
 30
0.0
 11
107.5870505617977
 21
140.591429494382
 31
0.0
  0
LINE
  5
88
  8
0
  6
CONTINUOUS
 62
     7
 10
103.88705056179769
 20
139.89142949438201
 30
0.0
 11
103.88705056179769
 21
148.29142949438199
 31
0.0
  0
LINE
  5
89
  8
0
  6
CONTINUOUS
 62
     7
 10
94.187050561797761
 20
175.9459550561798
 30
0.0
 11
97.88705056179775
 21
175.9459550561798
 31
0.0
  0
LINE
  5
8A
  8
0
  6
CONTINUOUS
 62
     7
 10
94.187050561797761
 20
175.9459550561798
 30
0.0
 11
94.187050561797761
 21
181.94595505617971
 31
0.0
  0
LINE
  5
92
  8
0
  6
CONTINUOUS
 62
     7
 10
97.88705056179775
 20
175.9459550561798
 30
0.0
 11
97.88705056179775
 21
181.94595505617971
 31
0.0
  0
LINE
  5
93
  8
0
  6
CONTINUOUS
 62
     7
 10
94.187050561797761
 20
181.94595505617971
 30
0.0
 11
97.88705056179775
 21
181.94595505617971
 31
0.0
  0
LINE
  5
94
  8
0
  6
CONTINUOUS
 62
     7
 10
103.88705056179769
 20
175.9459550561798
 30
0.0
 11
107.5870505617977
 21
175.9459550561798
 31
0.0
  0
LINE
  5
95
  8
0
  6
CONTINUOUS
 62
     7
 10
103.88705056179769
 20
175.9459550561798
 30
0.0
 11
103.88705056179769
 21
181.94595505617971
 31
0.0
  0
LINE
  5
9D
  8
0
  6
CONTINUOUS
 62
     7
 10
107.5870505617977
 20
175.9459550561798
 30
0.0
 11
107.5870505617977
 21
181.94595505617971
 31
0.0
  0
LINE
  5
9E
  8
0
  6
CONTINUOUS
 62
     7
 10
103.88705056179769
 20
181.94595505617971
 30
0.0
 11
107.5870505617977
 21
181.94595505617971
 31
0.0
  0
LINE
  5
9F
  8
0
  6
CONTINUOUS
 62
     7
 10
107.5870505617977
 20
182.44595505617971
 30
0.0
 11
113.9870505617977
 21
182.44595505617971
 31
0.0
  0
LINE
  5
A0
  8
0
  6
CONTINUOUS
 62
     7
 10
113.9870505617977
 20
182.44595505617971
 30
0.0
 11
113.9870505617977
 21
175.44595505617971
 31
0.0
  0
LINE
  5
A1
  8
0
  6
CONTINUOUS
 62
     7
 10
113.9870505617977
 20
175.44595505617971
 30
0.0
 11
107.5870505617977
 21
175.44595505617971
 31
0.0
  0
LINE
  5
A2
  8
0
  6
CONTINUOUS
 62
     7
 10
109.2370505617977
 20
177.73868540941481
 30
0.0
 11
109.2370505617977
 21
177.34595505617969
 31
0.0
  0
LINE
  5
A3
  8
0
  6
CONTINUOUS
 62
     7
 10
109.2370505617977
 20
177.34595505617969
 30
0.0
 11
112.5870505617977
 21
177.34595505617969
 31
0.0
  0
LINE
  5
A4
  8
0
  6
CONTINUOUS
 62
     7
 10
112.5870505617977
 20
177.34595505617969
 30
0.0
 11
112.5870505617977
 21
180.54595505617971
 31
0.0
  0
LINE
  5
A5
  8
0
  6
CONTINUOUS
 62
     7
 10
112.5870505617977
 20
180.54595505617971
 30
0.0
 11
109.2370505617977
 21
180.54595505617971
 31
0.0
  0
LINE
  5
A6
  8
0
  6
CONTINUOUS
 62
     7
 10
109.2370505617977
 20
180.54595505617971
 30
0.0
 11
109.2370505617977
 21
180.1532247029447
 31
0.0
  0
ARC
  5
A7
  8
0
  6
CONTINUOUS
 62
     7
 10
110.2870505617977
 20
178.9459550561798
 30
0.0
 40
1.6000000000000141
 50
131.0144996657306
 51
228.98550033427091
  0
LINE
  5
A8
  8
0
  6
CONTINUOUS
 62
     7
 10
107.5870505617977
 20
175.44595505617971
 30
0.0
 11
107.5870505617977
 21
175.9459550561798
 31
0.0
  0
LINE
  5
A9
  8
0
  6
CONTINUOUS
 62
     7
 10
107.5870505617977
 20
181.94595505617971
 30
0.0
 11
107.5870505617977
 21
182.44595505617971
 31
0.0
  0
LINE
  5
AA
  8
0
  6
CONTINUOUS
 62
     7
 10
87.787050561797756
 20
175.44595505617971
 30
0.0
 11
87.787050561797756
 21
182.44595505617971
 31
0.0
  0
LINE
  5
AB
  8
0
  6
CONTINUOUS
 62
     7
 10
94.187050561797761
 20
175.44595505617971
 30
0.0
 11
87.787050561797756
 21
175.44595505617971
 31
0.0
  0
ARC
  5
AC
  8
0
  6
CONTINUOUS
 62
     7
 10
91.487050561797759
 20
178.9459550561798
 30
0.0
 40
1.6000000000000141
 50
311.01449966573068
 51
48.985500334269389
  0
LINE
  5
AD
  8
0
  6
CONTINUOUS
 62
     7
 10
92.537050561797756
 20
180.1532247029447
 30
0.0
 11
92.537050561797756
 21
180.54595505617971
 31
0.0
  0
LINE
  5
AE
  8
0
  6
CONTINUOUS
 62
     7
 10
92.537050561797756
 20
180.54595505617971
 30
0.0
 11
89.187050561797733
 21
180.54595505617971
 31
0.0
  0
LINE
  5
AF
  8
0
  6
CONTINUOUS
 62
     7
 10
89.187050561797733
 20
180.54595505617971
 30
0.0
 11
89.187050561797733
 21
177.34595505617969
 31
0.0
  0
LINE
  5
B0
  8
0
  6
CONTINUOUS
 62
     7
 10
89.187050561797733
 20
177.34595505617969
 30
0.0
 11
92.537050561797756
 21
177.34595505617969
 31
0.0
  0
LINE
  5
B1
  8
0
  6
CONTINUOUS
 62
     7
 10
92.537050561797756
 20
177.34595505617969
 30
0.0
 11
92.537050561797756
 21
177.73868540941481
 31
0.0
  0
LINE
  5
B2
  8
0
  6
CONTINUOUS
 62
     7
 10
87.787050561797756
 20
182.44595505617971
 30
0.0
 11
94.187050561797761
 21
182.44595505617971
 31
0.0
  0
LINE
  5
B3
  8
0
  6
CONTINUOUS
 62
     7
 10
94.187050561797761
 20
175.9459550561798
 30
0.0
 11
94.187050561797761
 21
175.44595505617971
 31
0.0
  0
LINE
  5
B4
  8
0
  6
CONTINUOUS
 62
     7
 10
94.187050561797761
 20
182.44595505617971
 30
0.0
 11
94.187050561797761
 21
181.94595505617971
 31
0.0
  0
LINE
  5
B6
  8
0
  6
CONTINUOUS
 62
     7
 10
103.88705056179769
 20
181.1459550561797
 30
0.0
 11
97.88705056179775
 21
181.1459550561797
 31
0.0
  0
LINE
  5
B7
  8
0
  6
CONTINUOUS
 62
     7
 10
97.88705056179775
 20
176.7459550561797
 30
0.0
 11
103.88705056179769
 21
176.7459550561797
 31
0.0
  0
LINE
  5
B9
  8
0
  6
CONTINUOUS
 62
     7
 10
106.7870505617977
 20
175.04595505617971
 30
0.0
 11
94.987050561797744
 21
175.04595505617971
 31
0.0
  0
LINE
  5
BA
  8
0
  6
CONTINUOUS
 62
     7
 10
106.7870505617977
 20
175.04595505617971
 30
0.0
 11
106.2870505617977
 21
174.54595505617971
 31
0.0
  0
LINE
  5
BB
  8
0
  6
CONTINUOUS
 62
     7
 10
106.2870505617977
 20
174.54595505617971
 30
0.0
 11
95.487050561797744
 21
174.54595505617971
 31
0.0
  0
LINE
  5
BC
  8
0
  6
CONTINUOUS
 62
     7
 10
94.987050561797744
 20
175.04595505617971
 30
0.0
 11
95.487050561797744
 21
174.54595505617971
 31
0.0
  0
LINE
  5
BD
  8
0
  6
CONTINUOUS
 62
     7
 10
94.987050561797744
 20
175.04595505617971
 30
0.0
 11
94.987050561797744
 21
166.7459550561797
 31
0.0
  0
LINE
  5
BE
  8
0
  6
CONTINUOUS
 62
     7
 10
95.487050561797744
 20
174.54595505617971
 30
0.0
 11
95.487050561797744
 21
166.7459550561797
 31
0.0
  0
LINE
  5
BF
  8
0
  6
CONTINUOUS
 62
     7
 10
95.487050561797744
 20
166.7459550561797
 30
0.0
 11
94.987050561797744
 21
166.7459550561797
 31
0.0
  0
LINE
  5
C0
  8
0
  6
CONTINUOUS
 62
     7
 10
106.2870505617977
 20
166.7459550561797
 30
0.0
 11
106.2870505617977
 21
174.54595505617971
 31
0.0
  0
LINE
  5
C1
  8
0
  6
CONTINUOUS
 62
     7
 10
106.7870505617977
 20
166.7459550561797
 30
0.0
 11
106.7870505617977
 21
175.04595505617971
 31
0.0
  0
LINE
  5
C2
  8
0
  6
CONTINUOUS
 62
     7
 10
106.7870505617977
 20
166.7459550561797
 30
0.0
 11
106.2870505617977
 21
166.7459550561797
 31
0.0
  0
LINE
  5
C3
  8
0
  6
CONTINUOUS
 62
     7
 10
103.6870505617977
 20
172.9459550561798
 30
0.0
 11
98.087050561797753
 21
172.9459550561798
 31
0.0
  0
LINE
  5
C4
  8
0
  6
CONTINUOUS
 62
     7
 10
98.087050561797753
 20
172.9459550561798
 30
0.0
 11
98.087050561797753
 21
166.7459550561797
 31
0.0
  0
LINE
  5
C5
  8
0
  6
CONTINUOUS
 62
     7
 10
95.487050561797744
 20
166.7459550561797
 30
0.0
 11
98.087050561797753
 21
166.7459550561797
 31
0.0
  0
LINE
  5
C6
  8
0
  6
CONTINUOUS
 62
     7
 10
103.6870505617977
 20
166.7459550561797
 30
0.0
 11
106.2870505617977
 21
166.7459550561797
 31
0.0
  0
LINE
  5
C7
  8
0
  6
CONTINUOUS
 62
     7
 10
103.6870505617977
 20
166.7459550561797
 30
0.0
 11
103.6870505617977
 21
172.9459550561798
 31
0.0
  0
LINE
  5
C8
  8
0
  6
CONTINUOUS
 62
     7
 10
94.187050561797761
 20
166.7459550561797
 30
0.0
 11
94.187050561797761
 21
175.44595505617971
 31
0.0
  0
LINE
  5
C9
  8
0
  6
CONTINUOUS
 62
     7
 10
103.88705056179769
 20
175.9459550561798
 30
0.0
 11
97.88705056179775
 21
175.9459550561798
 31
0.0
  0
LINE
  5
CA
  8
0
  6
CONTINUOUS
 62
     7
 10
107.5870505617977
 20
166.7459550561797
 30
0.0
 11
107.5870505617977
 21
175.44595505617971
 31
0.0
  0
LINE
  5
CB
  8
0
  6
CONTINUOUS
 62
     7
 10
107.5870505617977
 20
166.7459550561797
 30
0.0
 11
106.7870505617977
 21
166.7459550561797
 31
0.0
  0
LINE
  5
CC
  8
0
  6
CONTINUOUS
 62
     7
 10
94.987050561797744
 20
166.7459550561797
 30
0.0
 11
94.187050561797761
 21
166.7459550561797
 31
0.0
  0
LINE
  5
D1
  8
0
  6
CONTINUOUS
 62
     7
 10
103.88705056179769
 20
181.94595505617971
 30
0.0
 11
97.88705056179775
 21
181.94595505617971
 31
0.0
  0
LINE
  5
D2
  8
0
  6
CONTINUOUS
 62
     7
 10
100.0870505617977
 20
169.5059550561798
 30
0.0
 11
101.6870505617977
 21
169.5059550561798
 31
0.0
  0
LINE
  5
D3
  8
0
  6
CONTINUOUS
 62
     7
 10
101.6870505617977
 20
171.34595505617969
 30
0.0
 11
100.0870505617977
 21
171.34595505617969
 31
0.0
  0
LINE
  5
D4
  8
0
  6
CONTINUOUS
 62
     7
 10
101.6870505617977
 20
169.5059550561798
 30
0.0
 11
101.6870505617977
 21
171.34595505617969
 31
0.0
  0
LINE
  5
D5
  8
0
  6
CONTINUOUS
 62
     7
 10
100.0870505617977
 20
171.34595505617969
 30
0.0
 11
100.0870505617977
 21
169.5059550561798
 31
0.0
  0
LINE
  5
D7
  8
0
  6
CONTINUOUS
 62
     7
 10
103.6870505617977
 20
168.04595505617971
 30
0.0
 11
98.087050561797753
 21
168.04595505617971
 31
0.0
  0
LINE
  5
D8
  8
0
  6
CONTINUOUS
 62
     7
 10
98.087050561797753
 20
166.7459550561797
 30
0.0
 11
103.6870505617977
 21
166.7459550561797
 31
0.0
  0
LINE
  5
D9
  8
0
  6
CONTINUOUS
 62
     7
 10
151.5684550561798
 20
140.591429494382
 30
0.0
 11
144.5684550561798
 21
140.591429494382
 31
0.0
  0
LINE
  5
DA
  8
0
  6
CONTINUOUS
 62
     7
 10
151.5684550561798
 20
140.591429494382
 30
0.0
 11
151.5684550561798
 21
133.39142949438201
 31
0.0
  0
LINE
  5
DB
  8
0
  6
CONTINUOUS
 62
     7
 10
144.5684550561798
 20
140.591429494382
 30
0.0
 11
144.5684550561798
 21
133.39142949438201
 31
0.0
  0
LINE
  5
DC
  8
0
  6
CONTINUOUS
 62
     7
 10
151.5684550561798
 20
133.39142949438201
 30
0.0
 11
144.5684550561798
 21
133.39142949438201
 31
0.0
  0
LINE
  5
DD
  8
0
  6
CONTINUOUS
 62
     7
 10
135.86845505617981
 20
133.39142949438201
 30
0.0
 11
135.86845505617981
 21
139.39142949438201
 31
0.0
  0
LINE
  5
DE
  8
0
  6
CONTINUOUS
 62
     7
 10
135.86845505617981
 20
139.39142949438201
 30
0.0
 11
144.5684550561798
 21
139.39142949438201
 31
0.0
  0
LINE
  5
DF
  8
0
  6
CONTINUOUS
 62
     7
 10
135.86845505617981
 20
133.39142949438201
 30
0.0
 11
144.5684550561798
 21
133.39142949438201
 31
0.0
  0
LINE
  5
E0
  8
0
  6
CONTINUOUS
 62
     7
 10
145.0684550561798
 20
148.29142949438199
 30
0.0
 11
151.0684550561798
 21
148.29142949438199
 31
0.0
  0
LINE
  5
E1
  8
0
  6
CONTINUOUS
 62
     7
 10
151.0684550561798
 20
148.29142949438199
 30
0.0
 11
151.0684550561798
 21
140.591429494382
 31
0.0
  0
LINE
  5
E2
  8
0
  6
CONTINUOUS
 62
     7
 10
145.0684550561798
 20
148.29142949438199
 30
0.0
 11
145.0684550561798
 21
140.591429494382
 31
0.0
  0
LINE
  5
E3
  8
0
  6
CONTINUOUS
 62
     7
 10
135.86845505617981
 20
139.89142949438201
 30
0.0
 11
143.66845505617979
 21
139.89142949438201
 31
0.0
  0
LINE
  5
E4
  8
0
  6
CONTINUOUS
 62
     7
 10
144.16845505617979
 20
139.39142949438201
 30
0.0
 11
143.66845505617979
 21
139.89142949438201
 31
0.0
  0
LINE
  5
E5
  8
0
  6
CONTINUOUS
 62
     7
 10
135.86845505617981
 20
139.39142949438201
 30
0.0
 11
135.86845505617981
 21
139.89142949438201
 31
0.0
  0
INSERT
  5
1B7
  8
0
  2
*U3
 10
0.0
 20
0.0
 30
0.0
  0
LINE
  5
1E4
  8
0
 62
     2
 10
102.7969409354356
 20
178.9459550561798
 30
0.0
 11
101.7126246476612
 21
178.4979941017626
 31
0.0
  0
LINE
  5
1E5
  8
0
 62
     2
 10
102.7969409354356
 20
178.9459550561798
 30
0.0
 11
101.7126246476612
 21
179.42284669782291
 31
0.0
  0
LINE
  5
1E6
  8
0
 62
     2
 10
99.157678764970257
 20
178.9459550561798
 30
0.0
 11
102.7969409354356
 21
178.9459550561798
 31
0.0
  0
LINE
  5
1EF
  8
0
 62
     2
 10
102.7969409354356
 20
178.9459550561798
 30
0.0
 11
101.7126246476612
 21
178.4979941017626
 31
0.0
  0
LINE
  5
1F0
  8
0
 62
     2
 10
102.7969409354356
 20
178.9459550561798
 30
0.0
 11
101.7126246476612
 21
179.42284669782291
 31
0.0
  0
LINE
  5
1F1
  8
0
 62
     2
 10
99.157678764970257
 20
178.9459550561798
 30
0.0
 11
102.7969409354356
 21
178.9459550561798
 31
0.0
  0
LINE
  5
210
  8
0
 62
     2
 10
102.7969409354356
 20
146.29142949438199
 30
0.0
 11
101.7202278203854
 21
145.8254899097854
 31
0.0
  0
LINE
  5
211
  8
0
 62
     2
 10
102.7969409354356
 20
146.29142949438199
 30
0.0
 11
101.70484030923259
 21
146.7502144898308
 31
0.0
  0
LINE
  5
212
  8
0
 62
     2
 10
99.157678764970257
 20
146.29142949438199
 30
0.0
 11
102.7969409354356
 21
146.29142949438199
 31
0.0
  0
LINE
  5
23E
  8
0
  6
AM_ISO08W050X2
 62
     4
 10
87.096379575791275
 20
178.9459550561798
 30
0.0
 11
98.410929882931782
 21
178.9459550561798
 31
0.0
  0
LINE
  5
240
  8
0
  6
AM_ISO08W050X2
 62
     4
 10
103.49586635563161
 20
178.9459550561798
 30
0.0
 11
114.5722539693153
 21
178.9459550561798
 31
0.0
  0
LINE
  5
242
  8
0
  6
AM_ISO08W050X2
 62
     4
 10
100.88705056179769
 20
184.00880452083319
 30
0.0
 11
100.88705056179769
 21
164.60904274960899
 31
0.0
  0
LINE
  5
24A
  8
0
  6
AM_ISO08W050X2
 62
     4
 10
110.88705056179769
 20
181.25640469184739
 30
0.0
 11
110.88705056179769
 21
176.6570207508347
 31
0.0
  0
LINE
  5
24B
  8
0
  6
AM_ISO08W050X2
 62
     4
 10
90.887050561797736
 20
181.25640469184739
 30
0.0
 11
90.887050561797736
 21
176.6570207508347
 31
0.0
  0
LINE
  5
24C
  8
0
  6
AM_ISO08W050X2
 62
     4
 10
98.468216389370923
 20
146.29142949438199
 30
0.0
 11
93.660779203553943
 21
146.29142949438199
 31
0.0
  0
LINE
  5
24E
  8
0
  6
AM_ISO08W050X2
 62
     4
 10
103.3313903051483
 20
146.29142949438199
 30
0.0
 11
108.0239360630563
 21
146.29142949438199
 31
0.0
  0
LINE
  5
250
  8
0
  6
AM_ISO08W050X2
 62
     4
 10
100.88705056179769
 20
149.27277810268359
 30
0.0
 11
100.88705056179769
 21
131.9112090474564
 31
0.0
  0
LINE
  5
252
  8
0
  6
AM_ISO08W050X2
 62
     4
 10
110.88705056179769
 20
139.6033885272717
 30
0.0
 11
110.88705056179769
 21
134.83239052498931
 31
0.0
  0
LINE
  5
254
  8
0
  6
AM_ISO08W050X2
 62
     4
 10
90.887050561797764
 20
139.64487549047439
 30
0.0
 11
90.887050561797764
 21
135.1642862306108
 31
0.0
  0
LINE
  5
256
  8
0
  6
AM_ISO08W050X2
 62
     4
 10
88.585844017727709
 20
137.29142949438199
 30
0.0
 11
93.438727605681024
 21
137.29142949438199
 31
0.0
  0
LINE
  5
258
  8
0
  6
AM_ISO08W050X2
 62
     4
 10
108.3706794570022
 20
137.29142949438199
 30
0.0
 11
113.4309511019234
 21
137.29142949438199
 31
0.0
  0
LINE
  5
25A
  8
0
  6
AM_ISO08W050X2
 62
     4
 10
153.3040045319857
 20
137.29142949438199
 30
0.0
 11
143.72486079167521
 21
137.29142949438199
 31
0.0
  0
LINE
  5
268
  8
0
  6
AM_ISO08W050X2
 62
     4
 10
148.0684550561798
 20
149.43266143899649
 30
0.0
 11
148.0684550561798
 21
131.96821135349401
 31
0.0
  0
LINE
  5
399
  8
0
  6
AM_ISO08W050X2
 62
     4
 10
144.09904796361641
 20
146.29142949438199
 30
0.0
 11
152.23860434323839
 21
146.29142949438199
 31
0.0
  0
ENDSEC
  0
EOF
