ISO-10303-21;
HEADER;
FILE_DESCRIPTION (( 'STEP AP203' ),
    '1' );
FILE_NAME ('ex-24a.STEP',
    '2015-05-26T00:36:03',
    ( '' ),
    ( '' ),
    'SwSTEP 2.0',
    'SolidWorks 2010',
    '' );
FILE_SCHEMA (( 'CONFIG_CONTROL_DESIGN' ));
ENDSEC;

DATA;
#1 = ADVANCED_FACE ( 'NONE', ( #599 ), #602, .F. ) ;
#2 = ADVANCED_FACE ( 'NONE', ( #577 ), #303, .F. ) ;
#3 = ADVANCED_FACE ( 'NONE', ( #600, #605 ), #326, .F. ) ;
#4 = ADVANCED_FACE ( 'NONE', ( #601 ), #341, .F. ) ;
#5 = ADVANCED_FACE ( 'NONE', ( #606 ), #609, .F. ) ;
#6 = ADVANCED_FACE ( 'NONE', ( #604 ), #385, .F. ) ;
#7 = ADVANCED_FACE ( 'NONE', ( #607, #611 ), #388, .T. ) ;
#8 = ADVANCED_FACE ( 'NONE', ( #608 ), #614, .F. ) ;
#9 = ADVANCED_FACE ( 'NONE', ( #612 ), #616, .F. ) ;
#10 = ADVANCED_FACE ( 'NONE', ( #610 ), #618, .T. ) ;
#11 = ADVANCED_FACE ( 'NONE', ( #613 ), #253, .T. ) ;
#12 = ADVANCED_FACE ( 'NONE', ( #603 ), #621, .F. ) ;
#13 = ADVANCED_FACE ( 'NONE', ( #615 ), #410, .T. ) ;
#14 = ADVANCED_FACE ( 'NONE', ( #617 ), #255, .F. ) ;
#15 = ADVANCED_FACE ( 'NONE', ( #619 ), #264, .F. ) ;
#16 = ADVANCED_FACE ( 'NONE', ( #620 ), #393, .F. ) ;
#17 = ADVANCED_FACE ( 'NONE', ( #622 ), #403, .T. ) ;
#18 = ADVANCED_FACE ( 'NONE', ( #623 ), #396, .F. ) ;
#19 = ADVANCED_FACE ( 'NONE', ( #624 ), #412, .F. ) ;
#20 = ADVANCED_FACE ( 'NONE', ( #625 ), #283, .F. ) ;
#21 = ADVANCED_FACE ( 'NONE', ( #626 ), #299, .T. ) ;
#22 = ADVANCED_FACE ( 'NONE', ( #627 ), #632, .F. ) ;
#23 = ADVANCED_FACE ( 'NONE', ( #628 ), #379, .T. ) ;
#24 = ADVANCED_FACE ( 'NONE', ( #629 ), #635, .F. ) ;
#25 = ADVANCED_FACE ( 'NONE', ( #630 ), #637, .F. ) ;
#26 = ADVANCED_FACE ( 'NONE', ( #631 ), #639, .F. ) ;
#27 = ADVANCED_FACE ( 'NONE', ( #633 ), #641, .T. ) ;
#28 = ADVANCED_FACE ( 'NONE', ( #634 ), #293, .T. ) ;
#29 = ADVANCED_FACE ( 'NONE', ( #636 ), #347, .T. ) ;
#30 = ORIENTED_EDGE ( 'NONE', *, *, #1141, .F. ) ;
#31 = ORIENTED_EDGE ( 'NONE', *, *, #1166, .T. ) ;
#32 = CLOSED_SHELL ( 'NONE', ( #1287, #26, #27, #25, #24, #1285, #1286, #1084, #1085, #1083, #29, #28, #1289, #1288, #727, #1211, #1, #2, #3, #4, #5, #6, #7, #8, #9, #10, #11, #12, #13, #14, #15, #16, #17, #18, #19, #20, #21, #22, #23 ) ) ;
#33 = ORIENTED_EDGE ( 'NONE', *, *, #1193, .F. ) ;
#34 = ORIENTED_EDGE ( 'NONE', *, *, #1189, .T. ) ;
#35 = ORIENTED_EDGE ( 'NONE', *, *, #1114, .F. ) ;
#36 = ORIENTED_EDGE ( 'NONE', *, *, #1106, .T. ) ;
#37 = ORIENTED_EDGE ( 'NONE', *, *, #1126, .F. ) ;
#38 = ORIENTED_EDGE ( 'NONE', *, *, #1108, .T. ) ;
#39 = ORIENTED_EDGE ( 'NONE', *, *, #1155, .T. ) ;
#40 = ORIENTED_EDGE ( 'NONE', *, *, #1105, .F. ) ;
#41 = ORIENTED_EDGE ( 'NONE', *, *, #1163, .F. ) ;
#42 = ORIENTED_EDGE ( 'NONE', *, *, #1189, .F. ) ;
#43 = ORIENTED_EDGE ( 'NONE', *, *, #1106, .F. ) ;
#44 = ORIENTED_EDGE ( 'NONE', *, *, #1107, .T. ) ;
#45 = ORIENTED_EDGE ( 'NONE', *, *, #1142, .F. ) ;
#46 = ORIENTED_EDGE ( 'NONE', *, *, #1159, .F. ) ;
#47 = ORIENTED_EDGE ( 'NONE', *, *, #1110, .F. ) ;
#48 = ORIENTED_EDGE ( 'NONE', *, *, #1196, .T. ) ;
#49 = ORIENTED_EDGE ( 'NONE', *, *, #1109, .T. ) ;
#50 = ORIENTED_EDGE ( 'NONE', *, *, #1208, .T. ) ;
#51 = ORIENTED_EDGE ( 'NONE', *, *, #1172, .T. ) ;
#52 = ORIENTED_EDGE ( 'NONE', *, *, #1116, .F. ) ;
#53 = ORIENTED_EDGE ( 'NONE', *, *, #1205, .F. ) ;
#54 = ORIENTED_EDGE ( 'NONE', *, *, #1177, .T. ) ;
#55 = ORIENTED_EDGE ( 'NONE', *, *, #1105, .T. ) ;
#56 = ORIENTED_EDGE ( 'NONE', *, *, #1203, .T. ) ;
#57 = ORIENTED_EDGE ( 'NONE', *, *, #1125, .F. ) ;
#58 = ORIENTED_EDGE ( 'NONE', *, *, #1126, .T. ) ;
#59 = ORIENTED_EDGE ( 'NONE', *, *, #1134, .F. ) ;
#60 = ORIENTED_EDGE ( 'NONE', *, *, #1163, .T. ) ;
#61 = ORIENTED_EDGE ( 'NONE', *, *, #1121, .F. ) ;
#62 = ORIENTED_EDGE ( 'NONE', *, *, #1148, .F. ) ;
#63 = ORIENTED_EDGE ( 'NONE', *, *, #1152, .T. ) ;
#64 = ORIENTED_EDGE ( 'NONE', *, *, #1108, .F. ) ;
#65 = ORIENTED_EDGE ( 'NONE', *, *, #1112, .T. ) ;
#66 = ORIENTED_EDGE ( 'NONE', *, *, #1145, .F. ) ;
#67 = ORIENTED_EDGE ( 'NONE', *, *, #1104, .T. ) ;
#68 = ORIENTED_EDGE ( 'NONE', *, *, #1183, .F. ) ;
#69 = ORIENTED_EDGE ( 'NONE', *, *, #1107, .F. ) ;
#70 = ORIENTED_EDGE ( 'NONE', *, *, #1157, .F. ) ;
#71 = ORIENTED_EDGE ( 'NONE', *, *, #1202, .F. ) ;
#72 = ORIENTED_EDGE ( 'NONE', *, *, #1201, .T. ) ;
#73 = ORIENTED_EDGE ( 'NONE', *, *, #1160, .T. ) ;
#74 = ORIENTED_EDGE ( 'NONE', *, *, #1164, .F. ) ;
#75 = ORIENTED_EDGE ( 'NONE', *, *, #1100, .T. ) ;
#76 = ORIENTED_EDGE ( 'NONE', *, *, #1182, .T. ) ;
#77 = ORIENTED_EDGE ( 'NONE', *, *, #1166, .F. ) ;
#78 = ORIENTED_EDGE ( 'NONE', *, *, #1165, .T. ) ;
#79 = ORIENTED_EDGE ( 'NONE', *, *, #1207, .T. ) ;
#80 = ORIENTED_EDGE ( 'NONE', *, *, #1203, .F. ) ;
#81 = ORIENTED_EDGE ( 'NONE', *, *, #1169, .F. ) ;
#82 = ORIENTED_EDGE ( 'NONE', *, *, #1199, .T. ) ;
#83 = ORIENTED_EDGE ( 'NONE', *, *, #1132, .T. ) ;
#84 = ORIENTED_EDGE ( 'NONE', *, *, #1188, .F. ) ;
#85 = ORIENTED_EDGE ( 'NONE', *, *, #1128, .F. ) ;
#86 = ORIENTED_EDGE ( 'NONE', *, *, #1133, .T. ) ;
#87 = ORIENTED_EDGE ( 'NONE', *, *, #1174, .F. ) ;
#88 = ORIENTED_EDGE ( 'NONE', *, *, #1190, .F. ) ;
#89 = ORIENTED_EDGE ( 'NONE', *, *, #1172, .F. ) ;
#90 = ORIENTED_EDGE ( 'NONE', *, *, #1135, .F. ) ;
#91 = ORIENTED_EDGE ( 'NONE', *, *, #1207, .F. ) ;
#92 = ORIENTED_EDGE ( 'NONE', *, *, #1113, .F. ) ;
#93 = ORIENTED_EDGE ( 'NONE', *, *, #1103, .T. ) ;
#94 = ORIENTED_EDGE ( 'NONE', *, *, #1102, .F. ) ;
#95 = ORIENTED_EDGE ( 'NONE', *, *, #1122, .F. ) ;
#96 = ORIENTED_EDGE ( 'NONE', *, *, #1197, .F. ) ;
#97 = ORIENTED_EDGE ( 'NONE', *, *, #1103, .F. ) ;
#98 = ORIENTED_EDGE ( 'NONE', *, *, #1115, .F. ) ;
#99 = ORIENTED_EDGE ( 'NONE', *, *, #1139, .T. ) ;
#100 = ORIENTED_EDGE ( 'NONE', *, *, #1123, .T. ) ;
#101 = ORIENTED_EDGE ( 'NONE', *, *, #1137, .F. ) ;
#102 = ORIENTED_EDGE ( 'NONE', *, *, #1161, .F. ) ;
#103 = ORIENTED_EDGE ( 'NONE', *, *, #1127, .T. ) ;
#104 = ORIENTED_EDGE ( 'NONE', *, *, #1182, .F. ) ;
#105 = ORIENTED_EDGE ( 'NONE', *, *, #1101, .F. ) ;
#106 = ORIENTED_EDGE ( 'NONE', *, *, #1150, .T. ) ;
#107 = ORIENTED_EDGE ( 'NONE', *, *, #1169, .T. ) ;
#108 = ORIENTED_EDGE ( 'NONE', *, *, #1140, .F. ) ;
#109 = ORIENTED_EDGE ( 'NONE', *, *, #1179, .T. ) ;
#110 = ORIENTED_EDGE ( 'NONE', *, *, #1152, .F. ) ;
#111 = ORIENTED_EDGE ( 'NONE', *, *, #1208, .F. ) ;
#112 = PRODUCT_DEFINITION_SHAPE ( 'NONE', 'NONE',  #1232 ) ;
#113 = DESIGN_CONTEXT ( 'detailed design', #783, 'design' ) ;
#114 = CIRCLE ( 'NONE', #1240, 1.300000000000000000 ) ;
#115 = LINE ( 'NONE', #1007, #121 ) ;
#116 = CIRCLE ( 'NONE', #1250, 1.300000000000000000 ) ;
#117 = LINE ( 'NONE', #1028, #118 ) ;
#118 = VECTOR ( 'NONE', #1032, 1000.000000000000000 ) ;
#119 = LINE ( 'NONE', #1038, #120 ) ;
#120 = VECTOR ( 'NONE', #1040, 1000.000000000000000 ) ;
#121 = VECTOR ( 'NONE', #1050, 1000.000000000000000 ) ;
#122 = LINE ( 'NONE', #1071, #129 ) ;
#123 = LINE ( 'NONE', #1051, #124 ) ;
#124 = VECTOR ( 'NONE', #1054, 1000.000000000000000 ) ;
#125 = VECTOR ( 'NONE', #1064, 1000.000000000000000 ) ;
#126 = VECTOR ( 'NONE', #986, 1000.000000000000000 ) ;
#127 = VECTOR ( 'NONE', #1079, 1000.000000000000000 ) ;
#128 = LINE ( 'NONE', #999, #126 ) ;
#129 = VECTOR ( 'NONE', #985, 1000.000000000000000 ) ;
#130 = VECTOR ( 'NONE', #1005, 1000.000000000000000 ) ;
#131 = VECTOR ( 'NONE', #955, 1000.000000000000000 ) ;
#132 = LINE ( 'NONE', #949, #156 ) ;
#133 = CIRCLE ( 'NONE', #1245, 1.300000000000000000 ) ;
#134 = LINE ( 'NONE', #969, #135 ) ;
#135 = VECTOR ( 'NONE', #971, 1000.000000000000000 ) ;
#136 = LINE ( 'NONE', #956, #131 ) ;
#137 = LINE ( 'NONE', #988, #130 ) ;
#138 = CIRCLE ( 'NONE', #1249, 1.250000000000000900 ) ;
#139 = LINE ( 'NONE', #984, #140 ) ;
#140 = VECTOR ( 'NONE', #961, 1000.000000000000000 ) ;
#141 = LINE ( 'NONE', #940, #157 ) ;
#142 = LINE ( 'NONE', #964, #148 ) ;
#143 = CIRCLE ( 'NONE', #1248, 1.300000000000000000 ) ;
#144 = LINE ( 'NONE', #954, #145 ) ;
#145 = VECTOR ( 'NONE', #953, 1000.000000000000000 ) ;
#146 = LINE ( 'NONE', #952, #147 ) ;
#147 = VECTOR ( 'NONE', #950, 1000.000000000000000 ) ;
#148 = VECTOR ( 'NONE', #948, 1000.000000000000000 ) ;
#149 = LINE ( 'NONE', #946, #151 ) ;
#150 = LINE ( 'NONE', #938, #163 ) ;
#151 = VECTOR ( 'NONE', #945, 1000.000000000000100 ) ;
#152 = LINE ( 'NONE', #944, #153 ) ;
#153 = VECTOR ( 'NONE', #943, 1000.000000000000000 ) ;
#154 = LINE ( 'NONE', #942, #155 ) ;
#155 = VECTOR ( 'NONE', #941, 1000.000000000000000 ) ;
#156 = VECTOR ( 'NONE', #939, 1000.000000000000000 ) ;
#157 = VECTOR ( 'NONE', #936, 1000.000000000000000 ) ;
#158 = VECTOR ( 'NONE', #903, 1000.000000000000000 ) ;
#159 = LINE ( 'NONE', #934, #160 ) ;
#160 = VECTOR ( 'NONE', #933, 1000.000000000000000 ) ;
#161 = LINE ( 'NONE', #932, #162 ) ;
#162 = VECTOR ( 'NONE', #931, 1000.000000000000000 ) ;
#163 = VECTOR ( 'NONE', #929, 1000.000000000000000 ) ;
#164 = LINE ( 'NONE', #917, #167 ) ;
#165 = LINE ( 'NONE', #904, #158 ) ;
#166 = CIRCLE ( 'NONE', #1255, 1.600000000000000300 ) ;
#167 = VECTOR ( 'NONE', #916, 1000.000000000000000 ) ;
#168 = CIRCLE ( 'NONE', #1246, 1.600000000000000300 ) ;
#169 = APPROVAL_DATE_TIME ( #179, #1218 ) ;
#170 = LINE ( 'NONE', #924, #172 ) ;
#171 = CIRCLE ( 'NONE', #1253, 1.600000000000000300 ) ;
#172 = VECTOR ( 'NONE', #909, 1000.000000000000100 ) ;
#173 = LINE ( 'NONE', #899, #175 ) ;
#174 = LINE ( 'NONE', #891, #178 ) ;
#175 = VECTOR ( 'NONE', #897, 1000.000000000000000 ) ;
#176 = CIRCLE ( 'NONE', #1252, 1.250000000000000900 ) ;
#177 = LINE ( 'NONE', #849, #190 ) ;
#178 = VECTOR ( 'NONE', #890, 1000.000000000000000 ) ;
#179 = DATE_AND_TIME ( #210, #216 ) ;
#180 = CIRCLE ( 'NONE', #1260, 3.000000000000000900 ) ;
#181 = VECTOR ( 'NONE', #874, 1000.000000000000000 ) ;
#182 = LINE ( 'NONE', #902, #184 ) ;
#183 = CIRCLE ( 'NONE', #1259, 1.599999999999999900 ) ;
#184 = VECTOR ( 'NONE', #887, 1000.000000000000000 ) ;
#185 = LINE ( 'NONE', #883, #187 ) ;
#186 = COORDINATED_UNIVERSAL_TIME_OFFSET ( 9, 0, .AHEAD. ) ;
#187 = VECTOR ( 'NONE', #882, 1000.000000000000000 ) ;
#188 = LINE ( 'NONE', #879, #189 ) ;
#189 = VECTOR ( 'NONE', #878, 1000.000000000000000 ) ;
#190 = VECTOR ( 'NONE', #848, 1000.000000000000000 ) ;
#191 = LINE ( 'NONE', #893, #181 ) ;
#192 = CIRCLE ( 'NONE', #1247, 1.250000000000001100 ) ;
#193 = LINE ( 'NONE', #872, #194 ) ;
#194 = VECTOR ( 'NONE', #871, 1000.000000000000000 ) ;
#195 = LINE ( 'NONE', #869, #196 ) ;
#196 = VECTOR ( 'NONE', #868, 1000.000000000000000 ) ;
#197 = LINE ( 'NONE', #866, #198 ) ;
#198 = VECTOR ( 'NONE', #865, 1000.000000000000000 ) ;
#199 = PERSON_AND_ORGANIZATION ( #725, #236 ) ;
#200 = VECTOR ( 'NONE', #855, 1000.000000000000000 ) ;
#201 = CIRCLE ( 'NONE', #1251, 1.300000000000000000 ) ;
#202 = LINE ( 'NONE', #875, #200 ) ;
#203 = CIRCLE ( 'NONE', #1258, 1.599999999999999900 ) ;
#204 = LINE ( 'NONE', #832, #213 ) ;
#205 = FACE_BOUND ( 'NONE', #476, .T. ) ;
#206 = CIRCLE ( 'NONE', #1263, 1.599999999999999900 ) ;
#207 = LINE ( 'NONE', #846, #208 ) ;
#208 = VECTOR ( 'NONE', #845, 1000.000000000000000 ) ;
#209 = LINE ( 'NONE', #843, #211 ) ;
#210 = CALENDAR_DATE ( 2015, 26, 5 ) ;
#211 = VECTOR ( 'NONE', #842, 1000.000000000000000 ) ;
#212 = LINE ( 'NONE', #827, #215 ) ;
#213 = VECTOR ( 'NONE', #831, 1000.000000000000000 ) ;
#214 = CIRCLE ( 'NONE', #1262, 1.300000000000000000 ) ;
#215 = VECTOR ( 'NONE', #826, 1000.000000000000000 ) ;
#216 = LOCAL_TIME ( 9, 36, 3.000000000000000000, #186 ) ;
#217 = CIRCLE ( 'NONE', #1256, 1.250000000000001100 ) ;
#218 = FACE_OUTER_BOUND ( 'NONE', #444, .T. ) ;
#219 = FACE_OUTER_BOUND ( 'NONE', #474, .T. ) ;
#220 = CIRCLE ( 'NONE', #1261, 1.599999999999999900 ) ;
#221 = FACE_BOUND ( 'NONE', #432, .T. ) ;
#222 = DATE_AND_TIME ( #250, #249 ) ;
#223 = FACE_OUTER_BOUND ( 'NONE', #459, .T. ) ;
#224 = CIRCLE ( 'NONE', #1264, 1.300000000000000000 ) ;
#225 = FACE_BOUND ( 'NONE', #469, .T. ) ;
#226 = FACE_OUTER_BOUND ( 'NONE', #475, .T. ) ;
#227 = APPROVAL_PERSON_ORGANIZATION ( #240, #1218, #775 ) ;
#228 = CYLINDRICAL_SURFACE ( 'NONE', #1266, 1.300000000000000000 ) ;
#229 = FACE_OUTER_BOUND ( 'NONE', #467, .T. ) ;
#230 = FACE_BOUND ( 'NONE', #457, .T. ) ;
#231 = FACE_BOUND ( 'NONE', #471, .T. ) ;
#232 = FACE_OUTER_BOUND ( 'NONE', #472, .T. ) ;
#233 = PERSON_AND_ORGANIZATION ( #725, #236 ) ;
#234 =( GEOMETRIC_REPRESENTATION_CONTEXT ( 3 ) GLOBAL_UNCERTAINTY_ASSIGNED_CONTEXT ( ( #1087 ) ) GLOBAL_UNIT_ASSIGNED_CONTEXT ( ( #807, #800, #796 ) ) REPRESENTATION_CONTEXT ( 'NONE', 'WORKASPACE' ) );
#235 = SHAPE_DEFINITION_REPRESENTATION ( #112, #1088 ) ;
#236 = ORGANIZATION ( 'UNSPECIFIED', 'UNSPECIFIED', '' ) ;
#237 = PERSON_AND_ORGANIZATION ( #725, #236 ) ;
#238 = PERSON_AND_ORGANIZATION ( #725, #236 ) ;
#239 = APPROVAL_PERSON_ORGANIZATION ( #238, #1237, #780 ) ;
#240 = PERSON_AND_ORGANIZATION ( #725, #236 ) ;
#241 = COORDINATED_UNIVERSAL_TIME_OFFSET ( 9, 0, .AHEAD. ) ;
#242 = LOCAL_TIME ( 9, 36, 3.000000000000000000, #241 ) ;
#243 = CALENDAR_DATE ( 2015, 26, 5 ) ;
#244 = DATE_AND_TIME ( #243, #242 ) ;
#245 = PERSON_AND_ORGANIZATION ( #725, #236 ) ;
#246 = APPROVAL_DATE_TIME ( #244, #1237 ) ;
#247 = PERSON_AND_ORGANIZATION ( #725, #236 ) ;
#248 = COORDINATED_UNIVERSAL_TIME_OFFSET ( 9, 0, .AHEAD. ) ;
#249 = LOCAL_TIME ( 9, 36, 3.000000000000000000, #248 ) ;
#250 = CALENDAR_DATE ( 2015, 26, 5 ) ;
#251 = VERTEX_POINT ( 'NONE', #260 ) ;
#252 = DIRECTION ( 'NONE',  ( -0.0000000000000000000, -0.0000000000000000000, 1.000000000000000000 ) ) ;
#253 = PLANE ( 'NONE',  #1280 ) ;
#254 = CARTESIAN_POINT ( 'NONE',  ( -0.6999999999999996200, 4.999999999999998200, -0.1000000000000000100 ) ) ;
#255 = PLANE ( 'NONE',  #1276 ) ;
#256 = CARTESIAN_POINT ( 'NONE',  ( 2.499999999999998700, -9.000000000000000000, -2.200000000000000200 ) ) ;
#257 = DIRECTION ( 'NONE',  ( -0.0000000000000000000, -0.0000000000000000000, 1.000000000000000000 ) ) ;
#258 = DIRECTION ( 'NONE',  ( 1.000000000000000000, 0.0000000000000000000, 0.0000000000000000000 ) ) ;
#259 = VERTEX_POINT ( 'NONE', #962 ) ;
#260 = CARTESIAN_POINT ( 'NONE',  ( -5.899999999999997700, -9.000000000000001800, -4.500000000000000000 ) ) ;
#261 = VERTEX_POINT ( 'NONE', #335 ) ;
#262 = VERTEX_POINT ( 'NONE', #974 ) ;
#263 = VERTEX_POINT ( 'NONE', #367 ) ;
#264 = PLANE ( 'NONE',  #1275 ) ;
#265 = VERTEX_POINT ( 'NONE', #959 ) ;
#266 = VERTEX_POINT ( 'NONE', #378 ) ;
#267 = VERTEX_POINT ( 'NONE', #1004 ) ;
#268 = VERTEX_POINT ( 'NONE', #292 ) ;
#269 = VERTEX_POINT ( 'NONE', #937 ) ;
#270 = VERTEX_POINT ( 'NONE', #935 ) ;
#271 = VERTEX_POINT ( 'NONE', #757 ) ;
#272 = VERTEX_POINT ( 'NONE', #758 ) ;
#273 = VERTEX_POINT ( 'NONE', #921 ) ;
#274 = VERTEX_POINT ( 'NONE', #759 ) ;
#275 = VERTEX_POINT ( 'NONE', #760 ) ;
#276 = VERTEX_POINT ( 'NONE', #914 ) ;
#277 = VERTEX_POINT ( 'NONE', #755 ) ;
#278 = VERTEX_POINT ( 'NONE', #756 ) ;
#279 = VERTEX_POINT ( 'NONE', #870 ) ;
#280 = VERTEX_POINT ( 'NONE', #873 ) ;
#281 = VERTEX_POINT ( 'NONE', #731 ) ;
#282 = DIRECTION ( 'NONE',  ( 0.0000000000000000000, 0.0000000000000000000, 1.000000000000000000 ) ) ;
#283 = PLANE ( 'NONE',  #1282 ) ;
#284 = DIRECTION ( 'NONE',  ( 4.336808689942017700E-016, 1.000000000000000000, 0.0000000000000000000 ) ) ;
#285 = DIRECTION ( 'NONE',  ( 1.000000000000000000, -4.336808689942017700E-016, 0.0000000000000000000 ) ) ;
#286 = CARTESIAN_POINT ( 'NONE',  ( 1.999999999999999600, 4.999999999999998200, -0.1000000000000000100 ) ) ;
#287 = DIRECTION ( 'NONE',  ( -0.0000000000000000000, 0.0000000000000000000, -1.000000000000000000 ) ) ;
#288 = DIRECTION ( 'NONE',  ( -1.000000000000000000, 0.0000000000000000000, 0.0000000000000000000 ) ) ;
#289 = CARTESIAN_POINT ( 'NONE',  ( -10.49999999999999800, -5.999999999999999100, -2.200000000000000200 ) ) ;
#290 = CARTESIAN_POINT ( 'NONE',  ( -10.49999999999999800, -12.00000000000000000, -4.500000000000000000 ) ) ;
#291 = CARTESIAN_POINT ( 'NONE',  ( -2.500000000000000000, -61.50000000000000000, -2.199999999999999700 ) ) ;
#292 = CARTESIAN_POINT ( 'NONE',  ( -4.499999999999999100, -11.50000000000000000, -2.200000000000000200 ) ) ;
#293 = PLANE ( 'NONE',  #1223 ) ;
#294 = CARTESIAN_POINT ( 'NONE',  ( -7.500000000000000000, -9.000000000000000000, -2.200000000000000200 ) ) ;
#295 = VERTEX_POINT ( 'NONE', #732 ) ;
#296 = VERTEX_POINT ( 'NONE', #880 ) ;
#297 = VERTEX_POINT ( 'NONE', #733 ) ;
#298 = VERTEX_POINT ( 'NONE', #734 ) ;
#299 = PLANE ( 'NONE',  #1216 ) ;
#300 = DIRECTION ( 'NONE',  ( 1.000000000000000000, 0.0000000000000000000, 0.0000000000000000000 ) ) ;
#301 = DIRECTION ( 'NONE',  ( 0.0000000000000000000, -1.000000000000000000, 0.0000000000000000000 ) ) ;
#302 = DIRECTION ( 'NONE',  ( 0.0000000000000000000, -0.0000000000000000000, -1.000000000000000000 ) ) ;
#303 = PLANE ( 'NONE',  #1138 ) ;
#304 = DIRECTION ( 'NONE',  ( -1.000000000000000000, 0.0000000000000000000, -0.0000000000000000000 ) ) ;
#305 = VERTEX_POINT ( 'NONE', #881 ) ;
#306 = VERTEX_POINT ( 'NONE', #735 ) ;
#307 = VERTEX_POINT ( 'NONE', #736 ) ;
#308 = VERTEX_POINT ( 'NONE', #884 ) ;
#309 = DIRECTION ( 'NONE',  ( 0.0000000000000000000, -1.000000000000000000, 0.0000000000000000000 ) ) ;
#310 = VERTEX_POINT ( 'NONE', #739 ) ;
#311 = VERTEX_POINT ( 'NONE', #740 ) ;
#312 = VERTEX_POINT ( 'NONE', #885 ) ;
#313 = VERTEX_POINT ( 'NONE', #741 ) ;
#314 = DIRECTION ( 'NONE',  ( -0.0000000000000000000, -0.0000000000000000000, 1.000000000000000000 ) ) ;
#315 = DIRECTION ( 'NONE',  ( -0.0000000000000000000, -0.0000000000000000000, 1.000000000000000000 ) ) ;
#316 = VERTEX_POINT ( 'NONE', #742 ) ;
#317 = DIRECTION ( 'NONE',  ( -0.0000000000000000000, -0.0000000000000000000, 1.000000000000000000 ) ) ;
#318 = DIRECTION ( 'NONE',  ( -0.0000000000000000000, -0.0000000000000000000, 1.000000000000000000 ) ) ;
#319 = CARTESIAN_POINT ( 'NONE',  ( -2.500000000000000000, -61.50000000000000000, -2.199999999999999700 ) ) ;
#320 = VERTEX_POINT ( 'NONE', #886 ) ;
#321 = DIRECTION ( 'NONE',  ( 0.0000000000000000000, 0.0000000000000000000, 1.000000000000000000 ) ) ;
#322 = VERTEX_POINT ( 'NONE', #743 ) ;
#323 = VERTEX_POINT ( 'NONE', #744 ) ;
#324 = DIRECTION ( 'NONE',  ( 1.000000000000000000, 0.0000000000000000000, 0.0000000000000000000 ) ) ;
#325 = DIRECTION ( 'NONE',  ( 1.000000000000000000, 0.0000000000000000000, 0.0000000000000000000 ) ) ;
#326 = PLANE ( 'NONE',  #1144 ) ;
#327 = CARTESIAN_POINT ( 'NONE',  ( 0.0000000000000000000, 0.0000000000000000000, -0.1000000000000000100 ) ) ;
#328 = CARTESIAN_POINT ( 'NONE',  ( -7.499999999999998200, -9.000000000000001800, -4.500000000000000000 ) ) ;
#329 = DIRECTION ( 'NONE',  ( 1.000000000000000000, 0.0000000000000000000, 0.0000000000000000000 ) ) ;
#330 = DIRECTION ( 'NONE',  ( 0.0000000000000000000, -1.000000000000000000, 0.0000000000000000000 ) ) ;
#331 = CARTESIAN_POINT ( 'NONE',  ( 5.499999999999998200, -5.999999999999999100, -2.200000000000000200 ) ) ;
#332 = DIRECTION ( 'NONE',  ( -0.0000000000000000000, 0.0000000000000000000, 1.000000000000000000 ) ) ;
#333 = DIRECTION ( 'NONE',  ( 0.0000000000000000000, 0.0000000000000000000, 1.000000000000000000 ) ) ;
#334 = VERTEX_POINT ( 'NONE', #888 ) ;
#335 = CARTESIAN_POINT ( 'NONE',  ( 5.500000000000000000, -12.00000000000000000, -4.500000000000000000 ) ) ;
#336 = DIRECTION ( 'NONE',  ( -0.0000000000000000000, -0.0000000000000000000, 1.000000000000000000 ) ) ;
#337 = VERTEX_POINT ( 'NONE', #745 ) ;
#338 = DIRECTION ( 'NONE',  ( 1.000000000000000000, 0.0000000000000000000, 0.0000000000000000000 ) ) ;
#339 = VERTEX_POINT ( 'NONE', #746 ) ;
#340 = DIRECTION ( 'NONE',  ( -1.000000000000000000, 2.891205793294678800E-016, 0.0000000000000000000 ) ) ;
#341 = PLANE ( 'NONE',  #1168 ) ;
#342 = DIRECTION ( 'NONE',  ( 2.891205793294678800E-016, 1.000000000000000000, 0.0000000000000000000 ) ) ;
#343 = DIRECTION ( 'NONE',  ( -0.0000000000000000000, 1.000000000000000000, -0.0000000000000000000 ) ) ;
#344 = VERTEX_POINT ( 'NONE', #892 ) ;
#345 = VERTEX_POINT ( 'NONE', #749 ) ;
#346 = VERTEX_POINT ( 'NONE', #750 ) ;
#347 = PLANE ( 'NONE',  #1219 ) ;
#348 = DIRECTION ( 'NONE',  ( 0.0000000000000000000, -0.0000000000000000000, -1.000000000000000000 ) ) ;
#349 = VERTEX_POINT ( 'NONE', #896 ) ;
#350 = DIRECTION ( 'NONE',  ( 1.000000000000000000, 0.0000000000000000000, 0.0000000000000000000 ) ) ;
#351 = VERTEX_POINT ( 'NONE', #864 ) ;
#352 = VERTEX_POINT ( 'NONE', #859 ) ;
#353 = VERTEX_POINT ( 'NONE', #847 ) ;
#354 = VERTEX_POINT ( 'NONE', #844 ) ;
#355 = VERTEX_POINT ( 'NONE', #851 ) ;
#356 = DIRECTION ( 'NONE',  ( 0.0000000000000000000, 0.0000000000000000000, 1.000000000000000000 ) ) ;
#357 = VERTEX_POINT ( 'NONE', #833 ) ;
#358 = VERTEX_POINT ( 'NONE', #820 ) ;
#359 = VERTEX_POINT ( 'NONE', #836 ) ;
#360 = VERTEX_POINT ( 'NONE', #841 ) ;
#361 = CARTESIAN_POINT ( 'NONE',  ( -7.499999999999998200, -9.000000000000001800, -4.500000000000000000 ) ) ;
#362 = DIRECTION ( 'NONE',  ( 1.000000000000000000, 0.0000000000000000000, -0.0000000000000000000 ) ) ;
#363 = CARTESIAN_POINT ( 'NONE',  ( 2.500000000000001800, -9.000000000000001800, -4.500000000000000000 ) ) ;
#364 = DIRECTION ( 'NONE',  ( -0.0000000000000000000, 1.000000000000000000, -0.0000000000000000000 ) ) ;
#365 = DIRECTION ( 'NONE',  ( 1.000000000000000000, 0.0000000000000000000, 0.0000000000000000000 ) ) ;
#366 = DIRECTION ( 'NONE',  ( 1.000000000000000000, 0.0000000000000000000, -0.0000000000000000000 ) ) ;
#367 = CARTESIAN_POINT ( 'NONE',  ( 3.499999999999999100, 4.999999999999998200, -0.1000000000000000100 ) ) ;
#368 = VERTEX_POINT ( 'NONE', #764 ) ;
#369 = CARTESIAN_POINT ( 'NONE',  ( 0.0000000000000000000, 0.0000000000000000000, -0.1000000000000000100 ) ) ;
#370 = VERTEX_POINT ( 'NONE', #765 ) ;
#371 = VERTEX_POINT ( 'NONE', #805 ) ;
#372 = CARTESIAN_POINT ( 'NONE',  ( 2.500000000000001800, -9.000000000000001800, -4.500000000000000000 ) ) ;
#373 = DIRECTION ( 'NONE',  ( 0.0000000000000000000, 0.0000000000000000000, 1.000000000000000000 ) ) ;
#374 = DIRECTION ( 'NONE',  ( 1.000000000000000000, 0.0000000000000000000, -0.0000000000000000000 ) ) ;
#375 = VERTEX_POINT ( 'NONE', #853 ) ;
#376 = DIRECTION ( 'NONE',  ( 1.000000000000000000, 0.0000000000000000000, 0.0000000000000000000 ) ) ;
#377 = CARTESIAN_POINT ( 'NONE',  ( 5.499999999999998200, 5.999999999999998200, -4.500000000000000000 ) ) ;
#378 = CARTESIAN_POINT ( 'NONE',  ( -4.499999999999999100, -11.50000000000000000, 0.0000000000000000000 ) ) ;
#379 = PLANE ( 'NONE',  #1212 ) ;
#380 = DIRECTION ( 'NONE',  ( -0.0000000000000000000, 0.0000000000000000000, 1.000000000000000000 ) ) ;
#381 = DIRECTION ( 'NONE',  ( 1.000000000000000000, -0.0000000000000000000, 0.0000000000000000000 ) ) ;
#382 = CARTESIAN_POINT ( 'NONE',  ( -7.500000000000000000, -9.000000000000000000, -2.200000000000000200 ) ) ;
#383 = DIRECTION ( 'NONE',  ( 0.0000000000000000000, 0.0000000000000000000, 1.000000000000000000 ) ) ;
#384 = DIRECTION ( 'NONE',  ( 4.336808689942025100E-016, -1.000000000000000000, 0.0000000000000000000 ) ) ;
#385 = PLANE ( 'NONE',  #1198 ) ;
#386 = CARTESIAN_POINT ( 'NONE',  ( -5.000000000000000000, 0.0000000000000000000, -0.1000000000000000100 ) ) ;
#387 = CARTESIAN_POINT ( 'NONE',  ( 0.0000000000000000000, 0.0000000000000000000, -0.1000000000000000100 ) ) ;
#388 = PLANE ( 'NONE',  #1167 ) ;
#389 = DIRECTION ( 'NONE',  ( -1.000000000000000000, -2.891205793294677300E-016, 0.0000000000000000000 ) ) ;
#390 = CARTESIAN_POINT ( 'NONE',  ( -4.499999999999999100, -9.000000000000000000, -2.200000000000000200 ) ) ;
#391 = DIRECTION ( 'NONE',  ( 0.0000000000000000000, -0.0000000000000000000, -1.000000000000000000 ) ) ;
#392 = VERTEX_POINT ( 'NONE', #761 ) ;
#393 = PLANE ( 'NONE',  #1274 ) ;
#394 = DIRECTION ( 'NONE',  ( 1.000000000000000000, 0.0000000000000000000, 0.0000000000000000000 ) ) ;
#395 = DIRECTION ( 'NONE',  ( 0.0000000000000000000, -1.000000000000000000, 0.0000000000000000000 ) ) ;
#396 = PLANE ( 'NONE',  #1272 ) ;
#397 = DIRECTION ( 'NONE',  ( 0.0000000000000000000, -0.0000000000000000000, -1.000000000000000000 ) ) ;
#398 = DIRECTION ( 'NONE',  ( 1.000000000000000000, 0.0000000000000000000, 0.0000000000000000000 ) ) ;
#399 = CARTESIAN_POINT ( 'NONE',  ( -2.500000000000000000, -61.50000000000000000, -2.199999999999999700 ) ) ;
#400 = CARTESIAN_POINT ( 'NONE',  ( 0.7999999999999999300, 4.999999999999998200, -0.1000000000000000100 ) ) ;
#401 = DIRECTION ( 'NONE',  ( -9.637352644315595200E-017, 1.000000000000000000, 0.0000000000000000000 ) ) ;
#402 = DIRECTION ( 'NONE',  ( -0.0000000000000000000, -0.0000000000000000000, 1.000000000000000000 ) ) ;
#403 = PLANE ( 'NONE',  #1271 ) ;
#404 = CARTESIAN_POINT ( 'NONE',  ( 1.999999999999999600, 5.999999999999998200, -0.1000000000000000100 ) ) ;
#405 = DIRECTION ( 'NONE',  ( -1.000000000000000000, -4.336808689942025100E-016, 0.0000000000000000000 ) ) ;
#406 = VERTEX_POINT ( 'NONE', #762 ) ;
#407 = VERTEX_POINT ( 'NONE', #910 ) ;
#408 = CARTESIAN_POINT ( 'NONE',  ( -0.7000000000000000700, 5.999999999999996400, -0.1000000000000000100 ) ) ;
#409 = DIRECTION ( 'NONE',  ( 0.0000000000000000000, 0.0000000000000000000, -1.000000000000000000 ) ) ;
#410 = PLANE ( 'NONE',  #1277 ) ;
#411 = CARTESIAN_POINT ( 'NONE',  ( 1.999999999999999600, 4.999999999999998200, -0.1000000000000000100 ) ) ;
#412 = PLANE ( 'NONE',  #1273 ) ;
#413 = CARTESIAN_POINT ( 'NONE',  ( -5.000000000000000000, 0.0000000000000000000, -0.1000000000000000100 ) ) ;
#414 = VERTEX_POINT ( 'NONE', #747 ) ;
#415 = CARTESIAN_POINT ( 'NONE',  ( 3.499999999999999100, 4.999999999999998200, -0.1000000000000000100 ) ) ;
#416 = VERTEX_POINT ( 'NONE', #748 ) ;
#417 = DIRECTION ( 'NONE',  ( -0.0000000000000000000, -0.0000000000000000000, 1.000000000000000000 ) ) ;
#418 = DIRECTION ( 'NONE',  ( -2.891205793294677300E-016, 1.000000000000000000, 0.0000000000000000000 ) ) ;
#419 = VERTEX_POINT ( 'NONE', #908 ) ;
#420 = DIRECTION ( 'NONE',  ( 1.000000000000000000, 0.0000000000000000000, -0.0000000000000000000 ) ) ;
#421 = CARTESIAN_POINT ( 'NONE',  ( 2.499999999999998700, -9.000000000000000000, -2.200000000000000200 ) ) ;
#422 = VERTEX_POINT ( 'NONE', #737 ) ;
#423 = VERTEX_POINT ( 'NONE', #738 ) ;
#424 = VERTEX_POINT ( 'NONE', #911 ) ;
#425 = DIRECTION ( 'NONE',  ( 0.0000000000000000000, 0.0000000000000000000, -1.000000000000000000 ) ) ;
#426 = VERTEX_POINT ( 'NONE', #751 ) ;
#427 = CARTESIAN_POINT ( 'NONE',  ( -0.7000000000000000700, 5.999999999999996400, -0.1000000000000000100 ) ) ;
#428 = DIRECTION ( 'NONE',  ( 1.000000000000000000, 9.637352644315595200E-017, -0.0000000000000000000 ) ) ;
#429 = ORIENTED_EDGE ( 'NONE', *, *, #1109, .F. ) ;
#430 = ORIENTED_EDGE ( 'NONE', *, *, #1191, .F. ) ;
#431 = ORIENTED_EDGE ( 'NONE', *, *, #1202, .T. ) ;
#432 = EDGE_LOOP ( 'NONE', ( #53, #97 ) ) ;
#433 = EDGE_LOOP ( 'NONE', ( #585, #584, #583, #582 ) ) ;
#434 = EDGE_LOOP ( 'NONE', ( #515, #596, #595, #594 ) ) ;
#435 = EDGE_LOOP ( 'NONE', ( #574, #575, #481, #503, #502, #487, #512 ) ) ;
#436 = EDGE_LOOP ( 'NONE', ( #69, #99, #109, #62 ) ) ;
#437 = EDGE_LOOP ( 'NONE', ( #111, #48, #72, #85 ) ) ;
#438 = EDGE_LOOP ( 'NONE', ( #486, #506 ) ) ;
#439 = EDGE_LOOP ( 'NONE', ( #507, #498, #500, #499, #504, #478, #501 ) ) ;
#440 = EDGE_LOOP ( 'NONE', ( #100, #35, #43, #58, #49, #90 ) ) ;
#441 = EDGE_LOOP ( 'NONE', ( #92, #71, #91, #63 ) ) ;
#442 = EDGE_LOOP ( 'NONE', ( #524, #523 ) ) ;
#443 = EDGE_LOOP ( 'NONE', ( #589, #588, #587, #586 ) ) ;
#444 = EDGE_LOOP ( 'NONE', ( #555, #562, #565, #548 ) ) ;
#445 = EDGE_LOOP ( 'NONE', ( #496, #497, #483, #482 ) ) ;
#446 = EDGE_LOOP ( 'NONE', ( #593, #592, #591, #590 ) ) ;
#447 = EDGE_LOOP ( 'NONE', ( #84, #52, #77, #56, #55, #59 ) ) ;
#448 = EDGE_LOOP ( 'NONE', ( #61, #33, #39, #45, #40, #51, #36, #94, #30, #68, #83, #42 ) ) ;
#449 = EDGE_LOOP ( 'NONE', ( #572, #571, #563, #564 ) ) ;
#450 = EDGE_LOOP ( 'NONE', ( #551, #573, #542, #549 ) ) ;
#451 = EDGE_LOOP ( 'NONE', ( #527, #531, #534, #514 ) ) ;
#452 = EDGE_LOOP ( 'NONE', ( #581, #580, #579, #578 ) ) ;
#453 = EDGE_LOOP ( 'NONE', ( #598, #597 ) ) ;
#454 = EDGE_LOOP ( 'NONE', ( #430, #67, #76, #46 ) ) ;
#455 = EDGE_LOOP ( 'NONE', ( #545, #576 ) ) ;
#456 = EDGE_LOOP ( 'NONE', ( #546, #541, #543, #544 ) ) ;
#457 = EDGE_LOOP ( 'NONE', ( #82, #50 ) ) ;
#458 = EDGE_LOOP ( 'NONE', ( #536, #535 ) ) ;
#459 = EDGE_LOOP ( 'NONE', ( #103, #74, #102, #110, #64, #75, #47, #86 ) ) ;
#460 = EDGE_LOOP ( 'NONE', ( #505, #492, #510, #511 ) ) ;
#461 = EDGE_LOOP ( 'NONE', ( #98, #87, #60, #31 ) ) ;
#462 = EDGE_LOOP ( 'NONE', ( #537, #538, #533, #532 ) ) ;
#463 = EDGE_LOOP ( 'NONE', ( #491, #479, #495, #488 ) ) ;
#464 = EDGE_LOOP ( 'NONE', ( #540, #521, #539, #522 ) ) ;
#465 = EDGE_LOOP ( 'NONE', ( #519, #520, #530, #528 ) ) ;
#466 = EDGE_LOOP ( 'NONE', ( #484, #489, #485, #493 ) ) ;
#467 = EDGE_LOOP ( 'NONE', ( #57, #34, #95, #88, #569, #570, #547, #550, #560, #552, #557, #556, #558, #559, #554, #568, #561, #567 ) ) ;
#468 = EDGE_LOOP ( 'NONE', ( #529, #525, #518, #526 ) ) ;
#469 = EDGE_LOOP ( 'NONE', ( #54, #44 ) ) ;
#470 = EDGE_LOOP ( 'NONE', ( #494, #513, #517, #516 ) ) ;
#471 = EDGE_LOOP ( 'NONE', ( #566, #553 ) ) ;
#472 = EDGE_LOOP ( 'NONE', ( #38, #79, #81, #37, #89, #80, #41, #78 ) ) ;
#473 = EDGE_LOOP ( 'NONE', ( #508, #509, #480, #490 ) ) ;
#474 = EDGE_LOOP ( 'NONE', ( #431, #108, #429, #107 ) ) ;
#475 = EDGE_LOOP ( 'NONE', ( #96, #65, #93, #105 ) ) ;
#476 = EDGE_LOOP ( 'NONE', ( #70, #104 ) ) ;
#477 = EDGE_LOOP ( 'NONE', ( #66, #106, #73, #101 ) ) ;
#478 = ORIENTED_EDGE ( 'NONE', *, *, #1135, .T. ) ;
#479 = ORIENTED_EDGE ( 'NONE', *, *, #1123, .F. ) ;
#480 = ORIENTED_EDGE ( 'NONE', *, *, #1184, .F. ) ;
#481 = ORIENTED_EDGE ( 'NONE', *, *, #1119, .T. ) ;
#482 = ORIENTED_EDGE ( 'NONE', *, *, #1164, .T. ) ;
#483 = ORIENTED_EDGE ( 'NONE', *, *, #1149, .F. ) ;
#484 = ORIENTED_EDGE ( 'NONE', *, *, #1196, .F. ) ;
#485 = ORIENTED_EDGE ( 'NONE', *, *, #1128, .T. ) ;
#486 = ORIENTED_EDGE ( 'NONE', *, *, #1186, .F. ) ;
#487 = ORIENTED_EDGE ( 'NONE', *, *, #1181, .T. ) ;
#488 = ORIENTED_EDGE ( 'NONE', *, *, #1130, .T. ) ;
#489 = ORIENTED_EDGE ( 'NONE', *, *, #1199, .F. ) ;
#490 = ORIENTED_EDGE ( 'NONE', *, *, #1162, .T. ) ;
#491 = ORIENTED_EDGE ( 'NONE', *, *, #1120, .T. ) ;
#492 = ORIENTED_EDGE ( 'NONE', *, *, #1177, .F. ) ;
#493 = ORIENTED_EDGE ( 'NONE', *, *, #1186, .T. ) ;
#494 = ORIENTED_EDGE ( 'NONE', *, *, #1104, .F. ) ;
#495 = ORIENTED_EDGE ( 'NONE', *, *, #1185, .F. ) ;
#496 = ORIENTED_EDGE ( 'NONE', *, *, #1136, .T. ) ;
#497 = ORIENTED_EDGE ( 'NONE', *, *, #1162, .F. ) ;
#498 = ORIENTED_EDGE ( 'NONE', *, *, #1161, .T. ) ;
#499 = ORIENTED_EDGE ( 'NONE', *, *, #1184, .T. ) ;
#500 = ORIENTED_EDGE ( 'NONE', *, *, #1149, .T. ) ;
#501 = ORIENTED_EDGE ( 'NONE', *, *, #1140, .T. ) ;
#502 = ORIENTED_EDGE ( 'NONE', *, *, #1110, .T. ) ;
#503 = ORIENTED_EDGE ( 'NONE', *, *, #1146, .T. ) ;
#504 = ORIENTED_EDGE ( 'NONE', *, *, #1185, .T. ) ;
#505 = ORIENTED_EDGE ( 'NONE', *, *, #1139, .F. ) ;
#506 = ORIENTED_EDGE ( 'NONE', *, *, #1201, .F. ) ;
#507 = ORIENTED_EDGE ( 'NONE', *, *, #1113, .T. ) ;
#508 = ORIENTED_EDGE ( 'NONE', *, *, #1129, .T. ) ;
#509 = ORIENTED_EDGE ( 'NONE', *, *, #1130, .F. ) ;
#510 = ORIENTED_EDGE ( 'NONE', *, *, #1148, .T. ) ;
#511 = ORIENTED_EDGE ( 'NONE', *, *, #1178, .T. ) ;
#512 = ORIENTED_EDGE ( 'NONE', *, *, #1115, .T. ) ;
#513 = ORIENTED_EDGE ( 'NONE', *, *, #1206, .F. ) ;
#514 = ORIENTED_EDGE ( 'NONE', *, *, #1204, .T. ) ;
#515 = ORIENTED_EDGE ( 'NONE', *, *, #1125, .T. ) ;
#516 = ORIENTED_EDGE ( 'NONE', *, *, #1157, .T. ) ;
#517 = ORIENTED_EDGE ( 'NONE', *, *, #1159, .T. ) ;
#518 = ORIENTED_EDGE ( 'NONE', *, *, #1192, .F. ) ;
#519 = ORIENTED_EDGE ( 'NONE', *, *, #1190, .T. ) ;
#520 = ORIENTED_EDGE ( 'NONE', *, *, #1171, .F. ) ;
#521 = ORIENTED_EDGE ( 'NONE', *, *, #1143, .F. ) ;
#522 = ORIENTED_EDGE ( 'NONE', *, *, #1154, .T. ) ;
#523 = ORIENTED_EDGE ( 'NONE', *, *, #1191, .T. ) ;
#524 = ORIENTED_EDGE ( 'NONE', *, *, #1206, .T. ) ;
#525 = ORIENTED_EDGE ( 'NONE', *, *, #1170, .F. ) ;
#526 = ORIENTED_EDGE ( 'NONE', *, *, #1141, .T. ) ;
#527 = ORIENTED_EDGE ( 'NONE', *, *, #1183, .T. ) ;
#528 = ORIENTED_EDGE ( 'NONE', *, *, #1170, .T. ) ;
#529 = ORIENTED_EDGE ( 'NONE', *, *, #1158, .T. ) ;
#530 = ORIENTED_EDGE ( 'NONE', *, *, #1117, .F. ) ;
#531 = ORIENTED_EDGE ( 'NONE', *, *, #1192, .T. ) ;
#532 = ORIENTED_EDGE ( 'NONE', *, *, #1171, .T. ) ;
#533 = ORIENTED_EDGE ( 'NONE', *, *, #1204, .F. ) ;
#534 = ORIENTED_EDGE ( 'NONE', *, *, #1117, .T. ) ;
#535 = ORIENTED_EDGE ( 'NONE', *, *, #1145, .T. ) ;
#536 = ORIENTED_EDGE ( 'NONE', *, *, #1143, .T. ) ;
#537 = ORIENTED_EDGE ( 'NONE', *, *, #1122, .T. ) ;
#538 = ORIENTED_EDGE ( 'NONE', *, *, #1132, .F. ) ;
#539 = ORIENTED_EDGE ( 'NONE', *, *, #1137, .T. ) ;
#540 = ORIENTED_EDGE ( 'NONE', *, *, #1150, .F. ) ;
#541 = ORIENTED_EDGE ( 'NONE', *, *, #1147, .F. ) ;
#542 = ORIENTED_EDGE ( 'NONE', *, *, #1119, .F. ) ;
#543 = ORIENTED_EDGE ( 'NONE', *, *, #1209, .F. ) ;
#544 = ORIENTED_EDGE ( 'NONE', *, *, #1188, .T. ) ;
#545 = ORIENTED_EDGE ( 'NONE', *, *, #1178, .F. ) ;
#546 = ORIENTED_EDGE ( 'NONE', *, *, #1187, .T. ) ;
#547 = ORIENTED_EDGE ( 'NONE', *, *, #1114, .T. ) ;
#548 = ORIENTED_EDGE ( 'NONE', *, *, #1200, .T. ) ;
#549 = ORIENTED_EDGE ( 'NONE', *, *, #1147, .T. ) ;
#550 = ORIENTED_EDGE ( 'NONE', *, *, #1120, .F. ) ;
#551 = ORIENTED_EDGE ( 'NONE', *, *, #1118, .T. ) ;
#552 = ORIENTED_EDGE ( 'NONE', *, *, #1136, .F. ) ;
#553 = ORIENTED_EDGE ( 'NONE', *, *, #1160, .F. ) ;
#554 = ORIENTED_EDGE ( 'NONE', *, *, #1134, .T. ) ;
#555 = ORIENTED_EDGE ( 'NONE', *, *, #1180, .T. ) ;
#556 = ORIENTED_EDGE ( 'NONE', *, *, #1180, .F. ) ;
#557 = ORIENTED_EDGE ( 'NONE', *, *, #1127, .F. ) ;
#558 = ORIENTED_EDGE ( 'NONE', *, *, #1118, .F. ) ;
#559 = ORIENTED_EDGE ( 'NONE', *, *, #1187, .F. ) ;
#560 = ORIENTED_EDGE ( 'NONE', *, *, #1129, .F. ) ;
#561 = ORIENTED_EDGE ( 'NONE', *, *, #1151, .F. ) ;
#562 = ORIENTED_EDGE ( 'NONE', *, *, #1133, .F. ) ;
#563 = ORIENTED_EDGE ( 'NONE', *, *, #1100, .F. ) ;
#564 = ORIENTED_EDGE ( 'NONE', *, *, #1165, .F. ) ;
#565 = ORIENTED_EDGE ( 'NONE', *, *, #1146, .F. ) ;
#566 = ORIENTED_EDGE ( 'NONE', *, *, #1154, .F. ) ;
#567 = ORIENTED_EDGE ( 'NONE', *, *, #1176, .F. ) ;
#568 = ORIENTED_EDGE ( 'NONE', *, *, #1142, .T. ) ;
#569 = ORIENTED_EDGE ( 'NONE', *, *, #1158, .F. ) ;
#570 = ORIENTED_EDGE ( 'NONE', *, *, #1102, .T. ) ;
#571 = ORIENTED_EDGE ( 'NONE', *, *, #1181, .F. ) ;
#572 = ORIENTED_EDGE ( 'NONE', *, *, #1174, .T. ) ;
#573 = ORIENTED_EDGE ( 'NONE', *, *, #1200, .F. ) ;
#574 = ORIENTED_EDGE ( 'NONE', *, *, #1116, .T. ) ;
#575 = ORIENTED_EDGE ( 'NONE', *, *, #1209, .T. ) ;
#576 = ORIENTED_EDGE ( 'NONE', *, *, #1179, .F. ) ;
#577 = FACE_OUTER_BOUND ( 'NONE', #456, .T. ) ;
#578 = ORIENTED_EDGE ( 'NONE', *, *, #1205, .T. ) ;
#579 = ORIENTED_EDGE ( 'NONE', *, *, #1101, .T. ) ;
#580 = ORIENTED_EDGE ( 'NONE', *, *, #1210, .F. ) ;
#581 = ORIENTED_EDGE ( 'NONE', *, *, #1112, .F. ) ;
#582 = ORIENTED_EDGE ( 'NONE', *, *, #1193, .T. ) ;
#583 = ORIENTED_EDGE ( 'NONE', *, *, #1111, .T. ) ;
#584 = ORIENTED_EDGE ( 'NONE', *, *, #1124, .T. ) ;
#585 = ORIENTED_EDGE ( 'NONE', *, *, #1153, .T. ) ;
#586 = ORIENTED_EDGE ( 'NONE', *, *, #1195, .T. ) ;
#587 = ORIENTED_EDGE ( 'NONE', *, *, #1124, .F. ) ;
#588 = ORIENTED_EDGE ( 'NONE', *, *, #1156, .F. ) ;
#589 = ORIENTED_EDGE ( 'NONE', *, *, #1176, .T. ) ;
#590 = ORIENTED_EDGE ( 'NONE', *, *, #1156, .T. ) ;
#591 = ORIENTED_EDGE ( 'NONE', *, *, #1111, .F. ) ;
#592 = ORIENTED_EDGE ( 'NONE', *, *, #1155, .F. ) ;
#593 = ORIENTED_EDGE ( 'NONE', *, *, #1151, .T. ) ;
#594 = ORIENTED_EDGE ( 'NONE', *, *, #1121, .T. ) ;
#595 = ORIENTED_EDGE ( 'NONE', *, *, #1153, .F. ) ;
#596 = ORIENTED_EDGE ( 'NONE', *, *, #1195, .F. ) ;
#597 = ORIENTED_EDGE ( 'NONE', *, *, #1197, .T. ) ;
#598 = ORIENTED_EDGE ( 'NONE', *, *, #1210, .T. ) ;
#599 = FACE_OUTER_BOUND ( 'NONE', #450, .T. ) ;
#600 = FACE_BOUND ( 'NONE', #455, .T. ) ;
#601 = FACE_OUTER_BOUND ( 'NONE', #463, .T. ) ;
#602 = CYLINDRICAL_SURFACE ( 'NONE', #1173, 3.000000000000000900 ) ;
#603 = FACE_OUTER_BOUND ( 'NONE', #464, .T. ) ;
#604 = FACE_OUTER_BOUND ( 'NONE', #445, .T. ) ;
#605 = FACE_OUTER_BOUND ( 'NONE', #435, .T. ) ;
#606 = FACE_OUTER_BOUND ( 'NONE', #473, .T. ) ;
#607 = FACE_BOUND ( 'NONE', #438, .T. ) ;
#608 = FACE_OUTER_BOUND ( 'NONE', #460, .T. ) ;
#609 = CYLINDRICAL_SURFACE ( 'NONE', #1175, 3.000000000000000900 ) ;
#610 = FACE_OUTER_BOUND ( 'NONE', #470, .T. ) ;
#611 = FACE_OUTER_BOUND ( 'NONE', #439, .T. ) ;
#612 = FACE_OUTER_BOUND ( 'NONE', #466, .T. ) ;
#613 = FACE_OUTER_BOUND ( 'NONE', #442, .T. ) ;
#614 = CYLINDRICAL_SURFACE ( 'NONE', #1194, 1.600000000000000300 ) ;
#615 = FACE_OUTER_BOUND ( 'NONE', #458, .T. ) ;
#616 = CYLINDRICAL_SURFACE ( 'NONE', #1131, 1.599999999999999900 ) ;
#617 = FACE_OUTER_BOUND ( 'NONE', #462, .T. ) ;
#618 = CYLINDRICAL_SURFACE ( 'NONE', #1279, 1.250000000000000900 ) ;
#619 = FACE_OUTER_BOUND ( 'NONE', #465, .T. ) ;
#620 = FACE_OUTER_BOUND ( 'NONE', #468, .T. ) ;
#621 = CYLINDRICAL_SURFACE ( 'NONE', #1278, 1.300000000000000000 ) ;
#622 = FACE_OUTER_BOUND ( 'NONE', #451, .T. ) ;
#623 = FACE_OUTER_BOUND ( 'NONE', #434, .T. ) ;
#624 = FACE_OUTER_BOUND ( 'NONE', #446, .T. ) ;
#625 = FACE_OUTER_BOUND ( 'NONE', #443, .T. ) ;
#626 = FACE_OUTER_BOUND ( 'NONE', #433, .T. ) ;
#627 = FACE_OUTER_BOUND ( 'NONE', #452, .T. ) ;
#628 = FACE_OUTER_BOUND ( 'NONE', #453, .T. ) ;
#629 = FACE_OUTER_BOUND ( 'NONE', #436, .T. ) ;
#630 = FACE_OUTER_BOUND ( 'NONE', #437, .T. ) ;
#631 = FACE_OUTER_BOUND ( 'NONE', #477, .T. ) ;
#632 = CYLINDRICAL_SURFACE ( 'NONE', #1214, 1.300000000000000000 ) ;
#633 = FACE_OUTER_BOUND ( 'NONE', #454, .T. ) ;
#634 = FACE_OUTER_BOUND ( 'NONE', #461, .T. ) ;
#635 = CYLINDRICAL_SURFACE ( 'NONE', #1213, 1.600000000000000300 ) ;
#636 = FACE_OUTER_BOUND ( 'NONE', #447, .T. ) ;
#637 = CYLINDRICAL_SURFACE ( 'NONE', #1217, 1.599999999999999900 ) ;
#638 = FACE_OUTER_BOUND ( 'NONE', #440, .T. ) ;
#639 = CYLINDRICAL_SURFACE ( 'NONE', #1228, 1.300000000000000000 ) ;
#640 = LINE ( 'NONE', #1067, #646 ) ;
#641 = CYLINDRICAL_SURFACE ( 'NONE', #1227, 1.250000000000000900 ) ;
#642 = FACE_OUTER_BOUND ( 'NONE', #449, .T. ) ;
#643 = FACE_OUTER_BOUND ( 'NONE', #441, .T. ) ;
#644 = LINE ( 'NONE', #1029, #648 ) ;
#645 = FACE_OUTER_BOUND ( 'NONE', #448, .T. ) ;
#646 = VECTOR ( 'NONE', #1030, 1000.000000000000000 ) ;
#647 = LINE ( 'NONE', #779, #649 ) ;
#648 = VECTOR ( 'NONE', #1066, 1000.000000000000000 ) ;
#649 = VECTOR ( 'NONE', #1061, 1000.000000000000000 ) ;
#650 = VECTOR ( 'NONE', #1056, 1000.000000000000000 ) ;
#651 = LINE ( 'NONE', #1057, #657 ) ;
#652 = LINE ( 'NONE', #1043, #655 ) ;
#653 = LINE ( 'NONE', #1027, #650 ) ;
#654 = CIRCLE ( 'NONE', #1238, 1.300000000000000000 ) ;
#655 = VECTOR ( 'NONE', #1053, 1000.000000000000000 ) ;
#656 = LINE ( 'NONE', #1031, #667 ) ;
#657 = VECTOR ( 'NONE', #1035, 1000.000000000000000 ) ;
#658 = VECTOR ( 'NONE', #1037, 1000.000000000000000 ) ;
#659 = LINE ( 'NONE', #1048, #665 ) ;
#660 = LINE ( 'NONE', #1041, #663 ) ;
#661 = LINE ( 'NONE', #1055, #658 ) ;
#662 = CIRCLE ( 'NONE', #1236, 1.600000000000000300 ) ;
#663 = VECTOR ( 'NONE', #1047, 1000.000000000000000 ) ;
#664 = LINE ( 'NONE', #1045, #668 ) ;
#665 = VECTOR ( 'NONE', #1044, 1000.000000000000000 ) ;
#666 = LINE ( 'NONE', #1033, #672 ) ;
#667 = VECTOR ( 'NONE', #1049, 1000.000000000000000 ) ;
#668 = VECTOR ( 'NONE', #1052, 1000.000000000000000 ) ;
#669 = LINE ( 'NONE', #982, #686 ) ;
#670 = LINE ( 'NONE', #1034, #671 ) ;
#671 = VECTOR ( 'NONE', #1063, 1000.000000000000000 ) ;
#672 = VECTOR ( 'NONE', #1024, 1000.000000000000000 ) ;
#673 = LINE ( 'NONE', #968, #688 ) ;
#674 = LINE ( 'NONE', #1025, #675 ) ;
#675 = VECTOR ( 'NONE', #1026, 1000.000000000000000 ) ;
#676 = LINE ( 'NONE', #1006, #677 ) ;
#677 = VECTOR ( 'NONE', #1003, 1000.000000000000000 ) ;
#678 = LINE ( 'NONE', #995, #679 ) ;
#679 = VECTOR ( 'NONE', #989, 1000.000000000000000 ) ;
#680 = LINE ( 'NONE', #980, #681 ) ;
#681 = VECTOR ( 'NONE', #981, 1000.000000000000000 ) ;
#682 = CIRCLE ( 'NONE', #1235, 3.000000000000000400 ) ;
#683 = LINE ( 'NONE', #1065, #685 ) ;
#684 = CIRCLE ( 'NONE', #1242, 3.000000000000000400 ) ;
#685 = VECTOR ( 'NONE', #983, 1000.000000000000000 ) ;
#686 = VECTOR ( 'NONE', #963, 1000.000000000000000 ) ;
#687 = LINE ( 'NONE', #1077, #718 ) ;
#688 = VECTOR ( 'NONE', #1070, 1000.000000000000000 ) ;
#689 = VECTOR ( 'NONE', #967, 1000.000000000000000 ) ;
#690 = LINE ( 'NONE', #1072, #691 ) ;
#691 = VECTOR ( 'NONE', #1073, 1000.000000000000000 ) ;
#692 = LINE ( 'NONE', #1009, #693 ) ;
#693 = VECTOR ( 'NONE', #1023, 1000.000000000000000 ) ;
#694 = LINE ( 'NONE', #1013, #695 ) ;
#695 = VECTOR ( 'NONE', #1010, 1000.000000000000000 ) ;
#696 = LINE ( 'NONE', #1012, #697 ) ;
#697 = VECTOR ( 'NONE', #1016, 1000.000000000000000 ) ;
#698 = LINE ( 'NONE', #1017, #699 ) ;
#699 = VECTOR ( 'NONE', #1018, 1000.000000000000000 ) ;
#700 = LINE ( 'NONE', #1080, #716 ) ;
#701 = LINE ( 'NONE', #990, #714 ) ;
#702 = LINE ( 'NONE', #1014, #689 ) ;
#703 = CIRCLE ( 'NONE', #1239, 3.000000000000000900 ) ;
#704 = LINE ( 'NONE', #970, #705 ) ;
#705 = VECTOR ( 'NONE', #729, 1000.000000000000000 ) ;
#706 = LINE ( 'NONE', #947, #707 ) ;
#707 = VECTOR ( 'NONE', #951, 1000.000000000000000 ) ;
#708 = LINE ( 'NONE', #957, #709 ) ;
#709 = VECTOR ( 'NONE', #1074, 1000.000000000000000 ) ;
#710 = LINE ( 'NONE', #730, #711 ) ;
#711 = VECTOR ( 'NONE', #728, 1000.000000000000000 ) ;
#712 = LINE ( 'NONE', #1081, #713 ) ;
#713 = VECTOR ( 'NONE', #1075, 1000.000000000000000 ) ;
#714 = VECTOR ( 'NONE', #1082, 1000.000000000000000 ) ;
#715 = LINE ( 'NONE', #994, #722 ) ;
#716 = VECTOR ( 'NONE', #1078, 1000.000000000000000 ) ;
#717 = LINE ( 'NONE', #1046, #125 ) ;
#718 = VECTOR ( 'NONE', #998, 1000.000000000000000 ) ;
#719 = LINE ( 'NONE', #1060, #127 ) ;
#720 = LINE ( 'NONE', #997, #721 ) ;
#721 = VECTOR ( 'NONE', #996, 1000.000000000000000 ) ;
#722 = VECTOR ( 'NONE', #987, 1000.000000000000000 ) ;
#723 = VECTOR ( 'NONE', #1022, 1000.000000000000000 ) ;
#724 = LINE ( 'NONE', #1019, #723 ) ;
#725 = PERSON ( 'UNSPECIFIED', 'UNSPECIFIED', 'UNSPECIFIED', ('UNSPECIFIED'), ('UNSPECIFIED'), ('UNSPECIFIED') ) ;
#726 = PRODUCT ( 'ex-24a', 'ex-24a', '', ( #788 ) ) ;
#727 = ADVANCED_FACE ( 'NONE', ( #642 ), #754, .F. ) ;
#728 = DIRECTION ( 'NONE',  ( -2.891205793294678300E-016, -1.000000000000000000, -0.0000000000000000000 ) ) ;
#729 = DIRECTION ( 'NONE',  ( -0.0000000000000000000, -0.0000000000000000000, 1.000000000000000000 ) ) ;
#730 = CARTESIAN_POINT ( 'NONE',  ( -10.50000000000000000, -12.00000000000000000, -2.200000000000000200 ) ) ;
#731 = CARTESIAN_POINT ( 'NONE',  ( -2.500000000000000000, -61.50000000000000000, -0.9499999999999988500 ) ) ;
#732 = CARTESIAN_POINT ( 'NONE',  ( -4.499999999999999100, -9.000000000000000000, -2.200000000000000200 ) ) ;
#733 = CARTESIAN_POINT ( 'NONE',  ( 1.999999999999999600, 4.999999999999998200, -0.1000000000000000100 ) ) ;
#734 = CARTESIAN_POINT ( 'NONE',  ( 2.499999999999998200, -5.999999999999998200, 0.0000000000000000000 ) ) ;
#735 = CARTESIAN_POINT ( 'NONE',  ( 1.443707221920460100, -12.00000000000000000, -2.200000000000000200 ) ) ;
#736 = CARTESIAN_POINT ( 'NONE',  ( 4.100000000000002300, -9.000000000000001800, -4.500000000000000000 ) ) ;
#737 = CARTESIAN_POINT ( 'NONE',  ( 5.499999999999998200, 5.999999999999998200, -4.500000000000000000 ) ) ;
#738 = CARTESIAN_POINT ( 'NONE',  ( -0.6999999999999996200, 4.999999999999998200, 0.0000000000000000000 ) ) ;
#739 = CARTESIAN_POINT ( 'NONE',  ( -4.499999999999999100, -9.000000000000000000, 0.0000000000000000000 ) ) ;
#740 = CARTESIAN_POINT ( 'NONE',  ( 0.9000000000000012400, -9.000000000000001800, -2.200000000000000200 ) ) ;
#741 = CARTESIAN_POINT ( 'NONE',  ( -9.099999999999997900, -9.000000000000001800, -2.200000000000000200 ) ) ;
#742 = CARTESIAN_POINT ( 'NONE',  ( 0.7999999999999999300, 5.999999999999997300, -0.1000000000000000100 ) ) ;
#743 = CARTESIAN_POINT ( 'NONE',  ( 5.499999999999998200, -5.999999999999999100, 0.0000000000000000000 ) ) ;
#744 = CARTESIAN_POINT ( 'NONE',  ( 1.999999999999999600, 5.999999999999998200, 0.0000000000000000000 ) ) ;
#745 = CARTESIAN_POINT ( 'NONE',  ( -9.099999999999997900, -9.000000000000001800, -4.500000000000000000 ) ) ;
#746 = CARTESIAN_POINT ( 'NONE',  ( -2.500000000000000000, -11.49999999999999600, -0.9499999999999988500 ) ) ;
#747 = CARTESIAN_POINT ( 'NONE',  ( 0.7999999999999999300, 4.999999999999998200, 0.0000000000000000000 ) ) ;
#748 = CARTESIAN_POINT ( 'NONE',  ( -0.5000000000000008900, -11.50000000000000000, 0.0000000000000000000 ) ) ;
#749 = CARTESIAN_POINT ( 'NONE',  ( -2.500000000000000000, -11.49999999999999600, -3.450000000000000600 ) ) ;
#750 = CARTESIAN_POINT ( 'NONE',  ( -0.7000000000000000700, 5.999999999999996400, -0.1000000000000000100 ) ) ;
#751 = CARTESIAN_POINT ( 'NONE',  ( -0.5000000000000017800, -9.000000000000000000, 0.0000000000000000000 ) ) ;
#752 = CARTESIAN_POINT ( 'NONE',  ( -10.50000000000000200, 5.999999999999998200, -4.500000000000000000 ) ) ;
#753 = CARTESIAN_POINT ( 'NONE',  ( -0.2999999999999990500, -11.50000000000000000, -4.500000000000000000 ) ) ;
#754 = PLANE ( 'NONE',  #1234 ) ;
#755 = CARTESIAN_POINT ( 'NONE',  ( -6.443707221920461400, -12.00000000000000000, -2.200000000000000200 ) ) ;
#756 = CARTESIAN_POINT ( 'NONE',  ( -6.443707221920498700, -12.00000000000000000, -4.500000000000000000 ) ) ;
#757 = CARTESIAN_POINT ( 'NONE',  ( -2.500000000000000000, -61.50000000000000000, -3.450000000000000600 ) ) ;
#758 = CARTESIAN_POINT ( 'NONE',  ( -10.49999999999999800, -5.999999999999999100, -2.200000000000000200 ) ) ;
#759 = CARTESIAN_POINT ( 'NONE',  ( -10.49999999999999800, -12.00000000000000000, -4.500000000000000000 ) ) ;
#760 = CARTESIAN_POINT ( 'NONE',  ( 5.500000000000000000, -12.00000000000000000, -2.200000000000000200 ) ) ;
#761 = CARTESIAN_POINT ( 'NONE',  ( -10.50000000000000200, 5.999999999999998200, -4.500000000000000000 ) ) ;
#762 = CARTESIAN_POINT ( 'NONE',  ( 0.7999999999999999300, 5.999999999999997300, 0.0000000000000000000 ) ) ;
#763 = DIRECTION ( 'NONE',  ( -0.2756373558169929500, 0.9612616959383206700, 0.0000000000000000000 ) ) ;
#764 = CARTESIAN_POINT ( 'NONE',  ( 1.300000000000000000, 0.0000000000000000000, 0.0000000000000000000 ) ) ;
#765 = CARTESIAN_POINT ( 'NONE',  ( 3.499999999999999100, 4.999999999999998200, 0.0000000000000000000 ) ) ;
#766 = PLANE ( 'NONE',  #1244 ) ;
#767 = APPROVAL_ROLE ( '' ) ;
#768 = APPROVAL_STATUS ( 'not_yet_approved' ) ;
#769 = DATE_TIME_ROLE ( 'classification_date' ) ;
#770 = DIRECTION ( 'NONE',  ( 0.0000000000000000000, -0.0000000000000000000, 1.000000000000000000 ) ) ;
#771 = PERSON_AND_ORGANIZATION_ROLE ( 'classification_officer' ) ;
#772 = SECURITY_CLASSIFICATION_LEVEL ( 'unclassified' ) ;
#773 = PERSON_AND_ORGANIZATION_ROLE ( 'design_supplier' ) ;
#774 = PERSON_AND_ORGANIZATION_ROLE ( 'creator' ) ;
#775 = APPROVAL_ROLE ( '' ) ;
#776 = APPROVAL_STATUS ( 'not_yet_approved' ) ;
#777 = DATE_TIME_ROLE ( 'creation_date' ) ;
#778 = PERSON_AND_ORGANIZATION_ROLE ( 'creator' ) ;
#779 = CARTESIAN_POINT ( 'NONE',  ( -10.50000000000000200, 5.999999999999998200, 0.0000000000000000000 ) ) ;
#780 = APPROVAL_ROLE ( '' ) ;
#781 = APPROVAL_STATUS ( 'not_yet_approved' ) ;
#782 = APPLICATION_PROTOCOL_DEFINITION ( 'international standard', 'config_control_design', 1994, #783 ) ;
#783 = APPLICATION_CONTEXT ( 'configuration controlled 3d designs of mechanical parts and assemblies' ) ;
#784 = DIRECTION ( 'NONE',  ( 0.2756373558169986600, 0.9612616959383190100, 0.0000000000000000000 ) ) ;
#785 = DIRECTION ( 'NONE',  ( -0.9612616959383190100, 0.2756373558169986600, 0.0000000000000000000 ) ) ;
#786 = DIRECTION ( 'NONE',  ( 0.0000000000000000000, 1.000000000000000000, 0.0000000000000000000 ) ) ;
#787 = PERSON_AND_ORGANIZATION_ROLE ( 'design_owner' ) ;
#788 = MECHANICAL_CONTEXT ( 'NONE', #790, 'mechanical' ) ;
#789 = APPLICATION_PROTOCOL_DEFINITION ( 'international standard', 'config_control_design', 1994, #790 ) ;
#790 = APPLICATION_CONTEXT ( 'configuration controlled 3d designs of mechanical parts and assemblies' ) ;
#791 = DIRECTION ( 'NONE',  ( 1.000000000000000000, 0.0000000000000000000, 0.0000000000000000000 ) ) ;
#792 = DIRECTION ( 'NONE',  ( 0.0000000000000000000, 0.0000000000000000000, 1.000000000000000000 ) ) ;
#793 = DIRECTION ( 'NONE',  ( -0.9612616959383205600, -0.2756373558169928900, 0.0000000000000000000 ) ) ;
#794 = CARTESIAN_POINT ( 'NONE',  ( 0.0000000000000000000, 0.0000000000000000000, 0.0000000000000000000 ) ) ;
#795 = CARTESIAN_POINT ( 'NONE',  ( -10.50000000000000200, 5.999999999999998200, -4.500000000000000000 ) ) ;
#796 =( NAMED_UNIT ( * ) SI_UNIT ( $, .STERADIAN. ) SOLID_ANGLE_UNIT ( ) );
#797 = DIRECTION ( 'NONE',  ( 1.000000000000000000, 0.0000000000000000000, 0.0000000000000000000 ) ) ;
#798 = DIRECTION ( 'NONE',  ( -0.0000000000000000000, 0.0000000000000000000, 1.000000000000000000 ) ) ;
#799 = PLANE ( 'NONE',  #1270 ) ;
#800 =( NAMED_UNIT ( * ) PLANE_ANGLE_UNIT ( ) SI_UNIT ( $, .RADIAN. ) );
#801 = DIRECTION ( 'NONE',  ( 1.000000000000000000, 0.0000000000000000000, 0.0000000000000000000 ) ) ;
#802 = DIRECTION ( 'NONE',  ( -0.0000000000000000000, 0.0000000000000000000, 1.000000000000000000 ) ) ;
#803 = PLANE ( 'NONE',  #1241 ) ;
#804 = CARTESIAN_POINT ( 'NONE',  ( -10.49999999999999800, -12.00000000000000000, 0.0000000000000000000 ) ) ;
#805 = CARTESIAN_POINT ( 'NONE',  ( 1.300000000000000000, 0.0000000000000000000, -0.1000000000000000100 ) ) ;
#806 = CARTESIAN_POINT ( 'NONE',  ( -10.49999999999999800, -12.00000000000000000, -4.500000000000000000 ) ) ;
#807 =( LENGTH_UNIT ( ) NAMED_UNIT ( * ) SI_UNIT ( .MILLI., .METRE. ) );
#808 = DIRECTION ( 'NONE',  ( 0.0000000000000000000, -0.0000000000000000000, -1.000000000000000000 ) ) ;
#809 = DIRECTION ( 'NONE',  ( 0.0000000000000000000, -1.000000000000000000, 0.0000000000000000000 ) ) ;
#810 = DIRECTION ( 'NONE',  ( -0.0000000000000000000, -0.0000000000000000000, 1.000000000000000000 ) ) ;
#811 = CARTESIAN_POINT ( 'NONE',  ( -5.000000000000000000, 0.0000000000000000000, -0.1000000000000000100 ) ) ;
#812 = DIRECTION ( 'NONE',  ( 0.0000000000000000000, -0.0000000000000000000, 1.000000000000000000 ) ) ;
#813 = DIRECTION ( 'NONE',  ( -0.0000000000000000000, 1.000000000000000000, 0.0000000000000000000 ) ) ;
#814 = CARTESIAN_POINT ( 'NONE',  ( -10.49999999999999800, -12.00000000000000000, -4.500000000000000000 ) ) ;
#815 = PLANE ( 'NONE',  #1268 ) ;
#816 = DIRECTION ( 'NONE',  ( 1.734723475976806800E-016, -1.000000000000000000, 0.0000000000000000000 ) ) ;
#817 = DIRECTION ( 'NONE',  ( -1.000000000000000000, -1.734723475976806800E-016, 0.0000000000000000000 ) ) ;
#818 = PLANE ( 'NONE',  #1243 ) ;
#819 = PLANE ( 'NONE',  #1269 ) ;
#820 = CARTESIAN_POINT ( 'NONE',  ( -3.700000000000000200, 0.0000000000000000000, 0.0000000000000000000 ) ) ;
#821 = DIRECTION ( 'NONE',  ( 1.000000000000000000, 0.0000000000000000000, 0.0000000000000000000 ) ) ;
#822 = DIRECTION ( 'NONE',  ( 1.000000000000000000, 0.0000000000000000000, 0.0000000000000000000 ) ) ;
#823 = DIRECTION ( 'NONE',  ( 0.0000000000000000000, 0.0000000000000000000, 1.000000000000000000 ) ) ;
#824 = PLANE ( 'NONE',  #1267 ) ;
#825 = CARTESIAN_POINT ( 'NONE',  ( -0.5000000000000013300, -9.000000000000000000, -2.200000000000000200 ) ) ;
#826 = DIRECTION ( 'NONE',  ( -1.000000000000000000, 2.891205793294678800E-016, 0.0000000000000000000 ) ) ;
#827 = CARTESIAN_POINT ( 'NONE',  ( 5.499999999999998200, -5.999999999999999100, -2.200000000000000200 ) ) ;
#828 = DIRECTION ( 'NONE',  ( 1.000000000000000000, 0.0000000000000000000, 0.0000000000000000000 ) ) ;
#829 = DIRECTION ( 'NONE',  ( 0.0000000000000000000, 0.0000000000000000000, 1.000000000000000000 ) ) ;
#830 = CARTESIAN_POINT ( 'NONE',  ( -4.699999999999999300, -11.50000000000000000, -4.500000000000000000 ) ) ;
#831 = DIRECTION ( 'NONE',  ( -0.9612616959383206700, -0.2756373558169928900, 0.0000000000000000000 ) ) ;
#832 = CARTESIAN_POINT ( 'NONE',  ( -4.699999999999999300, -11.50000000000000000, -4.500000000000000000 ) ) ;
#833 = CARTESIAN_POINT ( 'NONE',  ( -6.299999999999999800, 1.592040838891559100E-016, 0.0000000000000000000 ) ) ;
#834 = DIRECTION ( 'NONE',  ( 0.0000000000000000000, 0.0000000000000000000, -1.000000000000000000 ) ) ;
#835 = DIRECTION ( 'NONE',  ( 0.0000000000000000000, -1.000000000000000000, 0.0000000000000000000 ) ) ;
#836 = CARTESIAN_POINT ( 'NONE',  ( -1.300000000000000000, 1.592040838891559100E-016, -0.1000000000000000100 ) ) ;
#837 = CARTESIAN_POINT ( 'NONE',  ( -5.000000000000000000, 0.0000000000000000000, -0.1000000000000000100 ) ) ;
#838 = DIRECTION ( 'NONE',  ( 1.000000000000000000, 0.0000000000000000000, 0.0000000000000000000 ) ) ;
#839 = DIRECTION ( 'NONE',  ( 0.0000000000000000000, 0.0000000000000000000, 1.000000000000000000 ) ) ;
#840 = CARTESIAN_POINT ( 'NONE',  ( -7.499999999999998200, -9.000000000000001800, -4.500000000000000000 ) ) ;
#841 = CARTESIAN_POINT ( 'NONE',  ( -10.50000000000000200, 5.999999999999998200, 0.0000000000000000000 ) ) ;
#842 = DIRECTION ( 'NONE',  ( 0.0000000000000000000, 1.000000000000000000, 0.0000000000000000000 ) ) ;
#843 = CARTESIAN_POINT ( 'NONE',  ( 0.7999999999999999300, 4.999999999999998200, -0.1000000000000000100 ) ) ;
#844 = CARTESIAN_POINT ( 'NONE',  ( -3.700000000000000200, 0.0000000000000000000, -0.1000000000000000100 ) ) ;
#845 = DIRECTION ( 'NONE',  ( -9.637352644315595200E-017, 1.000000000000000000, -0.0000000000000000000 ) ) ;
#846 = CARTESIAN_POINT ( 'NONE',  ( 5.499999999999998200, 5.999999999999998200, -4.500000000000000000 ) ) ;
#847 = CARTESIAN_POINT ( 'NONE',  ( -6.299999999999999800, 1.592040838891559100E-016, -0.1000000000000000100 ) ) ;
#848 = DIRECTION ( 'NONE',  ( -0.0000000000000000000, -0.0000000000000000000, 1.000000000000000000 ) ) ;
#849 = CARTESIAN_POINT ( 'NONE',  ( -6.443707221920498700, -12.00000000000000000, -4.500000000000000000 ) ) ;
#850 = DIRECTION ( 'NONE',  ( 1.000000000000000000, 0.0000000000000000000, 0.0000000000000000000 ) ) ;
#851 = CARTESIAN_POINT ( 'NONE',  ( -1.300000000000000000, 1.592040838891559100E-016, 0.0000000000000000000 ) ) ;
#852 = DIRECTION ( 'NONE',  ( 0.0000000000000000000, 0.0000000000000000000, 1.000000000000000000 ) ) ;
#853 = CARTESIAN_POINT ( 'NONE',  ( 3.499999999999999600, 5.999999999999998200, 0.0000000000000000000 ) ) ;
#854 = CARTESIAN_POINT ( 'NONE',  ( -2.500000000000000000, -61.50000000000000000, -2.199999999999999700 ) ) ;
#855 = DIRECTION ( 'NONE',  ( -0.0000000000000000000, -0.0000000000000000000, 1.000000000000000000 ) ) ;
#856 = CARTESIAN_POINT ( 'NONE',  ( -7.499999999999998200, -9.000000000000001800, -2.200000000000000200 ) ) ;
#857 = DIRECTION ( 'NONE',  ( 1.000000000000000000, 0.0000000000000000000, 0.0000000000000000000 ) ) ;
#858 = DIRECTION ( 'NONE',  ( 0.0000000000000000000, 0.0000000000000000000, 1.000000000000000000 ) ) ;
#859 = CARTESIAN_POINT ( 'NONE',  ( 5.499999999999998200, -5.999999999999999100, -2.200000000000000200 ) ) ;
#860 = CARTESIAN_POINT ( 'NONE',  ( -7.499999999999998200, -9.000000000000001800, -4.500000000000000000 ) ) ;
#861 = DIRECTION ( 'NONE',  ( 1.000000000000000000, 0.0000000000000000000, 0.0000000000000000000 ) ) ;
#862 = DIRECTION ( 'NONE',  ( 0.0000000000000000000, 0.0000000000000000000, 1.000000000000000000 ) ) ;
#863 = CARTESIAN_POINT ( 'NONE',  ( -5.000000000000000000, 0.0000000000000000000, -0.1000000000000000100 ) ) ;
#864 = CARTESIAN_POINT ( 'NONE',  ( -0.6999999999999975100, 5.999999999999998200, 0.0000000000000000000 ) ) ;
#865 = DIRECTION ( 'NONE',  ( -0.0000000000000000000, -0.0000000000000000000, 1.000000000000000000 ) ) ;
#866 = CARTESIAN_POINT ( 'NONE',  ( -9.099999999999997900, -9.000000000000001800, -4.500000000000000000 ) ) ;
#867 = CARTESIAN_POINT ( 'NONE',  ( -5.000000000000000000, 0.0000000000000000000, 0.0000000000000000000 ) ) ;
#868 = DIRECTION ( 'NONE',  ( -0.0000000000000000000, -0.0000000000000000000, 1.000000000000000000 ) ) ;
#869 = CARTESIAN_POINT ( 'NONE',  ( 1.999999999999999600, 4.999999999999998200, -0.1000000000000000100 ) ) ;
#870 = CARTESIAN_POINT ( 'NONE',  ( -4.699999999999999300, -11.50000000000000000, -2.200000000000000200 ) ) ;
#871 = DIRECTION ( 'NONE',  ( -1.000000000000000000, 0.0000000000000000000, 0.0000000000000000000 ) ) ;
#872 = CARTESIAN_POINT ( 'NONE',  ( 3.499999999999999600, 5.999999999999998200, -0.1000000000000000100 ) ) ;
#873 = CARTESIAN_POINT ( 'NONE',  ( -0.2999999999999990500, -11.50000000000000000, -4.500000000000000000 ) ) ;
#874 = DIRECTION ( 'NONE',  ( 4.336808689942025100E-016, -1.000000000000000000, 0.0000000000000000000 ) ) ;
#875 = CARTESIAN_POINT ( 'NONE',  ( -0.5000000000000017800, -9.000000000000000000, -2.200000000000000200 ) ) ;
#876 = DIRECTION ( 'NONE',  ( 0.0000000000000000000, 0.0000000000000000000, -1.000000000000000000 ) ) ;
#877 = DIRECTION ( 'NONE',  ( 0.0000000000000000000, -1.000000000000000000, 0.0000000000000000000 ) ) ;
#878 = DIRECTION ( 'NONE',  ( 1.000000000000000000, 0.0000000000000000000, 0.0000000000000000000 ) ) ;
#879 = CARTESIAN_POINT ( 'NONE',  ( -0.6999999999999996200, 4.999999999999998200, 0.0000000000000000000 ) ) ;
#880 = CARTESIAN_POINT ( 'NONE',  ( -0.6999999999999996200, 4.999999999999998200, -0.1000000000000000100 ) ) ;
#881 = CARTESIAN_POINT ( 'NONE',  ( -10.49999999999999800, -5.999999999999999100, 0.0000000000000000000 ) ) ;
#882 = DIRECTION ( 'NONE',  ( -1.000000000000000000, -0.0000000000000000000, -0.0000000000000000000 ) ) ;
#883 = CARTESIAN_POINT ( 'NONE',  ( -10.50000000000000200, 5.999999999999998200, 0.0000000000000000000 ) ) ;
#884 = CARTESIAN_POINT ( 'NONE',  ( -7.499999999999998200, -5.999999999999998200, 0.0000000000000000000 ) ) ;
#885 = CARTESIAN_POINT ( 'NONE',  ( -5.899999999999997700, -9.000000000000001800, -2.200000000000000200 ) ) ;
#886 = CARTESIAN_POINT ( 'NONE',  ( 4.100000000000002300, -9.000000000000001800, -2.200000000000000200 ) ) ;
#887 = DIRECTION ( 'NONE',  ( -0.0000000000000000000, -0.0000000000000000000, 1.000000000000000000 ) ) ;
#888 = CARTESIAN_POINT ( 'NONE',  ( 2.000000000000000000, 4.999999999999997300, 0.0000000000000000000 ) ) ;
#889 = CARTESIAN_POINT ( 'NONE',  ( -2.500000000000000000, -61.50000000000000000, -2.199999999999999700 ) ) ;
#890 = DIRECTION ( 'NONE',  ( -1.000000000000000000, 2.891205793294678800E-016, 0.0000000000000000000 ) ) ;
#891 = CARTESIAN_POINT ( 'NONE',  ( 5.499999999999998200, -5.999999999999999100, 0.0000000000000000000 ) ) ;
#892 = CARTESIAN_POINT ( 'NONE',  ( -7.499999999999998200, -5.999999999999998200, -2.200000000000000200 ) ) ;
#893 = CARTESIAN_POINT ( 'NONE',  ( -0.7000000000000000700, 5.999999999999996400, -0.1000000000000000100 ) ) ;
#894 = DIRECTION ( 'NONE',  ( 1.000000000000000000, 0.0000000000000000000, 0.0000000000000000000 ) ) ;
#895 = DIRECTION ( 'NONE',  ( 0.0000000000000000000, 0.0000000000000000000, 1.000000000000000000 ) ) ;
#896 = CARTESIAN_POINT ( 'NONE',  ( 1.443707221920460100, -12.00000000000000000, -4.500000000000000000 ) ) ;
#897 = DIRECTION ( 'NONE',  ( -1.000000000000000000, -2.891205793294677800E-016, -0.0000000000000000000 ) ) ;
#898 = PLANE ( 'NONE',  #1229 ) ;
#899 = CARTESIAN_POINT ( 'NONE',  ( -10.49999999999999800, -5.999999999999999100, -2.200000000000000200 ) ) ;
#900 = DIRECTION ( 'NONE',  ( 1.000000000000000000, 0.0000000000000000000, 0.0000000000000000000 ) ) ;
#901 = DIRECTION ( 'NONE',  ( 0.0000000000000000000, 0.0000000000000000000, 1.000000000000000000 ) ) ;
#902 = CARTESIAN_POINT ( 'NONE',  ( 5.499999999999998200, -5.999999999999999100, -2.200000000000000200 ) ) ;
#903 = DIRECTION ( 'NONE',  ( -1.000000000000000000, -5.782411586589356700E-016, 0.0000000000000000000 ) ) ;
#904 = CARTESIAN_POINT ( 'NONE',  ( 0.7999999999999999300, 5.999999999999997300, -0.1000000000000000100 ) ) ;
#905 = DIRECTION ( 'NONE',  ( 0.0000000000000000000, 0.0000000000000000000, 1.000000000000000000 ) ) ;
#906 = DIRECTION ( 'NONE',  ( 0.0000000000000000000, -1.000000000000000000, -0.0000000000000000000 ) ) ;
#907 = CARTESIAN_POINT ( 'NONE',  ( -7.499999999999998200, -9.000000000000001800, -2.200000000000000200 ) ) ;
#908 = CARTESIAN_POINT ( 'NONE',  ( 0.9000000000000012400, -9.000000000000001800, -4.500000000000000000 ) ) ;
#909 = DIRECTION ( 'NONE',  ( 0.9612616959383190100, -0.2756373558169986600, -0.0000000000000000000 ) ) ;
#910 = CARTESIAN_POINT ( 'NONE',  ( 5.499999999999998200, 5.999999999999998200, 0.0000000000000000000 ) ) ;
#911 = CARTESIAN_POINT ( 'NONE',  ( 3.499999999999999600, 5.999999999999998200, -0.1000000000000000100 ) ) ;
#912 = CARTESIAN_POINT ( 'NONE',  ( 0.0000000000000000000, 0.0000000000000000000, 0.0000000000000000000 ) ) ;
#913 = CARTESIAN_POINT ( 'NONE',  ( -4.699999999999999300, -11.50000000000000000, -4.500000000000000000 ) ) ;
#914 = CARTESIAN_POINT ( 'NONE',  ( -10.50000000000000000, -12.00000000000000000, -2.200000000000000200 ) ) ;
#915 = CARTESIAN_POINT ( 'NONE',  ( -2.500000000000000000, -11.49999999999999600, -2.199999999999999700 ) ) ;
#916 = DIRECTION ( 'NONE',  ( 1.734723475976806800E-016, -1.000000000000000000, 0.0000000000000000000 ) ) ;
#917 = CARTESIAN_POINT ( 'NONE',  ( -0.5000000000000013300, -9.000000000000000000, 0.0000000000000000000 ) ) ;
#918 = CARTESIAN_POINT ( 'NONE',  ( -7.500000000000000000, -9.000000000000000000, -2.200000000000000200 ) ) ;
#919 = DIRECTION ( 'NONE',  ( 1.000000000000000000, 0.0000000000000000000, 0.0000000000000000000 ) ) ;
#920 = DIRECTION ( 'NONE',  ( 0.0000000000000000000, 0.0000000000000000000, 1.000000000000000000 ) ) ;
#921 = CARTESIAN_POINT ( 'NONE',  ( -0.5000000000000008900, -11.50000000000000000, -2.200000000000000200 ) ) ;
#922 = DIRECTION ( 'NONE',  ( 1.000000000000000000, 0.0000000000000000000, 0.0000000000000000000 ) ) ;
#923 = DIRECTION ( 'NONE',  ( 0.0000000000000000000, 0.0000000000000000000, 1.000000000000000000 ) ) ;
#924 = CARTESIAN_POINT ( 'NONE',  ( 1.443707221920460100, -12.00000000000000000, -2.200000000000000200 ) ) ;
#925 = DIRECTION ( 'NONE',  ( 1.000000000000000000, 0.0000000000000000000, 0.0000000000000000000 ) ) ;
#926 = DIRECTION ( 'NONE',  ( 0.0000000000000000000, 0.0000000000000000000, 1.000000000000000000 ) ) ;
#927 = CARTESIAN_POINT ( 'NONE',  ( 2.500000000000001800, -9.000000000000001800, -2.200000000000000200 ) ) ;
#928 = CARTESIAN_POINT ( 'NONE',  ( 2.500000000000001800, -9.000000000000001800, -4.500000000000000000 ) ) ;
#929 = DIRECTION ( 'NONE',  ( 1.000000000000000000, 0.0000000000000000000, 0.0000000000000000000 ) ) ;
#930 = CARTESIAN_POINT ( 'NONE',  ( 2.500000000000001800, -9.000000000000001800, -2.200000000000000200 ) ) ;
#931 = DIRECTION ( 'NONE',  ( -0.0000000000000000000, -0.0000000000000000000, 1.000000000000000000 ) ) ;
#932 = CARTESIAN_POINT ( 'NONE',  ( 1.443707221920460100, -12.00000000000000000, -4.500000000000000000 ) ) ;
#933 = DIRECTION ( 'NONE',  ( -1.000000000000000000, -0.0000000000000000000, -0.0000000000000000000 ) ) ;
#934 = CARTESIAN_POINT ( 'NONE',  ( -10.50000000000000200, 5.999999999999998200, -4.500000000000000000 ) ) ;
#935 = CARTESIAN_POINT ( 'NONE',  ( 1.999999999999999600, 5.999999999999998200, -0.1000000000000000100 ) ) ;
#936 = DIRECTION ( 'NONE',  ( -0.0000000000000000000, -0.0000000000000000000, 1.000000000000000000 ) ) ;
#937 = CARTESIAN_POINT ( 'NONE',  ( -4.699999999999999300, -11.50000000000000000, -4.500000000000000000 ) ) ;
#938 = CARTESIAN_POINT ( 'NONE',  ( 1.999999999999999600, 4.999999999999998200, 0.0000000000000000000 ) ) ;
#939 = DIRECTION ( 'NONE',  ( -0.0000000000000000000, -0.0000000000000000000, 1.000000000000000000 ) ) ;
#940 = CARTESIAN_POINT ( 'NONE',  ( 0.7999999999999999300, 4.999999999999998200, -0.1000000000000000100 ) ) ;
#941 = DIRECTION ( 'NONE',  ( 1.000000000000000000, 0.0000000000000000000, 0.0000000000000000000 ) ) ;
#942 = CARTESIAN_POINT ( 'NONE',  ( -10.49999999999999800, -12.00000000000000000, -4.500000000000000000 ) ) ;
#943 = DIRECTION ( 'NONE',  ( 0.0000000000000000000, 0.0000000000000000000, 1.000000000000000000 ) ) ;
#944 = CARTESIAN_POINT ( 'NONE',  ( 5.500000000000000000, -12.00000000000000000, -4.500000000000000000 ) ) ;
#945 = DIRECTION ( 'NONE',  ( -0.9612616959383190100, 0.2756373558169986600, -0.0000000000000000000 ) ) ;
#946 = CARTESIAN_POINT ( 'NONE',  ( -0.2999999999999990500, -11.50000000000000000, -4.500000000000000000 ) ) ;
#947 = CARTESIAN_POINT ( 'NONE',  ( -0.5000000000000008900, -11.50000000000000000, -2.200000000000000200 ) ) ;
#948 = DIRECTION ( 'NONE',  ( -0.0000000000000000000, -0.0000000000000000000, 1.000000000000000000 ) ) ;
#949 = CARTESIAN_POINT ( 'NONE',  ( -0.6999999999999996200, 4.999999999999998200, -0.1000000000000000100 ) ) ;
#950 = DIRECTION ( 'NONE',  ( 1.000000000000000000, 0.0000000000000000000, 0.0000000000000000000 ) ) ;
#951 = DIRECTION ( 'NONE',  ( -0.0000000000000000000, -0.0000000000000000000, 1.000000000000000000 ) ) ;
#952 = CARTESIAN_POINT ( 'NONE',  ( -10.49999999999999800, -12.00000000000000000, -4.500000000000000000 ) ) ;
#953 = DIRECTION ( 'NONE',  ( -0.0000000000000000000, -0.0000000000000000000, 1.000000000000000000 ) ) ;
#954 = CARTESIAN_POINT ( 'NONE',  ( -4.499999999999999100, -9.000000000000000000, -2.200000000000000200 ) ) ;
#955 = DIRECTION ( 'NONE',  ( 1.000000000000000000, 0.0000000000000000000, 0.0000000000000000000 ) ) ;
#956 = CARTESIAN_POINT ( 'NONE',  ( -4.699999999999999300, -11.50000000000000000, -2.200000000000000200 ) ) ;
#957 = CARTESIAN_POINT ( 'NONE',  ( 5.499999999999998200, 5.999999999999998200, 0.0000000000000000000 ) ) ;
#958 = DIRECTION ( 'NONE',  ( 1.000000000000000000, 0.0000000000000000000, 0.0000000000000000000 ) ) ;
#959 = CARTESIAN_POINT ( 'NONE',  ( 2.499999999999998200, -5.999999999999998200, -2.200000000000000200 ) ) ;
#960 = DIRECTION ( 'NONE',  ( 0.0000000000000000000, 0.0000000000000000000, 1.000000000000000000 ) ) ;
#961 = DIRECTION ( 'NONE',  ( -0.0000000000000000000, 1.000000000000000000, -0.0000000000000000000 ) ) ;
#962 = CARTESIAN_POINT ( 'NONE',  ( -0.5000000000000017800, -9.000000000000000000, -2.200000000000000200 ) ) ;
#963 = DIRECTION ( 'NONE',  ( 0.0000000000000000000, 1.000000000000000000, 0.0000000000000000000 ) ) ;
#964 = CARTESIAN_POINT ( 'NONE',  ( -4.499999999999999100, -11.50000000000000000, -2.200000000000000200 ) ) ;
#965 = DIRECTION ( 'NONE',  ( 0.0000000000000000000, 0.0000000000000000000, 1.000000000000000000 ) ) ;
#966 = DIRECTION ( 'NONE',  ( 0.0000000000000000000, -1.000000000000000000, -0.0000000000000000000 ) ) ;
#967 = DIRECTION ( 'NONE',  ( -0.0000000000000000000, -0.0000000000000000000, 1.000000000000000000 ) ) ;
#968 = CARTESIAN_POINT ( 'NONE',  ( -10.49999999999999800, -5.999999999999999100, -2.200000000000000200 ) ) ;
#969 = CARTESIAN_POINT ( 'NONE',  ( 3.499999999999999100, 4.999999999999998200, -0.1000000000000000100 ) ) ;
#970 = CARTESIAN_POINT ( 'NONE',  ( 0.7999999999999999300, 5.999999999999997300, -0.1000000000000000100 ) ) ;
#971 = DIRECTION ( 'NONE',  ( -0.0000000000000000000, -0.0000000000000000000, 1.000000000000000000 ) ) ;
#972 = CARTESIAN_POINT ( 'NONE',  ( 0.0000000000000000000, 0.0000000000000000000, -0.1000000000000000100 ) ) ;
#973 = DIRECTION ( 'NONE',  ( 0.0000000000000000000, 0.0000000000000000000, 1.000000000000000000 ) ) ;
#974 = CARTESIAN_POINT ( 'NONE',  ( 0.7999999999999999300, 4.999999999999998200, -0.1000000000000000100 ) ) ;
#975 = DIRECTION ( 'NONE',  ( -1.000000000000000000, 0.0000000000000000000, 0.0000000000000000000 ) ) ;
#976 = CARTESIAN_POINT ( 'NONE',  ( 2.499999999999998700, -9.000000000000000000, -2.200000000000000200 ) ) ;
#977 = CARTESIAN_POINT ( 'NONE',  ( 2.499999999999998700, -9.000000000000000000, 0.0000000000000000000 ) ) ;
#978 = DIRECTION ( 'NONE',  ( 0.0000000000000000000, 0.0000000000000000000, 1.000000000000000000 ) ) ;
#979 = DIRECTION ( 'NONE',  ( -1.000000000000000000, 0.0000000000000000000, 0.0000000000000000000 ) ) ;
#980 = CARTESIAN_POINT ( 'NONE',  ( -10.49999999999999800, -5.999999999999999100, 0.0000000000000000000 ) ) ;
#981 = DIRECTION ( 'NONE',  ( -1.000000000000000000, -2.891205793294677800E-016, -0.0000000000000000000 ) ) ;
#982 = CARTESIAN_POINT ( 'NONE',  ( 0.7999999999999999300, 4.999999999999998200, 0.0000000000000000000 ) ) ;
#983 = DIRECTION ( 'NONE',  ( -0.0000000000000000000, -0.0000000000000000000, 1.000000000000000000 ) ) ;
#984 = CARTESIAN_POINT ( 'NONE',  ( -2.500000000000000000, -61.50000000000000000, -0.9499999999999988500 ) ) ;
#985 = DIRECTION ( 'NONE',  ( 0.0000000000000000000, -1.000000000000000000, 0.0000000000000000000 ) ) ;
#986 = DIRECTION ( 'NONE',  ( -0.0000000000000000000, -0.0000000000000000000, 1.000000000000000000 ) ) ;
#987 = DIRECTION ( 'NONE',  ( -1.000000000000000000, -0.0000000000000000000, -0.0000000000000000000 ) ) ;
#988 = CARTESIAN_POINT ( 'NONE',  ( -0.7000000000000000700, 5.999999999999996400, 0.0000000000000000000 ) ) ;
#989 = DIRECTION ( 'NONE',  ( 1.000000000000000000, 0.0000000000000000000, 0.0000000000000000000 ) ) ;
#990 = CARTESIAN_POINT ( 'NONE',  ( 1.300000000000000000, 0.0000000000000000000, -0.1000000000000000100 ) ) ;
#991 = DIRECTION ( 'NONE',  ( 1.000000000000000000, 0.0000000000000000000, 0.0000000000000000000 ) ) ;
#992 = DIRECTION ( 'NONE',  ( 0.0000000000000000000, 0.0000000000000000000, 1.000000000000000000 ) ) ;
#993 = CARTESIAN_POINT ( 'NONE',  ( -7.500000000000000000, -9.000000000000000000, 0.0000000000000000000 ) ) ;
#994 = CARTESIAN_POINT ( 'NONE',  ( -10.50000000000000200, 5.999999999999998200, 0.0000000000000000000 ) ) ;
#995 = CARTESIAN_POINT ( 'NONE',  ( -0.6999999999999996200, 4.999999999999998200, -0.1000000000000000100 ) ) ;
#996 = DIRECTION ( 'NONE',  ( -0.0000000000000000000, -0.0000000000000000000, 1.000000000000000000 ) ) ;
#997 = CARTESIAN_POINT ( 'NONE',  ( -0.7000000000000000700, 5.999999999999996400, -0.1000000000000000100 ) ) ;
#998 = DIRECTION ( 'NONE',  ( 1.000000000000000000, -0.0000000000000000000, -0.0000000000000000000 ) ) ;
#999 = CARTESIAN_POINT ( 'NONE',  ( 3.499999999999999600, 5.999999999999998200, -0.1000000000000000100 ) ) ;
#1000 = DIRECTION ( 'NONE',  ( 1.000000000000000000, 0.0000000000000000000, 0.0000000000000000000 ) ) ;
#1001 = DIRECTION ( 'NONE',  ( 0.0000000000000000000, 0.0000000000000000000, 1.000000000000000000 ) ) ;
#1002 = CARTESIAN_POINT ( 'NONE',  ( 0.0000000000000000000, 0.0000000000000000000, 0.0000000000000000000 ) ) ;
#1003 = DIRECTION ( 'NONE',  ( -2.891205793294678300E-016, 1.000000000000000000, 0.0000000000000000000 ) ) ;
#1004 = CARTESIAN_POINT ( 'NONE',  ( -0.2999999999999990500, -11.50000000000000000, -2.200000000000000200 ) ) ;
#1005 = DIRECTION ( 'NONE',  ( 4.336808689942025100E-016, -1.000000000000000000, 0.0000000000000000000 ) ) ;
#1006 = CARTESIAN_POINT ( 'NONE',  ( 5.500000000000000000, -12.00000000000000000, -2.200000000000000200 ) ) ;
#1007 = CARTESIAN_POINT ( 'NONE',  ( -4.499999999999999100, -9.000000000000000000, -2.200000000000000200 ) ) ;
#1008 = DIRECTION ( 'NONE',  ( 0.0000000000000000000, 0.0000000000000000000, 1.000000000000000000 ) ) ;
#1009 = CARTESIAN_POINT ( 'NONE',  ( 1.999999999999999600, 5.999999999999998200, 0.0000000000000000000 ) ) ;
#1010 = DIRECTION ( 'NONE',  ( 1.927470528863119000E-016, -1.000000000000000000, 0.0000000000000000000 ) ) ;
#1011 = DIRECTION ( 'NONE',  ( 0.0000000000000000000, 0.0000000000000000000, 1.000000000000000000 ) ) ;
#1012 = CARTESIAN_POINT ( 'NONE',  ( -4.699999999999999300, -11.50000000000000000, 0.0000000000000000000 ) ) ;
#1013 = CARTESIAN_POINT ( 'NONE',  ( -10.50000000000000200, 5.999999999999998200, -4.500000000000000000 ) ) ;
#1014 = CARTESIAN_POINT ( 'NONE',  ( -7.499999999999998200, -5.999999999999998200, -2.200000000000000200 ) ) ;
#1015 = DIRECTION ( 'NONE',  ( 1.000000000000000000, 0.0000000000000000000, 0.0000000000000000000 ) ) ;
#1016 = DIRECTION ( 'NONE',  ( -1.000000000000000000, -0.0000000000000000000, -0.0000000000000000000 ) ) ;
#1017 = CARTESIAN_POINT ( 'NONE',  ( -5.899999999999997700, -9.000000000000001800, -4.500000000000000000 ) ) ;
#1018 = DIRECTION ( 'NONE',  ( -0.0000000000000000000, -0.0000000000000000000, 1.000000000000000000 ) ) ;
#1019 = CARTESIAN_POINT ( 'NONE',  ( -0.5000000000000013300, -9.000000000000000000, -2.200000000000000200 ) ) ;
#1020 = DIRECTION ( 'NONE',  ( 1.000000000000000000, 0.0000000000000000000, 0.0000000000000000000 ) ) ;
#1021 = CARTESIAN_POINT ( 'NONE',  ( 0.0000000000000000000, 0.0000000000000000000, -0.1000000000000000100 ) ) ;
#1022 = DIRECTION ( 'NONE',  ( 1.734723475976806800E-016, -1.000000000000000000, 0.0000000000000000000 ) ) ;
#1023 = DIRECTION ( 'NONE',  ( 0.0000000000000000000, -1.000000000000000000, 0.0000000000000000000 ) ) ;
#1024 = DIRECTION ( 'NONE',  ( 1.927470528863119000E-016, -1.000000000000000000, 0.0000000000000000000 ) ) ;
#1025 = CARTESIAN_POINT ( 'NONE',  ( 1.443707221920460100, -12.00000000000000000, -2.200000000000000200 ) ) ;
#1026 = DIRECTION ( 'NONE',  ( 1.000000000000000000, 0.0000000000000000000, 0.0000000000000000000 ) ) ;
#1027 = CARTESIAN_POINT ( 'NONE',  ( -2.500000000000000000, -61.50000000000000000, -3.450000000000000600 ) ) ;
#1028 = CARTESIAN_POINT ( 'NONE',  ( 2.499999999999998200, -5.999999999999998200, -2.200000000000000200 ) ) ;
#1029 = CARTESIAN_POINT ( 'NONE',  ( -3.700000000000000200, 0.0000000000000000000, -0.1000000000000000100 ) ) ;
#1030 = DIRECTION ( 'NONE',  ( -0.0000000000000000000, -0.0000000000000000000, 1.000000000000000000 ) ) ;
#1031 = CARTESIAN_POINT ( 'NONE',  ( 3.499999999999999100, 4.999999999999998200, -0.1000000000000000100 ) ) ;
#1032 = DIRECTION ( 'NONE',  ( -0.0000000000000000000, -0.0000000000000000000, 1.000000000000000000 ) ) ;
#1033 = CARTESIAN_POINT ( 'NONE',  ( -10.50000000000000200, 5.999999999999998200, 0.0000000000000000000 ) ) ;
#1034 = CARTESIAN_POINT ( 'NONE',  ( -6.443707221920461400, -12.00000000000000000, -2.200000000000000200 ) ) ;
#1035 = DIRECTION ( 'NONE',  ( 0.0000000000000000000, 0.0000000000000000000, 1.000000000000000000 ) ) ;
#1036 = CARTESIAN_POINT ( 'NONE',  ( 2.500000000000001800, -9.000000000000001800, -4.500000000000000000 ) ) ;
#1037 = DIRECTION ( 'NONE',  ( -1.000000000000000000, -0.0000000000000000000, -0.0000000000000000000 ) ) ;
#1038 = CARTESIAN_POINT ( 'NONE',  ( 4.100000000000002300, -9.000000000000001800, -4.500000000000000000 ) ) ;
#1039 = DIRECTION ( 'NONE',  ( 1.000000000000000000, 0.0000000000000000000, 0.0000000000000000000 ) ) ;
#1040 = DIRECTION ( 'NONE',  ( -0.0000000000000000000, -0.0000000000000000000, 1.000000000000000000 ) ) ;
#1041 = CARTESIAN_POINT ( 'NONE',  ( -10.49999999999999800, -12.00000000000000000, -4.500000000000000000 ) ) ;
#1042 = DIRECTION ( 'NONE',  ( 1.000000000000000000, 0.0000000000000000000, 0.0000000000000000000 ) ) ;
#1043 = CARTESIAN_POINT ( 'NONE',  ( 5.499999999999998200, 5.999999999999998200, -4.500000000000000000 ) ) ;
#1044 = DIRECTION ( 'NONE',  ( 1.000000000000000000, -0.0000000000000000000, -0.0000000000000000000 ) ) ;
#1045 = CARTESIAN_POINT ( 'NONE',  ( -6.299999999999999800, 1.592040838891559100E-016, -0.1000000000000000100 ) ) ;
#1046 = CARTESIAN_POINT ( 'NONE',  ( 3.499999999999999100, 4.999999999999998200, 0.0000000000000000000 ) ) ;
#1047 = DIRECTION ( 'NONE',  ( 0.0000000000000000000, 0.0000000000000000000, 1.000000000000000000 ) ) ;
#1048 = CARTESIAN_POINT ( 'NONE',  ( -0.2999999999999990500, -11.50000000000000000, -2.200000000000000200 ) ) ;
#1049 = DIRECTION ( 'NONE',  ( 4.336808689942017700E-016, 1.000000000000000000, 0.0000000000000000000 ) ) ;
#1050 = DIRECTION ( 'NONE',  ( -0.0000000000000000000, 1.000000000000000000, -0.0000000000000000000 ) ) ;
#1051 = CARTESIAN_POINT ( 'NONE',  ( -1.300000000000000000, 1.592040838891559100E-016, -0.1000000000000000100 ) ) ;
#1052 = DIRECTION ( 'NONE',  ( -0.0000000000000000000, -0.0000000000000000000, 1.000000000000000000 ) ) ;
#1053 = DIRECTION ( 'NONE',  ( 0.0000000000000000000, 0.0000000000000000000, 1.000000000000000000 ) ) ;
#1054 = DIRECTION ( 'NONE',  ( -0.0000000000000000000, -0.0000000000000000000, 1.000000000000000000 ) ) ;
#1055 = CARTESIAN_POINT ( 'NONE',  ( -4.699999999999999300, -11.50000000000000000, -4.500000000000000000 ) ) ;
#1056 = DIRECTION ( 'NONE',  ( -0.0000000000000000000, 1.000000000000000000, -0.0000000000000000000 ) ) ;
#1057 = CARTESIAN_POINT ( 'NONE',  ( -10.50000000000000200, 5.999999999999998200, -4.500000000000000000 ) ) ;
#1058 = DIRECTION ( 'NONE',  ( 0.0000000000000000000, 0.0000000000000000000, 1.000000000000000000 ) ) ;
#1059 = DIRECTION ( 'NONE',  ( 0.0000000000000000000, 0.0000000000000000000, 1.000000000000000000 ) ) ;
#1060 = CARTESIAN_POINT ( 'NONE',  ( -4.699999999999999300, -11.50000000000000000, -4.500000000000000000 ) ) ;
#1061 = DIRECTION ( 'NONE',  ( -1.000000000000000000, -0.0000000000000000000, -0.0000000000000000000 ) ) ;
#1062 = CARTESIAN_POINT ( 'NONE',  ( -5.000000000000000000, 0.0000000000000000000, 0.0000000000000000000 ) ) ;
#1063 = DIRECTION ( 'NONE',  ( 0.9612616959383191200, 0.2756373558169983300, 0.0000000000000000000 ) ) ;
#1064 = DIRECTION ( 'NONE',  ( 4.336808689942017700E-016, 1.000000000000000000, 0.0000000000000000000 ) ) ;
#1065 = CARTESIAN_POINT ( 'NONE',  ( 1.999999999999999600, 5.999999999999998200, -0.1000000000000000100 ) ) ;
#1066 = DIRECTION ( 'NONE',  ( -0.0000000000000000000, -0.0000000000000000000, 1.000000000000000000 ) ) ;
#1067 = CARTESIAN_POINT ( 'NONE',  ( -0.2999999999999990500, -11.50000000000000000, -4.500000000000000000 ) ) ;
#1068 = DIRECTION ( 'NONE',  ( 1.927470528863119000E-016, -1.000000000000000000, 0.0000000000000000000 ) ) ;
#1069 = DIRECTION ( 'NONE',  ( -1.000000000000000000, -1.927470528863119000E-016, 0.0000000000000000000 ) ) ;
#1070 = DIRECTION ( 'NONE',  ( -0.0000000000000000000, -0.0000000000000000000, 1.000000000000000000 ) ) ;
#1071 = CARTESIAN_POINT ( 'NONE',  ( 1.999999999999999600, 5.999999999999998200, -0.1000000000000000100 ) ) ;
#1072 = CARTESIAN_POINT ( 'NONE',  ( 1.999999999999999600, 4.999999999999998200, -0.1000000000000000100 ) ) ;
#1073 = DIRECTION ( 'NONE',  ( 1.000000000000000000, 0.0000000000000000000, 0.0000000000000000000 ) ) ;
#1074 = DIRECTION ( 'NONE',  ( -9.637352644315595200E-017, 1.000000000000000000, -0.0000000000000000000 ) ) ;
#1075 = DIRECTION ( 'NONE',  ( -0.0000000000000000000, 1.000000000000000000, -0.0000000000000000000 ) ) ;
#1076 = CARTESIAN_POINT ( 'NONE',  ( -2.500000000000000000, -11.49999999999999600, -2.199999999999999700 ) ) ;
#1077 = CARTESIAN_POINT ( 'NONE',  ( -6.443707221920461400, -12.00000000000000000, -2.200000000000000200 ) ) ;
#1078 = DIRECTION ( 'NONE',  ( -0.0000000000000000000, -0.0000000000000000000, 1.000000000000000000 ) ) ;
#1079 = DIRECTION ( 'NONE',  ( -0.0000000000000000000, -0.0000000000000000000, 1.000000000000000000 ) ) ;
#1080 = CARTESIAN_POINT ( 'NONE',  ( 0.9000000000000012400, -9.000000000000001800, -4.500000000000000000 ) ) ;
#1081 = CARTESIAN_POINT ( 'NONE',  ( -4.499999999999999100, -9.000000000000000000, 0.0000000000000000000 ) ) ;
#1082 = DIRECTION ( 'NONE',  ( -0.0000000000000000000, -0.0000000000000000000, 1.000000000000000000 ) ) ;
#1083 = ADVANCED_FACE ( 'NONE', ( #645 ), #898, .T. ) ;
#1084 = ADVANCED_FACE ( 'NONE', ( #643 ), #766, .F. ) ;
#1085 = ADVANCED_FACE ( 'NONE', ( #638 ), #818, .T. ) ;
#1086 = MANIFOLD_SOLID_BREP ( '∂Øƒ - âüÇµèoÇµ4', #32 ) ;
#1087 = UNCERTAINTY_MEASURE_WITH_UNIT (LENGTH_MEASURE( 1.000000000000000100E-005 ), #807, 'distance_accuracy_value', 'NONE');
#1088 = ADVANCED_BREP_SHAPE_REPRESENTATION ( 'ex-24a', ( #1086, #1265 ), #234 ) ;
#1089 = COORDINATED_UNIVERSAL_TIME_OFFSET ( 9, 0, .AHEAD. ) ;
#1090 = LOCAL_TIME ( 9, 36, 3.000000000000000000, #1089 ) ;
#1091 = CALENDAR_DATE ( 2015, 26, 5 ) ;
#1092 = DATE_AND_TIME ( #1091, #1090 ) ;
#1093 = PERSON_AND_ORGANIZATION ( #725, #236 ) ;
#1094 = APPROVAL_PERSON_ORGANIZATION ( #1093, #1225, #767 ) ;
#1095 = COORDINATED_UNIVERSAL_TIME_OFFSET ( 9, 0, .AHEAD. ) ;
#1096 = LOCAL_TIME ( 9, 36, 3.000000000000000000, #1095 ) ;
#1097 = CALENDAR_DATE ( 2015, 26, 5 ) ;
#1098 = DATE_AND_TIME ( #1097, #1096 ) ;
#1099 = APPROVAL_DATE_TIME ( #1098, #1225 ) ;
#1100 = EDGE_CURVE ( 'NONE', #280, #267, #640, .T. ) ;
#1101 = EDGE_CURVE ( 'NONE', #354, #358, #644, .T. ) ;
#1102 = EDGE_CURVE ( 'NONE', #351, #360, #647, .T. ) ;
#1103 = EDGE_CURVE ( 'NONE', #357, #358, #654, .T. ) ;
#1104 = EDGE_CURVE ( 'NONE', #271, #345, #653, .T. ) ;
#1105 = EDGE_CURVE ( 'NONE', #422, #407, #652, .T. ) ;
#1106 = EDGE_CURVE ( 'NONE', #392, #360, #651, .T. ) ;
#1107 = EDGE_CURVE ( 'NONE', #419, #307, #662, .T. ) ;
#1108 = EDGE_CURVE ( 'NONE', #280, #269, #661, .T. ) ;
#1109 = EDGE_CURVE ( 'NONE', #274, #276, #660, .T. ) ;
#1110 = EDGE_CURVE ( 'NONE', #273, #267, #659, .T. ) ;
#1111 = EDGE_CURVE ( 'NONE', #263, #424, #656, .T. ) ;
#1112 = EDGE_CURVE ( 'NONE', #353, #357, #664, .T. ) ;
#1113 = EDGE_CURVE ( 'NONE', #277, #279, #670, .T. ) ;
#1114 = EDGE_CURVE ( 'NONE', #360, #305, #666, .T. ) ;
#1115 = EDGE_CURVE ( 'NONE', #306, #275, #674, .T. ) ;
#1116 = EDGE_CURVE ( 'NONE', #275, #352, #676, .T. ) ;
#1117 = EDGE_CURVE ( 'NONE', #296, #262, #678, .T. ) ;
#1118 = EDGE_CURVE ( 'NONE', #298, #426, #682, .T. ) ;
#1119 = EDGE_CURVE ( 'NONE', #265, #259, #684, .T. ) ;
#1120 = EDGE_CURVE ( 'NONE', #308, #305, #680, .T. ) ;
#1121 = EDGE_CURVE ( 'NONE', #270, #323, #683, .T. ) ;
#1122 = EDGE_CURVE ( 'NONE', #414, #406, #669, .T. ) ;
#1123 = EDGE_CURVE ( 'NONE', #272, #305, #673, .T. ) ;
#1124 = EDGE_CURVE ( 'NONE', #297, #263, #690, .T. ) ;
#1125 = EDGE_CURVE ( 'NONE', #323, #334, #692, .T. ) ;
#1126 = EDGE_CURVE ( 'NONE', #392, #274, #694, .T. ) ;
#1127 = EDGE_CURVE ( 'NONE', #416, #266, #696, .T. ) ;
#1128 = EDGE_CURVE ( 'NONE', #251, #312, #698, .T. ) ;
#1129 = EDGE_CURVE ( 'NONE', #310, #308, #703, .T. ) ;
#1130 = EDGE_CURVE ( 'NONE', #344, #308, #702, .T. ) ;
#1131 = AXIS2_PLACEMENT_3D ( 'NONE', #361, #417, #350 ) ;
#1132 = EDGE_CURVE ( 'NONE', #316, #406, #704, .T. ) ;
#1133 = EDGE_CURVE ( 'NONE', #273, #416, #706, .T. ) ;
#1134 = EDGE_CURVE ( 'NONE', #322, #407, #708, .T. ) ;
#1135 = EDGE_CURVE ( 'NONE', #272, #276, #710, .T. ) ;
#1136 = EDGE_CURVE ( 'NONE', #266, #310, #712, .T. ) ;
#1137 = EDGE_CURVE ( 'NONE', #371, #368, #701, .T. ) ;
#1138 = AXIS2_PLACEMENT_3D ( 'NONE', #331, #342, #340 ) ;
#1139 = EDGE_CURVE ( 'NONE', #419, #311, #700, .T. ) ;
#1140 = EDGE_CURVE ( 'NONE', #276, #277, #687, .T. ) ;
#1141 = EDGE_CURVE ( 'NONE', #346, #351, #720, .T. ) ;
#1142 = EDGE_CURVE ( 'NONE', #407, #375, #715, .T. ) ;
#1143 = EDGE_CURVE ( 'NONE', #371, #359, #114, .T. ) ;
#1144 = AXIS2_PLACEMENT_3D ( 'NONE', #421, #287, #288 ) ;
#1145 = EDGE_CURVE ( 'NONE', #359, #371, #116, .T. ) ;
#1146 = EDGE_CURVE ( 'NONE', #259, #273, #724, .T. ) ;
#1147 = EDGE_CURVE ( 'NONE', #265, #298, #117, .T. ) ;
#1148 = EDGE_CURVE ( 'NONE', #307, #320, #119, .T. ) ;
#1149 = EDGE_CURVE ( 'NONE', #268, #295, #115, .T. ) ;
#1150 = EDGE_CURVE ( 'NONE', #359, #355, #123, .T. ) ;
#1151 = EDGE_CURVE ( 'NONE', #370, #375, #717, .T. ) ;
#1152 = EDGE_CURVE ( 'NONE', #269, #279, #719, .T. ) ;
#1153 = EDGE_CURVE ( 'NONE', #270, #297, #122, .T. ) ;
#1154 = EDGE_CURVE ( 'NONE', #368, #355, #133, .T. ) ;
#1155 = EDGE_CURVE ( 'NONE', #424, #375, #128, .T. ) ;
#1156 = EDGE_CURVE ( 'NONE', #263, #370, #134, .T. ) ;
#1157 = EDGE_CURVE ( 'NONE', #339, #345, #138, .T. ) ;
#1158 = EDGE_CURVE ( 'NONE', #351, #423, #137, .T. ) ;
#1159 = EDGE_CURVE ( 'NONE', #281, #339, #139, .T. ) ;
#1160 = EDGE_CURVE ( 'NONE', #355, #368, #143, .T. ) ;
#1161 = EDGE_CURVE ( 'NONE', #279, #268, #136, .T. ) ;
#1162 = EDGE_CURVE ( 'NONE', #295, #310, #144, .T. ) ;
#1163 = EDGE_CURVE ( 'NONE', #349, #261, #146, .T. ) ;
#1164 = EDGE_CURVE ( 'NONE', #268, #266, #142, .T. ) ;
#1165 = EDGE_CURVE ( 'NONE', #349, #280, #149, .T. ) ;
#1166 = EDGE_CURVE ( 'NONE', #261, #275, #152, .T. ) ;
#1167 = AXIS2_PLACEMENT_3D ( 'NONE', #294, #321, #362 ) ;
#1168 = AXIS2_PLACEMENT_3D ( 'NONE', #289, #418, #389 ) ;
#1169 = EDGE_CURVE ( 'NONE', #274, #278, #154, .T. ) ;
#1170 = EDGE_CURVE ( 'NONE', #296, #423, #132, .T. ) ;
#1171 = EDGE_CURVE ( 'NONE', #262, #414, #141, .T. ) ;
#1172 = EDGE_CURVE ( 'NONE', #422, #392, #159, .T. ) ;
#1173 = AXIS2_PLACEMENT_3D ( 'NONE', #256, #257, #394 ) ;
#1174 = EDGE_CURVE ( 'NONE', #349, #306, #161, .T. ) ;
#1175 = AXIS2_PLACEMENT_3D ( 'NONE', #382, #252, #376 ) ;
#1176 = EDGE_CURVE ( 'NONE', #334, #370, #150, .T. ) ;
#1177 = EDGE_CURVE ( 'NONE', #307, #419, #166, .T. ) ;
#1178 = EDGE_CURVE ( 'NONE', #320, #311, #168, .T. ) ;
#1179 = EDGE_CURVE ( 'NONE', #311, #320, #171, .T. ) ;
#1180 = EDGE_CURVE ( 'NONE', #426, #416, #164, .T. ) ;
#1181 = EDGE_CURVE ( 'NONE', #267, #306, #170, .T. ) ;
#1182 = EDGE_CURVE ( 'NONE', #345, #339, #176, .T. ) ;
#1183 = EDGE_CURVE ( 'NONE', #316, #346, #165, .T. ) ;
#1184 = EDGE_CURVE ( 'NONE', #295, #344, #180, .T. ) ;
#1185 = EDGE_CURVE ( 'NONE', #344, #272, #173, .T. ) ;
#1186 = EDGE_CURVE ( 'NONE', #312, #313, #183, .T. ) ;
#1187 = EDGE_CURVE ( 'NONE', #322, #298, #174, .T. ) ;
#1188 = EDGE_CURVE ( 'NONE', #352, #322, #182, .T. ) ;
#1189 = EDGE_CURVE ( 'NONE', #323, #406, #185, .T. ) ;
#1190 = EDGE_CURVE ( 'NONE', #423, #414, #188, .T. ) ;
#1191 = EDGE_CURVE ( 'NONE', #271, #281, #192, .T. ) ;
#1192 = EDGE_CURVE ( 'NONE', #346, #296, #191, .T. ) ;
#1193 = EDGE_CURVE ( 'NONE', #424, #270, #193, .T. ) ;
#1194 = AXIS2_PLACEMENT_3D ( 'NONE', #372, #317, #398 ) ;
#1195 = EDGE_CURVE ( 'NONE', #297, #334, #195, .T. ) ;
#1196 = EDGE_CURVE ( 'NONE', #337, #313, #197, .T. ) ;
#1197 = EDGE_CURVE ( 'NONE', #353, #354, #201, .T. ) ;
#1198 = AXIS2_PLACEMENT_3D ( 'NONE', #390, #365, #425 ) ;
#1199 = EDGE_CURVE ( 'NONE', #251, #337, #203, .T. ) ;
#1200 = EDGE_CURVE ( 'NONE', #259, #426, #202, .T. ) ;
#1201 = EDGE_CURVE ( 'NONE', #313, #312, #206, .T. ) ;
#1202 = EDGE_CURVE ( 'NONE', #278, #277, #177, .T. ) ;
#1203 = EDGE_CURVE ( 'NONE', #261, #422, #207, .T. ) ;
#1204 = EDGE_CURVE ( 'NONE', #262, #316, #209, .T. ) ;
#1205 = EDGE_CURVE ( 'NONE', #358, #357, #214, .T. ) ;
#1206 = EDGE_CURVE ( 'NONE', #281, #271, #217, .T. ) ;
#1207 = EDGE_CURVE ( 'NONE', #269, #278, #204, .T. ) ;
#1208 = EDGE_CURVE ( 'NONE', #337, #251, #220, .T. ) ;
#1209 = EDGE_CURVE ( 'NONE', #352, #265, #212, .T. ) ;
#1210 = EDGE_CURVE ( 'NONE', #354, #353, #224, .T. ) ;
#1211 = ADVANCED_FACE ( 'NONE', ( #218 ), #824, .F. ) ;
#1212 = AXIS2_PLACEMENT_3D ( 'NONE', #413, #282, #374 ) ;
#1213 = AXIS2_PLACEMENT_3D ( 'NONE', #363, #314, #329 ) ;
#1214 = AXIS2_PLACEMENT_3D ( 'NONE', #386, #315, #300 ) ;
#1215 = PRODUCT_RELATED_PRODUCT_CATEGORY ( 'detail', '', ( #726 ) ) ;
#1216 = AXIS2_PLACEMENT_3D ( 'NONE', #286, #380, #258 ) ;
#1217 = AXIS2_PLACEMENT_3D ( 'NONE', #328, #318, #324 ) ;
#1218 = APPROVAL ( #776, 'UNSPECIFIED' ) ;
#1219 = AXIS2_PLACEMENT_3D ( 'NONE', #377, #428, #401 ) ;
#1220 = PRODUCT_DEFINITION_FORMATION_WITH_SPECIFIED_SOURCE ( 'ANY', '', #726, .NOT_KNOWN. ) ;
#1221 = CC_DESIGN_APPROVAL ( #1218, ( #1220 ) ) ;
#1222 = CC_DESIGN_PERSON_AND_ORGANIZATION_ASSIGNMENT ( #245, #774, ( #1220 ) ) ;
#1223 = AXIS2_PLACEMENT_3D ( 'NONE', #290, #309, #348 ) ;
#1224 = CC_DESIGN_DATE_AND_TIME_ASSIGNMENT ( #1092, #769, ( #1257 ) ) ;
#1225 = APPROVAL ( #768, 'UNSPECIFIED' ) ;
#1226 = CC_DESIGN_PERSON_AND_ORGANIZATION_ASSIGNMENT ( #247, #778, ( #1232 ) ) ;
#1227 = AXIS2_PLACEMENT_3D ( 'NONE', #291, #343, #333 ) ;
#1228 = AXIS2_PLACEMENT_3D ( 'NONE', #327, #336, #338 ) ;
#1229 = AXIS2_PLACEMENT_3D ( 'NONE', #752, #786, #770 ) ;
#1230 = CC_DESIGN_PERSON_AND_ORGANIZATION_ASSIGNMENT ( #199, #773, ( #1220 ) ) ;
#1231 = CC_DESIGN_APPROVAL ( #1225, ( #1257 ) ) ;
#1232 = PRODUCT_DEFINITION ( 'UNKNOWN', '', #1220, #113 ) ;
#1233 = CC_DESIGN_SECURITY_CLASSIFICATION ( #1257, ( #1220 ) ) ;
#1234 = AXIS2_PLACEMENT_3D ( 'NONE', #753, #784, #785 ) ;
#1235 = AXIS2_PLACEMENT_3D ( 'NONE', #977, #973, #975 ) ;
#1236 = AXIS2_PLACEMENT_3D ( 'NONE', #1036, #1058, #1039 ) ;
#1237 = APPROVAL ( #781, 'UNSPECIFIED' ) ;
#1238 = AXIS2_PLACEMENT_3D ( 'NONE', #1062, #1059, #1042 ) ;
#1239 = AXIS2_PLACEMENT_3D ( 'NONE', #993, #992, #991 ) ;
#1240 = AXIS2_PLACEMENT_3D ( 'NONE', #972, #1008, #1020 ) ;
#1241 = AXIS2_PLACEMENT_3D ( 'NONE', #804, #802, #801 ) ;
#1242 = AXIS2_PLACEMENT_3D ( 'NONE', #976, #978, #979 ) ;
#1243 = AXIS2_PLACEMENT_3D ( 'NONE', #795, #1069, #1068 ) ;
#1244 = AXIS2_PLACEMENT_3D ( 'NONE', #913, #763, #793 ) ;
#1245 = AXIS2_PLACEMENT_3D ( 'NONE', #912, #965, #1000 ) ;
#1246 = AXIS2_PLACEMENT_3D ( 'NONE', #930, #923, #922 ) ;
#1247 = AXIS2_PLACEMENT_3D ( 'NONE', #889, #877, #876 ) ;
#1248 = AXIS2_PLACEMENT_3D ( 'NONE', #1002, #960, #958 ) ;
#1249 = AXIS2_PLACEMENT_3D ( 'NONE', #1076, #966, #1001 ) ;
#1250 = AXIS2_PLACEMENT_3D ( 'NONE', #1021, #1011, #1015 ) ;
#1251 = AXIS2_PLACEMENT_3D ( 'NONE', #863, #862, #861 ) ;
#1252 = AXIS2_PLACEMENT_3D ( 'NONE', #915, #906, #905 ) ;
#1253 = AXIS2_PLACEMENT_3D ( 'NONE', #927, #920, #919 ) ;
#1254 = CC_DESIGN_PERSON_AND_ORGANIZATION_ASSIGNMENT ( #233, #771, ( #1257 ) ) ;
#1255 = AXIS2_PLACEMENT_3D ( 'NONE', #928, #926, #925 ) ;
#1256 = AXIS2_PLACEMENT_3D ( 'NONE', #854, #835, #834 ) ;
#1257 = SECURITY_CLASSIFICATION ( '', '', #772 ) ;
#1258 = AXIS2_PLACEMENT_3D ( 'NONE', #860, #858, #857 ) ;
#1259 = AXIS2_PLACEMENT_3D ( 'NONE', #907, #895, #894 ) ;
#1260 = AXIS2_PLACEMENT_3D ( 'NONE', #918, #901, #900 ) ;
#1261 = AXIS2_PLACEMENT_3D ( 'NONE', #840, #829, #828 ) ;
#1262 = AXIS2_PLACEMENT_3D ( 'NONE', #867, #839, #838 ) ;
#1263 = AXIS2_PLACEMENT_3D ( 'NONE', #856, #852, #850 ) ;
#1264 = AXIS2_PLACEMENT_3D ( 'NONE', #837, #823, #822 ) ;
#1265 = AXIS2_PLACEMENT_3D ( 'NONE', #794, #792, #791 ) ;
#1266 = AXIS2_PLACEMENT_3D ( 'NONE', #811, #810, #821 ) ;
#1267 = AXIS2_PLACEMENT_3D ( 'NONE', #825, #817, #816 ) ;
#1268 = AXIS2_PLACEMENT_3D ( 'NONE', #814, #809, #808 ) ;
#1269 = AXIS2_PLACEMENT_3D ( 'NONE', #830, #813, #812 ) ;
#1270 = AXIS2_PLACEMENT_3D ( 'NONE', #806, #798, #797 ) ;
#1271 = AXIS2_PLACEMENT_3D ( 'NONE', #427, #383, #366 ) ;
#1272 = AXIS2_PLACEMENT_3D ( 'NONE', #404, #304, #332 ) ;
#1273 = AXIS2_PLACEMENT_3D ( 'NONE', #415, #285, #284 ) ;
#1274 = AXIS2_PLACEMENT_3D ( 'NONE', #408, #405, #384 ) ;
#1275 = AXIS2_PLACEMENT_3D ( 'NONE', #254, #330, #391 ) ;
#1276 = AXIS2_PLACEMENT_3D ( 'NONE', #400, #381, #409 ) ;
#1277 = AXIS2_PLACEMENT_3D ( 'NONE', #369, #373, #420 ) ;
#1278 = AXIS2_PLACEMENT_3D ( 'NONE', #387, #402, #325 ) ;
#1279 = AXIS2_PLACEMENT_3D ( 'NONE', #399, #364, #356 ) ;
#1280 = AXIS2_PLACEMENT_3D ( 'NONE', #319, #395, #397 ) ;
#1281 = CC_DESIGN_APPROVAL ( #1237, ( #1232 ) ) ;
#1282 = AXIS2_PLACEMENT_3D ( 'NONE', #411, #301, #302 ) ;
#1283 = CC_DESIGN_DATE_AND_TIME_ASSIGNMENT ( #222, #777, ( #1232 ) ) ;
#1284 = CC_DESIGN_PERSON_AND_ORGANIZATION_ASSIGNMENT ( #237, #787, ( #726 ) ) ;
#1285 = ADVANCED_FACE ( 'NONE', ( #223, #205 ), #819, .F. ) ;
#1286 = ADVANCED_FACE ( 'NONE', ( #219 ), #815, .T. ) ;
#1287 = ADVANCED_FACE ( 'NONE', ( #226 ), #228, .F. ) ;
#1288 = ADVANCED_FACE ( 'NONE', ( #221, #229, #231 ), #803, .T. ) ;
#1289 = ADVANCED_FACE ( 'NONE', ( #230, #225, #232 ), #799, .F. ) ;
ENDSEC;
END-ISO-10303-21;
