  0
SECTION
  2
HEADER
  9
$ACADVER
  1
AC1009
  9
$INSBASE
 10
0.0
 20
0.0
 30
0.0
  9
$EXTMIN
 10
245.48726185786381
 20
318.30944587373568
 30
0.0
  9
$EXTMAX
 10
310.34589156495991
 20
375.72961015816247
 30
0.0
  9
$LIMMIN
 10
-420.0
 20
-297.0
  9
$LIMMAX
 10
420.0
 20
297.0
  9
$ORTHOMODE
 70
     0
  9
$REGENMODE
 70
     1
  9
$FILLMODE
 70
     1
  9
$QTEXTMODE
 70
     0
  9
$MIRRTEXT
 70
     1
  9
$DRAGMODE
 70
     2
  9
$LTSCALE
 40
1.0
  9
$OSMODE
 70
    39
  9
$ATTMODE
 70
     1
  9
$TEXTSIZE
 40
0.2
  9
$TRACEWID
 40
0.05
  9
$TEXTSTYLE
  7
STANDARD
  9
$CLAYER
  8
0
  9
$CELTYPE
  6
BYLAYER
  9
$CECOLOR
 62
   256
  9
$DIMSCALE
 40
1.0
  9
$DIMASZ
 40
2.5
  9
$DIMEXO
 40
0.0625
  9
$DIMDLI
 40
0.38
  9
$DIMRND
 40
0.0
  9
$DIMDLE
 40
0.0
  9
$DIMEXE
 40
0.18
  9
$DIMTP
 40
0.0
  9
$DIMTM
 40
0.0
  9
$DIMTXT
 40
0.18
  9
$DIMCEN
 40
0.09
  9
$DIMTSZ
 40
0.0
  9
$DIMTOL
 70
     0
  9
$DIMLIM
 70
     0
  9
$DIMTIH
 70
     1
  9
$DIMTOH
 70
     1
  9
$DIMSE1
 70
     0
  9
$DIMSE2
 70
     0
  9
$DIMTAD
 70
     3
  9
$DIMZIN
 70
     0
  9
$DIMBLK
  1

  9
$DIMASO
 70
     1
  9
$DIMSHO
 70
     1
  9
$DIMPOST
  1

  9
$DIMAPOST
  1

  9
$DIMALT
 70
     0
  9
$DIMALTD
 70
     2
  9
$DIMALTF
 40
25.399999999999999
  9
$DIMLFAC
 40
1.0
  9
$DIMTOFL
 70
     0
  9
$DIMTVP
 40
0.0
  9
$DIMTIX
 70
     0
  9
$DIMSOXD
 70
     0
  9
$DIMSAH
 70
     0
  9
$DIMBLK1
  1

  9
$DIMBLK2
  1

  9
$DIMSTYLE
  2
STANDARD
  9
$DIMCLRD
 70
     0
  9
$DIMCLRE
 70
     0
  9
$DIMCLRT
 70
     0
  9
$DIMTFAC
 40
1.0
  9
$DIMGAP
 40
0.09
  9
$LUNITS
 70
     2
  9
$LUPREC
 70
     4
  9
$SKETCHINC
 40
0.1
  9
$FILLETRAD
 40
0.5
  9
$AUNITS
 70
     0
  9
$AUPREC
 70
     0
  9
$MENU
  1
.
  9
$ELEVATION
 40
0.0
  9
$PELEVATION
 40
0.0
  9
$THICKNESS
 40
0.0
  9
$LIMCHECK
 70
     0
  9
$BLIPMODE
 70
     0
  9
$CHAMFERA
 40
0.5
  9
$CHAMFERB
 40
0.5
  9
$SKPOLY
 70
     0
  9
$TDCREATE
 40
2454551.8769207988
  9
$TDUPDATE
 40
2457165.686436181
  9
$TDINDWG
 40
0.1174389931
  9
$TDUSRTIMER
 40
0.1174389931
  9
$USRTIMER
 70
     1
  9
$ANGBASE
 50
0.0
  9
$ANGDIR
 70
     0
  9
$PDMODE
 70
     0
  9
$PDSIZE
 40
1.0
  9
$PLINEWID
 40
0.0
  9
$COORDS
 70
     2
  9
$SPLFRAME
 70
     0
  9
$SPLINETYPE
 70
     6
  9
$SPLINESEGS
 70
     8
  9
$ATTDIA
 70
     1
  9
$ATTREQ
 70
     1
  9
$HANDLING
 70
     1
  9
$HANDSEED
  5
9AB
  9
$SURFTAB1
 70
     6
  9
$SURFTAB2
 70
     6
  9
$SURFTYPE
 70
     6
  9
$SURFU
 70
     6
  9
$SURFV
 70
     6
  9
$UCSNAME
  2

  9
$UCSORG
 10
0.0
 20
0.0
 30
0.0
  9
$UCSXDIR
 10
1.0
 20
0.0
 30
0.0
  9
$UCSYDIR
 10
0.0
 20
1.0
 30
0.0
  9
$PUCSNAME
  2

  9
$PUCSORG
 10
0.0
 20
0.0
 30
0.0
  9
$PUCSXDIR
 10
1.0
 20
0.0
 30
0.0
  9
$PUCSYDIR
 10
0.0
 20
1.0
 30
0.0
  9
$USERI1
 70
     0
  9
$USERI2
 70
     0
  9
$USERI3
 70
     0
  9
$USERI4
 70
     0
  9
$USERI5
 70
     0
  9
$USERR1
 40
0.0
  9
$USERR2
 40
0.0
  9
$USERR3
 40
0.0
  9
$USERR4
 40
0.0
  9
$USERR5
 40
0.0
  9
$WORLDVIEW
 70
     1
  9
$SHADEDGE
 70
     3
  9
$SHADEDIF
 70
    70
  9
$TILEMODE
 70
     1
  9
$MAXACTVP
 70
    64
  9
$PLIMCHECK
 70
     0
  9
$PEXTMIN
 10
1.0000000000000000E+020
 20
1.0000000000000000E+020
 30
1.0000000000000000E+020
  9
$PEXTMAX
 10
-1.0000000000000000E+020
 20
-1.0000000000000000E+020
 30
-1.0000000000000000E+020
  9
$PLIMMIN
 10
0.0
 20
0.0
  9
$PLIMMAX
 10
12.0
 20
9.0
  9
$UNITMODE
 70
     0
  9
$VISRETAIN
 70
     0
  9
$PLINEGEN
 70
     1
  9
$PSLTSCALE
 70
     0
  0
ENDSEC
  0
SECTION
  2
TABLES
  0
TABLE
  2
VPORT
 70
     1
  0
VPORT
  2
*ACTIVE
 70
     0
 10
0.0
 20
0.0
 11
1.0
 21
1.0
 12
0.9064786077328932
 22
39.210673794113163
 13
0.0
 23
0.0
 14
0.5
 24
0.5
 15
0.5
 25
0.5
 16
0.0
 26
0.0
 36
1.0
 17
276.17846708505988
 27
311.69594930295619
 37
0.0
 40
94.803327957306735
 41
1.0384226491405451
 42
50.0
 43
0.0
 44
0.0
 50
0.0
 51
0.0
 71
     0
 72
  1000
 73
     1
 74
     1
 75
     0
 76
     0
 77
     0
 78
     0
  0
ENDTAB
  0
TABLE
  2
LTYPE
 70
    21
  0
LTYPE
  2
CONTINUOUS
 70
     0
  3
Solid line
 72
    65
 73
     0
 40
0.0
  0
LTYPE
  2
PHANTOM2
 70
     0
  3
Phantom (.5x) ___ _ _ ___ _ _ ___ _ _ ___ _ _
 72
    65
 73
     6
 40
1.25
 49
0.625
 49
-0.125
 49
0.125
 49
-0.125
 49
0.125
 49
-0.125
  0
LTYPE
  2
CENTER
 70
     0
  3
CADPAC LINETYPE
 72
    65
 73
     4
 40
23.418181818181829
 49
10.18181818181818
 49
-5.0909090909090917
 49
3.054545454545456
 49
-5.0909090909090917
  0
LTYPE
  2
AM_ISO02W050
 70
     0
  3
__ __ __ __ __ __ __ __ __ __ __ __ __ __ __
 72
    65
 73
     2
 40
7.5
 49
6.0
 49
-1.5
  0
LTYPE
  2
AM_ISO08W050
 70
     0
  3
____ . ____ . ____ . ____ . ____ . ____ . ____
 72
    65
 73
     4
 40
18.0
 49
12.0
 49
-1.5
 49
3.0
 49
-1.5
  0
LTYPE
  2
AM_ISO09W050
 70
     0
  3
_____ . . _____ . . _____ . . ____ .. ____
 72
    65
 73
     6
 40
22.5
 49
12.0
 49
-1.5
 49
3.0
 49
-1.5
 49
3.0
 49
-1.5
  0
LTYPE
  2
AMCONSTR
 70
     0
  3
_______________________
 72
    65
 73
     2
 40
9999.0
 49
9999.0
 49
0.0
  0
LTYPE
  2
AM_ISO08W050X2
 70
     0
  3
__ . __ . __ . __ . __ . __
 72
    65
 73
     4
 40
9.0
 49
6.0
 49
-0.75
 49
1.5
 49
-0.75
  0
LTYPE
  2
AM_ISO02W050X2
 70
     0
  3
 _ _ _ _ _ _ _ _ _ _ _ _
 72
    65
 73
     2
 40
3.75
 49
3.0
 49
-0.75
  0
LTYPE
  2
AMZIGZAG
 70
     0
  3
/\/-/\/-/\/-/\/-/\/-/\/
 72
    65
 73
     2
 40
11.000099999999991
 49
0.0001
 49
-11.0
  0
LTYPE
  2
ACISOWELD
 70
     0
  3
_ _ _ _ _
 72
    65
 73
     2
 40
2.0
 49
2.0
 49
-1.0
  0
LTYPE
  2
ACISOTGB
 70
     0
  3
__ . . __ . .
 72
    65
 73
     6
 40
9.0
 49
4.0
 49
-1.0
 49
1.0
 49
-1.0
 49
1.0
 49
-1.0
  0
LTYPE
  2
ACISOTGL
 70
     0
  3
_ _ _ _ _
 72
    65
 73
     2
 40
3.0
 49
2.0
 49
-1.0
  0
LTYPE
  2
HIDDEN
 70
     0
  3
Hidden __ __ __ __ __ __ __ __ __ __ __ __ __ _
 72
    65
 73
     2
 40
0.375
 49
0.25
 49
-0.125
  0
LTYPE
  2
CENTER2
 70
     0
  3
Center (.5x) ___ _ ___ _ ___ _ ___ _ ___ _ ___
 72
    65
 73
     4
 40
1.125
 49
0.75
 49
-0.125
 49
0.125
 49
-0.125
  0
LTYPE
  2
HIDDEN2
 70
     0
  3
Hidden (.5x) _ _ _ _ _ _ _ _ _ _ _ _ _ _ _ _ _
 72
    65
 73
     2
 40
0.1875
 49
0.125
 49
-0.0625
  0
LTYPE
  2
AMZIGZAG2
 70
     0
  3
/\/-/\/-/\/-/\/-/\/-/\/
 72
    65
 73
     2
 40
0.4401
 49
0.0001
 49
-0.4400000000000001
  0
LTYPE
  2
ACANSTGB
 70
     0
  3
__ . . __ . .
 72
    65
 73
     6
 40
0.35433070866
 49
0.15748031496
 49
-0.03937007874
 49
0.03937007874
 49
-0.03937007874
 49
0.03937007874
 49
-0.03937007874
  0
LTYPE
  2
ACANSTGL
 70
     0
  3
_ _ _ _ _
 72
    65
 73
     2
 40
0.11811023622
 49
0.07874015748
 49
-0.03937007874
  0
ENDTAB
  0
TABLE
  2
LAYER
 70
     3
  0
LAYER
  2
0
 70
     0
 62
     7
  6
CONTINUOUS
  0
LAYER
  2
DEFPOINTS
 70
     0
 62
     7
  6
CONTINUOUS
  0
LAYER
  2
AM_CL
 70
     0
 62
     1
  6
AMCONSTR
  0
ENDTAB
  0
TABLE
  2
STYLE
 70
     8
  0
STYLE
  2
STANDARD
 70
     0
 40
0.0
 41
1.0
 50
0.0
 71
     0
 42
0.2
  3
txt
  4

  0
STYLE
  2
ANNOTATIVE
 70
     0
 40
0.0
 41
1.0
 50
0.0
 71
     0
 42
0.2
  3
txt
  4

  0
STYLE
  2

 70
     1
 40
0.0
 41
1.0
 50
0.0
 71
     0
 42
0.2
  3
ltypeshp.shx
  4

  0
STYLE
  2
ACISOTS
 70
     0
 40
1.0
 41
1.0
 50
0.0
 71
     0
 42
0.2
  3
isocp.shx
  4
extfont.shx
  0
STYLE
  2
ACISOGDT
 70
     0
 40
0.0
 41
1.0
 50
0.0
 71
     0
 42
0.2
  3
amgdt.shx
  4

  0
STYLE
  2

 70
     1
 40
0.0
 41
1.0
 50
0.0
 71
     0
 42
0.2
  3
genltshp.shx
  4

  0
STYLE
  2
ACANSTS
 70
     0
 40
1.0
 41
1.0
 50
0.0
 71
     0
 42
0.2
  3
romans.shx
  4
extfont.shx
  0
STYLE
  2
ACANSGDT
 70
     0
 40
0.0
 41
1.0
 50
0.0
 71
     0
 42
0.2
  3
amgdt.shx
  4

  0
ENDTAB
  0
TABLE
  2
VIEW
 70
     0
  0
ENDTAB
  0
TABLE
  2
UCS
 70
     0
  0
ENDTAB
  0
TABLE
  2
APPID
 70
    17
  0
APPID
  2
ACAD
 70
     0
  0
APPID
  2
ACADANNOTATIVE
 70
     0
  0
APPID
  2
DAFUSIONOUT
 70
     0
  0
APPID
  2
MCAD_NO_VIS
 70
     0
  0
APPID
  2
ACAD_TEMP_GRAPHIC
 70
     0
  0
APPID
  2
ACATTRIBSERVICES
 70
     0
  0
APPID
  2
GENIUS_GENSCREG_15
 70
     0
  0
APPID
  2
GENIUS_GENOBJ-N-SDF_13
 70
     0
  0
APPID
  2
GENIUS_GENODEF_13
 70
     0
  0
APPID
  2
DESIGNERASSEMBLIES
 70
     0
  0
APPID
  2
ACAD_DSTYLE_DIMJAG
 70
     0
  0
APPID
  2
ACAD_DSTYLE_DIMBREAK
 70
     0
  0
APPID
  2
ACAD_NAV_VCDISPLAY
 70
     0
  0
APPID
  2
ACAD_EXEMPT_FROM_CAD_STANDARDS
 70
     0
  0
APPID
  2
ACAECLAYERSTANDARD
 70
     0
  0
APPID
  2
ACDBDYNAMICBLOCKTRUENAME2
 70
     0
  0
APPID
  2
ACAD_MLEADERVER
 70
     0
  0
ENDTAB
  0
TABLE
  2
DIMSTYLE
 70
    16
  0
DIMSTYLE
  2
STANDARD
 70
     0
  3

  4

  5

  6

  7

 40
1.0
 41
0.18
 42
0.0625
 43
0.38
 44
0.18
 45
0.0
 46
0.0
 47
0.0
 48
0.0
140
0.18
141
0.09
142
0.0
143
25.399999999999999
144
1.0
145
0.0
146
1.0
147
0.09
 71
     0
 72
     0
 73
     1
 74
     1
 75
     0
 76
     0
 77
     0
 78
     0
170
     0
171
     2
172
     0
173
     0
174
     0
175
     0
176
     0
177
     0
178
     0
  0
DIMSTYLE
  2
ANNOTATIVE
 70
     0
  3

  4

  5

  6

  7

 40
1.0
 41
0.18
 42
0.0625
 43
0.38
 44
0.18
 45
0.0
 46
0.0
 47
0.0
 48
0.0
140
0.18
141
0.09
142
0.0
143
25.399999999999999
144
1.0
145
0.0
146
1.0
147
0.09
 71
     0
 72
     0
 73
     1
 74
     1
 75
     0
 76
     0
 77
     0
 78
     0
170
     0
171
     2
172
     0
173
     0
174
     0
175
     0
176
     0
177
     0
178
     0
  0
DIMSTYLE
  2
AM_ISO
 70
     0
  3

  4
"
  5

  6

  7

 40
1.0
 41
2.5
 42
1.0
 43
10.0
 44
1.0
 45
0.0
 46
0.0
 47
0.1
 48
0.1
140
3.5
141
0.0
142
0.0
143
0.0393701
144
1.0
145
0.0
146
0.71
147
1.5
 71
     0
 72
     0
 73
     0
 74
     0
 75
     0
 76
     0
 77
     1
 78
     8
170
     0
171
     2
172
     1
173
     0
174
     0
175
     0
176
   256
177
   256
178
     2
  0
DIMSTYLE
  2
AM_ISO$3
 70
     0
  3

  4
"
  5

  6

  7

 40
1.0
 41
2.5
 42
1.0
 43
10.0
 44
1.0
 45
0.0
 46
0.0
 47
0.1
 48
0.1
140
3.5
141
0.0
142
0.0
143
0.0393701
144
1.0
145
0.0
146
0.71
147
1.5
 71
     0
 72
     0
 73
     0
 74
     1
 75
     0
 76
     0
 77
     1
 78
     8
170
     0
171
     2
172
     0
173
     0
174
     0
175
     0
176
   256
177
   256
178
     2
  0
DIMSTYLE
  2
AM_ISO$4
 70
     0
  3

  4
"
  5

  6

  7

 40
1.0
 41
2.5
 42
1.0
 43
10.0
 44
1.0
 45
0.0
 46
0.0
 47
0.1
 48
0.1
140
3.5
141
0.0
142
0.0
143
0.0393701
144
1.0
145
0.0
146
0.71
147
1.5
 71
     0
 72
     0
 73
     0
 74
     1
 75
     0
 76
     0
 77
     1
 78
     8
170
     0
171
     2
172
     0
173
     0
174
     0
175
     0
176
   256
177
   256
178
     2
  0
DIMSTYLE
  2
AM_ISO$6
 70
     0
  3

  4
"
  5

  6

  7

 40
1.0
 41
2.5
 42
1.0
 43
10.0
 44
1.0
 45
0.0
 46
0.0
 47
0.1
 48
0.1
140
3.5
141
0.0
142
0.0
143
0.0393701
144
1.0
145
0.0
146
0.71
147
1.5
 71
     0
 72
     0
 73
     0
 74
     0
 75
     0
 76
     0
 77
     0
 78
     8
170
     0
171
     2
172
     1
173
     0
174
     0
175
     0
176
   256
177
   256
178
     2
  0
DIMSTYLE
  2
AM_ISO$7
 70
     0
  3

  4
"
  5

  6

  7

 40
1.0
 41
2.5
 42
1.0
 43
10.0
 44
1.0
 45
0.0
 46
0.0
 47
0.1
 48
0.1
140
5.0
141
0.0
142
0.0
143
0.0393701
144
1.0
145
0.0
146
0.71
147
1.5
 71
     0
 72
     0
 73
     0
 74
     0
 75
     0
 76
     0
 77
     1
 78
     8
170
     0
171
     2
172
     1
173
     0
174
     0
175
     0
176
   256
177
   256
178
     2
  0
DIMSTYLE
  2
AM_ISO$SF
 70
     0
  3

  4
"
  5

  6

  7

 40
1.0
 41
2.5
 42
1.0
 43
10.0
 44
1.0
 45
0.0
 46
0.0
 47
0.1
 48
0.1
140
3.5
141
0.0
142
0.0
143
0.0393701
144
1.0
145
0.0
146
0.71
147
1.5
 71
     0
 72
     0
 73
     0
 74
     0
 75
     1
 76
     1
 77
     1
 78
     8
170
     0
171
     2
172
     1
173
     0
174
     0
175
     0
176
   256
177
   256
178
     2
  0
DIMSTYLE
  2
AM_ISO$SH
 70
     0
  3

  4
"
  5

  6

  7

 40
1.0
 41
2.5
 42
1.0
 43
10.0
 44
1.0
 45
0.0
 46
0.0
 47
0.1
 48
0.1
140
3.5
141
0.0
142
0.0
143
0.0393701
144
2.0
145
0.0
146
0.71
147
1.5
 71
     0
 72
     0
 73
     0
 74
     0
 75
     1
 76
     1
 77
     1
 78
     8
170
     0
171
     2
172
     1
173
     1
174
     0
175
     0
176
   256
177
   256
178
     2
  0
DIMSTYLE
  2
AM_ANSI
 70
     0
  3

  4
mm
  5

  6

  7

 40
1.0
 41
0.12
 42
0.05
 43
0.5
 44
0.1
 45
0.0
 46
0.0
 47
0.1
 48
0.1
140
0.12
141
0.0
142
0.0
143
25.399999999999999
144
1.0
145
0.0
146
0.71
147
0.06
 71
     0
 72
     0
 73
     1
 74
     1
 75
     0
 76
     0
 77
     0
 78
     7
170
     0
171
     2
172
     0
173
     0
174
     0
175
     0
176
   256
177
   256
178
     2
  0
DIMSTYLE
  2
AM_ANSI$3
 70
     0
  3

  4
mm
  5

  6

  7

 40
1.0
 41
0.12
 42
0.05
 43
0.5
 44
0.1
 45
0.0
 46
0.0
 47
0.1
 48
0.1
140
0.12
141
0.0
142
0.0
143
25.399999999999999
144
1.0
145
0.0
146
0.71
147
0.06
 71
     0
 72
     0
 73
     1
 74
     1
 75
     0
 76
     0
 77
     0
 78
     7
170
     0
171
     2
172
     0
173
     0
174
     0
175
     0
176
   256
177
   256
178
     2
  0
DIMSTYLE
  2
AM_ANSI$4
 70
     0
  3

  4
mm
  5

  6

  7

 40
1.0
 41
0.12
 42
0.05
 43
0.5
 44
0.1
 45
0.0
 46
0.0
 47
0.1
 48
0.1
140
0.12
141
0.0
142
0.0
143
25.399999999999999
144
1.0
145
0.0
146
0.71
147
0.06
 71
     0
 72
     0
 73
     1
 74
     1
 75
     0
 76
     0
 77
     0
 78
     7
170
     0
171
     2
172
     0
173
     0
174
     0
175
     0
176
   256
177
   256
178
     2
  0
DIMSTYLE
  2
AM_ANSI$7
 70
     0
  3

  4
mm
  5

  6

  7

 40
1.0
 41
0.12
 42
0.05
 43
0.5
 44
0.1
 45
0.0
 46
0.0
 47
0.1
 48
0.1
140
0.12
141
0.0
142
0.0
143
25.399999999999999
144
1.0
145
0.0
146
0.71
147
0.06
 71
     0
 72
     0
 73
     1
 74
     1
 75
     0
 76
     0
 77
     0
 78
     7
170
     0
171
     2
172
     0
173
     0
174
     0
175
     0
176
   256
177
   256
178
     2
  0
DIMSTYLE
  2
AM_ANSI$SF
 70
     0
  3

  4
mm
  5

  6

  7

 40
1.0
 41
0.12
 42
0.05
 43
0.5
 44
0.1
 45
0.0
 46
0.0
 47
0.1
 48
0.1
140
0.12
141
0.0
142
0.0
143
25.399999999999999
144
1.0
145
0.0
146
0.71
147
0.06
 71
     0
 72
     0
 73
     1
 74
     1
 75
     1
 76
     1
 77
     0
 78
     7
170
     0
171
     2
172
     0
173
     0
174
     0
175
     0
176
   256
177
   256
178
     2
  0
DIMSTYLE
  2
AM_ANSI$SH
 70
     0
  3

  4
mm
  5

  6
GENAXEH
  7

 40
1.0
 41
0.12
 42
0.05
 43
0.5
 44
0.1
 45
0.0
 46
0.0
 47
0.1
 48
0.1
140
0.12
141
0.0
142
0.0
143
25.399999999999999
144
1.0
145
0.0
146
0.71
147
0.06
 71
     0
 72
     0
 73
     1
 74
     1
 75
     1
 76
     1
 77
     0
 78
     7
170
     0
171
     2
172
     0
173
     1
174
     0
175
     0
176
   256
177
   256
178
     2
  0
ENDTAB
  0
ENDSEC
  0
SECTION
  2
BLOCKS
  0
BLOCK
  8
0
  2
$MODEL_SPACE
 70
     0
 10
0.0
 20
0.0
 30
0.0
  3
$MODEL_SPACE
  1

  0
ENDBLK
  5
76C
  8
0
  0
BLOCK
 67
     1
  8
0
  2
$PAPER_SPACE
 70
     0
 10
0.0
 20
0.0
 30
0.0
  3
$PAPER_SPACE
  1

  0
ENDBLK
  5
768
 67
     1
  8
0
  0
BLOCK
  8
0
  2
GENAXEH
 70
     0
 10
0.0
 20
0.0
 30
0.0
  3
GENAXEH
  1

  0
LINE
  5
2C1
  8
0
 10
-1.0
 20
0.0
 30
0.0
 11
1.0
 21
0.0
 31
0.0
  0
ENDBLK
  5
2C3
  8
0
  0
BLOCK
  8
0
  2
*U3
 70
     1
 10
0.0
 20
0.0
 30
0.0
  3
*U3
  1

  0
SOLID
  5
6F0
  8
0
  6
CONTINUOUS
 62
     2
 10
280.78726185786383
 20
363.16206640265398
 30
0.0
 11
280.78726185786371
 21
361.63615231488433
 31
0.0
 12
281.40056302916952
 22
363.92502344653877
 32
0.0
 13
281.40056302916952
 23
363.92502344653877
 33
0.0
  0
SOLID
  5
6F1
  8
0
  6
CONTINUOUS
 62
     2
 10
280.78726185786383
 20
363.16206640265398
 30
0.0
 11
281.40056302916952
 21
363.92502344653877
 31
0.0
 12
280.17396068655808
 22
363.92502344653877
 32
0.0
 13
280.17396068655808
 23
363.92502344653877
 33
0.0
  0
SOLID
  5
6F2
  8
0
  6
CONTINUOUS
 62
     2
 10
280.78726185786383
 20
363.16206640265398
 30
0.0
 11
280.17396068655808
 21
363.92502344653877
 31
0.0
 12
280.78726185786371
 22
361.63615231488433
 32
0.0
 13
280.78726185786371
 23
361.63615231488433
 33
0.0
  0
ENDBLK
  5
6F4
  8
0
  0
BLOCK
  8
0
  2
*U4
 70
     1
 10
0.0
 20
0.0
 30
0.0
  3
*U4
  1

  0
SOLID
  5
6F6
  8
0
  6
CONTINUOUS
 62
     2
 10
275.78726185786343
 20
366.96736161281058
 30
0.0
 11
275.78726185786343
 21
368.49327570058023
 31
0.0
 12
275.17396068655768
 22
366.20440456892578
 32
0.0
 13
275.17396068655768
 23
366.20440456892578
 33
0.0
  0
SOLID
  5
6F7
  8
0
  6
CONTINUOUS
 62
     2
 10
275.78726185786343
 20
366.96736161281058
 30
0.0
 11
275.17396068655768
 21
366.20440456892578
 31
0.0
 12
276.40056302916912
 22
366.20440456892578
 32
0.0
 13
276.40056302916912
 23
366.20440456892578
 33
0.0
  0
SOLID
  5
6F8
  8
0
  6
CONTINUOUS
 62
     2
 10
275.78726185786343
 20
366.96736161281058
 30
0.0
 11
276.40056302916912
 21
366.20440456892578
 31
0.0
 12
275.78726185786343
 22
368.49327570058023
 32
0.0
 13
275.78726185786343
 23
368.49327570058023
 33
0.0
  0
ENDBLK
  5
6FA
  8
0
  0
ENDSEC
  0
SECTION
  2
ENTITIES
  0
LINE
  5
19B
  8
0
  6
CONTINUOUS
 62
     4
 10
275.78726185786343
 20
342.2122556973672
 30
0.0
 11
275.78726185786343
 21
345.45225569736732
 31
0.0
  0
LINE
  5
19C
  8
0
  6
CONTINUOUS
 62
     4
 10
280.78726185786383
 20
342.2122556973672
 30
0.0
 11
280.78726185786383
 21
345.45225569736732
 31
0.0
  0
LINE
  5
19D
  8
0
  6
CONTINUOUS
 62
     4
 10
274.16726185786371
 20
343.83225569736732
 30
0.0
 11
277.40726185786372
 21
343.83225569736732
 31
0.0
  0
LINE
  5
19E
  8
0
  6
CENTER
 62
     4
 10
273.28726185786383
 20
332.91225569736781
 30
0.0
 11
273.28726185786383
 21
336.75225569736722
 31
0.0
  0
LINE
  5
19F
  8
0
  6
CENTER
 62
     4
 10
271.36726185786392
 20
334.83225569736737
 30
0.0
 11
275.2072618578635
 21
334.83225569736737
 31
0.0
  0
LINE
  5
1A0
  8
0
  6
CENTER
 62
     4
 10
283.28726185786383
 20
332.91225569736781
 30
0.0
 11
283.28726185786383
 21
336.75225569736722
 31
0.0
  0
LINE
  5
1A1
  8
0
  6
CENTER
 62
     4
 10
281.36726185786392
 20
334.83225569736737
 30
0.0
 11
285.20726185786361
 21
334.83225569736737
 31
0.0
  0
LINE
  5
1A2
  8
0
  6
CENTER
 62
     4
 10
248.08726185786361
 20
321.33225569736823
 30
0.0
 11
248.08726185786361
 21
331.83225569736737
 31
0.0
  0
LINE
  5
1A3
  8
0
  6
CENTER
 62
     4
 10
248.38726185786371
 20
334.83225569736862
 30
0.0
 11
245.48726185786381
 21
334.83225569736862
 31
0.0
  0
LINE
  5
1A4
  8
0
  6
CENTER
 62
     4
 10
278.28726185786383
 20
321.33225569736737
 30
0.0
 11
278.28726185786383
 21
350.33225569736749
 31
0.0
  0
LINE
  5
1A5
  8
0
  6
CENTER
 62
     4
 10
278.28726185786383
 20
369.33225569736788
 30
0.0
 11
278.28726185786383
 21
374.83225569736788
 31
0.0
  0
LINE
  5
1AA
  8
0
  6
CONTINUOUS
 62
     4
 10
279.16726185786382
 20
343.83225569736732
 30
0.0
 11
282.40726185786372
 21
343.83225569736732
 31
0.0
  0
ARC
  5
1DD
  8
0
  6
CONTINUOUS
 62
     7
 10
248.71226185786401
 20
322.30100569736749
 30
0.0
 40
0.7812500000003185
 50
216.8698976458264
 51
323.13010235415601
  0
ARC
  5
1DE
  8
0
  6
CONTINUOUS
 62
     7
 10
248.71226185786409
 20
321.3635056973684
 30
0.0
 40
0.7812499999993861
 50
36.869897645794403
 51
143.13010235423059
  0
ARC
  5
1DF
  8
0
  6
CONTINUOUS
 62
     7
 10
247.46226185786389
 20
322.30100569736749
 30
0.0
 40
0.7812500000000683
 50
216.86989764585061
 51
323.1301023541385
  0
ARC
  5
1E0
  8
0
  6
CONTINUOUS
 62
     7
 10
277.66226185786383
 20
322.30100569736749
 30
0.0
 40
0.78125
 50
216.86989764584399
 51
323.13010235415601
  0
ARC
  5
1E1
  8
0
  6
CONTINUOUS
 62
     7
 10
278.91226185786383
 20
321.3635056973676
 30
0.0
 40
0.78125
 50
36.869897645844027
 51
143.13010235415589
  0
ARC
  5
1E2
  8
0
  6
CONTINUOUS
 62
     7
 10
278.91226185786383
 20
322.30100569736749
 30
0.0
 40
0.78125
 50
216.86989764584399
 51
323.13010235415601
  0
LINE
  5
202
  8
0
  6
CONTINUOUS
 62
     7
 10
274.28726185786383
 20
331.83225569736737
 30
0.0
 11
270.28726185786383
 21
331.83225569736737
 31
0.0
  0
LINE
  5
203
  8
0
  6
CONTINUOUS
 62
     7
 10
274.28726185786383
 20
331.83225569736737
 30
0.0
 11
276.08726185786372
 21
332.33225569736737
 31
0.0
  0
LINE
  5
204
  8
0
  6
CONTINUOUS
 62
     7
 10
280.48726185786398
 20
332.33225569736737
 30
0.0
 11
282.28726185786383
 21
331.83225569736737
 31
0.0
  0
LINE
  5
205
  8
0
  6
CONTINUOUS
 62
     7
 10
286.28726185786383
 20
331.83225569736737
 30
0.0
 11
282.28726185786383
 21
331.83225569736737
 31
0.0
  0
LINE
  5
206
  8
0
  6
CONTINUOUS
 62
     7
 10
280.48726185786398
 20
332.33225569736737
 30
0.0
 11
276.08726185786372
 21
332.33225569736737
 31
0.0
  0
LINE
  5
209
  8
0
  6
CONTINUOUS
 62
     7
 10
248.08726185786361
 20
332.33225569736737
 30
0.0
 11
248.08726185786361
 21
331.83225569736737
 31
0.0
  0
LINE
  5
20A
  8
0
  6
CONTINUOUS
 62
     7
 10
248.08726185786361
 20
332.33225569736737
 30
0.0
 11
250.2872618578638
 21
332.44755281179022
 31
0.0
  0
LINE
  5
20B
  8
0
  6
CONTINUOUS
 62
     7
 10
250.2872618578638
 20
349.75364402844338
 30
0.0
 11
248.78726185786371
 21
349.83225569736783
 31
0.0
  0
LINE
  5
20C
  8
0
  6
CONTINUOUS
 62
     7
 10
245.7872618578638
 20
349.83225569736783
 30
0.0
 11
245.7872618578638
 21
331.83225569736737
 31
0.0
  0
LINE
  5
20D
  8
0
  6
CONTINUOUS
 62
     7
 10
245.7872618578638
 20
331.83225569736737
 30
0.0
 11
248.08726185786361
 21
331.83225569736737
 31
0.0
  0
LINE
  5
20E
  8
0
  6
CONTINUOUS
 62
     7
 10
246.83726185786361
 20
331.83225569736737
 30
0.0
 11
246.83726185786401
 21
321.83225569736732
 31
0.0
  0
LINE
  5
20F
  8
0
  6
CONTINUOUS
 62
     7
 10
249.33726185786369
 20
332.39776542147132
 30
0.0
 11
249.33726185786401
 21
321.83225569736737
 31
0.0
  0
LINE
  5
210
  8
0
  6
CONTINUOUS
 62
     7
 10
248.08726185786361
 20
337.63225569736852
 30
0.0
 11
248.08726185786361
 21
332.33225569736737
 31
0.0
  0
LINE
  5
211
  8
0
  6
CONTINUOUS
 62
     7
 10
248.08726185786361
 20
337.63225569736852
 30
0.0
 11
250.2872618578638
 21
337.74755281179108
 31
0.0
  0
LINE
  5
212
  8
0
  6
CONTINUOUS
 62
     7
 10
250.2872618578638
 20
332.44755281179022
 30
0.0
 11
250.2872618578638
 21
349.75364402844338
 31
0.0
  0
LINE
  5
213
  8
0
  6
CONTINUOUS
 62
     7
 10
248.78726185786371
 20
349.83225569736783
 30
0.0
 11
245.7872618578638
 21
349.83225569736783
 31
0.0
  0
LINE
  5
214
  8
0
  6
CONTINUOUS
 62
     7
 10
276.28726185786383
 20
332.33225569736737
 30
0.0
 11
276.28726185786383
 21
334.83225569736737
 31
0.0
  0
LINE
  5
215
  8
0
  6
CONTINUOUS
 62
     7
 10
280.28726185786383
 20
332.33225569736737
 30
0.0
 11
280.28726185786383
 21
334.83225569736737
 31
0.0
  0
LINE
  5
216
  8
0
  6
CONTINUOUS
 62
     7
 10
283.28726185786383
 20
337.83225569736749
 30
0.0
 11
286.28726185786383
 21
337.83225569736749
 31
0.0
  0
LINE
  5
217
  8
0
  6
CONTINUOUS
 62
     7
 10
270.28726185786383
 20
337.83225569736749
 30
0.0
 11
273.28726185786383
 21
337.83225569736749
 31
0.0
  0
LINE
  5
218
  8
0
  6
CONTINUOUS
 62
     7
 10
286.28726185786383
 20
349.8322556973672
 30
0.0
 11
286.28726185786383
 21
331.83225569736737
 31
0.0
  0
LINE
  5
219
  8
0
  6
CONTINUOUS
 62
     7
 10
286.28726185786383
 20
349.8322556973672
 30
0.0
 11
270.28726185786383
 21
349.8322556973672
 31
0.0
  0
LINE
  5
21A
  8
0
  6
CONTINUOUS
 62
     7
 10
270.28726185786383
 20
349.8322556973672
 30
0.0
 11
270.28726185786383
 21
331.83225569736737
 31
0.0
  0
LINE
  5
21B
  8
0
  6
CONTINUOUS
 62
     7
 10
277.03726185786348
 20
332.33225569736737
 30
0.0
 11
277.03726185786383
 21
321.83225569736737
 31
0.0
  0
LINE
  5
21C
  8
0
  6
CONTINUOUS
 62
     7
 10
279.53726185786348
 20
332.33225569736737
 30
0.0
 11
279.53726185786383
 21
321.83225569736737
 31
0.0
  0
LINE
  5
21D
  8
0
  6
CONTINUOUS
 62
     7
 10
270.28726185786383
 20
374.332255697368
 30
0.0
 11
286.28726185786383
 21
374.332255697368
 31
0.0
  0
LINE
  5
21E
  8
0
  6
CONTINUOUS
 62
     7
 10
286.28726185786383
 20
374.332255697368
 30
0.0
 11
286.28726185786383
 21
371.33225569736788
 31
0.0
  0
LINE
  5
21F
  8
0
  6
CONTINUOUS
 62
     7
 10
270.28726185786383
 20
374.332255697368
 30
0.0
 11
270.28726185786383
 21
371.33225569736788
 31
0.0
  0
LINE
  5
220
  8
0
  6
CONTINUOUS
 62
     7
 10
286.28726185786383
 20
371.33225569736788
 30
0.0
 11
286.20865018893937
 21
369.832255697368
 31
0.0
  0
LINE
  5
221
  8
0
  6
CONTINUOUS
 62
     7
 10
270.28726185786383
 20
371.33225569736788
 30
0.0
 11
270.36587352678828
 21
369.832255697368
 31
0.0
  0
LINE
  5
222
  8
0
  6
CONTINUOUS
 62
     7
 10
270.36587352678828
 20
369.832255697368
 30
0.0
 11
286.20865018893937
 21
369.832255697368
 31
0.0
  0
CIRCLE
  5
231
  8
0
  6
CONTINUOUS
 62
     7
 10
283.28726185786383
 20
334.83225569736737
 30
0.0
 40
1.599999999999794
  0
CIRCLE
  5
232
  8
0
  6
CONTINUOUS
 62
     7
 10
273.28726185786383
 20
334.83225569736737
 30
0.0
 40
1.599999999999794
  0
ARC
  5
23D
  8
0
  6
CONTINUOUS
 62
     7
 10
283.28726185786383
 20
334.83225569736737
 30
0.0
 40
3.0
 50
90.0
 51
180.0
  0
ARC
  5
23E
  8
0
  6
CONTINUOUS
 62
     7
 10
273.28726185786383
 20
334.83225569736737
 30
0.0
 40
3.0
 50
0.0
 51
90.0
  0
LINE
  5
655
  8
0
  6
CENTER
 62
     4
 10
273.28726185786383
 20
375.72961015816247
 30
0.0
 11
273.28726185786383
 21
368.49327570058
 31
0.0
  0
LINE
  5
656
  8
0
  6
CENTER
 62
     4
 10
283.28726185786383
 20
375.72961015816247
 30
0.0
 11
283.28726185786383
 21
368.49327570058
 31
0.0
  0
TEXT
  5
6B3
  8
0
 62
     2
 10
290.51255823162649
 20
318.30944587373568
 30
0.0
 40
3.5
  1
EX-24A
  0
LINE
  5
817
  8
0
  6
CONTINUOUS
 62
     4
 10
275.78726185786343
 20
361.63615231488473
 30
0.0
 11
275.78726185786343
 21
367.24713123024361
 31
0.0
  0
SOLID
  5
818
  8
0
 62
     4
 10
276.18221935062547
 20
365.49327570058063
 30
0.0
 11
275.39230436510138
 21
365.49327570058063
 31
0.0
 12
275.78726185786343
 22
368.49327570058023
 32
0.0
 13
275.78726185786343
 23
368.49327570058023
 33
0.0
  0
LINE
  5
83F
  8
0
  6
CONTINUOUS
 62
     4
 10
280.78726185786383
 20
362.48665626863152
 30
0.0
 11
280.78726185786383
 21
368.49327570058023
 31
0.0
  0
SOLID
  5
840
  8
0
 62
     4
 10
281.18221935062593
 20
364.63615236743232
 30
0.0
 11
280.39230436510178
 21
364.63615236743232
 31
0.0
 12
280.78726185786383
 22
361.6361523674326
 32
0.0
 13
280.78726185786383
 23
361.6361523674326
 33
0.0
  0
VIEWPORT
  5
79
 67
     1
  8
0
 10
276.17846708505988
 20
-32.132863405043508
 30
0.0
 40
534.0
 41
2441.7907146144689
 68
     1
 69
     1
1001
ACAD
1000
MVIEW
1002
{
1070
    16
1010
0.0
1020
0.0
1030
0.0
1010
0.0
1020
0.0
1030
1.0
1040
0.0
1040
2441.7907146144689
1040
276.17846708505988
1040
-32.132863405043508
1040
50.0
1040
0.0
1040
0.0
1070
     0
1070
   100
1070
     1
1070
     3
1070
     0
1070
     0
1070
     0
1070
     0
1040
0.0
1040
0.0
1040
0.0
1040
0.5
1040
0.5
1040
0.0
1040
0.0
1070
     0
1002
{
1002
}
1002
}
1001
GENIUS_GENOBJ-N-SDF_13
1002
{
1000
OWNER
1000
GEN
1002
}
1001
GENIUS_GENODEF_13
1002
{
1000
HIER
1070
     0
1002
}
1002
{
1000
MANEDIT
1070
     0
1002
}
1002
{
1000
NOSEL
1070
     0
1002
}
1002
{
1000
BEHIND
1070
     0
1002
}
1002
{
1000
OTHER
1070
     0
1002
}
1002
{
1000
REACTOR
1002
}
1001
GENIUS_GENSCREG_15
1000
PF
1040
1.0
1000
DF
1040
1.0
1000
MIN
1011
9.1784670850598786
1021
0.0
1031
0.0
1021
-1253.028220712278
1031
0.0
1000
MAX
1011
543.17846708505976
1021
0.0
1031
0.0
1021
1188.762493902191
1031
0.0
1000
FLAGS
1070
     4
  0
ENDSEC
  0
EOF
