  0
SECTION
  2
HEADER
  9
$ACADVER
  1
AC1009
  9
$INSBASE
 10
0.0
 20
0.0
 30
0.0
  9
$EXTMIN
 10
66.993064807383647
 20
115.75580062205491
 30
0.0
  9
$EXTMAX
 10
123.9751944087846
 20
194.53420552912169
 30
0.0
  9
$LIMMIN
 10
0.0
 20
0.0
  9
$LIMMAX
 10
210.0
 20
297.0
  9
$ORTHOMODE
 70
     0
  9
$REGENMODE
 70
     1
  9
$FILLMODE
 70
     1
  9
$QTEXTMODE
 70
     0
  9
$MIRRTEXT
 70
     1
  9
$DRAGMODE
 70
     2
  9
$LTSCALE
 40
1.0
  9
$OSMODE
 70
    39
  9
$ATTMODE
 70
     1
  9
$TEXTSIZE
 40
2.5
  9
$TRACEWID
 40
1.0
  9
$TEXTSTYLE
  7
STANDARD
  9
$CLAYER
  8
0
  9
$CELTYPE
  6
BYLAYER
  9
$CECOLOR
 62
   256
  9
$DIMSCALE
 40
1.0
  9
$DIMASZ
 40
6.0
  9
$DIMEXO
 40
1.0
  9
$DIMDLI
 40
3.75
  9
$DIMRND
 40
0.0
  9
$DIMDLE
 40
0.0
  9
$DIMEXE
 40
1.0
  9
$DIMTP
 40
0.0
  9
$DIMTM
 40
0.0
  9
$DIMTXT
 40
3.5
  9
$DIMCEN
 40
2.5
  9
$DIMTSZ
 40
0.0
  9
$DIMTOL
 70
     0
  9
$DIMLIM
 70
     0
  9
$DIMTIH
 70
     1
  9
$DIMTOH
 70
     1
  9
$DIMSE1
 70
     0
  9
$DIMSE2
 70
     0
  9
$DIMTAD
 70
     1
  9
$DIMZIN
 70
     0
  9
$DIMBLK
  1

  9
$DIMASO
 70
     1
  9
$DIMSHO
 70
     1
  9
$DIMPOST
  1

  9
$DIMAPOST
  1

  9
$DIMALT
 70
     0
  9
$DIMALTD
 70
     3
  9
$DIMALTF
 40
0.0393700787401575
  9
$DIMLFAC
 40
1.0
  9
$DIMTOFL
 70
     1
  9
$DIMTVP
 40
0.0
  9
$DIMTIX
 70
     0
  9
$DIMSOXD
 70
     0
  9
$DIMSAH
 70
     0
  9
$DIMBLK1
  1

  9
$DIMBLK2
  1

  9
$DIMSTYLE
  2
ISO-25
  9
$DIMCLRD
 70
     0
  9
$DIMCLRE
 70
     0
  9
$DIMCLRT
 70
     0
  9
$DIMTFAC
 40
1.0
  9
$DIMGAP
 40
1.524
  9
$LUNITS
 70
     2
  9
$LUPREC
 70
     2
  9
$SKETCHINC
 40
1.0
  9
$FILLETRAD
 40
10.0
  9
$AUNITS
 70
     0
  9
$AUPREC
 70
     2
  9
$MENU
  1
.
  9
$ELEVATION
 40
0.0
  9
$PELEVATION
 40
0.0
  9
$THICKNESS
 40
0.0
  9
$LIMCHECK
 70
     0
  9
$BLIPMODE
 70
     0
  9
$CHAMFERA
 40
10.0
  9
$CHAMFERB
 40
10.0
  9
$SKPOLY
 70
     0
  9
$TDCREATE
 40
2457238.5589958448
  9
$TDUPDATE
 40
2457242.6881870721
  9
$TDINDWG
 40
0.0276158218
  9
$TDUSRTIMER
 40
0.0276158218
  9
$USRTIMER
 70
     1
  9
$ANGBASE
 50
0.0
  9
$ANGDIR
 70
     0
  9
$PDMODE
 70
     0
  9
$PDSIZE
 40
-1.0
  9
$PLINEWID
 40
0.0
  9
$COORDS
 70
     2
  9
$SPLFRAME
 70
     0
  9
$SPLINETYPE
 70
     6
  9
$SPLINESEGS
 70
     8
  9
$ATTDIA
 70
     1
  9
$ATTREQ
 70
     1
  9
$HANDLING
 70
     1
  9
$HANDSEED
  5
467
  9
$SURFTAB1
 70
     6
  9
$SURFTAB2
 70
     6
  9
$SURFTYPE
 70
     6
  9
$SURFU
 70
     6
  9
$SURFV
 70
     6
  9
$UCSNAME
  2

  9
$UCSORG
 10
0.0
 20
0.0
 30
0.0
  9
$UCSXDIR
 10
1.0
 20
0.0
 30
0.0
  9
$UCSYDIR
 10
0.0
 20
1.0
 30
0.0
  9
$PUCSNAME
  2

  9
$PUCSORG
 10
0.0
 20
0.0
 30
0.0
  9
$PUCSXDIR
 10
1.0
 20
0.0
 30
0.0
  9
$PUCSYDIR
 10
0.0
 20
1.0
 30
0.0
  9
$USERI1
 70
     0
  9
$USERI2
 70
     0
  9
$USERI3
 70
     0
  9
$USERI4
 70
     0
  9
$USERI5
 70
     0
  9
$USERR1
 40
0.0
  9
$USERR2
 40
0.0
  9
$USERR3
 40
0.0
  9
$USERR4
 40
0.0
  9
$USERR5
 40
0.0
  9
$WORLDVIEW
 70
     1
  9
$SHADEDGE
 70
     3
  9
$SHADEDIF
 70
    70
  9
$TILEMODE
 70
     1
  9
$MAXACTVP
 70
    64
  9
$PLIMCHECK
 70
     0
  9
$PEXTMIN
 10
1.0000000000000000E+020
 20
1.0000000000000000E+020
 30
1.0000000000000000E+020
  9
$PEXTMAX
 10
-1.0000000000000000E+020
 20
-1.0000000000000000E+020
 30
-1.0000000000000000E+020
  9
$PLIMMIN
 10
0.0
 20
0.0
  9
$PLIMMAX
 10
420.0
 20
297.0
  9
$UNITMODE
 70
     0
  9
$VISRETAIN
 70
     1
  9
$PLINEGEN
 70
     0
  9
$PSLTSCALE
 70
     1
  0
ENDSEC
  0
SECTION
  2
TABLES
  0
TABLE
  2
VPORT
 70
     1
  0
VPORT
  2
*ACTIVE
 70
     0
 10
0.0
 20
0.0
 11
1.0
 21
1.0
 12
110.86803515621369
 22
175.96853914403491
 13
0.0
 23
0.0
 14
10.0
 24
10.0
 15
10.0
 25
10.0
 16
0.0
 26
0.0
 36
1.0
 17
0.0
 27
0.0
 37
0.0
 40
119.3955666746388
 41
0.8926673751328375
 42
50.0
 43
0.0
 44
0.0
 50
0.0
 51
0.0
 71
     0
 72
  2000
 73
     1
 74
     3
 75
     0
 76
     0
 77
     0
 78
     0
  0
ENDTAB
  0
TABLE
  2
LTYPE
 70
    17
  0
LTYPE
  2
CONTINUOUS
 70
     0
  3
Solid line
 72
    65
 73
     0
 40
0.0
  0
LTYPE
  2
HIDDEN
 70
     0
  3
Hidden __ __ __ __ __ __ __ __ __ __ __ __ __ __
 72
    65
 73
     2
 40
1.905
 49
1.27
 49
-0.635
  0
LTYPE
  2
PHANTOM
 70
     0
  3
Phantom ______  __  __  ______  __  __  ______
 72
    65
 73
     6
 40
12.699999999999999
 49
6.3499999999999988
 49
-1.27
 49
1.27
 49
-1.27
 49
1.27
 49
-1.27
  0
LTYPE
  2
CENTER
 70
     0
  3
Center ____ _ ____ _ ____ _ ____ _ ____ _ ____
 72
    65
 73
     4
 40
10.16
 49
6.3499999999999988
 49
-1.27
 49
1.27
 49
-1.27
  0
LTYPE
  2
CENTERX2
 70
     0
  3
Center (2x) ________  __  ________  __  _____
 72
    65
 73
     4
 40
20.32
 49
12.699999999999999
 49
-2.54
 49
2.54
 49
-2.54
  0
LTYPE
  2
DOT2
 70
     0
  3
Dot (.5x) ........................................
 72
    65
 73
     2
 40
0.635
 49
0.0
 49
-0.635
  0
LTYPE
  2
PHANTOM2
 70
     0
  3
Phantom (.5x) ___ _ _ ___ _ _ ___ _ _ ___ _ _
 72
    65
 73
     6
 40
31.75
 49
15.875
 49
-3.1749999999999989
 49
3.1749999999999989
 49
-3.1749999999999989
 49
3.1749999999999989
 49
-3.1749999999999989
  0
LTYPE
  2
AM_ISO02W050
 70
     0
  3
__ __ __ __ __ __ __ __ __ __ __ __ __ __ __
 72
    65
 73
     2
 40
7.5
 49
6.0
 49
-1.5
  0
LTYPE
  2
AM_ISO08W050
 70
     0
  3
____ . ____ . ____ . ____ . ____ . ____ . ____
 72
    65
 73
     4
 40
18.0
 49
12.0
 49
-1.5
 49
3.0
 49
-1.5
  0
LTYPE
  2
AM_ISO09W050
 70
     0
  3
_____ . . _____ . . _____ . . ____ .. ____
 72
    65
 73
     6
 40
22.5
 49
12.0
 49
-1.5
 49
3.0
 49
-1.5
 49
3.0
 49
-1.5
  0
LTYPE
  2
AMCONSTR
 70
     0
  3
_______________________
 72
    65
 73
     2
 40
9999.0
 49
9999.0
 49
0.0
  0
LTYPE
  2
AM_ISO08W050X2
 70
     0
  3
__ . __ . __ . __ . __ . __
 72
    65
 73
     4
 40
9.0
 49
6.0
 49
-0.75
 49
1.5
 49
-0.75
  0
LTYPE
  2
AM_ISO02W050X2
 70
     0
  3
 _ _ _ _ _ _ _ _ _ _ _ _
 72
    65
 73
     2
 40
3.75
 49
3.0
 49
-0.75
  0
LTYPE
  2
AMZIGZAG
 70
     0
  3
/\/-/\/-/\/-/\/-/\/-/\/
 72
    65
 73
     2
 40
11.0001
 49
0.0001
 49
-11.0
  0
LTYPE
  2
ACISOWELD
 70
     0
  3
_ _ _ _ _
 72
    65
 73
     2
 40
2.0
 49
2.0
 49
-1.0
  0
LTYPE
  2
ACISOTGL
 70
     0
  3
_ _ _ _ _
 72
    65
 73
     2
 40
3.0
 49
2.0
 49
-1.0
  0
LTYPE
  2
ACISOTGB
 70
     0
  3
__ . . __ . .
 72
    65
 73
     6
 40
9.0
 49
4.0
 49
-1.0
 49
1.0
 49
-1.0
 49
1.0
 49
-1.0
  0
ENDTAB
  0
TABLE
  2
LAYER
 70
     2
  0
LAYER
  2
0
 70
     0
 62
     7
  6
CONTINUOUS
  0
LAYER
  2
AM_CL
 70
     0
 62
     1
  6
AMCONSTR
  0
ENDTAB
  0
TABLE
  2
STYLE
 70
     4
  0
STYLE
  2
STANDARD
 70
     0
 40
0.0
 41
1.0
 50
0.0
 71
     0
 42
2.5
  3
txt
  4
bigfont
  0
STYLE
  2

 70
     1
 40
0.0
 41
1.0
 50
0.0
 71
     0
 42
3.5
  3
genltshp.shx
  4

  0
STYLE
  2
ACISOTS
 70
     0
 40
1.0
 41
1.0
 50
0.0
 71
     0
 42
3.5
  3
isocp.shx
  4
extfont.shx
  0
STYLE
  2
ACISOGDT
 70
     0
 40
0.0
 41
1.0
 50
0.0
 71
     0
 42
3.5
  3
amgdt.shx
  4

  0
ENDTAB
  0
TABLE
  2
VIEW
 70
     0
  0
ENDTAB
  0
TABLE
  2
UCS
 70
     0
  0
ENDTAB
  0
TABLE
  2
APPID
 70
    17
  0
APPID
  2
ACAD
 70
     0
  0
APPID
  2
MCAD_NO_VIS
 70
     0
  0
APPID
  2
ACAD_TEMP_GRAPHIC
 70
     0
  0
APPID
  2
ACATTRIBSERVICES
 70
     0
  0
APPID
  2
DESIGNERASSEMBLIES
 70
     0
  0
APPID
  2
ACAD_DSTYLE_DIMJAG
 70
     0
  0
APPID
  2
ACAD_DSTYLE_DIMBREAK
 70
     0
  0
APPID
  2
ACAD_NAV_VCDISPLAY
 70
     0
  0
APPID
  2
ACAD_PSEXT
 70
     0
  0
APPID
  2
ACAD_EXEMPT_FROM_CAD_STANDARDS
 70
     0
  0
APPID
  2
ACAECLAYERSTANDARD
 70
     0
  0
APPID
  2
ACAD_MLEADERVER
 70
     0
  0
APPID
  2
ACAD_DSTYLE_DIMARC_LENGTH_
 70
     0
  0
APPID
  2
ACAD_DSTYLE_DIM_LINETYPE
 70
     0
  0
APPID
  2
ACAD_DSTYLE_DIM_EXT1_LINETYPE
 70
     0
  0
APPID
  2
ACAD_DSTYLE_DIM_EXT2_LINETYPE
 70
     0
  0
APPID
  2
ACDBDYNAMICBLOCKTRUENAME2
 70
     0
  0
ENDTAB
  0
TABLE
  2
DIMSTYLE
 70
     8
  0
DIMSTYLE
  2
ISO-25
 70
     0
  3

  4

  5

  6

  7

 40
1.0
 41
2.5
 42
0.625
 43
3.75
 44
1.25
 45
0.0
 46
0.0
 47
0.0
 48
0.0
140
2.5
141
2.5
142
0.0
143
0.03937007874016
144
1.0
145
0.0
146
1.0
147
0.625
 71
     0
 72
     0
 73
     0
 74
     0
 75
     0
 76
     0
 77
     1
 78
     8
170
     0
171
     3
172
     1
173
     0
174
     0
175
     0
176
     0
177
     0
178
     0
  0
DIMSTYLE
  2
AM_ISO
 70
     0
  3

  4
"
  5

  6

  7

 40
1.0
 41
3.5
 42
1.0
 43
10.0
 44
1.0
 45
0.0
 46
0.0
 47
0.1
 48
0.1
140
3.5
141
0.0
142
0.0
143
0.0393701
144
1.0
145
0.0
146
0.71
147
1.5
 71
     0
 72
     0
 73
     0
 74
     0
 75
     0
 76
     0
 77
     1
 78
     8
170
     0
171
     2
172
     1
173
     0
174
     0
175
     0
176
   256
177
   256
178
     2
  0
DIMSTYLE
  2
AM_ISO$3
 70
     0
  3

  4
"
  5

  6

  7

 40
1.0
 41
3.5
 42
1.0
 43
10.0
 44
1.0
 45
0.0
 46
0.0
 47
0.1
 48
0.1
140
3.5
141
0.0
142
0.0
143
0.0393701
144
1.0
145
0.0
146
0.71
147
1.5
 71
     0
 72
     0
 73
     0
 74
     1
 75
     0
 76
     0
 77
     1
 78
     8
170
     0
171
     2
172
     0
173
     0
174
     0
175
     0
176
   256
177
   256
178
     2
  0
DIMSTYLE
  2
AM_ISO$4
 70
     0
  3

  4
"
  5

  6

  7

 40
1.0
 41
3.5
 42
1.0
 43
10.0
 44
1.0
 45
0.0
 46
0.0
 47
0.1
 48
0.1
140
3.5
141
0.0
142
0.0
143
0.0393701
144
1.0
145
0.0
146
0.71
147
1.5
 71
     0
 72
     0
 73
     0
 74
     1
 75
     0
 76
     0
 77
     1
 78
     8
170
     0
171
     2
172
     0
173
     0
174
     0
175
     0
176
   256
177
   256
178
     2
  0
DIMSTYLE
  2
AM_ISO$6
 70
     0
  3

  4
"
  5

  6

  7

 40
1.0
 41
3.5
 42
1.0
 43
10.0
 44
1.0
 45
0.0
 46
0.0
 47
0.1
 48
0.1
140
3.5
141
0.0
142
0.0
143
0.0393701
144
1.0
145
0.0
146
0.71
147
1.5
 71
     0
 72
     0
 73
     0
 74
     0
 75
     0
 76
     0
 77
     0
 78
     8
170
     0
171
     2
172
     1
173
     0
174
     0
175
     0
176
   256
177
   256
178
     2
  0
DIMSTYLE
  2
AM_ISO$7
 70
     0
  3

  4
"
  5

  6

  7

 40
1.0
 41
3.5
 42
1.0
 43
10.0
 44
1.0
 45
0.0
 46
0.0
 47
0.1
 48
0.1
140
3.5
141
0.0
142
0.0
143
0.0393701
144
1.0
145
0.0
146
0.71
147
1.5
 71
     0
 72
     0
 73
     0
 74
     0
 75
     0
 76
     0
 77
     1
 78
     8
170
     0
171
     2
172
     1
173
     0
174
     0
175
     0
176
   256
177
   256
178
     2
  0
DIMSTYLE
  2
AM_ISO$SF
 70
     0
  3

  4
"
  5

  6

  7

 40
1.0
 41
3.5
 42
1.0
 43
10.0
 44
1.0
 45
0.0
 46
0.0
 47
0.1
 48
0.1
140
3.5
141
0.0
142
0.0
143
0.0393701
144
1.0
145
0.0
146
0.71
147
1.5
 71
     0
 72
     0
 73
     0
 74
     0
 75
     1
 76
     1
 77
     1
 78
     8
170
     0
171
     2
172
     1
173
     0
174
     0
175
     0
176
   256
177
   256
178
     2
  0
DIMSTYLE
  2
AM_ISO$SH
 70
     0
  3

  4
"
  5

  6
GENAXEH
  7

 40
1.0
 41
3.5
 42
1.0
 43
10.0
 44
1.0
 45
0.0
 46
0.0
 47
0.1
 48
0.1
140
3.5
141
0.0
142
0.0
143
0.0393701
144
2.0
145
0.0
146
0.71
147
1.5
 71
     0
 72
     0
 73
     0
 74
     0
 75
     1
 76
     1
 77
     1
 78
     8
170
     0
171
     2
172
     1
173
     1
174
     0
175
     0
176
   256
177
   256
178
     2
  0
ENDTAB
  0
ENDSEC
  0
SECTION
  2
BLOCKS
  0
BLOCK
  8
0
  2
$MODEL_SPACE
 70
     0
 10
0.0
 20
0.0
 30
0.0
  3
$MODEL_SPACE
  1

  0
ENDBLK
  5
21
  8
0
  0
BLOCK
 67
     1
  8
0
  2
$PAPER_SPACE
 70
     0
 10
0.0
 20
0.0
 30
0.0
  3
$PAPER_SPACE
  1

  0
ENDBLK
  5
1D
 67
     1
  8
0
  0
BLOCK
  8
0
  2
GENAXEH
 70
     0
 10
0.0
 20
0.0
 30
0.0
  3
GENAXEH
  1

  0
LINE
  5
15A
  8
0
 10
-1.0
 20
0.0
 30
0.0
 11
1.0
 21
0.0
 31
0.0
  0
ENDBLK
  5
15C
  8
0
  0
BLOCK
  8
0
  2
*U3
 70
     1
 10
0.0
 20
0.0
 30
0.0
  3
*U3
  1

  0
TEXT
  5
464
  8
0
 62
     2
 10
87.814890325385022
 20
116.92246728872151
 30
0.0
 40
3.5
  1
pm-t65
  0
ENDBLK
  5
466
  8
0
  0
ENDSEC
  0
SECTION
  2
ENTITIES
  0
LINE
  5
44
  8
0
  6
CONTINUOUS
 62
     7
 10
119.85164572632419
 20
141.60310399564329
 30
0.0
 11
122.85164572632419
 21
141.60310399564329
 31
0.0
  0
LINE
  5
45
  8
0
  6
CONTINUOUS
 62
     7
 10
122.85164572632419
 20
141.60310399564329
 30
0.0
 11
122.85164572632419
 21
139.60310399564329
 31
0.0
  0
LINE
  5
46
  8
0
  6
CONTINUOUS
 62
     7
 10
119.85164572632419
 20
139.60310399564329
 30
0.0
 11
119.85164572632419
 21
141.60310399564329
 31
0.0
  0
LINE
  5
47
  8
0
  6
CONTINUOUS
 62
     7
 10
122.85164572632419
 20
139.60310399564329
 30
0.0
 11
122.85164572632419
 21
137.40310399564331
 31
0.0
  0
LINE
  5
48
  8
0
  6
CONTINUOUS
 62
     7
 10
119.85164572632419
 20
139.60310399564329
 30
0.0
 11
119.85164572632419
 21
137.40310399564331
 31
0.0
  0
LINE
  5
49
  8
0
  6
CONTINUOUS
 62
     7
 10
122.85164572632419
 20
135.40310399564331
 30
0.0
 11
119.85164572632419
 21
135.40310399564331
 31
0.0
  0
LINE
  5
4A
  8
0
  6
CONTINUOUS
 62
     7
 10
122.85164572632419
 20
137.40310399564331
 30
0.0
 11
122.85164572632419
 21
135.40310399564331
 31
0.0
  0
LINE
  5
4B
  8
0
  6
CONTINUOUS
 62
     7
 10
119.85164572632419
 20
135.40310399564331
 30
0.0
 11
119.85164572632419
 21
137.40310399564331
 31
0.0
  0
LINE
  5
4C
  8
0
  6
CONTINUOUS
 62
     7
 10
121.7516457263242
 20
135.40310399564331
 30
0.0
 11
121.7516457263242
 21
131.10310399564329
 31
0.0
  0
LINE
  5
4D
  8
0
  6
CONTINUOUS
 62
     7
 10
121.7516457263242
 20
131.10310399564329
 30
0.0
 11
121.2516457263242
 21
131.10310399564329
 31
0.0
  0
LINE
  5
4E
  8
0
  6
CONTINUOUS
 62
     7
 10
121.2516457263242
 20
135.40310399564331
 30
0.0
 11
121.2516457263242
 21
131.10310399564329
 31
0.0
  0
LINE
  5
4F
  8
0
  6
CONTINUOUS
 62
     7
 10
109.9516457263242
 20
139.40310399564331
 30
0.0
 11
109.9516457263242
 21
131.10310399564329
 31
0.0
  0
LINE
  5
50
  8
0
  6
CONTINUOUS
 62
     7
 10
110.4516457263242
 20
138.90310399564319
 30
0.0
 11
109.9516457263242
 21
139.40310399564331
 31
0.0
  0
LINE
  5
51
  8
0
  6
CONTINUOUS
 62
     7
 10
110.4516457263242
 20
138.90310399564319
 30
0.0
 11
110.4516457263242
 21
131.10310399564329
 31
0.0
  0
LINE
  5
52
  8
0
  6
CONTINUOUS
 62
     7
 10
110.4516457263242
 20
131.10310399564329
 30
0.0
 11
109.9516457263242
 21
131.10310399564329
 31
0.0
  0
LINE
  5
53
  8
0
  6
CONTINUOUS
 62
     7
 10
118.6516457263242
 20
137.30310399564331
 30
0.0
 11
118.6516457263242
 21
131.10310399564329
 31
0.0
  0
LINE
  5
54
  8
0
  6
CONTINUOUS
 62
     7
 10
118.6516457263242
 20
137.30310399564331
 30
0.0
 11
113.0516457263242
 21
137.30310399564331
 31
0.0
  0
LINE
  5
55
  8
0
  6
CONTINUOUS
 62
     7
 10
113.0516457263242
 20
137.30310399564331
 30
0.0
 11
113.0516457263242
 21
131.10310399564329
 31
0.0
  0
LINE
  5
56
  8
0
  6
CONTINUOUS
 62
     7
 10
119.85164572632419
 20
138.90310399564319
 30
0.0
 11
110.4516457263242
 21
138.90310399564319
 31
0.0
  0
LINE
  5
57
  8
0
  6
CONTINUOUS
 62
     7
 10
121.2516457263242
 20
131.10310399564329
 30
0.0
 11
118.6516457263242
 21
131.10310399564329
 31
0.0
  0
LINE
  5
58
  8
0
  6
CONTINUOUS
 62
     7
 10
113.0516457263242
 20
131.10310399564329
 30
0.0
 11
110.4516457263242
 21
131.10310399564329
 31
0.0
  0
LINE
  5
59
  8
0
  6
CONTINUOUS
 62
     7
 10
109.9516457263242
 20
139.40310399564331
 30
0.0
 11
119.85164572632419
 21
139.40310399564331
 31
0.0
  0
LINE
  5
5A
  8
0
  6
CONTINUOUS
 62
     7
 10
122.5516457263242
 20
135.40310399564331
 30
0.0
 11
122.5516457263242
 21
131.10310399564329
 31
0.0
  0
LINE
  5
5B
  8
0
  6
CONTINUOUS
 62
     7
 10
122.5516457263242
 20
131.10310399564329
 30
0.0
 11
121.7516457263242
 21
131.10310399564329
 31
0.0
  0
LINE
  5
5C
  8
0
  6
CONTINUOUS
 62
     7
 10
109.1516457263242
 20
131.10310399564329
 30
0.0
 11
109.1516457263242
 21
153.5031039956433
 31
0.0
  0
LINE
  5
5D
  8
0
  6
CONTINUOUS
 62
     7
 10
109.1516457263242
 20
153.5031039956433
 30
0.0
 11
112.85164572632419
 21
153.5031039956433
 31
0.0
  0
LINE
  5
5E
  8
0
  6
CONTINUOUS
 62
     7
 10
112.85164572632419
 20
153.5031039956433
 30
0.0
 11
112.85164572632419
 21
144.10310399564329
 31
0.0
  0
LINE
  5
5F
  8
0
  6
CONTINUOUS
 62
     7
 10
118.85164572632419
 20
144.10310399564329
 30
0.0
 11
112.85164572632419
 21
144.10310399564329
 31
0.0
  0
LINE
  5
60
  8
0
  6
CONTINUOUS
 62
     7
 10
118.85164572632419
 20
144.10310399564329
 30
0.0
 11
118.85164572632419
 21
153.5031039956433
 31
0.0
  0
LINE
  5
61
  8
0
  6
CONTINUOUS
 62
     7
 10
118.85164572632419
 20
153.5031039956433
 30
0.0
 11
122.5516457263242
 21
153.5031039956433
 31
0.0
  0
LINE
  5
62
  8
0
  6
CONTINUOUS
 62
     7
 10
122.5516457263242
 20
153.5031039956433
 30
0.0
 11
122.5516457263242
 21
141.60310399564329
 31
0.0
  0
LINE
  5
63
  8
0
  6
CONTINUOUS
 62
     7
 10
109.9516457263242
 20
131.10310399564329
 30
0.0
 11
109.1516457263242
 21
131.10310399564329
 31
0.0
  0
LINE
  5
69
  8
0
  6
CONTINUOUS
 62
     7
 10
118.85164572632419
 20
145.10310399564329
 30
0.0
 11
112.85164572632419
 21
145.10310399564329
 31
0.0
  0
LINE
  5
6A
  8
0
  6
CONTINUOUS
 62
     7
 10
116.6516457263242
 20
135.70310399564329
 30
0.0
 11
115.0516457263242
 21
135.70310399564329
 31
0.0
  0
LINE
  5
6B
  8
0
  6
CONTINUOUS
 62
     7
 10
116.6516457263242
 20
133.86310399564331
 30
0.0
 11
116.6516457263242
 21
135.70310399564329
 31
0.0
  0
LINE
  5
6C
  8
0
  6
CONTINUOUS
 62
     7
 10
115.0516457263242
 20
135.70310399564329
 30
0.0
 11
115.0516457263242
 21
133.86310399564331
 31
0.0
  0
LINE
  5
6D
  8
0
  6
CONTINUOUS
 62
     7
 10
115.0516457263242
 20
133.86310399564331
 30
0.0
 11
116.6516457263242
 21
133.86310399564331
 31
0.0
  0
LINE
  5
6F
  8
0
  6
CONTINUOUS
 62
     7
 10
118.6516457263242
 20
132.40310399564331
 30
0.0
 11
113.0516457263242
 21
132.40310399564331
 31
0.0
  0
LINE
  5
70
  8
0
  6
CONTINUOUS
 62
     7
 10
113.0516457263242
 20
131.10310399564329
 30
0.0
 11
118.6516457263242
 21
131.10310399564329
 31
0.0
  0
LINE
  5
71
  8
0
  6
CONTINUOUS
 62
     7
 10
109.1516457263242
 20
184.53420552912169
 30
0.0
 11
112.85164572632419
 21
184.53420552912169
 31
0.0
  0
LINE
  5
72
  8
0
  6
CONTINUOUS
 62
     7
 10
112.85164572632419
 20
184.53420552912169
 30
0.0
 11
112.85164572632419
 21
178.53420552912169
 31
0.0
  0
LINE
  5
73
  8
0
  6
CONTINUOUS
 62
     7
 10
109.1516457263242
 20
178.53420552912169
 30
0.0
 11
112.85164572632419
 21
178.53420552912169
 31
0.0
  0
LINE
  5
7B
  8
0
  6
CONTINUOUS
 62
     7
 10
109.1516457263242
 20
184.53420552912169
 30
0.0
 11
109.1516457263242
 21
178.53420552912169
 31
0.0
  0
LINE
  5
7C
  8
0
  6
CONTINUOUS
 62
     7
 10
118.85164572632419
 20
184.53420552912169
 30
0.0
 11
118.85164572632419
 21
178.53420552912169
 31
0.0
  0
LINE
  5
7D
  8
0
  6
CONTINUOUS
 62
     7
 10
118.85164572632419
 20
178.53420552912169
 30
0.0
 11
122.5516457263242
 21
178.53420552912169
 31
0.0
  0
LINE
  5
85
  8
0
  6
CONTINUOUS
 62
     7
 10
118.85164572632419
 20
184.53420552912169
 30
0.0
 11
122.5516457263242
 21
184.53420552912169
 31
0.0
  0
LINE
  5
86
  8
0
  6
CONTINUOUS
 62
     7
 10
122.5516457263242
 20
184.53420552912169
 30
0.0
 11
122.5516457263242
 21
178.53420552912169
 31
0.0
  0
LINE
  5
88
  8
0
  6
CONTINUOUS
 62
     7
 10
118.85164572632419
 20
183.73420552912171
 30
0.0
 11
112.85164572632419
 21
183.73420552912171
 31
0.0
  0
LINE
  5
89
  8
0
  6
CONTINUOUS
 62
     7
 10
118.85164572632419
 20
179.3342055291217
 30
0.0
 11
112.85164572632419
 21
179.3342055291217
 31
0.0
  0
LINE
  5
8B
  8
0
  6
CONTINUOUS
 62
     7
 10
118.85164572632419
 20
184.53420552912169
 30
0.0
 11
112.85164572632419
 21
184.53420552912169
 31
0.0
  0
LINE
  5
8C
  8
0
  6
CONTINUOUS
 62
     7
 10
118.85164572632419
 20
178.53420552912169
 30
0.0
 11
112.85164572632419
 21
178.53420552912169
 31
0.0
  0
LINE
  5
8D
  8
0
  6
CONTINUOUS
 62
     7
 10
119.85164572632419
 20
194.53420552912169
 30
0.0
 11
122.85164572632419
 21
194.53420552912169
 31
0.0
  0
LINE
  5
8E
  8
0
  6
CONTINUOUS
 62
     7
 10
119.85164572632419
 20
192.53420552912169
 30
0.0
 11
119.85164572632419
 21
194.53420552912169
 31
0.0
  0
LINE
  5
8F
  8
0
  6
CONTINUOUS
 62
     7
 10
122.85164572632419
 20
194.53420552912169
 30
0.0
 11
122.85164572632419
 21
192.53420552912169
 31
0.0
  0
LINE
  5
90
  8
0
  6
CONTINUOUS
 62
     7
 10
119.85164572632419
 20
178.53420552912169
 30
0.0
 11
119.85164572632419
 21
170.53420552912169
 31
0.0
  0
LINE
  5
91
  8
0
  6
CONTINUOUS
 62
     7
 10
119.85164572632419
 20
192.53420552912169
 30
0.0
 11
119.85164572632419
 21
184.53420552912169
 31
0.0
  0
LINE
  5
92
  8
0
  6
CONTINUOUS
 62
     7
 10
122.85164572632419
 20
192.53420552912169
 30
0.0
 11
122.85164572632419
 21
170.53420552912169
 31
0.0
  0
LINE
  5
93
  8
0
  6
CONTINUOUS
 62
     7
 10
122.85164572632419
 20
168.53420552912169
 30
0.0
 11
119.85164572632419
 21
168.53420552912169
 31
0.0
  0
LINE
  5
94
  8
0
  6
CONTINUOUS
 62
     7
 10
119.85164572632419
 20
168.53420552912169
 30
0.0
 11
119.85164572632419
 21
170.53420552912169
 31
0.0
  0
LINE
  5
95
  8
0
  6
CONTINUOUS
 62
     7
 10
122.85164572632419
 20
170.53420552912169
 30
0.0
 11
122.85164572632419
 21
168.53420552912169
 31
0.0
  0
LINE
  5
96
  8
0
  6
CONTINUOUS
 62
     7
 10
119.85164572632419
 20
178.03420552912169
 30
0.0
 11
110.4516457263242
 21
178.03420552912169
 31
0.0
  0
LINE
  5
97
  8
0
  6
CONTINUOUS
 62
     7
 10
110.4516457263242
 20
178.03420552912169
 30
0.0
 11
109.9516457263242
 21
178.53420552912169
 31
0.0
  0
LINE
  5
98
  8
0
  6
CONTINUOUS
 62
     7
 10
76.993064807383661
 20
131.10310399564329
 30
0.0
 11
76.993064807383661
 21
153.5031039956433
 31
0.0
  0
LINE
  5
99
  8
0
  6
CONTINUOUS
 62
     7
 10
76.993064807383661
 20
153.5031039956433
 30
0.0
 11
82.993064807383661
 21
153.5031039956433
 31
0.0
  0
LINE
  5
9A
  8
0
  6
CONTINUOUS
 62
     7
 10
82.993064807383661
 20
131.10310399564329
 30
0.0
 11
82.993064807383661
 21
153.5031039956433
 31
0.0
  0
LINE
  5
9B
  8
0
  6
CONTINUOUS
 62
     7
 10
76.993064807383661
 20
131.10310399564329
 30
0.0
 11
82.993064807383661
 21
131.10310399564329
 31
0.0
  0
LINE
  5
9C
  8
0
  6
CONTINUOUS
 62
     7
 10
83.493064807383661
 20
138.90310399564319
 30
0.0
 11
82.993064807383661
 21
139.40310399564331
 31
0.0
  0
LINE
  5
9D
  8
0
  6
CONTINUOUS
 62
     7
 10
83.493064807383661
 20
138.90310399564319
 30
0.0
 11
83.493064807383661
 21
131.10310399564329
 31
0.0
  0
LINE
  5
9E
  8
0
  6
CONTINUOUS
 62
     7
 10
83.493064807383661
 20
131.10310399564329
 30
0.0
 11
82.993064807383661
 21
131.10310399564329
 31
0.0
  0
ARC
  5
9F
  8
0
  6
CONTINUOUS
 62
     7
 10
68.993064807383647
 20
139.60310399564329
 30
0.0
 40
2.0
 50
89.999999999999588
 51
180.0
  0
LINE
  5
A0
  8
0
  6
CONTINUOUS
 62
     7
 10
68.993064807383661
 20
141.60310399564329
 30
0.0
 11
76.993064807383675
 21
141.60310399564329
 31
0.0
  0
LINE
  5
A1
  8
0
  6
CONTINUOUS
 62
     7
 10
76.993064807383675
 20
135.40310399564331
 30
0.0
 11
68.993064807383661
 21
135.40310399564331
 31
0.0
  0
ARC
  5
A2
  8
0
  6
CONTINUOUS
 62
     7
 10
68.993064807383647
 20
137.40310399564331
 30
0.0
 40
2.0
 50
180.0
 51
270.00000000000119
  0
LINE
  5
A3
  8
0
  6
CONTINUOUS
 62
     7
 10
66.993064807383661
 20
137.40310399564331
 30
0.0
 11
66.993064807383661
 21
139.60310399564329
 31
0.0
  0
ARC
  5
A4
  8
0
  6
CONTINUOUS
 62
     7
 10
70.893064807383666
 20
138.5031039956433
 30
0.0
 40
1.6000000000000221
 50
270.0000000000008
 51
90.0
  0
LINE
  5
A5
  8
0
  6
CONTINUOUS
 62
     7
 10
70.893064807383666
 20
140.10310399564329
 30
0.0
 11
69.993064807383661
 21
140.10310399564329
 31
0.0
  0
ARC
  5
A6
  8
0
  6
CONTINUOUS
 62
     7
 10
69.993064807383661
 20
138.5031039956433
 30
0.0
 40
1.6000000000000221
 50
90.0
 51
270.0000000000008
  0
LINE
  5
A7
  8
0
  6
CONTINUOUS
 62
     7
 10
69.993064807383661
 20
136.90310399564319
 30
0.0
 11
70.893064807383666
 21
136.90310399564319
 31
0.0
  0
ARC
  5
A8
  8
0
  6
CONTINUOUS
 62
     7
 10
90.993064807383661
 20
139.60310399564329
 30
0.0
 40
2.0
 50
0.0
 51
90.0
  0
LINE
  5
A9
  8
0
  6
CONTINUOUS
 62
     7
 10
92.993064807383661
 20
139.60310399564329
 30
0.0
 11
92.993064807383661
 21
137.40310399564331
 31
0.0
  0
ARC
  5
AA
  8
0
  6
CONTINUOUS
 62
     7
 10
90.993064807383661
 20
137.40310399564331
 30
0.0
 40
2.0
 50
270.0000000000008
 51
0.0
  0
ARC
  5
AB
  8
0
  6
CONTINUOUS
 62
     7
 10
89.093064807383655
 20
138.5031039956433
 30
0.0
 40
1.6000000000000221
 50
90.0
 51
270.0000000000008
  0
LINE
  5
AC
  8
0
  6
CONTINUOUS
 62
     7
 10
89.093064807383655
 20
136.90310399564319
 30
0.0
 11
89.993064807383675
 21
136.90310399564319
 31
0.0
  0
ARC
  5
AD
  8
0
  6
CONTINUOUS
 62
     7
 10
89.993064807383675
 20
138.5031039956433
 30
0.0
 40
1.6000000000000221
 50
270.0000000000008
 51
90.0
  0
LINE
  5
AE
  8
0
  6
CONTINUOUS
 62
     7
 10
89.993064807383675
 20
140.10310399564329
 30
0.0
 11
89.093064807383655
 21
140.10310399564329
 31
0.0
  0
LINE
  5
AF
  8
0
  6
CONTINUOUS
 62
     7
 10
90.993064807383661
 20
135.40310399564331
 30
0.0
 11
83.493064807383661
 21
135.40310399564331
 31
0.0
  0
LINE
  5
B0
  8
0
  6
CONTINUOUS
 62
     7
 10
82.993064807383661
 20
141.60310399564329
 30
0.0
 11
90.993064807383661
 21
141.60310399564329
 31
0.0
  0
INSERT
  5
1A6
  8
0
  2
*U3
 10
0.0
 20
0.0
 30
0.0
  0
LINE
  5
1B0
  8
0
 62
     2
 10
117.61408832131519
 20
181.53420552912169
 30
0.0
 11
116.52977203354079
 21
181.08624457470461
 31
0.0
  0
LINE
  5
1B1
  8
0
 62
     2
 10
117.61408832131519
 20
181.53420552912169
 30
0.0
 11
116.52977203354079
 21
182.01109717076491
 31
0.0
  0
LINE
  5
1B2
  8
0
 62
     2
 10
113.97482615084979
 20
181.53420552912169
 30
0.0
 11
117.61408832131519
 21
181.53420552912169
 31
0.0
  0
LINE
  5
1C9
  8
0
 62
     2
 10
117.61408832131519
 20
151.5031039956433
 30
0.0
 11
116.52977203354079
 21
151.0551430412261
 31
0.0
  0
LINE
  5
1CA
  8
0
 62
     2
 10
117.61408832131519
 20
151.5031039956433
 30
0.0
 11
116.52977203354079
 21
151.97999563728641
 31
0.0
  0
LINE
  5
1CB
  8
0
 62
     2
 10
113.97482615084979
 20
151.5031039956433
 30
0.0
 11
117.61408832131519
 21
151.5031039956433
 31
0.0
  0
LINE
  5
1EE
  8
0
  6
AM_ISO08W050X2
 62
     4
 10
113.25084801600769
 20
181.53420552912169
 30
0.0
 11
108.2641821066686
 21
181.53420552912169
 31
0.0
  0
LINE
  5
1EF
  8
0
  6
AM_ISO08W050X2
 62
     4
 10
118.26580342731719
 20
181.53420552912169
 30
0.0
 11
123.4262188100758
 21
181.53420552912169
 31
0.0
  0
LINE
  5
1F0
  8
0
  6
AM_ISO08W050X2
 62
     4
 10
113.33342563475409
 20
151.5031039956433
 30
0.0
 11
107.8848297148333
 21
151.5031039956433
 31
0.0
  0
LINE
  5
1F1
  8
0
  6
AM_ISO08W050X2
 62
     4
 10
118.2734726720971
 20
151.5031039956433
 30
0.0
 11
123.9751944087846
 21
151.5031039956433
 31
0.0
  0
LINE
  5
1F2
  8
0
  6
AM_ISO08W050X2
 62
     4
 10
79.993064807383661
 20
155.3447273091773
 30
0.0
 11
79.993064807383661
 21
128.8813566301975
 31
0.0
  0
LINE
  5
1F3
  8
0
  6
AM_ISO08W050X2
 62
     4
 10
89.093064807383655
 20
140.53464032922369
 30
0.0
 11
89.093064807383655
 21
136.4436488861158
 31
0.0
  0
LINE
  5
1F4
  8
0
  6
AM_ISO08W050X2
 62
     4
 10
89.993064807383675
 20
140.56295200932101
 30
0.0
 11
89.993064807383675
 21
136.4153378975254
 31
0.0
  0
LINE
  5
1F5
  8
0
  6
AM_ISO08W050X2
 62
     4
 10
86.946700907491959
 20
138.5031039956433
 30
0.0
 11
92.168975925469326
 21
138.5031039956433
 31
0.0
  0
LINE
  5
1F6
  8
0
  6
AM_ISO08W050X2
 62
     4
 10
69.993064807383661
 20
140.45225418377879
 30
0.0
 11
69.993064807383661
 21
136.5454560060011
 31
0.0
  0
LINE
  5
1F7
  8
0
  6
AM_ISO08W050X2
 62
     4
 10
70.893064807383666
 20
140.43429228913431
 30
0.0
 11
70.893064807383666
 21
136.5454560060011
 31
0.0
  0
LINE
  5
1F8
  8
0
  6
AM_ISO08W050X2
 62
     4
 10
67.955233809836045
 20
138.5031039956433
 30
0.0
 11
72.929673699825798
 21
138.5031039956433
 31
0.0
  0
LINE
  5
20F
  8
0
  6
AM_ISO08W050X2
 62
     4
 10
118.6984379229668
 20
191.53420552912169
 30
0.0
 11
123.9570500931638
 21
191.53420552912169
 31
0.0
  0
LINE
  5
210
  8
0
  6
AM_ISO08W050X2
 62
     4
 10
118.6984379229668
 20
190.63420552912169
 30
0.0
 11
123.9570500931638
 21
190.63420552912169
 31
0.0
  0
LINE
  5
211
  8
0
  6
AM_ISO08W050X2
 62
     4
 10
118.6984379229668
 20
172.4342055291217
 30
0.0
 11
123.9570500931638
 21
172.4342055291217
 31
0.0
  0
LINE
  5
212
  8
0
  6
AM_ISO08W050X2
 62
     4
 10
118.6984379229668
 20
171.53420552912169
 30
0.0
 11
123.9570500931638
 21
171.53420552912169
 31
0.0
  0
LINE
  5
215
  8
0
  6
AM_ISO08W050X2
 62
     4
 10
118.6984379229668
 20
138.5031039956433
 30
0.0
 11
123.9570500931638
 21
138.5031039956433
 31
0.0
  0
LINE
  5
216
  8
0
  6
AM_ISO08W050X2
 62
     4
 10
115.85164572632419
 20
154.3072969802258
 30
0.0
 11
115.85164572632419
 21
129.6642337682789
 31
0.0
  0
LINE
  5
217
  8
0
  6
AM_ISO08W050X2
 62
     4
 10
115.85164572632419
 20
186.62197010440011
 30
0.0
 11
115.85164572632419
 21
176.71521106591939
 31
0.0
  0
LINE
  5
356
  8
0
  6
AM_ISO08W050X2
 62
     4
 10
84.537865397530254
 20
151.5031039956433
 30
0.0
 11
75.544559434180371
 21
151.5031039956433
 31
0.0
  0
ENDSEC
  0
EOF
