  0
SECTION
  2
HEADER
  9
$ACADVER
  1
AC1009
  9
$INSBASE
 10
0.0
 20
0.0
 30
0.0
  9
$EXTMIN
 10
57.856289606039468
 20
129.12657552573509
 30
0.0
  9
$EXTMAX
 10
143.8760971884999
 20
195.4500231516549
 30
0.0
  9
$LIMMIN
 10
0.0
 20
0.0
  9
$LIMMAX
 10
210.0
 20
297.0
  9
$ORTHOMODE
 70
     0
  9
$REGENMODE
 70
     1
  9
$FILLMODE
 70
     1
  9
$QTEXTMODE
 70
     0
  9
$MIRRTEXT
 70
     1
  9
$DRAGMODE
 70
     2
  9
$LTSCALE
 40
1.0
  9
$OSMODE
 70
    39
  9
$ATTMODE
 70
     1
  9
$TEXTSIZE
 40
2.5
  9
$TRACEWID
 40
1.0
  9
$TEXTSTYLE
  7
STANDARD
  9
$CLAYER
  8
0
  9
$CELTYPE
  6
BYLAYER
  9
$CECOLOR
 62
   256
  9
$DIMSCALE
 40
1.0
  9
$DIMASZ
 40
6.0
  9
$DIMEXO
 40
1.0
  9
$DIMDLI
 40
3.75
  9
$DIMRND
 40
0.0
  9
$DIMDLE
 40
0.0
  9
$DIMEXE
 40
1.0
  9
$DIMTP
 40
0.0
  9
$DIMTM
 40
0.0
  9
$DIMTXT
 40
3.5
  9
$DIMCEN
 40
2.5
  9
$DIMTSZ
 40
0.0
  9
$DIMTOL
 70
     0
  9
$DIMLIM
 70
     0
  9
$DIMTIH
 70
     1
  9
$DIMTOH
 70
     1
  9
$DIMSE1
 70
     0
  9
$DIMSE2
 70
     0
  9
$DIMTAD
 70
     1
  9
$DIMZIN
 70
     0
  9
$DIMBLK
  1

  9
$DIMASO
 70
     1
  9
$DIMSHO
 70
     1
  9
$DIMPOST
  1

  9
$DIMAPOST
  1

  9
$DIMALT
 70
     0
  9
$DIMALTD
 70
     3
  9
$DIMALTF
 40
0.0393700787401575
  9
$DIMLFAC
 40
1.0
  9
$DIMTOFL
 70
     1
  9
$DIMTVP
 40
0.0
  9
$DIMTIX
 70
     0
  9
$DIMSOXD
 70
     0
  9
$DIMSAH
 70
     0
  9
$DIMBLK1
  1

  9
$DIMBLK2
  1

  9
$DIMSTYLE
  2
ISO-25
  9
$DIMCLRD
 70
     0
  9
$DIMCLRE
 70
     0
  9
$DIMCLRT
 70
     0
  9
$DIMTFAC
 40
1.0
  9
$DIMGAP
 40
1.524
  9
$LUNITS
 70
     2
  9
$LUPREC
 70
     2
  9
$SKETCHINC
 40
1.0
  9
$FILLETRAD
 40
10.0
  9
$AUNITS
 70
     0
  9
$AUPREC
 70
     2
  9
$MENU
  1
.
  9
$ELEVATION
 40
0.0
  9
$PELEVATION
 40
0.0
  9
$THICKNESS
 40
0.0
  9
$LIMCHECK
 70
     0
  9
$BLIPMODE
 70
     0
  9
$CHAMFERA
 40
10.0
  9
$CHAMFERB
 40
10.0
  9
$SKPOLY
 70
     0
  9
$TDCREATE
 40
2457238.3841909608
  9
$TDUPDATE
 40
2457242.6848225808
  9
$TDINDWG
 40
0.062743669
  9
$TDUSRTIMER
 40
0.062743669
  9
$USRTIMER
 70
     1
  9
$ANGBASE
 50
0.0
  9
$ANGDIR
 70
     0
  9
$PDMODE
 70
     0
  9
$PDSIZE
 40
-1.0
  9
$PLINEWID
 40
0.0
  9
$COORDS
 70
     2
  9
$SPLFRAME
 70
     0
  9
$SPLINETYPE
 70
     6
  9
$SPLINESEGS
 70
     8
  9
$ATTDIA
 70
     1
  9
$ATTREQ
 70
     1
  9
$HANDLING
 70
     1
  9
$HANDSEED
  5
507
  9
$SURFTAB1
 70
     6
  9
$SURFTAB2
 70
     6
  9
$SURFTYPE
 70
     6
  9
$SURFU
 70
     6
  9
$SURFV
 70
     6
  9
$UCSNAME
  2

  9
$UCSORG
 10
0.0
 20
0.0
 30
0.0
  9
$UCSXDIR
 10
1.0
 20
0.0
 30
0.0
  9
$UCSYDIR
 10
0.0
 20
1.0
 30
0.0
  9
$PUCSNAME
  2

  9
$PUCSORG
 10
0.0
 20
0.0
 30
0.0
  9
$PUCSXDIR
 10
1.0
 20
0.0
 30
0.0
  9
$PUCSYDIR
 10
0.0
 20
1.0
 30
0.0
  9
$USERI1
 70
     0
  9
$USERI2
 70
     0
  9
$USERI3
 70
     0
  9
$USERI4
 70
     0
  9
$USERI5
 70
     0
  9
$USERR1
 40
0.0
  9
$USERR2
 40
0.0
  9
$USERR3
 40
0.0
  9
$USERR4
 40
0.0
  9
$USERR5
 40
0.0
  9
$WORLDVIEW
 70
     1
  9
$SHADEDGE
 70
     3
  9
$SHADEDIF
 70
    70
  9
$TILEMODE
 70
     1
  9
$MAXACTVP
 70
    64
  9
$PLIMCHECK
 70
     0
  9
$PEXTMIN
 10
1.0000000000000000E+020
 20
1.0000000000000000E+020
 30
1.0000000000000000E+020
  9
$PEXTMAX
 10
-1.0000000000000000E+020
 20
-1.0000000000000000E+020
 30
-1.0000000000000000E+020
  9
$PLIMMIN
 10
-20.0
 20
-7.5
  9
$PLIMMAX
 10
277.0
 20
202.5
  9
$UNITMODE
 70
     0
  9
$VISRETAIN
 70
     1
  9
$PLINEGEN
 70
     0
  9
$PSLTSCALE
 70
     1
  0
ENDSEC
  0
SECTION
  2
TABLES
  0
TABLE
  2
VPORT
 70
     1
  0
VPORT
  2
*ACTIVE
 70
     0
 10
0.0
 20
0.0
 11
1.0
 21
1.0
 12
117.2086207508405
 22
163.71420322684961
 13
0.0
 23
0.0
 14
10.0
 24
10.0
 15
10.0
 25
10.0
 16
0.0
 26
0.0
 36
1.0
 17
0.0
 27
0.0
 37
0.0
 40
113.2946296158735
 41
1.643298969072164
 42
50.0
 43
0.0
 44
0.0
 50
0.0
 51
0.0
 71
     0
 72
  2000
 73
     1
 74
     3
 75
     0
 76
     0
 77
     0
 78
     0
  0
ENDTAB
  0
TABLE
  2
LTYPE
 70
    17
  0
LTYPE
  2
CONTINUOUS
 70
     0
  3
Solid line
 72
    65
 73
     0
 40
0.0
  0
LTYPE
  2
HIDDEN
 70
     0
  3
Hidden __ __ __ __ __ __ __ __ __ __ __ __ __ __
 72
    65
 73
     2
 40
1.905
 49
1.27
 49
-0.635
  0
LTYPE
  2
PHANTOM
 70
     0
  3
Phantom ______  __  __  ______  __  __  ______
 72
    65
 73
     6
 40
12.699999999999999
 49
6.3499999999999988
 49
-1.27
 49
1.27
 49
-1.27
 49
1.27
 49
-1.27
  0
LTYPE
  2
CENTER
 70
     0
  3
Center ____ _ ____ _ ____ _ ____ _ ____ _ ____
 72
    65
 73
     4
 40
10.16
 49
6.3499999999999988
 49
-1.27
 49
1.27
 49
-1.27
  0
LTYPE
  2
CENTERX2
 70
     0
  3
Center (2x) ________  __  ________  __  _____
 72
    65
 73
     4
 40
20.32
 49
12.699999999999999
 49
-2.54
 49
2.54
 49
-2.54
  0
LTYPE
  2
DOT2
 70
     0
  3
Dot (.5x) ........................................
 72
    65
 73
     2
 40
0.635
 49
0.0
 49
-0.635
  0
LTYPE
  2
PHANTOM2
 70
     0
  3
Phantom (.5x) ___ _ _ ___ _ _ ___ _ _ ___ _ _
 72
    65
 73
     6
 40
31.75
 49
15.875
 49
-3.1749999999999989
 49
3.1749999999999989
 49
-3.1749999999999989
 49
3.1749999999999989
 49
-3.1749999999999989
  0
LTYPE
  2
AM_ISO02W050
 70
     0
  3
__ __ __ __ __ __ __ __ __ __ __ __ __ __ __
 72
    65
 73
     2
 40
7.5
 49
6.0
 49
-1.5
  0
LTYPE
  2
AM_ISO08W050
 70
     0
  3
____ . ____ . ____ . ____ . ____ . ____ . ____
 72
    65
 73
     4
 40
18.0
 49
12.0
 49
-1.5
 49
3.0
 49
-1.5
  0
LTYPE
  2
AM_ISO09W050
 70
     0
  3
_____ . . _____ . . _____ . . ____ .. ____
 72
    65
 73
     6
 40
22.5
 49
12.0
 49
-1.5
 49
3.0
 49
-1.5
 49
3.0
 49
-1.5
  0
LTYPE
  2
AMCONSTR
 70
     0
  3
_______________________
 72
    65
 73
     2
 40
9999.0
 49
9999.0
 49
0.0
  0
LTYPE
  2
AM_ISO08W050X2
 70
     0
  3
__ . __ . __ . __ . __ . __
 72
    65
 73
     4
 40
9.0
 49
6.0
 49
-0.75
 49
1.5
 49
-0.75
  0
LTYPE
  2
AM_ISO02W050X2
 70
     0
  3
 _ _ _ _ _ _ _ _ _ _ _ _
 72
    65
 73
     2
 40
3.75
 49
3.0
 49
-0.75
  0
LTYPE
  2
AMZIGZAG
 70
     0
  3
/\/-/\/-/\/-/\/-/\/-/\/
 72
    65
 73
     2
 40
11.0001
 49
0.0001
 49
-11.0
  0
LTYPE
  2
ACISOWELD
 70
     0
  3
_ _ _ _ _
 72
    65
 73
     2
 40
2.0
 49
2.0
 49
-1.0
  0
LTYPE
  2
ACISOTGL
 70
     0
  3
_ _ _ _ _
 72
    65
 73
     2
 40
3.0
 49
2.0
 49
-1.0
  0
LTYPE
  2
ACISOTGB
 70
     0
  3
__ . . __ . .
 72
    65
 73
     6
 40
9.0
 49
4.0
 49
-1.0
 49
1.0
 49
-1.0
 49
1.0
 49
-1.0
  0
ENDTAB
  0
TABLE
  2
LAYER
 70
     2
  0
LAYER
  2
0
 70
     0
 62
     7
  6
CONTINUOUS
  0
LAYER
  2
AM_CL
 70
     0
 62
     1
  6
AMCONSTR
  0
ENDTAB
  0
TABLE
  2
STYLE
 70
     4
  0
STYLE
  2
STANDARD
 70
     0
 40
0.0
 41
1.0
 50
0.0
 71
     0
 42
2.5
  3
txt
  4
bigfont
  0
STYLE
  2

 70
     1
 40
0.0
 41
1.0
 50
0.0
 71
     0
 42
3.5
  3
genltshp.shx
  4

  0
STYLE
  2
ACISOTS
 70
     0
 40
1.0
 41
1.0
 50
0.0
 71
     0
 42
3.5
  3
isocp.shx
  4
extfont.shx
  0
STYLE
  2
ACISOGDT
 70
     0
 40
0.0
 41
1.0
 50
0.0
 71
     0
 42
3.5
  3
amgdt.shx
  4

  0
ENDTAB
  0
TABLE
  2
VIEW
 70
     0
  0
ENDTAB
  0
TABLE
  2
UCS
 70
     0
  0
ENDTAB
  0
TABLE
  2
APPID
 70
    20
  0
APPID
  2
ACAD
 70
     0
  0
APPID
  2
MCAD_NO_VIS
 70
     0
  0
APPID
  2
ACAD_TEMP_GRAPHIC
 70
     0
  0
APPID
  2
ACATTRIBSERVICES
 70
     0
  0
APPID
  2
DESIGNERASSEMBLIES
 70
     0
  0
APPID
  2
ACAD_DSTYLE_DIMJAG
 70
     0
  0
APPID
  2
ACAD_DSTYLE_DIMBREAK
 70
     0
  0
APPID
  2
ACAD_NAV_VCDISPLAY
 70
     0
  0
APPID
  2
ACAD_EXEMPT_FROM_CAD_STANDARDS
 70
     0
  0
APPID
  2
ACAD_PSEXT
 70
     0
  0
APPID
  2
ACAD_MLEADERVER
 70
     0
  0
APPID
  2
ACAD_DSTYLE_DIMARC_LENGTH_
 70
     0
  0
APPID
  2
ACAD_DSTYLE_DIM_LINETYPE
 70
     0
  0
APPID
  2
ACAD_DSTYLE_DIM_EXT1_LINETYPE
 70
     0
  0
APPID
  2
ACAD_DSTYLE_DIM_EXT2_LINETYPE
 70
     0
  0
APPID
  2
ACAECLAYERSTANDARD
 70
     0
  0
APPID
  2
GENIUS_GENSCREG_15
 70
     0
  0
APPID
  2
GENIUS_GENOBJ-N-SDF_13
 70
     0
  0
APPID
  2
GENIUS_GENODEF_13
 70
     0
  0
APPID
  2
ACDBDYNAMICBLOCKTRUENAME2
 70
     0
  0
ENDTAB
  0
TABLE
  2
DIMSTYLE
 70
     8
  0
DIMSTYLE
  2
ISO-25
 70
     0
  3

  4

  5

  6

  7

 40
1.0
 41
2.5
 42
0.625
 43
3.75
 44
1.25
 45
0.0
 46
0.0
 47
0.0
 48
0.0
140
2.5
141
2.5
142
0.0
143
0.03937007874016
144
1.0
145
0.0
146
1.0
147
0.625
 71
     0
 72
     0
 73
     0
 74
     0
 75
     0
 76
     0
 77
     1
 78
     8
170
     0
171
     3
172
     1
173
     0
174
     0
175
     0
176
     0
177
     0
178
     0
  0
DIMSTYLE
  2
AM_ISO
 70
     0
  3

  4
"
  5

  6

  7

 40
1.0
 41
3.5
 42
1.0
 43
10.0
 44
1.0
 45
0.0
 46
0.0
 47
0.1
 48
0.1
140
3.5
141
0.0
142
0.0
143
0.0393701
144
1.0
145
0.0
146
0.71
147
1.5
 71
     0
 72
     0
 73
     0
 74
     0
 75
     0
 76
     0
 77
     1
 78
     8
170
     0
171
     2
172
     1
173
     0
174
     0
175
     0
176
   256
177
   256
178
     2
  0
DIMSTYLE
  2
AM_ISO$3
 70
     0
  3

  4
"
  5

  6

  7

 40
1.0
 41
3.5
 42
1.0
 43
10.0
 44
1.0
 45
0.0
 46
0.0
 47
0.1
 48
0.1
140
3.5
141
0.0
142
0.0
143
0.0393701
144
1.0
145
0.0
146
0.71
147
1.5
 71
     0
 72
     0
 73
     0
 74
     1
 75
     0
 76
     0
 77
     1
 78
     8
170
     0
171
     2
172
     0
173
     0
174
     0
175
     0
176
   256
177
   256
178
     2
  0
DIMSTYLE
  2
AM_ISO$4
 70
     0
  3

  4
"
  5

  6

  7

 40
1.0
 41
3.5
 42
1.0
 43
10.0
 44
1.0
 45
0.0
 46
0.0
 47
0.1
 48
0.1
140
3.5
141
0.0
142
0.0
143
0.0393701
144
1.0
145
0.0
146
0.71
147
1.5
 71
     0
 72
     0
 73
     0
 74
     1
 75
     0
 76
     0
 77
     1
 78
     8
170
     0
171
     2
172
     0
173
     0
174
     0
175
     0
176
   256
177
   256
178
     2
  0
DIMSTYLE
  2
AM_ISO$6
 70
     0
  3

  4
"
  5

  6

  7

 40
1.0
 41
3.5
 42
1.0
 43
10.0
 44
1.0
 45
0.0
 46
0.0
 47
0.1
 48
0.1
140
3.5
141
0.0
142
0.0
143
0.0393701
144
1.0
145
0.0
146
0.71
147
1.5
 71
     0
 72
     0
 73
     0
 74
     0
 75
     0
 76
     0
 77
     0
 78
     8
170
     0
171
     2
172
     1
173
     0
174
     0
175
     0
176
   256
177
   256
178
     2
  0
DIMSTYLE
  2
AM_ISO$7
 70
     0
  3

  4
"
  5

  6

  7

 40
1.0
 41
3.5
 42
1.0
 43
10.0
 44
1.0
 45
0.0
 46
0.0
 47
0.1
 48
0.1
140
3.5
141
0.0
142
0.0
143
0.0393701
144
1.0
145
0.0
146
0.71
147
1.5
 71
     0
 72
     0
 73
     0
 74
     0
 75
     0
 76
     0
 77
     1
 78
     8
170
     0
171
     2
172
     1
173
     0
174
     0
175
     0
176
   256
177
   256
178
     2
  0
DIMSTYLE
  2
AM_ISO$SF
 70
     0
  3

  4
"
  5

  6

  7

 40
1.0
 41
3.5
 42
1.0
 43
10.0
 44
1.0
 45
0.0
 46
0.0
 47
0.1
 48
0.1
140
3.5
141
0.0
142
0.0
143
0.0393701
144
1.0
145
0.0
146
0.71
147
1.5
 71
     0
 72
     0
 73
     0
 74
     0
 75
     1
 76
     1
 77
     1
 78
     8
170
     0
171
     2
172
     1
173
     0
174
     0
175
     0
176
   256
177
   256
178
     2
  0
DIMSTYLE
  2
AM_ISO$SH
 70
     0
  3

  4
"
  5

  6
GENAXEH
  7

 40
1.0
 41
3.5
 42
1.0
 43
10.0
 44
1.0
 45
0.0
 46
0.0
 47
0.1
 48
0.1
140
3.5
141
0.0
142
0.0
143
0.0393701
144
2.0
145
0.0
146
0.71
147
1.5
 71
     0
 72
     0
 73
     0
 74
     0
 75
     1
 76
     1
 77
     1
 78
     8
170
     0
171
     2
172
     1
173
     1
174
     0
175
     0
176
   256
177
   256
178
     2
  0
ENDTAB
  0
ENDSEC
  0
SECTION
  2
BLOCKS
  0
BLOCK
  8
0
  2
$MODEL_SPACE
 70
     0
 10
0.0
 20
0.0
 30
0.0
  3
$MODEL_SPACE
  1

  0
ENDBLK
  5
21
  8
0
  0
BLOCK
 67
     1
  8
0
  2
$PAPER_SPACE
 70
     0
 10
0.0
 20
0.0
 30
0.0
  3
$PAPER_SPACE
  1

  0
ENDBLK
  5
25
 67
     1
  8
0
  0
BLOCK
  8
0
  2
GENAXEH
 70
     0
 10
0.0
 20
0.0
 30
0.0
  3
GENAXEH
  1

  0
LINE
  5
16A
  8
0
 10
-1.0
 20
0.0
 30
0.0
 11
1.0
 21
0.0
 31
0.0
  0
ENDBLK
  5
16C
  8
0
  0
BLOCK
  8
0
  2
*U3
 70
     1
 10
0.0
 20
0.0
 30
0.0
  3
*U3
  1

  0
TEXT
  5
504
  8
0
 62
     2
 10
90.793625117771185
 20
130.29324219240169
 30
0.0
 40
3.5
  1
pm-f65
  0
ENDBLK
  5
506
  8
0
  0
ENDSEC
  0
SECTION
  2
ENTITIES
  0
LINE
  5
44
  8
0
  6
CONTINUOUS
 62
     7
 10
92.301214206175899
 20
165.3349520166781
 30
0.0
 11
91.801214206175885
 21
164.8349520166781
 31
0.0
  0
LINE
  5
45
  8
0
  6
CONTINUOUS
 62
     7
 10
91.801214206175885
 20
163.4349520166781
 30
0.0
 11
92.301214206175899
 21
162.9349520166781
 31
0.0
  0
LINE
  5
46
  8
0
  6
CONTINUOUS
 62
     7
 10
94.301214206175885
 20
165.3349520166781
 30
0.0
 11
92.301214206175899
 21
165.3349520166781
 31
0.0
  0
LINE
  5
47
  8
0
  6
CONTINUOUS
 62
     7
 10
92.301214206175899
 20
162.9349520166781
 30
0.0
 11
94.301214206175885
 21
162.9349520166781
 31
0.0
  0
LINE
  5
48
  8
0
  6
CONTINUOUS
 62
     7
 10
97.301214206175899
 20
145.73495201667811
 30
0.0
 11
97.301214206175899
 21
149.4349520166781
 31
0.0
  0
LINE
  5
49
  8
0
  6
CONTINUOUS
 62
     7
 10
94.301214206175885
 20
145.73495201667811
 30
0.0
 11
94.301214206175885
 21
149.4349520166781
 31
0.0
  0
LINE
  5
4A
  8
0
  6
CONTINUOUS
 62
     7
 10
97.301214206175899
 20
143.73495201667811
 30
0.0
 11
94.301214206175885
 21
143.73495201667811
 31
0.0
  0
LINE
  5
4B
  8
0
  6
CONTINUOUS
 62
     7
 10
97.301214206175899
 20
145.73495201667811
 30
0.0
 11
97.301214206175899
 21
143.73495201667811
 31
0.0
  0
LINE
  5
4C
  8
0
  6
CONTINUOUS
 62
     7
 10
94.301214206175885
 20
143.73495201667811
 30
0.0
 11
94.301214206175885
 21
145.73495201667811
 31
0.0
  0
LINE
  5
4D
  8
0
  6
CONTINUOUS
 62
     7
 10
94.301214206175885
 20
151.4349520166781
 30
0.0
 11
97.301214206175899
 21
151.4349520166781
 31
0.0
  0
LINE
  5
4E
  8
0
  6
CONTINUOUS
 62
     7
 10
97.301214206175899
 20
151.4349520166781
 30
0.0
 11
97.301214206175899
 21
149.4349520166781
 31
0.0
  0
LINE
  5
4F
  8
0
  6
CONTINUOUS
 62
     7
 10
94.301214206175885
 20
149.4349520166781
 30
0.0
 11
94.301214206175885
 21
151.4349520166781
 31
0.0
  0
LINE
  5
50
  8
0
  6
CONTINUOUS
 62
     7
 10
106.40121420617589
 20
151.53495201667809
 30
0.0
 11
106.40121420617589
 21
143.73495201667811
 31
0.0
  0
LINE
  5
51
  8
0
  6
CONTINUOUS
 62
     7
 10
106.90121420617589
 20
152.03495201667809
 30
0.0
 11
106.40121420617589
 21
151.53495201667809
 31
0.0
  0
LINE
  5
52
  8
0
  6
CONTINUOUS
 62
     7
 10
106.90121420617589
 20
152.03495201667809
 30
0.0
 11
106.90121420617589
 21
143.73495201667811
 31
0.0
  0
LINE
  5
53
  8
0
  6
CONTINUOUS
 62
     7
 10
106.90121420617589
 20
143.73495201667811
 30
0.0
 11
106.40121420617589
 21
143.73495201667811
 31
0.0
  0
LINE
  5
54
  8
0
  6
CONTINUOUS
 62
     7
 10
95.601214206175896
 20
151.53495201667809
 30
0.0
 11
95.601214206175896
 21
151.4349520166781
 31
0.0
  0
LINE
  5
55
  8
0
  6
CONTINUOUS
 62
     7
 10
106.40121420617589
 20
151.53495201667809
 30
0.0
 11
95.601214206175896
 21
151.53495201667809
 31
0.0
  0
LINE
  5
56
  8
0
  6
CONTINUOUS
 62
     7
 10
103.8012142061759
 20
149.9349520166781
 30
0.0
 11
103.8012142061759
 21
143.73495201667811
 31
0.0
  0
LINE
  5
57
  8
0
  6
CONTINUOUS
 62
     7
 10
103.8012142061759
 20
149.9349520166781
 30
0.0
 11
98.201214206175891
 21
149.9349520166781
 31
0.0
  0
LINE
  5
58
  8
0
  6
CONTINUOUS
 62
     7
 10
98.201214206175891
 20
149.9349520166781
 30
0.0
 11
98.201214206175891
 21
143.73495201667811
 31
0.0
  0
LINE
  5
59
  8
0
  6
CONTINUOUS
 62
     7
 10
98.201214206175891
 20
143.73495201667811
 30
0.0
 11
97.301214206175899
 21
143.73495201667811
 31
0.0
  0
LINE
  5
5A
  8
0
  6
CONTINUOUS
 62
     7
 10
106.40121420617589
 20
143.73495201667811
 30
0.0
 11
103.8012142061759
 21
143.73495201667811
 31
0.0
  0
LINE
  5
5B
  8
0
  6
CONTINUOUS
 62
     7
 10
95.101214206175896
 20
152.03495201667809
 30
0.0
 11
95.101214206175896
 21
151.4349520166781
 31
0.0
  0
LINE
  5
5C
  8
0
  6
CONTINUOUS
 62
     7
 10
95.601214206175896
 20
151.53495201667809
 30
0.0
 11
95.101214206175896
 21
152.03495201667809
 31
0.0
  0
LINE
  5
5D
  8
0
  6
CONTINUOUS
 62
     7
 10
95.101214206175896
 20
152.03495201667809
 30
0.0
 11
106.90121420617589
 21
152.03495201667809
 31
0.0
  0
LINE
  5
5E
  8
0
  6
CONTINUOUS
 62
     7
 10
94.301214206175885
 20
166.13495201667811
 30
0.0
 11
98.001214206175916
 21
166.13495201667811
 31
0.0
  0
LINE
  5
5F
  8
0
  6
CONTINUOUS
 62
     7
 10
98.001214206175916
 20
166.13495201667811
 30
0.0
 11
98.001214206175916
 21
156.73495201667811
 31
0.0
  0
LINE
  5
60
  8
0
  6
CONTINUOUS
 62
     7
 10
104.0012142061759
 20
156.73495201667811
 30
0.0
 11
98.001214206175916
 21
156.73495201667811
 31
0.0
  0
LINE
  5
61
  8
0
  6
CONTINUOUS
 62
     7
 10
104.0012142061759
 20
156.73495201667811
 30
0.0
 11
104.0012142061759
 21
166.13495201667811
 31
0.0
  0
LINE
  5
62
  8
0
  6
CONTINUOUS
 62
     7
 10
104.0012142061759
 20
166.13495201667811
 30
0.0
 11
107.70121420617591
 21
166.13495201667811
 31
0.0
  0
LINE
  5
63
  8
0
  6
CONTINUOUS
 62
     7
 10
107.70121420617591
 20
166.13495201667811
 30
0.0
 11
107.70121420617591
 21
143.73495201667811
 31
0.0
  0
LINE
  5
64
  8
0
  6
CONTINUOUS
 62
     7
 10
107.70121420617591
 20
143.73495201667811
 30
0.0
 11
106.90121420617589
 21
143.73495201667811
 31
0.0
  0
LINE
  5
65
  8
0
  6
CONTINUOUS
 62
     7
 10
94.301214206175885
 20
151.4349520166781
 30
0.0
 11
94.301214206175885
 21
166.13495201667811
 31
0.0
  0
LINE
  5
6A
  8
0
  6
CONTINUOUS
 62
     7
 10
104.0012142061759
 20
157.73495201667811
 30
0.0
 11
98.001214206175916
 21
157.73495201667811
 31
0.0
  0
LINE
  5
6C
  8
0
  6
CONTINUOUS
 62
     7
 10
101.8012142061759
 20
148.3349520166781
 30
0.0
 11
100.20121420617591
 21
148.3349520166781
 31
0.0
  0
LINE
  5
6D
  8
0
  6
CONTINUOUS
 62
     7
 10
101.8012142061759
 20
146.4949520166781
 30
0.0
 11
101.8012142061759
 21
148.3349520166781
 31
0.0
  0
LINE
  5
6E
  8
0
  6
CONTINUOUS
 62
     7
 10
100.20121420617591
 20
146.4949520166781
 30
0.0
 11
101.8012142061759
 21
146.4949520166781
 31
0.0
  0
LINE
  5
6F
  8
0
  6
CONTINUOUS
 62
     7
 10
100.20121420617591
 20
148.3349520166781
 30
0.0
 11
100.20121420617591
 21
146.4949520166781
 31
0.0
  0
LINE
  5
71
  8
0
  6
CONTINUOUS
 62
     7
 10
91.801214206175885
 20
163.4349520166781
 30
0.0
 11
91.801214206175885
 21
164.8349520166781
 31
0.0
  0
LINE
  5
72
  8
0
  6
CONTINUOUS
 62
     7
 10
92.301214206175899
 20
165.3349520166781
 30
0.0
 11
92.301214206175899
 21
162.9349520166781
 31
0.0
  0
LINE
  5
73
  8
0
  6
CONTINUOUS
 62
     7
 10
103.8012142061759
 20
145.03495201667809
 30
0.0
 11
98.201214206175891
 21
145.03495201667809
 31
0.0
  0
LINE
  5
74
  8
0
  6
CONTINUOUS
 62
     7
 10
98.201214206175891
 20
143.73495201667811
 30
0.0
 11
103.8012142061759
 21
143.73495201667811
 31
0.0
  0
CIRCLE
  5
75
  8
0
  6
CONTINUOUS
 62
     7
 10
62.273986202435118
 20
164.13495201667811
 30
0.0
 40
0.6999999999999887
  0
CIRCLE
  5
76
  8
0
  6
CONTINUOUS
 62
     7
 10
62.273986202435118
 20
164.13495201667811
 30
0.0
 40
1.199999999999988
  0
ARC
  5
77
  8
0
  6
CONTINUOUS
 62
     7
 10
69.273986202435125
 20
148.3349520166781
 30
0.0
 40
1.6000000000000081
 50
0.0
 51
180.0
  0
LINE
  5
78
  8
0
  6
CONTINUOUS
 62
     7
 10
67.673986202435117
 20
147.8349520166781
 30
0.0
 11
67.673986202435117
 21
148.3349520166781
 31
0.0
  0
ARC
  5
79
  8
0
  6
CONTINUOUS
 62
     7
 10
69.273986202435125
 20
147.8349520166781
 30
0.0
 40
1.6000000000000081
 50
180.0
 51
0.0
  0
LINE
  5
7A
  8
0
  6
CONTINUOUS
 62
     7
 10
70.873986202435105
 20
148.3349520166781
 30
0.0
 11
70.873986202435105
 21
147.8349520166781
 31
0.0
  0
LINE
  5
7B
  8
0
  6
CONTINUOUS
 62
     7
 10
59.273986202435118
 20
166.13495201667811
 30
0.0
 11
65.273986202435111
 21
166.13495201667811
 31
0.0
  0
LINE
  5
7C
  8
0
  6
CONTINUOUS
 62
     7
 10
65.273986202435111
 20
151.4349520166781
 30
0.0
 11
65.273986202435111
 21
166.13495201667811
 31
0.0
  0
LINE
  5
7D
  8
0
  6
CONTINUOUS
 62
     7
 10
70.773986202435125
 20
151.4349520166781
 30
0.0
 11
65.273986202435111
 21
151.4349520166781
 31
0.0
  0
ARC
  5
7E
  8
0
  6
CONTINUOUS
 62
     7
 10
70.773986202435125
 20
149.4349520166781
 30
0.0
 40
2.0
 50
0.0
 51
90.0
  0
LINE
  5
7F
  8
0
  6
CONTINUOUS
 62
     7
 10
72.773986202435125
 20
145.73495201667811
 30
0.0
 11
72.773986202435125
 21
149.4349520166781
 31
0.0
  0
ARC
  5
80
  8
0
  6
CONTINUOUS
 62
     7
 10
70.773986202435125
 20
145.73495201667811
 30
0.0
 40
2.0
 50
270.0000000000008
 51
0.0
  0
LINE
  5
81
  8
0
  6
CONTINUOUS
 62
     7
 10
59.273986202435118
 20
143.73495201667811
 30
0.0
 11
70.773986202435125
 21
143.73495201667811
 31
0.0
  0
LINE
  5
82
  8
0
  6
CONTINUOUS
 62
     7
 10
59.273986202435118
 20
143.73495201667811
 30
0.0
 11
59.273986202435118
 21
166.13495201667811
 31
0.0
  0
LINE
  5
83
  8
0
  6
CONTINUOUS
 62
     7
 10
65.773986202435111
 20
151.53495201667809
 30
0.0
 11
65.773986202435111
 21
151.4349520166781
 31
0.0
  0
LINE
  5
84
  8
0
  6
CONTINUOUS
 62
     7
 10
65.773986202435111
 20
151.53495201667809
 30
0.0
 11
65.273986202435111
 21
152.03495201667809
 31
0.0
  0
LINE
  5
85
  8
0
  6
CONTINUOUS
 62
     7
 10
92.301214206175899
 20
192.95838116688981
 30
0.0
 11
91.801214206175885
 21
192.45838116688969
 31
0.0
  0
LINE
  5
86
  8
0
  6
CONTINUOUS
 62
     7
 10
91.801214206175885
 20
191.0583811668898
 30
0.0
 11
92.301214206175899
 21
190.55838116688969
 31
0.0
  0
LINE
  5
87
  8
0
  6
CONTINUOUS
 62
     7
 10
94.301214206175885
 20
192.95838116688981
 30
0.0
 11
92.301214206175899
 21
192.95838116688981
 31
0.0
  0
LINE
  5
88
  8
0
  6
CONTINUOUS
 62
     7
 10
92.301214206175899
 20
190.55838116688969
 30
0.0
 11
94.301214206175885
 21
190.55838116688969
 31
0.0
  0
LINE
  5
89
  8
0
  6
CONTINUOUS
 62
     7
 10
107.70121420617591
 20
194.75838116688979
 30
0.0
 11
107.70121420617591
 21
188.75838116688979
 31
0.0
  0
LINE
  5
8A
  8
0
  6
CONTINUOUS
 62
     7
 10
104.0012142061759
 20
188.75838116688979
 30
0.0
 11
107.70121420617591
 21
188.75838116688979
 31
0.0
  0
LINE
  5
92
  8
0
  6
CONTINUOUS
 62
     7
 10
104.0012142061759
 20
194.75838116688979
 30
0.0
 11
104.0012142061759
 21
188.75838116688979
 31
0.0
  0
LINE
  5
93
  8
0
  6
CONTINUOUS
 62
     7
 10
104.0012142061759
 20
194.75838116688979
 30
0.0
 11
107.70121420617591
 21
194.75838116688979
 31
0.0
  0
LINE
  5
94
  8
0
  6
CONTINUOUS
 62
     7
 10
98.001214206175916
 20
194.75838116688979
 30
0.0
 11
98.001214206175916
 21
188.75838116688979
 31
0.0
  0
LINE
  5
95
  8
0
  6
CONTINUOUS
 62
     7
 10
94.301214206175885
 20
188.75838116688979
 30
0.0
 11
98.001214206175916
 21
188.75838116688979
 31
0.0
  0
LINE
  5
9D
  8
0
  6
CONTINUOUS
 62
     7
 10
94.301214206175885
 20
194.75838116688979
 30
0.0
 11
98.001214206175916
 21
194.75838116688979
 31
0.0
  0
LINE
  5
9E
  8
0
  6
CONTINUOUS
 62
     7
 10
94.301214206175885
 20
194.75838116688979
 30
0.0
 11
94.301214206175885
 21
188.75838116688979
 31
0.0
  0
LINE
  5
9F
  8
0
  6
CONTINUOUS
 62
     7
 10
91.801214206175885
 20
191.75838116688979
 30
0.0
 11
91.801214206175885
 21
192.45838116688969
 31
0.0
  0
LINE
  5
A0
  8
0
  6
CONTINUOUS
 62
     7
 10
91.801214206175885
 20
191.0583811668898
 30
0.0
 11
91.801214206175885
 21
191.75838116688979
 31
0.0
  0
LINE
  5
A1
  8
0
  6
CONTINUOUS
 62
     7
 10
92.301214206175899
 20
191.75838116688979
 30
0.0
 11
92.301214206175899
 21
190.55838116688969
 31
0.0
  0
LINE
  5
A2
  8
0
  6
CONTINUOUS
 62
     7
 10
92.301214206175899
 20
192.95838116688981
 30
0.0
 11
92.301214206175899
 21
191.75838116688979
 31
0.0
  0
LINE
  5
A4
  8
0
  6
CONTINUOUS
 62
     7
 10
104.0012142061759
 20
193.95838116688981
 30
0.0
 11
98.001214206175916
 21
193.95838116688981
 31
0.0
  0
LINE
  5
A5
  8
0
  6
CONTINUOUS
 62
     7
 10
104.0012142061759
 20
189.55838116688969
 30
0.0
 11
98.001214206175916
 21
189.55838116688969
 31
0.0
  0
LINE
  5
A7
  8
0
  6
CONTINUOUS
 62
     7
 10
104.0012142061759
 20
194.75838116688979
 30
0.0
 11
98.001214206175916
 21
194.75838116688979
 31
0.0
  0
LINE
  5
A8
  8
0
  6
CONTINUOUS
 62
     7
 10
104.0012142061759
 20
188.75838116688979
 30
0.0
 11
98.001214206175916
 21
188.75838116688979
 31
0.0
  0
LINE
  5
A9
  8
0
  6
CONTINUOUS
 62
     7
 10
106.40121420617589
 20
188.25838116688979
 30
0.0
 11
95.601214206175896
 21
188.25838116688979
 31
0.0
  0
LINE
  5
AA
  8
0
  6
CONTINUOUS
 62
     7
 10
95.601214206175896
 20
188.25838116688979
 30
0.0
 11
95.101214206175896
 21
188.75838116688979
 31
0.0
  0
LINE
  5
AB
  8
0
  6
CONTINUOUS
 62
     7
 10
106.90121420617589
 20
188.75838116688979
 30
0.0
 11
106.40121420617589
 21
188.25838116688979
 31
0.0
  0
LINE
  5
AC
  8
0
  6
CONTINUOUS
 62
     7
 10
97.301214206175899
 20
183.25838116688979
 30
0.0
 11
97.301214206175899
 21
188.25838116688979
 31
0.0
  0
LINE
  5
AD
  8
0
  6
CONTINUOUS
 62
     7
 10
94.301214206175885
 20
183.25838116688979
 30
0.0
 11
94.301214206175885
 21
188.75838116688979
 31
0.0
  0
LINE
  5
AE
  8
0
  6
CONTINUOUS
 62
     7
 10
97.301214206175899
 20
181.25838116688971
 30
0.0
 11
94.301214206175885
 21
181.25838116688971
 31
0.0
  0
LINE
  5
AF
  8
0
  6
CONTINUOUS
 62
     7
 10
97.301214206175899
 20
183.25838116688979
 30
0.0
 11
97.301214206175899
 21
181.25838116688971
 31
0.0
  0
LINE
  5
B0
  8
0
  6
CONTINUOUS
 62
     7
 10
94.301214206175885
 20
181.25838116688971
 30
0.0
 11
94.301214206175885
 21
183.25838116688979
 31
0.0
  0
LINE
  5
B1
  8
0
  6
CONTINUOUS
 62
     7
 10
142.65747790114639
 20
166.13495201667811
 30
0.0
 11
136.65747790114639
 21
166.13495201667811
 31
0.0
  0
LINE
  5
B2
  8
0
  6
CONTINUOUS
 62
     7
 10
142.65747790114639
 20
166.13495201667811
 30
0.0
 11
142.65747790114639
 21
143.73495201667811
 31
0.0
  0
LINE
  5
B3
  8
0
  6
CONTINUOUS
 62
     7
 10
142.65747790114639
 20
143.73495201667811
 30
0.0
 11
136.65747790114639
 21
143.73495201667811
 31
0.0
  0
LINE
  5
B4
  8
0
  6
CONTINUOUS
 62
     7
 10
136.65747790114639
 20
166.13495201667811
 30
0.0
 11
136.65747790114639
 21
143.73495201667811
 31
0.0
  0
LINE
  5
B5
  8
0
  6
CONTINUOUS
 62
     7
 10
136.15747790114631
 20
151.53495201667809
 30
0.0
 11
136.15747790114631
 21
143.73495201667811
 31
0.0
  0
LINE
  5
B6
  8
0
  6
CONTINUOUS
 62
     7
 10
136.65747790114639
 20
152.03495201667809
 30
0.0
 11
136.15747790114631
 21
151.53495201667809
 31
0.0
  0
LINE
  5
B7
  8
0
  6
CONTINUOUS
 62
     7
 10
136.65747790114639
 20
143.73495201667811
 30
0.0
 11
136.15747790114631
 21
143.73495201667811
 31
0.0
  0
ARC
  5
B8
  8
0
  6
CONTINUOUS
 62
     7
 10
131.15747790114631
 20
149.4349520166781
 30
0.0
 40
2.0
 50
90.0
 51
180.0
  0
LINE
  5
B9
  8
0
  6
CONTINUOUS
 62
     7
 10
131.15747790114631
 20
151.4349520166781
 30
0.0
 11
136.15747790114631
 21
151.4349520166781
 31
0.0
  0
ARC
  5
BA
  8
0
  6
CONTINUOUS
 62
     7
 10
131.15747790114631
 20
145.73495201667811
 30
0.0
 40
2.0
 50
180.0
 51
270.0000000000008
  0
LINE
  5
BB
  8
0
  6
CONTINUOUS
 62
     7
 10
129.15747790114639
 20
145.73495201667811
 30
0.0
 11
129.15747790114639
 21
149.4349520166781
 31
0.0
  0
ARC
  5
BC
  8
0
  6
CONTINUOUS
 62
     7
 10
132.65747790114631
 20
148.3349520166781
 30
0.0
 40
1.6000000000000221
 50
0.0
 51
180.0
  0
LINE
  5
BD
  8
0
  6
CONTINUOUS
 62
     7
 10
131.0574779011464
 20
148.3349520166781
 30
0.0
 11
131.0574779011464
 21
147.8349520166781
 31
0.0
  0
ARC
  5
BE
  8
0
  6
CONTINUOUS
 62
     7
 10
132.65747790114631
 20
147.8349520166781
 30
0.0
 40
1.6000000000000221
 50
180.0
 51
0.0000000000000477
  0
LINE
  5
BF
  8
0
  6
CONTINUOUS
 62
     7
 10
134.25747790114639
 20
147.8349520166781
 30
0.0
 11
134.25747790114639
 21
148.3349520166781
 31
0.0
  0
LINE
  5
C0
  8
0
  6
CONTINUOUS
 62
     7
 10
136.15747790114631
 20
143.73495201667811
 30
0.0
 11
131.15747790114631
 21
143.73495201667811
 31
0.0
  0
LINE
  5
198
  8
0
  6
AM_ISO08W050X2
 62
     4
 10
103.5329412666965
 20
191.75838116688979
 30
0.0
 11
109.0294718235495
 21
191.75838116688979
 31
0.0
  0
LINE
  5
1A2
  8
0
  6
AM_ISO08W050X2
 62
     4
 10
101.0012142061759
 20
195.4500231516549
 30
0.0
 11
101.0012142061759
 21
187.67195642639149
 31
0.0
  0
INSERT
  5
1CB
  8
0
  2
*U3
 10
0.0
 20
0.0
 30
0.0
  0
LINE
  5
1DA
  8
0
 62
     2
 10
99.202442882212154
 20
191.75838116688979
 30
0.0
 11
102.8417050526775
 21
191.75838116688979
 31
0.0
  0
LINE
  5
1DC
  8
0
 62
     2
 10
102.8417050526775
 20
191.75838116688979
 30
0.0
 11
101.7573887649031
 21
192.21347407742499
 31
0.0
  0
LINE
  5
1DE
  8
0
 62
     2
 10
102.8417050526775
 20
191.75838116688979
 30
0.0
 11
101.7573887649031
 21
191.2917493947312
 31
0.0
  0
LINE
  5
208
  8
0
  6
AM_ISO08W050X2
 62
     4
 10
90.228276497644629
 20
191.75838116688979
 30
0.0
 11
98.544943823188419
 21
191.75838116688979
 31
0.0
  0
LINE
  5
215
  8
0
  6
AM_ISO08W050X2
 62
     4
 10
67.043988275619654
 20
148.3349520166781
 30
0.0
 11
71.456627939439045
 21
148.3349520166781
 31
0.0
  0
LINE
  5
218
  8
0
  6
AM_ISO08W050X2
 62
     4
 10
67.060453603061774
 20
147.8349520166781
 30
0.0
 11
71.390767890608785
 21
147.8349520166781
 31
0.0
  0
LINE
  5
21B
  8
0
  6
AM_ISO08W050X2
 62
     4
 10
69.273986202435125
 20
150.4757264673018
 30
0.0
 11
69.273986202435125
 21
145.6698633729664
 31
0.0
  0
LINE
  5
21D
  8
0
  6
AM_ISO08W050X2
 62
     4
 10
62.273986202435118
 20
167.4325682238514
 30
0.0
 11
62.273986202435118
 21
142.23010626526559
 31
0.0
  0
LINE
  5
21F
  8
0
  6
AM_ISO08W050X2
 62
     4
 10
57.856289606039468
 20
164.13495201667811
 30
0.0
 11
66.623644324562065
 21
164.13495201667811
 31
0.0
  0
LINE
  5
221
  8
0
  6
AM_ISO08W050X2
 62
     4
 10
90.632666665161651
 20
164.13495201667811
 30
0.0
 11
98.512712358384533
 21
164.13495201667811
 31
0.0
  0
LINE
  5
223
  8
0
  6
AM_ISO08W050X2
 62
     4
 10
103.6750250131736
 20
164.13495201667811
 30
0.0
 11
108.8323012205274
 21
164.13495201667811
 31
0.0
  0
LINE
  5
225
  8
0
 62
     2
 10
102.8417050526775
 20
164.13495201667811
 30
0.0
 11
101.7573887649031
 21
163.66832024451949
 31
0.0
  0
LINE
  5
23C
  8
0
 62
     2
 10
102.8417050526775
 20
164.13495201667811
 30
0.0
 11
101.7573887649031
 21
164.59004492721331
 31
0.0
  0
LINE
  5
255
  8
0
 62
     2
 10
99.202442882212154
 20
164.13495201667811
 30
0.0
 11
102.8417050526775
 21
164.13495201667811
 31
0.0
  0
LINE
  5
26C
  8
0
  6
AM_ISO08W050X2
 62
     4
 10
101.0012142061759
 20
167.3946895442389
 30
0.0
 11
101.0012142061759
 21
141.75924323593199
 31
0.0
  0
LINE
  5
279
  8
0
  6
AM_ISO08W050X2
 62
     4
 10
139.65747790114639
 20
167.3751157467488
 30
0.0
 11
139.65747790114639
 21
142.61052916698199
 31
0.0
  0
LINE
  5
27B
  8
0
  6
AM_ISO08W050X2
 62
     4
 10
132.65747790114631
 20
150.86479873872801
 30
0.0
 11
132.65747790114631
 21
145.11769778967621
 31
0.0
  0
LINE
  5
27D
  8
0
  6
AM_ISO08W050X2
 62
     4
 10
129.88147054328761
 20
148.3349520166781
 30
0.0
 11
135.0834541966459
 21
148.3349520166781
 31
0.0
  0
LINE
  5
27F
  8
0
  6
AM_ISO08W050X2
 62
     4
 10
130.00459419663531
 20
147.8349520166781
 30
0.0
 11
135.0834541966459
 21
147.8349520166781
 31
0.0
  0
LINE
  5
3E0
  8
0
  6
AM_ISO08W050X2
 62
     4
 10
135.49509005547091
 20
164.13495201667811
 30
0.0
 11
143.8760971884999
 21
164.13495201667811
 31
0.0
  0
LINE
  5
3E8
  8
0
  6
AM_ISO08W050X2
 62
     4
 10
92.415507443874617
 20
184.75838116688971
 30
0.0
 11
98.921744838787504
 21
184.75838116688971
 31
0.0
  0
VIEWPORT
  5
1BD
 67
     1
  8
0
 10
128.5
 20
97.5
 30
0.0
 40
365.10816494845358
 41
222.18000000000001
 68
     1
 69
     1
1001
ACAD
1000
MVIEW
1002
{
1070
    16
1010
0.0
1020
0.0
1030
0.0
1010
0.0
1020
0.0
1030
1.0
1040
0.0
1040
222.18000000000001
1040
128.5
1040
97.5
1040
50.0
1040
0.0
1040
0.0
1070
     0
1070
  2000
1070
     1
1070
     1
1070
     0
1070
     0
1070
     0
1070
     0
1040
0.0
1040
0.0
1040
0.0
1040
10.0
1040
10.0
1040
10.0
1040
10.0
1070
     0
1002
{
1002
}
1002
}
1001
GENIUS_GENODEF_13
1002
{
1000
HIER
1070
     0
1002
}
1002
{
1000
MANEDIT
1070
     0
1002
}
1002
{
1000
NOSEL
1070
     0
1002
}
1002
{
1000
BEHIND
1070
     0
1002
}
1002
{
1000
OTHER
1070
     0
1002
}
1002
{
1000
REACTOR
1002
}
1001
GENIUS_GENOBJ-N-SDF_13
1002
{
1000
OWNER
1000
GEN
1002
}
1001
GENIUS_GENSCREG_15
1000
PF
1040
1.0
1000
DF
1040
1.0
1000
MIN
1011
-54.054082474226789
1021
0.0
1031
0.0
1021
-13.59
1031
0.0
1000
MAX
1011
311.05408247422679
1021
0.0
1031
0.0
1021
208.59
1031
0.0
1000
FLAGS
1070
     4
  0
ENDSEC
  0
EOF
