  0
SECTION
  2
HEADER
  9
$ACADVER
  1
AC1012
  9
$DWGCODEPAGE
  3
dos932
  9
$INSBASE
 10
0.0
 20
0.0
 30
0.0
  9
$EXTMIN
 10
-30.51865402348818
 20
-76.8840681162419
 30
-0.0015258207003583
  9
$EXTMAX
 10
147.492210234337
 20
171.4310869130725
 30
0.0000000349246037
  9
$LIMMIN
 10
-30.51322230901419
 20
-76.87649117970309
  9
$LIMMAX
 10
147.4867776909858
 20
171.4235088202968
  9
$ORTHOMODE
 70
     0
  9
$REGENMODE
 70
     1
  9
$FILLMODE
 70
     1
  9
$QTEXTMODE
 70
     0
  9
$MIRRTEXT
 70
     1
  9
$DRAGMODE
 70
     2
  9
$LTSCALE
 40
1.0
  9
$OSMODE
 70
  3071
  9
$ATTMODE
 70
     1
  9
$TEXTSIZE
 40
3.5
  9
$TRACEWID
 40
0.5
  9
$TEXTSTYLE
  7
STANDARD
  9
$CLAYER
  8
0
  9
$CELTYPE
  6
BYLAYER
  9
$CECOLOR
 62
   256
  9
$CELTSCALE
 40
1.0
  9
$DELOBJ
 70
     1
  9
$DISPSILH
 70
     0
  9
$DIMSCALE
 40
1.0
  9
$DIMASZ
 40
0.18
  9
$DIMEXO
 40
0.0625
  9
$DIMDLI
 40
0.38
  9
$DIMRND
 40
0.0
  9
$DIMDLE
 40
0.0
  9
$DIMEXE
 40
0.18
  9
$DIMTP
 40
0.0
  9
$DIMTM
 40
0.0
  9
$DIMTXT
 40
0.18
  9
$DIMCEN
 40
0.09
  9
$DIMTSZ
 40
0.0
  9
$DIMTOL
 70
     0
  9
$DIMLIM
 70
     0
  9
$DIMTIH
 70
     1
  9
$DIMTOH
 70
     1
  9
$DIMSE1
 70
     0
  9
$DIMSE2
 70
     0
  9
$DIMTAD
 70
     0
  9
$DIMZIN
 70
     0
  9
$DIMBLK
  1

  9
$DIMASO
 70
     1
  9
$DIMSHO
 70
     1
  9
$DIMPOST
  1

  9
$DIMAPOST
  1

  9
$DIMALT
 70
     0
  9
$DIMALTD
 70
     2
  9
$DIMALTF
 40
25.4
  9
$DIMLFAC
 40
1.0
  9
$DIMTOFL
 70
     0
  9
$DIMTVP
 40
0.0
  9
$DIMTIX
 70
     0
  9
$DIMSOXD
 70
     0
  9
$DIMSAH
 70
     0
  9
$DIMBLK1
  1

  9
$DIMBLK2
  1

  9
$DIMSTYLE
  2
STANDARD
  9
$DIMCLRD
 70
     0
  9
$DIMCLRE
 70
     0
  9
$DIMCLRT
 70
     0
  9
$DIMTFAC
 40
1.0
  9
$DIMGAP
 40
0.09
  9
$DIMJUST
 70
     0
  9
$DIMSD1
 70
     0
  9
$DIMSD2
 70
     0
  9
$DIMTOLJ
 70
     1
  9
$DIMTZIN
 70
     0
  9
$DIMALTZ
 70
     0
  9
$DIMALTTZ
 70
     0
  9
$DIMFIT
 70
     3
  9
$DIMUPT
 70
     0
  9
$DIMUNIT
 70
     2
  9
$DIMDEC
 70
     4
  9
$DIMTDEC
 70
     4
  9
$DIMALTU
 70
     2
  9
$DIMALTTD
 70
     2
  9
$DIMTXSTY
  7
STANDARD
  9
$DIMAUNIT
 70
     0
  9
$LUNITS
 70
     2
  9
$LUPREC
 70
     4
  9
$SKETCHINC
 40
0.1
  9
$FILLETRAD
 40
2.0
  9
$AUNITS
 70
     0
  9
$AUPREC
 70
     0
  9
$MENU
  1
ACAD
  9
$ELEVATION
 40
0.0
  9
$PELEVATION
 40
0.0
  9
$THICKNESS
 40
0.0
  9
$LIMCHECK
 70
     0
  9
$BLIPMODE
 70
     0
  9
$CHAMFERA
 40
0.0
  9
$CHAMFERB
 40
0.0
  9
$CHAMFERC
 40
0.0
  9
$CHAMFERD
 40
0.0
  9
$SKPOLY
 70
     0
  9
$TDCREATE
 40
2452598.455770995
  9
$TDUPDATE
 40
2452598.456692222
  9
$TDINDWG
 40
0.0009220486
  9
$TDUSRTIMER
 40
0.0009220486
  9
$USRTIMER
 70
     1
  9
$ANGBASE
 50
0.0
  9
$ANGDIR
 70
     0
  9
$PDMODE
 70
     0
  9
$PDSIZE
 40
0.0
  9
$PLINEWID
 40
0.0
  9
$COORDS
 70
     1
  9
$SPLFRAME
 70
     0
  9
$SPLINETYPE
 70
     6
  9
$SPLINESEGS
 70
     8
  9
$ATTDIA
 70
     1
  9
$ATTREQ
 70
     1
  9
$HANDLING
 70
 12289
  9
$HANDSEED
  5
178
  9
$SURFTAB1
 70
     6
  9
$SURFTAB2
 70
     6
  9
$SURFTYPE
 70
     6
  9
$SURFU
 70
     6
  9
$SURFV
 70
     6
  9
$UCSNAME
  2

  9
$UCSORG
 10
0.0
 20
0.0
 30
0.0
  9
$UCSXDIR
 10
1.0
 20
0.0
 30
0.0
  9
$UCSYDIR
 10
0.0
 20
1.0
 30
0.0
  9
$PUCSNAME
  2

  9
$PUCSORG
 10
0.0
 20
0.0
 30
0.0
  9
$PUCSXDIR
 10
1.0
 20
0.0
 30
0.0
  9
$PUCSYDIR
 10
0.0
 20
1.0
 30
0.0
  9
$USERI1
 70
     0
  9
$USERI2
 70
     0
  9
$USERI3
 70
     0
  9
$USERI4
 70
     0
  9
$USERI5
 70
     0
  9
$USERR1
 40
0.0
  9
$USERR2
 40
0.0
  9
$USERR3
 40
0.0
  9
$USERR4
 40
0.0
  9
$USERR5
 40
0.0
  9
$WORLDVIEW
 70
     1
  9
$SHADEDGE
 70
     3
  9
$SHADEDIF
 70
    70
  9
$TILEMODE
 70
     1
  9
$MAXACTVP
 70
    64
  9
$PINSBASE
 10
0.0
 20
0.0
 30
0.0
  9
$PLIMCHECK
 70
     0
  9
$PEXTMIN
 10
1.000000000000000E+20
 20
1.000000000000000E+20
 30
1.000000000000000E+20
  9
$PEXTMAX
 10
-1.000000000000000E+20
 20
-1.000000000000000E+20
 30
-1.000000000000000E+20
  9
$PLIMMIN
 10
0.0
 20
0.0
  9
$PLIMMAX
 10
12.0
 20
9.0
  9
$UNITMODE
 70
     0
  9
$VISRETAIN
 70
     1
  9
$PLINEGEN
 70
     0
  9
$PSLTSCALE
 70
     1
  9
$TREEDEPTH
 70
  3020
  9
$PICKSTYLE
 70
     1
  9
$CMLSTYLE
  2
STANDARD
  9
$CMLJUST
 70
     0
  9
$CMLSCALE
 40
1.0
  9
$SAVEIMAGES
 70
     1
  0
ENDSEC
  0
SECTION
  2
CLASSES
  0
CLASS
  1
ACDBDICTIONARYWDFLT
  2
AcDbDictionaryWithDefault
  3
AutoCAD 2000
 90
    32768
280
     0
281
     0
  0
CLASS
  1
ACDBPLACEHOLDER
  2
AcDbPlaceHolder
  3
AutoCAD 2000
 90
    32768
280
     0
281
     0
  0
CLASS
  1
LAYOUT
  2
AcDbLayout
  3
AutoCAD 2000
 90
    32768
280
     0
281
     0
  0
CLASS
  1
AMGSETTINGSOBJ
  2
AmgSettingsObj
  3
"AcadM|Product Description: AutoCAD Mechanical 2000|Company: Autodesk"
 90
    32768
280
     0
281
     0
  0
CLASS
  1
ACME_DOCUMENT
  2
AcMeDbDoc
  3
AcMeServices
 90
    32768
280
     0
281
     0
  0
CLASS
  1
ACMESCOPE
  2
AcMeScope
  3
AcMeServices
 90
    32768
280
     0
281
     0
  0
CLASS
  1
ACMECOMMANDHISTORY
  2
AcMeCommandHistory
  3
AcMeServices
 90
    32768
280
     0
281
     0
  0
CLASS
  1
DICTIONARYVAR
  2
AcDbDictionaryVar
  3
AutoCAD 2000
 90
    32768
280
     0
281
     0
  0
CLASS
  1
ACIMSYSVARMAN
  2
AcImSysVarManager
  3
AcMeServices
 90
    32768
280
     0
281
     0
  0
CLASS
  1
ACIMREALSYSVAR
  2
AcImRealSysVar
  3
AcMeServices
 90
    32768
280
     0
281
     0
  0
CLASS
  1
ACIMINTSYSVAR
  2
AcImIntSysVar
  3
AcMeServices
 90
    32768
280
     0
281
     0
  0
CLASS
  1
ACMEDRAWINGMAN
  2
AcMeDrawingMan
  3
AcMeServices
 90
    32768
280
     0
281
     0
  0
CLASS
  1
ACMEVIEW
  2
AcMeView
  3
AcMeServices
 90
    32768
280
     0
281
     0
  0
CLASS
  1
ACDBENTITYCACHE
  2
AcMeEntityCache
  3
AcMeServices
 90
    32768
280
     0
281
     0
  0
CLASS
  1
GSMANAGER
  2
AcMeGSManager
  3
AcMeServices
 90
    32768
280
     0
281
     0
  0
CLASS
  1
AmdtInternalReactor
  2
AmdtInternalReactor
  3
AcMeServices
 90
    32768
280
     0
281
     0
  0
CLASS
  1
ACMESTATEMGR
  2
AcMeStateMgr
  3
AcMeServices
 90
    32768
280
     0
281
     0
  0
CLASS
  1
ACME_DATABASE
  2
AcMeDbDatabase
  3
AcMeServices
 90
    32768
280
     0
281
     0
  0
CLASS
  1
ACRFINSADJUSTERMGR
  2
AcRfInsAdjusterMgr
  3
AcMeServices
 90
    32768
280
     0
281
     0
  0
CLASS
  1
ACMDATADICTIONARY
  2
AcmDataDictionary
  3
"AcmSymBB|Product Description: AutoCAD Mechanical 2000|Company: Autodesk"
 90
    32768
280
     0
281
     0
  0
CLASS
  1
ACMDATAENTRYBLOCK
  2
AcmDataEntryBlock
  3
"AcmSymBB|Product Description: AutoCAD Mechanical 2000|Company: Autodesk"
 90
    32768
280
     0
281
     0
  0
CLASS
  1
AMGOBJPROPCFG
  2
AmgObjPropCfg
  3
"AmgLay|Product Description: AutoCAD Mechanical 2000|Company: Autodesk"
 90
    32769
280
     0
281
     0
  0
CLASS
  1
ACAMGFILTERDAT
  2
AcAmgFilterDat
  3
"AcadM|Product Description: AutoCAD Mechanical 2000|Company: Autodesk"
 90
    32768
280
     0
281
     0
  0
CLASS
  1
LAYER_INDEX
  2
AcDbLayerIndex
  3
AutoCAD 2000
 90
    32768
280
     0
281
     0
  0
CLASS
  1
IDBUFFER
  2
AcDbIdBuffer
  3
AutoCAD 2000
 90
    32768
280
     0
281
     0
  0
CLASS
  1
LONG_TRANSACTION
  2
AcDbLongTransaction
  3
AutoCAD 2000
 90
    32768
280
     0
281
     0
  0
CLASS
  1
LWPOLYLINE
  2
AcDbPolyline
  3
AutoCAD 2000
 90
    32768
280
     0
281
     1
  0
CLASS
  1
HATCH
  2
AcDbHatch
  3
AutoCAD 2000
 90
    32768
280
     0
281
     1
  0
CLASS
  1
XRECORD
  2
AcDbXrecord
  3
AutoCAD 2000
 90
    32768
280
     0
281
     0
  0
ENDSEC
  0
SECTION
  2
TABLES
  0
TABLE
  2
VPORT
  5
8
330
0
100
AcDbSymbolTable
 70
     5
  0
VPORT
  5
174
330
8
100
AcDbSymbolTableRecord
100
AcDbViewportTableRecord
  2
*ACTIVE
 70
     0
 10
0.0
 20
0.0
 11
1.0
 21
1.0
 12
58.48677810542444
 22
47.27350939841534
 13
0.0
 23
0.0
 14
1.0
 24
1.0
 15
0.0
 25
0.0
 16
0.0
 26
0.0
 36
1.0
 17
0.0
 27
0.0
 37
0.0
 40
250.1821862701364
 41
1.565872020075282
 42
50.0
 43
0.0
 44
0.0
 50
0.0
 51
0.0
 71
     0
 72
   100
 73
     1
 74
     1
 75
     0
 76
     0
 77
     0
 78
     0
  0
ENDTAB
  0
TABLE
  2
LTYPE
  5
5
330
0
100
AcDbSymbolTable
 70
    20
  0
LTYPE
  5
13
330
5
100
AcDbSymbolTableRecord
100
AcDbLinetypeTableRecord
  2
BYBLOCK
 70
     0
  3

 72
    65
 73
     0
 40
0.0
  0
LTYPE
  5
14
330
5
100
AcDbSymbolTableRecord
100
AcDbLinetypeTableRecord
  2
BYLAYER
 70
     0
  3

 72
    65
 73
     0
 40
0.0
  0
LTYPE
  5
15
330
5
100
AcDbSymbolTableRecord
100
AcDbLinetypeTableRecord
  2
CONTINUOUS
 70
     0
  3
Solid line
 72
    65
 73
     0
 40
0.0
  0
LTYPE
  5
22
330
5
100
AcDbSymbolTableRecord
100
AcDbLinetypeTableRecord
  2
BORDER
 70
     0
  3
__ __ . __ __ .
 72
    65
 73
     6
 40
11.43486842105263
 49
3.267105263157892
 74
     0
 49
-1.633552631578946
 74
     0
 49
3.267105263157892
 74
     0
 49
-1.633552631578946
 74
     0
 49
0.0
 74
     0
 49
-1.633552631578946
 74
     0
  0
LTYPE
  5
23
330
5
100
AcDbSymbolTableRecord
100
AcDbLinetypeTableRecord
  2
CENTER
 70
     0
  3
____ _ ____ _
 72
    65
 73
     4
 40
13.06842105263157
 49
8.167763157894732
 74
     0
 49
-1.633552631578946
 74
     0
 49
1.633552631578946
 74
     0
 49
-1.633552631578946
 74
     0
  0
LTYPE
  5
24
330
5
100
AcDbSymbolTableRecord
100
AcDbLinetypeTableRecord
  2
DASHDOT
 70
     0
  3
__ . __ . __ .
 72
    65
 73
     4
 40
6.534210526315785
 49
3.267105263157892
 74
     0
 49
-1.633552631578946
 74
     0
 49
0.0
 74
     0
 49
-1.633552631578946
 74
     0
  0
LTYPE
  5
25
330
5
100
AcDbSymbolTableRecord
100
AcDbLinetypeTableRecord
  2
DASHED
 70
     0
  3
__ __ __ __ __
 72
    65
 73
     2
 40
4.900657894736839
 49
3.267105263157892
 74
     0
 49
-1.633552631578946
 74
     0
  0
LTYPE
  5
26
330
5
100
AcDbSymbolTableRecord
100
AcDbLinetypeTableRecord
  2
DIVIDE
 70
     0
  3
__ . . __ . . 
 72
    65
 73
     6
 40
8.167763157894732
 49
3.267105263157892
 74
     0
 49
-1.633552631578946
 74
     0
 49
0.0
 74
     0
 49
-1.633552631578946
 74
     0
 49
0.0
 74
     0
 49
-1.633552631578946
 74
     0
  0
LTYPE
  5
27
330
5
100
AcDbSymbolTableRecord
100
AcDbLinetypeTableRecord
  2
DOT
 70
     0
  3
..............
 72
    65
 73
     4
 40
3.267105263157892
 49
0.0
 74
     0
 49
-1.633552631578946
 74
     0
 49
0.0
 74
     0
 49
-1.633552631578946
 74
     0
  0
LTYPE
  5
28
330
5
100
AcDbSymbolTableRecord
100
AcDbLinetypeTableRecord
  2
HIDDEN
 70
     0
  3
_ _ _ _ _ _ _
 72
    65
 73
     2
 40
2.450328947368419
 49
1.633552631578946
 74
     0
 49
-0.8167763157894732
 74
     0
  0
LTYPE
  5
29
330
5
100
AcDbSymbolTableRecord
100
AcDbLinetypeTableRecord
  2
PHANTOM
 70
     0
  3
_____ _ _ _____ _ _ 
 72
    65
 73
     6
 40
16.33552631578947
 49
8.167763157894732
 74
     0
 49
-1.633552631578946
 74
     0
 49
1.633552631578946
 74
     0
 49
-1.633552631578946
 74
     0
 49
1.633552631578946
 74
     0
 49
-1.633552631578946
 74
     0
  0
LTYPE
  5
149
330
5
100
AcDbSymbolTableRecord
100
AcDbLinetypeTableRecord
  2
AM_ISO02W050
 70
     0
  3
__ __ __ __ __ __ __ __ __ __ __ __ __ __ __
 72
    65
 73
     2
 40
7.5
 49
6.0
 74
     0
 49
-1.5
 74
     0
  0
LTYPE
  5
14A
330
5
100
AcDbSymbolTableRecord
100
AcDbLinetypeTableRecord
  2
AM_ISO08W050
 70
     0
  3
____ . ____ . ____ . ____ . ____ . ____ . ____
 72
    65
 73
     4
 40
18.0
 49
12.0
 74
     0
 49
-1.5
 74
     0
 49
3.0
 74
     0
 49
-1.5
 74
     0
  0
LTYPE
  5
14B
330
5
100
AcDbSymbolTableRecord
100
AcDbLinetypeTableRecord
  2
AM_ISO09W050
 70
     0
  3
_____ . . _____ . . _____ . . ____ .. ____
 72
    65
 73
     6
 40
22.5
 49
12.0
 74
     0
 49
-1.5
 74
     0
 49
3.0
 74
     0
 49
-1.5
 74
     0
 49
3.0
 74
     0
 49
-1.5
 74
     0
  0
LTYPE
  5
14C
330
5
100
AcDbSymbolTableRecord
100
AcDbLinetypeTableRecord
  2
AMCONSTR
 70
     0
  3
_______________________
 72
    65
 73
     2
 40
9999.0
 49
9999.0
 74
     0
 49
0.0
 74
     0
  0
LTYPE
  5
14D
330
5
100
AcDbSymbolTableRecord
100
AcDbLinetypeTableRecord
  2
AM_ISO02W050X2
 70
     0
  3
 _ _ _ _ _ _ _ _ _ _ _ _
 72
    65
 73
     2
 40
3.75
 49
3.0
 74
     0
 49
-0.75
 74
     0
  0
LTYPE
  5
14E
330
5
100
AcDbSymbolTableRecord
100
AcDbLinetypeTableRecord
  2
AM_ISO08W050X2
 70
     0
  3
__ . __ . __ . __ . __ . __
 72
    65
 73
     4
 40
9.0
 49
6.0
 74
     0
 49
-0.75
 74
     0
 49
1.5
 74
     0
 49
-0.75
 74
     0
  0
LTYPE
  5
151
330
5
100
AcDbSymbolTableRecord
100
AcDbLinetypeTableRecord
  2
AMZIGZAG
 70
     0
  3
/\/-/\/-/\/-/\/-/\/-/\/
 72
    65
 73
     2
 40
11.00009999999999
 49
0.0001
 74
     4
 75
   135
340
150
 46
0.04
 50
0.0
 44
0.0
 45
0.0
 49
-11.0
 74
     0
  0
LTYPE
  5
152
330
5
100
AcDbSymbolTableRecord
100
AcDbLinetypeTableRecord
  2
PHANTOM2
 70
     0
  3
Phantom (.5x) ___ _ _ ___ _ _ ___ _ _ ___ _ _
 72
    65
 73
     6
 40
1.25
 49
0.625
 74
     0
 49
-0.125
 74
     0
 49
0.125
 74
     0
 49
-0.125
 74
     0
 49
0.125
 74
     0
 49
-0.125
 74
     0
  0
LTYPE
  5
153
330
5
100
AcDbSymbolTableRecord
100
AcDbLinetypeTableRecord
  2
HIDDEN2
 70
     0
  3
Hidden (.5x) _ _ _ _ _ _ _ _ _ _ _ _ _ _ _ _ _
 72
    65
 73
     2
 40
0.1875
 49
0.125
 74
     0
 49
-0.0625
 74
     0
  0
LTYPE
  5
154
330
5
100
AcDbSymbolTableRecord
100
AcDbLinetypeTableRecord
  2
CENTER2
 70
     0
  3
Center (.5x) ___ _ ___ _ ___ _ ___ _ ___ _ ___
 72
    65
 73
     4
 40
1.125
 49
0.75
 74
     0
 49
-0.125
 74
     0
 49
0.125
 74
     0
 49
-0.125
 74
     0
  0
LTYPE
  5
155
330
5
100
AcDbSymbolTableRecord
100
AcDbLinetypeTableRecord
  2
AMZIGZAG2
 70
     0
  3
/\/-/\/-/\/-/\/-/\/-/\/
 72
    65
 73
     2
 40
0.4401
 49
0.0001
 74
     4
 75
   135
340
150
 46
0.0016
 50
0.0
 44
0.0
 45
0.0
 49
-0.4400000000000001
 74
     0
  0
ENDTAB
  0
TABLE
  2
LAYER
  5
2
330
0
100
AcDbSymbolTable
 70
     2
  0
LAYER
  5
10
330
2
100
AcDbSymbolTableRecord
100
AcDbLayerTableRecord
  2
0
 70
     0
 62
     7
  6
CONTINUOUS
  0
LAYER
  5
2A
330
2
100
AcDbSymbolTableRecord
100
AcDbLayerTableRecord
  2
1
 70
     0
 62
     7
  6
CONTINUOUS
  0
ENDTAB
  0
TABLE
  2
STYLE
  5
3
330
0
100
AcDbSymbolTable
 70
     5
  0
STYLE
  5
11
330
3
100
AcDbSymbolTableRecord
100
AcDbTextStyleTableRecord
  2
STANDARD
 70
     0
 40
0.0
 41
1.0
 50
0.0
 71
     0
 42
3.5
  3
txt
  4

  0
STYLE
  5
2B
330
3
100
AcDbSymbolTableRecord
100
AcDbTextStyleTableRecord
  2
SIMPLEX
 70
     0
 40
0.0
 41
1.0
 50
0.0
 71
     0
 42
3.5
  3
simplex
  4

  0
STYLE
  5
2C
330
3
100
AcDbSymbolTableRecord
100
AcDbTextStyleTableRecord
  2
COMPLEX
 70
     0
 40
0.0
 41
1.0
 50
0.0
 71
     0
 42
3.5
  3
complex
  4

  0
STYLE
  5
2D
330
3
100
AcDbSymbolTableRecord
100
AcDbTextStyleTableRecord
  2
ITALIC
 70
     0
 40
0.0
 41
1.0
 50
0.0
 71
     0
 42
3.5
  3
italic
  4

  0
STYLE
  5
150
330
3
100
AcDbSymbolTableRecord
100
AcDbTextStyleTableRecord
  2

 70
     1
 40
0.0
 41
1.0
 50
0.0
 71
     0
 42
3.5
  3
ltypeshp.shx
  4

  0
ENDTAB
  0
TABLE
  2
VIEW
  5
6
330
0
100
AcDbSymbolTable
 70
     0
  0
ENDTAB
  0
TABLE
  2
UCS
  5
7
330
0
100
AcDbSymbolTable
 70
     0
  0
ENDTAB
  0
TABLE
  2
APPID
  5
9
330
0
100
AcDbSymbolTable
 70
     3
  0
APPID
  5
12
330
9
100
AcDbSymbolTableRecord
100
AcDbRegAppTableRecord
  2
ACAD
 70
     0
  0
APPID
  5
131
330
9
100
AcDbSymbolTableRecord
100
AcDbRegAppTableRecord
  2
MCAD_NO_VIS
 70
     0
  0
APPID
  5
132
330
9
100
AcDbSymbolTableRecord
100
AcDbRegAppTableRecord
  2
ACAD_TEMP_GRAPHIC
 70
     0
  0
ENDTAB
  0
TABLE
  2
DIMSTYLE
  5
A
330
0
100
AcDbSymbolTable
 70
     1
  0
DIMSTYLE
105
12A
330
A
100
AcDbSymbolTableRecord
100
AcDbDimStyleTableRecord
  2
STANDARD
 70
     0
  3

  4

  5

  6

  7

 40
1.0
 41
0.18
 42
0.0625
 43
0.38
 44
0.18
 45
0.0
 46
0.0
 47
0.0
 48
0.0
140
0.18
141
0.09
142
0.0
143
25.4
144
1.0
145
0.0
146
1.0
147
0.09
 71
     0
 72
     0
 73
     1
 74
     1
 75
     0
 76
     0
 77
     0
 78
     0
170
     0
171
     2
172
     0
173
     0
174
     0
175
     0
176
     0
177
     0
178
     0
270
     2
271
     4
272
     4
273
     2
274
     2
340
11
275
     0
280
     0
281
     0
282
     0
283
     1
284
     0
285
     0
286
     0
287
     3
288
     0
  0
ENDTAB
  0
TABLE
  2
BLOCK_RECORD
  5
1
330
0
100
AcDbSymbolTable
 70
     2
  0
BLOCK_RECORD
  5
1E
102
{ACAD_XDICTIONARY
360
16F
102
}
330
1
100
AcDbSymbolTableRecord
100
AcDbBlockTableRecord
  2
*MODEL_SPACE
  0
BLOCK_RECORD
  5
1A
102
{ACAD_XDICTIONARY
360
175
102
}
330
1
100
AcDbSymbolTableRecord
100
AcDbBlockTableRecord
  2
*PAPER_SPACE
  0
ENDTAB
  0
ENDSEC
  0
SECTION
  2
BLOCKS
  0
BLOCK
  5
1F
330
1E
100
AcDbEntity
  8
0
100
AcDbBlockBegin
  2
*MODEL_SPACE
 70
     0
 10
0.0
 20
0.0
 30
0.0
  3
*MODEL_SPACE
  1

  0
ENDBLK
  5
20
330
1E
100
AcDbEntity
  8
0
100
AcDbBlockEnd
  0
BLOCK
  5
1B
330
1A
100
AcDbEntity
 67
     1
  8
0
100
AcDbBlockBegin
  2
*PAPER_SPACE
 70
     0
 10
0.0
 20
0.0
 30
0.0
  3
*PAPER_SPACE
  1

  0
ENDBLK
  5
1C
330
1A
100
AcDbEntity
 67
     1
  8
0
100
AcDbBlockEnd
  0
ENDSEC
  0
SECTION
  2
ENTITIES
  0
LINE
  5
33
330
1E
100
AcDbEntity
  8
1
 62
     7
100
AcDbLine
 10
-30.51322230901419
 20
171.4235088202968
 30
0.0
 11
147.4867776909858
 21
171.4235088202968
 31
0.0
  0
LINE
  5
34
330
1E
100
AcDbEntity
  8
1
 62
     7
100
AcDbLine
 10
147.4867776909858
 20
171.4235088202968
 30
0.0
 11
147.4867776909858
 21
-76.87649117970309
 31
0.0
  0
LINE
  5
35
330
1E
100
AcDbEntity
  8
1
 62
     7
100
AcDbLine
 10
147.4867776909858
 20
-76.87649117970309
 30
0.0
 11
-30.51322230901419
 21
-76.87649117970309
 31
0.0
  0
LINE
  5
36
330
1E
100
AcDbEntity
  8
1
 62
     7
100
AcDbLine
 10
-30.51322230901419
 20
-76.87649117970309
 30
0.0
 11
-30.51322230901419
 21
171.4235088202968
 31
0.0
  0
LINE
  5
37
330
1E
100
AcDbEntity
  8
1
 62
     7
100
AcDbLine
 10
57.48677769098578
 20
-46.8764911797031
 30
0.0
 11
147.4867776909858
 21
-46.8764911797031
 31
0.0
  0
LINE
  5
38
330
1E
100
AcDbEntity
  8
1
 62
     7
100
AcDbLine
 10
57.48677769098578
 20
-56.8764911797031
 30
0.0
 11
147.4867776909858
 21
-56.8764911797031
 31
0.0
  0
LINE
  5
39
330
1E
100
AcDbEntity
  8
1
 62
     7
100
AcDbLine
 10
57.48677769098578
 20
-66.87649117970311
 30
0.0
 11
147.4867776909858
 21
-66.87649117970311
 31
0.0
  0
LINE
  5
3A
330
1E
100
AcDbEntity
  8
1
 62
     7
100
AcDbLine
 10
57.48677769098578
 20
-46.8764911797031
 30
0.0
 11
57.48677769098578
 21
-76.87649117970308
 31
0.0
  0
LINE
  5
3B
330
1E
100
AcDbEntity
  8
1
 62
     7
100
AcDbLine
 10
87.48677769098579
 20
-66.87649117970311
 30
0.0
 11
87.48677769098579
 21
-76.87649117970308
 31
0.0
  0
LINE
  5
3C
330
1E
100
AcDbEntity
  8
1
 62
     7
100
AcDbLine
 10
88.81906524531887
 20
37.54177816015097
 30
0.0
 11
85.4190652453189
 21
37.54177816015097
 31
0.0
  0
LINE
  5
3D
330
1E
100
AcDbEntity
  8
1
 62
     7
100
AcDbLine
 10
85.4190652453189
 20
42.04177816015095
 30
0.0
 11
85.4190652453189
 21
37.54177816015097
 31
0.0
  0
LINE
  5
3E
330
1E
100
AcDbEntity
  8
1
 62
     7
100
AcDbLine
 10
88.81906524531887
 20
42.04177816015095
 30
0.0
 11
88.81906524531887
 21
37.54177816015097
 31
0.0
  0
LINE
  5
3F
330
1E
100
AcDbEntity
  8
1
 62
     7
100
AcDbLine
 10
86.7190652453185
 20
45.59177816015087
 30
0.0
 11
85.31906524531887
 21
45.59177816015087
 31
0.0
  0
LINE
  5
40
330
1E
100
AcDbEntity
  8
1
 62
     7
100
AcDbLine
 10
85.31906524531887
 20
42.04177816015095
 30
0.0
 11
85.31906524531887
 21
58.04177816015095
 31
0.0
  0
LINE
  5
41
330
1E
100
AcDbEntity
  8
1
 62
     7
100
AcDbLine
 10
86.71906524531861
 20
52.99177816015098
 30
0.0
 11
85.31906524531887
 21
52.99177816015098
 31
0.0
  0
LINE
  5
42
330
1E
100
AcDbEntity
  8
1
 62
     7
100
AcDbLine
 10
88.81906524531887
 20
58.04177816015095
 30
0.0
 11
88.81906524531887
 21
42.04177816015095
 31
0.0
  0
LINE
  5
43
330
1E
100
AcDbEntity
  8
1
 62
     7
100
AcDbLine
 10
88.81906524531887
 20
56.54177816015096
 30
0.0
 11
85.31906524531887
 21
56.54177816015096
 31
0.0
  0
LINE
  5
44
330
1E
100
AcDbEntity
  8
1
 62
     7
100
AcDbLine
 10
28.69093427150044
 20
31.61850050384162
 30
0.0
 11
28.69093427150039
 21
37.54177816015096
 31
0.0
  0
LINE
  5
45
330
1E
100
AcDbEntity
  8
1
 62
     7
100
AcDbLine
 10
31.19093427150044
 20
31.61850050384162
 30
0.0
 11
31.19093427150039
 21
37.54177816015097
 31
0.0
  0
LINE
  5
46
330
1E
100
AcDbEntity
  8
1
 62
     7
100
AcDbLine
 10
88.36906524531896
 20
31.61850050384162
 30
0.0
 11
88.36906524531896
 21
37.54177816015097
 31
0.0
  0
LINE
  5
47
330
1E
100
AcDbEntity
  8
1
 62
     7
100
AcDbLine
 10
85.86906524531874
 20
31.61850050384162
 30
0.0
 11
85.86906524531849
 21
37.54177816015097
 31
0.0
  0
LINE
  5
48
330
1E
100
AcDbEntity
  8
1
  6
DASHED
 62
     2
100
AcDbLine
 10
30.94093427150042
 20
53.947572614518
 30
0.0
 11
30.94093427150042
 21
47.04310402987609
 31
0.0
  0
LINE
  5
49
330
1E
100
AcDbEntity
  8
1
  6
DASHED
 62
     2
100
AcDbLine
 10
26.9891283902228
 20
50.29177816015096
 30
0.0
 11
35.4827206967267
 21
50.29177816015096
 31
0.0
  0
LINE
  5
4A
330
1E
100
AcDbEntity
  8
1
 62
     7
100
AcDbLine
 10
24.94093427150042
 20
93.03134267860899
 30
0.0
 11
37.94093427150041
 21
93.03134267860901
 31
0.0
  0
LINE
  5
4B
330
1E
100
AcDbEntity
  8
1
 62
     7
100
AcDbLine
 10
34.39093427150115
 20
94.43134267860902
 30
0.0
 11
34.39093427150115
 21
93.03134267860899
 31
0.0
  0
LINE
  5
4C
330
1E
100
AcDbEntity
  8
1
 62
     7
100
AcDbLine
 10
31.39093427150115
 20
96.53134267860899
 30
0.0
 11
31.39093427150115
 21
93.03134267860899
 31
0.0
  0
LINE
  5
4D
330
1E
100
AcDbEntity
  8
1
  6
CENTER
 62
     2
100
AcDbLine
 10
36.19093427150041
 20
93.88958403770296
 30
0.0
 11
36.19093427150041
 21
97.30132966814268
 31
0.0
  0
LINE
  5
4E
330
1E
100
AcDbEntity
  8
1
  6
CENTER
 62
     2
100
AcDbLine
 10
86.26766221250523
 20
43.79177816015095
 30
0.0
 11
89.67940784294485
 21
43.79177816015095
 31
0.0
  0
LINE
  5
4F
330
1E
100
AcDbEntity
  8
1
  6
CENTER
 62
     2
100
AcDbLine
 10
86.0296334475908
 20
54.79177816015095
 30
0.0
 11
89.6397363821257
 21
54.79177816015095
 31
0.0
  0
LINE
  5
50
330
1E
100
AcDbEntity
  8
1
 62
     7
100
AcDbLine
 10
31.39093427150115
 20
96.53134267860899
 30
0.0
 11
24.94093427150042
 21
96.53134267860899
 31
0.0
  0
LINE
  5
51
330
1E
100
AcDbEntity
  8
1
 62
     7
100
AcDbLine
 10
37.94093427150041
 20
94.43134267860902
 30
0.0
 11
34.39093427150115
 21
94.43134267860902
 31
0.0
  0
LINE
  5
52
330
1E
100
AcDbEntity
  8
1
 62
     7
100
AcDbLine
 10
37.94093427150043
 20
56.54177816015096
 30
0.0
 11
31.39093427150115
 21
56.54177816015096
 31
0.0
  0
LINE
  5
53
330
1E
100
AcDbEntity
  8
1
 62
     7
100
AcDbLine
 10
37.94093427150043
 20
56.54177816015096
 30
0.0
 11
37.94093427150041
 21
42.04177816015095
 31
0.0
  0
LINE
  5
54
330
1E
100
AcDbEntity
  8
1
 62
     7
100
AcDbLine
 10
24.94093427150042
 20
96.53134267860899
 30
0.0
 11
24.94093427150042
 21
93.03134267860899
 31
0.0
  0
LINE
  5
55
330
1E
100
AcDbEntity
  8
1
 62
     7
100
AcDbLine
 10
37.94093427150041
 20
96.53134267860899
 30
0.0
 11
37.94093427150041
 21
93.03134267860901
 31
0.0
  0
LINE
  5
56
330
1E
100
AcDbEntity
  8
1
 62
     7
100
AcDbLine
 10
37.94093427150041
 20
96.53134267860899
 30
0.0
 11
31.39093427150115
 21
96.53134267860899
 31
0.0
  0
LINE
  5
57
330
1E
100
AcDbEntity
  8
1
 62
     7
100
AcDbLine
 10
24.94093427150045
 20
42.04177816015085
 30
0.0
 11
27.03931873319788
 21
37.54177816015096
 31
0.0
  0
LINE
  5
58
330
1E
100
AcDbEntity
  8
1
 62
     7
100
AcDbLine
 10
32.84254980980295
 20
37.54177816015097
 30
0.0
 11
27.03931873319788
 21
37.54177816015096
 31
0.0
  0
LINE
  5
59
330
1E
100
AcDbEntity
  8
1
 62
     7
100
AcDbLine
 10
34.94093427150041
 20
42.04177816015095
 30
0.0
 11
32.84254980980295
 21
37.54177816015097
 31
0.0
  0
LINE
  5
5A
330
1E
100
AcDbEntity
  8
1
 62
     7
100
AcDbLine
 10
24.94093427150042
 20
58.04177816015095
 30
0.0
 11
24.94093427150045
 21
42.04177816015085
 31
0.0
  0
LINE
  5
5B
330
1E
100
AcDbEntity
  8
1
  6
CENTER
 62
     2
100
AcDbLine
 10
37.80039690865084
 20
54.79177816015095
 30
0.0
 11
33.96669589041568
 21
54.79177816015095
 31
0.0
  0
LINE
  5
5C
330
1E
100
AcDbEntity
  8
1
  6
CENTER
 62
     2
100
AcDbLine
 10
36.19093427150041
 20
45.8669393121159
 30
0.0
 11
36.19093427150041
 21
42.18152893736289
 31
0.0
  0
LINE
  5
5D
330
1E
100
AcDbEntity
  8
1
  6
CENTER
 62
     2
100
AcDbLine
 10
37.80858954597482
 20
43.79177816015095
 30
0.0
 11
34.02430659424607
 21
43.79177816015095
 31
0.0
  0
LINE
  5
5E
330
1E
100
AcDbEntity
  8
1
  6
CENTER
 62
     2
100
AcDbLine
 10
36.19093427150041
 20
52.63424005793849
 30
0.0
 11
36.19093427150041
 21
56.29177816015095
 31
0.0
  0
LINE
  5
5F
330
1E
100
AcDbEntity
  8
1
 62
     7
100
AcDbLine
 10
37.94093427150041
 20
42.04177816015095
 30
0.0
 11
24.94093427150045
 21
42.04177816015085
 31
0.0
  0
LINE
  5
60
330
1E
100
AcDbEntity
  8
1
 62
     7
100
AcDbLine
 10
31.39093427150115
 20
56.54177816015096
 30
0.0
 11
31.39093427150115
 21
58.04177816015095
 31
0.0
  0
LINE
  5
61
330
1E
100
AcDbEntity
  8
1
 62
     7
100
AcDbLine
 10
31.39093427150115
 20
58.04177816015095
 30
0.0
 11
24.94093427150042
 21
58.04177816015095
 31
0.0
  0
LINE
  5
62
330
1E
100
AcDbEntity
  8
1
 62
     7
100
AcDbLine
 10
37.94093427150041
 20
45.59177816015096
 30
0.0
 11
36.19093427150041
 21
45.59177816015096
 31
0.0
  0
LINE
  5
63
330
1E
100
AcDbEntity
  8
1
 62
     7
100
AcDbLine
 10
34.94093427150091
 20
42.49659477545256
 30
0.0
 11
34.94093427150041
 21
42.04177816015095
 31
0.0
  0
LINE
  5
64
330
1E
100
AcDbEntity
  8
1
 62
     7
100
AcDbLine
 10
37.94093427150043
 20
52.99177816015099
 30
0.0
 11
36.19093427150041
 21
52.99177816015098
 31
0.0
  0
LINE
  5
65
330
1E
100
AcDbEntity
  8
1
 62
     7
100
AcDbLine
 10
34.39093427150115
 20
56.54177816015096
 30
0.0
 11
34.39093427150115
 21
54.79177816015095
 31
0.0
  0
LINE
  5
66
330
1E
100
AcDbEntity
  8
1
 62
     7
100
AcDbLine
 10
86.71906524531861
 20
42.04177816015095
 30
0.0
 11
86.7190652453185
 21
45.59177816015087
 31
0.0
  0
LINE
  5
67
330
1E
100
AcDbEntity
  8
1
 62
     7
100
AcDbLine
 10
86.7190652453185
 20
42.49659477545207
 30
0.0
 11
85.31906524531853
 21
42.49659477545207
 31
0.0
  0
LINE
  5
68
330
1E
100
AcDbEntity
  8
1
 62
     7
100
AcDbLine
 10
86.7190652453185
 20
56.54177816015096
 30
0.0
 11
86.71906524531861
 21
52.99177816015098
 31
0.0
  0
LINE
  5
69
330
1E
100
AcDbEntity
  8
1
 62
     7
100
AcDbLine
 10
85.31906524531887
 20
58.04177816015095
 30
0.0
 11
88.81906524531887
 21
58.04177816015095
 31
0.0
  0
LINE
  5
6A
330
1E
100
AcDbEntity
  8
1
 62
     7
100
AcDbLine
 10
85.31906524531887
 20
42.04177816015095
 30
0.0
 11
88.81906524531887
 21
42.04177816015095
 31
0.0
  0
ARC
  5
6B
330
1E
100
AcDbEntity
  8
1
 62
     7
100
AcDbCircle
 10
36.19093427150041
 20
43.79177816015095
 30
0.0
 40
1.800000000000011
100
AcDbArc
 50
90.0
 51
226.017036869642
  0
ARC
  5
6C
330
1E
100
AcDbEntity
  8
1
 62
     7
100
AcDbCircle
 10
36.19093427150041
 20
54.79177816015095
 30
0.0
 40
1.799999999999264
100
AcDbArc
 50
180.0
 51
270.0
  0
CIRCLE
  5
6D
330
1E
100
AcDbEntity
  8
1
 62
     7
100
AcDbCircle
 10
36.19093427150041
 20
43.79177816015095
 30
0.0
 40
1.100000000001478
  0
CIRCLE
  5
6E
330
1E
100
AcDbEntity
  8
1
 62
     7
100
AcDbCircle
 10
36.19093427150041
 20
54.79177816015095
 30
0.0
 40
1.099999999995916
  0
POLYLINE
  5
6F
330
1E
100
AcDbEntity
  8
1
 62
     2
100
AcDb2dPolyline
 66
     1
 10
0.0
 20
0.0
 30
0.0
  0
VERTEX
  5
70
330
6F
100
AcDbEntity
  8
1
 62
     2
100
AcDbVertex
100
AcDb2dVertex
 10
85.86906524531874
 20
31.61850050384162
 30
0.0
 42
0.0091404398227604
  0
VERTEX
  5
71
330
6F
100
AcDbEntity
  8
1
 62
     2
100
AcDbVertex
100
AcDb2dVertex
 10
85.91079132825027
 20
31.51135621856701
 30
0.0
 42
0.0106307622000569
  0
VERTEX
  5
72
330
6F
100
AcDbEntity
  8
1
 62
     2
100
AcDbVertex
100
AcDb2dVertex
 10
85.95264963301689
 20
31.41550839129164
 30
0.0
 42
0.0124433988292527
  0
VERTEX
  5
73
330
6F
100
AcDbEntity
  8
1
 62
     2
100
AcDbVertex
100
AcDb2dVertex
 10
85.99463068698524
 20
31.33054492447513
 30
0.0
 42
0.014650542720293
  0
VERTEX
  5
74
330
6F
100
AcDbEntity
  8
1
 62
     2
100
AcDbVertex
100
AcDb2dVertex
 10
86.03672501752198
 20
31.25605372057707
 30
0.0
 42
0.0173284828987117
  0
VERTEX
  5
75
330
6F
100
AcDbEntity
  8
1
 62
     2
100
AcDbVertex
100
AcDb2dVertex
 10
86.07892315199391
 20
31.19162268205707
 30
0.0
 42
0.0205406872170267
  0
VERTEX
  5
76
330
6F
100
AcDbEntity
  8
1
 62
     2
100
AcDbVertex
100
AcDb2dVertex
 10
86.12121561776765
 20
31.13683971137471
 30
0.0
 42
0.0243007363341202
  0
VERTEX
  5
77
330
6F
100
AcDbEntity
  8
1
 62
     2
100
AcDbVertex
100
AcDb2dVertex
 10
86.16359294220995
 20
31.09129271098961
 30
0.0
 42
0.02850521257222
  0
VERTEX
  5
78
330
6F
100
AcDbEntity
  8
1
 62
     2
100
AcDbVertex
100
AcDb2dVertex
 10
86.20604565268747
 20
31.05456958336135
 30
0.0
 42
0.0328402642018828
  0
VERTEX
  5
79
330
6F
100
AcDbEntity
  8
1
 62
     2
100
AcDbVertex
100
AcDb2dVertex
 10
86.24856427656693
 20
31.02625823094957
 30
0.0
 42
0.0367112785275287
  0
VERTEX
  5
7A
330
6F
100
AcDbEntity
  8
1
 62
     2
100
AcDbVertex
100
AcDb2dVertex
 10
86.29113934121503
 20
31.00594655621383
 30
0.0
 42
0.0393125074351513
  0
VERTEX
  5
7B
330
6F
100
AcDbEntity
  8
1
 62
     2
100
AcDbVertex
100
AcDb2dVertex
 10
86.33376137399846
 20
30.99322246161373
 30
0.0
 42
0.039933925329891
  0
VERTEX
  5
7C
330
6F
100
AcDbEntity
  8
1
 62
     2
100
AcDbVertex
100
AcDb2dVertex
 10
86.37642090228395
 20
30.9876738496089
 30
0.0
 42
0.0383681727917872
  0
VERTEX
  5
7D
330
6F
100
AcDbEntity
  8
1
 62
     2
100
AcDbVertex
100
AcDb2dVertex
 10
86.41910845343808
 20
30.98888862265892
 30
0.0
 42
0.0350489609352192
  0
VERTEX
  5
7E
330
6F
100
AcDbEntity
  8
1
 62
     2
100
AcDbVertex
100
AcDb2dVertex
 10
86.46181455482771
 20
30.9964546832234
 30
0.0
 42
0.0307711982621105
  0
VERTEX
  5
7F
330
6F
100
AcDbEntity
  8
1
 62
     2
100
AcDbVertex
100
AcDb2dVertex
 10
86.50452973381945
 20
31.00995993376192
 30
0.0
 42
0.0262840484884092
  0
VERTEX
  5
80
330
6F
100
AcDbEntity
  8
1
 62
     2
100
AcDbVertex
100
AcDb2dVertex
 10
86.54724451778005
 20
31.02899227673411
 30
0.0
 42
0.0220734946828632
  0
VERTEX
  5
81
330
6F
100
AcDbEntity
  8
1
 62
     2
100
AcDbVertex
100
AcDb2dVertex
 10
86.58994943407611
 20
31.05313961459955
 30
0.0
 42
0.0183614677505419
  0
VERTEX
  5
82
330
6F
100
AcDbEntity
  8
1
 62
     2
100
AcDbVertex
100
AcDb2dVertex
 10
86.6326350100744
 20
31.08198984981783
 30
0.0
 42
0.0151953444208102
  0
VERTEX
  5
83
330
6F
100
AcDbEntity
  8
1
 62
     2
100
AcDbVertex
100
AcDb2dVertex
 10
86.67529177314163
 20
31.11513088484858
 30
0.0
 42
0.0125342238912023
  0
VERTEX
  5
84
330
6F
100
AcDbEntity
  8
1
 62
     2
100
AcDbVertex
100
AcDb2dVertex
 10
86.7179102506445
 20
31.15215062215138
 30
0.0
 42
0.01030406737873
  0
VERTEX
  5
85
330
6F
100
AcDbEntity
  8
1
 62
     2
100
AcDbVertex
100
AcDb2dVertex
 10
86.76048096994968
 20
31.19263696418585
 30
0.0
 42
0.0084259172502839
  0
VERTEX
  5
86
330
6F
100
AcDbEntity
  8
1
 62
     2
100
AcDbVertex
100
AcDb2dVertex
 10
86.80299445842384
 20
31.23617781341156
 30
0.0
 42
0.0068277450604214
  0
VERTEX
  5
87
330
6F
100
AcDbEntity
  8
1
 62
     2
100
AcDbVertex
100
AcDb2dVertex
 10
86.84544124343373
 20
31.28236107228812
 30
0.0
 42
0.0054479609529599
  0
VERTEX
  5
88
330
6F
100
AcDbEntity
  8
1
 62
     2
100
AcDbVertex
100
AcDb2dVertex
 10
86.88781185234606
 20
31.33077464327516
 30
0.0
 42
0.0042352142118363
  0
VERTEX
  5
89
330
6F
100
AcDbEntity
  8
1
 62
     2
100
AcDbVertex
100
AcDb2dVertex
 10
86.93009681252746
 20
31.38100642883224
 30
0.0
 42
0.0031467994073418
  0
VERTEX
  5
8A
330
6F
100
AcDbEntity
  8
1
 62
     2
100
AcDbVertex
100
AcDb2dVertex
 10
86.97228665134472
 20
31.43264433141899
 30
0.0
 42
0.0021467046076061
  0
VERTEX
  5
8B
330
6F
100
AcDbEntity
  8
1
 62
     2
100
AcDbVertex
100
AcDb2dVertex
 10
87.01437189616447
 20
31.48527625349498
 30
0.0
 42
0.0012037033698541
  0
VERTEX
  5
8C
330
6F
100
AcDbEntity
  8
1
 62
     2
100
AcDbVertex
100
AcDb2dVertex
 10
87.05634307435342
 20
31.53849009751986
 30
0.0
 42
0.0002895976241755
  0
VERTEX
  5
8D
330
6F
100
AcDbEntity
  8
1
 62
     2
100
AcDbVertex
100
AcDb2dVertex
 10
87.09819071327826
 20
31.59187376595316
 30
0.0
  0
VERTEX
  5
8E
330
6F
100
AcDbEntity
  8
1
 62
     2
100
AcDbVertex
100
AcDb2dVertex
 10
87.11906524531874
 20
31.61850050384162
 30
0.0
 42
-0.0023915554800954
  0
VERTEX
  5
8F
330
6F
100
AcDbEntity
  8
1
 62
     2
100
AcDbVertex
100
AcDb2dVertex
 10
87.17034791150672
 20
31.68335619822259
 30
0.0
 42
-0.0057716831389785
  0
VERTEX
  5
90
330
6F
100
AcDbEntity
  8
1
 62
     2
100
AcDbVertex
100
AcDb2dVertex
 10
87.22191680317486
 20
31.74643081061625
 30
0.0
 42
-0.0094394498753741
  0
VERTEX
  5
91
330
6F
100
AcDbEntity
  8
1
 62
     2
100
AcDbVertex
100
AcDb2dVertex
 10
87.27426650395809
 20
31.80662139141578
 30
0.0
 42
-0.0135288483191886
  0
VERTEX
  5
92
330
6F
100
AcDbEntity
  8
1
 62
     2
100
AcDbVertex
100
AcDb2dVertex
 10
87.32789159749131
 20
31.86282499101431
 30
0.0
 42
-0.0181430124803081
  0
VERTEX
  5
93
330
6F
100
AcDbEntity
  8
1
 62
     2
100
AcDbVertex
100
AcDb2dVertex
 10
87.38328666740954
 20
31.91393865980503
 30
0.0
 42
-0.0232943384536671
  0
VERTEX
  5
94
330
6F
100
AcDbEntity
  8
1
 62
     2
100
AcDbVertex
100
AcDb2dVertex
 10
87.44094629734775
 20
31.95885944818109
 30
0.0
 42
-0.0287976868097198
  0
VERTEX
  5
95
330
6F
100
AcDbEntity
  8
1
 62
     2
100
AcDbVertex
100
AcDb2dVertex
 10
87.50136507094081
 20
31.99648440653565
 30
0.0
 42
-0.0341373683185076
  0
VERTEX
  5
96
330
6F
100
AcDbEntity
  8
1
 62
     2
100
AcDbVertex
100
AcDb2dVertex
 10
87.56503757182377
 20
32.02571058526189
 30
0.0
 42
-0.0384227418862443
  0
VERTEX
  5
97
330
6F
100
AcDbEntity
  8
1
 62
     2
100
AcDbVertex
100
AcDb2dVertex
 10
87.6324583836315
 20
32.04543503475294
 30
0.0
 42
-0.0406326824854685
  0
VERTEX
  5
98
330
6F
100
AcDbEntity
  8
1
 62
     2
100
AcDbVertex
100
AcDb2dVertex
 10
87.70412208999898
 20
32.054554805402
 30
0.0
 42
-0.0313473922324872
  0
VERTEX
  5
99
330
6F
100
AcDbEntity
  8
1
 62
     2
100
AcDbVertex
100
AcDb2dVertex
 10
87.76758427829962
 20
32.05343404467098
 30
0.0
 42
-0.02683726433091
  0
VERTEX
  5
9A
330
6F
100
AcDbEntity
  8
1
 62
     2
100
AcDbVertex
100
AcDb2dVertex
 10
87.83322236026112
 20
32.04469140071451
 30
0.0
 42
-0.0236334119091589
  0
VERTEX
  5
9B
330
6F
100
AcDbEntity
  8
1
 62
     2
100
AcDbVertex
100
AcDb2dVertex
 10
87.89988324148447
 20
32.02893184723723
 30
0.0
 42
-0.0215477940640708
  0
VERTEX
  5
9C
330
6F
100
AcDbEntity
  8
1
 62
     2
100
AcDbVertex
100
AcDb2dVertex
 10
87.96641382757059
 20
32.0067603579438
 30
0.0
 42
-0.0204223406696695
  0
VERTEX
  5
9D
330
6F
100
AcDbEntity
  8
1
 62
     2
100
AcDbVertex
100
AcDb2dVertex
 10
88.03166102412033
 20
31.97878190653887
 30
0.0
 42
-0.0201658910356186
  0
VERTEX
  5
9E
330
6F
100
AcDbEntity
  8
1
 62
     2
100
AcDbVertex
100
AcDb2dVertex
 10
88.09447173673461
 20
31.94560146672705
 30
0.0
 42
-0.0207634326341789
  0
VERTEX
  5
9F
330
6F
100
AcDbEntity
  8
1
 62
     2
100
AcDbVertex
100
AcDb2dVertex
 10
88.15369287101439
 20
31.90782401221298
 30
0.0
 42
-0.0222799036129071
  0
VERTEX
  5
A0
330
6F
100
AcDbEntity
  8
1
 62
     2
100
AcDbVertex
100
AcDb2dVertex
 10
88.20817133256054
 20
31.86605451670134
 30
0.0
 42
-0.0248637633125072
  0
VERTEX
  5
A1
330
6F
100
AcDbEntity
  8
1
 62
     2
100
AcDbVertex
100
AcDb2dVertex
 10
88.25675402697397
 20
31.82089795389673
 30
0.0
 42
-0.0287416370214249
  0
VERTEX
  5
A2
330
6F
100
AcDbEntity
  8
1
 62
     2
100
AcDbVertex
100
AcDb2dVertex
 10
88.29828785985558
 20
31.77295929750382
 30
0.0
 42
-0.0341707986820805
  0
VERTEX
  5
A3
330
6F
100
AcDbEntity
  8
1
 62
     2
100
AcDbVertex
100
AcDb2dVertex
 10
88.33161973680631
 20
31.72284352122724
 30
0.0
 42
-0.0412667769937824
  0
VERTEX
  5
A4
330
6F
100
AcDbEntity
  8
1
 62
     2
100
AcDbVertex
100
AcDb2dVertex
 10
88.35559656342708
 20
31.67115559877162
 30
0.0
 42
-0.0495721346609405
  0
VERTEX
  5
A5
330
6F
100
AcDbEntity
  8
1
 62
     2
100
AcDbVertex
100
AcDb2dVertex
 10
88.36906524531874
 20
31.61850050384162
 30
0.0
 42
-0.0507450928651157
  0
VERTEX
  5
A6
330
6F
100
AcDbEntity
  8
1
 62
     2
100
AcDbVertex
100
AcDb2dVertex
 10
88.37132888844761
 20
31.56749026155293
 30
0.0
 42
-0.0466879395611323
  0
VERTEX
  5
A7
330
6F
100
AcDbEntity
  8
1
 62
     2
100
AcDbVertex
100
AcDb2dVertex
 10
88.36356242962535
 20
31.51655635059098
 30
0.0
 42
-0.0409796587728607
  0
VERTEX
  5
A8
330
6F
100
AcDbEntity
  8
1
 62
     2
100
AcDbVertex
100
AcDb2dVertex
 10
88.34652160628932
 20
31.46611011108519
 30
0.0
 42
-0.0351107946318537
  0
VERTEX
  5
A9
330
6F
100
AcDbEntity
  8
1
 62
     2
100
AcDbVertex
100
AcDb2dVertex
 10
88.32096215587688
 20
31.41656288316488
 30
0.0
 42
-0.0299389794943649
  0
VERTEX
  5
AA
330
6F
100
AcDbEntity
  8
1
 62
     2
100
AcDbVertex
100
AcDb2dVertex
 10
88.28763981582527
 20
31.36832600695941
 30
0.0
 42
-0.0257547293477774
  0
VERTEX
  5
AB
330
6F
100
AcDbEntity
  8
1
 62
     2
100
AcDbVertex
100
AcDb2dVertex
 10
88.24731032357187
 20
31.32181082259818
 30
0.0
 42
-0.0225441345901151
  0
VERTEX
  5
AC
330
6F
100
AcDbEntity
  8
1
 62
     2
100
AcDbVertex
100
AcDb2dVertex
 10
88.20072941655407
 20
31.27742867021051
 30
0.0
 42
-0.0201835706278397
  0
VERTEX
  5
AD
330
6F
100
AcDbEntity
  8
1
 62
     2
100
AcDbVertex
100
AcDb2dVertex
 10
88.14865283220916
 20
31.23559088992581
 30
0.0
 42
-0.0185361585611355
  0
VERTEX
  5
AE
330
6F
100
AcDbEntity
  8
1
 62
     2
100
AcDbVertex
100
AcDb2dVertex
 10
88.09183630797441
 20
31.19670882187342
 30
0.0
 42
-0.0174882808055899
  0
VERTEX
  5
AF
330
6F
100
AcDbEntity
  8
1
 62
     2
100
AcDbVertex
100
AcDb2dVertex
 10
88.03103558128727
 20
31.1611938061827
 30
0.0
 42
-0.0169588892501963
  0
VERTEX
  5
B0
330
6F
100
AcDbEntity
  8
1
 62
     2
100
AcDbVertex
100
AcDb2dVertex
 10
87.96700638958498
 20
31.12945718298303
 30
0.0
 42
-0.0168988431128812
  0
VERTEX
  5
B1
330
6F
100
AcDbEntity
  8
1
 62
     2
100
AcDbVertex
100
AcDb2dVertex
 10
87.90050447030496
 20
31.10191029240375
 30
0.0
 42
-0.0172875666746871
  0
VERTEX
  5
B2
330
6F
100
AcDbEntity
  8
1
 62
     2
100
AcDbVertex
100
AcDb2dVertex
 10
87.83228556088443
 20
31.07896447457425
 30
0.0
 42
-0.0181293767040062
  0
VERTEX
  5
B3
330
6F
100
AcDbEntity
  8
1
 62
     2
100
AcDbVertex
100
AcDb2dVertex
 10
87.76310539876083
 20
31.06103106962389
 30
0.0
 42
-0.0194493631251788
  0
VERTEX
  5
B4
330
6F
100
AcDbEntity
  8
1
 62
     2
100
AcDbVertex
100
AcDb2dVertex
 10
87.69371972137147
 20
31.04852141768203
 30
0.0
 42
-0.0212869681443424
  0
VERTEX
  5
B5
330
6F
100
AcDbEntity
  8
1
 62
     2
100
AcDbVertex
100
AcDb2dVertex
 10
87.62488426615362
 20
31.04184685887802
 30
0.0
 42
-0.023683399081965
  0
VERTEX
  5
B6
330
6F
100
AcDbEntity
  8
1
 62
     2
100
AcDbVertex
100
AcDb2dVertex
 10
87.55735477054468
 20
31.04141873334123
 30
0.0
 42
-0.0266564353012908
  0
VERTEX
  5
B7
330
6F
100
AcDbEntity
  8
1
 62
     2
100
AcDbVertex
100
AcDb2dVertex
 10
87.49188697198198
 20
31.04764838120107
 30
0.0
 42
-0.0301544092735229
  0
VERTEX
  5
B8
330
6F
100
AcDbEntity
  8
1
 62
     2
100
AcDbVertex
100
AcDb2dVertex
 10
87.42923660790285
 20
31.06094714258684
 30
0.0
 42
-0.0339857097725412
  0
VERTEX
  5
B9
330
6F
100
AcDbEntity
  8
1
 62
     2
100
AcDbVertex
100
AcDb2dVertex
 10
87.37015941574457
 20
31.08172635762793
 30
0.0
 42
-0.0377428321106186
  0
VERTEX
  5
BA
330
6F
100
AcDbEntity
  8
1
 62
     2
100
AcDbVertex
100
AcDb2dVertex
 10
87.31541113294454
 20
31.11039736645371
 30
0.0
 42
-0.0407877887838338
  0
VERTEX
  5
BB
330
6F
100
AcDbEntity
  8
1
 62
     2
100
AcDbVertex
100
AcDb2dVertex
 10
87.26574749694009
 20
31.14737150919354
 30
0.0
 42
-0.0423989101506238
  0
VERTEX
  5
BC
330
6F
100
AcDbEntity
  8
1
 62
     2
100
AcDbVertex
100
AcDb2dVertex
 10
87.22192424516851
 20
31.19306012597679
 30
0.0
 42
-0.0420901117500259
  0
VERTEX
  5
BD
330
6F
100
AcDbEntity
  8
1
 62
     2
100
AcDbVertex
100
AcDb2dVertex
 10
87.18469711506719
 20
31.2478745569328
 30
0.0
 42
-0.039893589215669
  0
VERTEX
  5
BE
330
6F
100
AcDbEntity
  8
1
 62
     2
100
AcDbVertex
100
AcDb2dVertex
 10
87.1548218440734
 20
31.31222614219096
 30
0.0
 42
-0.0363371873141424
  0
VERTEX
  5
BF
330
6F
100
AcDbEntity
  8
1
 62
     2
100
AcDbVertex
100
AcDb2dVertex
 10
87.13305416962453
 20
31.38652622188065
 30
0.0
 42
-0.0321395991303211
  0
VERTEX
  5
C0
330
6F
100
AcDbEntity
  8
1
 62
     2
100
AcDbVertex
100
AcDb2dVertex
 10
87.12014982915791
 20
31.47118613613119
 30
0.0
 42
-0.0279054118207254
  0
VERTEX
  5
C1
330
6F
100
AcDbEntity
  8
1
 62
     2
100
AcDbVertex
100
AcDb2dVertex
 10
87.11686456011078
 20
31.56661722507196
 30
0.0
  0
VERTEX
  5
C2
330
6F
100
AcDbEntity
  8
1
 62
     2
100
AcDbVertex
100
AcDb2dVertex
 10
87.11906524531874
 20
31.61850050384162
 30
0.0
  0
SEQEND
  5
C3
330
6F
100
AcDbEntity
  8
1
 62
     2
  0
POLYLINE
  5
C4
330
1E
100
AcDbEntity
  8
1
 62
     2
100
AcDb2dPolyline
 66
     1
 10
0.0
 20
0.0
 30
0.0
  0
VERTEX
  5
C5
330
C4
100
AcDbEntity
  8
1
 62
     2
100
AcDbVertex
100
AcDb2dVertex
 10
28.69093427150044
 20
31.61850050384162
 30
0.0
 42
0.0091404398227904
  0
VERTEX
  5
C6
330
C4
100
AcDbEntity
  8
1
 62
     2
100
AcDbVertex
100
AcDb2dVertex
 10
28.73266035443198
 20
31.51135621856701
 30
0.0
 42
0.0106307622002065
  0
VERTEX
  5
C7
330
C4
100
AcDbEntity
  8
1
 62
     2
100
AcDbVertex
100
AcDb2dVertex
 10
28.77451865919858
 20
31.41550839129164
 30
0.0
 42
0.0124433988290561
  0
VERTEX
  5
C8
330
C4
100
AcDbEntity
  8
1
 62
     2
100
AcDbVertex
100
AcDb2dVertex
 10
28.81649971316692
 20
31.33054492447513
 30
0.0
 42
0.0146505427200799
  0
VERTEX
  5
C9
330
C4
100
AcDbEntity
  8
1
 62
     2
100
AcDbVertex
100
AcDb2dVertex
 10
28.85859404370369
 20
31.25605372057707
 30
0.0
 42
0.0173284828989396
  0
VERTEX
  5
CA
330
C4
100
AcDbEntity
  8
1
 62
     2
100
AcDbVertex
100
AcDb2dVertex
 10
28.9007921781756
 20
31.19162268205707
 30
0.0
 42
0.0205406872169058
  0
VERTEX
  5
CB
330
C4
100
AcDbEntity
  8
1
 62
     2
100
AcDbVertex
100
AcDb2dVertex
 10
28.94308464394936
 20
31.13683971137471
 30
0.0
 42
0.0243007363340374
  0
VERTEX
  5
CC
330
C4
100
AcDbEntity
  8
1
 62
     2
100
AcDbVertex
100
AcDb2dVertex
 10
28.98546196839165
 20
31.09129271098961
 30
0.0
 42
0.0285052125725107
  0
VERTEX
  5
CD
330
C4
100
AcDbEntity
  8
1
 62
     2
100
AcDbVertex
100
AcDb2dVertex
 10
29.02791467886918
 20
31.05456958336135
 30
0.0
 42
0.0328402642020832
  0
VERTEX
  5
CE
330
C4
100
AcDbEntity
  8
1
 62
     2
100
AcDbVertex
100
AcDb2dVertex
 10
29.07043330274864
 20
31.02625823094957
 30
0.0
 42
0.0367112785275934
  0
VERTEX
  5
CF
330
C4
100
AcDbEntity
  8
1
 62
     2
100
AcDbVertex
100
AcDb2dVertex
 10
29.11300836739673
 20
31.00594655621383
 30
0.0
 42
0.0393125074354112
  0
VERTEX
  5
D0
330
C4
100
AcDbEntity
  8
1
 62
     2
100
AcDbVertex
100
AcDb2dVertex
 10
29.15563040018016
 20
30.99322246161373
 30
0.0
 42
0.0399339253299143
  0
VERTEX
  5
D1
330
C4
100
AcDbEntity
  8
1
 62
     2
100
AcDbVertex
100
AcDb2dVertex
 10
29.19828992846562
 20
30.9876738496089
 30
0.0
 42
0.0383681727917751
  0
VERTEX
  5
D2
330
C4
100
AcDbEntity
  8
1
 62
     2
100
AcDbVertex
100
AcDb2dVertex
 10
29.2409774796198
 20
30.98888862265892
 30
0.0
 42
0.0350489609351502
  0
VERTEX
  5
D3
330
C4
100
AcDbEntity
  8
1
 62
     2
100
AcDbVertex
100
AcDb2dVertex
 10
29.28368358100941
 20
30.9964546832234
 30
0.0
 42
0.0307711982621974
  0
VERTEX
  5
D4
330
C4
100
AcDbEntity
  8
1
 62
     2
100
AcDbVertex
100
AcDb2dVertex
 10
29.32639876000115
 20
31.00995993376192
 30
0.0
 42
0.0262840484887369
  0
VERTEX
  5
D5
330
C4
100
AcDbEntity
  8
1
 62
     2
100
AcDbVertex
100
AcDb2dVertex
 10
29.36911354396172
 20
31.02899227673411
 30
0.0
 42
0.0220734946829661
  0
VERTEX
  5
D6
330
C4
100
AcDbEntity
  8
1
 62
     2
100
AcDbVertex
100
AcDb2dVertex
 10
29.4118184602578
 20
31.05313961459955
 30
0.0
 42
0.0183614677510727
  0
VERTEX
  5
D7
330
C4
100
AcDbEntity
  8
1
 62
     2
100
AcDbVertex
100
AcDb2dVertex
 10
29.4545040362561
 20
31.08198984981783
 30
0.0
 42
0.01519534442037
  0
VERTEX
  5
D8
330
C4
100
AcDbEntity
  8
1
 62
     2
100
AcDbVertex
100
AcDb2dVertex
 10
29.49716079932334
 20
31.11513088484858
 30
0.0
 42
0.0125342238912439
  0
VERTEX
  5
D9
330
C4
100
AcDbEntity
  8
1
 62
     2
100
AcDbVertex
100
AcDb2dVertex
 10
29.5397792768262
 20
31.15215062215138
 30
0.0
 42
0.0103040673790214
  0
VERTEX
  5
DA
330
C4
100
AcDbEntity
  8
1
 62
     2
100
AcDbVertex
100
AcDb2dVertex
 10
29.58234999613137
 20
31.19263696418585
 30
0.0
 42
0.0084259172505762
  0
VERTEX
  5
DB
330
C4
100
AcDbEntity
  8
1
 62
     2
100
AcDbVertex
100
AcDb2dVertex
 10
29.62486348460555
 20
31.23617781341156
 30
0.0
 42
0.00682774506063
  0
VERTEX
  5
DC
330
C4
100
AcDbEntity
  8
1
 62
     2
100
AcDbVertex
100
AcDb2dVertex
 10
29.66731026961545
 20
31.28236107228812
 30
0.0
 42
0.0054479609533342
  0
VERTEX
  5
DD
330
C4
100
AcDbEntity
  8
1
 62
     2
100
AcDbVertex
100
AcDb2dVertex
 10
29.70968087852776
 20
31.33077464327516
 30
0.0
 42
0.0042352142119193
  0
VERTEX
  5
DE
330
C4
100
AcDbEntity
  8
1
 62
     2
100
AcDbVertex
100
AcDb2dVertex
 10
29.75196583870918
 20
31.38100642883224
 30
0.0
 42
0.0031467994072591
  0
VERTEX
  5
DF
330
C4
100
AcDbEntity
  8
1
 62
     2
100
AcDbVertex
100
AcDb2dVertex
 10
29.79415567752641
 20
31.43264433141899
 30
0.0
 42
0.0021467046077297
  0
VERTEX
  5
E0
330
C4
100
AcDbEntity
  8
1
 62
     2
100
AcDbVertex
100
AcDb2dVertex
 10
29.83624092234615
 20
31.48527625349498
 30
0.0
 42
0.0012037033701422
  0
VERTEX
  5
E1
330
C4
100
AcDbEntity
  8
1
 62
     2
100
AcDbVertex
100
AcDb2dVertex
 10
29.87821210053511
 20
31.53849009751986
 30
0.0
 42
0.0002895976241755
  0
VERTEX
  5
E2
330
C4
100
AcDbEntity
  8
1
 62
     2
100
AcDbVertex
100
AcDb2dVertex
 10
29.92005973945996
 20
31.59187376595316
 30
0.0
  0
VERTEX
  5
E3
330
C4
100
AcDbEntity
  8
1
 62
     2
100
AcDbVertex
100
AcDb2dVertex
 10
29.94093427150044
 20
31.61850050384162
 30
0.0
 42
-0.0023915554803312
  0
VERTEX
  5
E4
330
C4
100
AcDbEntity
  8
1
 62
     2
100
AcDbVertex
100
AcDb2dVertex
 10
29.99221693768843
 20
31.68335619822259
 30
0.0
 42
-0.0057716831388435
  0
VERTEX
  5
E5
330
C4
100
AcDbEntity
  8
1
 62
     2
100
AcDbVertex
100
AcDb2dVertex
 10
30.04378582935657
 20
31.74643081061625
 30
0.0
 42
-0.0094394498753069
  0
VERTEX
  5
E6
330
C4
100
AcDbEntity
  8
1
 62
     2
100
AcDbVertex
100
AcDb2dVertex
 10
30.09613553013978
 20
31.80662139141578
 30
0.0
 42
-0.0135288483190217
  0
VERTEX
  5
E7
330
C4
100
AcDbEntity
  8
1
 62
     2
100
AcDbVertex
100
AcDb2dVertex
 10
30.14976062367304
 20
31.86282499101431
 30
0.0
 42
-0.0181430124807597
  0
VERTEX
  5
E8
330
C4
100
AcDbEntity
  8
1
 62
     2
100
AcDbVertex
100
AcDb2dVertex
 10
30.20515569359128
 20
31.91393865980503
 30
0.0
 42
-0.0232943384537904
  0
VERTEX
  5
E9
330
C4
100
AcDbEntity
  8
1
 62
     2
100
AcDbVertex
100
AcDb2dVertex
 10
30.26281532352946
 20
31.95885944818109
 30
0.0
 42
-0.0287976868099591
  0
VERTEX
  5
EA
330
C4
100
AcDbEntity
  8
1
 62
     2
100
AcDbVertex
100
AcDb2dVertex
 10
30.32323409712254
 20
31.99648440653565
 30
0.0
 42
-0.0341373683185165
  0
VERTEX
  5
EB
330
C4
100
AcDbEntity
  8
1
 62
     2
100
AcDbVertex
100
AcDb2dVertex
 10
30.38690659800546
 20
32.02571058526189
 30
0.0
 42
-0.0384227418861659
  0
VERTEX
  5
EC
330
C4
100
AcDbEntity
  8
1
 62
     2
100
AcDbVertex
100
AcDb2dVertex
 10
30.45432740981321
 20
32.04543503475294
 30
0.0
 42
-0.0406326824854912
  0
VERTEX
  5
ED
330
C4
100
AcDbEntity
  8
1
 62
     2
100
AcDbVertex
100
AcDb2dVertex
 10
30.5259911161807
 20
32.054554805402
 30
0.0
 42
-0.0313473922324939
  0
VERTEX
  5
EE
330
C4
100
AcDbEntity
  8
1
 62
     2
100
AcDbVertex
100
AcDb2dVertex
 10
30.58945330448131
 20
32.05343404467098
 30
0.0
 42
-0.0268372643309741
  0
VERTEX
  5
EF
330
C4
100
AcDbEntity
  8
1
 62
     2
100
AcDbVertex
100
AcDb2dVertex
 10
30.65509138644282
 20
32.04469140071451
 30
0.0
 42
-0.0236334119091976
  0
VERTEX
  5
F0
330
C4
100
AcDbEntity
  8
1
 62
     2
100
AcDbVertex
100
AcDb2dVertex
 10
30.72175226766619
 20
32.02893184723723
 30
0.0
 42
-0.0215477940641368
  0
VERTEX
  5
F1
330
C4
100
AcDbEntity
  8
1
 62
     2
100
AcDbVertex
100
AcDb2dVertex
 10
30.78828285375228
 20
32.0067603579438
 30
0.0
 42
-0.0204223406696856
  0
VERTEX
  5
F2
330
C4
100
AcDbEntity
  8
1
 62
     2
100
AcDbVertex
100
AcDb2dVertex
 10
30.85353005030203
 20
31.97878190653887
 30
0.0
 42
-0.0201658910357297
  0
VERTEX
  5
F3
330
C4
100
AcDbEntity
  8
1
 62
     2
100
AcDbVertex
100
AcDb2dVertex
 10
30.91634076291632
 20
31.94560146672705
 30
0.0
 42
-0.0207634326340783
  0
VERTEX
  5
F4
330
C4
100
AcDbEntity
  8
1
 62
     2
100
AcDbVertex
100
AcDb2dVertex
 10
30.97556189719608
 20
31.90782401221298
 30
0.0
 42
-0.0222799036130821
  0
VERTEX
  5
F5
330
C4
100
AcDbEntity
  8
1
 62
     2
100
AcDbVertex
100
AcDb2dVertex
 10
31.03004035874223
 20
31.86605451670134
 30
0.0
 42
-0.0248637633126502
  0
VERTEX
  5
F6
330
C4
100
AcDbEntity
  8
1
 62
     2
100
AcDbVertex
100
AcDb2dVertex
 10
31.07862305315567
 20
31.82089795389673
 30
0.0
 42
-0.0287416370211776
  0
VERTEX
  5
F7
330
C4
100
AcDbEntity
  8
1
 62
     2
100
AcDbVertex
100
AcDb2dVertex
 10
31.12015688603729
 20
31.77295929750382
 30
0.0
 42
-0.0341707986822731
  0
VERTEX
  5
F8
330
C4
100
AcDbEntity
  8
1
 62
     2
100
AcDbVertex
100
AcDb2dVertex
 10
31.15348876298801
 20
31.72284352122724
 30
0.0
 42
-0.0412667769938876
  0
VERTEX
  5
F9
330
C4
100
AcDbEntity
  8
1
 62
     2
100
AcDbVertex
100
AcDb2dVertex
 10
31.17746558960877
 20
31.67115559877162
 30
0.0
 42
-0.0495721346609468
  0
VERTEX
  5
FA
330
C4
100
AcDbEntity
  8
1
 62
     2
100
AcDbVertex
100
AcDb2dVertex
 10
31.19093427150044
 20
31.61850050384162
 30
0.0
 42
-0.0507450928655968
  0
VERTEX
  5
FB
330
C4
100
AcDbEntity
  8
1
 62
     2
100
AcDbVertex
100
AcDb2dVertex
 10
31.1931979146293
 20
31.56749026155293
 30
0.0
 42
-0.0466879395612031
  0
VERTEX
  5
FC
330
C4
100
AcDbEntity
  8
1
 62
     2
100
AcDbVertex
100
AcDb2dVertex
 10
31.18543145580707
 20
31.51655635059098
 30
0.0
 42
-0.0409796587720898
  0
VERTEX
  5
FD
330
C4
100
AcDbEntity
  8
1
 62
     2
100
AcDbVertex
100
AcDb2dVertex
 10
31.16839063247105
 20
31.46611011108519
 30
0.0
 42
-0.0351107946310954
  0
VERTEX
  5
FE
330
C4
100
AcDbEntity
  8
1
 62
     2
100
AcDbVertex
100
AcDb2dVertex
 10
31.14283118205857
 20
31.41656288316488
 30
0.0
 42
-0.029938979493947
  0
VERTEX
  5
FF
330
C4
100
AcDbEntity
  8
1
 62
     2
100
AcDbVertex
100
AcDb2dVertex
 10
31.10950884200697
 20
31.36832600695941
 30
0.0
 42
-0.0257547293479199
  0
VERTEX
  5
100
330
C4
100
AcDbEntity
  8
1
 62
     2
100
AcDbVertex
100
AcDb2dVertex
 10
31.0691793497536
 20
31.32181082259818
 30
0.0
 42
-0.0225441345901911
  0
VERTEX
  5
101
330
C4
100
AcDbEntity
  8
1
 62
     2
100
AcDbVertex
100
AcDb2dVertex
 10
31.02259844273578
 20
31.27742867021051
 30
0.0
 42
-0.0201835706278352
  0
VERTEX
  5
102
330
C4
100
AcDbEntity
  8
1
 62
     2
100
AcDbVertex
100
AcDb2dVertex
 10
30.97052185839085
 20
31.23559088992581
 30
0.0
 42
-0.0185361585610792
  0
VERTEX
  5
103
330
C4
100
AcDbEntity
  8
1
 62
     2
100
AcDbVertex
100
AcDb2dVertex
 10
30.91370533415612
 20
31.19670882187342
 30
0.0
 42
-0.0174882808056663
  0
VERTEX
  5
104
330
C4
100
AcDbEntity
  8
1
 62
     2
100
AcDbVertex
100
AcDb2dVertex
 10
30.85290460746897
 20
31.1611938061827
 30
0.0
 42
-0.0169588892501537
  0
VERTEX
  5
105
330
C4
100
AcDbEntity
  8
1
 62
     2
100
AcDbVertex
100
AcDb2dVertex
 10
30.78887541576669
 20
31.12945718298303
 30
0.0
 42
-0.0168988431128938
  0
VERTEX
  5
106
330
C4
100
AcDbEntity
  8
1
 62
     2
100
AcDbVertex
100
AcDb2dVertex
 10
30.72237349648665
 20
31.10191029240375
 30
0.0
 42
-0.0172875666748901
  0
VERTEX
  5
107
330
C4
100
AcDbEntity
  8
1
 62
     2
100
AcDbVertex
100
AcDb2dVertex
 10
30.65415458706615
 20
31.07896447457425
 30
0.0
 42
-0.0181293767040078
  0
VERTEX
  5
108
330
C4
100
AcDbEntity
  8
1
 62
     2
100
AcDbVertex
100
AcDb2dVertex
 10
30.58497442494254
 20
31.06103106962389
 30
0.0
 42
-0.0194493631252826
  0
VERTEX
  5
109
330
C4
100
AcDbEntity
  8
1
 62
     2
100
AcDbVertex
100
AcDb2dVertex
 10
30.51558874755315
 20
31.04852141768203
 30
0.0
 42
-0.0212869681443084
  0
VERTEX
  5
10A
330
C4
100
AcDbEntity
  8
1
 62
     2
100
AcDbVertex
100
AcDb2dVertex
 10
30.44675329233533
 20
31.04184685887802
 30
0.0
 42
-0.0236833990819615
  0
VERTEX
  5
10B
330
C4
100
AcDbEntity
  8
1
 62
     2
100
AcDbVertex
100
AcDb2dVertex
 10
30.3792237967264
 20
31.04141873334123
 30
0.0
 42
-0.0266564353012981
  0
VERTEX
  5
10C
330
C4
100
AcDbEntity
  8
1
 62
     2
100
AcDbVertex
100
AcDb2dVertex
 10
30.31375599816369
 20
31.04764838120107
 30
0.0
 42
-0.0301544092735621
  0
VERTEX
  5
10D
330
C4
100
AcDbEntity
  8
1
 62
     2
100
AcDbVertex
100
AcDb2dVertex
 10
30.25110563408453
 20
31.06094714258684
 30
0.0
 42
-0.0339857097726988
  0
VERTEX
  5
10E
330
C4
100
AcDbEntity
  8
1
 62
     2
100
AcDbVertex
100
AcDb2dVertex
 10
30.19202844192628
 20
31.08172635762793
 30
0.0
 42
-0.0377428321107131
  0
VERTEX
  5
10F
330
C4
100
AcDbEntity
  8
1
 62
     2
100
AcDbVertex
100
AcDb2dVertex
 10
30.13728015912626
 20
31.11039736645371
 30
0.0
 42
-0.0407877887840852
  0
VERTEX
  5
110
330
C4
100
AcDbEntity
  8
1
 62
     2
100
AcDbVertex
100
AcDb2dVertex
 10
30.08761652312179
 20
31.14737150919354
 30
0.0
 42
-0.0423989101509414
  0
VERTEX
  5
111
330
C4
100
AcDbEntity
  8
1
 62
     2
100
AcDbVertex
100
AcDb2dVertex
 10
30.04379327135021
 20
31.19306012597679
 30
0.0
 42
-0.0420901117500672
  0
VERTEX
  5
112
330
C4
100
AcDbEntity
  8
1
 62
     2
100
AcDbVertex
100
AcDb2dVertex
 10
30.00656614124888
 20
31.2478745569328
 30
0.0
 42
-0.0398935892156691
  0
VERTEX
  5
113
330
C4
100
AcDbEntity
  8
1
 62
     2
100
AcDbVertex
100
AcDb2dVertex
 10
29.9766908702551
 20
31.31222614219096
 30
0.0
 42
-0.0363371873140105
  0
VERTEX
  5
114
330
C4
100
AcDbEntity
  8
1
 62
     2
100
AcDbVertex
100
AcDb2dVertex
 10
29.95492319580622
 20
31.38652622188065
 30
0.0
 42
-0.03213959912999
  0
VERTEX
  5
115
330
C4
100
AcDbEntity
  8
1
 62
     2
100
AcDbVertex
100
AcDb2dVertex
 10
29.94201885533957
 20
31.47118613613119
 30
0.0
 42
-0.0279054118206803
  0
VERTEX
  5
116
330
C4
100
AcDbEntity
  8
1
 62
     2
100
AcDbVertex
100
AcDb2dVertex
 10
29.93873358629248
 20
31.56661722507196
 30
0.0
  0
VERTEX
  5
117
330
C4
100
AcDbEntity
  8
1
 62
     2
100
AcDbVertex
100
AcDb2dVertex
 10
29.94093427150044
 20
31.61850050384162
 30
0.0
  0
SEQEND
  5
118
330
C4
100
AcDbEntity
  8
1
 62
     2
  0
LINE
  5
119
330
1E
100
AcDbEntity
  8
1
  6
DASHED
 62
     2
100
AcDbLine
 10
85.31906524531887
 20
50.29177816015096
 30
0.0
 11
75.92831967141179
 21
50.29177816015096
 31
0.0
  0
SOLID
  5
11A
330
1E
100
AcDbEntity
  8
1
  6
DASHED
 62
     2
100
AcDbTrace
 10
79.4283196714118
 20
50.75256190170684
 30
0.0
 11
79.4283196714118
 21
49.83099441859508
 31
0.0
 12
75.92831967141179
 22
50.29177816015096
 32
0.0
 13
75.92831967141179
 23
50.29177816015096
 33
0.0
  0
LINE
  5
11B
330
1E
100
AcDbEntity
  8
1
  6
DASHED
 62
     2
100
AcDbLine
 10
30.94093427150042
 20
93.03134267860899
 30
0.0
 11
30.94093427150042
 21
84.4362508626804
 31
0.0
  0
SOLID
  5
11C
330
1E
100
AcDbEntity
  8
1
  6
DASHED
 62
     2
100
AcDbTrace
 10
30.48015052994454
 20
87.9362508626804
 30
0.0
 11
31.4017180130563
 21
87.9362508626804
 31
0.0
 12
30.94093427150042
 22
84.4362508626804
 32
0.0
 13
30.94093427150042
 23
84.4362508626804
 33
0.0
  0
TEXT
  5
11D
330
1E
100
AcDbEntity
  8
1
 62
     2
100
AcDbText
 10
100.8502792815105
 20
-74.36420255827215
 30
0.0
 40
4.0
  1
SUNX Ltd.
 41
0.9
 11
100.8502792815105
 21
-72.36420255827216
 31
0.0
100
AcDbText
 73
     2
  0
TEXT
  5
11E
330
1E
100
AcDbEntity
  8
1
 62
     2
100
AcDbText
 10
58.56050081232213
 20
-70.9188752318225
 30
0.0
 40
2.0
  1
Scale;
 41
0.9
 11
58.56050081232213
 21
-69.91887523182249
 31
0.0
100
AcDbText
 73
     2
  0
TEXT
  5
11F
330
1E
100
AcDbEntity
  8
1
 62
     2
100
AcDbText
 10
58.99202916404854
 20
-50.63704270068111
 30
0.0
 40
2.0
  1
Type;
 41
0.9
 11
58.99202916404854
 21
-49.63704270068111
 31
0.0
100
AcDbText
 73
     2
  0
TEXT
  5
120
330
1E
100
AcDbEntity
  8
1
 62
     2
100
AcDbText
 10
58.41665802841334
 20
-60.5621947903886
 30
0.0
 40
2.0
  1
Model name;
 41
0.9
 11
58.41665802841334
 21
-59.5621947903886
 31
0.0
100
AcDbText
 73
     2
  0
TEXT
  5
121
330
1E
100
AcDbEntity
  8
1
 62
     2
100
AcDbText
 10
74.9585781779258
 20
-73.82651699045455
 30
0.0
 40
3.5
  1
1.0
 41
0.9
 11
74.9585781779258
 21
-72.07651699045455
 31
0.0
100
AcDbText
 73
     2
  0
TEXT
  5
124
330
1E
100
AcDbEntity
  8
1
 62
     3
100
AcDbText
 10
30.0399742440465
 20
46.37832942826839
 30
0.0
 40
0.3
  1
EX-14A(-R)
 41
0.9
100
AcDbText
  0
TEXT
  5
125
330
1E
100
AcDbEntity
  8
1
 62
     3
100
AcDbText
 10
30.0399742440465
 20
45.7183294282684
 30
0.0
 40
0.3
  1
EX-14B(-R)
 41
0.9
100
AcDbText
  0
TEXT
  5
128
330
1E
100
AcDbEntity
  8
1
 62
     3
100
AcDbText
 10
88.44263366912009
 20
-53.8407251111527
 30
0.0
 40
4.0
  1
Beam Sensor
 41
0.9
100
AcDbText
  0
TEXT
  5
129
330
1E
100
AcDbEntity
  8
1
 62
     3
100
AcDbText
 10
80.78306964385387
 20
-64.1559632751974
 30
0.0
 40
4.0
  1
EX-14A(-R),EX-14B(-R)
 41
0.9
100
AcDbText
  0
TEXT
  5
165
330
1E
100
AcDbEntity
  8
1
 62
     3
100
AcDbText
 10
85.93906805547311
 20
49.83276402545737
 30
0.0
 40
0.3
  1
EX-14B(-R)
 41
0.9
100
AcDbText
  0
TEXT
  5
166
330
1E
100
AcDbEntity
  8
1
 62
     3
100
AcDbText
 10
85.93906805547311
 20
50.49276402545736
 30
0.0
 40
0.3
  1
EX-14A(-R)
 41
0.9
100
AcDbText
  0
TEXT
  5
16D
330
1E
100
AcDbEntity
  8
1
 62
     3
100
AcDbText
 10
27.13690820562288
 20
94.19301376144078
 30
0.0
 40
0.3
  1
EX-14B(-R)
 41
0.9
100
AcDbText
  0
TEXT
  5
16E
330
1E
100
AcDbEntity
  8
1
 62
     3
100
AcDbText
 10
27.13690820562288
 20
94.85301376144077
 30
0.0
 40
0.3
  1
EX-14A(-R)
 41
0.9
100
AcDbText
  0
ENDSEC
  0
SECTION
  2
OBJECTS
  0
DICTIONARY
  5
C
330
0
100
AcDbDictionary
  3
ACAD_GROUP
350
D
  3
ACAD_MLINESTYLE
350
16
  3
ACAD_PLOTSETTINGS
350
18
  3
ACAD_LAYOUT
350
19
  3
AMG
350
12C
  3
ACMDICTIONARY
350
144
  3
DWGPROPS
350
147
  3
AMGSNAPSETTINGS
350
157
1001
ACAD
1000
TREAT_AS_HARD
1070
     0
  0
DICTIONARY
  5
16F
330
1E
100
AcDbDictionary
  3
ACAD_INDEX
350
170
  3
ACAD_LAYOUTSELFREF
350
177
1001
ACAD
1000
TREAT_AS_HARD
1070
     1
  0
DICTIONARY
  5
175
330
1A
100
AcDbDictionary
  3
ACAD_LAYOUTSELFREF
350
176
  0
DICTIONARY
  5
D
102
{ACAD_REACTORS
330
C
102
}
330
C
100
AcDbDictionary
1001
ACAD
1000
TREAT_AS_HARD
1070
     0
  0
DICTIONARY
  5
16
102
{ACAD_REACTORS
330
C
102
}
330
C
100
AcDbDictionary
  3
STANDARD
350
17
1001
ACAD
1000
TREAT_AS_HARD
1070
     0
  0
DICTIONARY
  5
18
102
{ACAD_REACTORS
330
C
102
}
330
C
100
AcDbDictionary
1001
ACAD
1000
TREAT_AS_HARD
1070
     0
  0
DICTIONARY
  5
19
102
{ACAD_REACTORS
330
C
102
}
330
C
100
AcDbDictionary
1001
ACAD
1000
TREAT_AS_HARD
1070
     0
  0
DICTIONARY
  5
12C
102
{ACAD_REACTORS
330
C
102
}
330
C
100
AcDbDictionary
  3
ACMGSETTINGS
350
12D
1001
ACAD
1000
TREAT_AS_HARD
1070
     0
  0
DICTIONARY
  5
144
102
{ACAD_REACTORS
330
C
102
}
330
C
100
AcDbDictionary
1001
ACAD
1000
TREAT_AS_HARD
1070
     0
  0
XRECORD
  5
147
102
{ACAD_REACTORS
330
C
102
}
330
C
100
AcDbXrecord
  1
DWGPROPS COOKIE
  2

  3

  4

  6

  7

  8

  9

300
AmdtFileType=82
301
=
302
=
303
=
304
=
305
=
306
=
307
=
308
=
309
=
 40
0.0000021990740741
 41
2452598.455770995
 42
2311994.355721794
  1

 90
        1
  0
DICTIONARY
  5
157
102
{ACAD_REACTORS
330
C
102
}
330
C
100
AcDbDictionary
1001
ACAD
1000
TREAT_AS_HARD
1070
     0
  0
DICTIONARY
  5
170
102
{ACAD_REACTORS
330
16F
102
}
330
16F
100
AcDbDictionary
  3
*A1
350
171
1001
ACAD
1000
TREAT_AS_HARD
1070
     0
  0
XRECORD
  5
177
102
{ACAD_REACTORS
330
16F
102
}
330
16F
100
AcDbXrecord
340
1E
  0
XRECORD
  5
176
102
{ACAD_REACTORS
330
175
102
}
330
175
100
AcDbXrecord
340
1A
  0
MLINESTYLE
  5
17
102
{ACAD_REACTORS
330
16
102
}
330
16
100
AcDbMlineStyle
  2
STANDARD
 70
     0
  3

 62
   256
 51
90.0
 52
90.0
 71
     2
 49
0.5
 62
   256
  6
BYLAYER
 49
-0.5
 62
   256
  6
BYLAYER
  0
DICTIONARY
  5
12D
102
{ACAD_REACTORS
330
12C
102
}
330
12C
100
AcDbDictionary
  3
DWGSETTINGS
350
12E
1001
ACAD
1000
TREAT_AS_HARD
1070
     0
  0
LAYER_INDEX
  5
171
102
{ACAD_REACTORS
330
170
102
}
330
170
100
AcDbIndex
 40
2452598.456692222
100
AcDbLayerIndex
  8
0
360
172
 90
        0
  8
1
360
173
 90
       79
  0
XRECORD
  5
12E
102
{ACAD_REACTORS
330
12D
102
}
330
12D
100
AcDbXrecord
  1
VERSION
140
15.0
  1
PRODUCT
  2
AutoCAD Mechanical 2000
  0
IDBUFFER
  5
172
330
0
100
AcDbIdBuffer
  0
IDBUFFER
  5
173
330
0
100
AcDbIdBuffer
330
63
330
64
330
65
330
66
330
67
330
68
330
69
330
6A
330
6B
330
6C
330
6D
330
6E
330
6F
330
C4
330
119
330
11A
330
11B
330
11C
330
11D
330
11E
330
11F
330
120
330
121
330
124
330
125
330
128
330
129
330
165
330
166
330
16D
330
16E
330
33
330
34
330
35
330
36
330
37
330
38
330
39
330
3A
330
3B
330
3C
330
3D
330
3E
330
3F
330
40
330
41
330
42
330
43
330
44
330
45
330
46
330
47
330
48
330
49
330
4A
330
4B
330
4C
330
4D
330
4E
330
4F
330
50
330
51
330
52
330
53
330
54
330
55
330
56
330
57
330
58
330
59
330
5A
330
5B
330
5C
330
5D
330
5E
330
5F
330
60
330
61
330
62
  0
ENDSEC
  0
EOF
