ISO-10303-21;
HEADER;
FILE_DESCRIPTION (( 'STEP AP203' ),
    '1' );
FILE_NAME ('EX-14A.STEP',
    '2005-09-05T07:26:28',
    ( 'êÏìáó«âp' ),
    ( ' ' ),
    'SwSTEP 2.0',
    'SolidWorks 2004251',
    '' );
FILE_SCHEMA (( 'CONFIG_CONTROL_DESIGN' ));
ENDSEC;

DATA;
#1 = EDGE_LOOP ( 'NONE', ( #71, #75, #224, #227 ) ) ;
#2 = ADVANCED_FACE ( 'NONE', ( #432 ), #429, .T. ) ;
#3 = ORIENTED_EDGE ( 'NONE', *, *, #4, .T. ) ;
#4 = EDGE_CURVE ( 'NONE', #26, #28, #430, .T. ) ;
#5 = EDGE_LOOP ( 'NONE', ( #178, #180 ) ) ;
#6 = EDGE_LOOP ( 'NONE', ( #11, #105 ) ) ;
#7 = VERTEX_POINT ( 'NONE', #518 ) ;
#8 = EDGE_CURVE ( 'NONE', #7, #194, #517, .T. ) ;
#9 = ORIENTED_EDGE ( 'NONE', *, *, #8, .F. ) ;
#10 = EDGE_CURVE ( 'NONE', #7, #190, #513, .T. ) ;
#11 = ORIENTED_EDGE ( 'NONE', *, *, #13, .F. ) ;
#12 = ORIENTED_EDGE ( 'NONE', *, *, #10, .T. ) ;
#13 = EDGE_CURVE ( 'NONE', #226, #223, #509, .T. ) ;
#14 = VERTEX_POINT ( 'NONE', #490 ) ;
#15 = ORIENTED_EDGE ( 'NONE', *, *, #16, .T. ) ;
#16 = EDGE_CURVE ( 'NONE', #14, #17, #489, .T. ) ;
#17 = VERTEX_POINT ( 'NONE', #485 ) ;
#18 = ORIENTED_EDGE ( 'NONE', *, *, #19, .T. ) ;
#19 = EDGE_CURVE ( 'NONE', #17, #20, #484, .T. ) ;
#20 = VERTEX_POINT ( 'NONE', #480 ) ;
#21 = ORIENTED_EDGE ( 'NONE', *, *, #22, .T. ) ;
#22 = EDGE_CURVE ( 'NONE', #20, #23, #479, .T. ) ;
#23 = VERTEX_POINT ( 'NONE', #475 ) ;
#24 = ORIENTED_EDGE ( 'NONE', *, *, #25, .T. ) ;
#25 = EDGE_CURVE ( 'NONE', #23, #26, #474, .T. ) ;
#26 = VERTEX_POINT ( 'NONE', #470 ) ;
#27 = VERTEX_POINT ( 'NONE', #469 ) ;
#28 = VERTEX_POINT ( 'NONE', #468 ) ;
#29 = ORIENTED_EDGE ( 'NONE', *, *, #30, .F. ) ;
#30 = EDGE_CURVE ( 'NONE', #31, #27, #467, .T. ) ;
#31 = VERTEX_POINT ( 'NONE', #462 ) ;
#32 = VERTEX_POINT ( 'NONE', #461 ) ;
#33 = ORIENTED_EDGE ( 'NONE', *, *, #106, .F. ) ;
#34 = ORIENTED_EDGE ( 'NONE', *, *, #35, .T. ) ;
#35 = EDGE_CURVE ( 'NONE', #32, #45, #506, .T. ) ;
#36 = ORIENTED_EDGE ( 'NONE', *, *, #37, .T. ) ;
#37 = EDGE_CURVE ( 'NONE', #45, #38, #502, .T. ) ;
#38 = VERTEX_POINT ( 'NONE', #498 ) ;
#39 = ORIENTED_EDGE ( 'NONE', *, *, #40, .F. ) ;
#40 = EDGE_CURVE ( 'NONE', #44, #38, #497, .T. ) ;
#41 = ADVANCED_FACE ( 'NONE', ( #493 ), #594, .F. ) ;
#42 = EDGE_LOOP ( 'NONE', ( #43, #60, #62, #63 ) ) ;
#43 = ORIENTED_EDGE ( 'NONE', *, *, #204, .F. ) ;
#44 = VERTEX_POINT ( 'NONE', #589 ) ;
#45 = VERTEX_POINT ( 'NONE', #588 ) ;
#46 = ORIENTED_EDGE ( 'NONE', *, *, #47, .F. ) ;
#47 = EDGE_CURVE ( 'NONE', #48, #31, #587, .T. ) ;
#48 = VERTEX_POINT ( 'NONE', #583 ) ;
#49 = ORIENTED_EDGE ( 'NONE', *, *, #50, .T. ) ;
#50 = EDGE_CURVE ( 'NONE', #48, #51, #582, .T. ) ;
#51 = VERTEX_POINT ( 'NONE', #578 ) ;
#52 = ORIENTED_EDGE ( 'NONE', *, *, #53, .F. ) ;
#53 = EDGE_CURVE ( 'NONE', #54, #51, #577, .T. ) ;
#54 = VERTEX_POINT ( 'NONE', #573 ) ;
#55 = ORIENTED_EDGE ( 'NONE', *, *, #56, .F. ) ;
#56 = EDGE_CURVE ( 'NONE', #57, #54, #572, .T. ) ;
#57 = VERTEX_POINT ( 'NONE', #567 ) ;
#58 = ORIENTED_EDGE ( 'NONE', *, *, #59, .F. ) ;
#59 = EDGE_CURVE ( 'NONE', #14, #57, #566, .T. ) ;
#60 = ORIENTED_EDGE ( 'NONE', *, *, #61, .T. ) ;
#61 = EDGE_CURVE ( 'NONE', #202, #201, #625, .T. ) ;
#62 = ORIENTED_EDGE ( 'NONE', *, *, #185, .T. ) ;
#63 = ORIENTED_EDGE ( 'NONE', *, *, #64, .F. ) ;
#64 = EDGE_CURVE ( 'NONE', #205, #183, #620, .T. ) ;
#65 = ADVANCED_FACE ( 'NONE', ( #615 ), #614, .F. ) ;
#66 = EDGE_LOOP ( 'NONE', ( #67, #68, #70, #76 ) ) ;
#67 = ORIENTED_EDGE ( 'NONE', *, *, #217, .F. ) ;
#68 = ORIENTED_EDGE ( 'NONE', *, *, #69, .T. ) ;
#69 = EDGE_CURVE ( 'NONE', #215, #214, #608, .T. ) ;
#70 = ORIENTED_EDGE ( 'NONE', *, *, #196, .T. ) ;
#71 = ORIENTED_EDGE ( 'NONE', *, *, #72, .F. ) ;
#72 = EDGE_CURVE ( 'NONE', #73, #74, #604, .T. ) ;
#73 = VERTEX_POINT ( 'NONE', #599 ) ;
#74 = VERTEX_POINT ( 'NONE', #598 ) ;
#75 = ORIENTED_EDGE ( 'NONE', *, *, #222, .T. ) ;
#76 = ORIENTED_EDGE ( 'NONE', *, *, #77, .F. ) ;
#77 = EDGE_CURVE ( 'NONE', #218, #221, #597, .T. ) ;
#78 = ADVANCED_FACE ( 'NONE', ( #659, #658, #657, #656, #655 ), #654, .T. ) ;
#79 = EDGE_LOOP ( 'NONE', ( #80, #84, #87, #94 ) ) ;
#80 = ORIENTED_EDGE ( 'NONE', *, *, #81, .F. ) ;
#81 = EDGE_CURVE ( 'NONE', #82, #83, #649, .T. ) ;
#82 = VERTEX_POINT ( 'NONE', #645 ) ;
#83 = VERTEX_POINT ( 'NONE', #644 ) ;
#84 = ORIENTED_EDGE ( 'NONE', *, *, #85, .F. ) ;
#85 = EDGE_CURVE ( 'NONE', #86, #82, #643, .T. ) ;
#86 = VERTEX_POINT ( 'NONE', #639 ) ;
#87 = ORIENTED_EDGE ( 'NONE', *, *, #88, .F. ) ;
#88 = EDGE_CURVE ( 'NONE', #89, #86, #638, .T. ) ;
#89 = VERTEX_POINT ( 'NONE', #634 ) ;
#90 = ORIENTED_EDGE ( 'NONE', *, *, #91, .F. ) ;
#91 = EDGE_CURVE ( 'NONE', #104, #103, #633, .T. ) ;
#92 = ORIENTED_EDGE ( 'NONE', *, *, #93, .F. ) ;
#93 = EDGE_CURVE ( 'NONE', #100, #104, #629, .T. ) ;
#94 = ORIENTED_EDGE ( 'NONE', *, *, #95, .F. ) ;
#95 = EDGE_CURVE ( 'NONE', #83, #89, #692, .T. ) ;
#96 = EDGE_LOOP ( 'NONE', ( #97, #101, #90, #92 ) ) ;
#97 = ORIENTED_EDGE ( 'NONE', *, *, #98, .F. ) ;
#98 = EDGE_CURVE ( 'NONE', #99, #100, #688, .T. ) ;
#99 = VERTEX_POINT ( 'NONE', #684 ) ;
#100 = VERTEX_POINT ( 'NONE', #683 ) ;
#101 = ORIENTED_EDGE ( 'NONE', *, *, #102, .F. ) ;
#102 = EDGE_CURVE ( 'NONE', #103, #99, #682, .T. ) ;
#103 = VERTEX_POINT ( 'NONE', #678 ) ;
#104 = VERTEX_POINT ( 'NONE', #677 ) ;
#105 = ORIENTED_EDGE ( 'NONE', *, *, #225, .F. ) ;
#106 = EDGE_CURVE ( 'NONE', #32, #44, #676, .T. ) ;
#107 = EDGE_LOOP ( 'NONE', ( #33, #34, #36, #39 ) ) ;
#108 = ADVANCED_FACE ( 'NONE', ( #672 ), #671, .F. ) ;
#109 = EDGE_LOOP ( 'NONE', ( #110, #29, #46, #49, #52, #55, #58, #15, #18, #21, #24, #3 ) ) ;
#110 = ORIENTED_EDGE ( 'NONE', *, *, #111, .F. ) ;
#111 = EDGE_CURVE ( 'NONE', #27, #28, #666, .T. ) ;
#112 = ORIENTED_EDGE ( 'NONE', *, *, #147, .T. ) ;
#113 = ORIENTED_EDGE ( 'NONE', *, *, #114, .F. ) ;
#114 = EDGE_CURVE ( 'NONE', #380, #145, #952, .T. ) ;
#115 = ORIENTED_EDGE ( 'NONE', *, *, #385, .F. ) ;
#116 = ORIENTED_EDGE ( 'NONE', *, *, #117, .F. ) ;
#117 = EDGE_CURVE ( 'NONE', #118, #48, #948, .T. ) ;
#118 = VERTEX_POINT ( 'NONE', #944 ) ;
#119 = ORIENTED_EDGE ( 'NONE', *, *, #120, .F. ) ;
#120 = EDGE_CURVE ( 'NONE', #44, #118, #943, .T. ) ;
#121 = ORIENTED_EDGE ( 'NONE', *, *, #40, .T. ) ;
#122 = ORIENTED_EDGE ( 'NONE', *, *, #162, .T. ) ;
#123 = ORIENTED_EDGE ( 'NONE', *, *, #124, .F. ) ;
#124 = EDGE_CURVE ( 'NONE', #125, #160, #939, .T. ) ;
#125 = VERTEX_POINT ( 'NONE', #935 ) ;
#126 = ORIENTED_EDGE ( 'NONE', *, *, #127, .F. ) ;
#127 = EDGE_CURVE ( 'NONE', #128, #125, #887, .T. ) ;
#128 = VERTEX_POINT ( 'NONE', #883 ) ;
#129 = ORIENTED_EDGE ( 'NONE', *, *, #130, .T. ) ;
#130 = EDGE_CURVE ( 'NONE', #128, #51, #882, .T. ) ;
#131 = ADVANCED_FACE ( 'NONE', ( #878 ), #877, .F. ) ;
#132 = EDGE_LOOP ( 'NONE', ( #133, #135, #136, #138 ) ) ;
#133 = ORIENTED_EDGE ( 'NONE', *, *, #134, .T. ) ;
#134 = EDGE_CURVE ( 'NONE', #20, #156, #872, .T. ) ;
#135 = ORIENTED_EDGE ( 'NONE', *, *, #150, .T. ) ;
#136 = ORIENTED_EDGE ( 'NONE', *, *, #137, .F. ) ;
#137 = EDGE_CURVE ( 'NONE', #23, #148, #868, .T. ) ;
#138 = ORIENTED_EDGE ( 'NONE', *, *, #22, .F. ) ;
#139 = ADVANCED_FACE ( 'NONE', ( #864 ), #863, .F. ) ;
#140 = EDGE_LOOP ( 'NONE', ( #141, #381, #383, #384 ) ) ;
#141 = ORIENTED_EDGE ( 'NONE', *, *, #142, .F. ) ;
#142 = EDGE_CURVE ( 'NONE', #143, #380, #858, .T. ) ;
#143 = VERTEX_POINT ( 'NONE', #919 ) ;
#144 = ORIENTED_EDGE ( 'NONE', *, *, #155, .T. ) ;
#145 = VERTEX_POINT ( 'NONE', #918 ) ;
#146 = ORIENTED_EDGE ( 'NONE', *, *, #147, .F. ) ;
#147 = EDGE_CURVE ( 'NONE', #148, #145, #917, .T. ) ;
#148 = VERTEX_POINT ( 'NONE', #913 ) ;
#149 = ORIENTED_EDGE ( 'NONE', *, *, #150, .F. ) ;
#150 = EDGE_CURVE ( 'NONE', #156, #148, #912, .T. ) ;
#151 = EDGE_LOOP ( 'NONE', ( #152, #153 ) ) ;
#152 = ORIENTED_EDGE ( 'NONE', *, *, #182, .T. ) ;
#153 = ORIENTED_EDGE ( 'NONE', *, *, #64, .T. ) ;
#154 = ADVANCED_FACE ( 'NONE', ( #908 ), #907, .F. ) ;
#155 = EDGE_CURVE ( 'NONE', #156, #157, #902, .T. ) ;
#156 = VERTEX_POINT ( 'NONE', #898 ) ;
#157 = VERTEX_POINT ( 'NONE', #897 ) ;
#158 = ORIENTED_EDGE ( 'NONE', *, *, #159, .T. ) ;
#159 = EDGE_CURVE ( 'NONE', #157, #160, #896, .T. ) ;
#160 = VERTEX_POINT ( 'NONE', #892 ) ;
#161 = ORIENTED_EDGE ( 'NONE', *, *, #162, .F. ) ;
#162 = EDGE_CURVE ( 'NONE', #38, #160, #891, .T. ) ;
#163 = ORIENTED_EDGE ( 'NONE', *, *, #37, .F. ) ;
#164 = ORIENTED_EDGE ( 'NONE', *, *, #165, .F. ) ;
#165 = EDGE_CURVE ( 'NONE', #191, #45, #822, .T. ) ;
#166 = ORIENTED_EDGE ( 'NONE', *, *, #189, .F. ) ;
#167 = ORIENTED_EDGE ( 'NONE', *, *, #168, .F. ) ;
#168 = EDGE_CURVE ( 'NONE', #145, #190, #818, .T. ) ;
#169 = ORIENTED_EDGE ( 'NONE', *, *, #170, .F. ) ;
#170 = EDGE_CURVE ( 'NONE', #296, #295, #814, .T. ) ;
#171 = ORIENTED_EDGE ( 'NONE', *, *, #207, .F. ) ;
#172 = ADVANCED_FACE ( 'NONE', ( #809, #808, #807 ), #806, .F. ) ;
#173 = ORIENTED_EDGE ( 'NONE', *, *, #220, .T. ) ;
#174 = ORIENTED_EDGE ( 'NONE', *, *, #77, .T. ) ;
#175 = EDGE_LOOP ( 'NONE', ( #144, #158, #161, #163, #164, #166, #167, #146, #149 ) ) ;
#176 = EDGE_LOOP ( 'NONE', ( #169, #171 ) ) ;
#177 = EDGE_LOOP ( 'NONE', ( #173, #174 ) ) ;
#178 = ORIENTED_EDGE ( 'NONE', *, *, #179, .F. ) ;
#179 = EDGE_CURVE ( 'NONE', #308, #305, #801, .T. ) ;
#180 = ORIENTED_EDGE ( 'NONE', *, *, #307, .F. ) ;
#181 = ORIENTED_EDGE ( 'NONE', *, *, #182, .F. ) ;
#182 = EDGE_CURVE ( 'NONE', #183, #205, #796, .T. ) ;
#183 = VERTEX_POINT ( 'NONE', #791 ) ;
#184 = ORIENTED_EDGE ( 'NONE', *, *, #185, .F. ) ;
#185 = EDGE_CURVE ( 'NONE', #201, #183, #790, .T. ) ;
#186 = ADVANCED_FACE ( 'NONE', ( #786, #785 ), #784, .F. ) ;
#187 = EDGE_LOOP ( 'NONE', ( #188, #192, #9, #12 ) ) ;
#188 = ORIENTED_EDGE ( 'NONE', *, *, #189, .T. ) ;
#189 = EDGE_CURVE ( 'NONE', #190, #191, #779, .T. ) ;
#190 = VERTEX_POINT ( 'NONE', #775 ) ;
#191 = VERTEX_POINT ( 'NONE', #774 ) ;
#192 = ORIENTED_EDGE ( 'NONE', *, *, #193, .F. ) ;
#193 = EDGE_CURVE ( 'NONE', #194, #191, #773, .T. ) ;
#194 = VERTEX_POINT ( 'NONE', #769 ) ;
#195 = ORIENTED_EDGE ( 'NONE', *, *, #196, .F. ) ;
#196 = EDGE_CURVE ( 'NONE', #214, #221, #768, .T. ) ;
#197 = ADVANCED_FACE ( 'NONE', ( #764 ), #763, .F. ) ;
#198 = EDGE_LOOP ( 'NONE', ( #199, #203, #181, #184 ) ) ;
#199 = ORIENTED_EDGE ( 'NONE', *, *, #200, .T. ) ;
#200 = EDGE_CURVE ( 'NONE', #201, #202, #758, .T. ) ;
#201 = VERTEX_POINT ( 'NONE', #753 ) ;
#202 = VERTEX_POINT ( 'NONE', #752 ) ;
#203 = ORIENTED_EDGE ( 'NONE', *, *, #204, .T. ) ;
#204 = EDGE_CURVE ( 'NONE', #202, #205, #751, .T. ) ;
#205 = VERTEX_POINT ( 'NONE', #747 ) ;
#206 = ORIENTED_EDGE ( 'NONE', *, *, #207, .T. ) ;
#207 = EDGE_CURVE ( 'NONE', #295, #296, #746, .T. ) ;
#208 = ORIENTED_EDGE ( 'NONE', *, *, #209, .F. ) ;
#209 = EDGE_CURVE ( 'NONE', #302, #296, #741, .T. ) ;
#210 = ADVANCED_FACE ( 'NONE', ( #737 ), #735, .F. ) ;
#211 = EDGE_LOOP ( 'NONE', ( #212, #216, #219, #195 ) ) ;
#212 = ORIENTED_EDGE ( 'NONE', *, *, #213, .T. ) ;
#213 = EDGE_CURVE ( 'NONE', #214, #215, #730, .T. ) ;
#214 = VERTEX_POINT ( 'NONE', #726 ) ;
#215 = VERTEX_POINT ( 'NONE', #725 ) ;
#216 = ORIENTED_EDGE ( 'NONE', *, *, #217, .T. ) ;
#217 = EDGE_CURVE ( 'NONE', #215, #218, #724, .T. ) ;
#218 = VERTEX_POINT ( 'NONE', #720 ) ;
#219 = ORIENTED_EDGE ( 'NONE', *, *, #220, .F. ) ;
#220 = EDGE_CURVE ( 'NONE', #221, #218, #719, .T. ) ;
#221 = VERTEX_POINT ( 'NONE', #714 ) ;
#222 = EDGE_CURVE ( 'NONE', #73, #223, #713, .T. ) ;
#223 = VERTEX_POINT ( 'NONE', #709 ) ;
#224 = ORIENTED_EDGE ( 'NONE', *, *, #225, .T. ) ;
#225 = EDGE_CURVE ( 'NONE', #223, #226, #708, .T. ) ;
#226 = VERTEX_POINT ( 'NONE', #703 ) ;
#227 = ORIENTED_EDGE ( 'NONE', *, *, #228, .F. ) ;
#228 = EDGE_CURVE ( 'NONE', #74, #226, #702, .T. ) ;
#229 = ADVANCED_FACE ( 'NONE', ( #698 ), #697, .F. ) ;
#230 = EDGE_LOOP ( 'NONE', ( #231, #235, #306, #309 ) ) ;
#231 = ORIENTED_EDGE ( 'NONE', *, *, #232, .F. ) ;
#232 = EDGE_CURVE ( 'NONE', #233, #234, #856, .T. ) ;
#233 = VERTEX_POINT ( 'NONE', #851 ) ;
#234 = VERTEX_POINT ( 'NONE', #850 ) ;
#235 = ORIENTED_EDGE ( 'NONE', *, *, #236, .T. ) ;
#236 = EDGE_CURVE ( 'NONE', #233, #305, #849, .T. ) ;
#237 = ORIENTED_EDGE ( 'NONE', *, *, #232, .T. ) ;
#238 = ADVANCED_FACE ( 'NONE', ( #845 ), #844, .F. ) ;
#239 = EDGE_LOOP ( 'NONE', ( #240, #241, #244, #272 ) ) ;
#240 = ORIENTED_EDGE ( 'NONE', *, *, #56, .T. ) ;
#241 = ORIENTED_EDGE ( 'NONE', *, *, #242, .F. ) ;
#242 = EDGE_CURVE ( 'NONE', #243, #54, #839, .T. ) ;
#243 = VERTEX_POINT ( 'NONE', #835 ) ;
#244 = ORIENTED_EDGE ( 'NONE', *, *, #245, .F. ) ;
#245 = EDGE_CURVE ( 'NONE', #246, #243, #834, .T. ) ;
#246 = VERTEX_POINT ( 'NONE', #829 ) ;
#247 = EDGE_LOOP ( 'NONE', ( #248, #249 ) ) ;
#248 = ORIENTED_EDGE ( 'NONE', *, *, #213, .F. ) ;
#249 = ORIENTED_EDGE ( 'NONE', *, *, #69, .F. ) ;
#250 = EDGE_LOOP ( 'NONE', ( #251, #252, #253, #254, #255 ) ) ;
#251 = ORIENTED_EDGE ( 'NONE', *, *, #245, .T. ) ;
#252 = ORIENTED_EDGE ( 'NONE', *, *, #261, .T. ) ;
#253 = ORIENTED_EDGE ( 'NONE', *, *, #127, .T. ) ;
#254 = ORIENTED_EDGE ( 'NONE', *, *, #354, .T. ) ;
#255 = ORIENTED_EDGE ( 'NONE', *, *, #314, .T. ) ;
#256 = ADVANCED_FACE ( 'NONE', ( #828 ), #825, .F. ) ;
#257 = EDGE_LOOP ( 'NONE', ( #258, #264, #267, #270 ) ) ;
#258 = ORIENTED_EDGE ( 'NONE', *, *, #30, .T. ) ;
#259 = ORIENTED_EDGE ( 'NONE', *, *, #130, .F. ) ;
#260 = ORIENTED_EDGE ( 'NONE', *, *, #261, .F. ) ;
#261 = EDGE_CURVE ( 'NONE', #243, #128, #826, .T. ) ;
#262 = ORIENTED_EDGE ( 'NONE', *, *, #242, .T. ) ;
#263 = ADVANCED_FACE ( 'NONE', ( #930, #929 ), #928, .T. ) ;
#264 = ORIENTED_EDGE ( 'NONE', *, *, #265, .F. ) ;
#265 = EDGE_CURVE ( 'NONE', #266, #27, #923, .T. ) ;
#266 = VERTEX_POINT ( 'NONE', #1139 ) ;
#267 = ORIENTED_EDGE ( 'NONE', *, *, #268, .F. ) ;
#268 = EDGE_CURVE ( 'NONE', #269, #266, #953, .T. ) ;
#269 = VERTEX_POINT ( 'NONE', #979 ) ;
#270 = ORIENTED_EDGE ( 'NONE', *, *, #271, .T. ) ;
#271 = EDGE_CURVE ( 'NONE', #269, #31, #1112, .T. ) ;
#272 = ORIENTED_EDGE ( 'NONE', *, *, #273, .T. ) ;
#273 = EDGE_CURVE ( 'NONE', #246, #57, #1108, .T. ) ;
#274 = ADVANCED_FACE ( 'NONE', ( #1120 ), #1119, .F. ) ;
#275 = EDGE_LOOP ( 'NONE', ( #276, #312, #313, #315 ) ) ;
#276 = ORIENTED_EDGE ( 'NONE', *, *, #59, .T. ) ;
#277 = ORIENTED_EDGE ( 'NONE', *, *, #421, .T. ) ;
#278 = ORIENTED_EDGE ( 'NONE', *, *, #72, .T. ) ;
#279 = ADVANCED_FACE ( 'NONE', ( #1114 ), #1113, .F. ) ;
#280 = EDGE_LOOP ( 'NONE', ( #281, #282, #283, #285 ) ) ;
#281 = ORIENTED_EDGE ( 'NONE', *, *, #47, .T. ) ;
#282 = ORIENTED_EDGE ( 'NONE', *, *, #271, .F. ) ;
#283 = ORIENTED_EDGE ( 'NONE', *, *, #284, .F. ) ;
#284 = EDGE_CURVE ( 'NONE', #118, #269, #959, .T. ) ;
#285 = ORIENTED_EDGE ( 'NONE', *, *, #117, .T. ) ;
#286 = ADVANCED_FACE ( 'NONE', ( #955, #954 ), #978, .T. ) ;
#287 = EDGE_LOOP ( 'NONE', ( #288, #289, #390, #391, #392 ) ) ;
#288 = ORIENTED_EDGE ( 'NONE', *, *, #268, .T. ) ;
#289 = ORIENTED_EDGE ( 'NONE', *, *, #290, .F. ) ;
#290 = EDGE_CURVE ( 'NONE', #32, #266, #973, .T. ) ;
#291 = ORIENTED_EDGE ( 'NONE', *, *, #179, .T. ) ;
#292 = ADVANCED_FACE ( 'NONE', ( #969 ), #968, .T. ) ;
#293 = EDGE_LOOP ( 'NONE', ( #294, #237 ) ) ;
#294 = ORIENTED_EDGE ( 'NONE', *, *, #329, .T. ) ;
#295 = VERTEX_POINT ( 'NONE', #1079 ) ;
#296 = VERTEX_POINT ( 'NONE', #1078 ) ;
#297 = MANIFOLD_SOLID_BREP ( 'NONE', #438 ) ;
#298 = EDGE_LOOP ( 'NONE', ( #299, #303, #206, #208 ) ) ;
#299 = ORIENTED_EDGE ( 'NONE', *, *, #300, .F. ) ;
#300 = EDGE_CURVE ( 'NONE', #301, #302, #1077, .T. ) ;
#301 = VERTEX_POINT ( 'NONE', #1072 ) ;
#302 = VERTEX_POINT ( 'NONE', #1071 ) ;
#303 = ORIENTED_EDGE ( 'NONE', *, *, #304, .T. ) ;
#304 = EDGE_CURVE ( 'NONE', #301, #295, #1070, .T. ) ;
#305 = VERTEX_POINT ( 'NONE', #1066 ) ;
#306 = ORIENTED_EDGE ( 'NONE', *, *, #307, .T. ) ;
#307 = EDGE_CURVE ( 'NONE', #305, #308, #1065, .T. ) ;
#308 = VERTEX_POINT ( 'NONE', #1060 ) ;
#309 = ORIENTED_EDGE ( 'NONE', *, *, #310, .F. ) ;
#310 = EDGE_CURVE ( 'NONE', #234, #308, #1059, .T. ) ;
#311 = ADVANCED_FACE ( 'NONE', ( #1055 ), #1053, .F. ) ;
#312 = ORIENTED_EDGE ( 'NONE', *, *, #273, .F. ) ;
#313 = ORIENTED_EDGE ( 'NONE', *, *, #314, .F. ) ;
#314 = EDGE_CURVE ( 'NONE', #352, #246, #1054, .T. ) ;
#315 = ORIENTED_EDGE ( 'NONE', *, *, #351, .T. ) ;
#316 = ADVANCED_FACE ( 'NONE', ( #1045 ), #1043, .F. ) ;
#317 = EDGE_LOOP ( 'NONE', ( #318, #259, #260, #262 ) ) ;
#318 = ORIENTED_EDGE ( 'NONE', *, *, #53, .T. ) ;
#319 = ORIENTED_EDGE ( 'NONE', *, *, #209, .T. ) ;
#320 = ORIENTED_EDGE ( 'NONE', *, *, #170, .T. ) ;
#321 = ADVANCED_FACE ( 'NONE', ( #1038 ), #1044, .T. ) ;
#322 = EDGE_LOOP ( 'NONE', ( #323, #324 ) ) ;
#323 = ORIENTED_EDGE ( 'NONE', *, *, #339, .T. ) ;
#324 = ORIENTED_EDGE ( 'NONE', *, *, #300, .T. ) ;
#325 = ADVANCED_FACE ( 'NONE', ( #1033 ), #1032, .F. ) ;
#326 = EDGE_LOOP ( 'NONE', ( #327, #328, #330, #291 ) ) ;
#327 = ORIENTED_EDGE ( 'NONE', *, *, #236, .F. ) ;
#328 = ORIENTED_EDGE ( 'NONE', *, *, #329, .F. ) ;
#329 = EDGE_CURVE ( 'NONE', #234, #233, #1026, .T. ) ;
#330 = ORIENTED_EDGE ( 'NONE', *, *, #310, .T. ) ;
#331 = ORIENTED_EDGE ( 'NONE', *, *, #124, .T. ) ;
#332 = ORIENTED_EDGE ( 'NONE', *, *, #159, .F. ) ;
#333 = ORIENTED_EDGE ( 'NONE', *, *, #344, .F. ) ;
#334 = ORIENTED_EDGE ( 'NONE', *, *, #16, .F. ) ;
#335 = ADVANCED_FACE ( 'NONE', ( #1022 ), #1021, .F. ) ;
#336 = EDGE_LOOP ( 'NONE', ( #337, #338, #319, #320 ) ) ;
#337 = ORIENTED_EDGE ( 'NONE', *, *, #304, .F. ) ;
#338 = ORIENTED_EDGE ( 'NONE', *, *, #339, .F. ) ;
#339 = EDGE_CURVE ( 'NONE', #302, #301, #1016, .T. ) ;
#340 = EDGE_LOOP ( 'NONE', ( #341, #116, #119, #121, #122, #123, #126, #129 ) ) ;
#341 = ORIENTED_EDGE ( 'NONE', *, *, #50, .F. ) ;
#342 = ADVANCED_FACE ( 'NONE', ( #1137 ), #1132, .T. ) ;
#343 = ORIENTED_EDGE ( 'NONE', *, *, #344, .T. ) ;
#344 = EDGE_CURVE ( 'NONE', #17, #157, #1127, .T. ) ;
#345 = ORIENTED_EDGE ( 'NONE', *, *, #155, .F. ) ;
#346 = ORIENTED_EDGE ( 'NONE', *, *, #134, .F. ) ;
#347 = ORIENTED_EDGE ( 'NONE', *, *, #19, .F. ) ;
#348 = ADVANCED_FACE ( 'NONE', ( #1123 ), #1122, .T. ) ;
#349 = EDGE_LOOP ( 'NONE', ( #350, #353, #331, #332, #333, #334 ) ) ;
#350 = ORIENTED_EDGE ( 'NONE', *, *, #351, .F. ) ;
#351 = EDGE_CURVE ( 'NONE', #352, #14, #1011, .T. ) ;
#352 = VERTEX_POINT ( 'NONE', #1007 ) ;
#353 = ORIENTED_EDGE ( 'NONE', *, *, #354, .F. ) ;
#354 = EDGE_CURVE ( 'NONE', #125, #352, #1006, .T. ) ;
#355 = ORIENTED_EDGE ( 'NONE', *, *, #35, .F. ) ;
#356 = ORIENTED_EDGE ( 'NONE', *, *, #357, .F. ) ;
#357 = EDGE_CURVE ( 'NONE', #143, #32, #1002, .T. ) ;
#358 = ORIENTED_EDGE ( 'NONE', *, *, #359, .F. ) ;
#359 = EDGE_CURVE ( 'NONE', #194, #143, #998, .T. ) ;
#360 = ORIENTED_EDGE ( 'NONE', *, *, #193, .T. ) ;
#361 = ADVANCED_FACE ( 'NONE', ( #994 ), #993, .T. ) ;
#362 = EDGE_LOOP ( 'NONE', ( #363, #364, #365, #366 ) ) ;
#363 = ORIENTED_EDGE ( 'NONE', *, *, #375, .T. ) ;
#364 = ORIENTED_EDGE ( 'NONE', *, *, #8, .T. ) ;
#365 = ORIENTED_EDGE ( 'NONE', *, *, #359, .T. ) ;
#366 = ORIENTED_EDGE ( 'NONE', *, *, #142, .T. ) ;
#367 = EDGE_LOOP ( 'NONE', ( #343, #345, #346, #347 ) ) ;
#368 = ORIENTED_EDGE ( 'NONE', *, *, #25, .F. ) ;
#369 = ORIENTED_EDGE ( 'NONE', *, *, #137, .T. ) ;
#370 = ADVANCED_FACE ( 'NONE', ( #988 ), #987, .F. ) ;
#371 = EDGE_LOOP ( 'NONE', ( #372, #373, #374, #376 ) ) ;
#372 = ORIENTED_EDGE ( 'NONE', *, *, #168, .T. ) ;
#373 = ORIENTED_EDGE ( 'NONE', *, *, #10, .F. ) ;
#374 = ORIENTED_EDGE ( 'NONE', *, *, #375, .F. ) ;
#375 = EDGE_CURVE ( 'NONE', #380, #7, #1204, .T. ) ;
#376 = ORIENTED_EDGE ( 'NONE', *, *, #114, .T. ) ;
#377 = ADVANCED_FACE ( 'NONE', ( #1200 ), #1199, .F. ) ;
#378 = EDGE_LOOP ( 'NONE', ( #379, #355, #356, #358, #360 ) ) ;
#379 = ORIENTED_EDGE ( 'NONE', *, *, #165, .T. ) ;
#380 = VERTEX_POINT ( 'NONE', #1194 ) ;
#381 = ORIENTED_EDGE ( 'NONE', *, *, #382, .T. ) ;
#382 = EDGE_CURVE ( 'NONE', #143, #28, #1193, .T. ) ;
#383 = ORIENTED_EDGE ( 'NONE', *, *, #4, .F. ) ;
#384 = ORIENTED_EDGE ( 'NONE', *, *, #385, .T. ) ;
#385 = EDGE_CURVE ( 'NONE', #26, #380, #1189, .T. ) ;
#386 = ADVANCED_FACE ( 'NONE', ( #1185 ), #1184, .F. ) ;
#387 = EDGE_LOOP ( 'NONE', ( #112, #113, #115, #368, #369 ) ) ;
#388 = ORIENTED_EDGE ( 'NONE', *, *, #404, .T. ) ;
#389 = ORIENTED_EDGE ( 'NONE', *, *, #560, .T. ) ;
#390 = ORIENTED_EDGE ( 'NONE', *, *, #106, .T. ) ;
#391 = ORIENTED_EDGE ( 'NONE', *, *, #120, .T. ) ;
#392 = ORIENTED_EDGE ( 'NONE', *, *, #284, .T. ) ;
#393 = EDGE_LOOP ( 'NONE', ( #394, #395 ) ) ;
#394 = ORIENTED_EDGE ( 'NONE', *, *, #200, .F. ) ;
#395 = ORIENTED_EDGE ( 'NONE', *, *, #61, .F. ) ;
#396 = ADVANCED_FACE ( 'NONE', ( #1179 ), #1178, .F. ) ;
#397 = EDGE_LOOP ( 'NONE', ( #398, #399, #400, #401, #417 ) ) ;
#398 = ORIENTED_EDGE ( 'NONE', *, *, #290, .T. ) ;
#399 = ORIENTED_EDGE ( 'NONE', *, *, #265, .T. ) ;
#400 = ORIENTED_EDGE ( 'NONE', *, *, #111, .T. ) ;
#401 = ORIENTED_EDGE ( 'NONE', *, *, #382, .F. ) ;
#402 = EDGE_LOOP ( 'NONE', ( #419, #420, #422, #423 ) ) ;
#403 = ORIENTED_EDGE ( 'NONE', *, *, #404, .F. ) ;
#404 = EDGE_CURVE ( 'NONE', #405, #416, #1173, .T. ) ;
#405 = VERTEX_POINT ( 'NONE', #1169 ) ;
#406 = ORIENTED_EDGE ( 'NONE', *, *, #407, .T. ) ;
#407 = EDGE_CURVE ( 'NONE', #405, #99, #1168, .T. ) ;
#408 = ADVANCED_FACE ( 'NONE', ( #1164 ), #1163, .F. ) ;
#409 = EDGE_LOOP ( 'NONE', ( #410, #540, #527, #530 ) ) ;
#410 = ORIENTED_EDGE ( 'NONE', *, *, #102, .T. ) ;
#411 = ADVANCED_FACE ( 'NONE', ( #1158 ), #1157, .F. ) ;
#412 = EDGE_LOOP ( 'NONE', ( #413, #414, #403, #406 ) ) ;
#413 = ORIENTED_EDGE ( 'NONE', *, *, #98, .T. ) ;
#414 = ORIENTED_EDGE ( 'NONE', *, *, #415, .F. ) ;
#415 = EDGE_CURVE ( 'NONE', #416, #100, #1152, .T. ) ;
#416 = VERTEX_POINT ( 'NONE', #1148 ) ;
#417 = ORIENTED_EDGE ( 'NONE', *, *, #357, .T. ) ;
#418 = ADVANCED_FACE ( 'NONE', ( #1147 ), #1146, .T. ) ;
#419 = ORIENTED_EDGE ( 'NONE', *, *, #222, .F. ) ;
#420 = ORIENTED_EDGE ( 'NONE', *, *, #421, .F. ) ;
#421 = EDGE_CURVE ( 'NONE', #74, #73, #1140, .T. ) ;
#422 = ORIENTED_EDGE ( 'NONE', *, *, #228, .T. ) ;
#423 = ORIENTED_EDGE ( 'NONE', *, *, #13, .T. ) ;
#424 = ADVANCED_FACE ( 'NONE', ( #1102 ), #1101, .T. ) ;
#425 = EDGE_LOOP ( 'NONE', ( #277, #278 ) ) ;
#426 = DIRECTION ( 'NONE',  ( 0.0000000000000000000, 0.0000000000000000000, 1.000000000000000000 ) ) ;
#427 = DIRECTION ( 'NONE',  ( 0.0000000000000000000, 1.000000000000000000, 0.0000000000000000000 ) ) ;
#428 = AXIS2_PLACEMENT_3D ( 'NONE', #431, #427, #426 ) ;
#429 = CYLINDRICAL_SURFACE ( 'NONE', #428, 1.250000000000000400 ) ;
#430 = LINE ( 'NONE', #521, #520 ) ;
#431 = CARTESIAN_POINT ( 'NONE',  ( 1.500000000000005300, -37.75000000000000700, 1.700000000000000000 ) ) ;
#432 = FACE_OUTER_BOUND ( 'NONE', #1, .T. ) ;
#433 = ADVANCED_FACE ( 'NONE', ( #1096 ), #1095, .T. ) ;
#434 = ORIENTED_EDGE ( 'NONE', *, *, #550, .T. ) ;
#435 = ORIENTED_EDGE ( 'NONE', *, *, #449, .T. ) ;
#436 = ORIENTED_EDGE ( 'NONE', *, *, #440, .T. ) ;
#437 = ORIENTED_EDGE ( 'NONE', *, *, #457, .T. ) ;
#438 = CLOSED_SHELL ( 'NONE', ( #361, #139, #377, #370, #186, #78, #386, #396, #172, #108, #2, #418, #311, #523, #238, #408, #543, #444, #342, #316, #154, #555, #452, #229, #325, #131, #348, #256, #274, #279, #411, #335, #532, #286, #65, #197, #41, #210, #424, #321, #433, #263, #562, #292 ) ) ;
#439 = ORIENTED_EDGE ( 'NONE', *, *, #440, .F. ) ;
#440 = EDGE_CURVE ( 'NONE', #441, #458, #1090, .T. ) ;
#441 = VERTEX_POINT ( 'NONE', #1086 ) ;
#442 = ORIENTED_EDGE ( 'NONE', *, *, #443, .T. ) ;
#443 = EDGE_CURVE ( 'NONE', #441, #89, #1085, .T. ) ;
#444 = ADVANCED_FACE ( 'NONE', ( #1081 ), #1205, .F. ) ;
#445 = EDGE_LOOP ( 'NONE', ( #446, #447, #448, #450 ) ) ;
#446 = ORIENTED_EDGE ( 'NONE', *, *, #95, .T. ) ;
#447 = ORIENTED_EDGE ( 'NONE', *, *, #443, .F. ) ;
#448 = ORIENTED_EDGE ( 'NONE', *, *, #449, .F. ) ;
#449 = EDGE_CURVE ( 'NONE', #548, #441, #1238, .T. ) ;
#450 = ORIENTED_EDGE ( 'NONE', *, *, #547, .T. ) ;
#451 = EDGE_LOOP ( 'NONE', ( #434, #435, #436, #437 ) ) ;
#452 = ADVANCED_FACE ( 'NONE', ( #1234 ), #1233, .F. ) ;
#453 = EDGE_LOOP ( 'NONE', ( #454, #455, #456, #459 ) ) ;
#454 = ORIENTED_EDGE ( 'NONE', *, *, #85, .T. ) ;
#455 = ORIENTED_EDGE ( 'NONE', *, *, #553, .F. ) ;
#456 = ORIENTED_EDGE ( 'NONE', *, *, #457, .F. ) ;
#457 = EDGE_CURVE ( 'NONE', #458, #551, #1228, .T. ) ;
#458 = VERTEX_POINT ( 'NONE', #1224 ) ;
#459 = ORIENTED_EDGE ( 'NONE', *, *, #460, .T. ) ;
#460 = EDGE_CURVE ( 'NONE', #458, #86, #1223, .T. ) ;
#461 = CARTESIAN_POINT ( 'NONE',  ( 6.500000000000004400, -8.250000000000000000, 2.100000000000000100 ) ) ;
#462 = CARTESIAN_POINT ( 'NONE',  ( 7.750000000000000000, -4.700000000000000200, 3.500000000000000000 ) ) ;
#463 = DIRECTION ( 'NONE',  ( 1.000000000000000000, 0.0000000000000000000, 0.0000000000000000000 ) ) ;
#464 = DIRECTION ( 'NONE',  ( 0.0000000000000000000, 0.0000000000000000000, 1.000000000000000000 ) ) ;
#465 = CARTESIAN_POINT ( 'NONE',  ( 7.750000000000000000, -6.500000000000000000, 3.500000000000000000 ) ) ;
#466 = AXIS2_PLACEMENT_3D ( 'NONE', #465, #464, #463 ) ;
#467 = CIRCLE ( 'NONE', #466, 1.799999999999999600 ) ;
#468 = CARTESIAN_POINT ( 'NONE',  ( 6.500000000000004400, -8.250000000000000000, 3.500000000000000000 ) ) ;
#469 = CARTESIAN_POINT ( 'NONE',  ( 6.500000000000004400, -7.795183384698865400, 3.500000000000000000 ) ) ;
#470 = CARTESIAN_POINT ( 'NONE',  ( -3.499999999999995600, -8.250000000000000000, 3.500000000000000000 ) ) ;
#471 = DIRECTION ( 'NONE',  ( 1.355252715606880500E-016, -1.000000000000000000, 0.0000000000000000000 ) ) ;
#472 = VECTOR ( 'NONE', #471, 1000.000000000000000 ) ;
#473 = CARTESIAN_POINT ( 'NONE',  ( -3.499999999999997800, 7.750000000000000000, 3.500000000000000000 ) ) ;
#474 = LINE ( 'NONE', #473, #472 ) ;
#475 = CARTESIAN_POINT ( 'NONE',  ( -3.499999999999997800, 7.750000000000000000, 3.500000000000000000 ) ) ;
#476 = DIRECTION ( 'NONE',  ( -1.000000000000000000, 0.0000000000000000000, 0.0000000000000000000 ) ) ;
#477 = VECTOR ( 'NONE', #476, 1000.000000000000000 ) ;
#478 = CARTESIAN_POINT ( 'NONE',  ( -3.499999999999997800, 7.750000000000000000, 3.500000000000000000 ) ) ;
#479 = LINE ( 'NONE', #478, #477 ) ;
#480 = CARTESIAN_POINT ( 'NONE',  ( 2.950000000000002000, 7.750000000000000000, 3.500000000000000000 ) ) ;
#481 = DIRECTION ( 'NONE',  ( -2.891205793294679300E-016, 1.000000000000000000, 0.0000000000000000000 ) ) ;
#482 = VECTOR ( 'NONE', #481, 1000.000000000000000 ) ;
#483 = CARTESIAN_POINT ( 'NONE',  ( 2.950000000000002000, 7.750000000000001800, 3.500000000000000000 ) ) ;
#484 = LINE ( 'NONE', #483, #482 ) ;
#485 = CARTESIAN_POINT ( 'NONE',  ( 2.950000000000002400, 6.250000000000000000, 3.500000000000000000 ) ) ;
#486 = DIRECTION ( 'NONE',  ( -1.000000000000000000, -1.324216393875425600E-016, 0.0000000000000000000 ) ) ;
#487 = VECTOR ( 'NONE', #486, 1000.000000000000000 ) ;
#488 = CARTESIAN_POINT ( 'NONE',  ( -3.499999999999997800, 6.249999999999999100, 3.500000000000000000 ) ) ;
#489 = LINE ( 'NONE', #488, #487 ) ;
#490 = CARTESIAN_POINT ( 'NONE',  ( 5.950000000000000200, 6.249999999999999100, 3.500000000000000000 ) ) ;
#491 = DIRECTION ( 'NONE',  ( 0.0000000000000000000, 0.0000000000000000000, 1.000000000000000000 ) ) ;
#492 = DIRECTION ( 'NONE',  ( 0.0000000000000000000, -1.000000000000000000, 0.0000000000000000000 ) ) ;
#493 = FACE_OUTER_BOUND ( 'NONE', #42, .T. ) ;
#494 = DIRECTION ( 'NONE',  ( 0.0000000000000000000, 0.0000000000000000000, -1.000000000000000000 ) ) ;
#495 = VECTOR ( 'NONE', #494, 1000.000000000000000 ) ;
#496 = CARTESIAN_POINT ( 'NONE',  ( 9.500000000000001800, -8.250000000000000000, 3.500000000000000000 ) ) ;
#497 = LINE ( 'NONE', #496, #495 ) ;
#498 = CARTESIAN_POINT ( 'NONE',  ( 9.500000000000001800, -8.250000000000000000, 0.0000000000000000000 ) ) ;
#499 = DIRECTION ( 'NONE',  ( 1.000000000000000000, 0.0000000000000000000, 0.0000000000000000000 ) ) ;
#500 = VECTOR ( 'NONE', #499, 1000.000000000000000 ) ;
#501 = CARTESIAN_POINT ( 'NONE',  ( -3.499999999999995600, -8.250000000000000000, 0.0000000000000000000 ) ) ;
#502 = LINE ( 'NONE', #501, #500 ) ;
#503 = DIRECTION ( 'NONE',  ( 0.0000000000000000000, 0.0000000000000000000, -1.000000000000000000 ) ) ;
#504 = VECTOR ( 'NONE', #503, 1000.000000000000000 ) ;
#505 = CARTESIAN_POINT ( 'NONE',  ( 6.500000000000004400, -8.250000000000000000, 3.399999999999999900 ) ) ;
#506 = LINE ( 'NONE', #505, #504 ) ;
#507 = CARTESIAN_POINT ( 'NONE',  ( 1.500000000000005300, -12.75000000000000200, 1.700000000000000000 ) ) ;
#508 = AXIS2_PLACEMENT_3D ( 'NONE', #507, #492, #491 ) ;
#509 = CIRCLE ( 'NONE', #508, 1.250000000000000400 ) ;
#510 = DIRECTION ( 'NONE',  ( 0.0000000000000000000, 0.0000000000000000000, -1.000000000000000000 ) ) ;
#511 = VECTOR ( 'NONE', #510, 1000.000000000000000 ) ;
#512 = CARTESIAN_POINT ( 'NONE',  ( -1.401615538302515100, -12.75000000000000200, 3.399999999999999900 ) ) ;
#513 = LINE ( 'NONE', #512, #511 ) ;
#514 = DIRECTION ( 'NONE',  ( 1.000000000000000000, 0.0000000000000000000, 0.0000000000000000000 ) ) ;
#515 = VECTOR ( 'NONE', #514, 1000.000000000000000 ) ;
#516 = CARTESIAN_POINT ( 'NONE',  ( -1.401615538302515100, -12.75000000000000200, 3.399999999999999900 ) ) ;
#517 = LINE ( 'NONE', #516, #515 ) ;
#518 = CARTESIAN_POINT ( 'NONE',  ( -1.401615538302515100, -12.75000000000000200, 3.399999999999999900 ) ) ;
#519 = DIRECTION ( 'NONE',  ( 1.000000000000000000, 0.0000000000000000000, 0.0000000000000000000 ) ) ;
#520 = VECTOR ( 'NONE', #519, 1000.000000000000000 ) ;
#521 = CARTESIAN_POINT ( 'NONE',  ( -3.499999999999995600, -8.250000000000000000, 3.500000000000000000 ) ) ;
#522 = EDGE_LOOP ( 'NONE', ( #388, #389, #541, #542 ) ) ;
#523 = ADVANCED_FACE ( 'NONE', ( #1219 ), #1218, .F. ) ;
#524 = EDGE_LOOP ( 'NONE', ( #525, #526, #439, #442 ) ) ;
#525 = ORIENTED_EDGE ( 'NONE', *, *, #88, .T. ) ;
#526 = ORIENTED_EDGE ( 'NONE', *, *, #460, .F. ) ;
#527 = ORIENTED_EDGE ( 'NONE', *, *, #528, .F. ) ;
#528 = EDGE_CURVE ( 'NONE', #529, #405, #1213, .T. ) ;
#529 = VERTEX_POINT ( 'NONE', #1209 ) ;
#530 = ORIENTED_EDGE ( 'NONE', *, *, #531, .T. ) ;
#531 = EDGE_CURVE ( 'NONE', #529, #103, #1347, .T. ) ;
#532 = ADVANCED_FACE ( 'NONE', ( #1343 ), #1342, .F. ) ;
#533 = EDGE_LOOP ( 'NONE', ( #534, #535, #536, #539 ) ) ;
#534 = ORIENTED_EDGE ( 'NONE', *, *, #91, .T. ) ;
#535 = ORIENTED_EDGE ( 'NONE', *, *, #531, .F. ) ;
#536 = ORIENTED_EDGE ( 'NONE', *, *, #537, .F. ) ;
#537 = EDGE_CURVE ( 'NONE', #538, #529, #1337, .T. ) ;
#538 = VERTEX_POINT ( 'NONE', #1333 ) ;
#539 = ORIENTED_EDGE ( 'NONE', *, *, #554, .T. ) ;
#540 = ORIENTED_EDGE ( 'NONE', *, *, #407, .F. ) ;
#541 = ORIENTED_EDGE ( 'NONE', *, *, #537, .T. ) ;
#542 = ORIENTED_EDGE ( 'NONE', *, *, #528, .T. ) ;
#543 = ADVANCED_FACE ( 'NONE', ( #1332 ), #1331, .F. ) ;
#544 = EDGE_LOOP ( 'NONE', ( #545, #546, #549, #552 ) ) ;
#545 = ORIENTED_EDGE ( 'NONE', *, *, #81, .T. ) ;
#546 = ORIENTED_EDGE ( 'NONE', *, *, #547, .F. ) ;
#547 = EDGE_CURVE ( 'NONE', #548, #83, #1326, .T. ) ;
#548 = VERTEX_POINT ( 'NONE', #1322 ) ;
#549 = ORIENTED_EDGE ( 'NONE', *, *, #550, .F. ) ;
#550 = EDGE_CURVE ( 'NONE', #551, #548, #1321, .T. ) ;
#551 = VERTEX_POINT ( 'NONE', #1317 ) ;
#552 = ORIENTED_EDGE ( 'NONE', *, *, #553, .T. ) ;
#553 = EDGE_CURVE ( 'NONE', #551, #82, #1316, .T. ) ;
#554 = EDGE_CURVE ( 'NONE', #538, #104, #1378, .T. ) ;
#555 = ADVANCED_FACE ( 'NONE', ( #1374 ), #1373, .F. ) ;
#556 = EDGE_LOOP ( 'NONE', ( #557, #558, #559, #561 ) ) ;
#557 = ORIENTED_EDGE ( 'NONE', *, *, #93, .T. ) ;
#558 = ORIENTED_EDGE ( 'NONE', *, *, #554, .F. ) ;
#559 = ORIENTED_EDGE ( 'NONE', *, *, #560, .F. ) ;
#560 = EDGE_CURVE ( 'NONE', #416, #538, #1368, .T. ) ;
#561 = ORIENTED_EDGE ( 'NONE', *, *, #415, .T. ) ;
#562 = ADVANCED_FACE ( 'NONE', ( #1364 ), #1363, .F. ) ;
#563 = DIRECTION ( 'NONE',  ( 4.956352788505164300E-016, -1.000000000000000000, 0.0000000000000000000 ) ) ;
#564 = VECTOR ( 'NONE', #563, 1000.000000000000000 ) ;
#565 = CARTESIAN_POINT ( 'NONE',  ( 5.950000000000001100, 4.500000000000000000, 3.500000000000000000 ) ) ;
#566 = LINE ( 'NONE', #565, #564 ) ;
#567 = CARTESIAN_POINT ( 'NONE',  ( 5.950000000000001100, 4.500000000000000000, 3.500000000000000000 ) ) ;
#568 = DIRECTION ( 'NONE',  ( 1.000000000000000000, 0.0000000000000000000, 0.0000000000000000000 ) ) ;
#569 = DIRECTION ( 'NONE',  ( 0.0000000000000000000, 0.0000000000000000000, 1.000000000000000000 ) ) ;
#570 = CARTESIAN_POINT ( 'NONE',  ( 7.750000000000000000, 4.500000000000000000, 3.500000000000000000 ) ) ;
#571 = AXIS2_PLACEMENT_3D ( 'NONE', #570, #569, #568 ) ;
#572 = CIRCLE ( 'NONE', #571, 1.799999999999999600 ) ;
#573 = CARTESIAN_POINT ( 'NONE',  ( 7.750000000000000000, 2.699999999999999700, 3.500000000000000000 ) ) ;
#574 = DIRECTION ( 'NONE',  ( 1.000000000000000000, 0.0000000000000000000, 0.0000000000000000000 ) ) ;
#575 = VECTOR ( 'NONE', #574, 1000.000000000000000 ) ;
#576 = CARTESIAN_POINT ( 'NONE',  ( 7.750000000000000000, 2.699999999999999700, 3.500000000000000000 ) ) ;
#577 = LINE ( 'NONE', #576, #575 ) ;
#578 = CARTESIAN_POINT ( 'NONE',  ( 9.500000000000001800, 2.699999999999999700, 3.500000000000000000 ) ) ;
#579 = DIRECTION ( 'NONE',  ( 0.0000000000000000000, 1.000000000000000000, 0.0000000000000000000 ) ) ;
#580 = VECTOR ( 'NONE', #579, 1000.000000000000000 ) ;
#581 = CARTESIAN_POINT ( 'NONE',  ( 9.500000000000001800, 7.750000000000000000, 3.500000000000000000 ) ) ;
#582 = LINE ( 'NONE', #581, #580 ) ;
#583 = CARTESIAN_POINT ( 'NONE',  ( 9.500000000000001800, -4.699999999999999300, 3.500000000000000000 ) ) ;
#584 = DIRECTION ( 'NONE',  ( -1.000000000000000000, -4.956352788505159300E-016, 0.0000000000000000000 ) ) ;
#585 = VECTOR ( 'NONE', #584, 1000.000000000000000 ) ;
#586 = CARTESIAN_POINT ( 'NONE',  ( 7.750000000000000000, -4.700000000000000200, 3.500000000000000000 ) ) ;
#587 = LINE ( 'NONE', #586, #585 ) ;
#588 = CARTESIAN_POINT ( 'NONE',  ( 6.500000000000004400, -8.250000000000000000, 0.0000000000000000000 ) ) ;
#589 = CARTESIAN_POINT ( 'NONE',  ( 9.500000000000001800, -8.250000000000000000, 2.100000000000000100 ) ) ;
#590 = DIRECTION ( 'NONE',  ( -1.000000000000000000, 0.0000000000000000000, 0.0000000000000000000 ) ) ;
#591 = DIRECTION ( 'NONE',  ( 0.0000000000000000000, 0.0000000000000000000, -1.000000000000000000 ) ) ;
#592 = CARTESIAN_POINT ( 'NONE',  ( 7.750000000000000000, -6.500000000000000000, 3.500024999999999900 ) ) ;
#593 = AXIS2_PLACEMENT_3D ( 'NONE', #592, #591, #590 ) ;
#594 = CYLINDRICAL_SURFACE ( 'NONE', #593, 1.100000000000001200 ) ;
#595 = CARTESIAN_POINT ( 'NONE',  ( 7.750000000000000000, 4.500000000000000000, 0.0000000000000000000 ) ) ;
#596 = AXIS2_PLACEMENT_3D ( 'NONE', #595, #661, #660 ) ;
#597 = CIRCLE ( 'NONE', #596, 1.100000000000000300 ) ;
#598 = CARTESIAN_POINT ( 'NONE',  ( 1.500000000000005300, -37.75000000000000700, 2.950000000000000200 ) ) ;
#599 = CARTESIAN_POINT ( 'NONE',  ( 1.500000000000005600, -37.75000000000000700, 0.4499999999999994600 ) ) ;
#600 = DIRECTION ( 'NONE',  ( 0.0000000000000000000, 0.0000000000000000000, -1.000000000000000000 ) ) ;
#601 = DIRECTION ( 'NONE',  ( 0.0000000000000000000, -1.000000000000000000, 0.0000000000000000000 ) ) ;
#602 = CARTESIAN_POINT ( 'NONE',  ( 1.500000000000005300, -37.75000000000000700, 1.700000000000000000 ) ) ;
#603 = AXIS2_PLACEMENT_3D ( 'NONE', #602, #601, #600 ) ;
#604 = CIRCLE ( 'NONE', #603, 1.250000000000000400 ) ;
#605 = DIRECTION ( 'NONE',  ( 1.000000000000000000, 0.0000000000000000000, 0.0000000000000000000 ) ) ;
#606 = DIRECTION ( 'NONE',  ( 0.0000000000000000000, 0.0000000000000000000, 1.000000000000000000 ) ) ;
#607 = AXIS2_PLACEMENT_3D ( 'NONE', #613, #606, #605 ) ;
#608 = CIRCLE ( 'NONE', #607, 1.100000000000000300 ) ;
#609 = DIRECTION ( 'NONE',  ( -1.000000000000000000, 0.0000000000000000000, 0.0000000000000000000 ) ) ;
#610 = DIRECTION ( 'NONE',  ( 0.0000000000000000000, 0.0000000000000000000, -1.000000000000000000 ) ) ;
#611 = CARTESIAN_POINT ( 'NONE',  ( 7.750000000000000000, 4.500000000000000000, 3.500024999999999900 ) ) ;
#612 = AXIS2_PLACEMENT_3D ( 'NONE', #611, #610, #609 ) ;
#613 = CARTESIAN_POINT ( 'NONE',  ( 7.750000000000000000, 4.500000000000000000, 2.100000000000000100 ) ) ;
#614 = CYLINDRICAL_SURFACE ( 'NONE', #612, 1.100000000000001200 ) ;
#615 = FACE_OUTER_BOUND ( 'NONE', #66, .T. ) ;
#616 = DIRECTION ( 'NONE',  ( 1.000000000000000000, 0.0000000000000000000, 0.0000000000000000000 ) ) ;
#617 = DIRECTION ( 'NONE',  ( 0.0000000000000000000, 0.0000000000000000000, 1.000000000000000000 ) ) ;
#618 = CARTESIAN_POINT ( 'NONE',  ( 7.750000000000000000, -6.500000000000000000, 0.0000000000000000000 ) ) ;
#619 = AXIS2_PLACEMENT_3D ( 'NONE', #618, #617, #616 ) ;
#620 = CIRCLE ( 'NONE', #619, 1.100000000000000300 ) ;
#621 = DIRECTION ( 'NONE',  ( 1.000000000000000000, 0.0000000000000000000, 0.0000000000000000000 ) ) ;
#622 = DIRECTION ( 'NONE',  ( 0.0000000000000000000, 0.0000000000000000000, 1.000000000000000000 ) ) ;
#623 = CARTESIAN_POINT ( 'NONE',  ( 7.750000000000000000, -6.500000000000000000, 2.100000000000000100 ) ) ;
#624 = AXIS2_PLACEMENT_3D ( 'NONE', #623, #622, #621 ) ;
#625 = CIRCLE ( 'NONE', #624, 1.100000000000000300 ) ;
#626 = DIRECTION ( 'NONE',  ( -1.000000000000000000, 0.0000000000000000000, 0.0000000000000000000 ) ) ;
#627 = VECTOR ( 'NONE', #626, 1000.000000000000000 ) ;
#628 = CARTESIAN_POINT ( 'NONE',  ( 0.0000000000000000000, 7.450000000000000200, 3.500000000000000000 ) ) ;
#629 = LINE ( 'NONE', #628, #627 ) ;
#630 = DIRECTION ( 'NONE',  ( 0.0000000000000000000, -1.000000000000000000, 0.0000000000000000000 ) ) ;
#631 = VECTOR ( 'NONE', #630, 1000.000000000000000 ) ;
#632 = CARTESIAN_POINT ( 'NONE',  ( 0.0000000000000000000, 5.650000000000000400, 3.500000000000000000 ) ) ;
#633 = LINE ( 'NONE', #632, #631 ) ;
#634 = CARTESIAN_POINT ( 'NONE',  ( -0.6999999999999975100, 5.650000000000000400, 3.500000000000000000 ) ) ;
#635 = DIRECTION ( 'NONE',  ( -1.204669080539449800E-016, 1.000000000000000000, 0.0000000000000000000 ) ) ;
#636 = VECTOR ( 'NONE', #635, 1000.000000000000000 ) ;
#637 = CARTESIAN_POINT ( 'NONE',  ( -0.6999999999999977400, 7.450000000000000200, 3.500000000000000000 ) ) ;
#638 = LINE ( 'NONE', #637, #636 ) ;
#639 = CARTESIAN_POINT ( 'NONE',  ( -0.6999999999999977400, 7.450000000000000200, 3.500000000000000000 ) ) ;
#640 = DIRECTION ( 'NONE',  ( -1.000000000000000000, 0.0000000000000000000, 0.0000000000000000000 ) ) ;
#641 = VECTOR ( 'NONE', #640, 1000.000000000000000 ) ;
#642 = CARTESIAN_POINT ( 'NONE',  ( -2.699999999999998000, 7.450000000000000200, 3.500000000000000000 ) ) ;
#643 = LINE ( 'NONE', #642, #641 ) ;
#644 = CARTESIAN_POINT ( 'NONE',  ( -2.699999999999997500, 5.650000000000000400, 3.500000000000000000 ) ) ;
#645 = CARTESIAN_POINT ( 'NONE',  ( -2.699999999999998000, 7.450000000000000200, 3.500000000000000000 ) ) ;
#646 = DIRECTION ( 'NONE',  ( 2.409338161078899700E-016, -1.000000000000000000, 0.0000000000000000000 ) ) ;
#647 = VECTOR ( 'NONE', #646, 1000.000000000000000 ) ;
#648 = CARTESIAN_POINT ( 'NONE',  ( -2.699999999999998000, 7.450000000000000200, 3.500000000000000000 ) ) ;
#649 = LINE ( 'NONE', #648, #647 ) ;
#650 = DIRECTION ( 'NONE',  ( 1.000000000000000000, 0.0000000000000000000, 0.0000000000000000000 ) ) ;
#651 = DIRECTION ( 'NONE',  ( 0.0000000000000000000, 0.0000000000000000000, 1.000000000000000000 ) ) ;
#652 = CARTESIAN_POINT ( 'NONE',  ( -3.499999999999997800, 7.750000000000000000, 3.500000000000000000 ) ) ;
#653 = AXIS2_PLACEMENT_3D ( 'NONE', #652, #651, #650 ) ;
#654 = PLANE ( 'NONE',  #653 ) ;
#655 = FACE_BOUND ( 'NONE', #176, .T. ) ;
#656 = FACE_BOUND ( 'NONE', #5, .T. ) ;
#657 = FACE_OUTER_BOUND ( 'NONE', #109, .T. ) ;
#658 = FACE_BOUND ( 'NONE', #96, .T. ) ;
#659 = FACE_BOUND ( 'NONE', #79, .T. ) ;
#660 = DIRECTION ( 'NONE',  ( 1.000000000000000000, 0.0000000000000000000, 0.0000000000000000000 ) ) ;
#661 = DIRECTION ( 'NONE',  ( 0.0000000000000000000, 0.0000000000000000000, 1.000000000000000000 ) ) ;
#662 = VECTOR ( 'NONE', #1080, 1000.000000000000000 ) ;
#663 = DIRECTION ( 'NONE',  ( 0.0000000000000000000, -1.000000000000000000, 0.0000000000000000000 ) ) ;
#664 = VECTOR ( 'NONE', #663, 1000.000000000000000 ) ;
#665 = CARTESIAN_POINT ( 'NONE',  ( 6.500000000000004400, -8.250000000000000000, 3.500000000000000000 ) ) ;
#666 = LINE ( 'NONE', #665, #664 ) ;
#667 = DIRECTION ( 'NONE',  ( 0.0000000000000000000, 0.0000000000000000000, 1.000000000000000000 ) ) ;
#668 = DIRECTION ( 'NONE',  ( 0.0000000000000000000, 1.000000000000000000, 0.0000000000000000000 ) ) ;
#669 = CARTESIAN_POINT ( 'NONE',  ( -3.499999999999995600, -8.250000000000000000, 3.500000000000000000 ) ) ;
#670 = AXIS2_PLACEMENT_3D ( 'NONE', #669, #668, #667 ) ;
#671 = PLANE ( 'NONE',  #670 ) ;
#672 = FACE_OUTER_BOUND ( 'NONE', #107, .T. ) ;
#673 = DIRECTION ( 'NONE',  ( 1.000000000000000000, 0.0000000000000000000, 0.0000000000000000000 ) ) ;
#674 = VECTOR ( 'NONE', #673, 1000.000000000000000 ) ;
#675 = CARTESIAN_POINT ( 'NONE',  ( 7.328692511341184700, -8.250000000000000000, 2.100000000000000100 ) ) ;
#676 = LINE ( 'NONE', #675, #674 ) ;
#677 = CARTESIAN_POINT ( 'NONE',  ( 0.0000000000000000000, 7.450000000000000200, 3.500000000000000000 ) ) ;
#678 = CARTESIAN_POINT ( 'NONE',  ( 0.0000000000000000000, 5.650000000000000400, 3.500000000000000000 ) ) ;
#679 = DIRECTION ( 'NONE',  ( 1.000000000000000000, 0.0000000000000000000, 0.0000000000000000000 ) ) ;
#680 = VECTOR ( 'NONE', #679, 1000.000000000000000 ) ;
#681 = CARTESIAN_POINT ( 'NONE',  ( 2.000000000000000400, 5.650000000000000400, 3.500000000000000000 ) ) ;
#682 = LINE ( 'NONE', #681, #680 ) ;
#683 = CARTESIAN_POINT ( 'NONE',  ( 2.000000000000000000, 7.450000000000000200, 3.500000000000000000 ) ) ;
#684 = CARTESIAN_POINT ( 'NONE',  ( 2.000000000000000400, 5.650000000000000400, 3.500000000000000000 ) ) ;
#685 = DIRECTION ( 'NONE',  ( -2.409338161078899700E-016, 1.000000000000000000, 0.0000000000000000000 ) ) ;
#686 = VECTOR ( 'NONE', #685, 1000.000000000000000 ) ;
#687 = CARTESIAN_POINT ( 'NONE',  ( 2.000000000000000000, 7.450000000000000200, 3.500000000000000000 ) ) ;
#688 = LINE ( 'NONE', #687, #686 ) ;
#689 = DIRECTION ( 'NONE',  ( 1.000000000000000000, 0.0000000000000000000, 0.0000000000000000000 ) ) ;
#690 = VECTOR ( 'NONE', #689, 1000.000000000000000 ) ;
#691 = CARTESIAN_POINT ( 'NONE',  ( -2.699999999999997500, 5.650000000000000400, 3.500000000000000000 ) ) ;
#692 = LINE ( 'NONE', #691, #690 ) ;
#693 = DIRECTION ( 'NONE',  ( 1.000000000000000000, 0.0000000000000000000, 0.0000000000000000000 ) ) ;
#694 = DIRECTION ( 'NONE',  ( 0.0000000000000000000, 0.0000000000000000000, 1.000000000000000000 ) ) ;
#695 = CARTESIAN_POINT ( 'NONE',  ( 5.000000000000000000, 0.0000000000000000000, 3.400000000000000400 ) ) ;
#696 = AXIS2_PLACEMENT_3D ( 'NONE', #695, #694, #693 ) ;
#697 = CYLINDRICAL_SURFACE ( 'NONE', #696, 1.250000000000000200 ) ;
#698 = FACE_OUTER_BOUND ( 'NONE', #230, .T. ) ;
#699 = DIRECTION ( 'NONE',  ( 0.0000000000000000000, 1.000000000000000000, 0.0000000000000000000 ) ) ;
#700 = VECTOR ( 'NONE', #699, 1000.000000000000000 ) ;
#701 = CARTESIAN_POINT ( 'NONE',  ( 1.500000000000005300, -37.75000000000000700, 2.950000000000000200 ) ) ;
#702 = LINE ( 'NONE', #701, #700 ) ;
#703 = CARTESIAN_POINT ( 'NONE',  ( 1.500000000000005300, -12.75000000000000200, 2.950000000000000200 ) ) ;
#704 = DIRECTION ( 'NONE',  ( 0.0000000000000000000, 0.0000000000000000000, 1.000000000000000000 ) ) ;
#705 = DIRECTION ( 'NONE',  ( 0.0000000000000000000, -1.000000000000000000, 0.0000000000000000000 ) ) ;
#706 = CARTESIAN_POINT ( 'NONE',  ( 1.500000000000005300, -12.75000000000000200, 1.700000000000000000 ) ) ;
#707 = AXIS2_PLACEMENT_3D ( 'NONE', #706, #705, #704 ) ;
#708 = CIRCLE ( 'NONE', #707, 1.250000000000000400 ) ;
#709 = CARTESIAN_POINT ( 'NONE',  ( 1.500000000000005600, -12.75000000000000200, 0.4499999999999994600 ) ) ;
#710 = DIRECTION ( 'NONE',  ( 0.0000000000000000000, 1.000000000000000000, 0.0000000000000000000 ) ) ;
#711 = VECTOR ( 'NONE', #710, 1000.000000000000000 ) ;
#712 = CARTESIAN_POINT ( 'NONE',  ( 1.500000000000005600, -37.75000000000000700, 0.4499999999999994600 ) ) ;
#713 = LINE ( 'NONE', #712, #711 ) ;
#714 = CARTESIAN_POINT ( 'NONE',  ( 6.649999999999998600, 4.500000000000000000, 0.0000000000000000000 ) ) ;
#715 = DIRECTION ( 'NONE',  ( 1.000000000000000000, 0.0000000000000000000, 0.0000000000000000000 ) ) ;
#716 = DIRECTION ( 'NONE',  ( 0.0000000000000000000, 0.0000000000000000000, 1.000000000000000000 ) ) ;
#717 = CARTESIAN_POINT ( 'NONE',  ( 7.750000000000000000, 4.500000000000000000, 0.0000000000000000000 ) ) ;
#718 = AXIS2_PLACEMENT_3D ( 'NONE', #717, #716, #715 ) ;
#719 = CIRCLE ( 'NONE', #718, 1.100000000000000300 ) ;
#720 = CARTESIAN_POINT ( 'NONE',  ( 8.849999999999999600, 4.500000000000000000, 0.0000000000000000000 ) ) ;
#721 = DIRECTION ( 'NONE',  ( 0.0000000000000000000, 0.0000000000000000000, -1.000000000000000000 ) ) ;
#722 = VECTOR ( 'NONE', #721, 1000.000000000000000 ) ;
#723 = CARTESIAN_POINT ( 'NONE',  ( 8.849999999999999600, 4.500000000000000000, 3.500024999999999900 ) ) ;
#724 = LINE ( 'NONE', #723, #722 ) ;
#725 = CARTESIAN_POINT ( 'NONE',  ( 8.849999999999999600, 4.500000000000000000, 2.100000000000000100 ) ) ;
#726 = CARTESIAN_POINT ( 'NONE',  ( 6.649999999999998600, 4.500000000000000000, 2.100000000000000100 ) ) ;
#727 = DIRECTION ( 'NONE',  ( 1.000000000000000000, 0.0000000000000000000, 0.0000000000000000000 ) ) ;
#728 = DIRECTION ( 'NONE',  ( 0.0000000000000000000, 0.0000000000000000000, 1.000000000000000000 ) ) ;
#729 = AXIS2_PLACEMENT_3D ( 'NONE', #736, #728, #727 ) ;
#730 = CIRCLE ( 'NONE', #729, 1.100000000000000300 ) ;
#731 = DIRECTION ( 'NONE',  ( -1.000000000000000000, 0.0000000000000000000, 0.0000000000000000000 ) ) ;
#732 = DIRECTION ( 'NONE',  ( 0.0000000000000000000, 0.0000000000000000000, -1.000000000000000000 ) ) ;
#733 = CARTESIAN_POINT ( 'NONE',  ( 7.750000000000000000, 4.500000000000000000, 3.500024999999999900 ) ) ;
#734 = AXIS2_PLACEMENT_3D ( 'NONE', #733, #732, #731 ) ;
#735 = CYLINDRICAL_SURFACE ( 'NONE', #734, 1.100000000000001200 ) ;
#736 = CARTESIAN_POINT ( 'NONE',  ( 7.750000000000000000, 4.500000000000000000, 2.100000000000000100 ) ) ;
#737 = FACE_OUTER_BOUND ( 'NONE', #211, .T. ) ;
#738 = DIRECTION ( 'NONE',  ( 0.0000000000000000000, 0.0000000000000000000, 1.000000000000000000 ) ) ;
#739 = VECTOR ( 'NONE', #738, 1000.000000000000000 ) ;
#740 = CARTESIAN_POINT ( 'NONE',  ( 1.250000000000000000, 0.0000000000000000000, 3.400000000000000400 ) ) ;
#741 = LINE ( 'NONE', #740, #739 ) ;
#742 = DIRECTION ( 'NONE',  ( 1.000000000000000000, 0.0000000000000000000, 0.0000000000000000000 ) ) ;
#743 = DIRECTION ( 'NONE',  ( 0.0000000000000000000, 0.0000000000000000000, 1.000000000000000000 ) ) ;
#744 = CARTESIAN_POINT ( 'NONE',  ( 0.0000000000000000000, 0.0000000000000000000, 3.500000000000000000 ) ) ;
#745 = AXIS2_PLACEMENT_3D ( 'NONE', #744, #743, #742 ) ;
#746 = CIRCLE ( 'NONE', #745, 1.250000000000000000 ) ;
#747 = CARTESIAN_POINT ( 'NONE',  ( 8.849999999999999600, -6.500000000000000000, 0.0000000000000000000 ) ) ;
#748 = DIRECTION ( 'NONE',  ( 0.0000000000000000000, 0.0000000000000000000, -1.000000000000000000 ) ) ;
#749 = VECTOR ( 'NONE', #748, 1000.000000000000000 ) ;
#750 = CARTESIAN_POINT ( 'NONE',  ( 8.849999999999999600, -6.500000000000000000, 3.500024999999999900 ) ) ;
#751 = LINE ( 'NONE', #750, #749 ) ;
#752 = CARTESIAN_POINT ( 'NONE',  ( 8.849999999999999600, -6.500000000000000000, 2.100000000000000100 ) ) ;
#753 = CARTESIAN_POINT ( 'NONE',  ( 6.649999999999998600, -6.500000000000000000, 2.100000000000000100 ) ) ;
#754 = DIRECTION ( 'NONE',  ( 1.000000000000000000, 0.0000000000000000000, 0.0000000000000000000 ) ) ;
#755 = DIRECTION ( 'NONE',  ( 0.0000000000000000000, 0.0000000000000000000, 1.000000000000000000 ) ) ;
#756 = CARTESIAN_POINT ( 'NONE',  ( 7.750000000000000000, -6.500000000000000000, 2.100000000000000100 ) ) ;
#757 = AXIS2_PLACEMENT_3D ( 'NONE', #756, #755, #754 ) ;
#758 = CIRCLE ( 'NONE', #757, 1.100000000000000300 ) ;
#759 = DIRECTION ( 'NONE',  ( -1.000000000000000000, 0.0000000000000000000, 0.0000000000000000000 ) ) ;
#760 = DIRECTION ( 'NONE',  ( 0.0000000000000000000, 0.0000000000000000000, -1.000000000000000000 ) ) ;
#761 = CARTESIAN_POINT ( 'NONE',  ( 7.750000000000000000, -6.500000000000000000, 3.500024999999999900 ) ) ;
#762 = AXIS2_PLACEMENT_3D ( 'NONE', #761, #760, #759 ) ;
#763 = CYLINDRICAL_SURFACE ( 'NONE', #762, 1.100000000000001200 ) ;
#764 = FACE_OUTER_BOUND ( 'NONE', #198, .T. ) ;
#765 = DIRECTION ( 'NONE',  ( 0.0000000000000000000, 0.0000000000000000000, -1.000000000000000000 ) ) ;
#766 = VECTOR ( 'NONE', #765, 1000.000000000000000 ) ;
#767 = CARTESIAN_POINT ( 'NONE',  ( 6.649999999999998600, 4.500000000000000000, 3.500024999999999900 ) ) ;
#768 = LINE ( 'NONE', #767, #766 ) ;
#769 = CARTESIAN_POINT ( 'NONE',  ( 4.401615538302524800, -12.75000000000000200, 3.399999999999999900 ) ) ;
#770 = DIRECTION ( 'NONE',  ( 0.0000000000000000000, 0.0000000000000000000, -1.000000000000000000 ) ) ;
#771 = VECTOR ( 'NONE', #770, 1000.000000000000000 ) ;
#772 = CARTESIAN_POINT ( 'NONE',  ( 4.401615538302524800, -12.75000000000000200, 3.399999999999999900 ) ) ;
#773 = LINE ( 'NONE', #772, #771 ) ;
#774 = CARTESIAN_POINT ( 'NONE',  ( 4.401615538302524800, -12.75000000000000200, 0.0000000000000000000 ) ) ;
#775 = CARTESIAN_POINT ( 'NONE',  ( -1.401615538302515100, -12.75000000000000200, 0.0000000000000000000 ) ) ;
#776 = DIRECTION ( 'NONE',  ( 1.000000000000000000, 0.0000000000000000000, 0.0000000000000000000 ) ) ;
#777 = VECTOR ( 'NONE', #776, 1000.000000000000000 ) ;
#778 = CARTESIAN_POINT ( 'NONE',  ( -1.401615538302515100, -12.75000000000000200, 0.0000000000000000000 ) ) ;
#779 = LINE ( 'NONE', #778, #777 ) ;
#780 = DIRECTION ( 'NONE',  ( 0.0000000000000000000, 0.0000000000000000000, 1.000000000000000000 ) ) ;
#781 = DIRECTION ( 'NONE',  ( 0.0000000000000000000, 1.000000000000000000, 0.0000000000000000000 ) ) ;
#782 = CARTESIAN_POINT ( 'NONE',  ( -1.401615538302515100, -12.75000000000000200, 3.399999999999999900 ) ) ;
#783 = AXIS2_PLACEMENT_3D ( 'NONE', #782, #781, #780 ) ;
#784 = PLANE ( 'NONE',  #783 ) ;
#785 = FACE_BOUND ( 'NONE', #6, .T. ) ;
#786 = FACE_OUTER_BOUND ( 'NONE', #187, .T. ) ;
#787 = DIRECTION ( 'NONE',  ( 0.0000000000000000000, 0.0000000000000000000, -1.000000000000000000 ) ) ;
#788 = VECTOR ( 'NONE', #787, 1000.000000000000000 ) ;
#789 = CARTESIAN_POINT ( 'NONE',  ( 6.649999999999998600, -6.500000000000000000, 3.500024999999999900 ) ) ;
#790 = LINE ( 'NONE', #789, #788 ) ;
#791 = CARTESIAN_POINT ( 'NONE',  ( 6.649999999999998600, -6.500000000000000000, 0.0000000000000000000 ) ) ;
#792 = DIRECTION ( 'NONE',  ( 1.000000000000000000, 0.0000000000000000000, 0.0000000000000000000 ) ) ;
#793 = DIRECTION ( 'NONE',  ( 0.0000000000000000000, 0.0000000000000000000, 1.000000000000000000 ) ) ;
#794 = CARTESIAN_POINT ( 'NONE',  ( 7.750000000000000000, -6.500000000000000000, 0.0000000000000000000 ) ) ;
#795 = AXIS2_PLACEMENT_3D ( 'NONE', #794, #793, #792 ) ;
#796 = CIRCLE ( 'NONE', #795, 1.100000000000000300 ) ;
#797 = DIRECTION ( 'NONE',  ( 1.000000000000000000, 0.0000000000000000000, 0.0000000000000000000 ) ) ;
#798 = DIRECTION ( 'NONE',  ( 0.0000000000000000000, 0.0000000000000000000, 1.000000000000000000 ) ) ;
#799 = CARTESIAN_POINT ( 'NONE',  ( 5.000000000000000000, 0.0000000000000000000, 3.500000000000000000 ) ) ;
#800 = AXIS2_PLACEMENT_3D ( 'NONE', #799, #798, #797 ) ;
#801 = CIRCLE ( 'NONE', #800, 1.250000000000000200 ) ;
#802 = DIRECTION ( 'NONE',  ( 1.000000000000000000, 0.0000000000000000000, 0.0000000000000000000 ) ) ;
#803 = DIRECTION ( 'NONE',  ( 0.0000000000000000000, 0.0000000000000000000, 1.000000000000000000 ) ) ;
#804 = CARTESIAN_POINT ( 'NONE',  ( -3.499999999999997800, 7.750000000000000000, 0.0000000000000000000 ) ) ;
#805 = AXIS2_PLACEMENT_3D ( 'NONE', #804, #803, #802 ) ;
#806 = PLANE ( 'NONE',  #805 ) ;
#807 = FACE_BOUND ( 'NONE', #151, .T. ) ;
#808 = FACE_OUTER_BOUND ( 'NONE', #175, .T. ) ;
#809 = FACE_BOUND ( 'NONE', #177, .T. ) ;
#810 = DIRECTION ( 'NONE',  ( 1.000000000000000000, 0.0000000000000000000, 0.0000000000000000000 ) ) ;
#811 = DIRECTION ( 'NONE',  ( 0.0000000000000000000, 0.0000000000000000000, 1.000000000000000000 ) ) ;
#812 = CARTESIAN_POINT ( 'NONE',  ( 0.0000000000000000000, 0.0000000000000000000, 3.500000000000000000 ) ) ;
#813 = AXIS2_PLACEMENT_3D ( 'NONE', #812, #811, #810 ) ;
#814 = CIRCLE ( 'NONE', #813, 1.250000000000000000 ) ;
#815 = DIRECTION ( 'NONE',  ( 0.4226182617406972800, -0.9063077870366510500, 0.0000000000000000000 ) ) ;
#816 = VECTOR ( 'NONE', #815, 1000.000000000000100 ) ;
#817 = CARTESIAN_POINT ( 'NONE',  ( -3.499999999999995600, -8.250000000000000000, 0.0000000000000000000 ) ) ;
#818 = LINE ( 'NONE', #817, #816 ) ;
#819 = DIRECTION ( 'NONE',  ( 0.4226182617406970000, 0.9063077870366511600, 0.0000000000000000000 ) ) ;
#820 = VECTOR ( 'NONE', #819, 1000.000000000000100 ) ;
#821 = CARTESIAN_POINT ( 'NONE',  ( 6.500000000000004400, -8.250000000000000000, 0.0000000000000000000 ) ) ;
#822 = LINE ( 'NONE', #821, #820 ) ;
#823 = CARTESIAN_POINT ( 'NONE',  ( 7.750000000000000000, -6.500000000000000000, 2.100000000000000100 ) ) ;
#824 = AXIS2_PLACEMENT_3D ( 'NONE', #823, #827, #934 ) ;
#825 = CYLINDRICAL_SURFACE ( 'NONE', #824, 1.799999999999999600 ) ;
#826 = LINE ( 'NONE', #933, #932 ) ;
#827 = DIRECTION ( 'NONE',  ( 0.0000000000000000000, 0.0000000000000000000, 1.000000000000000000 ) ) ;
#828 = FACE_OUTER_BOUND ( 'NONE', #257, .T. ) ;
#829 = CARTESIAN_POINT ( 'NONE',  ( 5.950000000000001100, 4.500000000000000000, 2.100000000000000100 ) ) ;
#830 = DIRECTION ( 'NONE',  ( 1.000000000000000000, 0.0000000000000000000, 0.0000000000000000000 ) ) ;
#831 = DIRECTION ( 'NONE',  ( 0.0000000000000000000, 0.0000000000000000000, 1.000000000000000000 ) ) ;
#832 = CARTESIAN_POINT ( 'NONE',  ( 7.750000000000000000, 4.500000000000000000, 2.100000000000000100 ) ) ;
#833 = AXIS2_PLACEMENT_3D ( 'NONE', #832, #831, #830 ) ;
#834 = CIRCLE ( 'NONE', #833, 1.799999999999999600 ) ;
#835 = CARTESIAN_POINT ( 'NONE',  ( 7.750000000000000000, 2.699999999999999700, 2.100000000000000100 ) ) ;
#836 = DIRECTION ( 'NONE',  ( 0.0000000000000000000, 0.0000000000000000000, 1.000000000000000000 ) ) ;
#837 = VECTOR ( 'NONE', #836, 1000.000000000000000 ) ;
#838 = CARTESIAN_POINT ( 'NONE',  ( 7.750000000000000000, 2.699999999999999700, 2.100000000000000100 ) ) ;
#839 = LINE ( 'NONE', #838, #837 ) ;
#840 = DIRECTION ( 'NONE',  ( 1.000000000000000000, 0.0000000000000000000, 0.0000000000000000000 ) ) ;
#841 = DIRECTION ( 'NONE',  ( 0.0000000000000000000, 0.0000000000000000000, 1.000000000000000000 ) ) ;
#842 = CARTESIAN_POINT ( 'NONE',  ( 7.750000000000000000, 4.500000000000000000, 2.100000000000000100 ) ) ;
#843 = AXIS2_PLACEMENT_3D ( 'NONE', #842, #841, #840 ) ;
#844 = CYLINDRICAL_SURFACE ( 'NONE', #843, 1.799999999999999600 ) ;
#845 = FACE_OUTER_BOUND ( 'NONE', #239, .T. ) ;
#846 = DIRECTION ( 'NONE',  ( 0.0000000000000000000, 0.0000000000000000000, 1.000000000000000000 ) ) ;
#847 = VECTOR ( 'NONE', #846, 1000.000000000000000 ) ;
#848 = CARTESIAN_POINT ( 'NONE',  ( 3.750000000000000000, 1.530757942277971600E-016, 3.400000000000000400 ) ) ;
#849 = LINE ( 'NONE', #848, #847 ) ;
#850 = CARTESIAN_POINT ( 'NONE',  ( 6.250000000000000000, 0.0000000000000000000, 3.400000000000000400 ) ) ;
#851 = CARTESIAN_POINT ( 'NONE',  ( 3.750000000000000000, 1.530757942277971300E-016, 3.400000000000000400 ) ) ;
#852 = DIRECTION ( 'NONE',  ( 1.000000000000000000, 0.0000000000000000000, 0.0000000000000000000 ) ) ;
#853 = DIRECTION ( 'NONE',  ( 0.0000000000000000000, 0.0000000000000000000, 1.000000000000000000 ) ) ;
#854 = CARTESIAN_POINT ( 'NONE',  ( 5.000000000000000000, 0.0000000000000000000, 3.400000000000000400 ) ) ;
#855 = AXIS2_PLACEMENT_3D ( 'NONE', #854, #853, #852 ) ;
#856 = CIRCLE ( 'NONE', #855, 1.250000000000000200 ) ;
#857 = CARTESIAN_POINT ( 'NONE',  ( -3.499999999999995600, -8.250000000000000000, 3.399999999999999900 ) ) ;
#858 = LINE ( 'NONE', #857, #921 ) ;
#859 = DIRECTION ( 'NONE',  ( 0.0000000000000000000, 0.0000000000000000000, 1.000000000000000000 ) ) ;
#860 = DIRECTION ( 'NONE',  ( 0.0000000000000000000, 1.000000000000000000, 0.0000000000000000000 ) ) ;
#861 = CARTESIAN_POINT ( 'NONE',  ( -3.499999999999995600, -8.250000000000000000, 3.500000000000000000 ) ) ;
#862 = AXIS2_PLACEMENT_3D ( 'NONE', #861, #860, #859 ) ;
#863 = PLANE ( 'NONE',  #862 ) ;
#864 = FACE_OUTER_BOUND ( 'NONE', #140, .T. ) ;
#865 = DIRECTION ( 'NONE',  ( 0.0000000000000000000, 0.0000000000000000000, -1.000000000000000000 ) ) ;
#866 = VECTOR ( 'NONE', #865, 1000.000000000000000 ) ;
#867 = CARTESIAN_POINT ( 'NONE',  ( -3.499999999999997800, 7.750000000000000000, 3.500000000000000000 ) ) ;
#868 = LINE ( 'NONE', #867, #866 ) ;
#869 = DIRECTION ( 'NONE',  ( 0.0000000000000000000, 0.0000000000000000000, -1.000000000000000000 ) ) ;
#870 = VECTOR ( 'NONE', #869, 1000.000000000000000 ) ;
#871 = CARTESIAN_POINT ( 'NONE',  ( 2.950000000000002000, 7.750000000000000000, 3.500024999999999900 ) ) ;
#872 = LINE ( 'NONE', #871, #870 ) ;
#873 = DIRECTION ( 'NONE',  ( 0.0000000000000000000, 0.0000000000000000000, -1.000000000000000000 ) ) ;
#874 = DIRECTION ( 'NONE',  ( 0.0000000000000000000, -1.000000000000000000, 0.0000000000000000000 ) ) ;
#875 = CARTESIAN_POINT ( 'NONE',  ( -3.499999999999997800, 7.750000000000000000, 3.500000000000000000 ) ) ;
#876 = AXIS2_PLACEMENT_3D ( 'NONE', #875, #874, #873 ) ;
#877 = PLANE ( 'NONE',  #876 ) ;
#878 = FACE_OUTER_BOUND ( 'NONE', #132, .T. ) ;
#879 = DIRECTION ( 'NONE',  ( 0.0000000000000000000, 0.0000000000000000000, 1.000000000000000000 ) ) ;
#880 = VECTOR ( 'NONE', #879, 1000.000000000000000 ) ;
#881 = CARTESIAN_POINT ( 'NONE',  ( 9.500000000000001800, 2.699999999999999700, 2.100000000000000100 ) ) ;
#882 = LINE ( 'NONE', #881, #880 ) ;
#883 = CARTESIAN_POINT ( 'NONE',  ( 9.500000000000001800, 2.699999999999999700, 2.100000000000000100 ) ) ;
#884 = DIRECTION ( 'NONE',  ( 0.0000000000000000000, 1.000000000000000000, 0.0000000000000000000 ) ) ;
#885 = VECTOR ( 'NONE', #884, 1000.000000000000000 ) ;
#886 = CARTESIAN_POINT ( 'NONE',  ( 9.500000000000001800, 2.699999999999999700, 2.100000000000000100 ) ) ;
#887 = LINE ( 'NONE', #886, #885 ) ;
#888 = DIRECTION ( 'NONE',  ( 0.0000000000000000000, 1.000000000000000000, 0.0000000000000000000 ) ) ;
#889 = VECTOR ( 'NONE', #888, 1000.000000000000000 ) ;
#890 = CARTESIAN_POINT ( 'NONE',  ( 9.500000000000001800, 7.750000000000000000, 0.0000000000000000000 ) ) ;
#891 = LINE ( 'NONE', #890, #889 ) ;
#892 = CARTESIAN_POINT ( 'NONE',  ( 9.500000000000001800, 6.250000000000000000, 0.0000000000000000000 ) ) ;
#893 = DIRECTION ( 'NONE',  ( 1.000000000000000000, 1.324216393875425600E-016, 0.0000000000000000000 ) ) ;
#894 = VECTOR ( 'NONE', #893, 1000.000000000000000 ) ;
#895 = CARTESIAN_POINT ( 'NONE',  ( 9.500000000000001800, 6.250000000000000900, 0.0000000000000000000 ) ) ;
#896 = LINE ( 'NONE', #895, #894 ) ;
#897 = CARTESIAN_POINT ( 'NONE',  ( 2.950000000000002400, 6.250000000000000000, 0.0000000000000000000 ) ) ;
#898 = CARTESIAN_POINT ( 'NONE',  ( 2.950000000000002000, 7.750000000000000000, 0.0000000000000000000 ) ) ;
#899 = DIRECTION ( 'NONE',  ( 2.891205793294679300E-016, -1.000000000000000000, 0.0000000000000000000 ) ) ;
#900 = VECTOR ( 'NONE', #899, 1000.000000000000000 ) ;
#901 = CARTESIAN_POINT ( 'NONE',  ( 2.950000000000002000, 7.750000000000000000, 0.0000000000000000000 ) ) ;
#902 = LINE ( 'NONE', #901, #900 ) ;
#903 = DIRECTION ( 'NONE',  ( 0.0000000000000000000, 0.0000000000000000000, 1.000000000000000000 ) ) ;
#904 = DIRECTION ( 'NONE',  ( -1.000000000000000000, 0.0000000000000000000, 0.0000000000000000000 ) ) ;
#905 = CARTESIAN_POINT ( 'NONE',  ( 9.500000000000001800, 7.750000000000000000, 3.500000000000000000 ) ) ;
#906 = AXIS2_PLACEMENT_3D ( 'NONE', #905, #904, #903 ) ;
#907 = PLANE ( 'NONE',  #906 ) ;
#908 = FACE_OUTER_BOUND ( 'NONE', #340, .T. ) ;
#909 = DIRECTION ( 'NONE',  ( -1.000000000000000000, 0.0000000000000000000, 0.0000000000000000000 ) ) ;
#910 = VECTOR ( 'NONE', #909, 1000.000000000000000 ) ;
#911 = CARTESIAN_POINT ( 'NONE',  ( -3.499999999999997800, 7.750000000000000000, 0.0000000000000000000 ) ) ;
#912 = LINE ( 'NONE', #911, #910 ) ;
#913 = CARTESIAN_POINT ( 'NONE',  ( -3.499999999999997800, 7.750000000000000000, 0.0000000000000000000 ) ) ;
#914 = DIRECTION ( 'NONE',  ( 1.355252715606880500E-016, -1.000000000000000000, 0.0000000000000000000 ) ) ;
#915 = VECTOR ( 'NONE', #914, 1000.000000000000000 ) ;
#916 = CARTESIAN_POINT ( 'NONE',  ( -3.499999999999997800, 7.750000000000000000, 0.0000000000000000000 ) ) ;
#917 = LINE ( 'NONE', #916, #915 ) ;
#918 = CARTESIAN_POINT ( 'NONE',  ( -3.499999999999995600, -8.250000000000000000, 0.0000000000000000000 ) ) ;
#919 = CARTESIAN_POINT ( 'NONE',  ( 6.500000000000004400, -8.250000000000000000, 3.399999999999999900 ) ) ;
#920 = DIRECTION ( 'NONE',  ( -1.000000000000000000, 0.0000000000000000000, 0.0000000000000000000 ) ) ;
#921 = VECTOR ( 'NONE', #920, 1000.000000000000000 ) ;
#922 = CARTESIAN_POINT ( 'NONE',  ( 6.500000000000004400, -7.795183384698865400, -0.9342805001439735700 ) ) ;
#923 = LINE ( 'NONE', #922, #662 ) ;
#924 = DIRECTION ( 'NONE',  ( 1.000000000000000000, 0.0000000000000000000, 0.0000000000000000000 ) ) ;
#925 = DIRECTION ( 'NONE',  ( 0.0000000000000000000, 0.0000000000000000000, 1.000000000000000000 ) ) ;
#926 = CARTESIAN_POINT ( 'NONE',  ( 7.750000000000000000, 4.500000000000000000, 2.100000000000000100 ) ) ;
#927 = AXIS2_PLACEMENT_3D ( 'NONE', #926, #925, #924 ) ;
#928 = PLANE ( 'NONE',  #927 ) ;
#929 = FACE_OUTER_BOUND ( 'NONE', #250, .T. ) ;
#930 = FACE_BOUND ( 'NONE', #247, .T. ) ;
#931 = DIRECTION ( 'NONE',  ( 1.000000000000000000, 0.0000000000000000000, 0.0000000000000000000 ) ) ;
#932 = VECTOR ( 'NONE', #931, 1000.000000000000000 ) ;
#933 = CARTESIAN_POINT ( 'NONE',  ( 7.750000000000000000, 2.699999999999999700, 2.100000000000000100 ) ) ;
#934 = DIRECTION ( 'NONE',  ( 1.000000000000000000, 0.0000000000000000000, 0.0000000000000000000 ) ) ;
#935 = CARTESIAN_POINT ( 'NONE',  ( 9.500000000000001800, 6.250000000000000900, 2.100000000000000100 ) ) ;
#936 = DIRECTION ( 'NONE',  ( 0.0000000000000000000, 0.0000000000000000000, -1.000000000000000000 ) ) ;
#937 = VECTOR ( 'NONE', #936, 1000.000000000000000 ) ;
#938 = CARTESIAN_POINT ( 'NONE',  ( 9.500000000000001800, 6.250000000000000900, 3.500024999999999900 ) ) ;
#939 = LINE ( 'NONE', #938, #937 ) ;
#940 = DIRECTION ( 'NONE',  ( 0.0000000000000000000, 1.000000000000000000, 0.0000000000000000000 ) ) ;
#941 = VECTOR ( 'NONE', #940, 1000.000000000000000 ) ;
#942 = CARTESIAN_POINT ( 'NONE',  ( 9.500000000000001800, -8.250000000000000000, 2.100000000000000100 ) ) ;
#943 = LINE ( 'NONE', #942, #941 ) ;
#944 = CARTESIAN_POINT ( 'NONE',  ( 9.500000000000001800, -4.699999999999999300, 2.100000000000000100 ) ) ;
#945 = DIRECTION ( 'NONE',  ( 0.0000000000000000000, 0.0000000000000000000, 1.000000000000000000 ) ) ;
#946 = VECTOR ( 'NONE', #945, 1000.000000000000000 ) ;
#947 = CARTESIAN_POINT ( 'NONE',  ( 9.500000000000001800, -4.699999999999999300, 2.100000000000000100 ) ) ;
#948 = LINE ( 'NONE', #947, #946 ) ;
#949 = DIRECTION ( 'NONE',  ( 0.0000000000000000000, 0.0000000000000000000, -1.000000000000000000 ) ) ;
#950 = VECTOR ( 'NONE', #949, 1000.000000000000000 ) ;
#951 = CARTESIAN_POINT ( 'NONE',  ( -3.499999999999995600, -8.250000000000000000, 3.399999999999999900 ) ) ;
#952 = LINE ( 'NONE', #951, #950 ) ;
#953 = CIRCLE ( 'NONE', #982, 1.799999999999999600 ) ;
#954 = FACE_BOUND ( 'NONE', #393, .T. ) ;
#955 = FACE_OUTER_BOUND ( 'NONE', #287, .T. ) ;
#956 = DIRECTION ( 'NONE',  ( -1.000000000000000000, -4.956352788505159300E-016, 0.0000000000000000000 ) ) ;
#957 = VECTOR ( 'NONE', #956, 1000.000000000000000 ) ;
#958 = CARTESIAN_POINT ( 'NONE',  ( 7.750000000000000000, -4.700000000000000200, 2.100000000000000100 ) ) ;
#959 = LINE ( 'NONE', #958, #957 ) ;
#960 = DIRECTION ( 'NONE',  ( -1.000000000000000000, -4.956352788505159300E-016, 0.0000000000000000000 ) ) ;
#961 = DIRECTION ( 'NONE',  ( -4.956352788505159300E-016, 1.000000000000000000, 0.0000000000000000000 ) ) ;
#962 = CARTESIAN_POINT ( 'NONE',  ( 7.750000000000000000, -4.700000000000000200, 2.100000000000000100 ) ) ;
#963 = AXIS2_PLACEMENT_3D ( 'NONE', #962, #961, #960 ) ;
#964 = DIRECTION ( 'NONE',  ( 1.000000000000000000, 0.0000000000000000000, 0.0000000000000000000 ) ) ;
#965 = DIRECTION ( 'NONE',  ( 0.0000000000000000000, 0.0000000000000000000, 1.000000000000000000 ) ) ;
#966 = CARTESIAN_POINT ( 'NONE',  ( 5.000000000000000000, 0.0000000000000000000, 3.400000000000000400 ) ) ;
#967 = AXIS2_PLACEMENT_3D ( 'NONE', #966, #965, #964 ) ;
#968 = PLANE ( 'NONE',  #967 ) ;
#969 = FACE_OUTER_BOUND ( 'NONE', #293, .T. ) ;
#970 = DIRECTION ( 'NONE',  ( 0.0000000000000000000, 1.000000000000000000, 0.0000000000000000000 ) ) ;
#971 = VECTOR ( 'NONE', #970, 1000.000000000000000 ) ;
#972 = CARTESIAN_POINT ( 'NONE',  ( 6.500000000000004400, -8.250000000000000000, 2.100000000000000100 ) ) ;
#973 = LINE ( 'NONE', #972, #971 ) ;
#974 = DIRECTION ( 'NONE',  ( 1.000000000000000000, 0.0000000000000000000, 0.0000000000000000000 ) ) ;
#975 = DIRECTION ( 'NONE',  ( 0.0000000000000000000, 0.0000000000000000000, 1.000000000000000000 ) ) ;
#976 = CARTESIAN_POINT ( 'NONE',  ( 7.750000000000000000, -6.500000000000000000, 2.100000000000000100 ) ) ;
#977 = AXIS2_PLACEMENT_3D ( 'NONE', #976, #975, #974 ) ;
#978 = PLANE ( 'NONE',  #977 ) ;
#979 = CARTESIAN_POINT ( 'NONE',  ( 7.750000000000000000, -4.700000000000000200, 2.100000000000000100 ) ) ;
#980 = DIRECTION ( 'NONE',  ( 1.000000000000000000, 0.0000000000000000000, 0.0000000000000000000 ) ) ;
#981 = DIRECTION ( 'NONE',  ( 0.0000000000000000000, 0.0000000000000000000, 1.000000000000000000 ) ) ;
#982 = AXIS2_PLACEMENT_3D ( 'NONE', #1138, #981, #980 ) ;
#983 = DIRECTION ( 'NONE',  ( -0.4226182617406972800, 0.9063077870366510500, 0.0000000000000000000 ) ) ;
#984 = DIRECTION ( 'NONE',  ( 0.9063077870366510500, 0.4226182617406972800, 0.0000000000000000000 ) ) ;
#985 = CARTESIAN_POINT ( 'NONE',  ( -3.499999999999995600, -8.250000000000000000, 3.399999999999999900 ) ) ;
#986 = AXIS2_PLACEMENT_3D ( 'NONE', #985, #984, #983 ) ;
#987 = PLANE ( 'NONE',  #986 ) ;
#988 = FACE_OUTER_BOUND ( 'NONE', #371, .T. ) ;
#989 = DIRECTION ( 'NONE',  ( 1.000000000000000000, 0.0000000000000000000, 0.0000000000000000000 ) ) ;
#990 = DIRECTION ( 'NONE',  ( 0.0000000000000000000, 0.0000000000000000000, 1.000000000000000000 ) ) ;
#991 = CARTESIAN_POINT ( 'NONE',  ( -1.401615538302515100, -12.75000000000000200, 3.399999999999999900 ) ) ;
#992 = AXIS2_PLACEMENT_3D ( 'NONE', #991, #990, #989 ) ;
#993 = PLANE ( 'NONE',  #992 ) ;
#994 = FACE_OUTER_BOUND ( 'NONE', #362, .T. ) ;
#995 = DIRECTION ( 'NONE',  ( 0.4226182617406970000, 0.9063077870366511600, 0.0000000000000000000 ) ) ;
#996 = VECTOR ( 'NONE', #995, 1000.000000000000100 ) ;
#997 = CARTESIAN_POINT ( 'NONE',  ( 6.500000000000004400, -8.250000000000000000, 3.399999999999999900 ) ) ;
#998 = LINE ( 'NONE', #997, #996 ) ;
#999 = DIRECTION ( 'NONE',  ( 0.0000000000000000000, 0.0000000000000000000, -1.000000000000000000 ) ) ;
#1000 = VECTOR ( 'NONE', #999, 1000.000000000000000 ) ;
#1001 = CARTESIAN_POINT ( 'NONE',  ( 6.500000000000004400, -8.250000000000000000, 3.399999999999999900 ) ) ;
#1002 = LINE ( 'NONE', #1001, #1000 ) ;
#1003 = DIRECTION ( 'NONE',  ( -1.000000000000000000, -4.886545002751567900E-016, 0.0000000000000000000 ) ) ;
#1004 = VECTOR ( 'NONE', #1003, 1000.000000000000000 ) ;
#1005 = CARTESIAN_POINT ( 'NONE',  ( 9.500000000000001800, 6.250000000000000900, 2.100000000000000100 ) ) ;
#1006 = LINE ( 'NONE', #1005, #1004 ) ;
#1007 = CARTESIAN_POINT ( 'NONE',  ( 5.950000000000000200, 6.249999999999999100, 2.100000000000000100 ) ) ;
#1008 = DIRECTION ( 'NONE',  ( 0.0000000000000000000, 0.0000000000000000000, 1.000000000000000000 ) ) ;
#1009 = VECTOR ( 'NONE', #1008, 1000.000000000000000 ) ;
#1010 = CARTESIAN_POINT ( 'NONE',  ( 5.950000000000000200, 6.249999999999999100, 2.100000000000000100 ) ) ;
#1011 = LINE ( 'NONE', #1010, #1009 ) ;
#1012 = DIRECTION ( 'NONE',  ( -1.000000000000000000, -1.324216393875425600E-016, 0.0000000000000000000 ) ) ;
#1013 = DIRECTION ( 'NONE',  ( -1.324216393875425600E-016, 1.000000000000000000, 0.0000000000000000000 ) ) ;
#1014 = CARTESIAN_POINT ( 'NONE',  ( 9.500000000000001800, 6.250000000000000900, 3.500024999999999900 ) ) ;
#1015 = AXIS2_PLACEMENT_3D ( 'NONE', #1014, #1013, #1012 ) ;
#1016 = CIRCLE ( 'NONE', #1136, 1.250000000000000000 ) ;
#1017 = DIRECTION ( 'NONE',  ( 1.000000000000000000, 0.0000000000000000000, 0.0000000000000000000 ) ) ;
#1018 = DIRECTION ( 'NONE',  ( 0.0000000000000000000, 0.0000000000000000000, 1.000000000000000000 ) ) ;
#1019 = CARTESIAN_POINT ( 'NONE',  ( 0.0000000000000000000, 0.0000000000000000000, 3.400000000000000400 ) ) ;
#1020 = AXIS2_PLACEMENT_3D ( 'NONE', #1019, #1018, #1017 ) ;
#1021 = CYLINDRICAL_SURFACE ( 'NONE', #1020, 1.250000000000000000 ) ;
#1022 = FACE_OUTER_BOUND ( 'NONE', #336, .T. ) ;
#1023 = DIRECTION ( 'NONE',  ( 1.000000000000000000, 0.0000000000000000000, 0.0000000000000000000 ) ) ;
#1024 = DIRECTION ( 'NONE',  ( 0.0000000000000000000, 0.0000000000000000000, 1.000000000000000000 ) ) ;
#1025 = AXIS2_PLACEMENT_3D ( 'NONE', #1031, #1024, #1023 ) ;
#1026 = CIRCLE ( 'NONE', #1025, 1.250000000000000200 ) ;
#1027 = DIRECTION ( 'NONE',  ( 1.000000000000000000, 0.0000000000000000000, 0.0000000000000000000 ) ) ;
#1028 = DIRECTION ( 'NONE',  ( 0.0000000000000000000, 0.0000000000000000000, 1.000000000000000000 ) ) ;
#1029 = CARTESIAN_POINT ( 'NONE',  ( 5.000000000000000000, 0.0000000000000000000, 3.400000000000000400 ) ) ;
#1030 = AXIS2_PLACEMENT_3D ( 'NONE', #1029, #1028, #1027 ) ;
#1031 = CARTESIAN_POINT ( 'NONE',  ( 5.000000000000000000, 0.0000000000000000000, 3.400000000000000400 ) ) ;
#1032 = CYLINDRICAL_SURFACE ( 'NONE', #1030, 1.250000000000000200 ) ;
#1033 = FACE_OUTER_BOUND ( 'NONE', #326, .T. ) ;
#1034 = DIRECTION ( 'NONE',  ( 1.000000000000000000, 0.0000000000000000000, 0.0000000000000000000 ) ) ;
#1035 = DIRECTION ( 'NONE',  ( 0.0000000000000000000, 0.0000000000000000000, 1.000000000000000000 ) ) ;
#1036 = CARTESIAN_POINT ( 'NONE',  ( 0.0000000000000000000, 0.0000000000000000000, 3.400000000000000400 ) ) ;
#1037 = AXIS2_PLACEMENT_3D ( 'NONE', #1036, #1035, #1034 ) ;
#1038 = FACE_OUTER_BOUND ( 'NONE', #322, .T. ) ;
#1039 = DIRECTION ( 'NONE',  ( 0.0000000000000000000, 0.0000000000000000000, -1.000000000000000000 ) ) ;
#1040 = DIRECTION ( 'NONE',  ( 0.0000000000000000000, -1.000000000000000000, 0.0000000000000000000 ) ) ;
#1041 = CARTESIAN_POINT ( 'NONE',  ( 7.750000000000000000, 2.699999999999999700, 2.100000000000000100 ) ) ;
#1042 = AXIS2_PLACEMENT_3D ( 'NONE', #1041, #1040, #1039 ) ;
#1043 = PLANE ( 'NONE',  #1042 ) ;
#1044 = PLANE ( 'NONE',  #1037 ) ;
#1045 = FACE_OUTER_BOUND ( 'NONE', #317, .T. ) ;
#1046 = DIRECTION ( 'NONE',  ( 4.956352788505164300E-016, -1.000000000000000000, 0.0000000000000000000 ) ) ;
#1047 = VECTOR ( 'NONE', #1046, 1000.000000000000000 ) ;
#1048 = CARTESIAN_POINT ( 'NONE',  ( 5.950000000000001100, 4.500000000000000000, 2.100000000000000100 ) ) ;
#1049 = DIRECTION ( 'NONE',  ( 1.000000000000000000, 0.0000000000000000000, 0.0000000000000000000 ) ) ;
#1050 = DIRECTION ( 'NONE',  ( 0.0000000000000000000, 0.0000000000000000000, 1.000000000000000000 ) ) ;
#1051 = CARTESIAN_POINT ( 'NONE',  ( 0.0000000000000000000, 0.0000000000000000000, 3.400000000000000400 ) ) ;
#1052 = AXIS2_PLACEMENT_3D ( 'NONE', #1051, #1050, #1049 ) ;
#1053 = CYLINDRICAL_SURFACE ( 'NONE', #1052, 1.250000000000000000 ) ;
#1054 = LINE ( 'NONE', #1048, #1047 ) ;
#1055 = FACE_OUTER_BOUND ( 'NONE', #298, .T. ) ;
#1056 = DIRECTION ( 'NONE',  ( 0.0000000000000000000, 0.0000000000000000000, 1.000000000000000000 ) ) ;
#1057 = VECTOR ( 'NONE', #1056, 1000.000000000000000 ) ;
#1058 = CARTESIAN_POINT ( 'NONE',  ( 6.250000000000000000, 0.0000000000000000000, 3.400000000000000400 ) ) ;
#1059 = LINE ( 'NONE', #1058, #1057 ) ;
#1060 = CARTESIAN_POINT ( 'NONE',  ( 6.250000000000000000, 0.0000000000000000000, 3.500000000000000000 ) ) ;
#1061 = DIRECTION ( 'NONE',  ( 1.000000000000000000, 0.0000000000000000000, 0.0000000000000000000 ) ) ;
#1062 = DIRECTION ( 'NONE',  ( 0.0000000000000000000, 0.0000000000000000000, 1.000000000000000000 ) ) ;
#1063 = CARTESIAN_POINT ( 'NONE',  ( 5.000000000000000000, 0.0000000000000000000, 3.500000000000000000 ) ) ;
#1064 = AXIS2_PLACEMENT_3D ( 'NONE', #1063, #1062, #1061 ) ;
#1065 = CIRCLE ( 'NONE', #1064, 1.250000000000000200 ) ;
#1066 = CARTESIAN_POINT ( 'NONE',  ( 3.750000000000000000, 1.530757942277971300E-016, 3.500000000000000000 ) ) ;
#1067 = DIRECTION ( 'NONE',  ( 0.0000000000000000000, 0.0000000000000000000, 1.000000000000000000 ) ) ;
#1068 = VECTOR ( 'NONE', #1067, 1000.000000000000000 ) ;
#1069 = CARTESIAN_POINT ( 'NONE',  ( -1.250000000000000000, 1.530757942277971600E-016, 3.400000000000000400 ) ) ;
#1070 = LINE ( 'NONE', #1069, #1068 ) ;
#1071 = CARTESIAN_POINT ( 'NONE',  ( 1.250000000000000000, 0.0000000000000000000, 3.400000000000000400 ) ) ;
#1072 = CARTESIAN_POINT ( 'NONE',  ( -1.250000000000000000, 1.530757942277971600E-016, 3.400000000000000400 ) ) ;
#1073 = DIRECTION ( 'NONE',  ( 1.000000000000000000, 0.0000000000000000000, 0.0000000000000000000 ) ) ;
#1074 = DIRECTION ( 'NONE',  ( 0.0000000000000000000, 0.0000000000000000000, 1.000000000000000000 ) ) ;
#1075 = CARTESIAN_POINT ( 'NONE',  ( 0.0000000000000000000, 0.0000000000000000000, 3.400000000000000400 ) ) ;
#1076 = AXIS2_PLACEMENT_3D ( 'NONE', #1075, #1074, #1073 ) ;
#1077 = CIRCLE ( 'NONE', #1076, 1.250000000000000000 ) ;
#1078 = CARTESIAN_POINT ( 'NONE',  ( 1.250000000000000000, 0.0000000000000000000, 3.500000000000000000 ) ) ;
#1079 = CARTESIAN_POINT ( 'NONE',  ( -1.250000000000000000, 1.530757942277971600E-016, 3.500000000000000000 ) ) ;
#1080 = DIRECTION ( 'NONE',  ( 0.0000000000000000000, 0.0000000000000000000, 1.000000000000000000 ) ) ;
#1081 = FACE_OUTER_BOUND ( 'NONE', #445, .T. ) ;
#1082 = DIRECTION ( 'NONE',  ( 0.0000000000000000000, 0.0000000000000000000, 1.000000000000000000 ) ) ;
#1083 = VECTOR ( 'NONE', #1082, 1000.000000000000000 ) ;
#1084 = CARTESIAN_POINT ( 'NONE',  ( -0.6999999999999975100, 5.650000000000000400, 3.400000000000000400 ) ) ;
#1085 = LINE ( 'NONE', #1084, #1083 ) ;
#1086 = CARTESIAN_POINT ( 'NONE',  ( -0.6999999999999975100, 5.650000000000000400, 3.400000000000000400 ) ) ;
#1087 = DIRECTION ( 'NONE',  ( -1.204669080539449800E-016, 1.000000000000000000, 0.0000000000000000000 ) ) ;
#1088 = VECTOR ( 'NONE', #1087, 1000.000000000000000 ) ;
#1089 = CARTESIAN_POINT ( 'NONE',  ( -0.6999999999999977400, 7.450000000000000200, 3.400000000000000400 ) ) ;
#1090 = LINE ( 'NONE', #1089, #1088 ) ;
#1091 = DIRECTION ( 'NONE',  ( 1.000000000000000000, 0.0000000000000000000, 0.0000000000000000000 ) ) ;
#1092 = DIRECTION ( 'NONE',  ( 0.0000000000000000000, 0.0000000000000000000, 1.000000000000000000 ) ) ;
#1093 = CARTESIAN_POINT ( 'NONE',  ( -2.699999999999997500, 5.650000000000000400, 3.400000000000000400 ) ) ;
#1094 = AXIS2_PLACEMENT_3D ( 'NONE', #1093, #1092, #1091 ) ;
#1095 = PLANE ( 'NONE',  #1094 ) ;
#1096 = FACE_OUTER_BOUND ( 'NONE', #451, .T. ) ;
#1097 = DIRECTION ( 'NONE',  ( 0.0000000000000000000, 0.0000000000000000000, -1.000000000000000000 ) ) ;
#1098 = DIRECTION ( 'NONE',  ( 0.0000000000000000000, -1.000000000000000000, 0.0000000000000000000 ) ) ;
#1099 = CARTESIAN_POINT ( 'NONE',  ( 1.500000000000005300, -37.75000000000000700, 1.700000000000000000 ) ) ;
#1100 = AXIS2_PLACEMENT_3D ( 'NONE', #1099, #1098, #1097 ) ;
#1101 = PLANE ( 'NONE',  #1100 ) ;
#1102 = FACE_OUTER_BOUND ( 'NONE', #425, .T. ) ;
#1103 = DIRECTION ( 'NONE',  ( 0.0000000000000000000, 0.0000000000000000000, -1.000000000000000000 ) ) ;
#1104 = DIRECTION ( 'NONE',  ( 0.0000000000000000000, -1.000000000000000000, 0.0000000000000000000 ) ) ;
#1105 = CARTESIAN_POINT ( 'NONE',  ( 1.500000000000005300, -37.75000000000000700, 1.700000000000000000 ) ) ;
#1106 = VECTOR ( 'NONE', #1121, 1000.000000000000000 ) ;
#1107 = CARTESIAN_POINT ( 'NONE',  ( 5.950000000000001100, 4.500000000000000000, 2.100000000000000100 ) ) ;
#1108 = LINE ( 'NONE', #1107, #1106 ) ;
#1109 = DIRECTION ( 'NONE',  ( 0.0000000000000000000, 0.0000000000000000000, 1.000000000000000000 ) ) ;
#1110 = VECTOR ( 'NONE', #1109, 1000.000000000000000 ) ;
#1111 = CARTESIAN_POINT ( 'NONE',  ( 7.750000000000000000, -4.700000000000000200, 2.100000000000000100 ) ) ;
#1112 = LINE ( 'NONE', #1111, #1110 ) ;
#1113 = PLANE ( 'NONE',  #963 ) ;
#1114 = FACE_OUTER_BOUND ( 'NONE', #280, .T. ) ;
#1115 = DIRECTION ( 'NONE',  ( 4.956352788505164300E-016, -1.000000000000000000, 0.0000000000000000000 ) ) ;
#1116 = DIRECTION ( 'NONE',  ( -1.000000000000000000, -4.956352788505164300E-016, 0.0000000000000000000 ) ) ;
#1117 = CARTESIAN_POINT ( 'NONE',  ( 5.950000000000001100, 4.500000000000000000, 2.100000000000000100 ) ) ;
#1118 = AXIS2_PLACEMENT_3D ( 'NONE', #1117, #1116, #1115 ) ;
#1119 = PLANE ( 'NONE',  #1118 ) ;
#1120 = FACE_OUTER_BOUND ( 'NONE', #275, .T. ) ;
#1121 = DIRECTION ( 'NONE',  ( 0.0000000000000000000, 0.0000000000000000000, 1.000000000000000000 ) ) ;
#1122 = PLANE ( 'NONE',  #1015 ) ;
#1123 = FACE_OUTER_BOUND ( 'NONE', #349, .T. ) ;
#1124 = DIRECTION ( 'NONE',  ( 0.0000000000000000000, 0.0000000000000000000, -1.000000000000000000 ) ) ;
#1125 = VECTOR ( 'NONE', #1124, 1000.000000000000000 ) ;
#1126 = CARTESIAN_POINT ( 'NONE',  ( 2.950000000000002400, 6.250000000000000000, 3.500024999999999900 ) ) ;
#1127 = LINE ( 'NONE', #1126, #1125 ) ;
#1128 = DIRECTION ( 'NONE',  ( -2.891205793294679300E-016, 1.000000000000000000, 0.0000000000000000000 ) ) ;
#1129 = DIRECTION ( 'NONE',  ( 1.000000000000000000, 2.891205793294679300E-016, 0.0000000000000000000 ) ) ;
#1130 = CARTESIAN_POINT ( 'NONE',  ( 2.950000000000002000, 7.750000000000000000, 3.500024999999999900 ) ) ;
#1131 = AXIS2_PLACEMENT_3D ( 'NONE', #1130, #1129, #1128 ) ;
#1132 = PLANE ( 'NONE',  #1131 ) ;
#1133 = DIRECTION ( 'NONE',  ( 1.000000000000000000, 0.0000000000000000000, 0.0000000000000000000 ) ) ;
#1134 = DIRECTION ( 'NONE',  ( 0.0000000000000000000, 0.0000000000000000000, 1.000000000000000000 ) ) ;
#1135 = CARTESIAN_POINT ( 'NONE',  ( 0.0000000000000000000, 0.0000000000000000000, 3.400000000000000400 ) ) ;
#1136 = AXIS2_PLACEMENT_3D ( 'NONE', #1135, #1134, #1133 ) ;
#1137 = FACE_OUTER_BOUND ( 'NONE', #367, .T. ) ;
#1138 = CARTESIAN_POINT ( 'NONE',  ( 7.750000000000000000, -6.500000000000000000, 2.100000000000000100 ) ) ;
#1139 = CARTESIAN_POINT ( 'NONE',  ( 6.500000000000004400, -7.795183384698865400, 2.100000000000000100 ) ) ;
#1140 = CIRCLE ( 'NONE', #1145, 1.250000000000000400 ) ;
#1141 = DIRECTION ( 'NONE',  ( 0.0000000000000000000, 0.0000000000000000000, 1.000000000000000000 ) ) ;
#1142 = DIRECTION ( 'NONE',  ( 0.0000000000000000000, 1.000000000000000000, 0.0000000000000000000 ) ) ;
#1143 = CARTESIAN_POINT ( 'NONE',  ( 1.500000000000005300, -37.75000000000000700, 1.700000000000000000 ) ) ;
#1144 = AXIS2_PLACEMENT_3D ( 'NONE', #1143, #1142, #1141 ) ;
#1145 = AXIS2_PLACEMENT_3D ( 'NONE', #1105, #1104, #1103 ) ;
#1146 = CYLINDRICAL_SURFACE ( 'NONE', #1144, 1.250000000000000400 ) ;
#1147 = FACE_OUTER_BOUND ( 'NONE', #402, .T. ) ;
#1148 = CARTESIAN_POINT ( 'NONE',  ( 2.000000000000000000, 7.450000000000000200, 3.400000000000000400 ) ) ;
#1149 = DIRECTION ( 'NONE',  ( 0.0000000000000000000, 0.0000000000000000000, 1.000000000000000000 ) ) ;
#1150 = VECTOR ( 'NONE', #1149, 1000.000000000000000 ) ;
#1151 = CARTESIAN_POINT ( 'NONE',  ( 2.000000000000000000, 7.450000000000000200, 3.400000000000000400 ) ) ;
#1152 = LINE ( 'NONE', #1151, #1150 ) ;
#1153 = DIRECTION ( 'NONE',  ( -2.409338161078899700E-016, 1.000000000000000000, 0.0000000000000000000 ) ) ;
#1154 = DIRECTION ( 'NONE',  ( 1.000000000000000000, 2.409338161078899700E-016, 0.0000000000000000000 ) ) ;
#1155 = CARTESIAN_POINT ( 'NONE',  ( 2.000000000000000000, 7.450000000000000200, 3.400000000000000400 ) ) ;
#1156 = AXIS2_PLACEMENT_3D ( 'NONE', #1155, #1154, #1153 ) ;
#1157 = PLANE ( 'NONE',  #1156 ) ;
#1158 = FACE_OUTER_BOUND ( 'NONE', #412, .T. ) ;
#1159 = DIRECTION ( 'NONE',  ( 0.0000000000000000000, 0.0000000000000000000, -1.000000000000000000 ) ) ;
#1160 = DIRECTION ( 'NONE',  ( 0.0000000000000000000, -1.000000000000000000, 0.0000000000000000000 ) ) ;
#1161 = CARTESIAN_POINT ( 'NONE',  ( 2.000000000000000400, 5.650000000000000400, 3.400000000000000400 ) ) ;
#1162 = AXIS2_PLACEMENT_3D ( 'NONE', #1161, #1160, #1159 ) ;
#1163 = PLANE ( 'NONE',  #1162 ) ;
#1164 = FACE_OUTER_BOUND ( 'NONE', #409, .T. ) ;
#1165 = DIRECTION ( 'NONE',  ( 0.0000000000000000000, 0.0000000000000000000, 1.000000000000000000 ) ) ;
#1166 = VECTOR ( 'NONE', #1165, 1000.000000000000000 ) ;
#1167 = CARTESIAN_POINT ( 'NONE',  ( 2.000000000000000400, 5.650000000000000400, 3.400000000000000400 ) ) ;
#1168 = LINE ( 'NONE', #1167, #1166 ) ;
#1169 = CARTESIAN_POINT ( 'NONE',  ( 2.000000000000000400, 5.650000000000000400, 3.400000000000000400 ) ) ;
#1170 = DIRECTION ( 'NONE',  ( -2.409338161078899700E-016, 1.000000000000000000, 0.0000000000000000000 ) ) ;
#1171 = VECTOR ( 'NONE', #1170, 1000.000000000000000 ) ;
#1172 = CARTESIAN_POINT ( 'NONE',  ( 2.000000000000000000, 7.450000000000000200, 3.400000000000000400 ) ) ;
#1173 = LINE ( 'NONE', #1172, #1171 ) ;
#1174 = DIRECTION ( 'NONE',  ( 0.0000000000000000000, 0.0000000000000000000, 1.000000000000000000 ) ) ;
#1175 = DIRECTION ( 'NONE',  ( -1.000000000000000000, 0.0000000000000000000, 0.0000000000000000000 ) ) ;
#1176 = CARTESIAN_POINT ( 'NONE',  ( 6.500000000000004400, -8.250000000000000000, -0.9342805001439735700 ) ) ;
#1177 = AXIS2_PLACEMENT_3D ( 'NONE', #1176, #1175, #1174 ) ;
#1178 = PLANE ( 'NONE',  #1177 ) ;
#1179 = FACE_OUTER_BOUND ( 'NONE', #397, .T. ) ;
#1180 = DIRECTION ( 'NONE',  ( -1.355252715606880500E-016, 1.000000000000000000, 0.0000000000000000000 ) ) ;
#1181 = DIRECTION ( 'NONE',  ( 1.000000000000000000, 1.355252715606880500E-016, 0.0000000000000000000 ) ) ;
#1182 = CARTESIAN_POINT ( 'NONE',  ( -3.499999999999997800, 7.750000000000000000, 3.500000000000000000 ) ) ;
#1183 = AXIS2_PLACEMENT_3D ( 'NONE', #1182, #1181, #1180 ) ;
#1184 = PLANE ( 'NONE',  #1183 ) ;
#1185 = FACE_OUTER_BOUND ( 'NONE', #387, .T. ) ;
#1186 = DIRECTION ( 'NONE',  ( 0.0000000000000000000, 0.0000000000000000000, -1.000000000000000000 ) ) ;
#1187 = VECTOR ( 'NONE', #1186, 1000.000000000000000 ) ;
#1188 = CARTESIAN_POINT ( 'NONE',  ( -3.499999999999995600, -8.250000000000000000, 3.500000000000000000 ) ) ;
#1189 = LINE ( 'NONE', #1188, #1187 ) ;
#1190 = DIRECTION ( 'NONE',  ( 0.0000000000000000000, 0.0000000000000000000, 1.000000000000000000 ) ) ;
#1191 = VECTOR ( 'NONE', #1190, 1000.000000000000000 ) ;
#1192 = CARTESIAN_POINT ( 'NONE',  ( 6.500000000000004400, -8.250000000000000000, -0.9342805001439735700 ) ) ;
#1193 = LINE ( 'NONE', #1192, #1191 ) ;
#1194 = CARTESIAN_POINT ( 'NONE',  ( -3.499999999999995600, -8.250000000000000000, 3.399999999999999900 ) ) ;
#1195 = DIRECTION ( 'NONE',  ( -0.4226182617406970000, -0.9063077870366511600, 0.0000000000000000000 ) ) ;
#1196 = DIRECTION ( 'NONE',  ( -0.9063077870366511600, 0.4226182617406970000, 0.0000000000000000000 ) ) ;
#1197 = CARTESIAN_POINT ( 'NONE',  ( 6.500000000000004400, -8.250000000000000000, 3.399999999999999900 ) ) ;
#1198 = AXIS2_PLACEMENT_3D ( 'NONE', #1197, #1196, #1195 ) ;
#1199 = PLANE ( 'NONE',  #1198 ) ;
#1200 = FACE_OUTER_BOUND ( 'NONE', #378, .T. ) ;
#1201 = DIRECTION ( 'NONE',  ( 0.4226182617406972800, -0.9063077870366510500, 0.0000000000000000000 ) ) ;
#1202 = VECTOR ( 'NONE', #1201, 1000.000000000000100 ) ;
#1203 = CARTESIAN_POINT ( 'NONE',  ( -3.499999999999995600, -8.250000000000000000, 3.399999999999999900 ) ) ;
#1204 = LINE ( 'NONE', #1203, #1202 ) ;
#1205 = PLANE ( 'NONE',  #1242 ) ;
#1206 = PRODUCT_DEFINITION_SHAPE ( 'NONE', 'NONE',  #1303 ) ;
#1207 = PRODUCT_RELATED_PRODUCT_CATEGORY ( 'detail', '', ( #1312 ) ) ;
#1208 = CC_DESIGN_SECURITY_CLASSIFICATION ( #1263, ( #1282 ) ) ;
#1209 = CARTESIAN_POINT ( 'NONE',  ( 0.0000000000000000000, 5.650000000000000400, 3.400000000000000400 ) ) ;
#1210 = DIRECTION ( 'NONE',  ( 1.000000000000000000, 0.0000000000000000000, 0.0000000000000000000 ) ) ;
#1211 = VECTOR ( 'NONE', #1210, 1000.000000000000000 ) ;
#1212 = CARTESIAN_POINT ( 'NONE',  ( 2.000000000000000400, 5.650000000000000400, 3.400000000000000400 ) ) ;
#1213 = LINE ( 'NONE', #1212, #1211 ) ;
#1214 = DIRECTION ( 'NONE',  ( -1.204669080539449800E-016, 1.000000000000000000, 0.0000000000000000000 ) ) ;
#1215 = DIRECTION ( 'NONE',  ( 1.000000000000000000, 1.204669080539449800E-016, 0.0000000000000000000 ) ) ;
#1216 = CARTESIAN_POINT ( 'NONE',  ( -0.6999999999999977400, 7.450000000000000200, 3.400000000000000400 ) ) ;
#1217 = AXIS2_PLACEMENT_3D ( 'NONE', #1216, #1215, #1214 ) ;
#1218 = PLANE ( 'NONE',  #1217 ) ;
#1219 = FACE_OUTER_BOUND ( 'NONE', #524, .T. ) ;
#1220 = DIRECTION ( 'NONE',  ( 0.0000000000000000000, 0.0000000000000000000, 1.000000000000000000 ) ) ;
#1221 = VECTOR ( 'NONE', #1220, 1000.000000000000000 ) ;
#1222 = CARTESIAN_POINT ( 'NONE',  ( -0.6999999999999977400, 7.450000000000000200, 3.400000000000000400 ) ) ;
#1223 = LINE ( 'NONE', #1222, #1221 ) ;
#1224 = CARTESIAN_POINT ( 'NONE',  ( -0.6999999999999977400, 7.450000000000000200, 3.400000000000000400 ) ) ;
#1225 = DIRECTION ( 'NONE',  ( -1.000000000000000000, 0.0000000000000000000, 0.0000000000000000000 ) ) ;
#1226 = VECTOR ( 'NONE', #1225, 1000.000000000000000 ) ;
#1227 = CARTESIAN_POINT ( 'NONE',  ( -2.699999999999998000, 7.450000000000000200, 3.400000000000000400 ) ) ;
#1228 = LINE ( 'NONE', #1227, #1226 ) ;
#1229 = DIRECTION ( 'NONE',  ( 0.0000000000000000000, 0.0000000000000000000, 1.000000000000000000 ) ) ;
#1230 = DIRECTION ( 'NONE',  ( 0.0000000000000000000, 1.000000000000000000, 0.0000000000000000000 ) ) ;
#1231 = CARTESIAN_POINT ( 'NONE',  ( -2.699999999999998000, 7.450000000000000200, 3.400000000000000400 ) ) ;
#1232 = AXIS2_PLACEMENT_3D ( 'NONE', #1231, #1230, #1229 ) ;
#1233 = PLANE ( 'NONE',  #1232 ) ;
#1234 = FACE_OUTER_BOUND ( 'NONE', #453, .T. ) ;
#1235 = DIRECTION ( 'NONE',  ( 1.000000000000000000, 0.0000000000000000000, 0.0000000000000000000 ) ) ;
#1236 = VECTOR ( 'NONE', #1235, 1000.000000000000000 ) ;
#1237 = CARTESIAN_POINT ( 'NONE',  ( -2.699999999999997500, 5.650000000000000400, 3.400000000000000400 ) ) ;
#1238 = LINE ( 'NONE', #1237, #1236 ) ;
#1239 = DIRECTION ( 'NONE',  ( 0.0000000000000000000, 0.0000000000000000000, -1.000000000000000000 ) ) ;
#1240 = DIRECTION ( 'NONE',  ( 0.0000000000000000000, -1.000000000000000000, 0.0000000000000000000 ) ) ;
#1241 = CARTESIAN_POINT ( 'NONE',  ( -2.699999999999997500, 5.650000000000000400, 3.400000000000000400 ) ) ;
#1242 = AXIS2_PLACEMENT_3D ( 'NONE', #1241, #1240, #1239 ) ;
#1243 = CC_DESIGN_APPROVAL ( #1251, ( #1263 ) ) ;
#1244 = APPROVAL_DATE_TIME ( #1245, #1251 ) ;
#1245 = DATE_AND_TIME ( #1246, #1247 ) ;
#1246 = CALENDAR_DATE ( 2005, 5, 9 ) ;
#1247 = LOCAL_TIME ( 16, 26, 28.00000000000000000, #1248 ) ;
#1248 = COORDINATED_UNIVERSAL_TIME_OFFSET ( 9, 0, .AHEAD. ) ;
#1249 = APPROVAL_PERSON_ORGANIZATION ( #1253, #1251, #1250 ) ;
#1250 = APPROVAL_ROLE ( '' ) ;
#1251 = APPROVAL ( #1252, 'UNSPECIFIED' ) ;
#1252 = APPROVAL_STATUS ( 'not_yet_approved' ) ;
#1253 = PERSON_AND_ORGANIZATION ( #1311, #1310 ) ;
#1254 = CC_DESIGN_DATE_AND_TIME_ASSIGNMENT ( #1256, #1255, ( #1263 ) ) ;
#1255 = DATE_TIME_ROLE ( 'classification_date' ) ;
#1256 = DATE_AND_TIME ( #1257, #1258 ) ;
#1257 = CALENDAR_DATE ( 2005, 5, 9 ) ;
#1258 = LOCAL_TIME ( 16, 26, 28.00000000000000000, #1259 ) ;
#1259 = COORDINATED_UNIVERSAL_TIME_OFFSET ( 9, 0, .AHEAD. ) ;
#1260 = CC_DESIGN_PERSON_AND_ORGANIZATION_ASSIGNMENT ( #1262, #1261, ( #1263 ) ) ;
#1261 = PERSON_AND_ORGANIZATION_ROLE ( 'classification_officer' ) ;
#1262 = PERSON_AND_ORGANIZATION ( #1311, #1310 ) ;
#1263 = SECURITY_CLASSIFICATION ( '', '', #1264 ) ;
#1264 = SECURITY_CLASSIFICATION_LEVEL ( 'unclassified' ) ;
#1265 = CC_DESIGN_PERSON_AND_ORGANIZATION_ASSIGNMENT ( #1267, #1266, ( #1282 ) ) ;
#1266 = PERSON_AND_ORGANIZATION_ROLE ( 'design_supplier' ) ;
#1267 = PERSON_AND_ORGANIZATION ( #1311, #1310 ) ;
#1268 = CC_DESIGN_PERSON_AND_ORGANIZATION_ASSIGNMENT ( #1270, #1269, ( #1282 ) ) ;
#1269 = PERSON_AND_ORGANIZATION_ROLE ( 'creator' ) ;
#1270 = PERSON_AND_ORGANIZATION ( #1311, #1310 ) ;
#1271 = CC_DESIGN_APPROVAL ( #1279, ( #1282 ) ) ;
#1272 = APPROVAL_DATE_TIME ( #1273, #1279 ) ;
#1273 = DATE_AND_TIME ( #1274, #1275 ) ;
#1274 = CALENDAR_DATE ( 2005, 5, 9 ) ;
#1275 = LOCAL_TIME ( 16, 26, 28.00000000000000000, #1276 ) ;
#1276 = COORDINATED_UNIVERSAL_TIME_OFFSET ( 9, 0, .AHEAD. ) ;
#1277 = APPROVAL_PERSON_ORGANIZATION ( #1281, #1279, #1278 ) ;
#1278 = APPROVAL_ROLE ( '' ) ;
#1279 = APPROVAL ( #1280, 'UNSPECIFIED' ) ;
#1280 = APPROVAL_STATUS ( 'not_yet_approved' ) ;
#1281 = PERSON_AND_ORGANIZATION ( #1311, #1310 ) ;
#1282 = PRODUCT_DEFINITION_FORMATION_WITH_SPECIFIED_SOURCE ( 'ANY', '', #1312, .NOT_KNOWN. ) ;
#1283 = CC_DESIGN_DATE_AND_TIME_ASSIGNMENT ( #1285, #1284, ( #1303 ) ) ;
#1284 = DATE_TIME_ROLE ( 'creation_date' ) ;
#1285 = DATE_AND_TIME ( #1286, #1287 ) ;
#1286 = CALENDAR_DATE ( 2005, 5, 9 ) ;
#1287 = LOCAL_TIME ( 16, 26, 28.00000000000000000, #1288 ) ;
#1288 = COORDINATED_UNIVERSAL_TIME_OFFSET ( 9, 0, .AHEAD. ) ;
#1289 = CC_DESIGN_PERSON_AND_ORGANIZATION_ASSIGNMENT ( #1291, #1290, ( #1303 ) ) ;
#1290 = PERSON_AND_ORGANIZATION_ROLE ( 'creator' ) ;
#1291 = PERSON_AND_ORGANIZATION ( #1311, #1310 ) ;
#1292 = CC_DESIGN_APPROVAL ( #1300, ( #1303 ) ) ;
#1293 = APPROVAL_DATE_TIME ( #1294, #1300 ) ;
#1294 = DATE_AND_TIME ( #1295, #1296 ) ;
#1295 = CALENDAR_DATE ( 2005, 5, 9 ) ;
#1296 = LOCAL_TIME ( 16, 26, 28.00000000000000000, #1297 ) ;
#1297 = COORDINATED_UNIVERSAL_TIME_OFFSET ( 9, 0, .AHEAD. ) ;
#1298 = APPROVAL_PERSON_ORGANIZATION ( #1302, #1300, #1299 ) ;
#1299 = APPROVAL_ROLE ( '' ) ;
#1300 = APPROVAL ( #1301, 'UNSPECIFIED' ) ;
#1301 = APPROVAL_STATUS ( 'not_yet_approved' ) ;
#1302 = PERSON_AND_ORGANIZATION ( #1311, #1310 ) ;
#1303 = PRODUCT_DEFINITION ( 'UNKNOWN', '', #1282, #1304 ) ;
#1304 = DESIGN_CONTEXT ( 'detailed design', #1306, 'design' ) ;
#1305 = APPLICATION_PROTOCOL_DEFINITION ( 'international standard', 'config_control_design', 1994, #1306 ) ;
#1306 = APPLICATION_CONTEXT ( 'configuration controlled 3d designs of mechanical parts and assemblies' ) ;
#1307 = CC_DESIGN_PERSON_AND_ORGANIZATION_ASSIGNMENT ( #1309, #1308, ( #1312 ) ) ;
#1308 = PERSON_AND_ORGANIZATION_ROLE ( 'design_owner' ) ;
#1309 = PERSON_AND_ORGANIZATION ( #1311, #1310 ) ;
#1310 = ORGANIZATION ( 'UNSPECIFIED', 'UNSPECIFIED', '' ) ;
#1311 = PERSON ( 'UNSPECIFIED', 'UNSPECIFIED', 'UNSPECIFIED', ('UNSPECIFIED'), ('UNSPECIFIED'), ('UNSPECIFIED') ) ;
#1312 = PRODUCT ( 'EX-14A', 'EX-14A', '', ( #1313 ) ) ;
#1313 = MECHANICAL_CONTEXT ( 'NONE', #1315, 'mechanical' ) ;
#1314 = APPLICATION_PROTOCOL_DEFINITION ( 'international standard', 'config_control_design', 1994, #1315 ) ;
#1315 = APPLICATION_CONTEXT ( 'configuration controlled 3d designs of mechanical parts and assemblies' ) ;
#1316 = LINE ( 'NONE', #1381, #1380 ) ;
#1317 = CARTESIAN_POINT ( 'NONE',  ( -2.699999999999998000, 7.450000000000000200, 3.400000000000000400 ) ) ;
#1318 = DIRECTION ( 'NONE',  ( 2.409338161078899700E-016, -1.000000000000000000, 0.0000000000000000000 ) ) ;
#1319 = VECTOR ( 'NONE', #1318, 1000.000000000000000 ) ;
#1320 = CARTESIAN_POINT ( 'NONE',  ( -2.699999999999998000, 7.450000000000000200, 3.400000000000000400 ) ) ;
#1321 = LINE ( 'NONE', #1320, #1319 ) ;
#1322 = CARTESIAN_POINT ( 'NONE',  ( -2.699999999999997500, 5.650000000000000400, 3.400000000000000400 ) ) ;
#1323 = DIRECTION ( 'NONE',  ( 0.0000000000000000000, 0.0000000000000000000, 1.000000000000000000 ) ) ;
#1324 = VECTOR ( 'NONE', #1323, 1000.000000000000000 ) ;
#1325 = CARTESIAN_POINT ( 'NONE',  ( -2.699999999999997500, 5.650000000000000400, 3.400000000000000400 ) ) ;
#1326 = LINE ( 'NONE', #1325, #1324 ) ;
#1327 = DIRECTION ( 'NONE',  ( 2.409338161078899700E-016, -1.000000000000000000, 0.0000000000000000000 ) ) ;
#1328 = DIRECTION ( 'NONE',  ( -1.000000000000000000, -2.409338161078899700E-016, 0.0000000000000000000 ) ) ;
#1329 = CARTESIAN_POINT ( 'NONE',  ( -2.699999999999998000, 7.450000000000000200, 3.400000000000000400 ) ) ;
#1330 = AXIS2_PLACEMENT_3D ( 'NONE', #1329, #1328, #1327 ) ;
#1331 = PLANE ( 'NONE',  #1330 ) ;
#1332 = FACE_OUTER_BOUND ( 'NONE', #544, .T. ) ;
#1333 = CARTESIAN_POINT ( 'NONE',  ( 0.0000000000000000000, 7.450000000000000200, 3.400000000000000400 ) ) ;
#1334 = DIRECTION ( 'NONE',  ( 0.0000000000000000000, -1.000000000000000000, 0.0000000000000000000 ) ) ;
#1335 = VECTOR ( 'NONE', #1334, 1000.000000000000000 ) ;
#1336 = CARTESIAN_POINT ( 'NONE',  ( 0.0000000000000000000, 5.650000000000000400, 3.400000000000000400 ) ) ;
#1337 = LINE ( 'NONE', #1336, #1335 ) ;
#1338 = DIRECTION ( 'NONE',  ( 0.0000000000000000000, 0.0000000000000000000, 1.000000000000000000 ) ) ;
#1339 = DIRECTION ( 'NONE',  ( -1.000000000000000000, 0.0000000000000000000, 0.0000000000000000000 ) ) ;
#1340 = CARTESIAN_POINT ( 'NONE',  ( 0.0000000000000000000, 5.650000000000000400, 3.400000000000000400 ) ) ;
#1341 = AXIS2_PLACEMENT_3D ( 'NONE', #1340, #1339, #1338 ) ;
#1342 = PLANE ( 'NONE',  #1341 ) ;
#1343 = FACE_OUTER_BOUND ( 'NONE', #533, .T. ) ;
#1344 = DIRECTION ( 'NONE',  ( 0.0000000000000000000, 0.0000000000000000000, 1.000000000000000000 ) ) ;
#1345 = VECTOR ( 'NONE', #1344, 1000.000000000000000 ) ;
#1346 = CARTESIAN_POINT ( 'NONE',  ( 0.0000000000000000000, 5.650000000000000400, 3.400000000000000400 ) ) ;
#1347 = LINE ( 'NONE', #1346, #1345 ) ;
#1348 = DIRECTION ( 'NONE',  ( 1.000000000000000000, 0.0000000000000000000, 0.0000000000000000000 ) ) ;
#1349 = CARTESIAN_POINT ( 'NONE',  ( -0.002500000000000000100, 0.0000000000000000000, -0.003500000000000000100 ) ) ;
#1350 = AXIS2_PLACEMENT_3D ( 'NONE', #1349, #1358, #1348 ) ;
#1351 = SHAPE_DEFINITION_REPRESENTATION ( #1206, #1352 ) ;
#1352 = ADVANCED_BREP_SHAPE_REPRESENTATION ( 'EX-14A', ( #297, #1350 ), #1353 ) ;
#1353 =( GEOMETRIC_REPRESENTATION_CONTEXT ( 3 ) GLOBAL_UNCERTAINTY_ASSIGNED_CONTEXT ( ( #1354 ) ) GLOBAL_UNIT_ASSIGNED_CONTEXT ( ( #1357, #1356, #1355 ) ) REPRESENTATION_CONTEXT ( 'NONE', 'WORKASPACE' ) );
#1354 = UNCERTAINTY_MEASURE_WITH_UNIT (LENGTH_MEASURE( 1.000000000000000100E-005 ), #1357, 'distance_accuracy_value', 'NONE');
#1355 =( NAMED_UNIT ( * ) SI_UNIT ( $, .STERADIAN. ) SOLID_ANGLE_UNIT ( ) );
#1356 =( NAMED_UNIT ( * ) PLANE_ANGLE_UNIT ( ) SI_UNIT ( $, .RADIAN. ) );
#1357 =( LENGTH_UNIT ( ) NAMED_UNIT ( * ) SI_UNIT ( .MILLI., .METRE. ) );
#1358 = DIRECTION ( 'NONE',  ( 0.0000000000000000000, 0.0000000000000000000, 1.000000000000000000 ) ) ;
#1359 = DIRECTION ( 'NONE',  ( -1.000000000000000000, 0.0000000000000000000, 0.0000000000000000000 ) ) ;
#1360 = DIRECTION ( 'NONE',  ( 0.0000000000000000000, 0.0000000000000000000, -1.000000000000000000 ) ) ;
#1361 = CARTESIAN_POINT ( 'NONE',  ( 2.000000000000000400, 5.650000000000000400, 3.400000000000000400 ) ) ;
#1362 = AXIS2_PLACEMENT_3D ( 'NONE', #1361, #1360, #1359 ) ;
#1363 = PLANE ( 'NONE',  #1362 ) ;
#1364 = FACE_OUTER_BOUND ( 'NONE', #522, .T. ) ;
#1365 = DIRECTION ( 'NONE',  ( -1.000000000000000000, 0.0000000000000000000, 0.0000000000000000000 ) ) ;
#1366 = VECTOR ( 'NONE', #1365, 1000.000000000000000 ) ;
#1367 = CARTESIAN_POINT ( 'NONE',  ( 0.0000000000000000000, 7.450000000000000200, 3.400000000000000400 ) ) ;
#1368 = LINE ( 'NONE', #1367, #1366 ) ;
#1369 = DIRECTION ( 'NONE',  ( 0.0000000000000000000, 0.0000000000000000000, 1.000000000000000000 ) ) ;
#1370 = DIRECTION ( 'NONE',  ( 0.0000000000000000000, 1.000000000000000000, 0.0000000000000000000 ) ) ;
#1371 = CARTESIAN_POINT ( 'NONE',  ( 0.0000000000000000000, 7.450000000000000200, 3.400000000000000400 ) ) ;
#1372 = AXIS2_PLACEMENT_3D ( 'NONE', #1371, #1370, #1369 ) ;
#1373 = PLANE ( 'NONE',  #1372 ) ;
#1374 = FACE_OUTER_BOUND ( 'NONE', #556, .T. ) ;
#1375 = DIRECTION ( 'NONE',  ( 0.0000000000000000000, 0.0000000000000000000, 1.000000000000000000 ) ) ;
#1376 = VECTOR ( 'NONE', #1375, 1000.000000000000000 ) ;
#1377 = CARTESIAN_POINT ( 'NONE',  ( 0.0000000000000000000, 7.450000000000000200, 3.400000000000000400 ) ) ;
#1378 = LINE ( 'NONE', #1377, #1376 ) ;
#1379 = DIRECTION ( 'NONE',  ( 0.0000000000000000000, 0.0000000000000000000, 1.000000000000000000 ) ) ;
#1380 = VECTOR ( 'NONE', #1379, 1000.000000000000000 ) ;
#1381 = CARTESIAN_POINT ( 'NONE',  ( -2.699999999999998000, 7.450000000000000200, 3.400000000000000400 ) ) ;
ENDSEC;
END-ISO-10303-21;
