  0
SECTION
  2
HEADER
  9
$ACADVER
  1
AC1009
  9
$INSBASE
 10
0.0
 20
0.0
 30
0.0
  9
$EXTMIN
 10
94.532452973306803
 20
128.4205883566016
 30
0.0
  9
$EXTMAX
 10
141.9520782486272
 20
196.38730696927519
 30
0.0
  9
$LIMMIN
 10
0.0
 20
0.0
  9
$LIMMAX
 10
210.0
 20
297.0
  9
$ORTHOMODE
 70
     0
  9
$REGENMODE
 70
     1
  9
$FILLMODE
 70
     1
  9
$QTEXTMODE
 70
     0
  9
$MIRRTEXT
 70
     1
  9
$DRAGMODE
 70
     2
  9
$LTSCALE
 40
1.0
  9
$OSMODE
 70
    39
  9
$ATTMODE
 70
     1
  9
$TEXTSIZE
 40
2.5
  9
$TRACEWID
 40
1.0
  9
$TEXTSTYLE
  7
STANDARD
  9
$CLAYER
  8
0
  9
$CELTYPE
  6
AM_ISO08W050X2
  9
$CECOLOR
 62
     4
  9
$DIMSCALE
 40
1.0
  9
$DIMASZ
 40
6.0
  9
$DIMEXO
 40
1.0
  9
$DIMDLI
 40
3.75
  9
$DIMRND
 40
0.0
  9
$DIMDLE
 40
0.0
  9
$DIMEXE
 40
1.0
  9
$DIMTP
 40
0.0
  9
$DIMTM
 40
0.0
  9
$DIMTXT
 40
3.5
  9
$DIMCEN
 40
2.5
  9
$DIMTSZ
 40
0.0
  9
$DIMTOL
 70
     0
  9
$DIMLIM
 70
     0
  9
$DIMTIH
 70
     1
  9
$DIMTOH
 70
     1
  9
$DIMSE1
 70
     0
  9
$DIMSE2
 70
     0
  9
$DIMTAD
 70
     1
  9
$DIMZIN
 70
     0
  9
$DIMBLK
  1

  9
$DIMASO
 70
     1
  9
$DIMSHO
 70
     1
  9
$DIMPOST
  1

  9
$DIMAPOST
  1

  9
$DIMALT
 70
     0
  9
$DIMALTD
 70
     3
  9
$DIMALTF
 40
0.0393700787401575
  9
$DIMLFAC
 40
1.0
  9
$DIMTOFL
 70
     1
  9
$DIMTVP
 40
0.0
  9
$DIMTIX
 70
     0
  9
$DIMSOXD
 70
     0
  9
$DIMSAH
 70
     0
  9
$DIMBLK1
  1

  9
$DIMBLK2
  1

  9
$DIMSTYLE
  2
ISO-25
  9
$DIMCLRD
 70
     0
  9
$DIMCLRE
 70
     0
  9
$DIMCLRT
 70
     0
  9
$DIMTFAC
 40
1.0
  9
$DIMGAP
 40
1.524
  9
$LUNITS
 70
     2
  9
$LUPREC
 70
     2
  9
$SKETCHINC
 40
1.0
  9
$FILLETRAD
 40
10.0
  9
$AUNITS
 70
     0
  9
$AUPREC
 70
     2
  9
$MENU
  1
.
  9
$ELEVATION
 40
0.0
  9
$PELEVATION
 40
0.0
  9
$THICKNESS
 40
0.0
  9
$LIMCHECK
 70
     0
  9
$BLIPMODE
 70
     0
  9
$CHAMFERA
 40
10.0
  9
$CHAMFERB
 40
10.0
  9
$SKPOLY
 70
     0
  9
$TDCREATE
 40
2457238.440328924
  9
$TDUPDATE
 40
2457242.685354942
  9
$TDINDWG
 40
0.0417199537
  9
$TDUSRTIMER
 40
0.0417199537
  9
$USRTIMER
 70
     1
  9
$ANGBASE
 50
0.0
  9
$ANGDIR
 70
     0
  9
$PDMODE
 70
     0
  9
$PDSIZE
 40
-1.0
  9
$PLINEWID
 40
0.0
  9
$COORDS
 70
     2
  9
$SPLFRAME
 70
     0
  9
$SPLINETYPE
 70
     6
  9
$SPLINESEGS
 70
     8
  9
$ATTDIA
 70
     1
  9
$ATTREQ
 70
     1
  9
$HANDLING
 70
     1
  9
$HANDSEED
  5
4D4
  9
$SURFTAB1
 70
     6
  9
$SURFTAB2
 70
     6
  9
$SURFTYPE
 70
     6
  9
$SURFU
 70
     6
  9
$SURFV
 70
     6
  9
$UCSNAME
  2

  9
$UCSORG
 10
0.0
 20
0.0
 30
0.0
  9
$UCSXDIR
 10
1.0
 20
0.0
 30
0.0
  9
$UCSYDIR
 10
0.0
 20
1.0
 30
0.0
  9
$PUCSNAME
  2

  9
$PUCSORG
 10
0.0
 20
0.0
 30
0.0
  9
$PUCSXDIR
 10
1.0
 20
0.0
 30
0.0
  9
$PUCSYDIR
 10
0.0
 20
1.0
 30
0.0
  9
$USERI1
 70
     0
  9
$USERI2
 70
     0
  9
$USERI3
 70
     0
  9
$USERI4
 70
     0
  9
$USERI5
 70
     0
  9
$USERR1
 40
0.0
  9
$USERR2
 40
0.0
  9
$USERR3
 40
0.0
  9
$USERR4
 40
0.0
  9
$USERR5
 40
0.0
  9
$WORLDVIEW
 70
     1
  9
$SHADEDGE
 70
     3
  9
$SHADEDIF
 70
    70
  9
$TILEMODE
 70
     1
  9
$MAXACTVP
 70
    64
  9
$PLIMCHECK
 70
     0
  9
$PEXTMIN
 10
1.0000000000000000E+020
 20
1.0000000000000000E+020
 30
1.0000000000000000E+020
  9
$PEXTMAX
 10
-1.0000000000000000E+020
 20
-1.0000000000000000E+020
 30
-1.0000000000000000E+020
  9
$PLIMMIN
 10
0.0
 20
0.0
  9
$PLIMMAX
 10
420.0
 20
297.0
  9
$UNITMODE
 70
     0
  9
$VISRETAIN
 70
     1
  9
$PLINEGEN
 70
     0
  9
$PSLTSCALE
 70
     1
  0
ENDSEC
  0
SECTION
  2
TABLES
  0
TABLE
  2
VPORT
 70
     1
  0
VPORT
  2
*ACTIVE
 70
     0
 10
0.0
 20
0.0
 11
1.0
 21
1.0
 12
149.72442470956469
 22
161.52571761465109
 13
0.0
 23
0.0
 14
10.0
 24
10.0
 15
10.0
 25
10.0
 16
0.0
 26
0.0
 36
1.0
 17
0.0
 27
0.0
 37
0.0
 40
143.3529587608115
 41
1.643298969072164
 42
50.0
 43
0.0
 44
0.0
 50
0.0
 51
0.0
 71
     0
 72
  2000
 73
     1
 74
     3
 75
     0
 76
     0
 77
     0
 78
     0
  0
ENDTAB
  0
TABLE
  2
LTYPE
 70
    17
  0
LTYPE
  2
CONTINUOUS
 70
     0
  3
Solid line
 72
    65
 73
     0
 40
0.0
  0
LTYPE
  2
HIDDEN
 70
     0
  3
Hidden __ __ __ __ __ __ __ __ __ __ __ __ __ __
 72
    65
 73
     2
 40
1.905
 49
1.27
 49
-0.635
  0
LTYPE
  2
PHANTOM
 70
     0
  3
Phantom ______  __  __  ______  __  __  ______
 72
    65
 73
     6
 40
12.699999999999999
 49
6.3499999999999988
 49
-1.27
 49
1.27
 49
-1.27
 49
1.27
 49
-1.27
  0
LTYPE
  2
CENTER
 70
     0
  3
Center ____ _ ____ _ ____ _ ____ _ ____ _ ____
 72
    65
 73
     4
 40
10.16
 49
6.3499999999999988
 49
-1.27
 49
1.27
 49
-1.27
  0
LTYPE
  2
CENTERX2
 70
     0
  3
Center (2x) ________  __  ________  __  _____
 72
    65
 73
     4
 40
20.32
 49
12.699999999999999
 49
-2.54
 49
2.54
 49
-2.54
  0
LTYPE
  2
DOT2
 70
     0
  3
Dot (.5x) ........................................
 72
    65
 73
     2
 40
0.635
 49
0.0
 49
-0.635
  0
LTYPE
  2
PHANTOM2
 70
     0
  3
Phantom (.5x) ___ _ _ ___ _ _ ___ _ _ ___ _ _
 72
    65
 73
     6
 40
31.75
 49
15.875
 49
-3.1749999999999989
 49
3.1749999999999989
 49
-3.1749999999999989
 49
3.1749999999999989
 49
-3.1749999999999989
  0
LTYPE
  2
AM_ISO02W050
 70
     0
  3
__ __ __ __ __ __ __ __ __ __ __ __ __ __ __
 72
    65
 73
     2
 40
7.5
 49
6.0
 49
-1.5
  0
LTYPE
  2
AM_ISO08W050
 70
     0
  3
____ . ____ . ____ . ____ . ____ . ____ . ____
 72
    65
 73
     4
 40
18.0
 49
12.0
 49
-1.5
 49
3.0
 49
-1.5
  0
LTYPE
  2
AM_ISO09W050
 70
     0
  3
_____ . . _____ . . _____ . . ____ .. ____
 72
    65
 73
     6
 40
22.5
 49
12.0
 49
-1.5
 49
3.0
 49
-1.5
 49
3.0
 49
-1.5
  0
LTYPE
  2
AMCONSTR
 70
     0
  3
_______________________
 72
    65
 73
     2
 40
9999.0
 49
9999.0
 49
0.0
  0
LTYPE
  2
AM_ISO08W050X2
 70
     0
  3
__ . __ . __ . __ . __ . __
 72
    65
 73
     4
 40
9.0
 49
6.0
 49
-0.75
 49
1.5
 49
-0.75
  0
LTYPE
  2
AM_ISO02W050X2
 70
     0
  3
 _ _ _ _ _ _ _ _ _ _ _ _
 72
    65
 73
     2
 40
3.75
 49
3.0
 49
-0.75
  0
LTYPE
  2
AMZIGZAG
 70
     0
  3
/\/-/\/-/\/-/\/-/\/-/\/
 72
    65
 73
     2
 40
11.0001
 49
0.0001
 49
-11.0
  0
LTYPE
  2
ACISOWELD
 70
     0
  3
_ _ _ _ _
 72
    65
 73
     2
 40
2.0
 49
2.0
 49
-1.0
  0
LTYPE
  2
ACISOTGL
 70
     0
  3
_ _ _ _ _
 72
    65
 73
     2
 40
3.0
 49
2.0
 49
-1.0
  0
LTYPE
  2
ACISOTGB
 70
     0
  3
__ . . __ . .
 72
    65
 73
     6
 40
9.0
 49
4.0
 49
-1.0
 49
1.0
 49
-1.0
 49
1.0
 49
-1.0
  0
ENDTAB
  0
TABLE
  2
LAYER
 70
     2
  0
LAYER
  2
0
 70
     0
 62
     7
  6
CONTINUOUS
  0
LAYER
  2
AM_CL
 70
     0
 62
     1
  6
AMCONSTR
  0
ENDTAB
  0
TABLE
  2
STYLE
 70
     4
  0
STYLE
  2
STANDARD
 70
     0
 40
0.0
 41
1.0
 50
0.0
 71
     0
 42
2.5
  3
txt
  4
bigfont
  0
STYLE
  2

 70
     1
 40
0.0
 41
1.0
 50
0.0
 71
     0
 42
3.5
  3
genltshp.shx
  4

  0
STYLE
  2
ACISOTS
 70
     0
 40
1.0
 41
1.0
 50
0.0
 71
     0
 42
3.5
  3
isocp.shx
  4
extfont.shx
  0
STYLE
  2
ACISOGDT
 70
     0
 40
0.0
 41
1.0
 50
0.0
 71
     0
 42
3.5
  3
amgdt.shx
  4

  0
ENDTAB
  0
TABLE
  2
VIEW
 70
     0
  0
ENDTAB
  0
TABLE
  2
UCS
 70
     0
  0
ENDTAB
  0
TABLE
  2
APPID
 70
    17
  0
APPID
  2
ACAD
 70
     0
  0
APPID
  2
MCAD_NO_VIS
 70
     0
  0
APPID
  2
ACAD_TEMP_GRAPHIC
 70
     0
  0
APPID
  2
ACATTRIBSERVICES
 70
     0
  0
APPID
  2
DESIGNERASSEMBLIES
 70
     0
  0
APPID
  2
ACAD_DSTYLE_DIMJAG
 70
     0
  0
APPID
  2
ACAD_DSTYLE_DIMBREAK
 70
     0
  0
APPID
  2
ACAD_NAV_VCDISPLAY
 70
     0
  0
APPID
  2
ACAD_EXEMPT_FROM_CAD_STANDARDS
 70
     0
  0
APPID
  2
ACAD_PSEXT
 70
     0
  0
APPID
  2
ACAECLAYERSTANDARD
 70
     0
  0
APPID
  2
ACAD_MLEADERVER
 70
     0
  0
APPID
  2
ACAD_DSTYLE_DIMARC_LENGTH_
 70
     0
  0
APPID
  2
ACAD_DSTYLE_DIM_LINETYPE
 70
     0
  0
APPID
  2
ACAD_DSTYLE_DIM_EXT1_LINETYPE
 70
     0
  0
APPID
  2
ACAD_DSTYLE_DIM_EXT2_LINETYPE
 70
     0
  0
APPID
  2
ACDBDYNAMICBLOCKTRUENAME2
 70
     0
  0
ENDTAB
  0
TABLE
  2
DIMSTYLE
 70
     8
  0
DIMSTYLE
  2
ISO-25
 70
     0
  3

  4

  5

  6

  7

 40
1.0
 41
2.5
 42
0.625
 43
3.75
 44
1.25
 45
0.0
 46
0.0
 47
0.0
 48
0.0
140
2.5
141
2.5
142
0.0
143
0.03937007874016
144
1.0
145
0.0
146
1.0
147
0.625
 71
     0
 72
     0
 73
     0
 74
     0
 75
     0
 76
     0
 77
     1
 78
     8
170
     0
171
     3
172
     1
173
     0
174
     0
175
     0
176
     0
177
     0
178
     0
  0
DIMSTYLE
  2
AM_ISO
 70
     0
  3

  4
"
  5

  6

  7

 40
1.0
 41
3.5
 42
1.0
 43
10.0
 44
1.0
 45
0.0
 46
0.0
 47
0.1
 48
0.1
140
3.5
141
0.0
142
0.0
143
0.0393701
144
1.0
145
0.0
146
0.71
147
1.5
 71
     0
 72
     0
 73
     0
 74
     0
 75
     0
 76
     0
 77
     1
 78
     8
170
     0
171
     2
172
     1
173
     0
174
     0
175
     0
176
   256
177
   256
178
     2
  0
DIMSTYLE
  2
AM_ISO$3
 70
     0
  3

  4
"
  5

  6

  7

 40
1.0
 41
3.5
 42
1.0
 43
10.0
 44
1.0
 45
0.0
 46
0.0
 47
0.1
 48
0.1
140
3.5
141
0.0
142
0.0
143
0.0393701
144
1.0
145
0.0
146
0.71
147
1.5
 71
     0
 72
     0
 73
     0
 74
     1
 75
     0
 76
     0
 77
     1
 78
     8
170
     0
171
     2
172
     0
173
     0
174
     0
175
     0
176
   256
177
   256
178
     2
  0
DIMSTYLE
  2
AM_ISO$4
 70
     0
  3

  4
"
  5

  6

  7

 40
1.0
 41
3.5
 42
1.0
 43
10.0
 44
1.0
 45
0.0
 46
0.0
 47
0.1
 48
0.1
140
3.5
141
0.0
142
0.0
143
0.0393701
144
1.0
145
0.0
146
0.71
147
1.5
 71
     0
 72
     0
 73
     0
 74
     1
 75
     0
 76
     0
 77
     1
 78
     8
170
     0
171
     2
172
     0
173
     0
174
     0
175
     0
176
   256
177
   256
178
     2
  0
DIMSTYLE
  2
AM_ISO$6
 70
     0
  3

  4
"
  5

  6

  7

 40
1.0
 41
3.5
 42
1.0
 43
10.0
 44
1.0
 45
0.0
 46
0.0
 47
0.1
 48
0.1
140
3.5
141
0.0
142
0.0
143
0.0393701
144
1.0
145
0.0
146
0.71
147
1.5
 71
     0
 72
     0
 73
     0
 74
     0
 75
     0
 76
     0
 77
     0
 78
     8
170
     0
171
     2
172
     1
173
     0
174
     0
175
     0
176
   256
177
   256
178
     2
  0
DIMSTYLE
  2
AM_ISO$7
 70
     0
  3

  4
"
  5

  6

  7

 40
1.0
 41
3.5
 42
1.0
 43
10.0
 44
1.0
 45
0.0
 46
0.0
 47
0.1
 48
0.1
140
3.5
141
0.0
142
0.0
143
0.0393701
144
1.0
145
0.0
146
0.71
147
1.5
 71
     0
 72
     0
 73
     0
 74
     0
 75
     0
 76
     0
 77
     1
 78
     8
170
     0
171
     2
172
     1
173
     0
174
     0
175
     0
176
   256
177
   256
178
     2
  0
DIMSTYLE
  2
AM_ISO$SF
 70
     0
  3

  4
"
  5

  6

  7

 40
1.0
 41
3.5
 42
1.0
 43
10.0
 44
1.0
 45
0.0
 46
0.0
 47
0.1
 48
0.1
140
3.5
141
0.0
142
0.0
143
0.0393701
144
1.0
145
0.0
146
0.71
147
1.5
 71
     0
 72
     0
 73
     0
 74
     0
 75
     1
 76
     1
 77
     1
 78
     8
170
     0
171
     2
172
     1
173
     0
174
     0
175
     0
176
   256
177
   256
178
     2
  0
DIMSTYLE
  2
AM_ISO$SH
 70
     0
  3

  4
"
  5

  6
GENAXEH
  7

 40
1.0
 41
3.5
 42
1.0
 43
10.0
 44
1.0
 45
0.0
 46
0.0
 47
0.1
 48
0.1
140
3.5
141
0.0
142
0.0
143
0.0393701
144
2.0
145
0.0
146
0.71
147
1.5
 71
     0
 72
     0
 73
     0
 74
     0
 75
     1
 76
     1
 77
     1
 78
     8
170
     0
171
     2
172
     1
173
     1
174
     0
175
     0
176
   256
177
   256
178
     2
  0
ENDTAB
  0
ENDSEC
  0
SECTION
  2
BLOCKS
  0
BLOCK
  8
0
  2
$MODEL_SPACE
 70
     0
 10
0.0
 20
0.0
 30
0.0
  3
$MODEL_SPACE
  1

  0
ENDBLK
  5
21
  8
0
  0
BLOCK
 67
     1
  8
0
  2
$PAPER_SPACE
 70
     0
 10
0.0
 20
0.0
 30
0.0
  3
$PAPER_SPACE
  1

  0
ENDBLK
  5
1D
 67
     1
  8
0
  0
BLOCK
  8
0
  2
GENAXEH
 70
     0
 10
0.0
 20
0.0
 30
0.0
  3
GENAXEH
  1

  0
LINE
  5
14E
  8
0
 10
-1.0
 20
0.0
 30
0.0
 11
1.0
 21
0.0
 31
0.0
  0
ENDBLK
  5
150
  8
0
  0
BLOCK
  8
0
 62
     4
  2
*U3
 70
     1
 10
0.0
 20
0.0
 30
0.0
  3
*U3
  1

  0
TEXT
  5
4D1
  8
0
  6
AM_ISO08W050X2
 62
     2
 10
108.944043650122
 20
129.58725502326831
 30
0.0
 40
3.5
  1
pm-f65w
  0
ENDBLK
  5
4D3
  8
0
 62
     4
  0
ENDSEC
  0
SECTION
  2
ENTITIES
  0
LINE
  5
44
  8
0
  6
CONTINUOUS
 62
     7
 10
95.738960674157283
 20
144.37112359550559
 30
0.0
 11
95.738960674157283
 21
153.97112359550559
 31
0.0
  0
LINE
  5
45
  8
0
  6
CONTINUOUS
 62
     7
 10
98.238960674157283
 20
144.37112359550559
 30
0.0
 11
98.238960674157283
 21
153.97112359550559
 31
0.0
  0
LINE
  5
46
  8
0
  6
CONTINUOUS
 62
     7
 10
98.238960674157283
 20
142.37112359550559
 30
0.0
 11
95.738960674157283
 21
142.37112359550559
 31
0.0
  0
LINE
  5
47
  8
0
  6
CONTINUOUS
 62
     7
 10
95.738960674157283
 20
142.37112359550559
 30
0.0
 11
95.738960674157283
 21
144.37112359550559
 31
0.0
  0
LINE
  5
48
  8
0
  6
CONTINUOUS
 62
     7
 10
98.238960674157283
 20
144.37112359550559
 30
0.0
 11
98.238960674157283
 21
142.37112359550559
 31
0.0
  0
LINE
  5
49
  8
0
  6
CONTINUOUS
 62
     7
 10
95.738960674157283
 20
155.97112359550559
 30
0.0
 11
98.238960674157312
 21
155.97112359550559
 31
0.0
  0
LINE
  5
4A
  8
0
  6
CONTINUOUS
 62
     7
 10
95.738960674157283
 20
153.97112359550559
 30
0.0
 11
95.738960674157283
 21
155.97112359550559
 31
0.0
  0
LINE
  5
4B
  8
0
  6
CONTINUOUS
 62
     7
 10
98.238960674157312
 20
155.97112359550559
 30
0.0
 11
98.238960674157283
 21
153.97112359550559
 31
0.0
  0
LINE
  5
4C
  8
0
  6
CONTINUOUS
 62
     7
 10
99.938960674157286
 20
141.2711235955056
 30
0.0
 11
97.338960674157292
 21
141.2711235955056
 31
0.0
  0
LINE
  5
4D
  8
0
  6
CONTINUOUS
 62
     7
 10
97.338960674157292
 20
142.37112359550559
 30
0.0
 11
97.338960674157292
 21
141.2711235955056
 31
0.0
  0
LINE
  5
4E
  8
0
  6
CONTINUOUS
 62
     7
 10
108.1389606741573
 20
149.07112359550561
 30
0.0
 11
98.238960674157283
 21
149.07112359550561
 31
0.0
  0
LINE
  5
4F
  8
0
  6
CONTINUOUS
 62
     7
 10
108.1389606741573
 20
149.07112359550561
 30
0.0
 11
108.1389606741573
 21
141.2711235955056
 31
0.0
  0
LINE
  5
50
  8
0
  6
CONTINUOUS
 62
     7
 10
108.1389606741573
 20
141.2711235955056
 30
0.0
 11
105.53896067415729
 21
141.2711235955056
 31
0.0
  0
LINE
  5
51
  8
0
  6
CONTINUOUS
 62
     7
 10
105.53896067415729
 20
147.47112359550559
 30
0.0
 11
105.53896067415729
 21
141.2711235955056
 31
0.0
  0
LINE
  5
52
  8
0
  6
CONTINUOUS
 62
     7
 10
105.53896067415729
 20
147.47112359550559
 30
0.0
 11
99.938960674157286
 21
147.47112359550559
 31
0.0
  0
LINE
  5
53
  8
0
  6
CONTINUOUS
 62
     7
 10
99.938960674157286
 20
147.47112359550559
 30
0.0
 11
99.938960674157286
 21
141.2711235955056
 31
0.0
  0
LINE
  5
54
  8
0
  6
CONTINUOUS
 62
     7
 10
98.238960674157283
 20
149.57112359550561
 30
0.0
 11
108.6389606741573
 21
149.57112359550561
 31
0.0
  0
LINE
  5
55
  8
0
  6
CONTINUOUS
 62
     7
 10
108.6389606741573
 20
149.57112359550561
 30
0.0
 11
108.1389606741573
 21
149.07112359550561
 31
0.0
  0
LINE
  5
56
  8
0
  6
CONTINUOUS
 62
     7
 10
108.6389606741573
 20
141.2711235955056
 30
0.0
 11
108.1389606741573
 21
141.2711235955056
 31
0.0
  0
LINE
  5
57
  8
0
  6
CONTINUOUS
 62
     7
 10
108.6389606741573
 20
149.57112359550561
 30
0.0
 11
108.6389606741573
 21
141.2711235955056
 31
0.0
  0
LINE
  5
58
  8
0
  6
CONTINUOUS
 62
     7
 10
97.338960674157292
 20
141.2711235955056
 30
0.0
 11
96.838960674157306
 21
141.2711235955056
 31
0.0
  0
LINE
  5
59
  8
0
  6
CONTINUOUS
 62
     7
 10
96.838960674157306
 20
142.37112359550559
 30
0.0
 11
96.838960674157306
 21
141.2711235955056
 31
0.0
  0
LINE
  5
5A
  8
0
  6
CONTINUOUS
 62
     7
 10
96.038960674157295
 20
141.2711235955056
 30
0.0
 11
96.038960674157295
 21
142.37112359550559
 31
0.0
  0
LINE
  5
5B
  8
0
  6
CONTINUOUS
 62
     7
 10
96.838960674157306
 20
141.2711235955056
 30
0.0
 11
96.038960674157295
 21
141.2711235955056
 31
0.0
  0
LINE
  5
5C
  8
0
  6
CONTINUOUS
 62
     7
 10
96.038960674157295
 20
163.67112359550561
 30
0.0
 11
99.738960674157283
 21
163.67112359550561
 31
0.0
  0
LINE
  5
5D
  8
0
  6
CONTINUOUS
 62
     7
 10
105.7389606741573
 20
154.2711235955056
 30
0.0
 11
105.7389606741573
 21
163.67112359550561
 31
0.0
  0
LINE
  5
5E
  8
0
  6
CONTINUOUS
 62
     7
 10
105.7389606741573
 20
154.2711235955056
 30
0.0
 11
99.738960674157283
 21
154.2711235955056
 31
0.0
  0
LINE
  5
5F
  8
0
  6
CONTINUOUS
 62
     7
 10
96.038960674157295
 20
155.97112359550559
 30
0.0
 11
96.038960674157295
 21
163.67112359550561
 31
0.0
  0
LINE
  5
60
  8
0
  6
CONTINUOUS
 62
     7
 10
99.738960674157283
 20
163.67112359550561
 30
0.0
 11
99.738960674157283
 21
154.2711235955056
 31
0.0
  0
LINE
  5
61
  8
0
  6
CONTINUOUS
 62
     7
 10
105.7389606741573
 20
163.67112359550561
 30
0.0
 11
109.4389606741573
 21
163.67112359550561
 31
0.0
  0
LINE
  5
62
  8
0
  6
CONTINUOUS
 62
     7
 10
109.4389606741573
 20
163.67112359550561
 30
0.0
 11
109.4389606741573
 21
141.2711235955056
 31
0.0
  0
LINE
  5
63
  8
0
  6
CONTINUOUS
 62
     7
 10
109.4389606741573
 20
141.2711235955056
 30
0.0
 11
108.6389606741573
 21
141.2711235955056
 31
0.0
  0
LINE
  5
68
  8
0
  6
CONTINUOUS
 62
     7
 10
105.7389606741573
 20
155.2711235955056
 30
0.0
 11
99.738960674157283
 21
155.2711235955056
 31
0.0
  0
LINE
  5
6A
  8
0
  6
CONTINUOUS
 62
     7
 10
103.53896067415729
 20
145.87112359550559
 30
0.0
 11
101.9389606741573
 21
145.87112359550559
 31
0.0
  0
LINE
  5
6B
  8
0
  6
CONTINUOUS
 62
     7
 10
103.53896067415729
 20
144.03112359550559
 30
0.0
 11
103.53896067415729
 21
145.87112359550559
 31
0.0
  0
LINE
  5
6C
  8
0
  6
CONTINUOUS
 62
     7
 10
101.9389606741573
 20
144.03112359550559
 30
0.0
 11
103.53896067415729
 21
144.03112359550559
 31
0.0
  0
LINE
  5
6D
  8
0
  6
CONTINUOUS
 62
     7
 10
101.9389606741573
 20
145.87112359550559
 30
0.0
 11
101.9389606741573
 21
144.03112359550559
 31
0.0
  0
LINE
  5
6F
  8
0
  6
CONTINUOUS
 62
     7
 10
105.53896067415729
 20
142.57112359550561
 30
0.0
 11
99.938960674157286
 21
142.57112359550561
 31
0.0
  0
LINE
  5
70
  8
0
  6
CONTINUOUS
 62
     7
 10
99.938960674157286
 20
141.2711235955056
 30
0.0
 11
105.53896067415729
 21
141.2711235955056
 31
0.0
  0
LINE
  5
71
  8
0
  6
CONTINUOUS
 62
     7
 10
140.85109897001649
 20
163.67112359550561
 30
0.0
 11
140.85109897001649
 21
141.2711235955056
 31
0.0
  0
LINE
  5
72
  8
0
  6
CONTINUOUS
 62
     7
 10
134.85109897001649
 20
163.67112359550561
 30
0.0
 11
134.85109897001649
 21
141.2711235955056
 31
0.0
  0
LINE
  5
73
  8
0
  6
CONTINUOUS
 62
     7
 10
140.85109897001649
 20
163.67112359550561
 30
0.0
 11
134.85109897001649
 21
163.67112359550561
 31
0.0
  0
LINE
  5
74
  8
0
  6
CONTINUOUS
 62
     7
 10
140.85109897001649
 20
141.2711235955056
 30
0.0
 11
134.85109897001649
 21
141.2711235955056
 31
0.0
  0
LINE
  5
75
  8
0
  6
CONTINUOUS
 62
     7
 10
134.35109897001649
 20
149.07112359550561
 30
0.0
 11
134.35109897001649
 21
141.2711235955056
 31
0.0
  0
LINE
  5
76
  8
0
  6
CONTINUOUS
 62
     7
 10
134.85109897001649
 20
149.57112359550561
 30
0.0
 11
134.35109897001649
 21
149.07112359550561
 31
0.0
  0
LINE
  5
77
  8
0
  6
CONTINUOUS
 62
     7
 10
134.85109897001649
 20
141.2711235955056
 30
0.0
 11
134.35109897001649
 21
141.2711235955056
 31
0.0
  0
CIRCLE
  5
78
  8
0
  6
CONTINUOUS
 62
     7
 10
130.85109897001649
 20
145.67112359550561
 30
0.0
 40
1.75
  0
CIRCLE
  5
79
  8
0
  6
CONTINUOUS
 62
     7
 10
130.85109897001649
 20
152.67112359550561
 30
0.0
 40
1.75
  0
LINE
  5
7A
  8
0
  6
CONTINUOUS
 62
     7
 10
134.35109897001649
 20
142.37112359550559
 30
0.0
 11
129.85109897001649
 21
142.37112359550559
 31
0.0
  0
ARC
  5
7B
  8
0
  6
CONTINUOUS
 62
     7
 10
129.85109897001649
 20
144.37112359550559
 30
0.0
 40
2.0000000000000142
 50
180.0
 51
270.0000000000008
  0
LINE
  5
7C
  8
0
  6
CONTINUOUS
 62
     7
 10
127.85109897001649
 20
144.37112359550559
 30
0.0
 11
127.85109897001649
 21
153.97112359550559
 31
0.0
  0
ARC
  5
7D
  8
0
  6
CONTINUOUS
 62
     7
 10
129.85109897001649
 20
153.97112359550559
 30
0.0
 40
2.0000000000000142
 50
90.0
 51
180.0
  0
LINE
  5
7E
  8
0
  6
CONTINUOUS
 62
     7
 10
129.85109897001649
 20
155.97112359550559
 30
0.0
 11
134.85109897001649
 21
155.97112359550559
 31
0.0
  0
LINE
  5
7F
  8
0
  6
CONTINUOUS
 62
     7
 10
96.038960674157323
 20
195.61773761240451
 30
0.0
 11
99.738960674157283
 21
195.61773761240451
 31
0.0
  0
LINE
  5
80
  8
0
  6
CONTINUOUS
 62
     7
 10
99.738960674157283
 20
195.61773761240451
 30
0.0
 11
99.738960674157283
 21
189.61773761240451
 31
0.0
  0
LINE
  5
81
  8
0
  6
CONTINUOUS
 62
     7
 10
96.038960674157323
 20
189.61773761240451
 30
0.0
 11
99.738960674157283
 21
189.61773761240451
 31
0.0
  0
LINE
  5
89
  8
0
  6
CONTINUOUS
 62
     7
 10
96.038960674157323
 20
195.61773761240451
 30
0.0
 11
96.038960674157323
 21
189.61773761240451
 31
0.0
  0
LINE
  5
8A
  8
0
  6
CONTINUOUS
 62
     7
 10
105.7389606741573
 20
195.61773761240451
 30
0.0
 11
105.7389606741573
 21
189.61773761240451
 31
0.0
  0
LINE
  5
8B
  8
0
  6
CONTINUOUS
 62
     7
 10
109.4389606741573
 20
195.61773761240451
 30
0.0
 11
109.4389606741573
 21
189.61773761240451
 31
0.0
  0
LINE
  5
8C
  8
0
  6
CONTINUOUS
 62
     7
 10
105.7389606741573
 20
189.61773761240451
 30
0.0
 11
109.4389606741573
 21
189.61773761240451
 31
0.0
  0
LINE
  5
94
  8
0
  6
CONTINUOUS
 62
     7
 10
105.7389606741573
 20
195.61773761240451
 30
0.0
 11
109.4389606741573
 21
195.61773761240451
 31
0.0
  0
LINE
  5
95
  8
0
  6
CONTINUOUS
 62
     7
 10
96.038960674157323
 20
190.11773761240451
 30
0.0
 11
95.738960674157312
 21
190.11773761240451
 31
0.0
  0
LINE
  5
96
  8
0
  6
CONTINUOUS
 62
     7
 10
98.238960674157312
 20
184.6177376124044
 30
0.0
 11
98.238960674157312
 21
189.61773761240451
 31
0.0
  0
LINE
  5
97
  8
0
  6
CONTINUOUS
 62
     7
 10
95.738960674157312
 20
184.6177376124044
 30
0.0
 11
95.738960674157312
 21
190.11773761240451
 31
0.0
  0
LINE
  5
98
  8
0
  6
CONTINUOUS
 62
     7
 10
98.238960674157312
 20
182.6177376124044
 30
0.0
 11
95.738960674157312
 21
182.6177376124044
 31
0.0
  0
LINE
  5
99
  8
0
  6
CONTINUOUS
 62
     7
 10
98.238960674157312
 20
184.6177376124044
 30
0.0
 11
98.238960674157312
 21
182.6177376124044
 31
0.0
  0
LINE
  5
9A
  8
0
  6
CONTINUOUS
 62
     7
 10
95.738960674157312
 20
182.6177376124044
 30
0.0
 11
95.738960674157312
 21
184.6177376124044
 31
0.0
  0
LINE
  5
9C
  8
0
  6
CONTINUOUS
 62
     7
 10
105.7389606741573
 20
194.81773761240439
 30
0.0
 11
99.738960674157283
 21
194.81773761240439
 31
0.0
  0
LINE
  5
9D
  8
0
  6
CONTINUOUS
 62
     7
 10
105.7389606741573
 20
190.41773761240441
 30
0.0
 11
99.738960674157283
 21
190.41773761240441
 31
0.0
  0
LINE
  5
9F
  8
0
  6
CONTINUOUS
 62
     7
 10
105.7389606741573
 20
195.61773761240451
 30
0.0
 11
99.738960674157283
 21
195.61773761240451
 31
0.0
  0
LINE
  5
A0
  8
0
  6
CONTINUOUS
 62
     7
 10
105.7389606741573
 20
189.61773761240451
 30
0.0
 11
99.738960674157283
 21
189.61773761240451
 31
0.0
  0
LINE
  5
A1
  8
0
  6
CONTINUOUS
 62
     7
 10
95.738960674157312
 20
190.11773761240451
 30
0.0
 11
95.738960674157312
 21
195.61773761240451
 31
0.0
  0
LINE
  5
A2
  8
0
  6
CONTINUOUS
 62
     7
 10
96.038960674157323
 20
195.61773761240451
 30
0.0
 11
95.738960674157312
 21
195.61773761240451
 31
0.0
  0
LINE
  5
A3
  8
0
  6
CONTINUOUS
 62
     7
 10
108.1389606741573
 20
189.11773761240451
 30
0.0
 11
98.238960674157312
 21
189.11773761240451
 31
0.0
  0
LINE
  5
A4
  8
0
  6
CONTINUOUS
 62
     7
 10
108.6389606741573
 20
189.61773761240451
 30
0.0
 11
108.1389606741573
 21
189.11773761240451
 31
0.0
  0
INSERT
  5
16A
  8
0
  6
AM_ISO08W050X2
 62
     4
  2
*U3
 10
0.0
 20
0.0
 30
0.0
  0
LINE
  5
184
  8
0
 62
     2
 10
104.51409977218169
 20
192.61773761240451
 30
0.0
 11
103.42978348440739
 21
192.16977665798731
 31
0.0
  0
LINE
  5
185
  8
0
 62
     2
 10
104.51409977218169
 20
192.61773761240451
 30
0.0
 11
103.42978348440739
 21
193.09462925404759
 31
0.0
  0
LINE
  5
186
  8
0
 62
     2
 10
100.87483760171639
 20
192.61773761240451
 30
0.0
 11
104.51409977218169
 21
192.61773761240451
 31
0.0
  0
LINE
  5
19E
  8
0
  6
AM_ISO08W050X2
 62
     4
 10
100.2776297467736
 20
192.61773761240451
 30
0.0
 11
95.054664037334533
 21
192.61773761240451
 31
0.0
  0
LINE
  5
1A0
  8
0
  6
AM_ISO08W050X2
 62
     4
 10
105.1064085494106
 20
192.61773761240451
 30
0.0
 11
110.1089805230075
 21
192.61773761240451
 31
0.0
  0
LINE
  5
1D0
  8
0
 62
     2
 10
104.51409977218169
 20
161.67112359550561
 30
0.0
 11
103.42978348440739
 21
161.22316264108841
 31
0.0
  0
LINE
  5
1D1
  8
0
 62
     2
 10
104.51409977218169
 20
161.67112359550561
 30
0.0
 11
103.42978348440739
 21
162.14801523714871
 31
0.0
  0
LINE
  5
1D2
  8
0
 62
     2
 10
100.87483760171639
 20
161.67112359550561
 30
0.0
 11
104.51409977218169
 21
161.67112359550561
 31
0.0
  0
LINE
  5
1E0
  8
0
 62
     2
 10
104.51409977218169
 20
161.67112359550561
 30
0.0
 11
103.42978348440739
 21
161.22316264108841
 31
0.0
  0
LINE
  5
1E1
  8
0
 62
     2
 10
104.51409977218169
 20
161.67112359550561
 30
0.0
 11
103.42978348440739
 21
162.14801523714871
 31
0.0
  0
LINE
  5
1E2
  8
0
 62
     2
 10
100.87483760171639
 20
161.67112359550561
 30
0.0
 11
104.51409977218169
 21
161.67112359550561
 31
0.0
  0
LINE
  5
209
  8
0
  6
AM_ISO08W050X2
 62
     4
 10
100.22987044426461
 20
161.67112359550561
 30
0.0
 11
95.439911191384226
 21
161.67112359550561
 31
0.0
  0
LINE
  5
20B
  8
0
  6
AM_ISO08W050X2
 62
     4
 10
105.21239073912329
 20
161.67112359550561
 30
0.0
 11
110.1467700837627
 21
161.67112359550561
 31
0.0
  0
LINE
  5
20D
  8
0
  6
AM_ISO08W050X2
 62
     4
 10
102.7389606741573
 20
196.38730696927519
 30
0.0
 11
102.7389606741573
 21
188.42712841478851
 31
0.0
  0
LINE
  5
20F
  8
0
  6
AM_ISO08W050X2
 62
     4
 10
102.7389606741573
 20
164.63677494683009
 30
0.0
 11
102.7389606741573
 21
139.6063260490599
 31
0.0
  0
LINE
  5
266
  8
0
  6
AM_ISO08W050X2
 62
     4
 10
137.85109897001649
 20
164.98115027950249
 30
0.0
 11
137.85109897001649
 21
140.31896274962361
 31
0.0
  0
LINE
  5
268
  8
0
  6
AM_ISO08W050X2
 62
     4
 10
130.85109897001649
 20
154.92187037986869
 30
0.0
 11
130.85109897001649
 21
150.49902057251799
 31
0.0
  0
LINE
  5
26A
  8
0
  6
AM_ISO08W050X2
 62
     4
 10
130.85109897001649
 20
148.0447225014629
 30
0.0
 11
130.85109897001649
 21
143.44291344535799
 31
0.0
  0
LINE
  5
26C
  8
0
  6
AM_ISO08W050X2
 62
     4
 10
128.5790035523963
 20
152.7104454761934
 30
0.0
 11
133.20755985022399
 21
152.7104454761934
 31
0.0
  0
LINE
  5
26E
  8
0
  6
AM_ISO08W050X2
 62
     4
 10
128.5790035523963
 20
145.67112359550561
 30
0.0
 11
133.15641629813891
 21
145.67112359550561
 31
0.0
  0
LINE
  5
3BA
  8
0
  6
AM_ISO08W050X2
 62
     4
 10
133.4688663833814
 20
161.67112359550561
 30
0.0
 11
141.9520782486272
 21
161.67112359550561
 31
0.0
  0
LINE
  5
3C1
  8
0
  6
AM_ISO08W050X2
 62
     4
 10
94.532452973306803
 20
185.6177376124044
 30
0.0
 11
99.564913168284988
 21
185.6177376124044
 31
0.0
  0
LINE
  5
3C2
  8
0
  6
AM_ISO08W050X2
 62
     4
 10
94.532452973306803
 20
152.7104454761934
 30
0.0
 11
99.564913168284988
 21
152.7104454761934
 31
0.0
  0
LINE
  5
3C3
  8
0
  6
AM_ISO08W050X2
 62
     4
 10
94.532452973306803
 20
145.67112359550561
 30
0.0
 11
99.564913168284988
 21
145.67112359550561
 31
0.0
  0
ENDSEC
  0
EOF
