  0
SECTION
  2
HEADER
  9
$ACADVER
  1
AC1009
  9
$INSBASE
 10
0.0
 20
0.0
 30
0.0
  9
$EXTMIN
 10
65.073350722311389
 20
112.48461840230451
 30
0.0
  9
$EXTMAX
 10
128.4549934073047
 20
193.95785714285711
 30
0.0
  9
$LIMMIN
 10
0.0
 20
0.0
  9
$LIMMAX
 10
210.0
 20
297.0
  9
$ORTHOMODE
 70
     0
  9
$REGENMODE
 70
     1
  9
$FILLMODE
 70
     1
  9
$QTEXTMODE
 70
     0
  9
$MIRRTEXT
 70
     1
  9
$DRAGMODE
 70
     2
  9
$LTSCALE
 40
1.0
  9
$OSMODE
 70
    39
  9
$ATTMODE
 70
     1
  9
$TEXTSIZE
 40
2.5
  9
$TRACEWID
 40
1.0
  9
$TEXTSTYLE
  7
STANDARD
  9
$CLAYER
  8
0
  9
$CELTYPE
  6
BYLAYER
  9
$CECOLOR
 62
   256
  9
$DIMSCALE
 40
1.0
  9
$DIMASZ
 40
6.0
  9
$DIMEXO
 40
1.0
  9
$DIMDLI
 40
3.75
  9
$DIMRND
 40
0.0
  9
$DIMDLE
 40
0.0
  9
$DIMEXE
 40
1.0
  9
$DIMTP
 40
0.0
  9
$DIMTM
 40
0.0
  9
$DIMTXT
 40
3.5
  9
$DIMCEN
 40
2.5
  9
$DIMTSZ
 40
0.0
  9
$DIMTOL
 70
     0
  9
$DIMLIM
 70
     0
  9
$DIMTIH
 70
     1
  9
$DIMTOH
 70
     1
  9
$DIMSE1
 70
     0
  9
$DIMSE2
 70
     0
  9
$DIMTAD
 70
     1
  9
$DIMZIN
 70
     0
  9
$DIMBLK
  1

  9
$DIMASO
 70
     1
  9
$DIMSHO
 70
     1
  9
$DIMPOST
  1

  9
$DIMAPOST
  1

  9
$DIMALT
 70
     0
  9
$DIMALTD
 70
     3
  9
$DIMALTF
 40
0.0393700787401575
  9
$DIMLFAC
 40
1.0
  9
$DIMTOFL
 70
     1
  9
$DIMTVP
 40
0.0
  9
$DIMTIX
 70
     0
  9
$DIMSOXD
 70
     0
  9
$DIMSAH
 70
     0
  9
$DIMBLK1
  1

  9
$DIMBLK2
  1

  9
$DIMSTYLE
  2
ISO-25
  9
$DIMCLRD
 70
     0
  9
$DIMCLRE
 70
     0
  9
$DIMCLRT
 70
     0
  9
$DIMTFAC
 40
1.0
  9
$DIMGAP
 40
1.524
  9
$LUNITS
 70
     2
  9
$LUPREC
 70
     2
  9
$SKETCHINC
 40
1.0
  9
$FILLETRAD
 40
10.0
  9
$AUNITS
 70
     0
  9
$AUPREC
 70
     2
  9
$MENU
  1
.
  9
$ELEVATION
 40
0.0
  9
$PELEVATION
 40
0.0
  9
$THICKNESS
 40
0.0
  9
$LIMCHECK
 70
     0
  9
$BLIPMODE
 70
     0
  9
$CHAMFERA
 40
10.0
  9
$CHAMFERB
 40
10.0
  9
$SKPOLY
 70
     0
  9
$TDCREATE
 40
2457238.5819317009
  9
$TDUPDATE
 40
2457242.6885763779
  9
$TDINDWG
 40
0.0198329398
  9
$TDUSRTIMER
 40
0.0198329398
  9
$USRTIMER
 70
     1
  9
$ANGBASE
 50
0.0
  9
$ANGDIR
 70
     0
  9
$PDMODE
 70
     0
  9
$PDSIZE
 40
-1.0
  9
$PLINEWID
 40
0.0
  9
$COORDS
 70
     2
  9
$SPLFRAME
 70
     0
  9
$SPLINETYPE
 70
     6
  9
$SPLINESEGS
 70
     8
  9
$ATTDIA
 70
     1
  9
$ATTREQ
 70
     1
  9
$HANDLING
 70
     1
  9
$HANDSEED
  5
503
  9
$SURFTAB1
 70
     6
  9
$SURFTAB2
 70
     6
  9
$SURFTYPE
 70
     6
  9
$SURFU
 70
     6
  9
$SURFV
 70
     6
  9
$UCSNAME
  2

  9
$UCSORG
 10
0.0
 20
0.0
 30
0.0
  9
$UCSXDIR
 10
1.0
 20
0.0
 30
0.0
  9
$UCSYDIR
 10
0.0
 20
1.0
 30
0.0
  9
$PUCSNAME
  2

  9
$PUCSORG
 10
0.0
 20
0.0
 30
0.0
  9
$PUCSXDIR
 10
1.0
 20
0.0
 30
0.0
  9
$PUCSYDIR
 10
0.0
 20
1.0
 30
0.0
  9
$USERI1
 70
     0
  9
$USERI2
 70
     0
  9
$USERI3
 70
     0
  9
$USERI4
 70
     0
  9
$USERI5
 70
     0
  9
$USERR1
 40
0.0
  9
$USERR2
 40
0.0
  9
$USERR3
 40
0.0
  9
$USERR4
 40
0.0
  9
$USERR5
 40
0.0
  9
$WORLDVIEW
 70
     1
  9
$SHADEDGE
 70
     3
  9
$SHADEDIF
 70
    70
  9
$TILEMODE
 70
     1
  9
$MAXACTVP
 70
    64
  9
$PLIMCHECK
 70
     0
  9
$PEXTMIN
 10
1.0000000000000000E+020
 20
1.0000000000000000E+020
 30
1.0000000000000000E+020
  9
$PEXTMAX
 10
-1.0000000000000000E+020
 20
-1.0000000000000000E+020
 30
-1.0000000000000000E+020
  9
$PLIMMIN
 10
0.0
 20
0.0
  9
$PLIMMAX
 10
420.0
 20
297.0
  9
$UNITMODE
 70
     0
  9
$VISRETAIN
 70
     1
  9
$PLINEGEN
 70
     0
  9
$PSLTSCALE
 70
     1
  0
ENDSEC
  0
SECTION
  2
TABLES
  0
TABLE
  2
VPORT
 70
     1
  0
VPORT
  2
*ACTIVE
 70
     0
 10
0.0
 20
0.0
 11
1.0
 21
1.0
 12
137.84549765480321
 22
200.71924973562571
 13
0.0
 23
0.0
 14
10.0
 24
10.0
 15
10.0
 25
10.0
 16
0.0
 26
0.0
 36
1.0
 17
0.0
 27
0.0
 37
0.0
 40
217.97454886075559
 41
0.8926673751328375
 42
50.0
 43
0.0
 44
0.0
 50
0.0
 51
0.0
 71
     0
 72
  2000
 73
     1
 74
     3
 75
     0
 76
     0
 77
     0
 78
     0
  0
ENDTAB
  0
TABLE
  2
LTYPE
 70
    17
  0
LTYPE
  2
CONTINUOUS
 70
     0
  3
Solid line
 72
    65
 73
     0
 40
0.0
  0
LTYPE
  2
HIDDEN
 70
     0
  3
Hidden __ __ __ __ __ __ __ __ __ __ __ __ __ __
 72
    65
 73
     2
 40
1.905
 49
1.27
 49
-0.635
  0
LTYPE
  2
PHANTOM
 70
     0
  3
Phantom ______  __  __  ______  __  __  ______
 72
    65
 73
     6
 40
12.699999999999999
 49
6.3499999999999988
 49
-1.27
 49
1.27
 49
-1.27
 49
1.27
 49
-1.27
  0
LTYPE
  2
CENTER
 70
     0
  3
Center ____ _ ____ _ ____ _ ____ _ ____ _ ____
 72
    65
 73
     4
 40
10.16
 49
6.3499999999999988
 49
-1.27
 49
1.27
 49
-1.27
  0
LTYPE
  2
CENTERX2
 70
     0
  3
Center (2x) ________  __  ________  __  _____
 72
    65
 73
     4
 40
20.32
 49
12.699999999999999
 49
-2.54
 49
2.54
 49
-2.54
  0
LTYPE
  2
DOT2
 70
     0
  3
Dot (.5x) ........................................
 72
    65
 73
     2
 40
0.635
 49
0.0
 49
-0.635
  0
LTYPE
  2
PHANTOM2
 70
     0
  3
Phantom (.5x) ___ _ _ ___ _ _ ___ _ _ ___ _ _
 72
    65
 73
     6
 40
31.75
 49
15.875
 49
-3.1749999999999989
 49
3.1749999999999989
 49
-3.1749999999999989
 49
3.1749999999999989
 49
-3.1749999999999989
  0
LTYPE
  2
AM_ISO02W050
 70
     0
  3
__ __ __ __ __ __ __ __ __ __ __ __ __ __ __
 72
    65
 73
     2
 40
7.5
 49
6.0
 49
-1.5
  0
LTYPE
  2
AM_ISO08W050
 70
     0
  3
____ . ____ . ____ . ____ . ____ . ____ . ____
 72
    65
 73
     4
 40
18.0
 49
12.0
 49
-1.5
 49
3.0
 49
-1.5
  0
LTYPE
  2
AM_ISO09W050
 70
     0
  3
_____ . . _____ . . _____ . . ____ .. ____
 72
    65
 73
     6
 40
22.5
 49
12.0
 49
-1.5
 49
3.0
 49
-1.5
 49
3.0
 49
-1.5
  0
LTYPE
  2
AMCONSTR
 70
     0
  3
_______________________
 72
    65
 73
     2
 40
9999.0
 49
9999.0
 49
0.0
  0
LTYPE
  2
AM_ISO08W050X2
 70
     0
  3
__ . __ . __ . __ . __ . __
 72
    65
 73
     4
 40
9.0
 49
6.0
 49
-0.75
 49
1.5
 49
-0.75
  0
LTYPE
  2
AM_ISO02W050X2
 70
     0
  3
 _ _ _ _ _ _ _ _ _ _ _ _
 72
    65
 73
     2
 40
3.75
 49
3.0
 49
-0.75
  0
LTYPE
  2
AMZIGZAG
 70
     0
  3
/\/-/\/-/\/-/\/-/\/-/\/
 72
    65
 73
     2
 40
11.0001
 49
0.0001
 49
-11.0
  0
LTYPE
  2
ACISOWELD
 70
     0
  3
_ _ _ _ _
 72
    65
 73
     2
 40
2.0
 49
2.0
 49
-1.0
  0
LTYPE
  2
ACISOTGL
 70
     0
  3
_ _ _ _ _
 72
    65
 73
     2
 40
3.0
 49
2.0
 49
-1.0
  0
LTYPE
  2
ACISOTGB
 70
     0
  3
__ . . __ . .
 72
    65
 73
     6
 40
9.0
 49
4.0
 49
-1.0
 49
1.0
 49
-1.0
 49
1.0
 49
-1.0
  0
ENDTAB
  0
TABLE
  2
LAYER
 70
     2
  0
LAYER
  2
0
 70
     0
 62
     7
  6
CONTINUOUS
  0
LAYER
  2
AM_CL
 70
     0
 62
     1
  6
AMCONSTR
  0
ENDTAB
  0
TABLE
  2
STYLE
 70
     4
  0
STYLE
  2
STANDARD
 70
     0
 40
0.0
 41
1.0
 50
0.0
 71
     0
 42
2.5
  3
txt
  4
bigfont
  0
STYLE
  2

 70
     1
 40
0.0
 41
1.0
 50
0.0
 71
     0
 42
3.5
  3
genltshp.shx
  4

  0
STYLE
  2
ACISOTS
 70
     0
 40
1.0
 41
1.0
 50
0.0
 71
     0
 42
3.5
  3
isocp.shx
  4
extfont.shx
  0
STYLE
  2
ACISOGDT
 70
     0
 40
0.0
 41
1.0
 50
0.0
 71
     0
 42
3.5
  3
amgdt.shx
  4

  0
ENDTAB
  0
TABLE
  2
VIEW
 70
     0
  0
ENDTAB
  0
TABLE
  2
UCS
 70
     0
  0
ENDTAB
  0
TABLE
  2
APPID
 70
    17
  0
APPID
  2
ACAD
 70
     0
  0
APPID
  2
MCAD_NO_VIS
 70
     0
  0
APPID
  2
ACAD_TEMP_GRAPHIC
 70
     0
  0
APPID
  2
ACATTRIBSERVICES
 70
     0
  0
APPID
  2
DESIGNERASSEMBLIES
 70
     0
  0
APPID
  2
ACAD_DSTYLE_DIMJAG
 70
     0
  0
APPID
  2
ACAD_DSTYLE_DIMBREAK
 70
     0
  0
APPID
  2
ACAD_NAV_VCDISPLAY
 70
     0
  0
APPID
  2
ACAECLAYERSTANDARD
 70
     0
  0
APPID
  2
ACAD_PSEXT
 70
     0
  0
APPID
  2
ACAD_EXEMPT_FROM_CAD_STANDARDS
 70
     0
  0
APPID
  2
ACAD_MLEADERVER
 70
     0
  0
APPID
  2
ACAD_DSTYLE_DIMARC_LENGTH_
 70
     0
  0
APPID
  2
ACAD_DSTYLE_DIM_LINETYPE
 70
     0
  0
APPID
  2
ACAD_DSTYLE_DIM_EXT1_LINETYPE
 70
     0
  0
APPID
  2
ACAD_DSTYLE_DIM_EXT2_LINETYPE
 70
     0
  0
APPID
  2
ACDBDYNAMICBLOCKTRUENAME2
 70
     0
  0
ENDTAB
  0
TABLE
  2
DIMSTYLE
 70
     8
  0
DIMSTYLE
  2
ISO-25
 70
     0
  3

  4

  5

  6

  7

 40
1.0
 41
2.5
 42
0.625
 43
3.75
 44
1.25
 45
0.0
 46
0.0
 47
0.0
 48
0.0
140
2.5
141
2.5
142
0.0
143
0.03937007874016
144
1.0
145
0.0
146
1.0
147
0.625
 71
     0
 72
     0
 73
     0
 74
     0
 75
     0
 76
     0
 77
     1
 78
     8
170
     0
171
     3
172
     1
173
     0
174
     0
175
     0
176
     0
177
     0
178
     0
  0
DIMSTYLE
  2
AM_ISO
 70
     0
  3

  4
"
  5

  6

  7

 40
1.0
 41
3.5
 42
1.0
 43
10.0
 44
1.0
 45
0.0
 46
0.0
 47
0.1
 48
0.1
140
3.5
141
0.0
142
0.0
143
0.0393701
144
1.0
145
0.0
146
0.71
147
1.5
 71
     0
 72
     0
 73
     0
 74
     0
 75
     0
 76
     0
 77
     1
 78
     8
170
     0
171
     2
172
     1
173
     0
174
     0
175
     0
176
   256
177
   256
178
     2
  0
DIMSTYLE
  2
AM_ISO$3
 70
     0
  3

  4
"
  5

  6

  7

 40
1.0
 41
3.5
 42
1.0
 43
10.0
 44
1.0
 45
0.0
 46
0.0
 47
0.1
 48
0.1
140
3.5
141
0.0
142
0.0
143
0.0393701
144
1.0
145
0.0
146
0.71
147
1.5
 71
     0
 72
     0
 73
     0
 74
     1
 75
     0
 76
     0
 77
     1
 78
     8
170
     0
171
     2
172
     0
173
     0
174
     0
175
     0
176
   256
177
   256
178
     2
  0
DIMSTYLE
  2
AM_ISO$4
 70
     0
  3

  4
"
  5

  6

  7

 40
1.0
 41
3.5
 42
1.0
 43
10.0
 44
1.0
 45
0.0
 46
0.0
 47
0.1
 48
0.1
140
3.5
141
0.0
142
0.0
143
0.0393701
144
1.0
145
0.0
146
0.71
147
1.5
 71
     0
 72
     0
 73
     0
 74
     1
 75
     0
 76
     0
 77
     1
 78
     8
170
     0
171
     2
172
     0
173
     0
174
     0
175
     0
176
   256
177
   256
178
     2
  0
DIMSTYLE
  2
AM_ISO$6
 70
     0
  3

  4
"
  5

  6

  7

 40
1.0
 41
3.5
 42
1.0
 43
10.0
 44
1.0
 45
0.0
 46
0.0
 47
0.1
 48
0.1
140
3.5
141
0.0
142
0.0
143
0.0393701
144
1.0
145
0.0
146
0.71
147
1.5
 71
     0
 72
     0
 73
     0
 74
     0
 75
     0
 76
     0
 77
     0
 78
     8
170
     0
171
     2
172
     1
173
     0
174
     0
175
     0
176
   256
177
   256
178
     2
  0
DIMSTYLE
  2
AM_ISO$7
 70
     0
  3

  4
"
  5

  6

  7

 40
1.0
 41
3.5
 42
1.0
 43
10.0
 44
1.0
 45
0.0
 46
0.0
 47
0.1
 48
0.1
140
3.5
141
0.0
142
0.0
143
0.0393701
144
1.0
145
0.0
146
0.71
147
1.5
 71
     0
 72
     0
 73
     0
 74
     0
 75
     0
 76
     0
 77
     1
 78
     8
170
     0
171
     2
172
     1
173
     0
174
     0
175
     0
176
   256
177
   256
178
     2
  0
DIMSTYLE
  2
AM_ISO$SF
 70
     0
  3

  4
"
  5

  6

  7

 40
1.0
 41
3.5
 42
1.0
 43
10.0
 44
1.0
 45
0.0
 46
0.0
 47
0.1
 48
0.1
140
3.5
141
0.0
142
0.0
143
0.0393701
144
1.0
145
0.0
146
0.71
147
1.5
 71
     0
 72
     0
 73
     0
 74
     0
 75
     1
 76
     1
 77
     1
 78
     8
170
     0
171
     2
172
     1
173
     0
174
     0
175
     0
176
   256
177
   256
178
     2
  0
DIMSTYLE
  2
AM_ISO$SH
 70
     0
  3

  4
"
  5

  6
GENAXEH
  7

 40
1.0
 41
3.5
 42
1.0
 43
10.0
 44
1.0
 45
0.0
 46
0.0
 47
0.1
 48
0.1
140
3.5
141
0.0
142
0.0
143
0.0393701
144
2.0
145
0.0
146
0.71
147
1.5
 71
     0
 72
     0
 73
     0
 74
     0
 75
     1
 76
     1
 77
     1
 78
     8
170
     0
171
     2
172
     1
173
     1
174
     0
175
     0
176
   256
177
   256
178
     2
  0
ENDTAB
  0
ENDSEC
  0
SECTION
  2
BLOCKS
  0
BLOCK
  8
0
  2
$MODEL_SPACE
 70
     0
 10
0.0
 20
0.0
 30
0.0
  3
$MODEL_SPACE
  1

  0
ENDBLK
  5
21
  8
0
  0
BLOCK
 67
     1
  8
0
  2
$PAPER_SPACE
 70
     0
 10
0.0
 20
0.0
 30
0.0
  3
$PAPER_SPACE
  1

  0
ENDBLK
  5
1D
 67
     1
  8
0
  0
BLOCK
  8
0
  2
GENAXEH
 70
     0
 10
0.0
 20
0.0
 30
0.0
  3
GENAXEH
  1

  0
LINE
  5
166
  8
0
 10
-1.0
 20
0.0
 30
0.0
 11
1.0
 21
0.0
 31
0.0
  0
ENDBLK
  5
168
  8
0
  0
BLOCK
  8
0
  2
*U3
 70
     1
 10
0.0
 20
0.0
 30
0.0
  3
*U3
  1

  0
TEXT
  5
500
  8
0
 62
     2
 10
86.912293282259043
 20
113.65128506897121
 30
0.0
 40
3.5
  1
pm-t65w
  0
ENDBLK
  5
502
  8
0
  0
ENDSEC
  0
SECTION
  2
ENTITIES
  0
LINE
  5
44
  8
0
  6
CONTINUOUS
 62
     7
 10
122.9855542335473
 20
136.8447360754414
 30
0.0
 11
122.9855542335473
 21
134.64473607544139
 31
0.0
  0
LINE
  5
45
  8
0
  6
CONTINUOUS
 62
     7
 10
126.98555423354721
 20
136.8447360754414
 30
0.0
 11
126.98555423354721
 21
134.64473607544139
 31
0.0
  0
LINE
  5
46
  8
0
  6
CONTINUOUS
 62
     7
 10
126.98555423354721
 20
132.64473607544139
 30
0.0
 11
122.9855542335473
 21
132.64473607544139
 31
0.0
  0
LINE
  5
47
  8
0
  6
CONTINUOUS
 62
     7
 10
122.9855542335473
 20
132.64473607544139
 30
0.0
 11
122.9855542335473
 21
134.64473607544139
 31
0.0
  0
LINE
  5
48
  8
0
  6
CONTINUOUS
 62
     7
 10
126.98555423354721
 20
134.64473607544139
 30
0.0
 11
126.98555423354721
 21
132.64473607544139
 31
0.0
  0
LINE
  5
49
  8
0
  6
CONTINUOUS
 62
     7
 10
122.9855542335473
 20
138.8447360754414
 30
0.0
 11
126.98555423354721
 21
138.8447360754414
 31
0.0
  0
LINE
  5
4A
  8
0
  6
CONTINUOUS
 62
     7
 10
122.9855542335473
 20
136.8447360754414
 30
0.0
 11
122.9855542335473
 21
138.8447360754414
 31
0.0
  0
LINE
  5
4B
  8
0
  6
CONTINUOUS
 62
     7
 10
126.98555423354721
 20
138.8447360754414
 30
0.0
 11
126.98555423354721
 21
136.8447360754414
 31
0.0
  0
LINE
  5
4C
  8
0
  6
CONTINUOUS
 62
     7
 10
122.8855542335473
 20
128.3447360754414
 30
0.0
 11
122.3855542335472
 21
128.3447360754414
 31
0.0
  0
LINE
  5
4D
  8
0
  6
CONTINUOUS
 62
     7
 10
122.3855542335472
 20
136.14473607544139
 30
0.0
 11
122.3855542335472
 21
128.3447360754414
 31
0.0
  0
LINE
  5
4E
  8
0
  6
CONTINUOUS
 62
     7
 10
122.8855542335473
 20
136.64473607544139
 30
0.0
 11
122.3855542335472
 21
136.14473607544139
 31
0.0
  0
LINE
  5
4F
  8
0
  6
CONTINUOUS
 62
     7
 10
122.8855542335473
 20
136.64473607544139
 30
0.0
 11
122.8855542335473
 21
128.3447360754414
 31
0.0
  0
LINE
  5
50
  8
0
  6
CONTINUOUS
 62
     7
 10
111.0855542335472
 20
136.64473607544139
 30
0.0
 11
111.0855542335472
 21
128.3447360754414
 31
0.0
  0
LINE
  5
51
  8
0
  6
CONTINUOUS
 62
     7
 10
111.5855542335473
 20
136.14473607544139
 30
0.0
 11
111.0855542335472
 21
136.64473607544139
 31
0.0
  0
LINE
  5
52
  8
0
  6
CONTINUOUS
 62
     7
 10
111.5855542335473
 20
136.14473607544139
 30
0.0
 11
111.5855542335473
 21
128.3447360754414
 31
0.0
  0
LINE
  5
53
  8
0
  6
CONTINUOUS
 62
     7
 10
111.5855542335473
 20
128.3447360754414
 30
0.0
 11
111.0855542335472
 21
128.3447360754414
 31
0.0
  0
LINE
  5
54
  8
0
  6
CONTINUOUS
 62
     7
 10
122.3855542335472
 20
136.14473607544139
 30
0.0
 11
111.5855542335473
 21
136.14473607544139
 31
0.0
  0
LINE
  5
55
  8
0
  6
CONTINUOUS
 62
     7
 10
111.0855542335472
 20
136.64473607544139
 30
0.0
 11
122.8855542335473
 21
136.64473607544139
 31
0.0
  0
LINE
  5
56
  8
0
  6
CONTINUOUS
 62
     7
 10
114.18555423354729
 20
134.54473607544139
 30
0.0
 11
114.18555423354729
 21
128.3447360754414
 31
0.0
  0
LINE
  5
57
  8
0
  6
CONTINUOUS
 62
     7
 10
119.7855542335473
 20
134.54473607544139
 30
0.0
 11
114.18555423354729
 21
134.54473607544139
 31
0.0
  0
LINE
  5
58
  8
0
  6
CONTINUOUS
 62
     7
 10
119.7855542335473
 20
134.54473607544139
 30
0.0
 11
119.7855542335473
 21
128.3447360754414
 31
0.0
  0
LINE
  5
59
  8
0
  6
CONTINUOUS
 62
     7
 10
122.3855542335472
 20
128.3447360754414
 30
0.0
 11
119.7855542335473
 21
128.3447360754414
 31
0.0
  0
LINE
  5
5A
  8
0
  6
CONTINUOUS
 62
     7
 10
114.18555423354729
 20
128.3447360754414
 30
0.0
 11
111.5855542335473
 21
128.3447360754414
 31
0.0
  0
LINE
  5
5B
  8
0
  6
CONTINUOUS
 62
     7
 10
123.68555423354729
 20
130.64473607544139
 30
0.0
 11
126.68555423354719
 21
130.64473607544139
 31
0.0
  0
LINE
  5
5C
  8
0
  6
CONTINUOUS
 62
     7
 10
123.68555423354729
 20
130.64473607544139
 30
0.0
 11
123.68555423354729
 21
128.3447360754414
 31
0.0
  0
LINE
  5
5D
  8
0
  6
CONTINUOUS
 62
     7
 10
110.2855542335472
 20
128.3447360754414
 30
0.0
 11
110.2855542335472
 21
150.74473607544141
 31
0.0
  0
LINE
  5
5E
  8
0
  6
CONTINUOUS
 62
     7
 10
110.2855542335472
 20
150.74473607544141
 30
0.0
 11
113.9855542335473
 21
150.74473607544141
 31
0.0
  0
LINE
  5
5F
  8
0
  6
CONTINUOUS
 62
     7
 10
113.9855542335473
 20
150.74473607544141
 30
0.0
 11
113.9855542335473
 21
141.3447360754414
 31
0.0
  0
LINE
  5
60
  8
0
  6
CONTINUOUS
 62
     7
 10
119.9855542335473
 20
141.3447360754414
 30
0.0
 11
113.9855542335473
 21
141.3447360754414
 31
0.0
  0
LINE
  5
61
  8
0
  6
CONTINUOUS
 62
     7
 10
119.9855542335473
 20
141.3447360754414
 30
0.0
 11
119.9855542335473
 21
150.74473607544141
 31
0.0
  0
LINE
  5
62
  8
0
  6
CONTINUOUS
 62
     7
 10
119.9855542335473
 20
150.74473607544141
 30
0.0
 11
123.68555423354729
 21
150.74473607544141
 31
0.0
  0
LINE
  5
63
  8
0
  6
CONTINUOUS
 62
     7
 10
123.68555423354729
 20
150.74473607544141
 30
0.0
 11
123.68555423354729
 21
142.3447360754414
 31
0.0
  0
LINE
  5
64
  8
0
  6
CONTINUOUS
 62
     7
 10
123.68555423354729
 20
142.3447360754414
 30
0.0
 11
126.68555423354719
 21
142.3447360754414
 31
0.0
  0
LINE
  5
65
  8
0
  6
CONTINUOUS
 62
     7
 10
123.68555423354729
 20
128.3447360754414
 30
0.0
 11
122.8855542335473
 21
128.3447360754414
 31
0.0
  0
LINE
  5
66
  8
0
  6
CONTINUOUS
 62
     7
 10
111.0855542335472
 20
128.3447360754414
 30
0.0
 11
110.2855542335472
 21
128.3447360754414
 31
0.0
  0
LINE
  5
67
  8
0
  6
CONTINUOUS
 62
     7
 10
126.68555423354719
 20
132.64473607544139
 30
0.0
 11
126.68555423354719
 21
130.64473607544139
 31
0.0
  0
LINE
  5
68
  8
0
  6
CONTINUOUS
 62
     7
 10
126.68555423354719
 20
142.3447360754414
 30
0.0
 11
126.68555423354719
 21
138.8447360754414
 31
0.0
  0
LINE
  5
6D
  8
0
  6
CONTINUOUS
 62
     7
 10
119.9855542335473
 20
142.3447360754414
 30
0.0
 11
113.9855542335473
 21
142.3447360754414
 31
0.0
  0
LINE
  5
6F
  8
0
  6
CONTINUOUS
 62
     7
 10
117.7855542335473
 20
132.94473607544131
 30
0.0
 11
116.18555423354729
 21
132.94473607544131
 31
0.0
  0
LINE
  5
70
  8
0
  6
CONTINUOUS
 62
     7
 10
117.7855542335473
 20
131.10473607544139
 30
0.0
 11
117.7855542335473
 21
132.94473607544131
 31
0.0
  0
LINE
  5
71
  8
0
  6
CONTINUOUS
 62
     7
 10
116.18555423354729
 20
132.94473607544131
 30
0.0
 11
116.18555423354729
 21
131.10473607544139
 31
0.0
  0
LINE
  5
72
  8
0
  6
CONTINUOUS
 62
     7
 10
116.18555423354729
 20
131.10473607544139
 30
0.0
 11
117.7855542335473
 21
131.10473607544139
 31
0.0
  0
LINE
  5
74
  8
0
  6
CONTINUOUS
 62
     7
 10
119.7855542335473
 20
129.64473607544139
 30
0.0
 11
114.18555423354729
 21
129.64473607544139
 31
0.0
  0
LINE
  5
75
  8
0
  6
CONTINUOUS
 62
     7
 10
114.18555423354729
 20
128.3447360754414
 30
0.0
 11
119.7855542335473
 21
128.3447360754414
 31
0.0
  0
LINE
  5
76
  8
0
  6
CONTINUOUS
 62
     7
 10
110.2855542335472
 20
183.95785714285711
 30
0.0
 11
110.2855542335472
 21
177.95785714285711
 31
0.0
  0
LINE
  5
77
  8
0
  6
CONTINUOUS
 62
     7
 10
110.2855542335472
 20
183.95785714285711
 30
0.0
 11
113.9855542335473
 21
183.95785714285711
 31
0.0
  0
LINE
  5
78
  8
0
  6
CONTINUOUS
 62
     7
 10
113.9855542335473
 20
183.95785714285711
 30
0.0
 11
113.9855542335473
 21
177.95785714285711
 31
0.0
  0
LINE
  5
79
  8
0
  6
CONTINUOUS
 62
     7
 10
110.2855542335472
 20
177.95785714285711
 30
0.0
 11
113.9855542335473
 21
177.95785714285711
 31
0.0
  0
LINE
  5
81
  8
0
  6
CONTINUOUS
 62
     7
 10
119.9855542335473
 20
183.95785714285711
 30
0.0
 11
119.9855542335473
 21
177.95785714285711
 31
0.0
  0
LINE
  5
82
  8
0
  6
CONTINUOUS
 62
     7
 10
119.9855542335473
 20
177.95785714285711
 30
0.0
 11
123.68555423354729
 21
177.95785714285711
 31
0.0
  0
LINE
  5
8A
  8
0
  6
CONTINUOUS
 62
     7
 10
123.68555423354729
 20
183.95785714285711
 30
0.0
 11
123.68555423354729
 21
177.95785714285711
 31
0.0
  0
LINE
  5
8B
  8
0
  6
CONTINUOUS
 62
     7
 10
119.9855542335473
 20
183.95785714285711
 30
0.0
 11
123.68555423354729
 21
183.95785714285711
 31
0.0
  0
LINE
  5
8C
  8
0
  6
CONTINUOUS
 62
     7
 10
126.68555423354719
 20
183.95785714285711
 30
0.0
 11
126.68555423354719
 21
177.95785714285711
 31
0.0
  0
LINE
  5
8D
  8
0
  6
CONTINUOUS
 62
     7
 10
123.68555423354729
 20
177.95785714285711
 30
0.0
 11
126.68555423354719
 21
177.95785714285711
 31
0.0
  0
LINE
  5
8E
  8
0
  6
CONTINUOUS
 62
     7
 10
123.68555423354729
 20
183.95785714285711
 30
0.0
 11
126.68555423354719
 21
183.95785714285711
 31
0.0
  0
LINE
  5
90
  8
0
  6
CONTINUOUS
 62
     7
 10
119.9855542335473
 20
183.1578571428571
 30
0.0
 11
113.9855542335473
 21
183.1578571428571
 31
0.0
  0
LINE
  5
91
  8
0
  6
CONTINUOUS
 62
     7
 10
119.9855542335473
 20
178.75785714285709
 30
0.0
 11
113.9855542335473
 21
178.75785714285709
 31
0.0
  0
LINE
  5
93
  8
0
  6
CONTINUOUS
 62
     7
 10
119.9855542335473
 20
183.95785714285711
 30
0.0
 11
113.9855542335473
 21
183.95785714285711
 31
0.0
  0
LINE
  5
94
  8
0
  6
CONTINUOUS
 62
     7
 10
119.9855542335473
 20
177.95785714285711
 30
0.0
 11
113.9855542335473
 21
177.95785714285711
 31
0.0
  0
LINE
  5
95
  8
0
  6
CONTINUOUS
 62
     7
 10
122.9855542335473
 20
193.95785714285711
 30
0.0
 11
126.98555423354721
 21
193.95785714285711
 31
0.0
  0
LINE
  5
96
  8
0
  6
CONTINUOUS
 62
     7
 10
126.98555423354721
 20
193.95785714285711
 30
0.0
 11
126.98555423354721
 21
191.95785714285711
 31
0.0
  0
LINE
  5
97
  8
0
  6
CONTINUOUS
 62
     7
 10
122.9855542335473
 20
191.95785714285711
 30
0.0
 11
122.9855542335473
 21
193.95785714285711
 31
0.0
  0
LINE
  5
98
  8
0
  6
CONTINUOUS
 62
     7
 10
126.68555423354719
 20
183.95785714285711
 30
0.0
 11
126.98555423354721
 21
183.95785714285711
 31
0.0
  0
LINE
  5
99
  8
0
  6
CONTINUOUS
 62
     7
 10
126.98555423354721
 20
191.95785714285711
 30
0.0
 11
126.98555423354721
 21
183.95785714285711
 31
0.0
  0
LINE
  5
9A
  8
0
  6
CONTINUOUS
 62
     7
 10
122.9855542335473
 20
191.95785714285711
 30
0.0
 11
122.9855542335473
 21
183.95785714285711
 31
0.0
  0
LINE
  5
9B
  8
0
  6
CONTINUOUS
 62
     7
 10
126.98555423354721
 20
177.95785714285711
 30
0.0
 11
126.98555423354721
 21
169.95785714285711
 31
0.0
  0
LINE
  5
9C
  8
0
  6
CONTINUOUS
 62
     7
 10
126.68555423354719
 20
177.95785714285711
 30
0.0
 11
126.98555423354721
 21
177.95785714285711
 31
0.0
  0
LINE
  5
9D
  8
0
  6
CONTINUOUS
 62
     7
 10
122.9855542335473
 20
177.95785714285711
 30
0.0
 11
122.9855542335473
 21
169.95785714285711
 31
0.0
  0
LINE
  5
9E
  8
0
  6
CONTINUOUS
 62
     7
 10
126.98555423354721
 20
167.95785714285711
 30
0.0
 11
122.9855542335473
 21
167.95785714285711
 31
0.0
  0
LINE
  5
9F
  8
0
  6
CONTINUOUS
 62
     7
 10
126.98555423354721
 20
169.95785714285711
 30
0.0
 11
126.98555423354721
 21
167.95785714285711
 31
0.0
  0
LINE
  5
A0
  8
0
  6
CONTINUOUS
 62
     7
 10
122.9855542335473
 20
167.95785714285711
 30
0.0
 11
122.9855542335473
 21
169.95785714285711
 31
0.0
  0
LINE
  5
A1
  8
0
  6
CONTINUOUS
 62
     7
 10
122.3855542335472
 20
177.45785714285711
 30
0.0
 11
111.5855542335473
 21
177.45785714285711
 31
0.0
  0
LINE
  5
A2
  8
0
  6
CONTINUOUS
 62
     7
 10
122.8855542335473
 20
177.95785714285711
 30
0.0
 11
122.3855542335472
 21
177.45785714285711
 31
0.0
  0
LINE
  5
A3
  8
0
  6
CONTINUOUS
 62
     7
 10
111.5855542335473
 20
177.45785714285711
 30
0.0
 11
111.0855542335472
 21
177.95785714285711
 31
0.0
  0
LINE
  5
A4
  8
0
  6
CONTINUOUS
 62
     7
 10
75.073350722311389
 20
150.74473607544141
 30
0.0
 11
81.073350722311389
 21
150.74473607544141
 31
0.0
  0
LINE
  5
A5
  8
0
  6
CONTINUOUS
 62
     7
 10
75.073350722311389
 20
128.3447360754414
 30
0.0
 11
75.073350722311389
 21
150.74473607544141
 31
0.0
  0
LINE
  5
A6
  8
0
  6
CONTINUOUS
 62
     7
 10
81.073350722311389
 20
128.3447360754414
 30
0.0
 11
81.073350722311389
 21
150.74473607544141
 31
0.0
  0
LINE
  5
A7
  8
0
  6
CONTINUOUS
 62
     7
 10
75.073350722311389
 20
128.3447360754414
 30
0.0
 11
81.073350722311389
 21
128.3447360754414
 31
0.0
  0
LINE
  5
A8
  8
0
  6
CONTINUOUS
 62
     7
 10
81.573350722311389
 20
136.14473607544139
 30
0.0
 11
81.073350722311389
 21
136.64473607544139
 31
0.0
  0
LINE
  5
A9
  8
0
  6
CONTINUOUS
 62
     7
 10
81.573350722311389
 20
136.14473607544139
 30
0.0
 11
81.573350722311389
 21
128.3447360754414
 31
0.0
  0
LINE
  5
AA
  8
0
  6
CONTINUOUS
 62
     7
 10
81.573350722311389
 20
128.3447360754414
 30
0.0
 11
81.073350722311389
 21
128.3447360754414
 31
0.0
  0
LINE
  5
AB
  8
0
  6
CONTINUOUS
 62
     7
 10
67.073350722311375
 20
138.8447360754414
 30
0.0
 11
75.073350722311403
 21
138.8447360754414
 31
0.0
  0
LINE
  5
AC
  8
0
  6
CONTINUOUS
 62
     7
 10
75.073350722311389
 20
132.64473607544139
 30
0.0
 11
67.073350722311375
 21
132.64473607544139
 31
0.0
  0
LINE
  5
AD
  8
0
  6
CONTINUOUS
 62
     7
 10
65.073350722311389
 20
134.64473607544139
 30
0.0
 11
65.073350722311389
 21
136.8447360754414
 31
0.0
  0
ARC
  5
AE
  8
0
  6
CONTINUOUS
 62
     7
 10
68.973350722311395
 20
135.74473607544141
 30
0.0
 40
1.6000000000000221
 50
270.0000000000008
 51
90.0
  0
LINE
  5
AF
  8
0
  6
CONTINUOUS
 62
     7
 10
68.973350722311395
 20
137.3447360754414
 30
0.0
 11
68.073350722311389
 21
137.3447360754414
 31
0.0
  0
ARC
  5
B0
  8
0
  6
CONTINUOUS
 62
     7
 10
68.073350722311389
 20
135.74473607544141
 30
0.0
 40
1.6000000000000221
 50
90.0
 51
270.0000000000008
  0
LINE
  5
B1
  8
0
  6
CONTINUOUS
 62
     7
 10
68.073350722311389
 20
134.14473607544139
 30
0.0
 11
68.973350722311395
 21
134.14473607544139
 31
0.0
  0
ARC
  5
B2
  8
0
  6
CONTINUOUS
 62
     7
 10
67.073350722311375
 20
136.8447360754414
 30
0.0
 40
2.0
 50
90.0
 51
180.0
  0
ARC
  5
B3
  8
0
  6
CONTINUOUS
 62
     7
 10
67.073350722311375
 20
134.64473607544139
 30
0.0
 40
2.0
 50
180.0
 51
270.0000000000008
  0
LINE
  5
B4
  8
0
  6
CONTINUOUS
 62
     7
 10
81.073350722311389
 20
138.8447360754414
 30
0.0
 11
89.073350722311389
 21
138.8447360754414
 31
0.0
  0
ARC
  5
B5
  8
0
  6
CONTINUOUS
 62
     7
 10
89.073350722311389
 20
136.8447360754414
 30
0.0
 40
2.0
 50
0.0
 51
89.999999999999588
  0
LINE
  5
B6
  8
0
  6
CONTINUOUS
 62
     7
 10
91.073350722311389
 20
136.8447360754414
 30
0.0
 11
91.073350722311389
 21
134.64473607544139
 31
0.0
  0
ARC
  5
B7
  8
0
  6
CONTINUOUS
 62
     7
 10
89.073350722311389
 20
134.64473607544139
 30
0.0
 40
2.0
 50
270.00000000000119
 51
0.0
  0
ARC
  5
B8
  8
0
  6
CONTINUOUS
 62
     7
 10
87.173350722311397
 20
135.74473607544141
 30
0.0
 40
1.6000000000000221
 50
90.0
 51
270.0000000000008
  0
LINE
  5
B9
  8
0
  6
CONTINUOUS
 62
     7
 10
87.173350722311397
 20
134.14473607544139
 30
0.0
 11
88.073350722311403
 21
134.14473607544139
 31
0.0
  0
ARC
  5
BA
  8
0
  6
CONTINUOUS
 62
     7
 10
88.073350722311403
 20
135.74473607544141
 30
0.0
 40
1.6000000000000221
 50
270.0000000000008
 51
90.0
  0
LINE
  5
BB
  8
0
  6
CONTINUOUS
 62
     7
 10
88.073350722311403
 20
137.3447360754414
 30
0.0
 11
87.173350722311397
 21
137.3447360754414
 31
0.0
  0
LINE
  5
BC
  8
0
  6
CONTINUOUS
 62
     7
 10
89.073350722311389
 20
132.64473607544139
 30
0.0
 11
81.573350722311389
 21
132.64473607544139
 31
0.0
  0
INSERT
  5
1B8
  8
0
  2
*U3
 10
0.0
 20
0.0
 30
0.0
  0
LINE
  5
1BC
  8
0
 62
     2
 10
118.86831495356481
 20
180.95785714285711
 30
0.0
 11
117.78399866579041
 21
180.50989618843991
 31
0.0
  0
LINE
  5
1BD
  8
0
 62
     2
 10
118.86831495356481
 20
180.95785714285711
 30
0.0
 11
117.78399866579041
 21
181.43474878450019
 31
0.0
  0
LINE
  5
1BE
  8
0
 62
     2
 10
115.22905278309941
 20
180.95785714285711
 30
0.0
 11
118.86831495356481
 21
180.95785714285711
 31
0.0
  0
LINE
  5
1F4
  8
0
 62
     2
 10
118.86831495356481
 20
148.74473607544141
 30
0.0
 11
117.78399866579041
 21
148.29677512102421
 31
0.0
  0
LINE
  5
1F5
  8
0
 62
     2
 10
118.86831495356481
 20
148.74473607544141
 30
0.0
 11
117.78399866579041
 21
149.22162771708449
 31
0.0
  0
LINE
  5
1F6
  8
0
 62
     2
 10
115.22905278309941
 20
148.74473607544141
 30
0.0
 11
118.86831495356481
 21
148.74473607544141
 31
0.0
  0
LINE
  5
219
  8
0
  6
AM_ISO08W050X2
 62
     4
 10
114.5430549665686
 20
180.95785714285711
 30
0.0
 11
108.9319452397245
 21
180.95785714285711
 31
0.0
  0
LINE
  5
21A
  8
0
  6
AM_ISO08W050X2
 62
     4
 10
119.4226503097634
 20
180.95785714285711
 30
0.0
 11
124.4526146683322
 21
180.95785714285711
 31
0.0
  0
LINE
  5
21B
  8
0
  6
AM_ISO08W050X2
 62
     4
 10
114.5543150860717
 20
148.74473607544141
 30
0.0
 11
108.6189179277704
 21
148.74473607544141
 31
0.0
  0
LINE
  5
21C
  8
0
  6
AM_ISO08W050X2
 62
     4
 10
119.4854667540062
 20
148.74473607544141
 30
0.0
 11
125.2213875411241
 21
148.74473607544141
 31
0.0
  0
LINE
  5
21D
  8
0
  6
AM_ISO08W050X2
 62
     4
 10
116.9855542335473
 20
151.45990275843991
 30
0.0
 11
116.9855542335473
 21
126.89463546839031
 31
0.0
  0
LINE
  5
21E
  8
0
  6
AM_ISO08W050X2
 62
     4
 10
78.073350722311389
 20
152.3304347126562
 30
0.0
 11
78.073350722311389
 21
126.7975914488057
 31
0.0
  0
LINE
  5
21F
  8
0
  6
AM_ISO08W050X2
 62
     4
 10
87.173350722311397
 20
137.9883918792367
 30
0.0
 11
87.173350722311397
 21
133.54448775788251
 31
0.0
  0
LINE
  5
220
  8
0
  6
AM_ISO08W050X2
 62
     4
 10
88.073350722311403
 20
137.9582636102179
 30
0.0
 11
88.073350722311403
 21
133.54448775788251
 31
0.0
  0
LINE
  5
221
  8
0
  6
AM_ISO08W050X2
 62
     4
 10
85.004589949843194
 20
135.74473607544141
 30
0.0
 11
90.140289660062976
 21
135.74473607544141
 31
0.0
  0
LINE
  5
222
  8
0
  6
AM_ISO08W050X2
 62
     4
 10
68.073350722311389
 20
137.84309726636201
 30
0.0
 11
68.073350722311389
 21
133.74725351854889
 31
0.0
  0
LINE
  5
223
  8
0
  6
AM_ISO08W050X2
 62
     4
 10
68.973350722311395
 20
137.81432020204539
 30
0.0
 11
68.973350722311395
 21
133.75684541231661
 31
0.0
  0
LINE
  5
224
  8
0
  6
AM_ISO08W050X2
 62
     4
 10
66.015277377021221
 20
135.74473607544141
 30
0.0
 11
71.088382231786454
 21
135.74473607544141
 31
0.0
  0
LINE
  5
225
  8
0
  6
AM_ISO08W050X2
 62
     4
 10
121.5097291981162
 20
135.74473607544141
 30
0.0
 11
127.94019719801889
 21
135.74473607544141
 31
0.0
  0
LINE
  5
23D
  8
0
  6
AM_ISO08W050X2
 62
     4
 10
121.7323009315343
 20
190.95785714285711
 30
0.0
 11
128.4549934073047
 21
190.95785714285711
 31
0.0
  0
LINE
  5
23E
  8
0
  6
AM_ISO08W050X2
 62
     4
 10
121.7323009315343
 20
190.0578571428571
 30
0.0
 11
128.4549934073047
 21
190.0578571428571
 31
0.0
  0
LINE
  5
23F
  8
0
  6
AM_ISO08W050X2
 62
     4
 10
121.7323009315343
 20
171.85785714285711
 30
0.0
 11
128.4549934073047
 21
171.85785714285711
 31
0.0
  0
LINE
  5
240
  8
0
  6
AM_ISO08W050X2
 62
     4
 10
121.7323009315343
 20
170.95785714285711
 30
0.0
 11
128.4549934073047
 21
170.95785714285711
 31
0.0
  0
LINE
  5
241
  8
0
  6
AM_ISO08W050X2
 62
     4
 10
116.9855542335473
 20
176.5383671371159
 30
0.0
 11
116.9855542335473
 21
185.0243524105982
 31
0.0
  0
LINE
  5
323
  8
0
  6
AM_ISO08W050X2
 62
     4
 10
73.167546713084903
 20
148.74473607544141
 30
0.0
 11
82.796816853276255
 21
148.74473607544141
 31
0.0
  0
ENDSEC
  0
EOF
