  0
SECTION
  2
HEADER
  9
$ACADVER
  1
AC1009
  9
$INSBASE
 10
0.0
 20
0.0
 30
0.0
  9
$EXTMIN
 10
-37.912739684154083
 20
95.895020287827364
 30
-0.0015258207003583
  9
$EXTMAX
 10
128.64529821609159
 20
175.52575736274679
 30
0.0000000349246037
  9
$LIMMIN
 10
0.0
 20
0.0
  9
$LIMMAX
 10
190.0
 20
277.0
  9
$ORTHOMODE
 70
     0
  9
$REGENMODE
 70
     1
  9
$FILLMODE
 70
     1
  9
$QTEXTMODE
 70
     0
  9
$MIRRTEXT
 70
     1
  9
$DRAGMODE
 70
     2
  9
$LTSCALE
 40
1.0
  9
$OSMODE
 70
   549
  9
$ATTMODE
 70
     1
  9
$TEXTSIZE
 40
3.5
  9
$TRACEWID
 40
0.5
  9
$TEXTSTYLE
  7
습꾸1
  9
$CLAYER
  8
0
  9
$CELTYPE
  6
BYLAYER
  9
$CECOLOR
 62
   256
  9
$DIMSCALE
 40
1.0
  9
$DIMASZ
 40
0.18
  9
$DIMEXO
 40
0.0625
  9
$DIMDLI
 40
0.38
  9
$DIMRND
 40
0.0
  9
$DIMDLE
 40
0.0
  9
$DIMEXE
 40
0.18
  9
$DIMTP
 40
0.0
  9
$DIMTM
 40
0.0
  9
$DIMTXT
 40
0.18
  9
$DIMCEN
 40
0.09
  9
$DIMTSZ
 40
0.0
  9
$DIMTOL
 70
     0
  9
$DIMLIM
 70
     0
  9
$DIMTIH
 70
     1
  9
$DIMTOH
 70
     1
  9
$DIMSE1
 70
     0
  9
$DIMSE2
 70
     0
  9
$DIMTAD
 70
     0
  9
$DIMZIN
 70
     0
  9
$DIMBLK
  1

  9
$DIMASO
 70
     1
  9
$DIMSHO
 70
     1
  9
$DIMPOST
  1

  9
$DIMAPOST
  1

  9
$DIMALT
 70
     0
  9
$DIMALTD
 70
     2
  9
$DIMALTF
 40
25.399999999999999
  9
$DIMLFAC
 40
1.0
  9
$DIMTOFL
 70
     0
  9
$DIMTVP
 40
0.0
  9
$DIMTIX
 70
     0
  9
$DIMSOXD
 70
     0
  9
$DIMSAH
 70
     0
  9
$DIMBLK1
  1

  9
$DIMBLK2
  1

  9
$DIMSTYLE
  2
STANDARD
  9
$DIMCLRD
 70
     0
  9
$DIMCLRE
 70
     0
  9
$DIMCLRT
 70
     0
  9
$DIMTFAC
 40
1.0
  9
$DIMGAP
 40
0.09
  9
$LUNITS
 70
     2
  9
$LUPREC
 70
     4
  9
$SKETCHINC
 40
0.1
  9
$FILLETRAD
 40
2.0
  9
$AUNITS
 70
     0
  9
$AUPREC
 70
     0
  9
$MENU
  1
ACAD
  9
$ELEVATION
 40
0.0
  9
$PELEVATION
 40
0.0
  9
$THICKNESS
 40
0.0
  9
$LIMCHECK
 70
     0
  9
$BLIPMODE
 70
     0
  9
$CHAMFERA
 40
0.0
  9
$CHAMFERB
 40
0.0
  9
$SKPOLY
 70
     0
  9
$TDCREATE
 40
2452598.4473797572
  9
$TDUPDATE
 40
2456497.5935563431
  9
$TDINDWG
 40
0.0148626273
  9
$TDUSRTIMER
 40
0.014860162
  9
$USRTIMER
 70
     1
  9
$ANGBASE
 50
0.0
  9
$ANGDIR
 70
     0
  9
$PDMODE
 70
     0
  9
$PDSIZE
 40
0.0
  9
$PLINEWID
 40
0.0
  9
$COORDS
 70
     1
  9
$SPLFRAME
 70
     0
  9
$SPLINETYPE
 70
     6
  9
$SPLINESEGS
 70
     8
  9
$ATTDIA
 70
     1
  9
$ATTREQ
 70
     1
  9
$HANDLING
 70
     1
  9
$HANDSEED
  5
683
  9
$SURFTAB1
 70
     6
  9
$SURFTAB2
 70
     6
  9
$SURFTYPE
 70
     6
  9
$SURFU
 70
     6
  9
$SURFV
 70
     6
  9
$UCSNAME
  2

  9
$UCSORG
 10
0.0
 20
0.0
 30
0.0
  9
$UCSXDIR
 10
1.0
 20
0.0
 30
0.0
  9
$UCSYDIR
 10
0.0
 20
1.0
 30
0.0
  9
$PUCSNAME
  2

  9
$PUCSORG
 10
0.0
 20
0.0
 30
0.0
  9
$PUCSXDIR
 10
1.0
 20
0.0
 30
0.0
  9
$PUCSYDIR
 10
0.0
 20
1.0
 30
0.0
  9
$USERI1
 70
     0
  9
$USERI2
 70
     0
  9
$USERI3
 70
     0
  9
$USERI4
 70
     0
  9
$USERI5
 70
     0
  9
$USERR1
 40
0.0
  9
$USERR2
 40
0.0
  9
$USERR3
 40
0.0
  9
$USERR4
 40
0.0
  9
$USERR5
 40
0.0
  9
$WORLDVIEW
 70
     1
  9
$SHADEDGE
 70
     3
  9
$SHADEDIF
 70
    70
  9
$TILEMODE
 70
     1
  9
$MAXACTVP
 70
    64
  9
$PLIMCHECK
 70
     0
  9
$PEXTMIN
 10
1.0000000000000000E+020
 20
1.0000000000000000E+020
 30
1.0000000000000000E+020
  9
$PEXTMAX
 10
-1.0000000000000000E+020
 20
-1.0000000000000000E+020
 30
-1.0000000000000000E+020
  9
$PLIMMIN
 10
0.0
 20
0.0
  9
$PLIMMAX
 10
12.0
 20
9.0
  9
$UNITMODE
 70
     0
  9
$VISRETAIN
 70
     1
  9
$PLINEGEN
 70
     0
  9
$PSLTSCALE
 70
     1
  0
ENDSEC
  0
SECTION
  2
TABLES
  0
TABLE
  2
VPORT
 70
     1
  0
VPORT
  2
*ACTIVE
 70
     0
 10
0.0
 20
0.0
 11
1.0
 21
1.0
 12
24.875225570882549
 22
142.10993478214229
 13
0.0
 23
0.0
 14
1.0
 24
1.0
 15
0.0
 25
0.0
 16
0.0
 26
0.0
 36
1.0
 17
0.0
 27
0.0
 37
0.0
 40
136.74599213026639
 41
1.9560975609756091
 42
50.0
 43
0.0
 44
0.0
 50
0.0
 51
0.0
 71
     0
 72
   100
 73
     1
 74
     1
 75
     0
 76
     0
 77
     0
 78
     0
  0
ENDTAB
  0
TABLE
  2
LTYPE
 70
    11
  0
LTYPE
  2
CONTINUOUS
 70
     0
  3
Solid line
 72
    65
 73
     0
 40
0.0
  0
LTYPE
  2
PHANTOM2
 70
     0
  3
Phantom (.5x) ___ _ _ ___ _ _ ___ _ _ ___ _ _
 72
    65
 73
     6
 40
1.25
 49
0.625
 49
-0.125
 49
0.125
 49
-0.125
 49
0.125
 49
-0.125
  0
LTYPE
  2
CENTER
 70
     0
  3
____ _ ____ _
 72
    65
 73
     4
 40
13.068421052631569
 49
8.1677631578947327
 49
-1.633552631578945
 49
1.633552631578945
 49
-1.633552631578945
  0
LTYPE
  2
HIDDEN
 70
     0
  3
_ _ _ _ _ _ _
 72
    65
 73
     2
 40
2.4503289473684182
 49
1.633552631578945
 49
-0.8167763157894732
  0
LTYPE
  2
AMCONSTR
 70
     0
  3
_______________________
 72
    65
 73
     2
 40
9999.0
 49
9999.0
 49
0.0
  0
LTYPE
  2
HIDDEN2
 70
     0
  3
Hidden (.5x) _ _ _ _ _ _ _ _ _ _ _ _ _ _ _ _ _
 72
    65
 73
     2
 40
0.1875
 49
0.125
 49
-0.0625
  0
LTYPE
  2
CENTER2
 70
     0
  3
Center (.5x) ___ _ ___ _ ___ _ ___ _ ___ _ ___
 72
    65
 73
     4
 40
1.125
 49
0.75
 49
-0.125
 49
0.125
 49
-0.125
  0
LTYPE
  2
AMZIGZAG2
 70
     0
  3
/\/-/\/-/\/-/\/-/\/-/\/
 72
    65
 73
     2
 40
0.4401
 49
0.0001
 49
-0.4400000000000003
  0
LTYPE
  2
ACANSTGB
 70
     0
  3
__ . . __ . .
 72
    65
 73
     6
 40
0.35433070866
 49
0.15748031496
 49
-0.03937007874
 49
0.03937007874
 49
-0.03937007874
 49
0.03937007874
 49
-0.03937007874
  0
LTYPE
  2
ACANSTGL
 70
     0
  3
_ _ _ _ _
 72
    65
 73
     2
 40
0.11811023622
 49
0.07874015748
 49
-0.03937007874
  0
ENDTAB
  0
TABLE
  2
LAYER
 70
     2
  0
LAYER
  2
0
 70
     0
 62
     7
  6
CONTINUOUS
  0
ENDTAB
  0
TABLE
  2
STYLE
 70
     3
  0
STYLE
  2
STANDARD
 70
     0
 40
0.0
 41
1.0
 50
0.0
 71
     0
 42
3.5
  3
txt
  4

  0
STYLE
  2
습꾸1
 70
     0
 40
0.0
 41
0.8
 50
0.0
 71
     0
 42
3.5
  3
txt.shx
  4

  0
STYLE
  2
ACANSGDT
 70
     0
 40
0.0
 41
1.0
 50
0.0
 71
     0
 42
3.5
  3
amgdt.shx
  4

  0
ENDTAB
  0
TABLE
  2
VIEW
 70
     0
  0
ENDTAB
  0
TABLE
  2
UCS
 70
     0
  0
ENDTAB
  0
TABLE
  2
APPID
 70
    16
  0
APPID
  2
ACAD
 70
     0
  0
APPID
  2
ACADANNOTATIVE
 70
     0
  0
APPID
  2
MCAD_NO_VIS
 70
     0
  0
APPID
  2
ACAD_TEMP_GRAPHIC
 70
     0
  0
APPID
  2
ACATTRIBSERVICES
 70
     0
  0
APPID
  2
DESIGNERASSEMBLIES
 70
     0
  0
APPID
  2
ACAD_DSTYLE_DIMJAG
 70
     0
  0
APPID
  2
ACAD_DSTYLE_DIMBREAK
 70
     0
  0
APPID
  2
ACAD_NAV_VCDISPLAY
 70
     0
  0
APPID
  2
ACAECLAYERSTANDARD
 70
     0
  0
APPID
  2
ACAD_EXEMPT_FROM_CAD_STANDARDS
 70
     0
  0
APPID
  2
ACAD_MLEADERVER
 70
     0
  0
APPID
  2
ACAD_DSTYLE_DIMARC_LENGTH_
 70
     0
  0
APPID
  2
ACAD_DSTYLE_DIM_LINETYPE
 70
     0
  0
APPID
  2
ACAD_DSTYLE_DIM_EXT1_LINETYPE
 70
     0
  0
APPID
  2
ACAD_DSTYLE_DIM_EXT2_LINETYPE
 70
     0
  0
ENDTAB
  0
TABLE
  2
DIMSTYLE
 70
     7
  0
DIMSTYLE
  2
STANDARD
 70
     0
  3

  4

  5

  6

  7

 40
1.0
 41
0.18
 42
0.0625
 43
0.38
 44
0.18
 45
0.0
 46
0.0
 47
0.0
 48
0.0
140
0.18
141
0.09
142
0.0
143
25.399999999999999
144
1.0
145
0.0
146
1.0
147
0.09
 71
     0
 72
     0
 73
     1
 74
     1
 75
     0
 76
     0
 77
     0
 78
     0
170
     0
171
     2
172
     0
173
     0
174
     0
175
     0
176
     0
177
     0
178
     0
  0
DIMSTYLE
  2
AM_ANSI
 70
     0
  3

  4
mm
  5

  6

  7

 40
1.0
 41
0.12
 42
0.05
 43
0.5
 44
0.1
 45
0.0
 46
0.0
 47
0.1
 48
0.1
140
0.12
141
0.0
142
0.0
143
25.399999999999999
144
1.0
145
0.0
146
0.71
147
0.06
 71
     0
 72
     0
 73
     1
 74
     1
 75
     0
 76
     0
 77
     0
 78
     7
170
     0
171
     2
172
     0
173
     0
174
     0
175
     0
176
   256
177
   256
178
     2
  0
DIMSTYLE
  2
AM_ANSI$3
 70
     0
  3

  4
mm
  5

  6

  7

 40
1.0
 41
0.12
 42
0.05
 43
0.5
 44
0.1
 45
0.0
 46
0.0
 47
0.1
 48
0.1
140
0.12
141
0.0
142
0.0
143
25.399999999999999
144
1.0
145
0.0
146
0.71
147
0.06
 71
     0
 72
     0
 73
     1
 74
     1
 75
     0
 76
     0
 77
     0
 78
     7
170
     0
171
     2
172
     0
173
     0
174
     0
175
     0
176
   256
177
   256
178
     2
  0
DIMSTYLE
  2
AM_ANSI$4
 70
     0
  3

  4
mm
  5

  6

  7

 40
1.0
 41
0.12
 42
0.05
 43
0.5
 44
0.1
 45
0.0
 46
0.0
 47
0.1
 48
0.1
140
0.12
141
0.0
142
0.0
143
25.399999999999999
144
1.0
145
0.0
146
0.71
147
0.06
 71
     0
 72
     0
 73
     1
 74
     1
 75
     0
 76
     0
 77
     0
 78
     7
170
     0
171
     2
172
     0
173
     0
174
     0
175
     0
176
   256
177
   256
178
     2
  0
DIMSTYLE
  2
AM_ANSI$7
 70
     0
  3

  4
mm
  5

  6

  7

 40
1.0
 41
0.12
 42
0.05
 43
0.5
 44
0.1
 45
0.0
 46
0.0
 47
0.1
 48
0.1
140
0.12
141
0.0
142
0.0
143
25.399999999999999
144
1.0
145
0.0
146
0.71
147
0.06
 71
     0
 72
     0
 73
     1
 74
     1
 75
     0
 76
     0
 77
     0
 78
     7
170
     0
171
     2
172
     0
173
     0
174
     0
175
     0
176
   256
177
   256
178
     2
  0
DIMSTYLE
  2
AM_ANSI$SF
 70
     0
  3

  4
mm
  5

  6

  7

 40
1.0
 41
0.12
 42
0.05
 43
0.5
 44
0.1
 45
0.0
 46
0.0
 47
0.1
 48
0.1
140
0.12
141
0.0
142
0.0
143
25.399999999999999
144
1.0
145
0.0
146
0.71
147
0.06
 71
     0
 72
     0
 73
     1
 74
     1
 75
     1
 76
     1
 77
     0
 78
     7
170
     0
171
     2
172
     0
173
     0
174
     0
175
     0
176
   256
177
   256
178
     2
  0
DIMSTYLE
  2
AM_ANSI$SH
 70
     0
  3

  4
mm
  5

  6
GENAXEH
  7

 40
1.0
 41
0.12
 42
0.05
 43
0.5
 44
0.1
 45
0.0
 46
0.0
 47
0.1
 48
0.1
140
0.12
141
0.0
142
0.0
143
25.399999999999999
144
1.0
145
0.0
146
0.71
147
0.06
 71
     0
 72
     0
 73
     1
 74
     1
 75
     1
 76
     1
 77
     0
 78
     7
170
     0
171
     2
172
     0
173
     1
174
     0
175
     0
176
   256
177
   256
178
     2
  0
ENDTAB
  0
ENDSEC
  0
SECTION
  2
BLOCKS
  0
BLOCK
  8
0
  2
$MODEL_SPACE
 70
     0
 10
0.0
 20
0.0
 30
0.0
  3
$MODEL_SPACE
  1

  0
ENDBLK
  5
209
  8
0
  0
BLOCK
 67
     1
  8
0
  2
$PAPER_SPACE
 70
     0
 10
0.0
 20
0.0
 30
0.0
  3
$PAPER_SPACE
  1

  0
ENDBLK
  5
205
 67
     1
  8
0
  0
BLOCK
  8
0
  2
GENAXEH
 70
     0
 10
0.0
 20
0.0
 30
0.0
  3
GENAXEH
  1

  0
LINE
  5
270
  8
0
 10
-1.0
 20
0.0
 30
0.0
 11
1.0
 21
0.0
 31
0.0
  0
ENDBLK
  5
272
  8
0
  0
BLOCK
  8
0
  2
*U2
 70
     1
 10
0.0
 20
0.0
 30
0.0
  3
*U2
  1

  0
TEXT
  5
678
  8
0
 62
     2
 10
-23.087091011930109
 20
106.84704590510189
 30
0.0
 40
3.5
  1
EMITTER
  0
ENDBLK
  5
67A
  8
0
  0
BLOCK
  8
0
  2
*U3
 70
     1
 10
0.0
 20
0.0
 30
0.0
  3
*U3
  1

  0
TEXT
  5
67C
  8
0
 62
     2
 10
78.896891584371986
 20
106.84704590510189
 30
0.0
 40
3.5
  1
RECEIVER
  0
ENDBLK
  5
67E
  8
0
  0
BLOCK
  8
0
  2
*U4
 70
     1
 10
0.0
 20
0.0
 30
0.0
  3
*U4
  1

  0
TEXT
  5
680
  8
0
 62
     2
 10
111.1351032862584
 20
95.908489972653058
 30
0.0
 40
3.5
  1
ex-11a
  0
ENDBLK
  5
682
  8
0
  0
ENDSEC
  0
SECTION
  2
ENTITIES
  0
LINE
  5
33
  8
0
  6
CENTER2
 62
     4
 10
118.3265494506331
 20
135.53951622040071
 30
0.0
 11
123.3265494506331
 21
135.53951622040071
 31
0.0
  0
LINE
  5
34
  8
0
  6
CENTER2
 62
     4
 10
118.1568268986891
 20
146.53951622040091
 30
0.0
 11
123.1568268986891
 21
146.53951622040091
 31
0.0
  0
LINE
  5
35
  8
0
  6
CONTINUOUS
 62
     7
 10
119.7153833069822
 20
120.9241103603602
 30
0.0
 11
119.7153833069822
 21
129.28951622040071
 31
0.0
  0
LINE
  5
36
  8
0
  6
CONTINUOUS
 62
     7
 10
122.2153833069821
 20
120.9241103603602
 30
0.0
 11
122.2153833069822
 21
129.28951622040071
 31
0.0
  0
LINE
  5
37
  8
0
  6
CONTINUOUS
 62
     7
 10
120.5653833069822
 20
144.7395162204007
 30
0.0
 11
119.16538330698221
 21
144.7395162204007
 31
0.0
  0
LINE
  5
38
  8
0
  6
CONTINUOUS
 62
     7
 10
119.16538330698221
 20
133.7895162204008
 30
0.0
 11
119.16538330698221
 21
149.78951622040091
 31
0.0
  0
LINE
  5
39
  8
0
  6
CONTINUOUS
 62
     7
 10
122.66538330698221
 20
148.28951622040091
 30
0.0
 11
119.16538330698221
 21
148.28951622040091
 31
0.0
  0
LINE
  5
3A
  8
0
  6
CONTINUOUS
 62
     7
 10
120.5653833069822
 20
137.33951622040081
 30
0.0
 11
119.16538330698221
 21
137.33951622040081
 31
0.0
  0
LINE
  5
3B
  8
0
  6
CONTINUOUS
 62
     7
 10
119.16538330698221
 20
134.24433283570201
 30
0.0
 11
120.5653833069822
 21
134.24433283570201
 31
0.0
  0
LINE
  5
3C
  8
0
  6
CONTINUOUS
 62
     7
 10
64.372515185331295
 20
174.8990835506537
 30
0.0
 11
64.372515185330926
 21
171.3990835506537
 31
0.0
  0
LINE
  5
3D
  8
0
  6
CONTINUOUS
 62
     7
 10
64.372515185331196
 20
133.78951622040071
 30
0.0
 11
74.372515185331196
 21
133.789516220401
 31
0.0
  0
LINE
  5
3E
  8
0
  6
CONTINUOUS
 62
     7
 10
71.372515185331196
 20
133.78951622040071
 30
0.0
 11
71.372515185331196
 21
134.24433283570201
 31
0.0
  0
LINE
  5
3F
  8
0
  6
CONTINUOUS
 62
     7
 10
74.372515185331196
 20
148.28951622040091
 30
0.0
 11
74.372515185331196
 21
133.789516220401
 31
0.0
  0
LINE
  5
40
  8
0
  6
CONTINUOUS
 62
     7
 10
74.372515185331196
 20
171.3990835506537
 30
0.0
 11
64.372515185330926
 21
171.3990835506537
 31
0.0
  0
LINE
  5
41
  8
0
  6
CONTINUOUS
 62
     7
 10
64.372515185331295
 20
174.8990835506537
 30
0.0
 11
74.372515185331196
 21
174.8990835506537
 31
0.0
  0
LINE
  5
42
  8
0
  6
CONTINUOUS
 62
     7
 10
70.822515185331227
 20
172.79908355065351
 30
0.0
 11
74.372515185331196
 21
172.79908355065351
 31
0.0
  0
LINE
  5
43
  8
0
  6
CENTER2
 62
     4
 10
72.622515185331196
 20
175.50723698928789
 30
0.0
 11
72.622515185331196
 21
170.78127288083169
 31
0.0
  0
LINE
  5
44
  8
0
  6
CONTINUOUS
 62
     7
 10
74.372515185331196
 20
171.3990835506537
 30
0.0
 11
74.372515185331196
 21
174.8990835506537
 31
0.0
  0
LINE
  5
45
  8
0
  6
CONTINUOUS
 62
     7
 10
122.66538330698221
 20
129.28951622040071
 30
0.0
 11
119.2653833069822
 21
129.28951622040071
 31
0.0
  0
LINE
  5
46
  8
0
  6
CONTINUOUS
 62
     7
 10
70.167203139072257
 20
129.29123042478761
 30
0.0
 11
71.372515185331196
 21
133.78951622040071
 31
0.0
  0
LINE
  5
47
  8
0
  6
CONTINUOUS
 62
     7
 10
69.122515185331196
 20
129.29123042478761
 30
0.0
 11
69.122515185331196
 21
120.9241103603602
 31
0.0
  0
LINE
  5
48
  8
0
  6
CONTINUOUS
 62
     7
 10
66.622515185331196
 20
129.29123042478761
 30
0.0
 11
66.622515185331295
 21
120.9241103603602
 31
0.0
  0
LINE
  5
49
  8
0
  6
CONTINUOUS
 62
     7
 10
64.372515185331196
 20
133.78951622040071
 30
0.0
 11
65.577827231590135
 21
129.29123042478761
 31
0.0
  0
LINE
  5
4A
  8
0
  6
CONTINUOUS
 62
     7
 10
64.372515185331196
 20
149.78951622040091
 30
0.0
 11
64.372515185331196
 21
133.78951622040071
 31
0.0
  0
LINE
  5
4B
  8
0
  6
CONTINUOUS
 62
     7
 10
70.822515185331227
 20
146.53951622040091
 30
0.0
 11
70.82251518533181
 21
149.78951622040091
 31
0.0
  0
LINE
  5
4C
  8
0
  6
CONTINUOUS
 62
     7
 10
64.372515185331196
 20
149.78951622040091
 30
0.0
 11
70.82251518533181
 21
149.78951622040091
 31
0.0
  0
LINE
  5
4D
  8
0
  6
CONTINUOUS
 62
     7
 10
65.577827231590135
 20
129.29123042478761
 30
0.0
 11
70.167203139072257
 21
129.29123042478761
 31
0.0
  0
LINE
  5
4E
  8
0
  6
CONTINUOUS
 62
     7
 10
74.372515185331196
 20
144.73951622040079
 30
0.0
 11
72.622515185331196
 21
144.73951622040079
 31
0.0
  0
LINE
  5
4F
  8
0
  6
CONTINUOUS
 62
     7
 10
74.372515185331196
 20
137.33951622040081
 30
0.0
 11
72.622515185331196
 21
137.33951622040081
 31
0.0
  0
LINE
  5
50
  8
0
  6
CONTINUOUS
 62
     7
 10
70.82251518533181
 20
148.28951622040091
 30
0.0
 11
74.372515185331196
 21
148.28951622040091
 31
0.0
  0
LINE
  5
51
  8
0
  6
CONTINUOUS
 62
     7
 10
122.66538330698221
 20
133.7895162204008
 30
0.0
 11
119.16538330698221
 21
133.7895162204008
 31
0.0
  0
LINE
  5
52
  8
0
  6
CONTINUOUS
 62
     7
 10
119.2653833069822
 20
129.28951622040071
 30
0.0
 11
119.2653833069822
 21
133.7895162204008
 31
0.0
  0
LINE
  5
53
  8
0
  6
CONTINUOUS
 62
     7
 10
120.5653833069822
 20
133.7895162204008
 30
0.0
 11
120.5653833069822
 21
137.33951622040081
 31
0.0
  0
LINE
  5
54
  8
0
  6
CONTINUOUS
 62
     7
 10
119.16538330698221
 20
149.78951622040091
 30
0.0
 11
122.66538330698221
 21
149.78951622040091
 31
0.0
  0
LINE
  5
55
  8
0
  6
CONTINUOUS
 62
     7
 10
122.66538330698221
 20
129.28951622040071
 30
0.0
 11
122.66538330698221
 21
149.78951622040091
 31
0.0
  0
LINE
  5
56
  8
0
  6
CENTER2
 62
     4
 10
72.622515185331196
 20
136.85658016371369
 30
0.0
 11
72.622515185331196
 21
134.2031270220007
 31
0.0
  0
LINE
  5
57
  8
0
  6
CENTER2
 62
     4
 10
71.279153920131108
 20
135.53951622040071
 30
0.0
 11
74.072025786239223
 21
135.53951622040071
 31
0.0
  0
LINE
  5
58
  8
0
  6
CENTER2
 62
     4
 10
71.196223098854915
 20
146.53951622040091
 30
0.0
 11
74.008583603856792
 21
146.53951622040091
 31
0.0
  0
LINE
  5
59
  8
0
  6
CENTER2
 62
     4
 10
72.622515185331196
 20
147.8986014351517
 30
0.0
 11
72.622515185331196
 21
145.1562001466921
 31
0.0
  0
LINE
  5
5A
  8
0
  6
CONTINUOUS
 62
     7
 10
70.822515185331227
 20
171.3990835506537
 30
0.0
 11
70.822515185331227
 21
174.8990835506537
 31
0.0
  0
LINE
  5
5B
  8
0
  6
CENTER2
 62
     4
 10
65.647839795578903
 20
142.53951622040091
 30
0.0
 11
68.639113588466813
 21
142.53951622040091
 31
0.0
  0
LINE
  5
5C
  8
0
  6
CENTER2
 62
     4
 10
67.122515185331196
 20
143.98144076928841
 30
0.0
 11
67.122515185331196
 21
141.11383721073179
 31
0.0
  0
LINE
  5
5D
  8
0
  6
CONTINUOUS
 62
     7
 10
120.5653833069822
 20
148.28951622040091
 30
0.0
 11
120.5653833069822
 21
144.7395162204007
 31
0.0
  0
ARC
  5
67
  8
0
  6
CONTINUOUS
 62
     7
 10
72.622515185331196
 20
135.53951622040071
 30
0.0
 40
1.800000000000004
 50
90.0
 51
226.01703686963981
  0
ARC
  5
68
  8
0
  6
CONTINUOUS
 62
     7
 10
72.622515185331196
 20
146.53951622040091
 30
0.0
 40
1.7999999999999581
 50
180.0
 51
270.0
  0
CIRCLE
  5
69
  8
0
  6
CONTINUOUS
 62
     7
 10
72.622515185331196
 20
135.53951622040071
 30
0.0
 40
1.100000000001488
  0
CIRCLE
  5
6A
  8
0
  6
CONTINUOUS
 62
     7
 10
72.622515185331196
 20
146.53951622040091
 30
0.0
 40
1.0999999999960191
  0
POLYLINE
  5
6B
  8
0
  6
CONTINUOUS
 62
     2
 66
     1
 10
0.0
 20
0.0
 30
0.0
  0
VERTEX
  5
6C
  8
0
  6
CONTINUOUS
 62
     2
 10
119.7153833069822
 20
120.9241103603602
 30
0.0
 42
0.0109806439943928
  0
VERTEX
  5
6D
  8
0
  6
CONTINUOUS
 62
     2
 10
119.76392737101349
 20
120.8281236060083
 30
0.0
 42
0.0127488238424575
  0
VERTEX
  5
6E
  8
0
  6
CONTINUOUS
 62
     2
 10
119.81226007326541
 20
120.7430606428989
 30
0.0
 42
0.0148609590452208
  0
VERTEX
  5
6F
  8
0
  6
CONTINUOUS
 62
     2
 10
119.86038602852609
 20
120.6684966476616
 30
0.0
 42
0.0173646715051528
  0
VERTEX
  5
70
  8
0
  6
CONTINUOUS
 62
     2
 10
119.90830985158399
 20
120.6040067969259
 30
0.0
 42
0.0202848933939309
  0
VERTEX
  5
71
  8
0
  6
CONTINUOUS
 62
     2
 10
119.9560361572272
 20
120.5491662673213
 30
0.0
 42
0.0235916356509533
  0
VERTEX
  5
72
  8
0
  6
CONTINUOUS
 62
     2
 10
120.0035695602442
 20
120.50355023547741
 30
0.0
 42
0.0271510174666394
  0
VERTEX
  5
73
  8
0
  6
CONTINUOUS
 62
     2
 10
120.0509146754231
 20
120.4667338780237
 30
0.0
 42
0.0306708528660861
  0
VERTEX
  5
74
  8
0
  6
CONTINUOUS
 62
     2
 10
120.0980761175523
 20
120.4382923715897
 30
0.0
 42
0.0336806648109993
  0
VERTEX
  5
75
  8
0
  6
CONTINUOUS
 62
     2
 10
120.1450585014201
 20
120.41780089280491
 30
0.0
 42
0.0356111023342978
  0
VERTEX
  5
76
  8
0
  6
CONTINUOUS
 62
     2
 10
120.1918664418147
 20
120.40483461829891
 30
0.0
 42
0.0360006920819233
  0
VERTEX
  5
77
  8
0
  6
CONTINUOUS
 62
     2
 10
120.23850455352451
 20
120.39896872470121
 30
0.0
 42
0.034728713377652
  0
VERTEX
  5
78
  8
0
  6
CONTINUOUS
 62
     2
 10
120.2849774513376
 20
120.39977838864139
 30
0.0
 42
0.0320841899905841
  0
VERTEX
  5
79
  8
0
  6
CONTINUOUS
 62
     2
 10
120.3312897500426
 20
120.40683878674881
 30
0.0
 42
0.0286056318916268
  0
VERTEX
  5
7A
  8
0
  6
CONTINUOUS
 62
     2
 10
120.3774460644274
 20
120.41972509565321
 30
0.0
 42
0.0248372622264862
  0
VERTEX
  5
7B
  8
0
  6
CONTINUOUS
 62
     2
 10
120.4234510092806
 20
120.4380124919839
 30
0.0
 42
0.0211734966930315
  0
VERTEX
  5
7C
  8
0
  6
CONTINUOUS
 62
     2
 10
120.46930919939039
 20
120.4612761523706
 30
0.0
 42
0.0178302177984042
  0
VERTEX
  5
7D
  8
0
  6
CONTINUOUS
 62
     2
 10
120.515025249545
 20
120.48909125344269
 30
0.0
 42
0.0148868540521261
  0
VERTEX
  5
7E
  8
0
  6
CONTINUOUS
 62
     2
 10
120.56060377453279
 20
120.5210329718299
 30
0.0
 42
0.012341495528556
  0
VERTEX
  5
7F
  8
0
  6
CONTINUOUS
 62
     2
 10
120.606049389142
 20
120.5566764841615
 30
0.0
 42
0.0101529540552178
  0
VERTEX
  5
80
  8
0
  6
CONTINUOUS
 62
     2
 10
120.65136670816089
 20
120.59559696706719
 30
0.0
 42
0.0082660812192876
  0
VERTEX
  5
81
  8
0
  6
CONTINUOUS
 62
     2
 10
120.69656034637779
 20
120.6373695971764
 30
0.0
 42
0.0066246822200583
  0
VERTEX
  5
82
  8
0
  6
CONTINUOUS
 62
     2
 10
120.7416349185812
 20
120.6815695511187
 30
0.0
 42
0.0051769996680481
  0
VERTEX
  5
83
  8
0
  6
CONTINUOUS
 62
     2
 10
120.786595039559
 20
120.7277720055237
 30
0.0
 42
0.0038772766790701
  0
VERTEX
  5
84
  8
0
  6
CONTINUOUS
 62
     2
 10
120.8314453240997
 20
120.7755521370208
 30
0.0
 42
0.0026854515770171
  0
VERTEX
  5
85
  8
0
  6
CONTINUOUS
 62
     2
 10
120.87619038699169
 20
120.82448512223959
 30
0.0
 42
0.0015660564455961
  0
VERTEX
  5
86
  8
0
  6
CONTINUOUS
 62
     2
 10
120.920834843023
 20
120.8741461378096
 30
0.0
 42
0.0004868259949681
  0
VERTEX
  5
87
  8
0
  6
CONTINUOUS
 62
     2
 10
120.9653833069821
 20
120.9241103603602
 30
0.0
  0
VERTEX
  5
88
  8
0
  6
CONTINUOUS
 62
     2
 10
120.99168102106739
 20
120.9536097951943
 30
0.0
 42
-0.002973981259137
  0
VERTEX
  5
89
  8
0
  6
CONTINUOUS
 62
     2
 10
121.04435684976841
 20
121.01199092522801
 30
0.0
 42
-0.0060174376669173
  0
VERTEX
  5
8A
  8
0
  6
CONTINUOUS
 62
     2
 10
121.09743353040299
 20
121.0687313191283
 30
0.0
 42
-0.0092968770390264
  0
VERTEX
  5
8B
  8
0
  6
CONTINUOUS
 62
     2
 10
121.1512634444434
 20
121.12285047694969
 30
0.0
 42
-0.0129152758120067
  0
VERTEX
  5
8C
  8
0
  6
CONTINUOUS
 62
     2
 10
121.20619897336169
 20
121.1733678987471
 30
0.0
 42
-0.0169484908116529
  0
VERTEX
  5
8D
  8
0
  6
CONTINUOUS
 62
     2
 10
121.2625924986301
 20
121.2193030845751
 30
0.0
 42
-0.0214039923918601
  0
VERTEX
  5
8E
  8
0
  6
CONTINUOUS
 62
     2
 10
121.3207964017209
 20
121.25967553448839
 30
0.0
 42
-0.0261507095559253
  0
VERTEX
  5
8F
  8
0
  6
CONTINUOUS
 62
     2
 10
121.381163064106
 20
121.29350474854181
 30
0.0
 42
-0.0308319558417426
  0
VERTEX
  5
90
  8
0
  6
CONTINUOUS
 62
     2
 10
121.4440448672578
 20
121.31981022679
 30
0.0
 42
-0.0348234693959894
  0
VERTEX
  5
91
  8
0
  6
CONTINUOUS
 62
     2
 10
121.5097941926482
 20
121.33761146928759
 30
0.0
 42
-0.0373518382262144
  0
VERTEX
  5
92
  8
0
  6
CONTINUOUS
 62
     2
 10
121.5787634217496
 20
121.3459279760895
 30
0.0
 42
-0.0312074491813159
  0
VERTEX
  5
93
  8
0
  6
CONTINUOUS
 62
     2
 10
121.6451292075005
 20
121.3444025464695
 30
0.0
 42
-0.0269107804183148
  0
VERTEX
  5
94
  8
0
  6
CONTINUOUS
 62
     2
 10
121.7076616346436
 20
121.3353409682524
 30
0.0
 42
-0.0236229332433017
  0
VERTEX
  5
95
  8
0
  6
CONTINUOUS
 62
     2
 10
121.7711471324134
 20
121.3195533411115
 30
0.0
 42
-0.0214797812731299
  0
VERTEX
  5
96
  8
0
  6
CONTINUOUS
 62
     2
 10
121.8344809840482
 20
121.2976413285988
 30
0.0
 42
-0.0203138129508669
  0
VERTEX
  5
97
  8
0
  6
CONTINUOUS
 62
     2
 10
121.8965584727861
 20
121.2702065942665
 30
0.0
 42
-0.0200281793761748
  0
VERTEX
  5
98
  8
0
  6
CONTINUOUS
 62
     2
 10
121.9562748818652
 20
121.2378508016667
 30
0.0
 42
-0.0206056796460219
  0
VERTEX
  5
99
  8
0
  6
CONTINUOUS
 62
     2
 10
122.0125254945239
 20
121.2011756143516
 30
0.0
 42
-0.0221128271998112
  0
VERTEX
  5
9A
  8
0
  6
CONTINUOUS
 62
     2
 10
122.0642055940001
 20
121.16078269587339
 30
0.0
 42
-0.0247048875612439
  0
VERTEX
  5
9B
  8
0
  6
CONTINUOUS
 62
     2
 10
122.1102104635322
 20
121.1172737097842
 30
0.0
 42
-0.028623705438337
  0
VERTEX
  5
9C
  8
0
  6
CONTINUOUS
 62
     2
 10
122.14943538635821
 20
121.07125031963611
 30
0.0
 42
-0.0341547077400133
  0
VERTEX
  5
9D
  8
0
  6
CONTINUOUS
 62
     2
 10
122.18077564571639
 20
121.0233141889813
 30
0.0
 42
-0.0414550934136644
  0
VERTEX
  5
9E
  8
0
  6
CONTINUOUS
 62
     2
 10
122.2031265248449
 20
120.974066981372
 30
0.0
 42
-0.0500993400890444
  0
VERTEX
  5
9F
  8
0
  6
CONTINUOUS
 62
     2
 10
122.2153833069821
 20
120.9241103603602
 30
0.0
 42
-0.0530803968704538
  0
VERTEX
  5
A0
  8
0
  6
CONTINUOUS
 62
     2
 10
122.21679782635709
 20
120.87450006941179
 30
0.0
 42
-0.0488060579305312
  0
VERTEX
  5
A1
  8
0
  6
CONTINUOUS
 62
     2
 10
122.20801375365581
 20
120.825175203505
 30
0.0
 42
-0.0425674047123455
  0
VERTEX
  5
A2
  8
0
  6
CONTINUOUS
 62
     2
 10
122.18981419671169
 20
120.776526848562
 30
0.0
 42
-0.0361402059981215
  0
VERTEX
  5
A3
  8
0
  6
CONTINUOUS
 62
     2
 10
122.1629822633581
 20
120.72894609050491
 30
0.0
 42
-0.0305244935366541
  0
VERTEX
  5
A4
  8
0
  6
CONTINUOUS
 62
     2
 10
122.1283010614285
 20
120.6828240152558
 30
0.0
 42
-0.0260316284692122
  0
VERTEX
  5
A5
  8
0
  6
CONTINUOUS
 62
     2
 10
122.0865536987563
 20
120.6385517087367
 30
0.0
 42
-0.0226201415956218
  0
VERTEX
  5
A6
  8
0
  6
CONTINUOUS
 62
     2
 10
122.038523283175
 20
120.59652025686979
 30
0.0
 42
-0.020132534474792
  0
VERTEX
  5
A7
  8
0
  6
CONTINUOUS
 62
     2
 10
121.984992922518
 20
120.55712074557719
 30
0.0
 42
-0.0184052735587365
  0
VERTEX
  5
A8
  8
0
  6
CONTINUOUS
 62
     2
 10
121.9267457246187
 20
120.520744260781
 30
0.0
 42
-0.0173066188328811
  0
VERTEX
  5
A9
  8
0
  6
CONTINUOUS
 62
     2
 10
121.86456479731071
 20
120.4877818884033
 30
0.0
 42
-0.0167439807191675
  0
VERTEX
  5
AA
  8
0
  6
CONTINUOUS
 62
     2
 10
121.7992332484273
 20
120.4586247143662
 30
0.0
 42
-0.0166611833368424
  0
VERTEX
  5
AB
  8
0
  6
CONTINUOUS
 62
     2
 10
121.731534185802
 20
120.4336638245917
 30
0.0
 42
-0.0170336659064315
  0
VERTEX
  5
AC
  8
0
  6
CONTINUOUS
 62
     2
 10
121.66225071726819
 20
120.41329030500211
 30
0.0
 42
-0.0178639972057923
  0
VERTEX
  5
AD
  8
0
  6
CONTINUOUS
 62
     2
 10
121.59216595065929
 20
120.39789524151929
 30
0.0
 42
-0.0191774841493799
  0
VERTEX
  5
AE
  8
0
  6
CONTINUOUS
 62
     2
 10
121.5220629938088
 20
120.3878697200655
 30
0.0
 42
-0.0210159371597915
  0
VERTEX
  5
AF
  8
0
  6
CONTINUOUS
 62
     2
 10
121.45272495455021
 20
120.3836048265628
 30
0.0
 42
-0.0234256315510361
  0
VERTEX
  5
B0
  8
0
  6
CONTINUOUS
 62
     2
 10
121.3849349407168
 20
120.3854916469333
 30
0.0
 42
-0.0264327306888427
  0
VERTEX
  5
B1
  8
0
  6
CONTINUOUS
 62
     2
 10
121.31947606014219
 20
120.3939212670991
 30
0.0
 42
-0.0299970573862381
  0
VERTEX
  5
B2
  8
0
  6
CONTINUOUS
 62
     2
 10
121.2571314206597
 20
120.4092847729823
 30
0.0
 42
-0.0339385773608537
  0
VERTEX
  5
B3
  8
0
  6
CONTINUOUS
 62
     2
 10
121.19868413010281
 20
120.431973250505
 30
0.0
 42
-0.0378530462152232
  0
VERTEX
  5
B4
  8
0
  6
CONTINUOUS
 62
     2
 10
121.144917296305
 20
120.4623777855892
 30
0.0
 42
-0.0410845335856689
  0
VERTEX
  5
B5
  8
0
  6
CONTINUOUS
 62
     2
 10
121.0966140270996
 20
120.5008894641572
 30
0.0
 42
-0.0428662673720773
  0
VERTEX
  5
B6
  8
0
  6
CONTINUOUS
 62
     2
 10
121.0545574303202
 20
120.5478993721309
 30
0.0
 42
-0.0426580131802119
  0
VERTEX
  5
B7
  8
0
  6
CONTINUOUS
 62
     2
 10
121.0195306138001
 20
120.60379859543259
 30
0.0
 42
-0.0404649629517288
  0
VERTEX
  5
B8
  8
0
  6
CONTINUOUS
 62
     2
 10
120.9923166853728
 20
120.6689782199843
 30
0.0
 42
-0.036832074034223
  0
VERTEX
  5
B9
  8
0
  6
CONTINUOUS
 62
     2
 10
120.9736987528717
 20
120.743829331708
 30
0.0
 42
-0.0325195886796825
  0
VERTEX
  5
BA
  8
0
  6
CONTINUOUS
 62
     2
 10
120.9644599241304
 20
120.828743016526
 30
0.0
 42
-0.0281689488469346
  0
VERTEX
  5
BB
  8
0
  6
CONTINUOUS
 62
     2
 10
120.9653833069821
 20
120.9241103603602
 30
0.0
  0
SEQEND
  5
BC
  8
0
  6
CONTINUOUS
 62
     2
  0
POLYLINE
  5
BD
  8
0
  6
CONTINUOUS
 62
     2
 66
     1
 10
0.0
 20
0.0
 30
0.0
  0
VERTEX
  5
BE
  8
0
  6
CONTINUOUS
 62
     2
 10
66.622515185331295
 20
120.9241103603602
 30
0.0
 42
0.0109806439943918
  0
VERTEX
  5
BF
  8
0
  6
CONTINUOUS
 62
     2
 10
66.671059249362614
 20
120.8281236060083
 30
0.0
 42
0.0127488238422723
  0
VERTEX
  5
C0
  8
0
  6
CONTINUOUS
 62
     2
 10
66.719391951614483
 20
120.7430606428989
 30
0.0
 42
0.0148609590453206
  0
VERTEX
  5
C1
  8
0
  6
CONTINUOUS
 62
     2
 10
66.767517906875241
 20
120.6684966476616
 30
0.0
 42
0.0173646715048016
  0
VERTEX
  5
C2
  8
0
  6
CONTINUOUS
 62
     2
 10
66.815441729933085
 20
120.6040067969259
 30
0.0
 42
0.0202848933937488
  0
VERTEX
  5
C3
  8
0
  6
CONTINUOUS
 62
     2
 10
66.863168035576336
 20
120.5491662673213
 30
0.0
 42
0.0235916356509533
  0
VERTEX
  5
C4
  8
0
  6
CONTINUOUS
 62
     2
 10
66.910701438593293
 20
120.50355023547741
 30
0.0
 42
0.0271510174664544
  0
VERTEX
  5
C5
  8
0
  6
CONTINUOUS
 62
     2
 10
66.95804655377222
 20
120.4667338780237
 30
0.0
 42
0.0306708528662212
  0
VERTEX
  5
C6
  8
0
  6
CONTINUOUS
 62
     2
 10
67.005207995901458
 20
120.4382923715897
 30
0.0
 42
0.0336806648110058
  0
VERTEX
  5
C7
  8
0
  6
CONTINUOUS
 62
     2
 10
67.052190379769215
 20
120.41780089280491
 30
0.0
 42
0.0356111023342499
  0
VERTEX
  5
C8
  8
0
  6
CONTINUOUS
 62
     2
 10
67.098998320163844
 20
120.40483461829891
 30
0.0
 42
0.036000692081918
  0
VERTEX
  5
C9
  8
0
  6
CONTINUOUS
 62
     2
 10
67.145636431873612
 20
120.39896872470121
 30
0.0
 42
0.0347287133776639
  0
VERTEX
  5
CA
  8
0
  6
CONTINUOUS
 62
     2
 10
67.192109329686801
 20
120.39977838864139
 30
0.0
 42
0.0320841899905774
  0
VERTEX
  5
CB
  8
0
  6
CONTINUOUS
 62
     2
 10
67.238421628391677
 20
120.40683878674881
 30
0.0
 42
0.0286056318917263
  0
VERTEX
  5
CC
  8
0
  6
CONTINUOUS
 62
     2
 10
67.284577942776593
 20
120.41972509565321
 30
0.0
 42
0.024837262226934
  0
VERTEX
  5
CD
  8
0
  6
CONTINUOUS
 62
     2
 10
67.330582887629788
 20
120.4380124919839
 30
0.0
 42
0.0211734966929065
  0
VERTEX
  5
CE
  8
0
  6
CONTINUOUS
 62
     2
 10
67.376441077739514
 20
120.4612761523706
 30
0.0
 42
0.0178302177978605
  0
VERTEX
  5
CF
  8
0
  6
CONTINUOUS
 62
     2
 10
67.422157127894167
 20
120.48909125344269
 30
0.0
 42
0.0148868540523458
  0
VERTEX
  5
D0
  8
0
  6
CONTINUOUS
 62
     2
 10
67.467735652881942
 20
120.5210329718299
 30
0.0
 42
0.0123414955287067
  0
VERTEX
  5
D1
  8
0
  6
CONTINUOUS
 62
     2
 10
67.513181267491163
 20
120.5566764841615
 30
0.0
 42
0.0101529540554487
  0
VERTEX
  5
D2
  8
0
  6
CONTINUOUS
 62
     2
 10
67.558498586510083
 20
120.59559696706719
 30
0.0
 42
0.0082660812192096
  0
VERTEX
  5
D3
  8
0
  6
CONTINUOUS
 62
     2
 10
67.60369222472707
 20
120.6373695971764
 30
0.0
 42
0.0066246822200191
  0
VERTEX
  5
D4
  8
0
  6
CONTINUOUS
 62
     2
 10
67.648766796930332
 20
120.6815695511187
 30
0.0
 42
0.005176999668127
  0
VERTEX
  5
D5
  8
0
  6
CONTINUOUS
 62
     2
 10
67.69372691790818
 20
120.7277720055237
 30
0.0
 42
0.0038772766789516
  0
VERTEX
  5
D6
  8
0
  6
CONTINUOUS
 62
     2
 10
67.738577202448894
 20
120.7755521370208
 30
0.0
 42
0.0026854515767799
  0
VERTEX
  5
D7
  8
0
  6
CONTINUOUS
 62
     2
 10
67.7833222653408
 20
120.82448512223959
 30
0.0
 42
0.0015660564452005
  0
VERTEX
  5
D8
  8
0
  6
CONTINUOUS
 62
     2
 10
67.827966721372135
 20
120.8741461378096
 30
0.0
 42
0.0004868259948097
  0
VERTEX
  5
D9
  8
0
  6
CONTINUOUS
 62
     2
 10
67.872515185331252
 20
120.9241103603602
 30
0.0
  0
VERTEX
  5
DA
  8
0
  6
CONTINUOUS
 62
     2
 10
67.89881289941664
 20
120.9536097951943
 30
0.0
 42
-0.0029739812595063
  0
VERTEX
  5
DB
  8
0
  6
CONTINUOUS
 62
     2
 10
67.951488728117539
 20
121.01199092522801
 30
0.0
 42
-0.0060174376665496
  0
VERTEX
  5
DC
  8
0
  6
CONTINUOUS
 62
     2
 10
68.004565408752114
 20
121.0687313191283
 30
0.0
 42
-0.0092968770389598
  0
VERTEX
  5
DD
  8
0
  6
CONTINUOUS
 62
     2
 10
68.058395322792492
 20
121.12285047694969
 30
0.0
 42
-0.0129152758123964
  0
VERTEX
  5
DE
  8
0
  6
CONTINUOUS
 62
     2
 10
68.113330851710813
 20
121.1733678987471
 30
0.0
 42
-0.016948490811717
  0
VERTEX
  5
DF
  8
0
  6
CONTINUOUS
 62
     2
 10
68.169724376979261
 20
121.2193030845751
 30
0.0
 42
-0.0214039923917718
  0
VERTEX
  5
E0
  8
0
  6
CONTINUOUS
 62
     2
 10
68.227928280069989
 20
121.25967553448839
 30
0.0
 42
-0.026150709555871
  0
VERTEX
  5
E1
  8
0
  6
CONTINUOUS
 62
     2
 10
68.288294942455167
 20
121.29350474854181
 30
0.0
 42
-0.0308319558417884
  0
VERTEX
  5
E2
  8
0
  6
CONTINUOUS
 62
     2
 10
68.351176745606892
 20
121.31981022679
 30
0.0
 42
-0.0348234693961124
  0
VERTEX
  5
E3
  8
0
  6
CONTINUOUS
 62
     2
 10
68.416926070997391
 20
121.33761146928759
 30
0.0
 42
-0.0373518382262389
  0
VERTEX
  5
E4
  8
0
  6
CONTINUOUS
 62
     2
 10
68.485895300098775
 20
121.3459279760895
 30
0.0
 42
-0.0312074491813224
  0
VERTEX
  5
E5
  8
0
  6
CONTINUOUS
 62
     2
 10
68.552261085849565
 20
121.3444025464695
 30
0.0
 42
-0.0269107804182907
  0
VERTEX
  5
E6
  8
0
  6
CONTINUOUS
 62
     2
 10
68.614793512992705
 20
121.3353409682524
 30
0.0
 42
-0.0236229332432432
  0
VERTEX
  5
E7
  8
0
  6
CONTINUOUS
 62
     2
 10
68.678279010762594
 20
121.3195533411115
 30
0.0
 42
-0.0214797812730626
  0
VERTEX
  5
E8
  8
0
  6
CONTINUOUS
 62
     2
 10
68.741612862397389
 20
121.2976413285988
 30
0.0
 42
-0.020313812950913
  0
VERTEX
  5
E9
  8
0
  6
CONTINUOUS
 62
     2
 10
68.803690351135259
 20
121.2702065942665
 30
0.0
 42
-0.0200281793760254
  0
VERTEX
  5
EA
  8
0
  6
CONTINUOUS
 62
     2
 10
68.863406760214389
 20
121.2378508016667
 30
0.0
 42
-0.0206056796459416
  0
VERTEX
  5
EB
  8
0
  6
CONTINUOUS
 62
     2
 10
68.91965737287299
 20
121.2011756143516
 30
0.0
 42
-0.022112827199716
  0
VERTEX
  5
EC
  8
0
  6
CONTINUOUS
 62
     2
 10
68.971337472349219
 20
121.16078269587339
 30
0.0
 42
-0.0247048875610183
  0
VERTEX
  5
ED
  8
0
  6
CONTINUOUS
 62
     2
 10
69.017342341881289
 20
121.1172737097842
 30
0.0
 42
-0.0286237054380825
  0
VERTEX
  5
EE
  8
0
  6
CONTINUOUS
 62
     2
 10
69.05656726470734
 20
121.07125031963611
 30
0.0
 42
-0.0341547077400536
  0
VERTEX
  5
EF
  8
0
  6
CONTINUOUS
 62
     2
 10
69.087907524065542
 20
121.0233141889813
 30
0.0
 42
-0.041455093413617
  0
VERTEX
  5
F0
  8
0
  6
CONTINUOUS
 62
     2
 10
69.110258403194095
 20
120.974066981372
 30
0.0
 42
-0.0500993400893018
  0
VERTEX
  5
F1
  8
0
  6
CONTINUOUS
 62
     2
 10
69.122515185331196
 20
120.9241103603602
 30
0.0
 42
-0.0530803968698891
  0
VERTEX
  5
F2
  8
0
  6
CONTINUOUS
 62
     2
 10
69.123929704706256
 20
120.87450006941179
 30
0.0
 42
-0.0488060579299764
  0
VERTEX
  5
F3
  8
0
  6
CONTINUOUS
 62
     2
 10
69.115145632004996
 20
120.825175203505
 30
0.0
 42
-0.042567404712198
  0
VERTEX
  5
F4
  8
0
  6
CONTINUOUS
 62
     2
 10
69.096946075060814
 20
120.776526848562
 30
0.0
 42
-0.0361402059977786
  0
VERTEX
  5
F5
  8
0
  6
CONTINUOUS
 62
     2
 10
69.070114141707222
 20
120.72894609050491
 30
0.0
 42
-0.0305244935361977
  0
VERTEX
  5
F6
  8
0
  6
CONTINUOUS
 62
     2
 10
69.035432939777607
 20
120.6828240152558
 30
0.0
 42
-0.0260316284691635
  0
VERTEX
  5
F7
  8
0
  6
CONTINUOUS
 62
     2
 10
68.993685577105424
 20
120.6385517087367
 30
0.0
 42
-0.0226201415953234
  0
VERTEX
  5
F8
  8
0
  6
CONTINUOUS
 62
     2
 10
68.945655161524115
 20
120.59652025686979
 30
0.0
 42
-0.0201325344744932
  0
VERTEX
  5
F9
  8
0
  6
CONTINUOUS
 62
     2
 10
68.892124800867137
 20
120.55712074557719
 30
0.0
 42
-0.0184052735585113
  0
VERTEX
  5
FA
  8
0
  6
CONTINUOUS
 62
     2
 10
68.833877602967902
 20
120.520744260781
 30
0.0
 42
-0.0173066188328303
  0
VERTEX
  5
FB
  8
0
  6
CONTINUOUS
 62
     2
 10
68.771696675659854
 20
120.4877818884033
 30
0.0
 42
-0.0167439807190024
  0
VERTEX
  5
FC
  8
0
  6
CONTINUOUS
 62
     2
 10
68.706365126776461
 20
120.4586247143662
 30
0.0
 42
-0.0166611833368547
  0
VERTEX
  5
FD
  8
0
  6
CONTINUOUS
 62
     2
 10
68.63866606415111
 20
120.4336638245917
 30
0.0
 42
-0.0170336659065643
  0
VERTEX
  5
FE
  8
0
  6
CONTINUOUS
 62
     2
 10
68.569382595617284
 20
120.41329030500211
 30
0.0
 42
-0.0178639972058397
  0
VERTEX
  5
FF
  8
0
  6
CONTINUOUS
 62
     2
 10
68.499297829008412
 20
120.39789524151929
 30
0.0
 42
-0.0191774841494031
  0
VERTEX
  5
100
  8
0
  6
CONTINUOUS
 62
     2
 10
68.429194872157964
 20
120.3878697200655
 30
0.0
 42
-0.0210159371597873
  0
VERTEX
  5
101
  8
0
  6
CONTINUOUS
 62
     2
 10
68.359856832899325
 20
120.3836048265628
 30
0.0
 42
-0.0234256315510341
  0
VERTEX
  5
102
  8
0
  6
CONTINUOUS
 62
     2
 10
68.292066819065965
 20
120.3854916469333
 30
0.0
 42
-0.0264327306888427
  0
VERTEX
  5
103
  8
0
  6
CONTINUOUS
 62
     2
 10
68.226607938491327
 20
120.3939212670991
 30
0.0
 42
-0.0299970573862018
  0
VERTEX
  5
104
  8
0
  6
CONTINUOUS
 62
     2
 10
68.164263299008852
 20
120.4092847729823
 30
0.0
 42
-0.0339385773608537
  0
VERTEX
  5
105
  8
0
  6
CONTINUOUS
 62
     2
 10
68.105816008451967
 20
120.431973250505
 30
0.0
 42
-0.0378530462153362
  0
VERTEX
  5
106
  8
0
  6
CONTINUOUS
 62
     2
 10
68.052049174654115
 20
120.4623777855892
 30
0.0
 42
-0.041084533585901
  0
VERTEX
  5
107
  8
0
  6
CONTINUOUS
 62
     2
 10
68.003745905448753
 20
120.5008894641572
 30
0.0
 42
-0.0428662673723623
  0
VERTEX
  5
108
  8
0
  6
CONTINUOUS
 62
     2
 10
67.961689308669293
 20
120.5478993721309
 30
0.0
 42
-0.042658013180394
  0
VERTEX
  5
109
  8
0
  6
CONTINUOUS
 62
     2
 10
67.926662492149219
 20
120.60379859543259
 30
0.0
 42
-0.0404649629520071
  0
VERTEX
  5
10A
  8
0
  6
CONTINUOUS
 62
     2
 10
67.89944856372189
 20
120.6689782199843
 30
0.0
 42
-0.036832074034135
  0
VERTEX
  5
10B
  8
0
  6
CONTINUOUS
 62
     2
 10
67.880830631220888
 20
120.743829331708
 30
0.0
 42
-0.032519588679767
  0
VERTEX
  5
10C
  8
0
  6
CONTINUOUS
 62
     2
 10
67.8715918024795
 20
120.828743016526
 30
0.0
 42
-0.0281689488472386
  0
VERTEX
  5
10D
  8
0
  6
CONTINUOUS
 62
     2
 10
67.872515185331252
 20
120.9241103603602
 30
0.0
  0
SEQEND
  5
10E
  8
0
  6
CONTINUOUS
 62
     2
  0
LINE
  5
36C
  8
0
  6
CENTER2
 62
     4
 10
-37.789403903703459
 20
135.54763899001
 30
0.0
 11
-32.789403903703459
 21
135.54763899001
 31
0.0
  0
LINE
  5
36D
  8
0
  6
CENTER2
 62
     4
 10
-37.90578508217915
 20
146.54763899001011
 30
0.0
 11
-32.905785082179172
 21
146.54763899001011
 31
0.0
  0
LINE
  5
36E
  8
0
  6
CONTINUOUS
 62
     7
 10
14.696148995954159
 20
133.79763899001
 30
0.0
 11
13.49037763001416
 21
129.29763899001
 31
0.0
  0
LINE
  5
36F
  8
0
  6
CONTINUOUS
 62
     7
 10
-35.188964090786122
 20
137.34763899001001
 30
0.0
 11
-35.188964090786122
 21
133.79763899001011
 31
0.0
  0
LINE
  5
370
  8
0
  6
CONTINUOUS
 62
     7
 10
14.696148995954159
 20
171.3990835506537
 30
0.0
 11
14.696148995954159
 21
174.89908355065381
 31
0.0
  0
LINE
  5
371
  8
0
  6
CENTER2
 62
     4
 10
6.446148995953763
 20
170.78127288083181
 30
0.0
 11
6.446148995953763
 21
175.50723698928789
 31
0.0
  0
LINE
  5
372
  8
0
  6
CONTINUOUS
 62
     7
 10
4.6961489959534362
 20
172.79908355065351
 30
0.0
 11
8.2461489959537602
 21
172.79908355065351
 31
0.0
  0
LINE
  5
373
  8
0
  6
CONTINUOUS
 62
     7
 10
4.6961489959538758
 20
174.89908355065381
 30
0.0
 11
14.696148995954159
 21
174.89908355065381
 31
0.0
  0
LINE
  5
374
  8
0
  6
CENTER2
 62
     4
 10
7.7933524395932201
 20
135.54763899001
 30
0.0
 11
5.0934438848911583
 21
135.54763899001
 31
0.0
  0
LINE
  5
375
  8
0
  6
CENTER2
 62
     4
 10
6.44614899595416
 20
136.86603565991629
 30
0.0
 11
6.44614899595416
 21
134.11353148401869
 31
0.0
  0
LINE
  5
376
  8
0
  6
CENTER2
 62
     4
 10
6.44614899595416
 20
147.89358423723851
 30
0.0
 11
6.44614899595416
 21
145.12354818760889
 31
0.0
  0
LINE
  5
377
  8
0
  6
CENTER2
 62
     4
 10
5.023316389963866
 20
146.54763899001011
 30
0.0
 11
7.7582886921296534
 21
146.54763899001011
 31
0.0
  0
LINE
  5
378
  8
0
  6
CONTINUOUS
 62
     7
 10
-36.838964090786121
 20
129.29763899001
 30
0.0
 11
-36.838964090786121
 21
120.1634436654431
 31
0.0
  0
LINE
  5
379
  8
0
  6
CONTINUOUS
 62
     7
 10
-37.288964090786109
 20
148.29763899001011
 30
0.0
 11
-33.788964090786102
 21
148.29763899001011
 31
0.0
  0
LINE
  5
37A
  8
0
  6
CONTINUOUS
 62
     7
 10
-35.188964090786122
 20
148.29763899001011
 30
0.0
 11
-35.188964090786122
 21
144.74763899000999
 31
0.0
  0
LINE
  5
37B
  8
0
  6
CONTINUOUS
 62
     7
 10
-37.288964090786109
 20
148.29763899001011
 30
0.0
 11
-37.288964090786109
 21
129.29763899001
 31
0.0
  0
LINE
  5
37C
  8
0
  6
CONTINUOUS
 62
     7
 10
8.2461489959541581
 20
146.54763899001011
 30
0.0
 11
8.2461489959541581
 21
148.29763899001011
 31
0.0
  0
LINE
  5
37D
  8
0
  6
CONTINUOUS
 62
     7
 10
4.69614899595416
 20
133.79763899001031
 30
0.0
 11
4.69614899595416
 21
148.29763899001011
 31
0.0
  0
LINE
  5
37E
  8
0
  6
CONTINUOUS
 62
     7
 10
4.69614899595416
 20
133.79763899001031
 30
0.0
 11
14.696148995954159
 21
133.79763899001
 31
0.0
  0
LINE
  5
37F
  8
0
  6
CONTINUOUS
 62
     7
 10
6.44614899595416
 20
144.74763899000999
 30
0.0
 11
4.69614899595416
 21
144.74763899000999
 31
0.0
  0
LINE
  5
380
  8
0
  6
CONTINUOUS
 62
     7
 10
6.44614899595416
 20
137.34763899001001
 30
0.0
 11
4.69614899595416
 21
137.34763899001001
 31
0.0
  0
LINE
  5
381
  8
0
  6
CONTINUOUS
 62
     7
 10
7.69614899595416
 20
133.79763899001
 30
0.0
 11
7.69614899595416
 21
134.2524556053113
 31
0.0
  0
LINE
  5
382
  8
0
  6
CONTINUOUS
 62
     7
 10
14.696148995954159
 20
133.79763899001
 30
0.0
 11
14.696148995954159
 21
148.29763899001011
 31
0.0
  0
LINE
  5
383
  8
0
  6
CONTINUOUS
 62
     7
 10
9.9461489959538767
 20
129.29763899001
 30
0.0
 11
9.9461489959540756
 21
120.1634436654431
 31
0.0
  0
LINE
  5
384
  8
0
  6
CONTINUOUS
 62
     7
 10
12.446148995953759
 20
129.29763899001
 30
0.0
 11
12.44614899595407
 21
120.1634436654431
 31
0.0
  0
LINE
  5
385
  8
0
  6
CONTINUOUS
 62
     7
 10
7.69614899595416
 20
133.79763899001
 30
0.0
 11
8.901920361894156
 21
129.29763899001
 31
0.0
  0
LINE
  5
386
  8
0
  6
CONTINUOUS
 62
     7
 10
8.901920361894156
 20
129.29763899001
 30
0.0
 11
13.49037763001416
 21
129.29763899001
 31
0.0
  0
LINE
  5
387
  8
0
  6
CENTER2
 62
     4
 10
10.43995881753694
 20
142.54763899001011
 30
0.0
 11
13.457403439821761
 21
142.54763899001011
 31
0.0
  0
LINE
  5
388
  8
0
  6
CENTER2
 62
     4
 10
11.946148995954159
 20
144.14101357456769
 30
0.0
 11
11.946148995954159
 21
141.0036093801431
 31
0.0
  0
LINE
  5
389
  8
0
  6
CONTINUOUS
 62
     7
 10
14.696148995954159
 20
133.79763899001
 30
0.0
 11
14.696148995954159
 21
133.79414231312401
 31
0.0
  0
LINE
  5
38A
  8
0
  6
CONTINUOUS
 62
     7
 10
-35.188964090786122
 20
144.74763899000999
 30
0.0
 11
-33.788964090786102
 21
144.74763899000999
 31
0.0
  0
LINE
  5
38B
  8
0
  6
CONTINUOUS
 62
     7
 10
-33.788964090786102
 20
148.29763899001011
 30
0.0
 11
-33.788964090786102
 21
133.79763899001011
 31
0.0
  0
LINE
  5
38C
  8
0
  6
CONTINUOUS
 62
     7
 10
-35.188964090786122
 20
137.34763899001001
 30
0.0
 11
-33.788964090786102
 21
137.34763899001001
 31
0.0
  0
LINE
  5
38D
  8
0
  6
CONTINUOUS
 62
     7
 10
-35.188964090786122
 20
134.2524556053113
 30
0.0
 11
-33.788964090786102
 21
134.2524556053113
 31
0.0
  0
LINE
  5
38E
  8
0
  6
CONTINUOUS
 62
     7
 10
-33.788964090786102
 20
133.79763899001011
 30
0.0
 11
-37.288964090786109
 21
133.79763899001011
 31
0.0
  0
LINE
  5
38F
  8
0
  6
CONTINUOUS
 62
     7
 10
-37.288964090786109
 20
129.29763899001
 30
0.0
 11
-33.888964090786139
 21
129.29763899001
 31
0.0
  0
LINE
  5
390
  8
0
  6
CONTINUOUS
 62
     7
 10
-33.888964090786139
 20
129.29763899001
 30
0.0
 11
-33.888964090786139
 21
133.79763899001011
 31
0.0
  0
LINE
  5
391
  8
0
  6
CONTINUOUS
 62
     7
 10
14.696148995954159
 20
148.29763899001011
 30
0.0
 11
4.69614899595416
 21
148.29763899001011
 31
0.0
  0
LINE
  5
392
  8
0
  6
CONTINUOUS
 62
     7
 10
8.2461489959537602
 20
172.79908355065351
 30
0.0
 11
8.2461489959537602
 21
171.3990835506537
 31
0.0
  0
LINE
  5
393
  8
0
  6
CONTINUOUS
 62
     7
 10
14.696148995954159
 20
171.3990835506537
 30
0.0
 11
4.6961489959539469
 21
171.3990835506537
 31
0.0
  0
LINE
  5
394
  8
0
  6
CONTINUOUS
 62
     7
 10
4.6961489959538758
 20
174.89908355065381
 30
0.0
 11
4.6961489959539469
 21
171.3990835506537
 31
0.0
  0
LINE
  5
395
  8
0
  6
CONTINUOUS
 62
     7
 10
-34.338964090786149
 20
120.1634436654431
 30
0.0
 11
-34.338964090786121
 21
129.29763899001
 31
0.0
  0
ARC
  5
396
  8
0
  6
CONTINUOUS
 62
     7
 10
6.44614899595416
 20
146.54763899001011
 30
0.0
 40
1.8000000000001091
 50
270.0
 51
0.0
  0
ARC
  5
397
  8
0
  6
CONTINUOUS
 62
     7
 10
6.44614899595416
 20
135.54763899001
 30
0.0
 40
1.7999999999999561
 50
313.98296313035951
 51
90.0
  0
CIRCLE
  5
398
  8
0
  6
CONTINUOUS
 62
     7
 10
6.44614899595416
 20
135.54763899001
 30
0.0
 40
1.1000000000015471
  0
CIRCLE
  5
399
  8
0
  6
CONTINUOUS
 62
     7
 10
6.44614899595416
 20
146.54763899001011
 30
0.0
 40
1.0999999999958641
  0
POLYLINE
  5
39A
  8
0
  6
CONTINUOUS
 62
     2
 66
     1
 10
0.0
 20
0.0
 30
0.0
  0
VERTEX
  5
39B
  8
0
  6
CONTINUOUS
 62
     2
 10
9.9461489959540756
 20
120.1634436654431
 30
0.0
 42
0.0090818456568182
  0
VERTEX
  5
39C
  8
0
  6
CONTINUOUS
 62
     2
 10
9.9922869328354551
 20
120.06030633538261
 30
0.0
 42
0.0105627319396219
  0
VERTEX
  5
39D
  8
0
  6
CONTINUOUS
 62
     2
 10
10.03798805240006
 20
119.96824261893551
 30
0.0
 42
0.0123580600704106
  0
VERTEX
  5
39E
  8
0
  6
CONTINUOUS
 62
     2
 10
10.08327118405445
 20
119.8868340536025
 30
0.0
 42
0.0145349950799308
  0
VERTEX
  5
39F
  8
0
  6
CONTINUOUS
 62
     2
 10
10.128155157205271
 20
119.8156621768848
 30
0.0
 42
0.0171622435265268
  0
VERTEX
  5
3A0
  8
0
  6
CONTINUOUS
 62
     2
 10
10.172658801259059
 20
119.7543085262834
 30
0.0
 42
0.0202926711708768
  0
VERTEX
  5
3A1
  8
0
  6
CONTINUOUS
 62
     2
 10
10.216800945622561
 20
119.7023546392993
 30
0.0
 42
0.0239271152661635
  0
VERTEX
  5
3A2
  8
0
  6
CONTINUOUS
 62
     2
 10
10.26060041970227
 20
119.6593820534337
 30
0.0
 42
0.0279517577261656
  0
VERTEX
  5
3A3
  8
0
  6
CONTINUOUS
 62
     2
 10
10.30407605290487
 20
119.6249723061873
 30
0.0
 42
0.0320555168266109
  0
VERTEX
  5
3A4
  8
0
  6
CONTINUOUS
 62
     2
 10
10.347246674636949
 20
119.5987069350614
 30
0.0
 42
0.0356752715419097
  0
VERTEX
  5
3A5
  8
0
  6
CONTINUOUS
 62
     2
 10
10.390131114305159
 20
119.580167477557
 30
0.0
 42
0.0380709912300257
  0
VERTEX
  5
3A6
  8
0
  6
CONTINUOUS
 62
     2
 10
10.432748201316061
 20
119.568935471175
 30
0.0
 42
0.0386050821751859
  0
VERTEX
  5
3A7
  8
0
  6
CONTINUOUS
 62
     2
 10
10.475116765076219
 20
119.56459245341659
 30
0.0
 42
0.037096605038137
  0
VERTEX
  5
3A8
  8
0
  6
CONTINUOUS
 62
     2
 10
10.51725563499245
 20
119.5667199617827
 30
0.0
 42
0.0339374170580884
  0
VERTEX
  5
3A9
  8
0
  6
CONTINUOUS
 62
     2
 10
10.559183640471259
 20
119.5748995337744
 30
0.0
 42
0.0298485899750536
  0
VERTEX
  5
3AA
  8
0
  6
CONTINUOUS
 62
     2
 10
10.60091961091927
 20
119.58871270689269
 30
0.0
 42
0.0255222078527697
  0
VERTEX
  5
3AB
  8
0
  6
CONTINUOUS
 62
     2
 10
10.642482375743061
 20
119.60774101863871
 30
0.0
 42
0.0214205348101953
  0
VERTEX
  5
3AC
  8
0
  6
CONTINUOUS
 62
     2
 10
10.683890764349149
 20
119.6315660065133
 30
0.0
 42
0.017765366663236
  0
VERTEX
  5
3AD
  8
0
  6
CONTINUOUS
 62
     2
 10
10.72516360614447
 20
119.65976920801771
 30
0.0
 42
0.0146134264229505
  0
VERTEX
  5
3AE
  8
0
  6
CONTINUOUS
 62
     2
 10
10.76631973053536
 20
119.6919321606528
 30
0.0
 42
0.0119341050367216
  0
VERTEX
  5
3AF
  8
0
  6
CONTINUOUS
 62
     2
 10
10.807377966928451
 20
119.7276364019196
 30
0.0
 42
0.0096613651527373
  0
VERTEX
  5
3B0
  8
0
  6
CONTINUOUS
 62
     2
 10
10.848357144730549
 20
119.76646346931931
 30
0.0
 42
0.0077214405722504
  0
VERTEX
  5
3B1
  8
0
  6
CONTINUOUS
 62
     2
 10
10.889276093348061
 20
119.8079949003528
 30
0.0
 42
0.0060451018039578
  0
VERTEX
  5
3B2
  8
0
  6
CONTINUOUS
 62
     2
 10
10.930153642187671
 20
119.8518122325212
 30
0.0
 42
0.0045717227117654
  0
VERTEX
  5
3B3
  8
0
  6
CONTINUOUS
 62
     2
 10
10.971008620656031
 20
119.8974970033255
 30
0.0
 42
0.0032495181574162
  0
VERTEX
  5
3B4
  8
0
  6
CONTINUOUS
 62
     2
 10
11.01185985815985
 20
119.9446307502667
 30
0.0
 42
0.0020342236423537
  0
VERTEX
  5
3B5
  8
0
  6
CONTINUOUS
 62
     2
 10
11.05272618410555
 20
119.9927950108458
 30
0.0
 42
0.0008872762334966
  0
VERTEX
  5
3B6
  8
0
  6
CONTINUOUS
 62
     2
 10
11.093626427899849
 20
120.041571322564
 30
0.0
 42
-0.0002260674312183
  0
VERTEX
  5
3B7
  8
0
  6
CONTINUOUS
 62
     2
 10
11.13457941894935
 20
120.0905412229222
 30
0.0
 42
-0.0013385375028924
  0
VERTEX
  5
3B8
  8
0
  6
CONTINUOUS
 62
     2
 10
11.17560398666067
 20
120.1392862494215
 30
0.0
  0
VERTEX
  5
3B9
  8
0
  6
CONTINUOUS
 62
     2
 10
11.19614899595407
 20
120.1634436654431
 30
0.0
 42
-0.0051012527553864
  0
VERTEX
  5
3BA
  8
0
  6
CONTINUOUS
 62
     2
 10
11.250595568006871
 20
120.2260192885235
 30
0.0
 42
-0.008943060136149
  0
VERTEX
  5
3BB
  8
0
  6
CONTINUOUS
 62
     2
 10
11.305817094882549
 20
120.28599409718301
 30
0.0
 42
-0.0131237100525452
  0
VERTEX
  5
3BC
  8
0
  6
CONTINUOUS
 62
     2
 10
11.362414675912049
 20
120.3422521739642
 30
0.0
 42
-0.0177031230186216
  0
VERTEX
  5
3BD
  8
0
  6
CONTINUOUS
 62
     2
 10
11.420989410426261
 20
120.39367760141
 30
0.0
 42
-0.0226363946657495
  0
VERTEX
  5
3BE
  8
0
  6
CONTINUOUS
 62
     2
 10
11.48214239775605
 20
120.4391544620631
 30
0.0
 42
-0.0276859679947045
  0
VERTEX
  5
3BF
  8
0
  6
CONTINUOUS
 62
     2
 10
11.54647473723244
 20
120.4775668384663
 30
0.0
 42
-0.0323405499607486
  0
VERTEX
  5
3C0
  8
0
  6
CONTINUOUS
 62
     2
 10
11.614587528186149
 20
120.5077988131624
 30
0.0
 42
-0.0358421994535425
  0
VERTEX
  5
3C1
  8
0
  6
CONTINUOUS
 62
     2
 10
11.687081869948139
 20
120.5287344686942
 30
0.0
 42
-0.0374372295641777
  0
VERTEX
  5
3C2
  8
0
  6
CONTINUOUS
 62
     2
 10
11.764558861849251
 20
120.53925788760429
 30
0.0
 42
-0.0262013844088255
  0
VERTEX
  5
3C3
  8
0
  6
CONTINUOUS
 62
     2
 10
11.827047296011139
 20
120.5397554932224
 30
0.0
 42
-0.0227047075454747
  0
VERTEX
  5
3C4
  8
0
  6
CONTINUOUS
 62
     2
 10
11.89170639347566
 20
120.5340134000427
 30
0.0
 42
-0.0202904404269766
  0
VERTEX
  5
3C5
  8
0
  6
CONTINUOUS
 62
     2
 10
11.95746901316245
 20
120.5224766482602
 30
0.0
 42
-0.0187805693272218
  0
VERTEX
  5
3C6
  8
0
  6
CONTINUOUS
 62
     2
 10
12.023268013990769
 20
120.5055902780699
 30
0.0
 42
-0.018055386075892
  0
VERTEX
  5
3C7
  8
0
  6
CONTINUOUS
 62
     2
 10
12.08803625488005
 20
120.4837993296667
 30
0.0
 42
-0.0180624095197148
  0
VERTEX
  5
3C8
  8
0
  6
CONTINUOUS
 62
     2
 10
12.15070659474995
 20
120.4575488432455
 30
0.0
 42
-0.0188193166330963
  0
VERTEX
  5
3C9
  8
0
  6
CONTINUOUS
 62
     2
 10
12.210211892519551
 20
120.42728385900141
 30
0.0
 42
-0.0204205073831521
  0
VERTEX
  5
3CA
  8
0
  6
CONTINUOUS
 62
     2
 10
12.265485007108451
 20
120.3934494171292
 30
0.0
 42
-0.0230493504203716
  0
VERTEX
  5
3CB
  8
0
  6
CONTINUOUS
 62
     2
 10
12.31545879743615
 20
120.356490557824
 30
0.0
 42
-0.0269897300212305
  0
VERTEX
  5
3CC
  8
0
  6
CONTINUOUS
 62
     2
 10
12.359066122421959
 20
120.31685232128061
 30
0.0
 42
-0.032608545739644
  0
VERTEX
  5
3CD
  8
0
  6
CONTINUOUS
 62
     2
 10
12.395239840985271
 20
120.274979747694
 30
0.0
 42
-0.0402220473252741
  0
VERTEX
  5
3CE
  8
0
  6
CONTINUOUS
 62
     2
 10
12.422912812045571
 20
120.2313178772592
 30
0.0
 42
-0.0496512437191892
  0
VERTEX
  5
3CF
  8
0
  6
CONTINUOUS
 62
     2
 10
12.44101789452227
 20
120.1863117501711
 30
0.0
 42
-0.059487036380569
  0
VERTEX
  5
3D0
  8
0
  6
CONTINUOUS
 62
     2
 10
12.44854381198145
 20
120.1400095615607
 30
0.0
 42
-0.056551859821053
  0
VERTEX
  5
3D1
  8
0
  6
CONTINUOUS
 62
     2
 10
12.445086741642649
 20
120.0928397581593
 30
0.0
 42
-0.0490399192924499
  0
VERTEX
  5
3D2
  8
0
  6
CONTINUOUS
 62
     2
 10
12.43133347313805
 20
120.04564031249321
 30
0.0
 42
-0.0407341903242949
  0
VERTEX
  5
3D3
  8
0
  6
CONTINUOUS
 62
     2
 10
12.408123292498271
 20
119.9988582068633
 30
0.0
 42
-0.0334564461865225
  0
VERTEX
  5
3D4
  8
0
  6
CONTINUOUS
 62
     2
 10
12.376295485753561
 20
119.95294042357089
 30
0.0
 42
-0.0277493147346918
  0
VERTEX
  5
3D5
  8
0
  6
CONTINUOUS
 62
     2
 10
12.33668933893477
 20
119.90833394491681
 30
0.0
 42
-0.0235204924640531
  0
VERTEX
  5
3D6
  8
0
  6
CONTINUOUS
 62
     2
 10
12.290144138072231
 20
119.86548575320241
 30
0.0
 42
-0.0204991944265923
  0
VERTEX
  5
3D7
  8
0
  6
CONTINUOUS
 62
     2
 10
12.23749916919655
 20
119.8248428307285
 30
0.0
 42
-0.0184245179647577
  0
VERTEX
  5
3D8
  8
0
  6
CONTINUOUS
 62
     2
 10
12.179593718338371
 20
119.7868521597964
 30
0.0
 42
-0.0170967298837475
  0
VERTEX
  5
3D9
  8
0
  6
CONTINUOUS
 62
     2
 10
12.117267071528071
 20
119.751960722707
 30
0.0
 42
-0.0163794780559776
  0
VERTEX
  5
3DA
  8
0
  6
CONTINUOUS
 62
     2
 10
12.05135851479627
 20
119.7206155017615
 30
0.0
 42
-0.0161897466750888
  0
VERTEX
  5
3DB
  8
0
  6
CONTINUOUS
 62
     2
 10
11.982707334173449
 20
119.69326347926091
 30
0.0
 42
-0.0164876581883304
  0
VERTEX
  5
3DC
  8
0
  6
CONTINUOUS
 62
     2
 10
11.91215281569016
 20
119.6703516375063
 30
0.0
 42
-0.0172688788385141
  0
VERTEX
  5
3DD
  8
0
  6
CONTINUOUS
 62
     2
 10
11.84053424537696
 20
119.6523269587988
 30
0.0
 42
-0.0185590540652283
  0
VERTEX
  5
3DE
  8
0
  6
CONTINUOUS
 62
     2
 10
11.76869090926443
 20
119.6396364254396
 30
0.0
 42
-0.0204079898505796
  0
VERTEX
  5
3DF
  8
0
  6
CONTINUOUS
 62
     2
 10
11.69746209338305
 20
119.6327270197295
 30
0.0
 42
-0.0228792101772686
  0
VERTEX
  5
3E0
  8
0
  6
CONTINUOUS
 62
     2
 10
11.627687083763471
 20
119.6320457239698
 30
0.0
 42
-0.0260270396944887
  0
VERTEX
  5
3E1
  8
0
  6
CONTINUOUS
 62
     2
 10
11.560205166435949
 20
119.6380395204614
 30
0.0
 42
-0.0298488487570583
  0
VERTEX
  5
3E2
  8
0
  6
CONTINUOUS
 62
     2
 10
11.49585562743137
 20
119.6511553915056
 30
0.0
 42
-0.034199640452105
  0
VERTEX
  5
3E3
  8
0
  6
CONTINUOUS
 62
     2
 10
11.435477752780059
 20
119.6718403194033
 30
0.0
 42
-0.0386761026826869
  0
VERTEX
  5
3E4
  8
0
  6
CONTINUOUS
 62
     2
 10
11.37991082851263
 20
119.7005412864557
 30
0.0
 42
-0.0425419275220606
  0
VERTEX
  5
3E5
  8
0
  6
CONTINUOUS
 62
     2
 10
11.32999414065965
 20
119.7377052749638
 30
0.0
 42
-0.0448515901592671
  0
VERTEX
  5
3E6
  8
0
  6
CONTINUOUS
 62
     2
 10
11.28656697525156
 20
119.7837792672287
 30
0.0
 42
-0.0448683840149257
  0
VERTEX
  5
3E7
  8
0
  6
CONTINUOUS
 62
     2
 10
11.250468618318941
 20
119.8392102455515
 30
0.0
 42
-0.0425284463022102
  0
VERTEX
  5
3E8
  8
0
  6
CONTINUOUS
 62
     2
 10
11.22253835589235
 20
119.9044451922333
 30
0.0
 42
-0.0384834535188785
  0
VERTEX
  5
3E9
  8
0
  6
CONTINUOUS
 62
     2
 10
11.20361547400227
 20
119.9799310895751
 30
0.0
 42
-0.0336730369552534
  0
VERTEX
  5
3EA
  8
0
  6
CONTINUOUS
 62
     2
 10
11.194539258679351
 20
120.0661149198779
 30
0.0
 42
-0.0288723700474772
  0
VERTEX
  5
3EB
  8
0
  6
CONTINUOUS
 62
     2
 10
11.19614899595407
 20
120.1634436654431
 30
0.0
  0
SEQEND
  5
3EC
  8
0
  6
CONTINUOUS
 62
     2
  0
POLYLINE
  5
3ED
  8
0
  6
CONTINUOUS
 62
     2
 66
     1
 10
0.0
 20
0.0
 30
0.0
  0
VERTEX
  5
3EE
  8
0
  6
CONTINUOUS
 62
     2
 10
-36.838964090786121
 20
120.1634436654431
 30
0.0
 42
0.0090818456567332
  0
VERTEX
  5
3EF
  8
0
  6
CONTINUOUS
 62
     2
 10
-36.79282615390472
 20
120.06030633538261
 30
0.0
 42
0.0105627319395301
  0
VERTEX
  5
3F0
  8
0
  6
CONTINUOUS
 62
     2
 10
-36.747125034340122
 20
119.96824261893551
 30
0.0
 42
0.0123580600702464
  0
VERTEX
  5
3F1
  8
0
  6
CONTINUOUS
 62
     2
 10
-36.701841902685707
 20
119.8868340536025
 30
0.0
 42
0.0145349950796855
  0
VERTEX
  5
3F2
  8
0
  6
CONTINUOUS
 62
     2
 10
-36.65695792953494
 20
119.8156621768848
 30
0.0
 42
0.0171622435263772
  0
VERTEX
  5
3F3
  8
0
  6
CONTINUOUS
 62
     2
 10
-36.612454285481107
 20
119.7543085262834
 30
0.0
 42
0.0202926711707982
  0
VERTEX
  5
3F4
  8
0
  6
CONTINUOUS
 62
     2
 10
-36.568312141117651
 20
119.7023546392993
 30
0.0
 42
0.0239271152659613
  0
VERTEX
  5
3F5
  8
0
  6
CONTINUOUS
 62
     2
 10
-36.524512667037918
 20
119.6593820534337
 30
0.0
 42
0.0279517577261251
  0
VERTEX
  5
3F6
  8
0
  6
CONTINUOUS
 62
     2
 10
-36.481037033835349
 20
119.6249723061873
 30
0.0
 42
0.0320555168261989
  0
VERTEX
  5
3F7
  8
0
  6
CONTINUOUS
 62
     2
 10
-36.437866412103247
 20
119.5987069350614
 30
0.0
 42
0.0356752715418042
  0
VERTEX
  5
3F8
  8
0
  6
CONTINUOUS
 62
     2
 10
-36.39498197243509
 20
119.580167477557
 30
0.0
 42
0.0380709912299383
  0
VERTEX
  5
3F9
  8
0
  6
CONTINUOUS
 62
     2
 10
-36.352364885424137
 20
119.568935471175
 30
0.0
 42
0.0386050821752006
  0
VERTEX
  5
3FA
  8
0
  6
CONTINUOUS
 62
     2
 10
-36.309996321663903
 20
119.56459245341659
 30
0.0
 42
0.0370966050381308
  0
VERTEX
  5
3FB
  8
0
  6
CONTINUOUS
 62
     2
 10
-36.26785745174773
 20
119.5667199617827
 30
0.0
 42
0.0339374170579938
  0
VERTEX
  5
3FC
  8
0
  6
CONTINUOUS
 62
     2
 10
-36.225929446268921
 20
119.5748995337744
 30
0.0
 42
0.0298485899752143
  0
VERTEX
  5
3FD
  8
0
  6
CONTINUOUS
 62
     2
 10
-36.184193475820962
 20
119.58871270689269
 30
0.0
 42
0.0255222078529809
  0
VERTEX
  5
3FE
  8
0
  6
CONTINUOUS
 62
     2
 10
-36.142630710997182
 20
119.60774101863871
 30
0.0
 42
0.021420534810014
  0
VERTEX
  5
3FF
  8
0
  6
CONTINUOUS
 62
     2
 10
-36.10122232239101
 20
119.6315660065133
 30
0.0
 42
0.0177653666634351
  0
VERTEX
  5
400
  8
0
  6
CONTINUOUS
 62
     2
 10
-36.059949480595762
 20
119.65976920801771
 30
0.0
 42
0.0146134264229937
  0
VERTEX
  5
401
  8
0
  6
CONTINUOUS
 62
     2
 10
-36.018793356204881
 20
119.6919321606528
 30
0.0
 42
0.0119341050367206
  0
VERTEX
  5
402
  8
0
  6
CONTINUOUS
 62
     2
 10
-35.977735119811733
 20
119.7276364019196
 30
0.0
 42
0.0096613651531264
  0
VERTEX
  5
403
  8
0
  6
CONTINUOUS
 62
     2
 10
-35.936755942009668
 20
119.76646346931931
 30
0.0
 42
0.00772144057199
  0
VERTEX
  5
404
  8
0
  6
CONTINUOUS
 62
     2
 10
-35.895836993392152
 20
119.8079949003528
 30
0.0
 42
0.0060451018036107
  0
VERTEX
  5
405
  8
0
  6
CONTINUOUS
 62
     2
 10
-35.854959444552492
 20
119.8518122325212
 30
0.0
 42
0.0045717227116788
  0
VERTEX
  5
406
  8
0
  6
CONTINUOUS
 62
     2
 10
-35.814104466084089
 20
119.8974970033255
 30
0.0
 42
0.0032495181577178
  0
VERTEX
  5
407
  8
0
  6
CONTINUOUS
 62
     2
 10
-35.773253228580352
 20
119.9446307502667
 30
0.0
 42
0.0020342236423966
  0
VERTEX
  5
408
  8
0
  6
CONTINUOUS
 62
     2
 10
-35.73238690263463
 20
119.9927950108458
 30
0.0
 42
0.0008872762334111
  0
VERTEX
  5
409
  8
0
  6
CONTINUOUS
 62
     2
 10
-35.691486658840333
 20
120.041571322564
 30
0.0
 42
-0.0002260674315172
  0
VERTEX
  5
40A
  8
0
  6
CONTINUOUS
 62
     2
 10
-35.650533667790839
 20
120.0905412229222
 30
0.0
 42
-0.0013385375026364
  0
VERTEX
  5
40B
  8
0
  6
CONTINUOUS
 62
     2
 10
-35.609509100079528
 20
120.1392862494215
 30
0.0
  0
VERTEX
  5
40C
  8
0
  6
CONTINUOUS
 62
     2
 10
-35.588964090786121
 20
120.1634436654431
 30
0.0
 42
-0.0051012527552893
  0
VERTEX
  5
40D
  8
0
  6
CONTINUOUS
 62
     2
 10
-35.534517518733352
 20
120.2260192885235
 30
0.0
 42
-0.0089430601359563
  0
VERTEX
  5
40E
  8
0
  6
CONTINUOUS
 62
     2
 10
-35.479295991857683
 20
120.28599409718301
 30
0.0
 42
-0.0131237100526393
  0
VERTEX
  5
40F
  8
0
  6
CONTINUOUS
 62
     2
 10
-35.422698410828161
 20
120.3422521739642
 30
0.0
 42
-0.0177031230185624
  0
VERTEX
  5
410
  8
0
  6
CONTINUOUS
 62
     2
 10
-35.364123676313937
 20
120.39367760141
 30
0.0
 42
-0.0226363946655189
  0
VERTEX
  5
411
  8
0
  6
CONTINUOUS
 62
     2
 10
-35.302970688984097
 20
120.4391544620631
 30
0.0
 42
-0.0276859679945811
  0
VERTEX
  5
412
  8
0
  6
CONTINUOUS
 62
     2
 10
-35.238638349507781
 20
120.4775668384663
 30
0.0
 42
-0.0323405499606243
  0
VERTEX
  5
413
  8
0
  6
CONTINUOUS
 62
     2
 10
-35.170525558554068
 20
120.5077988131624
 30
0.0
 42
-0.0358421994534542
  0
VERTEX
  5
414
  8
0
  6
CONTINUOUS
 62
     2
 10
-35.098031216792052
 20
120.5287344686942
 30
0.0
 42
-0.0374372295641051
  0
VERTEX
  5
415
  8
0
  6
CONTINUOUS
 62
     2
 10
-35.020554224890887
 20
120.53925788760429
 30
0.0
 42
-0.0262013844088307
  0
VERTEX
  5
416
  8
0
  6
CONTINUOUS
 62
     2
 10
-34.95806579072908
 20
120.5397554932224
 30
0.0
 42
-0.0227047075454843
  0
VERTEX
  5
417
  8
0
  6
CONTINUOUS
 62
     2
 10
-34.893406693264509
 20
120.5340134000427
 30
0.0
 42
-0.0202904404269766
  0
VERTEX
  5
418
  8
0
  6
CONTINUOUS
 62
     2
 10
-34.827644073577751
 20
120.5224766482602
 30
0.0
 42
-0.0187805693273073
  0
VERTEX
  5
419
  8
0
  6
CONTINUOUS
 62
     2
 10
-34.761845072749423
 20
120.5055902780699
 30
0.0
 42
-0.0180553860760174
  0
VERTEX
  5
41A
  8
0
  6
CONTINUOUS
 62
     2
 10
-34.697076831860073
 20
120.4837993296667
 30
0.0
 42
-0.0180624095196176
  0
VERTEX
  5
41B
  8
0
  6
CONTINUOUS
 62
     2
 10
-34.634406491990283
 20
120.4575488432455
 30
0.0
 42
-0.0188193166332567
  0
VERTEX
  5
41C
  8
0
  6
CONTINUOUS
 62
     2
 10
-34.574901194220608
 20
120.42728385900141
 30
0.0
 42
-0.0204205073832642
  0
VERTEX
  5
41D
  8
0
  6
CONTINUOUS
 62
     2
 10
-34.519628079631687
 20
120.3934494171292
 30
0.0
 42
-0.0230493504204986
  0
VERTEX
  5
41E
  8
0
  6
CONTINUOUS
 62
     2
 10
-34.469654289304032
 20
120.356490557824
 30
0.0
 42
-0.0269897300214663
  0
VERTEX
  5
41F
  8
0
  6
CONTINUOUS
 62
     2
 10
-34.426046964318267
 20
120.31685232128061
 30
0.0
 42
-0.0326085457396969
  0
VERTEX
  5
420
  8
0
  6
CONTINUOUS
 62
     2
 10
-34.389873245754941
 20
120.274979747694
 30
0.0
 42
-0.0402220473254756
  0
VERTEX
  5
421
  8
0
  6
CONTINUOUS
 62
     2
 10
-34.362200274694636
 20
120.2313178772592
 30
0.0
 42
-0.0496512437186721
  0
VERTEX
  5
422
  8
0
  6
CONTINUOUS
 62
     2
 10
-34.344095192217942
 20
120.1863117501711
 30
0.0
 42
-0.0594870363804235
  0
VERTEX
  5
423
  8
0
  6
CONTINUOUS
 62
     2
 10
-34.336569274758759
 20
120.1400095615607
 30
0.0
 42
-0.0565518598215042
  0
VERTEX
  5
424
  8
0
  6
CONTINUOUS
 62
     2
 10
-34.340026345097513
 20
120.0928397581593
 30
0.0
 42
-0.0490399192918863
  0
VERTEX
  5
425
  8
0
  6
CONTINUOUS
 62
     2
 10
-34.353779613602121
 20
120.04564031249321
 30
0.0
 42
-0.0407341903242863
  0
VERTEX
  5
426
  8
0
  6
CONTINUOUS
 62
     2
 10
-34.376989794241958
 20
119.9988582068633
 30
0.0
 42
-0.0334564461862012
  0
VERTEX
  5
427
  8
0
  6
CONTINUOUS
 62
     2
 10
-34.408817600986602
 20
119.95294042357089
 30
0.0
 42
-0.0277493147345583
  0
VERTEX
  5
428
  8
0
  6
CONTINUOUS
 62
     2
 10
-34.448423747805421
 20
119.90833394491681
 30
0.0
 42
-0.0235204924641231
  0
VERTEX
  5
429
  8
0
  6
CONTINUOUS
 62
     2
 10
-34.494968948667932
 20
119.86548575320241
 30
0.0
 42
-0.0204991944266951
  0
VERTEX
  5
42A
  8
0
  6
CONTINUOUS
 62
     2
 10
-34.547613917543593
 20
119.8248428307285
 30
0.0
 42
-0.0184245179649607
  0
VERTEX
  5
42B
  8
0
  6
CONTINUOUS
 62
     2
 10
-34.605519368401829
 20
119.7868521597964
 30
0.0
 42
-0.0170967298838482
  0
VERTEX
  5
42C
  8
0
  6
CONTINUOUS
 62
     2
 10
-34.667846015212149
 20
119.751960722707
 30
0.0
 42
-0.016379478056066
  0
VERTEX
  5
42D
  8
0
  6
CONTINUOUS
 62
     2
 10
-34.73375457194399
 20
119.7206155017615
 30
0.0
 42
-0.0161897466749582
  0
VERTEX
  5
42E
  8
0
  6
CONTINUOUS
 62
     2
 10
-34.802405752566777
 20
119.69326347926091
 30
0.0
 42
-0.016487658188363
  0
VERTEX
  5
42F
  8
0
  6
CONTINUOUS
 62
     2
 10
-34.872960271050033
 20
119.6703516375063
 30
0.0
 42
-0.0172688788384906
  0
VERTEX
  5
430
  8
0
  6
CONTINUOUS
 62
     2
 10
-34.94457884136321
 20
119.6523269587988
 30
0.0
 42
-0.0185590540652419
  0
VERTEX
  5
431
  8
0
  6
CONTINUOUS
 62
     2
 10
-35.016422177475746
 20
119.6396364254396
 30
0.0
 42
-0.0204079898506363
  0
VERTEX
  5
432
  8
0
  6
CONTINUOUS
 62
     2
 10
-35.087650993357123
 20
119.6327270197295
 30
0.0
 42
-0.0228792101772635
  0
VERTEX
  5
433
  8
0
  6
CONTINUOUS
 62
     2
 10
-35.157426002976749
 20
119.6320457239698
 30
0.0
 42
-0.026027039694485
  0
VERTEX
  5
434
  8
0
  6
CONTINUOUS
 62
     2
 10
-35.22490792030419
 20
119.6380395204614
 30
0.0
 42
-0.0298488487571314
  0
VERTEX
  5
435
  8
0
  6
CONTINUOUS
 62
     2
 10
-35.2892574593088
 20
119.6511553915056
 30
0.0
 42
-0.0341996404522054
  0
VERTEX
  5
436
  8
0
  6
CONTINUOUS
 62
     2
 10
-35.34963533396008
 20
119.6718403194033
 30
0.0
 42
-0.0386761026827703
  0
VERTEX
  5
437
  8
0
  6
CONTINUOUS
 62
     2
 10
-35.405202258227511
 20
119.7005412864557
 30
0.0
 42
-0.0425419275219965
  0
VERTEX
  5
438
  8
0
  6
CONTINUOUS
 62
     2
 10
-35.455118946080532
 20
119.7377052749638
 30
0.0
 42
-0.0448515901591918
  0
VERTEX
  5
439
  8
0
  6
CONTINUOUS
 62
     2
 10
-35.498546111488622
 20
119.7837792672287
 30
0.0
 42
-0.0448683840147926
  0
VERTEX
  5
43A
  8
0
  6
CONTINUOUS
 62
     2
 10
-35.534644468421249
 20
119.8392102455515
 30
0.0
 42
-0.0425284463017969
  0
VERTEX
  5
43B
  8
0
  6
CONTINUOUS
 62
     2
 10
-35.562574730847821
 20
119.9044451922333
 30
0.0
 42
-0.0384834535190578
  0
VERTEX
  5
43C
  8
0
  6
CONTINUOUS
 62
     2
 10
-35.581497612737863
 20
119.9799310895751
 30
0.0
 42
-0.0336730369550866
  0
VERTEX
  5
43D
  8
0
  6
CONTINUOUS
 62
     2
 10
-35.590573828060833
 20
120.0661149198779
 30
0.0
 42
-0.0288723700475136
  0
VERTEX
  5
43E
  8
0
  6
CONTINUOUS
 62
     2
 10
-35.588964090786121
 20
120.1634436654431
 30
0.0
  0
SEQEND
  5
43F
  8
0
  6
CONTINUOUS
 62
     2
  0
LINE
  5
440
  8
0
  6
CONTINUOUS
 62
     4
 10
-33.788964090786102
 20
142.54763899001011
 30
0.0
 11
-27.351018859812939
 21
142.54763899001011
 31
0.0
  0
LINE
  5
56B
  8
0
  6
CONTINUOUS
 62
     4
 10
-29.19832127251658
 20
142.0526558003501
 30
0.0
 11
-27.351018859812939
 21
142.54763899001011
 31
0.0
  0
LINE
  5
56C
  8
0
  6
CONTINUOUS
 62
     4
 10
-27.351018859812939
 20
142.54763899001011
 30
0.0
 11
-29.19832127251658
 21
143.0426221796701
 31
0.0
  0
LINE
  5
56E
  8
0
  6
CONTINUOUS
 62
     4
 10
112.72743807600899
 20
142.54763899001011
 30
0.0
 11
119.16538330698221
 21
142.54763899001011
 31
0.0
  0
LINE
  5
56F
  8
0
  6
CONTINUOUS
 62
     4
 10
117.31808089427849
 20
142.0526558003501
 30
0.0
 11
119.16538330698221
 21
142.54763899001011
 31
0.0
  0
LINE
  5
570
  8
0
  6
CONTINUOUS
 62
     4
 10
119.16538330698221
 20
142.54763899001011
 30
0.0
 11
117.31808089427849
 21
143.0426221796701
 31
0.0
  0
LINE
  5
571
  8
0
  6
CONTINUOUS
 62
     4
 10
67.122515185331196
 20
164.96113831968049
 30
0.0
 11
67.122515185331196
 21
171.3990835506537
 31
0.0
  0
LINE
  5
572
  8
0
  6
CONTINUOUS
 62
     4
 10
67.617498374991186
 20
169.55178113795
 30
0.0
 11
67.122515185331196
 21
171.3990835506537
 31
0.0
  0
LINE
  5
573
  8
0
  6
CONTINUOUS
 62
     4
 10
67.122515185331196
 20
171.3990835506537
 30
0.0
 11
66.627531995671205
 21
169.55178113795
 31
0.0
  0
LINE
  5
574
  8
0
  6
CONTINUOUS
 62
     4
 10
11.946148995954159
 20
171.3990835506537
 30
0.0
 11
11.946148995954159
 21
164.9611383196806
 31
0.0
  0
LINE
  5
575
  8
0
  6
CONTINUOUS
 62
     4
 10
11.451165806294171
 20
166.80844073238421
 30
0.0
 11
11.946148995954159
 21
164.9611383196806
 31
0.0
  0
LINE
  5
576
  8
0
  6
CONTINUOUS
 62
     4
 10
11.946148995954159
 20
164.9611383196806
 30
0.0
 11
12.441132185614149
 21
166.80844073238421
 31
0.0
  0
INSERT
  5
5EA
  8
0
  2
*U2
 10
0.0
 20
0.0
 30
0.0
  0
INSERT
  5
5EB
  8
0
  2
*U3
 10
0.0
 20
0.0
 30
0.0
  0
INSERT
  5
5EE
  8
0
  2
*U4
 10
0.0
 20
0.0
 30
0.0
  0
ENDSEC
  0
EOF
