  0
SECTION
  2
HEADER
  9
$ACADVER
  1
AC1009
  9
$INSBASE
 10
0.0
 20
0.0
 30
0.0
  9
$EXTMIN
 10
77.058366347473793
 20
114.1144582483585
 30
0.0
  9
$EXTMAX
 10
133.61361359909279
 20
178.04688276936949
 30
0.0
  9
$LIMMIN
 10
0.0
 20
0.0
  9
$LIMMAX
 10
210.0
 20
297.0
  9
$ORTHOMODE
 70
     0
  9
$REGENMODE
 70
     1
  9
$FILLMODE
 70
     1
  9
$QTEXTMODE
 70
     0
  9
$MIRRTEXT
 70
     1
  9
$DRAGMODE
 70
     2
  9
$LTSCALE
 40
1.0
  9
$OSMODE
 70
    39
  9
$ATTMODE
 70
     1
  9
$TEXTSIZE
 40
2.5
  9
$TRACEWID
 40
1.0
  9
$TEXTSTYLE
  7
STANDARD
  9
$CLAYER
  8
0
  9
$CELTYPE
  6
BYLAYER
  9
$CECOLOR
 62
   256
  9
$DIMSCALE
 40
1.0
  9
$DIMASZ
 40
6.0
  9
$DIMEXO
 40
1.0
  9
$DIMDLI
 40
3.75
  9
$DIMRND
 40
0.0
  9
$DIMDLE
 40
0.0
  9
$DIMEXE
 40
1.0
  9
$DIMTP
 40
0.0
  9
$DIMTM
 40
0.0
  9
$DIMTXT
 40
3.5
  9
$DIMCEN
 40
2.5
  9
$DIMTSZ
 40
0.0
  9
$DIMTOL
 70
     0
  9
$DIMLIM
 70
     0
  9
$DIMTIH
 70
     1
  9
$DIMTOH
 70
     1
  9
$DIMSE1
 70
     0
  9
$DIMSE2
 70
     0
  9
$DIMTAD
 70
     1
  9
$DIMZIN
 70
     0
  9
$DIMBLK
  1

  9
$DIMASO
 70
     1
  9
$DIMSHO
 70
     1
  9
$DIMPOST
  1

  9
$DIMAPOST
  1

  9
$DIMALT
 70
     0
  9
$DIMALTD
 70
     3
  9
$DIMALTF
 40
0.0393700787401575
  9
$DIMLFAC
 40
1.0
  9
$DIMTOFL
 70
     1
  9
$DIMTVP
 40
0.0
  9
$DIMTIX
 70
     0
  9
$DIMSOXD
 70
     0
  9
$DIMSAH
 70
     0
  9
$DIMBLK1
  1

  9
$DIMBLK2
  1

  9
$DIMSTYLE
  2
ISO-25
  9
$DIMCLRD
 70
     0
  9
$DIMCLRE
 70
     0
  9
$DIMCLRT
 70
     0
  9
$DIMTFAC
 40
1.0
  9
$DIMGAP
 40
1.524
  9
$LUNITS
 70
     2
  9
$LUPREC
 70
     2
  9
$SKETCHINC
 40
1.0
  9
$FILLETRAD
 40
10.0
  9
$AUNITS
 70
     0
  9
$AUPREC
 70
     2
  9
$MENU
  1
.
  9
$ELEVATION
 40
0.0
  9
$PELEVATION
 40
0.0
  9
$THICKNESS
 40
0.0
  9
$LIMCHECK
 70
     0
  9
$BLIPMODE
 70
     0
  9
$CHAMFERA
 40
10.0
  9
$CHAMFERB
 40
10.0
  9
$SKPOLY
 70
     0
  9
$TDCREATE
 40
2457238.4566807291
  9
$TDUPDATE
 40
2457242.6861738772
  9
$TDINDWG
 40
0.1992711458
  9
$TDUSRTIMER
 40
0.1992711458
  9
$USRTIMER
 70
     1
  9
$ANGBASE
 50
0.0
  9
$ANGDIR
 70
     0
  9
$PDMODE
 70
     0
  9
$PDSIZE
 40
-1.0
  9
$PLINEWID
 40
0.0
  9
$COORDS
 70
     2
  9
$SPLFRAME
 70
     0
  9
$SPLINETYPE
 70
     6
  9
$SPLINESEGS
 70
     8
  9
$ATTDIA
 70
     1
  9
$ATTREQ
 70
     1
  9
$HANDLING
 70
     1
  9
$HANDSEED
  5
450
  9
$SURFTAB1
 70
     6
  9
$SURFTAB2
 70
     6
  9
$SURFTYPE
 70
     6
  9
$SURFU
 70
     6
  9
$SURFV
 70
     6
  9
$UCSNAME
  2

  9
$UCSORG
 10
0.0
 20
0.0
 30
0.0
  9
$UCSXDIR
 10
1.0
 20
0.0
 30
0.0
  9
$UCSYDIR
 10
0.0
 20
1.0
 30
0.0
  9
$PUCSNAME
  2

  9
$PUCSORG
 10
0.0
 20
0.0
 30
0.0
  9
$PUCSXDIR
 10
1.0
 20
0.0
 30
0.0
  9
$PUCSYDIR
 10
0.0
 20
1.0
 30
0.0
  9
$USERI1
 70
     0
  9
$USERI2
 70
     0
  9
$USERI3
 70
     0
  9
$USERI4
 70
     0
  9
$USERI5
 70
     0
  9
$USERR1
 40
0.0
  9
$USERR2
 40
0.0
  9
$USERR3
 40
0.0
  9
$USERR4
 40
0.0
  9
$USERR5
 40
0.0
  9
$WORLDVIEW
 70
     1
  9
$SHADEDGE
 70
     3
  9
$SHADEDIF
 70
    70
  9
$TILEMODE
 70
     1
  9
$MAXACTVP
 70
    64
  9
$PLIMCHECK
 70
     0
  9
$PEXTMIN
 10
1.0000000000000000E+020
 20
1.0000000000000000E+020
 30
1.0000000000000000E+020
  9
$PEXTMAX
 10
-1.0000000000000000E+020
 20
-1.0000000000000000E+020
 30
-1.0000000000000000E+020
  9
$PLIMMIN
 10
0.0
 20
0.0
  9
$PLIMMAX
 10
420.0
 20
297.0
  9
$UNITMODE
 70
     0
  9
$VISRETAIN
 70
     1
  9
$PLINEGEN
 70
     0
  9
$PSLTSCALE
 70
     1
  0
ENDSEC
  0
SECTION
  2
TABLES
  0
TABLE
  2
VPORT
 70
     1
  0
VPORT
  2
*ACTIVE
 70
     0
 10
0.0
 20
0.0
 11
1.0
 21
1.0
 12
114.6136242614251
 22
171.11554270195629
 13
0.0
 23
0.0
 14
10.0
 24
10.0
 15
10.0
 25
10.0
 16
0.0
 26
0.0
 36
1.0
 17
0.0
 27
0.0
 37
0.0
 40
115.62074475826201
 41
0.8926673751328375
 42
50.0
 43
0.0
 44
0.0
 50
0.0
 51
0.0
 71
     0
 72
  2000
 73
     1
 74
     3
 75
     0
 76
     0
 77
     0
 78
     0
  0
ENDTAB
  0
TABLE
  2
LTYPE
 70
    17
  0
LTYPE
  2
CONTINUOUS
 70
     0
  3
Solid line
 72
    65
 73
     0
 40
0.0
  0
LTYPE
  2
HIDDEN
 70
     0
  3
Hidden __ __ __ __ __ __ __ __ __ __ __ __ __ __
 72
    65
 73
     2
 40
1.905
 49
1.27
 49
-0.635
  0
LTYPE
  2
PHANTOM
 70
     0
  3
Phantom ______  __  __  ______  __  __  ______
 72
    65
 73
     6
 40
12.699999999999999
 49
6.3499999999999988
 49
-1.27
 49
1.27
 49
-1.27
 49
1.27
 49
-1.27
  0
LTYPE
  2
CENTER
 70
     0
  3
Center ____ _ ____ _ ____ _ ____ _ ____ _ ____
 72
    65
 73
     4
 40
10.16
 49
6.3499999999999988
 49
-1.27
 49
1.27
 49
-1.27
  0
LTYPE
  2
CENTERX2
 70
     0
  3
Center (2x) ________  __  ________  __  _____
 72
    65
 73
     4
 40
20.32
 49
12.699999999999999
 49
-2.54
 49
2.54
 49
-2.54
  0
LTYPE
  2
DOT2
 70
     0
  3
Dot (.5x) ........................................
 72
    65
 73
     2
 40
0.635
 49
0.0
 49
-0.635
  0
LTYPE
  2
PHANTOM2
 70
     0
  3
Phantom (.5x) ___ _ _ ___ _ _ ___ _ _ ___ _ _
 72
    65
 73
     6
 40
31.75
 49
15.875
 49
-3.1749999999999989
 49
3.1749999999999989
 49
-3.1749999999999989
 49
3.1749999999999989
 49
-3.1749999999999989
  0
LTYPE
  2
AM_ISO02W050
 70
     0
  3
__ __ __ __ __ __ __ __ __ __ __ __ __ __ __
 72
    65
 73
     2
 40
7.5
 49
6.0
 49
-1.5
  0
LTYPE
  2
AM_ISO08W050
 70
     0
  3
____ . ____ . ____ . ____ . ____ . ____ . ____
 72
    65
 73
     4
 40
18.0
 49
12.0
 49
-1.5
 49
3.0
 49
-1.5
  0
LTYPE
  2
AM_ISO09W050
 70
     0
  3
_____ . . _____ . . _____ . . ____ .. ____
 72
    65
 73
     6
 40
22.5
 49
12.0
 49
-1.5
 49
3.0
 49
-1.5
 49
3.0
 49
-1.5
  0
LTYPE
  2
AMCONSTR
 70
     0
  3
_______________________
 72
    65
 73
     2
 40
9999.0
 49
9999.0
 49
0.0
  0
LTYPE
  2
AM_ISO08W050X2
 70
     0
  3
__ . __ . __ . __ . __ . __
 72
    65
 73
     4
 40
9.0
 49
6.0
 49
-0.75
 49
1.5
 49
-0.75
  0
LTYPE
  2
AM_ISO02W050X2
 70
     0
  3
 _ _ _ _ _ _ _ _ _ _ _ _
 72
    65
 73
     2
 40
3.75
 49
3.0
 49
-0.75
  0
LTYPE
  2
AMZIGZAG
 70
     0
  3
/\/-/\/-/\/-/\/-/\/-/\/
 72
    65
 73
     2
 40
11.0001
 49
0.0001
 49
-11.0
  0
LTYPE
  2
ACISOWELD
 70
     0
  3
_ _ _ _ _
 72
    65
 73
     2
 40
2.0
 49
2.0
 49
-1.0
  0
LTYPE
  2
ACISOTGL
 70
     0
  3
_ _ _ _ _
 72
    65
 73
     2
 40
3.0
 49
2.0
 49
-1.0
  0
LTYPE
  2
ACISOTGB
 70
     0
  3
__ . . __ . .
 72
    65
 73
     6
 40
9.0
 49
4.0
 49
-1.0
 49
1.0
 49
-1.0
 49
1.0
 49
-1.0
  0
ENDTAB
  0
TABLE
  2
LAYER
 70
     2
  0
LAYER
  2
0
 70
     0
 62
     7
  6
CONTINUOUS
  0
LAYER
  2
AM_CL
 70
     0
 62
     1
  6
AMCONSTR
  0
ENDTAB
  0
TABLE
  2
STYLE
 70
     4
  0
STYLE
  2
STANDARD
 70
     0
 40
0.0
 41
1.0
 50
0.0
 71
     0
 42
2.5
  3
txt
  4
bigfont
  0
STYLE
  2

 70
     1
 40
0.0
 41
1.0
 50
0.0
 71
     0
 42
3.5
  3
genltshp.shx
  4

  0
STYLE
  2
ACISOTS
 70
     0
 40
1.0
 41
1.0
 50
0.0
 71
     0
 42
3.5
  3
isocp.shx
  4
extfont.shx
  0
STYLE
  2
ACISOGDT
 70
     0
 40
0.0
 41
1.0
 50
0.0
 71
     0
 42
3.5
  3
amgdt.shx
  4

  0
ENDTAB
  0
TABLE
  2
VIEW
 70
     0
  0
ENDTAB
  0
TABLE
  2
UCS
 70
     0
  0
ENDTAB
  0
TABLE
  2
APPID
 70
    17
  0
APPID
  2
ACAD
 70
     0
  0
APPID
  2
MCAD_NO_VIS
 70
     0
  0
APPID
  2
ACAD_TEMP_GRAPHIC
 70
     0
  0
APPID
  2
ACATTRIBSERVICES
 70
     0
  0
APPID
  2
DESIGNERASSEMBLIES
 70
     0
  0
APPID
  2
ACAD_DSTYLE_DIMJAG
 70
     0
  0
APPID
  2
ACAD_DSTYLE_DIMBREAK
 70
     0
  0
APPID
  2
ACAD_NAV_VCDISPLAY
 70
     0
  0
APPID
  2
ACAD_EXEMPT_FROM_CAD_STANDARDS
 70
     0
  0
APPID
  2
ACAECLAYERSTANDARD
 70
     0
  0
APPID
  2
ACAD_PSEXT
 70
     0
  0
APPID
  2
ACAD_MLEADERVER
 70
     0
  0
APPID
  2
ACAD_DSTYLE_DIMARC_LENGTH_
 70
     0
  0
APPID
  2
ACAD_DSTYLE_DIM_LINETYPE
 70
     0
  0
APPID
  2
ACAD_DSTYLE_DIM_EXT1_LINETYPE
 70
     0
  0
APPID
  2
ACAD_DSTYLE_DIM_EXT2_LINETYPE
 70
     0
  0
APPID
  2
ACDBDYNAMICBLOCKTRUENAME2
 70
     0
  0
ENDTAB
  0
TABLE
  2
DIMSTYLE
 70
     8
  0
DIMSTYLE
  2
ISO-25
 70
     0
  3

  4

  5

  6

  7

 40
1.0
 41
2.5
 42
0.625
 43
3.75
 44
1.25
 45
0.0
 46
0.0
 47
0.0
 48
0.0
140
2.5
141
2.5
142
0.0
143
0.03937007874016
144
1.0
145
0.0
146
1.0
147
0.625
 71
     0
 72
     0
 73
     0
 74
     0
 75
     0
 76
     0
 77
     1
 78
     8
170
     0
171
     3
172
     1
173
     0
174
     0
175
     0
176
     0
177
     0
178
     0
  0
DIMSTYLE
  2
AM_ISO
 70
     0
  3

  4
"
  5

  6

  7

 40
1.0
 41
3.5
 42
1.0
 43
10.0
 44
1.0
 45
0.0
 46
0.0
 47
0.1
 48
0.1
140
3.5
141
0.0
142
0.0
143
0.0393701
144
1.0
145
0.0
146
0.71
147
1.5
 71
     0
 72
     0
 73
     0
 74
     0
 75
     0
 76
     0
 77
     1
 78
     8
170
     0
171
     2
172
     1
173
     0
174
     0
175
     0
176
   256
177
   256
178
     2
  0
DIMSTYLE
  2
AM_ISO$3
 70
     0
  3

  4
"
  5

  6

  7

 40
1.0
 41
3.5
 42
1.0
 43
10.0
 44
1.0
 45
0.0
 46
0.0
 47
0.1
 48
0.1
140
3.5
141
0.0
142
0.0
143
0.0393701
144
1.0
145
0.0
146
0.71
147
1.5
 71
     0
 72
     0
 73
     0
 74
     1
 75
     0
 76
     0
 77
     1
 78
     8
170
     0
171
     2
172
     0
173
     0
174
     0
175
     0
176
   256
177
   256
178
     2
  0
DIMSTYLE
  2
AM_ISO$4
 70
     0
  3

  4
"
  5

  6

  7

 40
1.0
 41
3.5
 42
1.0
 43
10.0
 44
1.0
 45
0.0
 46
0.0
 47
0.1
 48
0.1
140
3.5
141
0.0
142
0.0
143
0.0393701
144
1.0
145
0.0
146
0.71
147
1.5
 71
     0
 72
     0
 73
     0
 74
     1
 75
     0
 76
     0
 77
     1
 78
     8
170
     0
171
     2
172
     0
173
     0
174
     0
175
     0
176
   256
177
   256
178
     2
  0
DIMSTYLE
  2
AM_ISO$6
 70
     0
  3

  4
"
  5

  6

  7

 40
1.0
 41
3.5
 42
1.0
 43
10.0
 44
1.0
 45
0.0
 46
0.0
 47
0.1
 48
0.1
140
3.5
141
0.0
142
0.0
143
0.0393701
144
1.0
145
0.0
146
0.71
147
1.5
 71
     0
 72
     0
 73
     0
 74
     0
 75
     0
 76
     0
 77
     0
 78
     8
170
     0
171
     2
172
     1
173
     0
174
     0
175
     0
176
   256
177
   256
178
     2
  0
DIMSTYLE
  2
AM_ISO$7
 70
     0
  3

  4
"
  5

  6

  7

 40
1.0
 41
3.5
 42
1.0
 43
10.0
 44
1.0
 45
0.0
 46
0.0
 47
0.1
 48
0.1
140
3.5
141
0.0
142
0.0
143
0.0393701
144
1.0
145
0.0
146
0.71
147
1.5
 71
     0
 72
     0
 73
     0
 74
     0
 75
     0
 76
     0
 77
     1
 78
     8
170
     0
171
     2
172
     1
173
     0
174
     0
175
     0
176
   256
177
   256
178
     2
  0
DIMSTYLE
  2
AM_ISO$SF
 70
     0
  3

  4
"
  5

  6

  7

 40
1.0
 41
3.5
 42
1.0
 43
10.0
 44
1.0
 45
0.0
 46
0.0
 47
0.1
 48
0.1
140
3.5
141
0.0
142
0.0
143
0.0393701
144
1.0
145
0.0
146
0.71
147
1.5
 71
     0
 72
     0
 73
     0
 74
     0
 75
     1
 76
     1
 77
     1
 78
     8
170
     0
171
     2
172
     1
173
     0
174
     0
175
     0
176
   256
177
   256
178
     2
  0
DIMSTYLE
  2
AM_ISO$SH
 70
     0
  3

  4
"
  5

  6
GENAXEH
  7

 40
1.0
 41
3.5
 42
1.0
 43
10.0
 44
1.0
 45
0.0
 46
0.0
 47
0.1
 48
0.1
140
3.5
141
0.0
142
0.0
143
0.0393701
144
2.0
145
0.0
146
0.71
147
1.5
 71
     0
 72
     0
 73
     0
 74
     0
 75
     1
 76
     1
 77
     1
 78
     8
170
     0
171
     2
172
     1
173
     1
174
     0
175
     0
176
   256
177
   256
178
     2
  0
ENDTAB
  0
ENDSEC
  0
SECTION
  2
BLOCKS
  0
BLOCK
  8
0
  2
$MODEL_SPACE
 70
     0
 10
0.0
 20
0.0
 30
0.0
  3
$MODEL_SPACE
  1

  0
ENDBLK
  5
21
  8
0
  0
BLOCK
 67
     1
  8
0
  2
$PAPER_SPACE
 70
     0
 10
0.0
 20
0.0
 30
0.0
  3
$PAPER_SPACE
  1

  0
ENDBLK
  5
1D
 67
     1
  8
0
  0
BLOCK
  8
0
  2
GENAXEH
 70
     0
 10
0.0
 20
0.0
 30
0.0
  3
GENAXEH
  1

  0
LINE
  5
15B
  8
0
 10
-1.0
 20
0.0
 30
0.0
 11
1.0
 21
0.0
 31
0.0
  0
ENDBLK
  5
15D
  8
0
  0
BLOCK
  8
0
  2
*U3
 70
     1
 10
0.0
 20
0.0
 30
0.0
  3
*U3
  1

  0
TEXT
  5
44D
  8
0
 62
     2
 10
97.894901476019882
 20
115.2811249150252
 30
0.0
 40
3.5
  1
pm-k65
  0
ENDBLK
  5
44F
  8
0
  0
ENDSEC
  0
SECTION
  2
ENTITIES
  0
LINE
  5
44
  8
0
  6
CONTINUOUS
 62
     7
 10
78.219207638211273
 20
131.27512052743339
 30
0.0
 11
84.519207638211256
 21
131.27512052743339
 31
0.0
  0
LINE
  5
45
  8
0
  6
CONTINUOUS
 62
     7
 10
78.219207638211273
 20
131.27512052743339
 30
0.0
 11
78.219207638211273
 21
138.67512052743339
 31
0.0
  0
LINE
  5
46
  8
0
  6
CONTINUOUS
 62
     7
 10
78.219207638211273
 20
138.67512052743339
 30
0.0
 11
84.519207638211256
 21
138.67512052743339
 31
0.0
  0
LINE
  5
47
  8
0
  6
CONTINUOUS
 62
     7
 10
84.519207638211256
 20
131.27512052743339
 30
0.0
 11
84.519207638211256
 21
138.67512052743339
 31
0.0
  0
LINE
  5
48
  8
0
  6
CONTINUOUS
 62
     7
 10
79.51920763821127
 20
133.37512052743341
 30
0.0
 11
82.885268194175936
 21
133.37512052743341
 31
0.0
  0
ARC
  5
49
  8
0
  6
CONTINUOUS
 62
     7
 10
79.219207638211273
 20
134.97512052743349
 30
0.0
 40
4.0
 50
336.42182152179862
 51
23.57817847820181
  0
LINE
  5
4A
  8
0
  6
CONTINUOUS
 62
     7
 10
82.885268194175936
 20
136.57512052743351
 30
0.0
 11
79.51920763821127
 21
136.57512052743351
 31
0.0
  0
LINE
  5
4B
  8
0
  6
CONTINUOUS
 62
     7
 10
79.51920763821127
 20
136.57512052743351
 30
0.0
 11
79.51920763821127
 21
133.37512052743341
 31
0.0
  0
LINE
  5
4C
  8
0
  6
CONTINUOUS
 62
     7
 10
97.919207638211276
 20
131.27512052743339
 30
0.0
 11
104.2192076382112
 21
131.27512052743339
 31
0.0
  0
LINE
  5
4D
  8
0
  6
CONTINUOUS
 62
     7
 10
97.919207638211276
 20
138.67512052743339
 30
0.0
 11
104.2192076382112
 21
138.67512052743339
 31
0.0
  0
LINE
  5
4E
  8
0
  6
CONTINUOUS
 62
     7
 10
102.9192076382112
 20
133.37512052743349
 30
0.0
 11
102.9192076382112
 21
136.57512052743351
 31
0.0
  0
LINE
  5
4F
  8
0
  6
CONTINUOUS
 62
     7
 10
102.9192076382112
 20
136.57512052743351
 30
0.0
 11
99.553147082246596
 21
136.57512052743351
 31
0.0
  0
ARC
  5
50
  8
0
  6
CONTINUOUS
 62
     7
 10
103.2192076382113
 20
134.97512052743349
 30
0.0
 40
4.0000000000000133
 50
156.42182152179831
 51
203.57817847820289
  0
LINE
  5
51
  8
0
  6
CONTINUOUS
 62
     7
 10
99.553147082246596
 20
133.37512052743341
 30
0.0
 11
102.9192076382112
 21
133.37512052743349
 31
0.0
  0
LINE
  5
52
  8
0
  6
CONTINUOUS
 62
     7
 10
104.2192076382112
 20
131.27512052743339
 30
0.0
 11
104.2192076382112
 21
138.67512052743339
 31
0.0
  0
LINE
  5
53
  8
0
  6
CONTINUOUS
 62
     7
 10
97.919207638211276
 20
131.27512052743339
 30
0.0
 11
97.919207638211276
 21
138.67512052743339
 31
0.0
  0
LINE
  5
54
  8
0
  6
CONTINUOUS
 62
     7
 10
85.819207638211267
 20
128.37512052743349
 30
0.0
 11
88.469207638211273
 21
128.37512052743349
 31
0.0
  0
LINE
  5
55
  8
0
  6
CONTINUOUS
 62
     7
 10
85.819207638211267
 20
136.17512052743351
 30
0.0
 11
85.819207638211267
 21
128.37512052743349
 31
0.0
  0
LINE
  5
56
  8
0
  6
CONTINUOUS
 62
     7
 10
96.619207638211293
 20
136.17512052743351
 30
0.0
 11
85.819207638211267
 21
136.17512052743351
 31
0.0
  0
LINE
  5
57
  8
0
  6
CONTINUOUS
 62
     7
 10
96.619207638211293
 20
128.37512052743349
 30
0.0
 11
96.619207638211293
 21
136.17512052743351
 31
0.0
  0
LINE
  5
58
  8
0
  6
CONTINUOUS
 62
     7
 10
93.969207638211259
 20
128.37512052743349
 30
0.0
 11
96.619207638211293
 21
128.37512052743349
 31
0.0
  0
LINE
  5
59
  8
0
  6
CONTINUOUS
 62
     7
 10
93.969207638211259
 20
128.37512052743349
 30
0.0
 11
93.969207638211259
 21
134.57512052743351
 31
0.0
  0
LINE
  5
5A
  8
0
  6
CONTINUOUS
 62
     7
 10
93.969207638211259
 20
134.57512052743351
 30
0.0
 11
88.469207638211273
 21
134.57512052743351
 31
0.0
  0
LINE
  5
5B
  8
0
  6
CONTINUOUS
 62
     7
 10
88.469207638211273
 20
134.57512052743351
 30
0.0
 11
88.469207638211273
 21
128.37512052743349
 31
0.0
  0
LINE
  5
5C
  8
0
  6
CONTINUOUS
 62
     7
 10
97.119207638211279
 20
136.67512052743351
 30
0.0
 11
96.619207638211293
 21
136.17512052743351
 31
0.0
  0
LINE
  5
5D
  8
0
  6
CONTINUOUS
 62
     7
 10
97.119207638211279
 20
128.37512052743349
 30
0.0
 11
97.119207638211279
 21
136.67512052743351
 31
0.0
  0
LINE
  5
5E
  8
0
  6
CONTINUOUS
 62
     7
 10
97.119207638211279
 20
128.37512052743349
 30
0.0
 11
96.619207638211293
 21
128.37512052743349
 31
0.0
  0
LINE
  5
5F
  8
0
  6
CONTINUOUS
 62
     7
 10
97.119207638211279
 20
136.67512052743351
 30
0.0
 11
85.319207638211253
 21
136.67512052743351
 31
0.0
  0
LINE
  5
60
  8
0
  6
CONTINUOUS
 62
     7
 10
85.319207638211253
 20
136.67512052743351
 30
0.0
 11
85.819207638211267
 21
136.17512052743351
 31
0.0
  0
LINE
  5
61
  8
0
  6
CONTINUOUS
 62
     7
 10
85.319207638211253
 20
136.67512052743351
 30
0.0
 11
85.319207638211253
 21
128.37512052743349
 31
0.0
  0
LINE
  5
62
  8
0
  6
CONTINUOUS
 62
     7
 10
85.819207638211267
 20
128.37512052743349
 30
0.0
 11
85.319207638211253
 21
128.37512052743349
 31
0.0
  0
LINE
  5
63
  8
0
  6
CONTINUOUS
 62
     7
 10
94.219207638211273
 20
141.37512052743341
 30
0.0
 11
94.219207638211273
 21
150.77512052743339
 31
0.0
  0
LINE
  5
64
  8
0
  6
CONTINUOUS
 62
     7
 10
94.219207638211273
 20
150.77512052743339
 30
0.0
 11
97.919207638211276
 21
150.77512052743339
 31
0.0
  0
LINE
  5
65
  8
0
  6
CONTINUOUS
 62
     7
 10
97.919207638211276
 20
150.77512052743339
 30
0.0
 11
97.919207638211276
 21
138.67512052743339
 31
0.0
  0
LINE
  5
66
  8
0
  6
CONTINUOUS
 62
     7
 10
97.919207638211276
 20
131.27512052743339
 30
0.0
 11
97.919207638211276
 21
128.37512052743349
 31
0.0
  0
LINE
  5
67
  8
0
  6
CONTINUOUS
 62
     7
 10
84.519207638211256
 20
128.37512052743349
 30
0.0
 11
84.519207638211256
 21
131.27512052743339
 31
0.0
  0
LINE
  5
68
  8
0
  6
CONTINUOUS
 62
     7
 10
84.519207638211256
 20
138.67512052743339
 30
0.0
 11
84.519207638211256
 21
150.77512052743339
 31
0.0
  0
LINE
  5
69
  8
0
  6
CONTINUOUS
 62
     7
 10
84.519207638211256
 20
150.77512052743339
 30
0.0
 11
88.219207638211273
 21
150.77512052743339
 31
0.0
  0
LINE
  5
6A
  8
0
  6
CONTINUOUS
 62
     7
 10
88.219207638211273
 20
150.77512052743339
 30
0.0
 11
88.219207638211273
 21
141.37512052743341
 31
0.0
  0
LINE
  5
6B
  8
0
  6
CONTINUOUS
 62
     7
 10
88.219207638211273
 20
141.37512052743341
 30
0.0
 11
94.219207638211273
 21
141.37512052743341
 31
0.0
  0
LINE
  5
6C
  8
0
  6
CONTINUOUS
 62
     7
 10
97.919207638211276
 20
128.37512052743349
 30
0.0
 11
97.119207638211279
 21
128.37512052743349
 31
0.0
  0
LINE
  5
6D
  8
0
  6
CONTINUOUS
 62
     7
 10
85.319207638211253
 20
128.37512052743349
 30
0.0
 11
84.519207638211256
 21
128.37512052743349
 31
0.0
  0
LINE
  5
73
  8
0
  6
CONTINUOUS
 62
     7
 10
88.219207638211273
 20
142.37512052743341
 30
0.0
 11
94.219207638211273
 21
142.37512052743341
 31
0.0
  0
LINE
  5
74
  8
0
  6
CONTINUOUS
 62
     7
 10
92.019207638211256
 20
131.13512052743349
 30
0.0
 11
92.019207638211256
 21
132.97512052743349
 31
0.0
  0
LINE
  5
75
  8
0
  6
CONTINUOUS
 62
     7
 10
90.419207638211276
 20
131.13512052743349
 30
0.0
 11
92.019207638211256
 21
131.13512052743349
 31
0.0
  0
LINE
  5
76
  8
0
  6
CONTINUOUS
 62
     7
 10
92.019207638211256
 20
132.97512052743349
 30
0.0
 11
90.419207638211276
 21
132.97512052743349
 31
0.0
  0
LINE
  5
77
  8
0
  6
CONTINUOUS
 62
     7
 10
90.419207638211276
 20
132.97512052743349
 30
0.0
 11
90.419207638211276
 21
131.13512052743349
 31
0.0
  0
LINE
  5
79
  8
0
  6
CONTINUOUS
 62
     7
 10
93.969207638211259
 20
129.67512052743351
 30
0.0
 11
88.469207638211273
 21
129.67512052743351
 31
0.0
  0
LINE
  5
7A
  8
0
  6
CONTINUOUS
 62
     7
 10
88.469207638211273
 20
128.37512052743349
 30
0.0
 11
93.969207638211259
 21
128.37512052743349
 31
0.0
  0
LINE
  5
7B
  8
0
  6
CONTINUOUS
 62
     7
 10
84.519207638211256
 20
170.9354700458924
 30
0.0
 11
88.219207638211273
 21
170.9354700458924
 31
0.0
  0
LINE
  5
7C
  8
0
  6
CONTINUOUS
 62
     7
 10
84.519207638211256
 20
170.9354700458924
 30
0.0
 11
84.519207638211256
 21
176.9354700458924
 31
0.0
  0
LINE
  5
7D
  8
0
  6
CONTINUOUS
 62
     7
 10
84.519207638211256
 20
176.9354700458924
 30
0.0
 11
88.219207638211273
 21
176.9354700458924
 31
0.0
  0
LINE
  5
7E
  8
0
  6
CONTINUOUS
 62
     7
 10
88.219207638211273
 20
170.9354700458924
 30
0.0
 11
88.219207638211273
 21
176.9354700458924
 31
0.0
  0
LINE
  5
86
  8
0
  6
CONTINUOUS
 62
     7
 10
94.219207638211273
 20
170.9354700458924
 30
0.0
 11
97.919207638211276
 21
170.9354700458924
 31
0.0
  0
LINE
  5
87
  8
0
  6
CONTINUOUS
 62
     7
 10
94.219207638211273
 20
170.9354700458924
 30
0.0
 11
94.219207638211273
 21
176.9354700458924
 31
0.0
  0
LINE
  5
88
  8
0
  6
CONTINUOUS
 62
     7
 10
97.919207638211276
 20
170.9354700458924
 30
0.0
 11
97.919207638211276
 21
176.9354700458924
 31
0.0
  0
LINE
  5
90
  8
0
  6
CONTINUOUS
 62
     7
 10
94.219207638211273
 20
176.9354700458924
 30
0.0
 11
97.919207638211276
 21
176.9354700458924
 31
0.0
  0
LINE
  5
92
  8
0
  6
CONTINUOUS
 62
     7
 10
94.219207638211273
 20
176.13547004589239
 30
0.0
 11
88.219207638211273
 21
176.13547004589239
 31
0.0
  0
LINE
  5
93
  8
0
  6
CONTINUOUS
 62
     7
 10
88.219207638211273
 20
171.73547004589241
 30
0.0
 11
94.219207638211273
 21
171.73547004589241
 31
0.0
  0
LINE
  5
95
  8
0
  6
CONTINUOUS
 62
     7
 10
94.219207638211273
 20
176.9354700458924
 30
0.0
 11
88.219207638211273
 21
176.9354700458924
 31
0.0
  0
LINE
  5
96
  8
0
  6
CONTINUOUS
 62
     7
 10
88.219207638211273
 20
170.9354700458924
 30
0.0
 11
94.219207638211273
 21
170.9354700458924
 31
0.0
  0
LINE
  5
97
  8
0
  6
CONTINUOUS
 62
     7
 10
78.219207638211273
 20
170.4354700458924
 30
0.0
 11
84.519207638211256
 21
170.4354700458924
 31
0.0
  0
LINE
  5
98
  8
0
  6
CONTINUOUS
 62
     7
 10
78.219207638211273
 20
170.4354700458924
 30
0.0
 11
78.219207638211273
 21
177.4354700458924
 31
0.0
  0
LINE
  5
99
  8
0
  6
CONTINUOUS
 62
     7
 10
84.519207638211256
 20
176.9354700458924
 30
0.0
 11
84.519207638211256
 21
177.4354700458924
 31
0.0
  0
LINE
  5
9A
  8
0
  6
CONTINUOUS
 62
     7
 10
84.519207638211256
 20
170.4354700458924
 30
0.0
 11
84.519207638211256
 21
170.9354700458924
 31
0.0
  0
CIRCLE
  5
9B
  8
0
  6
CONTINUOUS
 62
     7
 10
81.219207638211273
 20
173.9354700458924
 30
0.0
 40
1.5999999999999941
  0
LINE
  5
9C
  8
0
  6
CONTINUOUS
 62
     7
 10
78.219207638211273
 20
177.4354700458924
 30
0.0
 11
84.519207638211256
 21
177.4354700458924
 31
0.0
  0
LINE
  5
9D
  8
0
  6
CONTINUOUS
 62
     7
 10
97.919207638211276
 20
170.4354700458924
 30
0.0
 11
104.2192076382112
 21
170.4354700458924
 31
0.0
  0
LINE
  5
9E
  8
0
  6
CONTINUOUS
 62
     7
 10
97.919207638211276
 20
170.4354700458924
 30
0.0
 11
97.919207638211276
 21
170.9354700458924
 31
0.0
  0
LINE
  5
9F
  8
0
  6
CONTINUOUS
 62
     7
 10
104.2192076382112
 20
170.4354700458924
 30
0.0
 11
104.2192076382112
 21
177.4354700458924
 31
0.0
  0
CIRCLE
  5
A0
  8
0
  6
CONTINUOUS
 62
     7
 10
101.2192076382113
 20
173.9354700458924
 30
0.0
 40
1.6000000000000081
  0
LINE
  5
A1
  8
0
  6
CONTINUOUS
 62
     7
 10
97.919207638211276
 20
177.4354700458924
 30
0.0
 11
104.2192076382112
 21
177.4354700458924
 31
0.0
  0
LINE
  5
A2
  8
0
  6
CONTINUOUS
 62
     7
 10
97.919207638211276
 20
176.9354700458924
 30
0.0
 11
97.919207638211276
 21
177.4354700458924
 31
0.0
  0
LINE
  5
A3
  8
0
  6
CONTINUOUS
 62
     7
 10
96.619207638211293
 20
170.4354700458924
 30
0.0
 11
85.819207638211267
 21
170.4354700458924
 31
0.0
  0
LINE
  5
A4
  8
0
  6
CONTINUOUS
 62
     7
 10
85.319207638211253
 20
170.9354700458924
 30
0.0
 11
85.819207638211267
 21
170.4354700458924
 31
0.0
  0
LINE
  5
A5
  8
0
  6
CONTINUOUS
 62
     7
 10
97.119207638211279
 20
170.9354700458924
 30
0.0
 11
96.619207638211293
 21
170.4354700458924
 31
0.0
  0
LINE
  5
A6
  8
0
  6
CONTINUOUS
 62
     7
 10
133.09778719278589
 20
131.2751205274335
 30
0.0
 11
126.0977871927859
 21
131.2751205274335
 31
0.0
  0
LINE
  5
A7
  8
0
  6
CONTINUOUS
 62
     7
 10
133.09778719278589
 20
138.67512052743351
 30
0.0
 11
133.09778719278589
 21
131.2751205274335
 31
0.0
  0
LINE
  5
A8
  8
0
  6
CONTINUOUS
 62
     7
 10
126.0977871927859
 20
131.2751205274335
 30
0.0
 11
126.0977871927859
 21
138.67512052743351
 31
0.0
  0
LINE
  5
A9
  8
0
  6
CONTINUOUS
 62
     7
 10
126.0977871927859
 20
138.67512052743351
 30
0.0
 11
133.09778719278589
 21
138.67512052743351
 31
0.0
  0
LINE
  5
AA
  8
0
  6
CONTINUOUS
 62
     7
 10
126.5977871927859
 20
150.7751205274335
 30
0.0
 11
132.59778719278589
 21
150.7751205274335
 31
0.0
  0
LINE
  5
AB
  8
0
  6
CONTINUOUS
 62
     7
 10
132.59778719278589
 20
150.7751205274335
 30
0.0
 11
132.59778719278589
 21
138.67512052743351
 31
0.0
  0
LINE
  5
AC
  8
0
  6
CONTINUOUS
 62
     7
 10
126.5977871927859
 20
150.7751205274335
 30
0.0
 11
126.5977871927859
 21
138.67512052743351
 31
0.0
  0
LINE
  5
AD
  8
0
  6
CONTINUOUS
 62
     7
 10
126.5977871927859
 20
128.37512052743349
 30
0.0
 11
132.59778719278589
 21
128.37512052743349
 31
0.0
  0
LINE
  5
AE
  8
0
  6
CONTINUOUS
 62
     7
 10
126.5977871927859
 20
131.2751205274335
 30
0.0
 11
126.5977871927859
 21
128.37512052743349
 31
0.0
  0
LINE
  5
AF
  8
0
  6
CONTINUOUS
 62
     7
 10
132.59778719278589
 20
131.2751205274335
 30
0.0
 11
132.59778719278589
 21
128.37512052743349
 31
0.0
  0
LINE
  5
B0
  8
0
  6
CONTINUOUS
 62
     7
 10
126.0977871927859
 20
128.37512052743349
 30
0.0
 11
126.0977871927859
 21
131.2751205274335
 31
0.0
  0
LINE
  5
B1
  8
0
  6
CONTINUOUS
 62
     7
 10
126.5977871927859
 20
128.37512052743349
 30
0.0
 11
126.0977871927859
 21
128.37512052743349
 31
0.0
  0
INSERT
  5
182
  8
0
  2
*U3
 10
0.0
 20
0.0
 30
0.0
  0
LINE
  5
1B6
  8
0
 62
     2
 10
92.933421110787776
 20
173.9354700458924
 30
0.0
 11
91.849104823013377
 21
173.4875090914752
 31
0.0
  0
LINE
  5
1B7
  8
0
 62
     2
 10
92.933421110787776
 20
173.9354700458924
 30
0.0
 11
91.849104823013377
 21
174.41236168753559
 31
0.0
  0
LINE
  5
1B8
  8
0
 62
     2
 10
89.294158940322447
 20
173.9354700458924
 30
0.0
 11
92.933421110787776
 21
173.9354700458924
 31
0.0
  0
LINE
  5
1CF
  8
0
  6
AM_ISO08W050X2
 62
     4
 10
77.058366347473793
 20
173.9354700458924
 30
0.0
 11
88.718022197737113
 21
173.9354700458924
 31
0.0
  0
LINE
  5
1D2
  8
0
  6
AM_ISO08W050X2
 62
     4
 10
105.07751463675091
 20
173.9354700458924
 30
0.0
 11
93.652444670400655
 21
173.9354700458924
 31
0.0
  0
LINE
  5
1D4
  8
0
  6
AM_ISO08W050X2
 62
     4
 10
81.219207638211273
 20
176.11283100942421
 30
0.0
 11
81.219207638211273
 21
171.89059222688951
 31
0.0
  0
LINE
  5
1D6
  8
0
  6
AM_ISO08W050X2
 62
     4
 10
101.2192076382113
 20
176.11149017732731
 30
0.0
 11
101.2192076382113
 21
171.8214913141648
 31
0.0
  0
LINE
  5
1D8
  8
0
  6
AM_ISO08W050X2
 62
     4
 10
91.219207638211273
 20
178.04688276936949
 30
0.0
 11
91.219207638211273
 21
169.39610515129399
 31
0.0
  0
LINE
  5
205
  8
0
 62
     2
 10
92.933421110787776
 20
148.77512052743339
 30
0.0
 11
91.849104823013377
 21
148.3271595730163
 31
0.0
  0
LINE
  5
206
  8
0
 62
     2
 10
92.933421110787776
 20
148.77512052743339
 30
0.0
 11
91.849104823013377
 21
149.25201216907661
 31
0.0
  0
LINE
  5
207
  8
0
 62
     2
 10
89.294158940322447
 20
148.77512052743339
 30
0.0
 11
92.933421110787776
 21
148.77512052743339
 31
0.0
  0
LINE
  5
22E
  8
0
  6
AM_ISO08W050X2
 62
     4
 10
88.643103545214899
 20
148.77512052743339
 30
0.0
 11
83.796007394982325
 21
148.77512052743339
 31
0.0
  0
LINE
  5
230
  8
0
  6
AM_ISO08W050X2
 62
     4
 10
93.635682324887966
 20
148.77512052743339
 30
0.0
 11
98.934438977378477
 21
148.77512052743339
 31
0.0
  0
LINE
  5
232
  8
0
  6
AM_ISO08W050X2
 62
     4
 10
91.219207638211273
 20
151.67421737771869
 30
0.0
 11
91.219207638211273
 21
127.0028583903357
 31
0.0
  0
LINE
  5
234
  8
0
  6
AM_ISO08W050X2
 62
     4
 10
78.660304943796746
 20
134.97512052743349
 30
0.0
 11
83.965733155658427
 21
134.97512052743349
 31
0.0
  0
LINE
  5
237
  8
0
  6
AM_ISO08W050X2
 62
     4
 10
103.3974583492415
 20
134.97512052743349
 30
0.0
 11
98.562415043498277
 21
134.97512052743349
 31
0.0
  0
LINE
  5
243
  8
0
  6
AM_ISO08W050X2
 62
     4
 10
81.219207638211273
 20
137.6709687238754
 30
0.0
 11
81.219207638211273
 21
132.2328794388871
 31
0.0
  0
LINE
  5
244
  8
0
  6
AM_ISO08W050X2
 62
     4
 10
101.2192076382113
 20
137.6709687238754
 30
0.0
 11
101.2192076382113
 21
132.2328794388871
 31
0.0
  0
LINE
  5
245
  8
0
  6
AM_ISO08W050X2
 62
     4
 10
129.59778719278589
 20
151.85960349264519
 30
0.0
 11
129.59778719278589
 21
127.303187492353
 31
0.0
  0
LINE
  5
33F
  8
0
  6
AM_ISO08W050X2
 62
     4
 10
125.5839328003816
 20
148.77512052743339
 30
0.0
 11
133.61361359909279
 21
148.77512052743339
 31
0.0
  0
ENDSEC
  0
EOF
