  0
SECTION
  2
HEADER
  9
$ACADVER
  1
AC1009
  9
$INSBASE
 10
0
 20
0
  9
$EXTMIN
 10
58.31424740089783
 20
14.37108212773057
  9
$EXTMAX
 10
236.3142474008978
 20
262.6710821277304
  9
$LIMMIN
 10
58.31424740089783
 20
14.37108212773057
  9
$LIMMAX
 10
236.3142474008978
 20
262.6710821277304
  9
$VIEWCTR
 10
10
 20
10
  9
$VIEWSIZE
 40
10
  9
$SNAPMODE
 70
0
  9
$SNAPUNIT
 10
1
 20
1
  9
$SNAPBASE
 10
0
 20
0
  9
$SNAPANG
 50
0
  9
$SNAPSTYLE
 70
0
  9
$SNAPISOPAIR
 70
0
  9
$GRIDMODE
 70
0
  9
$GRIDUNIT
 10
0
 20
0
  9
$ORTHOMODE
 70
0
  9
$REGENMODE
 70
1
  9
$FILLMODE
 70
1
  9
$QTEXTMODE
 70
0
  9
$DRAGMODE
 70
2
  9
$LTSCALE
 40
1
  9
$OSMODE
 70
0
  9
$ATTMODE
 70
1
  9
$TEXTSIZE
 40
3.5
  9
$TRACEWID
 40
0.5
  9
$TEXTSTYLE
  7
STANDARD
  9
$CLAYER
  8
0
  9
$CELTYPE
  6
BYLAYER
  9
$CECOLOR
 62
256
  9
$DIMSCALE
 40
1
  9
$DIMASZ
 40
0.18
  9
$DIMEXO
 40
0.0625
  9
$DIMDLI
 40
0.38
  9
$DIMRND
 40
0
  9
$DIMDLE
 40
0
  9
$DIMEXE
 40
0.18
  9
$DIMTP
 40
0
  9
$DIMTM
 40
0
  9
$DIMTXT
 40
0.18
  9
$DIMCEN
 40
0.09
  9
$DIMTSZ
 40
0
  9
$DIMTOL
 70
0
  9
$DIMLIM
 70
0
  9
$DIMTIH
 70
1
  9
$DIMTOH
 70
1
  9
$DIMSE1
 70
0
  9
$DIMSE2
 70
0
  9
$DIMTAD
 70
0
  9
$DIMZIN
 70
0
  9
$DIMBLK
  1

  9
$DIMASO
 70
1
  9
$DIMSHO
 70
1
  9
$DIMPOST
  1

  9
$DIMAPOST
  1

  9
$DIMALT
 70
0
  9
$DIMALTD
 70
2
  9
$DIMALTF
 40
25.4
  9
$DIMLFAC
 40
1
  9
$DIMTOFL
 70
0
  9
$DIMTVP
 40
0
  9
$DIMTIX
 70
0
  9
$DIMSOXD
 70
0
  9
$DIMSAH
 70
0
  9
$DIMBLK1
  1

  9
$DIMBLK2
  1

  9
$DIMSTYLE
  2
*UNNAMED
  9
$DIMCLRD
 70
0
  9
$DIMCLRE
 70
0
  9
$DIMCLRT
 70
0
  9
$DIMTFAC
 40
1
  9
$DIMGAP
 40
0.09
  9
$LUNITS
 70
2
  9
$LUPREC
 70
4
  9
$AXISMODE
 70
0
  9
$AXISUNIT
 10
0
 20
0
  9
$SKETCHINC
 40
0.1
  9
$FILLETRAD
 40
2
  9
$AUNITS
 70
0
  9
$AUPREC
 70
0
  9
$MENU
  1
ACAD
  9
$ELEVATION
 40
0
  9
$THICKNESS
 40
0
  9
$VIEWDIR
 10
0
 20
0
 30
1
  9
$LIMCHECK
 70
0
  9
$BLIPMODE
 70
1
  9
$CHAMFERA
 40
0
  9
$CHAMFERB
 40
0
  9
$FASTZOOM
 70
1
  9
$SKPOLY
 70
0
  9
$ANGBASE
 50
0
  9
$ANGDIR
 70
0
  9
$PDMODE
 70
0
  9
$PDSIZE
 40
0
  9
$PLINEWID
 40
0
  9
$COORDS
 70
2
  0
ENDSEC
  0
SECTION
  2
TABLES
  0
TABLE
  2
DIMSTYLE
 70
0
  0
ENDTAB
  0
TABLE
  2
LTYPE
 70
9
  0
LTYPE
  2
CONTINUOUS
 70
64
  3
Solid line
 72
65
 73
0
 40
0
  0
LTYPE
  2
BORDER
 70
64
  3
__ __ . __ __ .
 72
65
 73
6
 40
11.43486842105262
 49
3.267105263157893
 49
-1.633552631578946
 49
3.267105263157893
 49
-1.633552631578946
 49
0
 49
-1.633552631578946
  0
LTYPE
  2
CENTER
 70
64
  3
____ _ ____ _
 72
65
 73
4
 40
13.06842105263157
 49
8.167763157894733
 49
-1.633552631578946
 49
1.633552631578946
 49
-1.633552631578946
  0
LTYPE
  2
DASHDOT
 70
64
  3
__ . __ . __ .
 72
65
 73
4
 40
6.534210526315786
 49
3.267105263157893
 49
-1.633552631578946
 49
0
 49
-1.633552631578946
  0
LTYPE
  2
DASHED
 70
64
  3
__ __ __ __ __
 72
65
 73
2
 40
4.900657894736839
 49
3.267105263157893
 49
-1.633552631578946
  0
LTYPE
  2
DIVIDE
 70
64
  3
__ . . __ . . 
 72
65
 73
6
 40
8.167763157894733
 49
3.267105263157893
 49
-1.633552631578946
 49
0
 49
-1.633552631578946
 49
0
 49
-1.633552631578946
  0
LTYPE
  2
DOT
 70
64
  3
..............
 72
65
 73
4
 40
3.267105263157893
 49
0
 49
-1.633552631578946
 49
0
 49
-1.633552631578946
  0
LTYPE
  2
HIDDEN
 70
64
  3
_ _ _ _ _ _ _
 72
65
 73
2
 40
2.45032894736842
 49
1.633552631578946
 49
-0.8167763157894732
  0
LTYPE
  2
PHANTOM
 70
64
  3
_____ _ _ _____ _ _ 
 72
65
 73
6
 40
16.33552631578947
 49
8.167763157894733
 49
-1.633552631578946
 49
1.633552631578946
 49
-1.633552631578946
 49
1.633552631578946
 49
-1.633552631578946
  0
ENDTAB
  0
TABLE
  2
LAYER
 70
3
  0
LAYER
  2
1
 70
0
 62
7
  6
CONTINUOUS
  0
LAYER
  2
0
 70
0
 62
7
  6
CONTINUOUS
  0
ENDTAB
  0
TABLE
  2
STYLE
 70
4
  0
STYLE
  2
STANDARD
 70
0
 40
0
 41
1
 50
0
 71
0
 42
3.5
  3
txt
  4

  0
STYLE
  2
SIMPLEX
 70
0
 40
0
 41
1
 50
0
 71
0
 42
3.5
  3
simplex
  4

  0
STYLE
  2
COMPLEX
 70
0
 40
0
 41
1
 50
0
 71
0
 42
3.5
  3
complex
  4

  0
STYLE
  2
ITALIC
 70
0
 40
0
 41
1
 50
0
 71
0
 42
3.5
  3
italic
  4

  0
ENDTAB
  0
TABLE
  2
VIEW
 70
0
  0
ENDTAB
  0
ENDSEC
  0
SECTION
  2
BLOCKS
  0
ENDSEC
  0
SECTION
  2
ENTITIES
  0
LINE
  8
1
 62
7
 10
176.3142474008978
 20
24.37108212773057
 30
0
 11
176.3142474008978
 21
14.37108212773059
 31
0
  0
LINE
  8
1
 62
7
 10
146.3142474008978
 20
44.37108212773057
 30
0
 11
146.3142474008978
 21
14.37108212773059
 31
0
  0
LINE
  8
1
 62
7
 10
146.3142474008978
 20
24.37108212773057
 30
0
 11
236.3142474008978
 21
24.37108212773057
 31
0
  0
LINE
  8
1
 62
7
 10
146.3142474008978
 20
34.37108212773057
 30
0
 11
236.3142474008978
 21
34.37108212773057
 31
0
  0
LINE
  8
1
 62
7
 10
146.3142474008978
 20
44.37108212773057
 30
0
 11
236.3142474008978
 21
44.37108212773057
 31
0
  0
LINE
  8
1
 62
7
 10
58.31424740089783
 20
14.37108212773057
 30
0
 11
58.31424740089783
 21
262.6710821277304
 31
0
  0
LINE
  8
1
 62
7
 10
236.3142474008978
 20
14.37108212773057
 30
0
 11
58.31424740089783
 21
14.37108212773057
 31
0
  0
LINE
  8
1
 62
7
 10
236.3142474008978
 20
262.6710821277304
 30
0
 11
236.3142474008978
 21
14.37108212773057
 31
0
  0
LINE
  8
1
 62
7
 10
58.31424740089783
 20
262.6710821277304
 30
0
 11
236.3142474008978
 21
262.6710821277304
 31
0
  0
LINE
  8
1
 62
7
 10
107.0513815036361
 20
103.7424242064389
 30
0
 11
107.5586316454931
 21
109.2424242064389
 31
0
  0
LINE
  8
1
 62
7
 10
107.5586316454931
 20
136.2424242064389
 30
0
 11
107.0513815036361
 21
141.7424242064389
 31
0
  0
LINE
  8
1
 62
7
 10
105.9586316454931
 20
86.74242420643893
 30
0
 11
105.9586316454931
 21
103.7424242064389
 31
0
  0
LINE
  8
1
 62
7
 10
101.0586316454931
 20
141.7424242064389
 30
0
 11
107.0513815036361
 21
141.7424242064389
 31
0
  0
LINE
  8
1
 62
7
 10
102.8086316454932
 20
141.7424242064389
 30
0
 11
102.8086316454932
 21
151.7424242064389
 31
0
  0
LINE
  8
1
 62
7
 10
105.3086316454932
 20
141.7424242064389
 30
0
 11
105.3086316454932
 21
151.7424242064389
 31
0
  0
LINE
  8
1
 62
7
 10
102.158631645493
 20
103.7424242064389
 30
0
 11
102.158631645493
 21
86.74242420643893
 31
0
  0
LINE
  8
1
 62
7
 10
100.5586316454932
 20
109.2424242064389
 30
0
 11
100.5586316454932
 21
136.2424242064389
 31
0
  0
LINE
  8
1
 62
7
 10
101.0586316454931
 20
103.7424242064389
 30
0
 11
100.5586316454932
 21
109.2424242064389
 31
0
  0
LINE
  8
1
 62
7
 10
100.5586316454932
 20
136.2424242064389
 30
0
 11
101.0586316454931
 21
141.7424242064389
 31
0
  0
LINE
  8
1
 62
7
 10
108.5586316454931
 20
128.8424242064388
 30
0
 11
108.5586316454931
 21
124.2424242064388
 31
0
  0
LINE
  8
1
 62
7
 10
144.4746913968613
 20
103.7424242064389
 30
0
 11
143.4746913968613
 21
109.2424242064389
 31
0
  0
LINE
  8
1
 62
7
 10
150.4746913968615
 20
103.7424242064389
 30
0
 11
144.4746913968613
 21
103.7424242064389
 31
0
  0
LINE
  8
1
 62
7
 10
146.9746913968615
 20
141.7424242064389
 30
0
 11
146.9746913968615
 21
151.742424206439
 31
0
  0
LINE
  8
1
 62
7
 10
150.4746913968615
 20
141.7424242064389
 30
0
 11
150.4746913968615
 21
151.742424206439
 31
0
  0
LINE
  8
1
 62
7
 10
143.7246913968615
 20
141.7424242064389
 30
0
 11
151.2246913968615
 21
141.7424242064389
 31
0
  0
LINE
  8
1
 62
7
 10
143.4746913968613
 20
109.2424242064389
 30
0
 11
143.4746913968613
 21
136.2424242064389
 31
0
  0
LINE
  8
1
 62
7
 10
151.2246913968615
 20
141.7424242064389
 30
0
 11
151.4746913968613
 21
136.2424242064389
 31
0
  0
LINE
  8
1
 62
7
 10
143.4746913968613
 20
136.2424242064389
 30
0
 11
143.7246913968615
 21
141.7424242064389
 31
0
  0
LINE
  8
1
 62
7
 10
144.4746913968615
 20
151.7424242064389
 30
0
 11
144.4746913968615
 21
141.7424242064389
 31
0
  0
LINE
  8
1
 62
7
 10
147.9746913968615
 20
151.7424242064389
 30
0
 11
147.9746913968615
 21
141.7424242064389
 31
0
  0
LINE
  8
1
 62
7
 10
145.5746913968614
 20
103.7424242064389
 30
0
 11
145.5746913968614
 21
88.24242420643893
 31
0
  0
LINE
  8
1
 62
7
 10
149.3746913968617
 20
103.7424242064389
 30
0
 11
149.3746913968617
 21
88.24242420643893
 31
0
  0
LINE
  8
1
 62
7
 10
151.4746913968613
 20
109.2424242064389
 30
0
 11
150.4746913968615
 21
103.7424242064389
 31
0
  0
LINE
  8
1
 62
7
 10
151.4746913968613
 20
136.2424242064389
 30
0
 11
151.4746913968613
 21
109.2424242064389
 31
0
  0
LINE
  8
1
 62
7
 10
107.5586316454931
 20
128.8424242064388
 30
0
 11
108.5586316454931
 21
128.8424242064388
 31
0
  0
LINE
  8
1
 62
7
 10
107.5586316454931
 20
124.2424242064388
 30
0
 11
108.5586316454931
 21
124.2424242064388
 31
0
  0
LINE
  8
1
 62
7
 10
107.5586316454931
 20
136.2424242064389
 30
0
 11
107.5586316454931
 21
109.2424242064389
 31
0
  0
LINE
  8
1
 62
7
 10
107.0513815036361
 20
103.7424242064389
 30
0
 11
101.0586316454931
 21
103.7424242064389
 31
0
  0
LINE
  8
1
 62
7
 10
144.4746913968613
 20
63.64475933385233
 30
0
 11
150.4746913968615
 21
63.64475933385233
 31
0
  0
LINE
  8
1
 62
7
 10
150.4746913968615
 20
63.64475933385233
 30
0
 11
150.4746913968615
 21
57.65200947570929
 31
0
  0
LINE
  8
1
 62
7
 10
150.4746913968615
 20
57.65200947570929
 30
0
 11
144.4746913968613
 21
57.65200947570929
 31
0
  0
LINE
  8
1
 62
7
 10
144.4746913968613
 20
57.65200947570929
 30
0
 11
144.4746913968613
 21
63.64475933385233
 31
0
  0
LINE
  8
1
 62
7
 10
143.4746913968613
 20
64.15200947570929
 30
0
 11
151.4746913968613
 21
64.15200947570929
 31
0
  0
LINE
  8
1
 62
7
 10
151.4746913968613
 20
64.15200947570929
 30
0
 11
151.4746913968613
 21
57.15200947570941
 31
0
  0
LINE
  8
1
 62
7
 10
151.4746913968613
 20
57.15200947570941
 30
0
 11
143.4746913968613
 21
57.15200947570941
 31
0
  0
LINE
  8
1
 62
7
 10
143.4746913968613
 20
57.15200947570941
 30
0
 11
143.4746913968613
 21
64.15200947570929
 31
0
  0
LINE
  8
1
 62
7
 10
145.1746913968614
 20
64.15200947570929
 30
0
 11
145.1746913968614
 21
65.15200947570929
 31
0
  0
LINE
  8
1
 62
7
 10
145.1746913968614
 20
65.15200947570929
 30
0
 11
149.7746913968615
 21
65.15200947570929
 31
0
  0
LINE
  8
1
 62
7
 10
149.7746913968615
 20
65.15200947570929
 30
0
 11
149.7746913968615
 21
64.15200947570929
 31
0
  0
LINE
  8
1
 62
7
 10
128.9935126062361
 20
186.0935550582803
 30
0
 11
124.4935126062367
 21
186.0935550582803
 31
0
  0
LINE
  8
1
 62
7
 10
127.9935126062361
 20
186.0935550582803
 30
0
 11
127.9935126062361
 21
176.095269262667
 31
0
  0
LINE
  8
1
 62
7
 10
128.9935126062361
 20
186.0935550582803
 30
0
 11
128.9935126062361
 21
205.0935550582803
 31
0
  0
LINE
  8
1
 62
7
 10
128.9935126062361
 20
205.0935550582803
 30
0
 11
124.4935126062362
 21
205.0935550582803
 31
0
  0
LINE
  8
1
 62
7
 10
94.49351260623669
 20
190.5935550582802
 30
0
 11
93.28774124029658
 21
186.0935550582802
 31
0
  0
LINE
  8
1
 62
7
 10
88.69928397217663
 20
186.0935550582802
 30
0
 11
93.28774124029658
 21
186.0935550582802
 31
0
  0
LINE
  8
1
 62
7
 10
87.49351260623664
 20
190.5935550582802
 30
0
 11
88.69928397217663
 21
186.0935550582802
 31
0
  0
LINE
  8
1
 62
7
 10
92.24351260623658
 20
186.0935550582802
 30
0
 11
92.24351260623698
 21
176.095269262667
 31
0
  0
LINE
  8
1
 62
7
 10
89.74351260623658
 20
186.0935550582802
 30
0
 11
89.74351260623698
 21
176.095269262667
 31
0
  0
LINE
  8
1
 62
7
 10
94.49351260623669
 20
190.5935550582802
 30
0
 11
94.49351260623669
 21
205.0935550582803
 31
0
  0
LINE
  8
1
 62
7
 10
94.49351260623669
 20
190.5935550582802
 30
0
 11
84.49351260623664
 21
190.5935550582804
 31
0
  0
LINE
  8
1
 62
7
 10
94.49351260623669
 20
205.0935550582803
 30
0
 11
84.49351260623664
 21
205.0935550582803
 31
0
  0
LINE
  8
1
 62
7
 10
84.49351260623664
 20
190.5935550582804
 30
0
 11
84.49351260623664
 21
205.0935550582803
 31
0
  0
LINE
  8
1
 62
7
 10
124.4935126062362
 20
190.5935550582801
 30
0
 11
128.9935126062361
 21
190.5935550582803
 31
0
  0
LINE
  8
1
 62
7
 10
124.4935126062367
 20
186.0935550582803
 30
0
 11
124.4935126062362
 21
205.0935550582803
 31
0
  0
LINE
  8
1
 62
7
 10
125.4935126062361
 20
186.0935550582803
 30
0
 11
125.4935126062361
 21
176.095269262667
 31
0
  0
LINE
  8
1
 62
7
 10
207.9558701874863
 20
225.0935550582803
 30
0
 11
197.9558701874863
 21
225.0935550582803
 31
0
  0
LINE
  8
1
 62
7
 10
204.405870187487
 20
229.5935550582803
 30
0
 11
204.405870187487
 21
225.0935550582803
 31
0
  0
LINE
  8
1
 62
7
 10
167.9558701874869
 20
206.5935550582803
 30
0
 11
167.9558701874865
 21
186.0935550582803
 31
0
  0
LINE
  8
1
 62
7
 10
164.455870187487
 20
176.095269262667
 30
0
 11
164.4558701874871
 21
186.0935550582803
 31
0
  0
LINE
  8
1
 62
7
 10
163.455870187487
 20
206.5935550582803
 30
0
 11
163.455870187487
 21
186.0935550582803
 31
0
  0
LINE
  8
1
 62
7
 10
167.9558701874865
 20
186.0935550582803
 30
0
 11
163.455870187487
 21
186.0935550582803
 31
0
  0
LINE
  8
1
 62
7
 10
167.9558701874869
 20
206.5935550582803
 30
0
 11
163.455870187487
 21
206.5935550582803
 31
0
  0
LINE
  8
1
 62
7
 10
166.955870187487
 20
176.095269262667
 30
0
 11
166.955870187487
 21
186.0935550582803
 31
0
  0
LINE
  8
1
 62
7
 10
199.1611822337451
 20
186.095269262667
 30
0
 11
203.7505581412272
 21
186.095269262667
 31
0
  0
LINE
  8
1
 62
7
 10
197.955870187487
 20
206.5935550582797
 30
0
 11
204.405870187487
 21
206.5935550582803
 31
0
  0
LINE
  8
1
 62
7
 10
204.405870187487
 20
205.0935550582803
 30
0
 11
204.405870187487
 21
206.5935550582803
 31
0
  0
LINE
  8
1
 62
7
 10
207.9558701874863
 20
190.5935550582803
 30
0
 11
204.9558701874863
 21
190.5935550582803
 31
0
  0
LINE
  8
1
 62
7
 10
207.9558701874863
 20
205.0935550582803
 30
0
 11
207.9558701874863
 21
190.5935550582803
 31
0
  0
LINE
  8
1
 62
7
 10
207.9558701874863
 20
205.0935550582803
 30
0
 11
204.405870187487
 21
205.0935550582803
 31
0
  0
LINE
  8
1
 62
7
 10
197.9558701874863
 20
190.5935550582801
 30
0
 11
197.955870187487
 21
206.5935550582797
 31
0
  0
LINE
  8
1
 62
7
 10
197.9558701874863
 20
190.5935550582801
 30
0
 11
199.1611822337451
 21
186.095269262667
 31
0
  0
LINE
  8
1
 62
7
 10
200.2058701874862
 20
186.095269262667
 30
0
 11
200.2058701874862
 21
176.095269262667
 31
0
  0
LINE
  8
1
 62
7
 10
202.7058701874863
 20
186.095269262667
 30
0
 11
202.7058701874864
 21
176.095269262667
 31
0
  0
LINE
  8
1
 62
7
 10
203.7505581412272
 20
186.095269262667
 30
0
 11
204.9558701874863
 21
190.5935550582803
 31
0
  0
LINE
  8
1
 62
7
 10
163.455870187487
 20
190.5935550582803
 30
0
 11
167.9558701874867
 21
190.5935550582803
 31
0
  0
LINE
  8
1
 62
7
 10
207.9558701874863
 20
229.5935550582803
 30
0
 11
207.9558701874863
 21
225.0935550582803
 31
0
  0
LINE
  8
1
 62
2
  6
CENTER
 10
206.2058701874863
 20
230.0935550582803
 30
0
 11
206.2058701874863
 21
224.5960625228369
 31
0
  0
LINE
  8
1
 62
7
 10
197.9558701874863
 20
225.0935550582803
 30
0
 11
197.9558701874863
 21
229.5935550582803
 31
0
  0
LINE
  8
1
 62
7
 10
197.9558701874863
 20
229.5935550582803
 30
0
 11
207.9558701874863
 21
229.5935550582803
 31
0
  0
LINE
  8
1
 62
2
  6
CENTER
 10
84.92351260624164
 20
203.3435550582803
 30
0
 11
87.56351260623168
 21
203.3435550582803
 31
0
  0
LINE
  8
1
 62
2
  6
CENTER
 10
86.24351260623664
 20
202.0235550582853
 30
0
 11
86.24351260623664
 21
204.6635550582754
 31
0
  0
LINE
  8
1
 62
2
  6
CENTER
 10
84.92351260623477
 20
192.3435550582802
 30
0
 11
87.5635126062385
 21
192.3435550582802
 31
0
  0
LINE
  8
1
 62
2
  6
CENTER
 10
86.24351260623664
 20
191.0235550582783
 30
0
 11
86.24351260623664
 21
193.6635550582821
 31
0
  0
LINE
  8
1
 62
2
  6
CENTER
 10
204.8858701874913
 20
203.3435550582803
 30
0
 11
207.5258701874814
 21
203.3435550582803
 31
0
  0
LINE
  8
1
 62
2
  6
CENTER
 10
206.2058701874863
 20
202.0235550582853
 30
0
 11
206.2058701874863
 21
204.6635550582754
 31
0
  0
LINE
  8
1
 62
2
  6
CENTER
 10
204.8858701874846
 20
192.3455925253745
 30
0
 11
207.5258701874881
 21
192.3455925253745
 31
0
  0
LINE
  8
1
 62
2
  6
CENTER
 10
206.2058701874863
 20
191.0255925253727
 30
0
 11
206.2058701874863
 21
193.6655925253763
 31
0
  0
LINE
  8
1
 62
2
  6
DASHED
 10
125.5435126062362
 20
199.3435550582803
 30
0
 11
127.9435126062361
 21
199.3435550582803
 31
0
  0
LINE
  8
1
 62
2
  6
DASHED
 10
126.7435126062361
 20
198.1435550582804
 30
0
 11
126.7435126062361
 21
200.5435550582803
 31
0
  0
LINE
  8
1
 62
2
  6
DASHED
 10
164.5058701874871
 20
199.3435550582803
 30
0
 11
166.905870187487
 21
199.3435550582803
 31
0
  0
LINE
  8
1
 62
2
  6
DASHED
 10
165.705870187487
 20
198.1435550582804
 30
0
 11
165.705870187487
 21
200.5435550582803
 31
0
  0
LINE
  8
1
 62
7
 10
94.49351260623675
 20
229.5935550582803
 30
0
 11
84.49351260623675
 21
229.5935550582803
 31
0
  0
LINE
  8
1
 62
7
 10
84.49351260623675
 20
225.0935550582803
 30
0
 11
84.49351260623675
 21
229.5935550582803
 31
0
  0
LINE
  8
1
 62
7
 10
84.49351260623675
 20
225.0935550582803
 30
0
 11
94.49351260623669
 21
225.0935550582803
 31
0
  0
LINE
  8
1
 62
2
  6
CENTER
 10
86.24351260623675
 20
224.5960625228369
 30
0
 11
86.24351260623675
 21
230.0935550582803
 31
0
  0
LINE
  8
1
 62
7
 10
94.49351260623675
 20
229.5935550582803
 30
0
 11
94.49351260623669
 21
225.0935550582803
 31
0
  0
LINE
  8
1
 62
2
  6
CENTER
 10
162.955870187487
 20
203.3435550582803
 30
0
 11
168.4558701874869
 21
203.3435550582803
 31
0
  0
LINE
  8
1
 62
2
  6
CENTER
 10
168.4558701874867
 20
192.3435550582802
 30
0
 11
162.955870187487
 21
192.3435550582802
 31
0
  0
LINE
  8
1
 62
2
  6
CENTER
 10
129.4935126062361
 20
192.3435550582802
 30
0
 11
123.9935126062365
 21
192.3435550582802
 31
0
  0
LINE
  8
1
 62
2
  6
CENTER
 10
123.9935126062362
 20
203.3435550582803
 30
0
 11
129.4935126062361
 21
203.3435550582803
 31
0
  0
LINE
  8
1
 62
7
 10
151.4746913968613
 20
136.2424242064389
 30
0
 11
143.4746913968613
 21
136.2424242064389
 31
0
  0
LINE
  8
1
 62
7
 10
151.4746913968613
 20
109.2424242064389
 30
0
 11
143.4746913968613
 21
109.2424242064389
 31
0
  0
LINE
  8
1
 62
7
 10
107.5586316454931
 20
109.2424242064389
 30
0
 11
100.5586316454932
 21
109.2424242064389
 31
0
  0
LINE
  8
1
 62
7
 10
107.5586316454931
 20
136.2424242064389
 30
0
 11
100.5586316454932
 21
136.2424242064389
 31
0
  0
LINE
  8
1
 62
7
 10
150.4746913968615
 20
63.64475933385233
 30
0
 11
151.4746913968613
 21
64.15200947570929
 31
0
  0
LINE
  8
1
 62
7
 10
150.4746913968615
 20
57.65200947570929
 30
0
 11
151.4746913968613
 21
57.15200947570941
 31
0
  0
LINE
  8
1
 62
7
 10
144.4746913968613
 20
57.65200947570929
 30
0
 11
143.4746913968613
 21
57.15200947570941
 31
0
  0
LINE
  8
1
 62
7
 10
144.4746913968613
 20
63.64475933385233
 30
0
 11
143.4746913968613
 21
64.15200947570929
 31
0
  0
ARC
  8
1
 62
2
 10
103.4336316454932
 20
151.2736742064389
 30
0
 40
0.78125
 50
36.86989764584402
 51
143.130102354156
  0
ARC
  8
1
 62
2
 10
103.4336316454932
 20
152.2111742064389
 30
0
 40
0.78125
 50
216.869897645844
 51
323.130102354156
  0
ARC
  8
1
 62
2
 10
104.6836316454932
 20
151.2736742064389
 30
0
 40
0.78125
 50
36.86989764584402
 51
143.130102354156
  0
ARC
  8
1
 62
2
 10
103.1086316454929
 20
87.4549242064389
 30
0
 40
1.187499999999909
 50
216.869897645846
 51
323.1301023541623
  0
ARC
  8
1
 62
2
 10
105.0086316454931
 20
86.02992420643881
 30
0
 40
1.187500000000074
 50
36.86989764584855
 51
143.1301023541515
  0
ARC
  8
1
 62
2
 10
105.0086316454931
 20
87.4549242064389
 30
0
 40
1.187499999999989
 50
216.8698976458431
 51
323.130102354157
  0
ARC
  8
1
 62
2
 10
145.0996913968615
 20
151.2736742064389
 30
0
 40
0.78125
 50
36.86989764584402
 51
143.130102354156
  0
ARC
  8
1
 62
2
 10
145.0996913968615
 20
152.2111742064389
 30
0
 40
0.78125
 50
216.869897645844
 51
323.130102354156
  0
ARC
  8
1
 62
2
 10
146.3496913968615
 20
151.2736742064389
 30
0
 40
0.7812500000000682
 50
36.86989764585069
 51
143.130102354156
  0
ARC
  8
1
 62
2
 10
148.5996913968615
 20
151.2736742064389
 30
0
 40
0.78125
 50
36.86989764584402
 51
143.130102354156
  0
ARC
  8
1
 62
2
 10
148.5996913968615
 20
152.2111742064389
 30
0
 40
0.78125
 50
216.869897645844
 51
323.130102354156
  0
ARC
  8
1
 62
2
 10
149.8496913968615
 20
151.2736742064389
 30
0
 40
0.7812500000000682
 50
36.86989764585069
 51
143.130102354156
  0
ARC
  8
1
 62
2
 10
146.5246913968614
 20
88.9549242064389
 30
0
 40
1.1875
 50
216.8698976458426
 51
323.1301023541532
  0
ARC
  8
1
 62
2
 10
148.4246913968614
 20
87.52992420643881
 30
0
 40
1.187500000000313
 50
36.86989764583991
 51
143.1301023541543
  0
ARC
  8
1
 62
2
 10
148.4246913968614
 20
88.9549242064389
 30
0
 40
1.187500000000068
 50
216.8698976458402
 51
323.1301023541656
  0
ARC
  8
1
 62
2
 10
200.8308701874863
 20
176.5640192626671
 30
0
 40
0.7812500000001592
 50
216.8698976458457
 51
323.1301023541493
  0
ARC
  8
1
 62
2
 10
202.0808701874864
 20
175.6265192626669
 30
0
 40
0.7812500000000512
 50
36.86989764584903
 51
143.1301023541547
  0
ARC
  8
1
 62
2
 10
202.0808701874864
 20
176.5640192626671
 30
0
 40
0.7812500000001365
 50
216.869897645847
 51
323.1301023541493
  0
ARC
  8
1
 62
2
 10
165.080870187487
 20
176.564019262667
 30
0
 40
0.78125
 50
216.869897645844
 51
323.130102354156
  0
ARC
  8
1
 62
2
 10
166.330870187487
 20
175.626519262667
 30
0
 40
0.78125
 50
36.86989764584402
 51
143.130102354156
  0
ARC
  8
1
 62
2
 10
166.3308701874871
 20
176.5640192626669
 30
0
 40
0.78125
 50
216.869897645844
 51
323.130102354156
  0
ARC
  8
1
 62
2
 10
126.1185126062361
 20
176.564019262667
 30
0
 40
0.78125
 50
216.869897645844
 51
323.130102354156
  0
ARC
  8
1
 62
2
 10
127.3685126062361
 20
175.626519262667
 30
0
 40
0.78125
 50
36.86989764584402
 51
143.130102354156
  0
ARC
  8
1
 62
2
 10
127.3685126062361
 20
176.564019262667
 30
0
 40
0.78125
 50
216.869897645844
 51
323.130102354156
  0
ARC
  8
1
 62
2
 10
90.36851260623698
 20
176.5640192626669
 30
0
 40
0.7812499999999488
 50
216.869897645839
 51
323.130102354161
  0
ARC
  8
1
 62
2
 10
91.61851260623698
 20
175.626519262667
 30
0
 40
0.78125
 50
36.86989764584402
 51
143.130102354156
  0
ARC
  8
1
 62
2
 10
91.61851260623698
 20
176.5640192626669
 30
0
 40
0.7812499999999488
 50
216.869897645839
 51
323.130102354161
  0
CIRCLE
  8
1
 62
7
 10
147.4746913968615
 20
122.5424242064204
 30
0
 40
1
  0
CIRCLE
  8
1
 62
7
 10
147.4746913968615
 20
126.5424242064204
 30
0
 40
2.300000000000011
  0
CIRCLE
  8
1
 62
7
 10
147.4746913968616
 20
60.65200947570929
 30
0
 40
1.900000000000091
  0
CIRCLE
  8
1
 62
7
 10
86.24351260623664
 20
203.3435550582803
 30
0
 40
1.099999999995879
  0
CIRCLE
  8
1
 62
7
 10
86.24351260623664
 20
192.3435550582802
 30
0
 40
1.100000000001618
  0
CIRCLE
  8
1
 62
7
 10
206.2058701874863
 20
203.3435550582803
 30
0
 40
1.099999999995759
  0
CIRCLE
  8
1
 62
7
 10
206.2058701874863
 20
192.3455925253745
 30
0
 40
1.100000000001465
  0
LINE
  8
1
 62
2
  6
DASHED
 10
192.9558701874869
 20
199.3435550582803
 30
0
 11
197.9558701874867
 21
199.3435550582803
 31
0
  0
SOLID
  8
1
 62
2
  6
DASHED
 10
194.9558701874867
 20
198.9485975655181
 30
0
 11
194.9558701874867
 21
199.7385125510425
 31
0
 12
197.9558701874867
 22
199.3435550582803
 32
0
 13
197.9558701874867
 23
199.3435550582803
 33
0
  0
LINE
  8
1
 62
2
  6
DASHED
 10
192.9558701874874
 20
227.3435550582803
 30
0
 11
197.9558701874863
 21
227.3435550582803
 31
0
  0
SOLID
  8
1
 62
2
  6
DASHED
 10
194.9558701874863
 20
226.9485975655181
 30
0
 11
194.9558701874863
 21
227.7385125510425
 31
0
 12
197.9558701874863
 22
227.3435550582803
 32
0
 13
197.9558701874863
 23
227.3435550582803
 33
0
  0
LINE
  8
1
 62
2
  6
DASHED
 10
94.49351260623567
 20
227.3435550582803
 30
0
 11
99.49351260623669
 21
227.3435550582803
 31
0
  0
SOLID
  8
1
 62
2
  6
DASHED
 10
96.49351260623669
 20
226.9485975655181
 30
0
 11
96.49351260623669
 21
227.7385125510425
 31
0
 12
99.49351260623669
 22
227.3435550582803
 32
0
 13
99.49351260623669
 23
227.3435550582803
 33
0
  0
LINE
  8
1
 62
2
  6
DASHED
 10
94.49351260623669
 20
199.3435550582803
 30
0
 11
99.49351260623669
 21
199.3435550582803
 31
0
  0
SOLID
  8
1
 62
2
  6
DASHED
 10
96.49351260623669
 20
198.9485975655181
 30
0
 11
96.49351260623669
 21
199.7385125510425
 31
0
 12
99.49351260623669
 22
199.3435550582803
 32
0
 13
99.49351260623669
 23
199.3435550582803
 33
0
  0
TEXT
  8
1
 62
2
 10
163.7860478878378
 20
17.42105631697912
 30
0
 40
3.5
  1
1.0
 41
0.9
 73
2
 11
163.7860478878378
 21
19.17105631697912
 31
0
  0
TEXT
  8
1
 62
2
 10
147.2441277383253
 20
30.68537851704507
 30
0
 40
2
  1
Model name;
 41
0.9
 73
2
 11
147.2441277383253
 21
31.68537851704507
 31
0
  0
TEXT
  8
1
 62
2
 10
147.8194988739606
 20
40.61053060675255
 30
0
 40
2
  1
Type;
 41
0.9
 73
2
 11
147.8194988739606
 21
41.61053060675255
 31
0
  0
TEXT
  8
1
 62
2
 10
147.3879705222342
 20
20.32869807561117
 30
0
 40
2
  1
Scale;
 41
0.9
 73
2
 11
147.3879705222342
 21
21.32869807561117
 31
0
  0
TEXT
  8
1
 62
2
 10
189.6777489914226
 20
16.88337074916151
 30
0
 40
4
  1
SUNX Ltd.
 41
0.9
 73
2
 11
189.6777489914226
 21
18.88337074916151
 31
0
  0
TEXT
  8
1
 62
2
 10
199.828898365079
 20
226.8879278640789
 30
0
 40
0.3
  1
EX-15E/17E
 41
0.9
 72
1
 73
2
 11
201.178898365079
 21
227.0379278640789
 31
0
  0
TEXT
  8
1
 62
2
 10
200.663091035055
 20
198.0705336675961
 30
0
 40
0.3
  1
EX-15E/17E
 41
0.9
 72
1
 73
2
 11
202.013091035055
 21
198.2205336675961
 31
0
  0
TEXT
  8
1
 62
2
 10
164.3065488372499
 20
195.290433453706
 30
0
 40
0.3
  1
EX-15E/17E
 41
0.9
 72
1
 73
2
 11
165.6565488372499
 21
195.440433453706
 31
0
  0
TEXT
  8
1
 62
2
 10
89.0073517748659
 20
226.98206702712
 30
0
 40
0.3
  1
EX-15E/17E
 41
0.9
 72
1
 73
2
 11
90.35735177486589
 21
227.13206702712
 31
0
  0
TEXT
  8
1
 62
2
 10
89.97295070090425
 20
197.947824600664
 30
0
 40
0.3
  1
EX-15E/17E
 41
0.9
 72
1
 73
2
 11
91.32295070090424
 21
198.097824600664
 31
0
  0
TEXT
  8
1
 62
2
 10
125.2409506222779
 20
196.0517812346629
 30
0
 40
0.3
  1
EX-15E/17E
 41
0.9
 72
1
 73
2
 11
126.5909506222779
 21
196.2017812346629
 31
0
  0
TEXT
  8
1
 62
2
 10
146.1246913968614
 20
58.09169538454191
 30
0
 40
0.3
  1
EX-15E/17E
 41
0.9
 72
1
 73
2
 11
147.4746913968614
 21
58.24169538454191
 31
0
  0
TEXT
  8
1
 62
2
 10
146.1246913968614
 20
114.606085027476
 30
0
 40
0.3
  1
EX-15E/17E
 41
0.9
 72
1
 73
2
 11
147.4746913968614
 21
114.756085027476
 31
0
  0
TEXT
  8
1
 62
2
 10
102.7050065745646
 20
114.606085027476
 30
0
 40
0.3
  1
EX-15E/17E
 41
0.9
 72
1
 73
2
 11
104.0550065745646
 21
114.756085027476
 31
0
  0
TEXT
  8
1
 62
2
 10
170.90502448033
 20
37.62108212773057
 30
0
 40
3.5
  1
Beam Sensor
 41
0.9
 72
1
 73
2
 11
188.23002448033
 21
39.37108212773057
 31
0
  0
TEXT
  8
1
 62
2
 10
172.368380045046
 20
27.62108212773057
 30
0
 40
3.5
  1
EX-15E/17E
 41
0.9
 72
1
 73
2
 11
188.118380045046
 21
29.37108212773057
 31
0
  0
ENDSEC
  0
EOF
