  0
SECTION
  2
HEADER
  9
$ACADVER
  1
AC1009
  9
$INSBASE
 10
0.0
 20
0.0
 30
0.0
  9
$EXTMIN
 10
152.9946910974042
 20
139.8668068846068
 30
-0.0015258207003583
  9
$EXTMAX
 10
277.38739094858471
 20
203.5847631559995
 30
0.0000000349246037
  9
$LIMMIN
 10
0.0
 20
0.0
  9
$LIMMAX
 10
420.0
 20
297.0
  9
$ORTHOMODE
 70
     0
  9
$REGENMODE
 70
     1
  9
$FILLMODE
 70
     1
  9
$QTEXTMODE
 70
     0
  9
$MIRRTEXT
 70
     1
  9
$DRAGMODE
 70
     2
  9
$LTSCALE
 40
1.0
  9
$OSMODE
 70
   549
  9
$ATTMODE
 70
     1
  9
$TEXTSIZE
 40
2.5
  9
$TRACEWID
 40
1.0
  9
$TEXTSTYLE
  7
STANDARD
  9
$CLAYER
  8
0
  9
$CELTYPE
  6
BYLAYER
  9
$CECOLOR
 62
   256
  9
$DIMSCALE
 40
1.0
  9
$DIMASZ
 40
2.0
  9
$DIMEXO
 40
1.0
  9
$DIMDLI
 40
3.75
  9
$DIMRND
 40
0.0
  9
$DIMDLE
 40
0.0
  9
$DIMEXE
 40
1.0
  9
$DIMTP
 40
0.0
  9
$DIMTM
 40
0.0
  9
$DIMTXT
 40
3.5
  9
$DIMCEN
 40
2.5
  9
$DIMTSZ
 40
0.0
  9
$DIMTOL
 70
     0
  9
$DIMLIM
 70
     0
  9
$DIMTIH
 70
     1
  9
$DIMTOH
 70
     1
  9
$DIMSE1
 70
     0
  9
$DIMSE2
 70
     0
  9
$DIMTAD
 70
     1
  9
$DIMZIN
 70
     0
  9
$DIMBLK
  1

  9
$DIMASO
 70
     1
  9
$DIMSHO
 70
     1
  9
$DIMPOST
  1

  9
$DIMAPOST
  1

  9
$DIMALT
 70
     0
  9
$DIMALTD
 70
     3
  9
$DIMALTF
 40
0.0393700787401575
  9
$DIMLFAC
 40
0.5
  9
$DIMTOFL
 70
     1
  9
$DIMTVP
 40
0.0
  9
$DIMTIX
 70
     0
  9
$DIMSOXD
 70
     0
  9
$DIMSAH
 70
     0
  9
$DIMBLK1
  1

  9
$DIMBLK2
  1

  9
$DIMSTYLE
  2
ISO-25
  9
$DIMCLRD
 70
     0
  9
$DIMCLRE
 70
     0
  9
$DIMCLRT
 70
     0
  9
$DIMTFAC
 40
1.0
  9
$DIMGAP
 40
1.524
  9
$LUNITS
 70
     2
  9
$LUPREC
 70
     3
  9
$SKETCHINC
 40
1.0
  9
$FILLETRAD
 40
10.0
  9
$AUNITS
 70
     0
  9
$AUPREC
 70
     3
  9
$MENU
  1
.
  9
$ELEVATION
 40
0.0
  9
$PELEVATION
 40
0.0
  9
$THICKNESS
 40
0.0
  9
$LIMCHECK
 70
     0
  9
$BLIPMODE
 70
     0
  9
$CHAMFERA
 40
10.0
  9
$CHAMFERB
 40
10.0
  9
$SKPOLY
 70
     0
  9
$TDCREATE
 40
2457133.783033357
  9
$TDUPDATE
 40
2457191.6330761691
  9
$TDINDWG
 40
0.0507866551
  9
$TDUSRTIMER
 40
0.0507866551
  9
$USRTIMER
 70
     1
  9
$ANGBASE
 50
0.0
  9
$ANGDIR
 70
     0
  9
$PDMODE
 70
     0
  9
$PDSIZE
 40
-1.0
  9
$PLINEWID
 40
0.0
  9
$COORDS
 70
     2
  9
$SPLFRAME
 70
     0
  9
$SPLINETYPE
 70
     6
  9
$SPLINESEGS
 70
     8
  9
$ATTDIA
 70
     1
  9
$ATTREQ
 70
     1
  9
$HANDLING
 70
     1
  9
$HANDSEED
  5
A6F
  9
$SURFTAB1
 70
     6
  9
$SURFTAB2
 70
     6
  9
$SURFTYPE
 70
     6
  9
$SURFU
 70
     6
  9
$SURFV
 70
     6
  9
$UCSNAME
  2

  9
$UCSORG
 10
0.0
 20
0.0
 30
0.0
  9
$UCSXDIR
 10
1.0
 20
0.0
 30
0.0
  9
$UCSYDIR
 10
0.0
 20
1.0
 30
0.0
  9
$PUCSNAME
  2

  9
$PUCSORG
 10
0.0
 20
0.0
 30
0.0
  9
$PUCSXDIR
 10
1.0
 20
0.0
 30
0.0
  9
$PUCSYDIR
 10
0.0
 20
1.0
 30
0.0
  9
$USERI1
 70
     0
  9
$USERI2
 70
     0
  9
$USERI3
 70
     0
  9
$USERI4
 70
     0
  9
$USERI5
 70
     0
  9
$USERR1
 40
0.0
  9
$USERR2
 40
0.0
  9
$USERR3
 40
0.0
  9
$USERR4
 40
0.0
  9
$USERR5
 40
0.0
  9
$WORLDVIEW
 70
     1
  9
$SHADEDGE
 70
     3
  9
$SHADEDIF
 70
    70
  9
$TILEMODE
 70
     1
  9
$MAXACTVP
 70
    64
  9
$PLIMCHECK
 70
     0
  9
$PEXTMIN
 10
1.0000000000000000E+020
 20
1.0000000000000000E+020
 30
1.0000000000000000E+020
  9
$PEXTMAX
 10
-1.0000000000000000E+020
 20
-1.0000000000000000E+020
 30
-1.0000000000000000E+020
  9
$PLIMMIN
 10
0.0
 20
0.0
  9
$PLIMMAX
 10
420.0
 20
297.0
  9
$UNITMODE
 70
     0
  9
$VISRETAIN
 70
     1
  9
$PLINEGEN
 70
     0
  9
$PSLTSCALE
 70
     1
  0
ENDSEC
  0
SECTION
  2
TABLES
  0
TABLE
  2
VPORT
 70
     1
  0
VPORT
  2
*ACTIVE
 70
     0
 10
0.0
 20
0.0
 11
1.0
 21
1.0
 12
213.82827170730559
 22
166.50787146345479
 13
0.0
 23
0.0
 14
10.0
 24
10.0
 15
10.0
 25
10.0
 16
0.0
 26
0.0
 36
1.0
 17
0.0
 27
0.0
 37
0.0
 40
102.64258451581399
 41
2.0438047559449308
 42
50.0
 43
0.0
 44
0.0
 50
0.0
 51
0.0
 71
     0
 72
  2000
 73
     1
 74
     3
 75
     0
 76
     0
 77
     0
 78
     0
  0
ENDTAB
  0
TABLE
  2
LTYPE
 70
    15
  0
LTYPE
  2
CONTINUOUS
 70
     0
  3
Solid line
 72
    65
 73
     0
 40
0.0
  0
LTYPE
  2
CENTER
 70
     0
  3
Center ____ _ ____ _ ____ _ ____ _ ____ _ ____
 72
    65
 73
     4
 40
10.16
 49
6.3499999999999988
 49
-1.27
 49
1.27
 49
-1.27
  0
LTYPE
  2
AM_ISO02W050
 70
     0
  3
__ __ __ __ __ __ __ __ __ __ __ __ __ __ __
 72
    65
 73
     2
 40
7.5
 49
6.0
 49
-1.5
  0
LTYPE
  2
AM_ISO08W050
 70
     0
  3
____ . ____ . ____ . ____ . ____ . ____ . ____
 72
    65
 73
     4
 40
18.0
 49
12.0
 49
-1.5
 49
3.0
 49
-1.5
  0
LTYPE
  2
AM_ISO09W050
 70
     0
  3
_____ . . _____ . . _____ . . ____ .. ____
 72
    65
 73
     6
 40
22.5
 49
12.0
 49
-1.5
 49
3.0
 49
-1.5
 49
3.0
 49
-1.5
  0
LTYPE
  2
AMCONSTR
 70
     0
  3
_______________________
 72
    65
 73
     2
 40
9999.0
 49
9999.0
 49
0.0
  0
LTYPE
  2
AM_ISO08W050X2
 70
     0
  3
__ . __ . __ . __ . __ . __
 72
    65
 73
     4
 40
9.0
 49
6.0
 49
-0.75
 49
1.5
 49
-0.75
  0
LTYPE
  2
AM_ISO02W050X2
 70
     0
  3
 _ _ _ _ _ _ _ _ _ _ _ _
 72
    65
 73
     2
 40
3.75
 49
3.0
 49
-0.75
  0
LTYPE
  2
AMZIGZAG
 70
     0
  3
/\/-/\/-/\/-/\/-/\/-/\/
 72
    65
 73
     2
 40
11.0001
 49
0.0001
 49
-11.0
  0
LTYPE
  2
ACISOWELD
 70
     0
  3
_ _ _ _ _
 72
    65
 73
     2
 40
2.0
 49
2.0
 49
-1.0
  0
LTYPE
  2
ACISOTGL
 70
     0
  3
_ _ _ _ _
 72
    65
 73
     2
 40
3.0
 49
2.0
 49
-1.0
  0
LTYPE
  2
ACISOTGB
 70
     0
  3
__ . . __ . .
 72
    65
 73
     6
 40
9.0
 49
4.0
 49
-1.0
 49
1.0
 49
-1.0
 49
1.0
 49
-1.0
  0
ENDTAB
  0
TABLE
  2
LAYER
 70
     1
  0
LAYER
  2
0
 70
     0
 62
     7
  6
CONTINUOUS
  0
ENDTAB
  0
TABLE
  2
STYLE
 70
     3
  0
STYLE
  2
STANDARD
 70
     0
 40
0.0
 41
1.0
 50
0.0
 71
     0
 42
2.5
  3
txt
  4
bigfont
  0
STYLE
  2

 70
     1
 40
0.0
 41
1.0
 50
0.0
 71
     0
 42
3.5
  3
genltshp.shx
  4

  0
STYLE
  2
ACISOGDT
 70
     0
 40
0.0
 41
1.0
 50
0.0
 71
     0
 42
3.5
  3
amgdt.shx
  4

  0
ENDTAB
  0
TABLE
  2
VIEW
 70
     0
  0
ENDTAB
  0
TABLE
  2
UCS
 70
     0
  0
ENDTAB
  0
TABLE
  2
APPID
 70
    18
  0
APPID
  2
ACAD
 70
     0
  0
APPID
  2
MCAD_NO_VIS
 70
     0
  0
APPID
  2
ACAD_TEMP_GRAPHIC
 70
     0
  0
APPID
  2
ACATTRIBSERVICES
 70
     0
  0
APPID
  2
DESIGNERASSEMBLIES
 70
     0
  0
APPID
  2
ACAD_DSTYLE_DIMJAG
 70
     0
  0
APPID
  2
ACAD_DSTYLE_DIMBREAK
 70
     0
  0
APPID
  2
ACAD_NAV_VCDISPLAY
 70
     0
  0
APPID
  2
ACAECLAYERSTANDARD
 70
     0
  0
APPID
  2
GRADIENTCOLOR1ACI
 70
     0
  0
APPID
  2
GRADIENTCOLOR2ACI
 70
     0
  0
APPID
  2
ACAD_EXEMPT_FROM_CAD_STANDARDS
 70
     0
  0
APPID
  2
GENIUS_AMGTXT_16
 70
     0
  0
APPID
  2
ACAD_MLEADERVER
 70
     0
  0
APPID
  2
ACAD_DSTYLE_DIMARC_LENGTH_
 70
     0
  0
APPID
  2
ACAD_DSTYLE_DIM_LINETYPE
 70
     0
  0
APPID
  2
ACAD_DSTYLE_DIM_EXT1_LINETYPE
 70
     0
  0
APPID
  2
ACAD_DSTYLE_DIM_EXT2_LINETYPE
 70
     0
  0
ENDTAB
  0
TABLE
  2
DIMSTYLE
 70
     8
  0
DIMSTYLE
  2
ISO-25
 70
     0
  3

  4

  5

  6

  7

 40
1.0
 41
2.5
 42
0.625
 43
3.75
 44
1.25
 45
0.0
 46
0.0
 47
0.0
 48
0.0
140
2.5
141
2.5
142
0.0
143
0.03937007874016
144
1.0
145
0.0
146
1.0
147
0.625
 71
     0
 72
     0
 73
     0
 74
     0
 75
     0
 76
     0
 77
     1
 78
     8
170
     0
171
     3
172
     1
173
     0
174
     0
175
     0
176
     0
177
     0
178
     0
  0
DIMSTYLE
  2
AM_ISO
 70
     0
  3

  4
"
  5

  6

  7

 40
1.0
 41
3.5
 42
1.0
 43
10.0
 44
1.0
 45
0.0
 46
0.0
 47
0.1
 48
0.1
140
3.5
141
0.0
142
0.0
143
0.0393701
144
1.0
145
0.0
146
0.71
147
1.5
 71
     0
 72
     0
 73
     0
 74
     0
 75
     0
 76
     0
 77
     1
 78
     8
170
     0
171
     2
172
     1
173
     0
174
     0
175
     0
176
   256
177
   256
178
     2
  0
DIMSTYLE
  2
AM_ISO$3
 70
     0
  3

  4
"
  5

  6

  7

 40
1.0
 41
3.5
 42
1.0
 43
10.0
 44
1.0
 45
0.0
 46
0.0
 47
0.1
 48
0.1
140
3.5
141
0.0
142
0.0
143
0.0393701
144
1.0
145
0.0
146
0.71
147
1.5
 71
     0
 72
     0
 73
     0
 74
     1
 75
     0
 76
     0
 77
     1
 78
     8
170
     0
171
     2
172
     0
173
     0
174
     0
175
     0
176
   256
177
   256
178
     2
  0
DIMSTYLE
  2
AM_ISO$4
 70
     0
  3

  4
"
  5

  6

  7

 40
1.0
 41
3.5
 42
1.0
 43
10.0
 44
1.0
 45
0.0
 46
0.0
 47
0.1
 48
0.1
140
3.5
141
0.0
142
0.0
143
0.0393701
144
1.0
145
0.0
146
0.71
147
1.5
 71
     0
 72
     0
 73
     0
 74
     1
 75
     0
 76
     0
 77
     1
 78
     8
170
     0
171
     2
172
     0
173
     0
174
     0
175
     0
176
   256
177
   256
178
     2
  0
DIMSTYLE
  2
AM_ISO$6
 70
     0
  3

  4
"
  5

  6

  7

 40
1.0
 41
3.5
 42
1.0
 43
10.0
 44
1.0
 45
0.0
 46
0.0
 47
0.1
 48
0.1
140
3.5
141
0.0
142
0.0
143
0.0393701
144
1.0
145
0.0
146
0.71
147
1.5
 71
     0
 72
     0
 73
     0
 74
     0
 75
     0
 76
     0
 77
     0
 78
     8
170
     0
171
     2
172
     1
173
     0
174
     0
175
     0
176
   256
177
   256
178
     2
  0
DIMSTYLE
  2
AM_ISO$7
 70
     0
  3

  4
"
  5

  6

  7

 40
1.0
 41
3.5
 42
1.0
 43
10.0
 44
1.0
 45
0.0
 46
0.0
 47
0.1
 48
0.1
140
3.5
141
0.0
142
0.0
143
0.0393701
144
1.0
145
0.0
146
0.71
147
1.5
 71
     0
 72
     0
 73
     0
 74
     0
 75
     0
 76
     0
 77
     1
 78
     8
170
     0
171
     2
172
     1
173
     0
174
     0
175
     0
176
   256
177
   256
178
     2
  0
DIMSTYLE
  2
AM_ISO$SF
 70
     0
  3

  4
"
  5

  6

  7

 40
1.0
 41
3.5
 42
1.0
 43
10.0
 44
1.0
 45
0.0
 46
0.0
 47
0.1
 48
0.1
140
3.5
141
0.0
142
0.0
143
0.0393701
144
1.0
145
0.0
146
0.71
147
1.5
 71
     0
 72
     0
 73
     0
 74
     0
 75
     1
 76
     1
 77
     1
 78
     8
170
     0
171
     2
172
     1
173
     0
174
     0
175
     0
176
   256
177
   256
178
     2
  0
DIMSTYLE
  2
AM_ISO$SH
 70
     0
  3

  4
"
  5

  6
GENAXEH
  7

 40
1.0
 41
3.5
 42
1.0
 43
10.0
 44
1.0
 45
0.0
 46
0.0
 47
0.1
 48
0.1
140
3.5
141
0.0
142
0.0
143
0.0393701
144
2.0
145
0.0
146
0.71
147
1.5
 71
     0
 72
     0
 73
     0
 74
     0
 75
     1
 76
     1
 77
     1
 78
     8
170
     0
171
     2
172
     1
173
     1
174
     0
175
     0
176
   256
177
   256
178
     2
  0
ENDTAB
  0
ENDSEC
  0
SECTION
  2
BLOCKS
  0
BLOCK
  8
0
  2
$MODEL_SPACE
 70
     0
 10
0.0
 20
0.0
 30
0.0
  3
$MODEL_SPACE
  1

  0
ENDBLK
  5
21
  8
0
  0
BLOCK
 67
     1
  8
0
  2
$PAPER_SPACE
 70
     0
 10
0.0
 20
0.0
 30
0.0
  3
$PAPER_SPACE
  1

  0
ENDBLK
  5
1D
 67
     1
  8
0
  0
BLOCK
  8
0
  2
GENAXEH
 70
     0
 10
0.0
 20
0.0
 30
0.0
  3
GENAXEH
  1

  0
LINE
  5
673
  8
0
 10
-1.0
 20
0.0
 30
0.0
 11
1.0
 21
0.0
 31
0.0
  0
ENDBLK
  5
675
  8
0
  0
BLOCK
  8
0
  2
*U3
 70
     1
 10
0.0
 20
0.0
 30
0.0
  3
*U3
  1

  0
SOLID
  5
A52
  8
0
  6
CONTINUOUS
 62
     4
 10
160.03644008531359
 20
182.9353700163812
 30
0.0
 11
160.03644008531359
 21
182.6175992690811
 31
0.0
 12
161.2223766593965
 22
182.6175992690811
 32
0.0
 13
161.2223766593965
 23
182.6175992690811
 33
0.0
210
0.0
220
0.0
230
1.0
  0
SOLID
  5
A53
  8
0
  6
CONTINUOUS
 62
     4
 10
-160.03644008531359
 20
182.6175992690811
 30
0.0
 11
-161.2223766593965
 21
182.6175992690811
 31
0.0
 12
-160.03644008531359
 22
182.29982852178111
 32
0.0
 13
-160.03644008531359
 23
182.29982852178111
 33
0.0
210
0.0
220
0.0
230
-1.0
  0
LINE
  5
A54
  8
0
  6
CONTINUOUS
 62
     4
 10
160.03644008531359
 20
182.9353700163812
 30
0.0
 11
160.03644008531359
 21
182.6175992690811
 31
0.0
  0
LINE
  5
A55
  8
0
  6
CONTINUOUS
 62
     4
 10
161.2223766593965
 20
182.6175992690811
 30
0.0
 11
160.03644008531359
 21
182.9353700163812
 31
0.0
  0
LINE
  5
A56
  8
0
  6
CONTINUOUS
 62
     4
 10
161.2223766593965
 20
182.6175992690811
 30
0.0
 11
160.03644008531359
 21
182.29982852178111
 31
0.0
  0
LINE
  5
A57
  8
0
  6
CONTINUOUS
 62
     4
 10
160.03644008531359
 20
182.29982852178111
 30
0.0
 11
160.03644008531359
 21
182.6175992690811
 31
0.0
  0
ENDBLK
  5
A59
  8
0
  0
BLOCK
  8
0
  2
*U4
 70
     1
 10
0.0
 20
0.0
 30
0.0
  3
*U4
  1

  0
SOLID
  5
A5B
  8
0
  6
CONTINUOUS
 62
     4
 10
245.37889525503101
 20
182.9353700163812
 30
0.0
 11
245.37889525503101
 21
182.6175992690811
 31
0.0
 12
246.5648318291139
 22
182.6175992690811
 32
0.0
 13
246.5648318291139
 23
182.6175992690811
 33
0.0
210
0.0
220
0.0
230
1.0
  0
SOLID
  5
A5C
  8
0
  6
CONTINUOUS
 62
     4
 10
-245.37889525503101
 20
182.6175992690811
 30
0.0
 11
-246.5648318291139
 21
182.6175992690811
 31
0.0
 12
-245.37889525503101
 22
182.29982852178111
 32
0.0
 13
-245.37889525503101
 23
182.29982852178111
 33
0.0
210
0.0
220
0.0
230
-1.0
  0
LINE
  5
A5D
  8
0
  6
CONTINUOUS
 62
     4
 10
245.37889525503101
 20
182.9353700163812
 30
0.0
 11
245.37889525503101
 21
182.6175992690811
 31
0.0
  0
LINE
  5
A5E
  8
0
  6
CONTINUOUS
 62
     4
 10
246.5648318291139
 20
182.6175992690811
 30
0.0
 11
245.37889525503101
 21
182.9353700163812
 31
0.0
  0
LINE
  5
A5F
  8
0
  6
CONTINUOUS
 62
     4
 10
246.5648318291139
 20
182.6175992690811
 30
0.0
 11
245.37889525503101
 21
182.29982852178111
 31
0.0
  0
LINE
  5
A60
  8
0
  6
CONTINUOUS
 62
     4
 10
245.37889525503101
 20
182.29982852178111
 30
0.0
 11
245.37889525503101
 21
182.6175992690811
 31
0.0
  0
ENDBLK
  5
A62
  8
0
  0
BLOCK
  8
0
  2
*U5
 70
     1
 10
0.0
 20
0.0
 30
0.0
  3
*U5
  1

  0
TEXT
  5
A64
  8
0
 62
     2
 10
162.15232099761741
 20
153.39525616960921
 30
0.0
 40
3.5
  1
EMITTER
  0
ENDBLK
  5
A66
  8
0
  0
BLOCK
  8
0
  2
*U6
 70
     1
 10
0.0
 20
0.0
 30
0.0
  3
*U6
  1

  0
TEXT
  5
A68
  8
0
 62
     2
 10
223.93769192045579
 20
153.11416696178409
 30
0.0
 40
3.5
  1
RECEIVER
  0
ENDBLK
  5
A6A
  8
0
  0
BLOCK
  8
0
  2
*U7
 70
     1
 10
0.0
 20
0.0
 30
0.0
  3
*U7
  1

  0
TEXT
  5
A6C
  8
0
 62
     2
 10
252.88132187340611
 20
139.8834824704513
 30
0.0
 40
3.5
  1
EX-Z11FA
  0
ENDBLK
  5
A6E
  8
0
  0
ENDSEC
  0
SECTION
  2
ENTITIES
  0
LINE
  5
E4
  8
0
  6
CONTINUOUS
 62
     7
 10
183.26528060844461
 20
174.61759917408619
 30
0.0
 11
183.26528060844461
 21
166.08070506684879
 31
0.0
  0
LINE
  5
E5
  8
0
  6
CONTINUOUS
 62
     7
 10
185.26528093627019
 20
166.08070506684879
 30
0.0
 11
185.26528093627019
 21
174.61759917408619
 31
0.0
  0
LINE
  5
E6
  8
0
  6
CONTINUOUS
 62
     7
 10
218.81527842616961
 20
174.61759917408619
 30
0.0
 11
218.81527842616961
 21
166.01759958051539
 31
0.0
  0
LINE
  5
E7
  8
0
  6
CONTINUOUS
 62
     7
 10
220.8152787539951
 20
166.01759958051539
 30
0.0
 11
220.8152787539951
 21
174.61759917408619
 31
0.0
  0
CIRCLE
  5
E8
  8
0
  6
CONTINUOUS
 62
     7
 10
219.440279624223
 20
182.6175992690811
 30
0.0
 40
0.25
  0
LINE
  5
144
  8
0
  6
CONTINUOUS
 62
     7
 10
217.5902800414554
 20
176.41759927413361
 30
0.0
 11
217.5902800414554
 21
188.61759937338931
 31
0.0
  0
LINE
  5
149
  8
0
  6
CONTINUOUS
 62
     7
 10
218.06527859008239
 20
174.61759917408619
 30
0.0
 11
217.5902800414554
 21
176.41759927413361
 31
0.0
  0
LINE
  5
14B
  8
0
  6
CONTINUOUS
 62
     7
 10
221.5652785900823
 20
174.61759917408619
 30
0.0
 11
218.06527859008239
 21
174.61759917408619
 31
0.0
  0
LINE
  5
14D
  8
0
  6
CONTINUOUS
 62
     7
 10
222.0402808639995
 20
178.34259924915079
 30
0.0
 11
222.0402808639995
 21
176.41759927413361
 31
0.0
  0
ARC
  5
150
  8
0
  6
CONTINUOUS
 62
     7
 10
223.840279624223
 20
178.36759926908121
 30
0.0
 40
1.7999999999999969
 50
90.0
 51
180.7958003020029
  0
LINE
  5
154
  8
0
  6
CONTINUOUS
 62
     7
 10
225.59028135275759
 20
180.1675992921779
 30
0.0
 11
223.84027780628131
 21
180.1675992921779
 31
0.0
  0
LINE
  5
159
  8
0
  6
CONTINUOUS
 62
     7
 10
225.59028135275759
 20
188.61759937338931
 30
0.0
 11
225.59028135275759
 21
176.61759926908121
 31
0.0
  0
LINE
  5
15D
  8
0
  6
CONTINUOUS
 62
     7
 10
223.84027780628131
 20
185.0675988846312
 30
0.0
 11
225.59028135275759
 21
185.0675988846312
 31
0.0
  0
LINE
  5
161
  8
0
  6
CONTINUOUS
 62
     7
 10
222.0402808639995
 20
188.61759937338931
 30
0.0
 11
222.0402808639995
 21
186.86759955220319
 31
0.0
  0
LINE
  5
163
  8
0
  6
CONTINUOUS
 62
     7
 10
222.0402808639995
 20
176.41759927413361
 30
0.0
 11
221.5652785900823
 21
174.61759917408619
 31
0.0
  0
ARC
  5
181
  8
0
  6
CONTINUOUS
 62
     7
 10
223.840279624223
 20
186.8675992690811
 30
0.0
 40
1.7999999999999969
 50
180.0
 51
270.0
  0
LINE
  5
185
  8
0
  6
CONTINUOUS
 62
     7
 10
223.84027780628131
 20
176.61759926908121
 30
0.0
 11
225.59028135275759
 21
176.61759926908121
 31
0.0
  0
LINE
  5
189
  8
0
  6
CONTINUOUS
 62
     7
 10
225.59028135275759
 20
188.61759937338931
 30
0.0
 11
217.5902800414554
 21
188.61759937338931
 31
0.0
  0
LINE
  5
18D
  8
0
  6
CONTINUOUS
 62
     7
 10
222.0402808639995
 20
176.61759926908121
 30
0.0
 11
223.84027780628131
 21
176.61759926908121
 31
0.0
  0
CIRCLE
  5
199
  8
0
  6
CONTINUOUS
 62
     7
 10
223.840279624223
 20
186.8675992690811
 30
0.0
 40
1.1000000000000221
  0
CIRCLE
  5
19B
  8
0
  6
CONTINUOUS
 62
     7
 10
223.840279624223
 20
178.36759926908121
 30
0.0
 40
1.1000000000000221
  0
LINE
  5
19F
  8
0
  6
CONTINUOUS
 62
     7
 10
186.01528077235741
 20
174.61759917408619
 30
0.0
 11
182.51528077235741
 21
174.61759917408619
 31
0.0
  0
LINE
  5
1A2
  8
0
  6
CONTINUOUS
 62
     7
 10
182.0402808267466
 20
176.41759927413361
 30
0.0
 11
182.0402808267466
 21
178.36759932309781
 31
0.0
  0
LINE
  5
1A3
  8
0
  6
CONTINUOUS
 62
     7
 10
182.51528077235741
 20
174.61759917408619
 30
0.0
 11
182.0402808267466
 21
176.41759927413361
 31
0.0
  0
ARC
  5
1E3
  8
0
  6
CONTINUOUS
 62
     7
 10
180.2402808036498
 20
186.8675992690811
 30
0.0
 40
1.8000000000000109
 50
270.0
 51
0.0
  0
LINE
  5
1E6
  8
0
  6
CONTINUOUS
 62
     7
 10
178.4902808036498
 20
188.61759937338931
 30
0.0
 11
186.49028118362941
 21
188.61759937338931
 31
0.0
  0
LINE
  5
1EB
  8
0
  6
CONTINUOUS
 62
     7
 10
178.4902808036498
 20
185.0675988846312
 30
0.0
 11
180.24028085766651
 21
185.0675988846312
 31
0.0
  0
LINE
  5
1EE
  8
0
  6
CONTINUOUS
 62
     7
 10
186.49028118362941
 20
188.61759937338931
 30
0.0
 11
186.49028118362941
 21
176.41759927413361
 31
0.0
  0
LINE
  5
1EF
  8
0
  6
CONTINUOUS
 62
     7
 10
180.24028085766651
 20
180.1675992921779
 30
0.0
 11
178.4902808036498
 21
180.1675992921779
 31
0.0
  0
ARC
  5
1F2
  8
0
  6
CONTINUOUS
 62
     7
 10
180.2402808036498
 20
178.3675992690811
 30
0.0
 40
1.8000000000000109
 50
0.0
 51
90.0
  0
LINE
  5
1F5
  8
0
  6
CONTINUOUS
 62
     7
 10
182.0402808267466
 20
186.86759955220319
 30
0.0
 11
182.0402808267466
 21
188.61759937338931
 31
0.0
  0
LINE
  5
1F9
  8
0
  6
CONTINUOUS
 62
     7
 10
186.49028118362941
 20
176.41759927413361
 30
0.0
 11
186.01528077235741
 21
174.61759917408619
 31
0.0
  0
CIRCLE
  5
227
  8
0
  6
CONTINUOUS
 62
     7
 10
184.64028080364989
 20
182.6175992690811
 30
0.0
 40
0.25
  0
LINE
  5
238
  8
0
  6
CONTINUOUS
 62
     7
 10
178.4902808036498
 20
188.61759937338931
 30
0.0
 11
178.4902808036498
 21
176.6175992690811
 31
0.0
  0
CIRCLE
  5
23E
  8
0
  6
CONTINUOUS
 62
     7
 10
180.2402808036498
 20
186.8675992690811
 30
0.0
 40
1.1000000000000081
  0
CIRCLE
  5
23F
  8
0
  6
CONTINUOUS
 62
     7
 10
180.2402808036498
 20
178.3675992690811
 30
0.0
 40
1.1000000000000081
  0
LINE
  5
244
  8
0
  6
CONTINUOUS
 62
     7
 10
178.4902808036498
 20
176.6175992690811
 30
0.0
 11
182.0402808267466
 21
176.6175992690811
 31
0.0
  0
LINE
  5
245
  8
0
  6
CONTINUOUS
 62
     7
 10
184.26528077235741
 20
166.08070506684879
 30
0.0
 11
185.26528093627019
 21
166.08070506684879
 31
0.0
  0
LINE
  5
246
  8
0
  6
CONTINUOUS
 62
     7
 10
183.26528060844461
 20
166.08070506684879
 30
0.0
 11
184.26528077235741
 21
166.08070506684879
 31
0.0
  0
LINE
  5
247
  8
0
  6
CONTINUOUS
 62
     7
 10
219.81528045272751
 20
166.01759958051539
 30
0.0
 11
220.8152787539951
 21
166.01759958051539
 31
0.0
  0
LINE
  5
248
  8
0
  6
CONTINUOUS
 62
     7
 10
218.81527842616961
 20
166.01759958051539
 30
0.0
 11
219.81528045272751
 21
166.01759958051539
 31
0.0
  0
LINE
  5
3DB
  8
0
  6
CONTINUOUS
 62
     7
 10
225.5902813527577
 20
199.05618577276761
 30
0.0
 11
217.59028004145549
 21
199.05618577276761
 31
0.0
  0
LINE
  5
3E8
  8
0
  6
CONTINUOUS
 62
     7
 10
222.04028086399961
 20
201.7561857845954
 30
0.0
 11
222.04028086399961
 21
199.05618577276761
 31
0.0
  0
LINE
  5
3ED
  8
0
  6
CONTINUOUS
 62
     7
 10
217.59028004145549
 20
199.05618577276761
 30
0.0
 11
217.59028004145549
 21
202.05618579884469
 31
0.0
  0
LINE
  5
3F6
  8
0
  6
CONTINUOUS
 62
     7
 10
225.5902813527577
 20
202.05618579884469
 30
0.0
 11
225.5902813527577
 21
199.05618577276761
 31
0.0
  0
LINE
  5
400
  8
0
  6
CONTINUOUS
 62
     7
 10
217.59028004145549
 20
202.05618579884469
 30
0.0
 11
225.5902813527577
 21
202.05618579884469
 31
0.0
  0
LINE
  5
406
  8
0
  6
CONTINUOUS
 62
     7
 10
225.58864967560689
 20
201.7561857845954
 30
0.0
 11
224.59027932619969
 21
201.7561857845954
 31
0.0
  0
LINE
  5
407
  8
0
  6
CONTINUOUS
 62
     7
 10
223.84027780628131
 20
201.7561857845954
 30
0.0
 11
222.04028086399961
 21
201.7561857845954
 31
0.0
  0
LINE
  5
409
  8
0
  6
CONTINUOUS
 62
     7
 10
224.59027932619969
 20
201.7561857845954
 30
0.0
 11
223.84027780628131
 21
201.7561857845954
 31
0.0
  0
LINE
  5
422
  8
0
  6
CONTINUOUS
 62
     7
 10
178.49009972710081
 20
199.05618577276761
 30
0.0
 11
178.49191049287251
 21
202.05618579884469
 31
0.0
  0
LINE
  5
427
  8
0
  6
CONTINUOUS
 62
     7
 10
186.49028118362949
 20
199.05618577276761
 30
0.0
 11
178.49009972710081
 21
199.05618577276761
 31
0.0
  0
LINE
  5
428
  8
0
  6
CONTINUOUS
 62
     7
 10
182.3402807827882
 20
201.7561857845954
 30
0.0
 11
182.3402807827882
 21
199.05618577276761
 31
0.0
  0
LINE
  5
42D
  8
0
  6
CONTINUOUS
 62
     7
 10
186.49028118362949
 20
202.05618579884469
 30
0.0
 11
186.49028118362949
 21
199.05618577276761
 31
0.0
  0
LINE
  5
431
  8
0
  6
CONTINUOUS
 62
     7
 10
182.3402807827882
 20
201.7561857845954
 30
0.0
 11
178.49191049287251
 21
201.7561857845954
 31
0.0
  0
LINE
  5
432
  8
0
  6
CONTINUOUS
 62
     7
 10
178.49191049287251
 20
202.05618579884469
 30
0.0
 11
186.49028118362949
 21
202.05618579884469
 31
0.0
  0
LINE
  5
43C
  8
0
  6
CONTINUOUS
 62
     7
 10
155.03842292315289
 20
174.61759917408619
 30
0.0
 11
155.03842292315289
 21
166.08070506684879
 31
0.0
  0
LINE
  5
43D
  8
0
  6
CONTINUOUS
 62
     7
 10
157.03842284352481
 20
166.08070506684879
 30
0.0
 11
157.03842284352481
 21
174.61759917408619
 31
0.0
  0
LINE
  5
43E
  8
0
  6
CONTINUOUS
 62
     7
 10
155.03842292315289
 20
166.08070506684879
 30
0.0
 11
155.03842292315289
 21
166.01759958051539
 31
0.0
  0
LINE
  5
43F
  8
0
  6
CONTINUOUS
 62
     7
 10
157.03842284352481
 20
166.01759958051539
 30
0.0
 11
157.03842284352481
 21
166.08070506684879
 31
0.0
  0
LINE
  5
445
  8
0
  6
CONTINUOUS
 62
     7
 10
157.5384229254812
 20
180.1675992921779
 30
0.0
 11
156.38842289996299
 21
180.1675992921779
 31
0.0
  0
LINE
  5
457
  8
0
  6
CONTINUOUS
 62
     7
 10
155.1384229279027
 20
176.41759927413361
 30
0.0
 11
157.5384229254812
 21
176.41759927413361
 31
0.0
  0
LINE
  5
459
  8
0
  6
CONTINUOUS
 62
     7
 10
154.5384228994042
 20
174.61759917408619
 30
0.0
 11
157.5384229254812
 21
174.61759917408619
 31
0.0
  0
LINE
  5
45A
  8
0
  6
CONTINUOUS
 62
     7
 10
154.53941039942021
 20
176.41759927413361
 30
0.0
 11
155.1384229279027
 21
176.41759927413361
 31
0.0
  0
LINE
  5
46C
  8
0
  6
CONTINUOUS
 62
     7
 10
157.5384229254812
 20
188.61759937338931
 30
0.0
 11
157.5384229254812
 21
174.61759917408619
 31
0.0
  0
LINE
  5
474
  8
0
  6
CONTINUOUS
 62
     7
 10
154.8384229136534
 20
185.0675988846312
 30
0.0
 11
157.5384229254812
 21
185.0675988846312
 31
0.0
  0
LINE
  5
475
  8
0
  6
CONTINUOUS
 62
     7
 10
156.38842289996299
 20
180.1675992921779
 30
0.0
 11
154.8384229136534
 21
180.1675992921779
 31
0.0
  0
LINE
  5
477
  8
0
  6
CONTINUOUS
 62
     7
 10
154.5384228994042
 20
176.41759927413361
 30
0.0
 11
155.1384229279027
 21
176.41759927413361
 31
0.0
  0
LINE
  5
498
  8
0
  6
CONTINUOUS
 62
     7
 10
154.8384229136534
 20
176.6175992690811
 30
0.0
 11
154.5384228994042
 21
176.6175992690811
 31
0.0
  0
LINE
  5
49B
  8
0
  6
CONTINUOUS
 62
     7
 10
154.5384228994042
 20
188.61759937338931
 30
0.0
 11
157.5384229254812
 21
188.61759937338931
 31
0.0
  0
LINE
  5
49C
  8
0
  6
CONTINUOUS
 62
     7
 10
154.8384229136534
 20
188.61759937338931
 30
0.0
 11
154.8384229136534
 21
185.0675988846312
 31
0.0
  0
LINE
  5
49D
  8
0
  6
CONTINUOUS
 62
     7
 10
154.5384228994042
 20
174.61759917408619
 30
0.0
 11
154.5384228994042
 21
188.61759937338931
 31
0.0
  0
LINE
  5
49E
  8
0
  6
CONTINUOUS
 62
     7
 10
155.03842292315289
 20
166.08070506684879
 30
0.0
 11
157.03842284352481
 21
166.08070506684879
 31
0.0
  0
LINE
  5
49F
  8
0
  6
CONTINUOUS
 62
     7
 10
155.03842292315289
 20
166.01759958051539
 30
0.0
 11
157.03842284352481
 21
166.01759958051539
 31
0.0
  0
LINE
  5
4B9
  8
0
  6
CONTINUOUS
 62
     7
 10
246.99801044115591
 20
174.61759917408619
 30
0.0
 11
246.99801044115591
 21
166.01759958051539
 31
0.0
  0
LINE
  5
4BA
  8
0
  6
CONTINUOUS
 62
     7
 10
248.9980103615278
 20
166.01759958051539
 30
0.0
 11
248.9980103615278
 21
174.61759917408619
 31
0.0
  0
LINE
  5
4BB
  8
0
  6
CONTINUOUS
 62
     7
 10
246.4980103591995
 20
174.61759917408619
 30
0.0
 11
246.4980103591995
 21
188.61759937338931
 31
0.0
  0
LINE
  5
4C8
  8
0
  6
CONTINUOUS
 62
     7
 10
247.64801038471771
 20
180.1675992921779
 30
0.0
 11
246.4980103591995
 21
180.1675992921779
 31
0.0
  0
LINE
  5
4D2
  8
0
  6
CONTINUOUS
 62
     7
 10
249.4980103852765
 20
174.61759917408619
 30
0.0
 11
246.4980103591995
 21
174.61759917408619
 31
0.0
  0
LINE
  5
4E7
  8
0
  6
CONTINUOUS
 62
     7
 10
246.4980103591995
 20
188.61759937338931
 30
0.0
 11
249.19801037102729
 21
188.61759937338931
 31
0.0
  0
LINE
  5
4F1
  8
0
  6
CONTINUOUS
 62
     7
 10
249.19801037102729
 20
180.1675992921779
 30
0.0
 11
247.64801038471771
 21
180.1675992921779
 31
0.0
  0
LINE
  5
4F2
  8
0
  6
CONTINUOUS
 62
     7
 10
246.4980103591995
 20
185.0675988846312
 30
0.0
 11
249.19801037102729
 21
185.0675988846312
 31
0.0
  0
LINE
  5
50D
  8
0
  6
CONTINUOUS
 62
     7
 10
249.19801037102729
 20
180.1675992921779
 30
0.0
 11
249.19801037102729
 21
176.61759926908121
 31
0.0
  0
LINE
  5
516
  8
0
  6
CONTINUOUS
 62
     7
 10
249.4980103852765
 20
188.61759937338931
 30
0.0
 11
249.4980103852765
 21
174.61759917408619
 31
0.0
  0
LINE
  5
517
  8
0
  6
CONTINUOUS
 62
     7
 10
249.4980103852765
 20
176.61759926908121
 30
0.0
 11
249.19801037102729
 21
176.61759926908121
 31
0.0
  0
LINE
  5
51A
  8
0
  6
CONTINUOUS
 62
     7
 10
249.19801037102729
 20
188.61759937338931
 30
0.0
 11
249.4980103852765
 21
188.61759937338931
 31
0.0
  0
LINE
  5
51B
  8
0
  6
CONTINUOUS
 62
     7
 10
249.19801037102729
 20
185.0675988846312
 30
0.0
 11
249.19801037102729
 21
188.61759937338931
 31
0.0
  0
LINE
  5
51D
  8
0
  6
CONTINUOUS
 62
     7
 10
246.99801044115591
 20
166.01759958051539
 30
0.0
 11
248.9980103615278
 21
166.01759958051539
 31
0.0
  0
LINE
  5
6FA
  8
0
  6
CONTINUOUS
 62
     7
 10
154.8384229136534
 20
180.1675992921779
 30
0.0
 11
154.8384229136534
 21
176.6175992690811
 31
0.0
  0
LINE
  5
6FB
  8
0
  6
CONTINUOUS
 62
     7
 10
246.4980103591995
 20
176.41759927413361
 30
0.0
 11
249.4980103852765
 21
176.41759927413361
 31
0.0
  0
LINE
  5
713
  8
0
  6
CENTER
 62
     4
 10
180.2402808036498
 20
184.812180252535
 30
0.0
 11
180.2402808036498
 21
188.92301828562719
 31
0.0
  0
LINE
  5
714
  8
0
  6
CENTER
 62
     4
 10
178.1848617871037
 20
186.8675992690811
 30
0.0
 11
182.29569982019589
 21
186.8675992690811
 31
0.0
  0
LINE
  5
715
  8
0
  6
CENTER
 62
     4
 10
180.2402808036498
 20
180.42301828562719
 30
0.0
 11
180.2402808036498
 21
176.31218025253509
 31
0.0
  0
LINE
  5
716
  8
0
  6
CENTER
 62
     4
 10
182.29569982019589
 20
178.36759926908121
 30
0.0
 11
178.1848617871037
 21
178.36759926908121
 31
0.0
  0
LINE
  5
717
  8
0
  6
CENTER
 62
     4
 10
184.64028080364989
 20
180.562180252535
 30
0.0
 11
184.64028080364989
 21
184.67301828562719
 31
0.0
  0
LINE
  5
718
  8
0
  6
CENTER
 62
     4
 10
182.58486178710379
 20
182.6175992690811
 30
0.0
 11
186.69569982019601
 21
182.6175992690811
 31
0.0
  0
LINE
  5
71B
  8
0
  6
CENTER
 62
     4
 10
223.84027962422289
 20
188.92301828562719
 30
0.0
 11
223.84027962422289
 21
184.81218025253509
 31
0.0
  0
LINE
  5
71C
  8
0
  6
CENTER
 62
     4
 10
225.89569864076901
 20
186.86759926908121
 30
0.0
 11
221.78486060767679
 21
186.86759926908121
 31
0.0
  0
LINE
  5
71D
  8
0
  6
CENTER
 62
     4
 10
223.840279624223
 20
176.312180252535
 30
0.0
 11
223.840279624223
 21
180.42301828562719
 31
0.0
  0
LINE
  5
71E
  8
0
  6
CENTER
 62
     4
 10
221.78486060767679
 20
178.3675992690811
 30
0.0
 11
225.8956986407691
 21
178.3675992690811
 31
0.0
  0
LINE
  5
71F
  8
0
  6
CENTER
 62
     4
 10
219.44027962422291
 20
184.67301828562731
 30
0.0
 11
219.44027962422291
 21
180.56218025253509
 31
0.0
  0
LINE
  5
720
  8
0
  6
CENTER
 62
     4
 10
221.49569864076909
 20
182.61759926908121
 30
0.0
 11
217.38486060767681
 21
182.61759926908121
 31
0.0
  0
LINE
  5
730
  8
0
  6
CENTER
 62
     4
 10
161.22237665939659
 20
182.6175992690811
 30
0.0
 11
157.11153862630439
 21
182.6175992690811
 31
0.0
  0
INSERT
  5
742
  8
0
  6
CONTINUOUS
 62
     4
  2
*U3
 10
0.0
 20
0.0
 30
0.0
1001
GRADIENTCOLOR1ACI
1070
     5
1001
GRADIENTCOLOR2ACI
1070
     2
1001
ACAD
1002
{
1000
R14_HATCH_DATA
1000
742
1011
1.0
1021
0.0
1031
0.0
1021
0.0
1031
0.0
1011
0.0
1021
0.0
1031
0.0
1021
1.0
1031
0.0
1011
0.0
1021
0.0
1031
0.0
1021
0.0
1031
1.0
1040
0.0
1010
0.0
1020
0.0
1030
1.0
1000
SOLID
1070
     1
1070
     0
1071
        2
1071
        7
1070
     0
1070
     1
1071
        3
1040
160.03644008531359
1040
182.9353700163812
1040
160.03644008531359
1040
182.6175992690811
1040
161.2223766593965
1040
182.6175992690811
1071
        0
1071
        7
1070
     0
1070
     1
1071
        3
1040
161.2223766593965
1040
182.6175992690811
1040
160.03644008531359
1040
182.6175992690811
1040
160.03644008531359
1040
182.29982852178111
1071
        0
1070
     1
1070
     1
1040
0.0080358047816621
1071
        2
1040
160.24926177337451
1040
182.73537211998229
1040
0.0
1040
160.18493427815801
1040
182.4380473349602
1040
0.0
1002
}
  0
LINE
  5
745
  8
0
  6
CENTER
 62
     4
 10
242.3871723261073
 20
182.6175992690811
 30
0.0
 11
246.4980103591995
 21
182.6175992690811
 31
0.0
  0
INSERT
  5
747
  8
0
  6
CONTINUOUS
 62
     4
  2
*U4
 10
0.0
 20
0.0
 30
0.0
1001
GRADIENTCOLOR1ACI
1070
     5
1001
GRADIENTCOLOR2ACI
1070
     2
1001
ACAD
1002
{
1000
R14_HATCH_DATA
1000
747
1011
1.0
1021
0.0
1031
0.0
1021
0.0
1031
0.0
1011
0.0
1021
0.0
1031
0.0
1021
1.0
1031
0.0
1011
0.0
1021
0.0
1031
0.0
1021
0.0
1031
1.0
1040
0.0
1010
0.0
1020
0.0
1030
1.0
1000
SOLID
1070
     1
1070
     0
1071
        2
1071
        7
1070
     0
1070
     1
1071
        3
1040
245.37889525503101
1040
182.9353700163812
1040
245.37889525503101
1040
182.6175992690811
1040
246.5648318291139
1040
182.6175992690811
1071
        0
1071
        7
1070
     0
1070
     1
1071
        3
1040
246.5648318291139
1040
182.6175992690811
1040
245.37889525503101
1040
182.6175992690811
1040
245.37889525503101
1040
182.29982852178111
1071
        0
1070
     1
1070
     1
1040
0.0080358047816621
1071
        2
1040
245.591716943092
1040
182.73537211998229
1040
0.0
1040
245.52738944787549
1040
182.4380473349602
1040
0.0
1002
}
  0
INSERT
  5
74B
  8
0
  2
*U5
 10
0.0
 20
0.0
 30
0.0
  0
INSERT
  5
74F
  8
0
  2
*U6
 10
0.0
 20
0.0
 30
0.0
  0
INSERT
  5
750
  8
0
  2
*U7
 10
0.0
 20
0.0
 30
0.0
  0
LINE
  5
841
  8
0
  6
CENTER
 62
     4
 10
153.01025768168401
 20
186.8675992690811
 30
0.0
 11
156.36658813137359
 21
186.8675992690811
 31
0.0
  0
LINE
  5
849
  8
0
  6
CENTER
 62
     4
 10
153.01025768168401
 20
178.36759926908121
 30
0.0
 11
156.36658813137359
 21
178.36759926908121
 31
0.0
  0
LINE
  5
84C
  8
0
  6
CENTER
 62
     4
 10
251.02617560299669
 20
186.8675992690811
 30
0.0
 11
247.66984515330711
 21
186.8675992690811
 31
0.0
  0
LINE
  5
84D
  8
0
  6
CENTER
 62
     4
 10
251.02617560299669
 20
178.36759926908121
 30
0.0
 11
247.66984515330711
 21
178.36759926908121
 31
0.0
  0
LINE
  5
851
  8
0
  6
CENTER
 62
     4
 10
180.2402808036498
 20
200.22802056687519
 30
0.0
 11
180.2402808036498
 21
203.58435101656491
 31
0.0
  0
LINE
  5
856
  8
0
  6
CENTER
 62
     4
 10
223.84027962422289
 20
200.22802056687519
 30
0.0
 11
223.84027962422289
 21
203.58435101656491
 31
0.0
  0
ENDSEC
  0
EOF
