  0
SECTION
  2
HEADER
  9
$ACADVER
  1
AC1009
  9
$INSBASE
 10
177.9999997912175
 20
6.7085914059697132
 30
0.0
  9
$EXTMIN
 10
-164.8588960562945
 20
448.95961761889879
 30
-0.0000000000000058
  9
$EXTMAX
 10
-102.7017611813876
 20
528.04992656497916
 30
0.0000000000000104
  9
$LIMMIN
 10
-185.22394776397229
 20
352.48648918188883
  9
$LIMMAX
 10
-7.2239477639723191
 20
600.78648918188867
  9
$ORTHOMODE
 70
     0
  9
$REGENMODE
 70
     1
  9
$FILLMODE
 70
     1
  9
$QTEXTMODE
 70
     0
  9
$MIRRTEXT
 70
     1
  9
$DRAGMODE
 70
     2
  9
$LTSCALE
 40
1.0
  9
$OSMODE
 70
   679
  9
$ATTMODE
 70
     1
  9
$TEXTSIZE
 40
5.0
  9
$TRACEWID
 40
1.0
  9
$TEXTSTYLE
  7
STANDARD
  9
$CLAYER
  8
0
  9
$CELTYPE
  6
BYLAYER
  9
$CECOLOR
 62
   256
  9
$DIMSCALE
 40
1.0
  9
$DIMASZ
 40
2.5
  9
$DIMEXO
 40
1.0
  9
$DIMDLI
 40
10.0
  9
$DIMRND
 40
0.0
  9
$DIMDLE
 40
0.0
  9
$DIMEXE
 40
1.0
  9
$DIMTP
 40
0.1
  9
$DIMTM
 40
0.1
  9
$DIMTXT
 40
3.5
  9
$DIMCEN
 40
0.0
  9
$DIMTSZ
 40
0.0
  9
$DIMTOL
 70
     1
  9
$DIMLIM
 70
     0
  9
$DIMTIH
 70
     0
  9
$DIMTOH
 70
     0
  9
$DIMSE1
 70
     0
  9
$DIMSE2
 70
     0
  9
$DIMTAD
 70
     3
  9
$DIMZIN
 70
     8
  9
$DIMBLK
  1
OPEN30
  9
$DIMASO
 70
     1
  9
$DIMSHO
 70
     1
  9
$DIMPOST
  1

  9
$DIMAPOST
  1
"
  9
$DIMALT
 70
     0
  9
$DIMALTD
 70
     2
  9
$DIMALTF
 40
0.0393701
  9
$DIMLFAC
 40
1.0
  9
$DIMTOFL
 70
     1
  9
$DIMTVP
 40
0.0
  9
$DIMTIX
 70
     0
  9
$DIMSOXD
 70
     0
  9
$DIMSAH
 70
     0
  9
$DIMBLK1
  1

  9
$DIMBLK2
  1

  9
$DIMSTYLE
  2
AM_JIS
  9
$DIMCLRD
 70
   256
  9
$DIMCLRE
 70
   256
  9
$DIMCLRT
 70
     2
  9
$DIMTFAC
 40
0.71
  9
$DIMGAP
 40
1.5
  9
$LUNITS
 70
     2
  9
$LUPREC
 70
     2
  9
$SKETCHINC
 40
1.0
  9
$FILLETRAD
 40
0.0
  9
$AUNITS
 70
     0
  9
$AUPREC
 70
     0
  9
$MENU
  1
.
  9
$ELEVATION
 40
0.0
  9
$PELEVATION
 40
0.0
  9
$THICKNESS
 40
0.0
  9
$LIMCHECK
 70
     0
  9
$BLIPMODE
 70
     0
  9
$CHAMFERA
 40
0.0
  9
$CHAMFERB
 40
0.0
  9
$SKPOLY
 70
     0
  9
$TDCREATE
 40
2456989.6000408102
  9
$TDUPDATE
 40
2456989.8443998732
  9
$TDINDWG
 40
0.0409877199
  9
$TDUSRTIMER
 40
0.0409875347
  9
$USRTIMER
 70
     1
  9
$ANGBASE
 50
0.0
  9
$ANGDIR
 70
     0
  9
$PDMODE
 70
     0
  9
$PDSIZE
 40
0.0
  9
$PLINEWID
 40
0.0
  9
$COORDS
 70
     0
  9
$SPLFRAME
 70
     0
  9
$SPLINETYPE
 70
     6
  9
$SPLINESEGS
 70
     8
  9
$ATTDIA
 70
     1
  9
$ATTREQ
 70
     1
  9
$HANDLING
 70
     1
  9
$HANDSEED
  5
4A0B
  9
$SURFTAB1
 70
     6
  9
$SURFTAB2
 70
     6
  9
$SURFTYPE
 70
     6
  9
$SURFU
 70
     6
  9
$SURFV
 70
     6
  9
$UCSNAME
  2

  9
$UCSORG
 10
0.0
 20
0.0
 30
0.0
  9
$UCSXDIR
 10
1.0
 20
0.0
 30
0.0
  9
$UCSYDIR
 10
0.0
 20
1.0
 30
0.0
  9
$PUCSNAME
  2

  9
$PUCSORG
 10
0.0
 20
0.0
 30
0.0
  9
$PUCSXDIR
 10
1.0
 20
0.0
 30
0.0
  9
$PUCSYDIR
 10
0.0
 20
1.0
 30
0.0
  9
$USERI1
 70
     0
  9
$USERI2
 70
     0
  9
$USERI3
 70
     0
  9
$USERI4
 70
     0
  9
$USERI5
 70
     0
  9
$USERR1
 40
0.0
  9
$USERR2
 40
0.0
  9
$USERR3
 40
0.0
  9
$USERR4
 40
0.0
  9
$USERR5
 40
0.0
  9
$WORLDVIEW
 70
     1
  9
$SHADEDGE
 70
     3
  9
$SHADEDIF
 70
    70
  9
$TILEMODE
 70
     1
  9
$MAXACTVP
 70
    64
  9
$PLIMCHECK
 70
     0
  9
$PEXTMIN
 10
1.0000000000000000E+020
 20
1.0000000000000000E+020
 30
1.0000000000000000E+020
  9
$PEXTMAX
 10
-1.0000000000000000E+020
 20
-1.0000000000000000E+020
 30
-1.0000000000000000E+020
  9
$PLIMMIN
 10
-5.873748779296875
 20
-5.8737497329711914
  9
$PLIMMAX
 10
291.05224609375
 20
204.0995779037475
  9
$UNITMODE
 70
     0
  9
$VISRETAIN
 70
     1
  9
$PLINEGEN
 70
     0
  9
$PSLTSCALE
 70
     1
  0
ENDSEC
  0
SECTION
  2
TABLES
  0
TABLE
  2
VPORT
 70
     1
  0
VPORT
  2
*ACTIVE
 70
     0
 10
0.0
 20
0.0
 11
1.0
 21
1.0
 12
-133.78032861884111
 22
488.504772091939
 13
0.0
 23
0.0
 14
2.5
 24
2.5
 15
10.0
 25
10.0
 16
0.0
 26
0.0
 36
1.0
 17
0.0
 27
0.0
 37
0.0
 40
79.76301336584325
 41
1.6081582200247211
 42
50.0
 43
0.0
 44
0.0
 50
0.0
 51
0.0
 71
     0
 72
   100
 73
     1
 74
     1
 75
     0
 76
     0
 77
     0
 78
     0
  0
ENDTAB
  0
TABLE
  2
LTYPE
 70
    18
  0
LTYPE
  2
CONTINUOUS
 70
     0
  3
Solid line
 72
    65
 73
     0
 40
0.0
  0
LTYPE
  2
AM_ISO02W050
 70
     0
  3
__ __ __ __ __ __ __ __ __ __ __ __ __ __ __
 72
    65
 73
     2
 40
7.5
 49
6.0
 49
-1.5
  0
LTYPE
  2
AM_ISO08W050
 70
     0
  3
____ . ____ . ____ . ____ . ____ . ____ . ____
 72
    65
 73
     4
 40
18.0
 49
12.0
 49
-1.5
 49
3.0
 49
-1.5
  0
LTYPE
  2
AM_ISO09W050
 70
     0
  3
_____ . . _____ . . _____ . . ____ .. ____
 72
    65
 73
     6
 40
22.5
 49
12.0
 49
-1.5
 49
3.0
 49
-1.5
 49
3.0
 49
-1.5
  0
LTYPE
  2
AMCONSTR
 70
     0
  3
_______________________
 72
    65
 73
     2
 40
9999.0
 49
9999.0
 49
0.0
  0
LTYPE
  2
AM_ISO02W050X2
 70
     0
  3
 _ _ _ _ _ _ _ _ _ _ _ _
 72
    65
 73
     2
 40
3.75
 49
3.0
 49
-0.75
  0
LTYPE
  2
AM_ISO08W050X2
 70
     0
  3
__ . __ . __ . __ . __ . __
 72
    65
 73
     4
 40
9.0
 49
6.0
 49
-0.75
 49
1.5
 49
-0.75
  0
LTYPE
  2
AMZIGZAG
 70
     0
  3
/\/-/\/-/\/-/\/-/\/-/\/
 72
    65
 73
     2
 40
11.0001
 49
0.0001
 49
-11.0
  0
LTYPE
  2
CENTER
 70
     0
  3
____ _ ____ _
 72
    65
 73
     4
 40
13.42150481887249
 49
8.3884405117953058
 49
-1.67768810235906
 49
1.67768810235906
 49
-1.67768810235906
  0
LTYPE
  2
HIDDEN
 70
     0
  3
_ _ _ _ _ _ _
 72
    65
 73
     2
 40
2.5165321535385901
 49
1.67768810235906
 49
-0.8388440511795305
  0
LTYPE
  2
PHANTOM2
 70
     0
  3
Phantom (.5x) ___ _ _ ___ _ _ ___ _ _ ___ _ _
 72
    65
 73
     6
 40
1.25
 49
0.625
 49
-0.125
 49
0.125
 49
-0.125
 49
0.125
 49
-0.125
  0
LTYPE
  2
ACJISTGB
 70
     0
  3
__ . . __ . .
 72
    65
 73
     6
 40
9.0
 49
4.0
 49
-1.0
 49
1.0
 49
-1.0
 49
1.0
 49
-1.0
  0
LTYPE
  2
ACJISTGL
 70
     0
  3
_ _ _ _ _
 72
    65
 73
     2
 40
3.0
 49
2.0
 49
-1.0
  0
LTYPE
  2
ACANSTGBM
 70
     0
  3
__ . . __ . .
 72
    65
 73
     6
 40
9.0
 49
4.0
 49
-1.0
 49
1.0
 49
-1.0
 49
1.0
 49
-1.0
  0
LTYPE
  2
ACANSTGLM
 70
     0
  3
_ _ _ _ _
 72
    65
 73
     2
 40
3.0
 49
2.0
 49
-1.0
  0
LTYPE
  2
ACISOWELD
 70
     0
  3
_ _ _ _ _
 72
    65
 73
     2
 40
2.0
 49
2.0
 49
-1.0
  0
LTYPE
  2
ACISOTGB
 70
     0
  3
__ . . __ . .
 72
    65
 73
     6
 40
9.0
 49
4.0
 49
-1.0
 49
1.0
 49
-1.0
 49
1.0
 49
-1.0
  0
LTYPE
  2
ACISOTGL
 70
     0
  3
_ _ _ _ _
 72
    65
 73
     2
 40
3.0
 49
2.0
 49
-1.0
  0
ENDTAB
  0
TABLE
  2
LAYER
 70
     2
  0
LAYER
  2
0
 70
     0
 62
     7
  6
CONTINUOUS
  0
LAYER
  2
DEFPOINTS
 70
     0
 62
     7
  6
CONTINUOUS
  0
ENDTAB
  0
TABLE
  2
STYLE
 70
     8
  0
STYLE
  2
STANDARD
 70
     0
 40
0.0
 41
1.0
 50
0.0
 71
     0
 42
5.0
  3
isocp.shx
  4
extfont.shx
  0
STYLE
  2

 70
     1
 40
0.0
 41
1.0
 50
0.0
 71
     0
 42
2.5
  3
ltypeshp.shx
  4

  0
STYLE
  2
ACJISTS
 70
     0
 40
1.0
 41
1.0
 50
0.0
 71
     0
 42
3.5
  3
isocp.shx
  4
bigfont.shx
  0
STYLE
  2
ACJISGDT
 70
     0
 40
0.0
 41
1.0
 50
0.0
 71
     0
 42
3.5
  3
amgdt.shx
  4

  0
STYLE
  2
ACANSTS
 70
     0
 40
1.0
 41
1.0
 50
0.0
 71
     0
 42
5.0
  3
romans.shx
  4
extfont.shx
  0
STYLE
  2
ACANSGDT
 70
     0
 40
0.0
 41
1.0
 50
0.0
 71
     0
 42
5.0
  3
amgdtans.shx
  4

  0
STYLE
  2
ACISOTS
 70
     0
 40
1.0
 41
1.0
 50
0.0
 71
     0
 42
3.5
  3
isocp.shx
  4
extfont.shx
  0
STYLE
  2
ACISOGDT
 70
     0
 40
0.0
 41
1.0
 50
0.0
 71
     0
 42
3.5
  3
amgdt.shx
  4

  0
ENDTAB
  0
TABLE
  2
VIEW
 70
     7
  0
VIEW
  2
AM_VIEW1
 70
     1
 40
148.46299743652341
 10
150.7615237454755
 20
216.82074642181399
 41
313.27054504954492
 11
0.0
 21
0.0
 31
1.0
 12
0.0
 22
0.0
 32
0.0
 42
50.0
 43
0.0
 44
0.0
 50
0.0
 71
     0
  0
VIEW
  2
AM_VIEW2
 70
     1
 40
148.46299743652341
 10
257.43763396936822
 20
216.82074642181399
 41
313.27054504954492
 11
0.0
 21
0.0
 31
1.0
 12
0.0
 22
0.0
 32
0.0
 42
50.0
 43
0.0
 44
0.0
 50
0.0
 71
     0
  0
VIEW
  2
AM_VIEW3
 70
     1
 40
148.46299743652341
 10
150.7615237454755
 20
68.357748985290513
 41
313.27054504954492
 11
0.0
 21
0.0
 31
1.0
 12
0.0
 22
0.0
 32
0.0
 42
50.0
 43
0.0
 44
0.0
 50
0.0
 71
     0
  0
VIEW
  2
AM_VIEW4
 70
     1
 40
148.46299743652341
 10
257.43763396936822
 20
68.357748985290513
 41
313.27054504954492
 11
0.0
 21
0.0
 31
1.0
 12
0.0
 22
0.0
 32
0.0
 42
50.0
 43
0.0
 44
0.0
 50
0.0
 71
     0
  0
VIEW
  2
AM_VIEW5
 70
     1
 40
148.46299743652341
 10
204.0995788574219
 20
142.58924770355219
 41
313.27054504954481
 11
0.0
 21
0.0
 31
1.0
 12
0.0
 22
0.0
 32
0.0
 42
50.0
 43
0.0
 44
0.0
 50
0.0
 71
     0
  0
VIEW
  2
AM_VIEW6
 70
     1
 40
296.92302561309822
 10
204.0995788574219
 20
142.58924770355219
 41
626.53482468818868
 11
0.0
 21
0.0
 31
1.0
 12
0.0
 22
0.0
 32
0.0
 42
50.0
 43
0.0
 44
0.0
 50
0.0
 71
     0
  0
ENDTAB
  0
TABLE
  2
UCS
 70
     0
  0
ENDTAB
  0
TABLE
  2
APPID
 70
    55
  0
APPID
  2
ACAD
 70
     0
  0
APPID
  2
MCAD_NO_VIS
 70
     0
  0
APPID
  2
ACAD_TEMP_GRAPHIC
 70
     0
  0
APPID
  2
GENIUS_GENODEF_13
 70
     0
  0
APPID
  2
GENIUS_GENOBJ-N-TIT_13
 70
     0
  0
APPID
  2
GENIUS_GENTITLE_13
 70
     0
  0
APPID
  2
GENIUS_GENOENT_13
 70
     0
  0
APPID
  2
GENIUS_GENOREF_13
 70
     0
  0
APPID
  2
GENIUS_GENOLIS_13
 70
     0
  0
APPID
  2
GENIUS_GENZVEED_13
 70
     0
  0
APPID
  2
GENIUS_GENSCREG_15
 70
     0
  0
APPID
  2
GENIUS_GENOBJ-N-SDF_13
 70
     0
  0
APPID
  2
GENIUS_GENOBJ-N-CEN_13
 70
     0
  0
APPID
  2
GENIUS_GENOBJ-N-SEC_13
 70
     0
  0
APPID
  2
GENIUS_GENREC_14
 70
     0
  0
APPID
  2
GENIUS_GENOBJ-N-REC_13
 70
     0
  0
APPID
  2
GENIUS_GENBH_13
 70
     0
  0
APPID
  2
GENIUS_GENOBJ-NBEHI-BHF_13
 70
     0
  0
APPID
  2
GENIUS_GENOBJ-NBEHI-BHB_13
 70
     0
  0
APPID
  2
GENIUS_GENDTOL_13
 70
     0
  0
APPID
  2
GENIUS_GENOBJ-N-HTC_13
 70
     0
  0
APPID
  2
GENIUS_GENHATCH_13
 70
     0
  0
APPID
  2
GENIUS_GENOBJ-N-CRS_13
 70
     0
  0
APPID
  2
GENIUS_GENOBJ-N-CRC_13
 70
     0
  0
APPID
  2
GENIUS_GENCRC_14
 70
     0
  0
APPID
  2
GENIUS_GENOBJ-F-SHCL_13
 70
     0
  0
APPID
  2
GENIUS_GEFMSH_13
 70
     0
  0
APPID
  2
GENIUS_GEFSH_13
 70
     0
  0
APPID
  2
GENIUS_GEFSHP_13
 70
     0
  0
APPID
  2
GENIUS_GENOBJ-F-SHS_13
 70
     0
  0
APPID
  2
GENIUS_GENOBJ-F-SHSS_13
 70
     0
  0
APPID
  2
GENIUS_GEFSHP0_13
 70
     0
  0
APPID
  2
GENIUS_GEFSH0_13
 70
     0
  0
APPID
  2
GEVID995428964
 70
     0
  0
APPID
  2
GEVDC
 70
     0
  0
APPID
  2
GENIUS_GENBH_14
 70
     0
  0
APPID
  2
GEVID995428965
 70
     0
  0
APPID
  2
GEVID995428966
 70
     0
  0
APPID
  2
GENIUS_GENBHRL_14
 70
     0
  0
APPID
  2
GEVID995428967
 70
     0
  0
APPID
  2
GEVID995428968
 70
     0
  0
APPID
  2
GENIUS_GENOBJ-F-SHCV_13
 70
     0
  0
APPID
  2
ACATTRIBSERVICES
 70
     0
  0
APPID
  2
GENIUS_GENTRA_14
 70
     0
  0
APPID
  2
DESIGNERASSEMBLIES
 70
     0
  0
APPID
  2
ACAD_PSEXT
 70
     0
  0
APPID
  2
ACAD_NAV_VCDISPLAY
 70
     0
  0
APPID
  2
GENIUS_GENCEN_19
 70
     0
  0
APPID
  2
ACAECLAYERSTANDARD
 70
     0
  0
APPID
  2
ACAD_DSTYLE_DIMBREAK
 70
     0
  0
APPID
  2
ACAD_DSTYLE_DIMJAG
 70
     0
  0
APPID
  2
ACAD_DSTYLE_DIMINSPECT
 70
     0
  0
APPID
  2
ACAD_DSTYLE_DIMRADIAL_EXTENSION
 70
     0
  0
APPID
  2
ACAD_EXEMPT_FROM_CAD_STANDARDS
 70
     0
  0
APPID
  2
ACAD_MLEADERVER
 70
     0
  0
ENDTAB
  0
TABLE
  2
DIMSTYLE
 70
     8
  0
DIMSTYLE
  2
AM_JIS
 70
     0
  3

  4
"
  5
OPEN30
  6

  7

 40
1.0
 41
2.5
 42
1.0
 43
10.0
 44
1.0
 45
0.0
 46
0.0
 47
0.1
 48
0.1
140
3.5
141
0.0
142
0.0
143
0.0393701
144
1.0
145
0.0
146
0.71
147
1.5
 71
     1
 72
     0
 73
     0
 74
     0
 75
     0
 76
     0
 77
     3
 78
     8
170
     0
171
     2
172
     1
173
     0
174
     0
175
     0
176
   256
177
   256
178
     2
  0
DIMSTYLE
  2
AM_JIS$3
 70
     0
  3

  4
"
  5
OPEN30
  6

  7

 40
1.0
 41
2.5
 42
1.0
 43
10.0
 44
1.0
 45
0.0
 46
0.0
 47
0.1
 48
0.1
140
3.5
141
0.0
142
0.0
143
0.0393701
144
1.0
145
0.0
146
0.71
147
1.5
 71
     1
 72
     0
 73
     1
 74
     1
 75
     0
 76
     0
 77
     3
 78
     8
170
     0
171
     2
172
     0
173
     0
174
     0
175
     0
176
   256
177
   256
178
     2
  0
DIMSTYLE
  2
AM_JIS$4
 70
     0
  3

  4
"
  5
OPEN30
  6

  7

 40
1.0
 41
2.5
 42
1.0
 43
10.0
 44
1.0
 45
0.0
 46
0.0
 47
0.1
 48
0.1
140
3.5
141
0.0
142
0.0
143
0.0393701
144
1.0
145
0.0
146
0.71
147
1.5
 71
     1
 72
     0
 73
     0
 74
     0
 75
     0
 76
     0
 77
     3
 78
     8
170
     0
171
     2
172
     0
173
     0
174
     0
175
     0
176
   256
177
   256
178
     2
  0
DIMSTYLE
  2
AM_JIS$6
 70
     0
  3

  4
"
  5
OPEN30
  6

  7

 40
1.0
 41
2.5
 42
1.0
 43
10.0
 44
1.0
 45
0.0
 46
0.0
 47
0.1
 48
0.1
140
3.5
141
0.0
142
0.0
143
0.0393701
144
1.0
145
0.0
146
0.71
147
1.5
 71
     1
 72
     0
 73
     0
 74
     0
 75
     0
 76
     0
 77
     3
 78
     8
170
     0
171
     2
172
     1
173
     0
174
     0
175
     0
176
   256
177
   256
178
     2
  0
DIMSTYLE
  2
AM_JIS$7
 70
     0
  3

  4
"
  5
OPEN30
  6

  7

 40
1.0
 41
2.5
 42
1.0
 43
10.0
 44
1.0
 45
0.0
 46
0.0
 47
0.1
 48
0.1
140
5.0
141
0.0
142
0.0
143
0.0393701
144
1.0
145
0.0
146
0.71
147
1.5
 71
     1
 72
     0
 73
     0
 74
     0
 75
     0
 76
     0
 77
     3
 78
     8
170
     0
171
     2
172
     1
173
     0
174
     0
175
     0
176
   256
177
   256
178
     2
  0
DIMSTYLE
  2
AM_JIS$SF
 70
     0
  3

  4
"
  5
OPEN30
  6
OPEN30
  7
OPEN30
 40
1.0
 41
2.5
 42
1.0
 43
10.0
 44
1.0
 45
0.0
 46
0.0
 47
0.1
 48
0.1
140
3.5
141
0.0
142
0.0
143
0.0393701
144
1.0
145
0.0
146
0.71
147
1.5
 71
     0
 72
     0
 73
     0
 74
     0
 75
     1
 76
     1
 77
     3
 78
     8
170
     0
171
     2
172
     1
173
     0
174
     0
175
     0
176
   256
177
   256
178
     2
  0
DIMSTYLE
  2
AM_JIS$SH
 70
     0
  3

  4
"
  5
OPEN30
  6
GENAXEH
  7
OPEN30
 40
1.0
 41
2.5
 42
1.0
 43
10.0
 44
1.0
 45
0.0
 46
0.0
 47
0.1
 48
0.1
140
3.5
141
0.0
142
0.0
143
0.0393701
144
2.0
145
0.0
146
0.71
147
1.5
 71
     0
 72
     0
 73
     0
 74
     0
 75
     1
 76
     1
 77
     3
 78
     8
170
     0
171
     2
172
     1
173
     1
174
     0
175
     0
176
   256
177
   256
178
     2
  0
DIMSTYLE
  2
STANDARD
 70
     0
  3

  4

  5

  6

  7

 40
1.0
 41
0.18
 42
0.0625
 43
0.38
 44
0.18
 45
0.0
 46
0.0
 47
0.0
 48
0.0
140
0.18
141
0.09
142
0.0
143
25.399999999999999
144
1.0
145
0.0
146
1.0
147
0.09
 71
     0
 72
     0
 73
     1
 74
     1
 75
     0
 76
     0
 77
     0
 78
     0
170
     0
171
     2
172
     0
173
     0
174
     0
175
     0
176
     0
177
     0
178
     0
  0
ENDTAB
  0
ENDSEC
  0
SECTION
  2
BLOCKS
  0
BLOCK
  8
0
  2
$MODEL_SPACE
 70
     2
 10
0.0
 20
0.0
 30
0.0
  3
$MODEL_SPACE
  1

  0
ENDBLK
  5
A
  8
0
  0
BLOCK
 67
     1
  8
0
  2
$PAPER_SPACE
 70
     0
 10
0.0
 20
0.0
 30
0.0
  3
$PAPER_SPACE
  1

  0
ENDBLK
  5
3C1E
 67
     1
  8
0
  0
BLOCK
  8
0
  2
GENAXEH
 70
     0
 10
0.0
 20
0.0
 30
0.0
  3
GENAXEH
  1

  0
LINE
  5
98
  8
0
 10
-1.0
 20
0.0
 30
0.0
 11
1.0
 21
0.0
 31
0.0
  0
ENDBLK
  5
9A
  8
0
  0
BLOCK
  8
0
 62
     0
  2
_OPEN30
 70
     0
 10
0.0
 20
0.0
 30
0.0
  3
_OPEN30
  1

  0
LINE
  5
21
  8
0
 62
     0
 10
-1.0
 20
0.26794919
 30
0.0
 11
0.0
 21
0.0
 31
0.0
  0
LINE
  5
22
  8
0
 62
     0
 10
0.0
 20
0.0
 30
0.0
 11
-1.0
 21
-0.26794919
 31
0.0
  0
LINE
  5
23
  8
0
 62
     0
 10
0.0
 20
0.0
 30
0.0
 11
-1.0
 21
0.0
 31
0.0
  0
ENDBLK
  5
25
  8
0
 62
     0
  0
BLOCK
  8
0
  2
*U3
 70
     1
 10
0.0
 20
0.0
 30
0.0
  3
*U3
  1

  0
TEXT
  5
4A08
  8
0
 62
     2
 10
-120.56400766092941
 20
449.84949267077582
 30
0.0
 40
3.5
  1
pm-t45
  0
ENDBLK
  5
4A0A
  8
0
  0
ENDSEC
  0
SECTION
  2
ENTITIES
  0
INSERT
  5
3F57
  8
0
  2
*U3
 10
0.0
 20
0.0
 30
0.0
  0
LINE
  5
474F
  8
0
  6
CONTINUOUS
 62
     7
 10
-110.02487078743469
 20
488.59816821215412
 30
0.0
 11
-110.02487078743469
 21
480.19816821215409
 31
0.0
  0
LINE
  5
4750
  8
0
  6
CONTINUOUS
 62
     7
 10
-110.02487078743469
 20
480.19816821215409
 30
0.0
 11
-116.02487078743469
 21
480.19816821215409
 31
0.0
  0
LINE
  5
4751
  8
0
  6
CONTINUOUS
 62
     7
 10
-116.02487078743469
 20
480.19816821215409
 30
0.0
 11
-116.02487078743469
 21
488.59816821215412
 31
0.0
  0
LINE
  5
4752
  8
0
  6
CONTINUOUS
 62
     7
 10
-116.02487078743469
 20
488.59816821215412
 30
0.0
 11
-119.7248707874347
 21
488.59816821215412
 31
0.0
  0
LINE
  5
4753
  8
0
  6
CONTINUOUS
 62
     7
 10
-119.7248707874347
 20
488.59816821215412
 30
0.0
 11
-119.7248707874347
 21
471.39816821215408
 31
0.0
  0
LINE
  5
4754
  8
0
  6
CONTINUOUS
 62
     7
 10
-110.02487078743469
 20
488.59816821215412
 30
0.0
 11
-106.3248707874347
 21
488.59816821215412
 31
0.0
  0
LINE
  5
4755
  8
0
  6
CONTINUOUS
 62
     7
 10
-106.3248707874347
 20
488.59816821215412
 30
0.0
 11
-106.3248707874347
 21
476.69816821215397
 31
0.0
  0
LINE
  5
4756
  8
0
  6
CONTINUOUS
 62
     7
 10
-119.7248707874347
 20
518.0383322153657
 30
0.0
 11
-106.3248707874347
 21
518.0383322153657
 31
0.0
  0
LINE
  5
4757
  8
0
  6
CONTINUOUS
 62
     7
 10
-106.3248707874347
 20
512.03833221536559
 30
0.0
 11
-119.7248707874347
 21
512.03833221536559
 31
0.0
  0
LINE
  5
4758
  8
0
  6
CONTINUOUS
 62
     7
 10
-110.02487078743469
 20
518.0383322153657
 30
0.0
 11
-110.02487078743469
 21
512.03833221536593
 31
0.0
  0
LINE
  5
4759
  8
0
  6
CONTINUOUS
 62
     7
 10
-116.02487078743469
 20
518.0383322153657
 30
0.0
 11
-116.02487078743469
 21
512.03833221536593
 31
0.0
  0
LINE
  5
475A
  8
0
  6
CONTINUOUS
 62
     7
 10
-111.77487078743469
 20
471.39816821215408
 30
0.0
 11
-111.77487078743469
 21
462.29816821215411
 31
0.0
  0
LINE
  5
475B
  8
0
  6
CONTINUOUS
 62
     7
 10
-114.27487078743469
 20
462.29816821215411
 30
0.0
 11
-114.27487078743469
 21
471.39816821215408
 31
0.0
  0
LINE
  5
475D
  8
0
  6
CONTINUOUS
 62
     7
 10
-148.24927448841859
 20
471.39816821215408
 30
0.0
 11
-148.24927448841859
 21
488.59816821215412
 31
0.0
  0
LINE
  5
475E
  8
0
  6
CONTINUOUS
 62
     7
 10
-148.24927448841859
 20
488.59816821215412
 30
0.0
 11
-154.24927448841859
 21
488.59816821215412
 31
0.0
  0
LINE
  5
475F
  8
0
  6
CONTINUOUS
 62
     7
 10
-154.24927448841859
 20
488.59816821215412
 30
0.0
 11
-154.24927448841859
 21
471.39816821215408
 31
0.0
  0
LINE
  5
4761
  8
0
  6
CONTINUOUS
 62
     7
 10
-149.99927448841859
 20
471.39816821215408
 30
0.0
 11
-149.99927448841859
 21
462.29816821215411
 31
0.0
  0
LINE
  5
4762
  8
0
  6
CONTINUOUS
 62
     7
 10
-152.49927448841871
 20
462.29816821215411
 30
0.0
 11
-152.49927448841871
 21
471.39816821215408
 31
0.0
  0
LINE
  5
4764
  8
0
  6
CENTER
 62
     4
 10
-151.24927448841859
 20
489.995168212154
 30
0.0
 11
-151.24927448841859
 21
459.6108497421061
 31
0.0
1001
GENIUS_GENOBJ-N-CEN_13
1002
{
1000
OWNER
1000
GEN
1002
}
1001
GENIUS_GENODEF_13
1002
{
1000
HIER
1070
     0
1002
}
1002
{
1000
MANEDIT
1070
     0
1002
}
1002
{
1000
NOSEL
1070
     0
1002
}
1002
{
1000
BEHIND
1070
     0
1002
}
1002
{
1000
OTHER
1070
     0
1002
}
1002
{
1000
REACTOR
1002
}
1001
GENIUS_GENCEN_19
1002
{
1040
1.397
1002
}
  0
LINE
  5
4766
  8
0
  6
CENTER
 62
     4
 10
-102.70727078743469
 20
515.0383322153657
 30
0.0
 11
-123.34247078743471
 21
515.0383322153657
 31
0.0
1001
GENIUS_GENODEF_13
1002
{
1000
HIER
1070
     0
1002
}
1002
{
1000
MANEDIT
1070
     0
1002
}
1002
{
1000
NOSEL
1070
     0
1002
}
1002
{
1000
BEHIND
1070
     0
1002
}
1002
{
1000
OTHER
1070
     0
1002
}
1002
{
1000
REACTOR
1002
}
1001
GENIUS_GENOBJ-N-CEN_13
1002
{
1000
OWNER
1000
GEN
1002
}
1001
GENIUS_GENCEN_19
1002
{
1040
1.397
1002
}
  0
LINE
  5
4767
  8
0
  6
CENTER
 62
     4
 10
-113.02487078743469
 20
519.43533221536563
 30
0.0
 11
-113.02487078743469
 21
510.64133221536582
 31
0.0
1001
GENIUS_GENODEF_13
1002
{
1000
HIER
1070
     0
1002
}
1002
{
1000
MANEDIT
1070
     0
1002
}
1002
{
1000
NOSEL
1070
     0
1002
}
1002
{
1000
BEHIND
1070
     0
1002
}
1002
{
1000
OTHER
1070
     0
1002
}
1002
{
1000
REACTOR
1002
}
1001
GENIUS_GENOBJ-N-CEN_13
1002
{
1000
OWNER
1000
GEN
1002
}
1001
GENIUS_GENCEN_19
1002
{
1040
1.397
1002
}
  0
LINE
  5
4768
  8
0
  6
CENTER
 62
     4
 10
-113.02487078743469
 20
489.93414285530002
 30
0.0
 11
-113.02487078743469
 21
461.06427594096692
 31
0.0
1001
GENIUS_GENODEF_13
1002
{
1000
HIER
1070
     0
1002
}
1002
{
1000
MANEDIT
1070
     0
1002
}
1002
{
1000
NOSEL
1070
     0
1002
}
1002
{
1000
BEHIND
1070
     0
1002
}
1002
{
1000
OTHER
1070
     0
1002
}
1002
{
1000
REACTOR
1002
}
1001
GENIUS_GENOBJ-N-CEN_13
1002
{
1000
OWNER
1000
GEN
1002
}
1001
GENIUS_GENCEN_19
1002
{
1040
1.397
1002
}
  0
LINE
  5
4769
  8
0
  6
CONTINUOUS
 62
     7
 10
-119.7248707874347
 20
518.0383322153657
 30
0.0
 11
-119.7248707874347
 21
512.03833221536559
 31
0.0
  0
LINE
  5
476A
  8
0
  6
CONTINUOUS
 62
     7
 10
-106.3248707874347
 20
518.0383322153657
 30
0.0
 11
-106.3248707874347
 21
512.03833221536559
 31
0.0
  0
LINE
  5
476B
  8
0
  6
CONTINUOUS
 62
     7
 10
-106.02487078743469
 20
528.0383322153657
 30
0.0
 11
-106.02487078743469
 21
502.0383322153657
 31
0.0
  0
LINE
  5
476C
  8
0
  6
CONTINUOUS
 62
     7
 10
-106.02487078743469
 20
502.0383322153657
 30
0.0
 11
-108.52487078743469
 21
502.0383322153657
 31
0.0
  0
LINE
  5
476D
  8
0
  6
CONTINUOUS
 62
     7
 10
-108.52487078743469
 20
502.0383322153657
 30
0.0
 11
-108.52487078743469
 21
512.03833221536559
 31
0.0
  0
LINE
  5
476E
  8
0
  6
CONTINUOUS
 62
     7
 10
-108.52487078743469
 20
470.49816821215398
 30
0.0
 11
-106.02487078743469
 21
470.49816821215398
 31
0.0
  0
LINE
  5
476F
  8
0
  6
CONTINUOUS
 62
     7
 10
-106.02487078743469
 20
470.49816821215398
 30
0.0
 11
-106.02487078743469
 21
476.69816821215397
 31
0.0
  0
LINE
  5
4770
  8
0
  6
CONTINUOUS
 62
     7
 10
-106.02487078743469
 20
476.69816821215397
 30
0.0
 11
-108.52487078743469
 21
476.69816821215397
 31
0.0
  0
LINE
  5
4771
  8
0
  6
CONTINUOUS
 62
     7
 10
-108.52487078743469
 20
476.69816821215397
 30
0.0
 11
-108.52487078743469
 21
470.49816821215398
 31
0.0
  0
LINE
  5
4772
  8
0
  6
CONTINUOUS
 62
     7
 10
-108.52487078743469
 20
471.39816821215408
 30
0.0
 11
-119.7248707874347
 21
471.39816821215408
 31
0.0
  0
LINE
  5
4773
  8
0
  6
CONTINUOUS
 62
     7
 10
-148.24927448841859
 20
476.69816821215397
 30
0.0
 11
-140.24927448841871
 21
476.69816821215397
 31
0.0
  0
ARC
  5
4774
  8
0
  6
CONTINUOUS
 62
     7
 10
-140.24927448841871
 20
474.69816821215409
 30
0.0
 40
2.0
 50
0.0
 51
90.0
  0
LINE
  5
4775
  8
0
  6
CONTINUOUS
 62
     7
 10
-138.24927448841871
 20
474.69816821215409
 30
0.0
 11
-138.24927448841871
 21
472.4981682121541
 31
0.0
  0
ARC
  5
4776
  8
0
  6
CONTINUOUS
 62
     7
 10
-140.24927448841871
 20
472.4981682121541
 30
0.0
 40
2.0
 50
270.0
 51
0.0
  0
LINE
  5
4777
  8
0
  6
CONTINUOUS
 62
     7
 10
-140.24927448841871
 20
470.49816821215398
 30
0.0
 11
-149.99927448841859
 21
470.49816821215398
 31
0.0
  0
LINE
  5
4778
  8
0
  6
CONTINUOUS
 62
     7
 10
-148.24927448841859
 20
471.39816821215408
 30
0.0
 11
-154.24927448841859
 21
471.39816821215408
 31
0.0
  0
ARC
  5
4779
  8
0
  6
CONTINUOUS
 62
     7
 10
-140.64927448841871
 20
473.59816821215412
 30
0.0
 40
1.6000000000000221
 50
270.0
 51
90.0
  0
ARC
  5
477A
  8
0
  6
CONTINUOUS
 62
     7
 10
-141.74927448841859
 20
473.59816821215412
 30
0.0
 40
1.6000000000000221
 50
90.0
 51
270.0
  0
LINE
  5
477B
  8
0
  6
CONTINUOUS
 62
     7
 10
-140.64927448841871
 20
475.19816821215409
 30
0.0
 11
-141.74927448841859
 21
475.19816821215409
 31
0.0
  0
LINE
  5
477C
  8
0
  6
CONTINUOUS
 62
     7
 10
-140.64927448841871
 20
471.9981682121541
 30
0.0
 11
-141.74927448841859
 21
471.9981682121541
 31
0.0
  0
LINE
  5
477D
  8
0
  6
CONTINUOUS
 62
     7
 10
-154.24927448841859
 20
476.69816821215397
 30
0.0
 11
-162.24927448841871
 21
476.69816821215397
 31
0.0
  0
ARC
  5
477E
  8
0
  6
CONTINUOUS
 62
     7
 10
-162.24927448841871
 20
474.69816821215409
 30
0.0
 40
2.0
 50
90.0
 51
180.0
  0
LINE
  5
477F
  8
0
  6
CONTINUOUS
 62
     7
 10
-164.24927448841871
 20
474.69816821215409
 30
0.0
 11
-164.24927448841871
 21
472.4981682121541
 31
0.0
  0
ARC
  5
4780
  8
0
  6
CONTINUOUS
 62
     7
 10
-162.24927448841871
 20
472.4981682121541
 30
0.0
 40
2.0
 50
180.0
 51
270.0
  0
LINE
  5
4781
  8
0
  6
CONTINUOUS
 62
     7
 10
-162.24927448841871
 20
470.49816821215398
 30
0.0
 11
-152.49927448841871
 21
470.49816821215398
 31
0.0
  0
ARC
  5
4782
  8
0
  6
CONTINUOUS
 62
     7
 10
-161.8492744884187
 20
473.59816821215412
 30
0.0
 40
1.6000000000000221
 50
90.0
 51
270.0
  0
ARC
  5
4783
  8
0
  6
CONTINUOUS
 62
     7
 10
-160.74927448841871
 20
473.59816821215412
 30
0.0
 40
1.6000000000000221
 50
270.0
 51
90.0
  0
LINE
  5
4784
  8
0
  6
CONTINUOUS
 62
     7
 10
-161.8492744884187
 20
475.19816821215409
 30
0.0
 11
-160.74927448841871
 21
475.19816821215409
 31
0.0
  0
LINE
  5
4785
  8
0
  6
CONTINUOUS
 62
     7
 10
-161.8492744884187
 20
471.9981682121541
 30
0.0
 11
-160.74927448841871
 21
471.9981682121541
 31
0.0
  0
LINE
  5
4786
  8
0
  6
CENTER
 62
     4
 10
-109.9218707874347
 20
505.5383322153657
 30
0.0
 11
-104.6278707874347
 21
505.5383322153657
 31
0.0
1001
GENIUS_GENOBJ-N-CEN_13
1002
{
1000
OWNER
1000
GEN
1002
}
1001
GENIUS_GENODEF_13
1002
{
1000
HIER
1070
     0
1002
}
1002
{
1000
MANEDIT
1070
     0
1002
}
1002
{
1000
NOSEL
1070
     0
1002
}
1002
{
1000
BEHIND
1070
     0
1002
}
1002
{
1000
OTHER
1070
     0
1002
}
1002
{
1000
REACTOR
1002
}
1001
GENIUS_GENCEN_19
1002
{
1040
1.397
1002
}
  0
LINE
  5
4787
  8
0
  6
CENTER
 62
     4
 10
-109.9218707874347
 20
504.43833221536568
 30
0.0
 11
-104.6278707874347
 21
504.43833221536568
 31
0.0
1001
GENIUS_GENOBJ-N-CEN_13
1002
{
1000
OWNER
1000
GEN
1002
}
1001
GENIUS_GENODEF_13
1002
{
1000
HIER
1070
     0
1002
}
1002
{
1000
MANEDIT
1070
     0
1002
}
1002
{
1000
NOSEL
1070
     0
1002
}
1002
{
1000
BEHIND
1070
     0
1002
}
1002
{
1000
OTHER
1070
     0
1002
}
1002
{
1000
REACTOR
1002
}
1001
GENIUS_GENCEN_19
1002
{
1040
1.397
1002
}
  0
LINE
  5
4788
  8
0
  6
CONTINUOUS
 62
     7
 10
-106.02487078743469
 20
528.0383322153657
 30
0.0
 11
-108.52487078743469
 21
528.0383322153657
 31
0.0
  0
LINE
  5
4789
  8
0
  6
CONTINUOUS
 62
     7
 10
-108.52487078743469
 20
528.0383322153657
 30
0.0
 11
-108.52487078743469
 21
518.0383322153657
 31
0.0
  0
LINE
  5
478A
  8
0
  6
CENTER
 62
     4
 10
-109.9218707874347
 20
524.5383322153657
 30
0.0
 11
-104.6278707874347
 21
524.5383322153657
 31
0.0
1001
GENIUS_GENOBJ-N-CEN_13
1002
{
1000
OWNER
1000
GEN
1002
}
1001
GENIUS_GENODEF_13
1002
{
1000
HIER
1070
     0
1002
}
1002
{
1000
MANEDIT
1070
     0
1002
}
1002
{
1000
NOSEL
1070
     0
1002
}
1002
{
1000
BEHIND
1070
     0
1002
}
1002
{
1000
OTHER
1070
     0
1002
}
1002
{
1000
REACTOR
1002
}
1001
GENIUS_GENCEN_19
1002
{
1040
1.397
1002
}
  0
LINE
  5
478B
  8
0
  6
CENTER
 62
     4
 10
-109.9218707874347
 20
525.63833221536584
 30
0.0
 11
-104.6278707874347
 21
525.63833221536584
 31
0.0
1001
GENIUS_GENOBJ-N-CEN_13
1002
{
1000
OWNER
1000
GEN
1002
}
1001
GENIUS_GENODEF_13
1002
{
1000
HIER
1070
     0
1002
}
1002
{
1000
MANEDIT
1070
     0
1002
}
1002
{
1000
NOSEL
1070
     0
1002
}
1002
{
1000
BEHIND
1070
     0
1002
}
1002
{
1000
OTHER
1070
     0
1002
}
1002
{
1000
REACTOR
1002
}
1001
GENIUS_GENCEN_19
1002
{
1040
1.397
1002
}
  0
LINE
  5
478C
  8
0
  6
CENTER
 62
     4
 10
-164.84627448841869
 20
473.59816821215412
 30
0.0
 11
-137.6522744884187
 21
473.59816821215412
 31
0.0
1001
GENIUS_GENODEF_13
1002
{
1000
HIER
1070
     0
1002
}
1002
{
1000
MANEDIT
1070
     0
1002
}
1002
{
1000
NOSEL
1070
     0
1002
}
1002
{
1000
BEHIND
1070
     0
1002
}
1002
{
1000
OTHER
1070
     0
1002
}
1002
{
1000
REACTOR
1002
}
1001
GENIUS_GENOBJ-N-CEN_13
1002
{
1000
OWNER
1000
GEN
1002
}
1001
GENIUS_GENCEN_19
1002
{
1040
1.397
1002
}
  0
LINE
  5
478D
  8
0
  6
CENTER
 62
     4
 10
-160.74927448841871
 20
476.59516821215408
 30
0.0
 11
-160.74927448841871
 21
470.60116821215411
 31
0.0
1001
GENIUS_GENODEF_13
1002
{
1000
HIER
1070
     0
1002
}
1002
{
1000
MANEDIT
1070
     0
1002
}
1002
{
1000
NOSEL
1070
     0
1002
}
1002
{
1000
BEHIND
1070
     0
1002
}
1002
{
1000
OTHER
1070
     0
1002
}
1002
{
1000
REACTOR
1002
}
1001
GENIUS_GENOBJ-N-CEN_13
1002
{
1000
OWNER
1000
GEN
1002
}
1001
GENIUS_GENCEN_19
1002
{
1040
1.397
1002
}
  0
LINE
  5
478E
  8
0
  6
CENTER
 62
     4
 10
-141.74927448841859
 20
476.59516821215408
 30
0.0
 11
-141.74927448841859
 21
470.60116821215411
 31
0.0
1001
GENIUS_GENOBJ-N-CEN_13
1002
{
1000
OWNER
1000
GEN
1002
}
1001
GENIUS_GENODEF_13
1002
{
1000
HIER
1070
     0
1002
}
1002
{
1000
MANEDIT
1070
     0
1002
}
1002
{
1000
NOSEL
1070
     0
1002
}
1002
{
1000
BEHIND
1070
     0
1002
}
1002
{
1000
OTHER
1070
     0
1002
}
1002
{
1000
REACTOR
1002
}
1001
GENIUS_GENCEN_19
1002
{
1040
1.397
1002
}
  0
LINE
  5
478F
  8
0
  6
CENTER
 62
     4
 10
-140.64927448841871
 20
476.59516821215408
 30
0.0
 11
-140.64927448841871
 21
470.60116821215411
 31
0.0
1001
GENIUS_GENODEF_13
1002
{
1000
HIER
1070
     0
1002
}
1002
{
1000
MANEDIT
1070
     0
1002
}
1002
{
1000
NOSEL
1070
     0
1002
}
1002
{
1000
BEHIND
1070
     0
1002
}
1002
{
1000
OTHER
1070
     0
1002
}
1002
{
1000
REACTOR
1002
}
1001
GENIUS_GENOBJ-N-CEN_13
1002
{
1000
OWNER
1000
GEN
1002
}
1001
GENIUS_GENCEN_19
1002
{
1040
1.397
1002
}
  0
LINE
  5
4790
  8
0
  6
CENTER
 62
     4
 10
-109.9218707874347
 20
473.59816821215412
 30
0.0
 11
-104.6278707874347
 21
473.59816821215412
 31
0.0
1001
GENIUS_GENOBJ-N-CEN_13
1002
{
1000
OWNER
1000
GEN
1002
}
1001
GENIUS_GENODEF_13
1002
{
1000
HIER
1070
     0
1002
}
1002
{
1000
MANEDIT
1070
     0
1002
}
1002
{
1000
NOSEL
1070
     0
1002
}
1002
{
1000
BEHIND
1070
     0
1002
}
1002
{
1000
OTHER
1070
     0
1002
}
1002
{
1000
REACTOR
1002
}
1001
GENIUS_GENCEN_19
1002
{
1040
1.397
1002
}
  0
LINE
  5
47A1
  8
0
  6
CONTINUOUS
 62
     4
 10
-114.89492076569729
 20
486.59816821215412
 30
0.0
 11
-111.02487078743469
 21
486.59816821215412
 31
0.0
  0
LINE
  5
47A2
  8
0
  6
CONTINUOUS
 62
     4
 10
-111.02487078743469
 20
486.59816821215412
 30
0.0
 11
-112.02487078743469
 21
487.00242950892567
 31
0.0
  0
LINE
  5
47A3
  8
0
  6
CONTINUOUS
 62
     4
 10
-111.02487078743469
 20
486.59816821215412
 30
0.0
 11
-112.02487078743469
 21
486.1939069153824
 31
0.0
  0
LINE
  5
47A4
  8
0
  6
CONTINUOUS
 62
     4
 10
-114.89492076569729
 20
515.0383322153657
 30
0.0
 11
-111.02487078743469
 21
515.0383322153657
 31
0.0
  0
LINE
  5
47A5
  8
0
  6
CONTINUOUS
 62
     4
 10
-111.02487078743469
 20
515.0383322153657
 30
0.0
 11
-112.02487078743469
 21
515.44259351213725
 31
0.0
  0
LINE
  5
47A6
  8
0
  6
CONTINUOUS
 62
     4
 10
-111.02487078743469
 20
515.0383322153657
 30
0.0
 11
-112.02487078743469
 21
514.63407091859403
 31
0.0
  0
LINE
  5
47A7
  8
0
  6
CONTINUOUS
 62
     7
 10
-116.02487078743469
 20
480.19816821215409
 30
0.0
 11
-116.02487078743469
 21
479.19816821215409
 31
0.0
  0
LINE
  5
47A8
  8
0
  6
CONTINUOUS
 62
     7
 10
-116.02487078743469
 20
479.19816821215409
 30
0.0
 11
-110.02487078743469
 21
479.19816821215409
 31
0.0
  0
LINE
  5
47A9
  8
0
  6
CONTINUOUS
 62
     7
 10
-110.02487078743469
 20
479.19816821215409
 30
0.0
 11
-110.02487078743469
 21
480.19816821215409
 31
0.0
  0
LINE
  5
47AF
  8
0
  6
CENTER
 62
     4
 10
-161.8492744884187
 20
476.59516821215408
 30
0.0
 11
-161.8492744884187
 21
470.60116821215411
 31
0.0
1001
GENIUS_GENODEF_13
1002
{
1000
HIER
1070
     0
1002
}
1002
{
1000
MANEDIT
1070
     0
1002
}
1002
{
1000
NOSEL
1070
     0
1002
}
1002
{
1000
BEHIND
1070
     0
1002
}
1002
{
1000
OTHER
1070
     0
1002
}
1002
{
1000
REACTOR
1002
}
1001
GENIUS_GENOBJ-N-CEN_13
1002
{
1000
OWNER
1000
GEN
1002
}
1001
GENIUS_GENCEN_19
1002
{
1040
1.397
1002
}
  0
LINE
  5
4990
  8
0
  6
CONTINUOUS
 62
     7
 10
-116.02487078743469
 20
517.53833221536559
 30
0.0
 11
-110.02487078743469
 21
517.53833221536559
 31
0.0
  0
LINE
  5
4991
  8
0
  6
CONTINUOUS
 62
     7
 10
-116.02487078743469
 20
512.53833221536559
 30
0.0
 11
-110.02487078743469
 21
512.53833221536559
 31
0.0
  0
VIEWPORT
  5
3C22
 67
     1
  8
0
 10
142.58924865722659
 20
99.112914085388184
 30
0.0
 40
357.25521212877948
 41
222.15178063964851
 68
     1
 69
     1
1001
ACAD
1000
MVIEW
1002
{
1070
    16
1010
0.0
1020
0.0
1030
0.0
1010
0.0
1020
0.0
1030
1.0
1040
0.0
1040
222.15178063964851
1040
142.58924865722659
1040
99.112914085388184
1040
50.0
1040
0.0
1040
0.0
1070
     0
1070
   100
1070
     1
1070
     1
1070
     0
1070
     0
1070
     0
1070
     0
1040
0.0
1040
0.0
1040
0.0
1040
10.0
1040
10.0
1040
10.0
1040
10.0
1070
     0
1002
{
1002
}
1002
}
1001
GENIUS_GENODEF_13
1002
{
1000
HIER
1070
     0
1002
}
1002
{
1000
MANEDIT
1070
     0
1002
}
1002
{
1000
NOSEL
1070
     0
1002
}
1002
{
1000
BEHIND
1070
     0
1002
}
1002
{
1000
OTHER
1070
     0
1002
}
1002
{
1000
REACTOR
1002
}
1001
GENIUS_GENOBJ-N-SDF_13
1002
{
1000
OWNER
1000
GEN
1002
}
1001
GENIUS_GENSCREG_15
1000
PF
1040
1.0
1000
DF
1040
1.0
1000
MIN
1011
-36.038357407163232
1021
0.0
1031
0.0
1021
-11.96297623443604
1031
0.0
1000
MAX
1011
321.2168547216163
1021
0.0
1031
0.0
1021
210.18880440521241
1031
0.0
1000
FLAGS
1070
     4
  0
ENDSEC
  0
EOF
