  0
SECTION
  2
HEADER
  9
$ACADVER
  1
AC1009
  9
$INSBASE
 10
177.99999979121739
 20
6.7085914059697132
 30
0.0
  9
$EXTMIN
 10
-233.40639875150569
 20
-175.0316629313227
 30
0.0
  9
$EXTMAX
 10
-50.406398751505719
 20
85.4683370686773
 30
0.0
  9
$LIMMIN
 10
-50.406398751505783
 20
-175.0316629313227
  9
$LIMMAX
 10
132.5936012484942
 20
85.4683370686773
  9
$ORTHOMODE
 70
     0
  9
$REGENMODE
 70
     1
  9
$FILLMODE
 70
     1
  9
$QTEXTMODE
 70
     0
  9
$MIRRTEXT
 70
     1
  9
$DRAGMODE
 70
     2
  9
$LTSCALE
 40
1.0
  9
$OSMODE
 70
    37
  9
$ATTMODE
 70
     1
  9
$TEXTSIZE
 40
5.0
  9
$TRACEWID
 40
1.0
  9
$TEXTSTYLE
  7
STANDARD
  9
$CLAYER
  8
AM_BOR
  9
$CELTYPE
  6
BYLAYER
  9
$CECOLOR
 62
   256
  9
$DIMSCALE
 40
1.0
  9
$DIMASZ
 40
2.5
  9
$DIMEXO
 40
1.0
  9
$DIMDLI
 40
10.0
  9
$DIMRND
 40
0.0
  9
$DIMDLE
 40
0.0
  9
$DIMEXE
 40
1.0
  9
$DIMTP
 40
0.1
  9
$DIMTM
 40
0.1
  9
$DIMTXT
 40
3.5
  9
$DIMCEN
 40
0.0
  9
$DIMTSZ
 40
0.0
  9
$DIMTOL
 70
     0
  9
$DIMLIM
 70
     0
  9
$DIMTIH
 70
     0
  9
$DIMTOH
 70
     0
  9
$DIMSE1
 70
     0
  9
$DIMSE2
 70
     0
  9
$DIMTAD
 70
     3
  9
$DIMZIN
 70
     8
  9
$DIMBLK
  1
OPEN30
  9
$DIMASO
 70
     1
  9
$DIMSHO
 70
     1
  9
$DIMPOST
  1

  9
$DIMAPOST
  1
"
  9
$DIMALT
 70
     0
  9
$DIMALTD
 70
     2
  9
$DIMALTF
 40
0.0393701
  9
$DIMLFAC
 40
1.0
  9
$DIMTOFL
 70
     1
  9
$DIMTVP
 40
0.0
  9
$DIMTIX
 70
     0
  9
$DIMSOXD
 70
     0
  9
$DIMSAH
 70
     0
  9
$DIMBLK1
  1
OPEN30
  9
$DIMBLK2
  1
OPEN30
  9
$DIMSTYLE
  2
AM_JIS
  9
$DIMCLRD
 70
   256
  9
$DIMCLRE
 70
   256
  9
$DIMCLRT
 70
     2
  9
$DIMTFAC
 40
0.71
  9
$DIMGAP
 40
1.5
  9
$LUNITS
 70
     2
  9
$LUPREC
 70
     2
  9
$SKETCHINC
 40
1.0
  9
$FILLETRAD
 40
2.5
  9
$AUNITS
 70
     0
  9
$AUPREC
 70
     0
  9
$MENU
  1
.
  9
$ELEVATION
 40
0.0
  9
$PELEVATION
 40
0.0
  9
$THICKNESS
 40
0.0
  9
$LIMCHECK
 70
     0
  9
$BLIPMODE
 70
     0
  9
$CHAMFERA
 40
2.5
  9
$CHAMFERB
 40
2.5
  9
$SKPOLY
 70
     0
  9
$TDCREATE
 40
2451870.55721559
  9
$TDUPDATE
 40
2451941.4256108911
  9
$TDINDWG
 40
0.0688017014
  9
$TDUSRTIMER
 40
0.0686711921
  9
$USRTIMER
 70
     1
  9
$ANGBASE
 50
0.0
  9
$ANGDIR
 70
     0
  9
$PDMODE
 70
     0
  9
$PDSIZE
 40
0.0
  9
$PLINEWID
 40
0.0
  9
$COORDS
 70
     1
  9
$SPLFRAME
 70
     0
  9
$SPLINETYPE
 70
     6
  9
$SPLINESEGS
 70
     8
  9
$ATTDIA
 70
     1
  9
$ATTREQ
 70
     1
  9
$HANDLING
 70
 12289
  9
$HANDSEED
  5
9C5
  9
$SURFTAB1
 70
     6
  9
$SURFTAB2
 70
     6
  9
$SURFTYPE
 70
     6
  9
$SURFU
 70
     6
  9
$SURFV
 70
     6
  9
$UCSNAME
  2

  9
$UCSORG
 10
0.0
 20
0.0
 30
0.0
  9
$UCSXDIR
 10
1.0
 20
0.0
 30
0.0
  9
$UCSYDIR
 10
0.0
 20
1.0
 30
0.0
  9
$PUCSNAME
  2

  9
$PUCSORG
 10
0.0
 20
0.0
 30
0.0
  9
$PUCSXDIR
 10
1.0
 20
0.0
 30
0.0
  9
$PUCSYDIR
 10
0.0
 20
1.0
 30
0.0
  9
$USERI1
 70
     0
  9
$USERI2
 70
     0
  9
$USERI3
 70
     0
  9
$USERI4
 70
     0
  9
$USERI5
 70
     0
  9
$USERR1
 40
0.0
  9
$USERR2
 40
0.0
  9
$USERR3
 40
0.0
  9
$USERR4
 40
0.0
  9
$USERR5
 40
0.0
  9
$WORLDVIEW
 70
     1
  9
$SHADEDGE
 70
     3
  9
$SHADEDIF
 70
    70
  9
$TILEMODE
 70
     1
  9
$MAXACTVP
 70
    64
  9
$PLIMCHECK
 70
     0
  9
$PEXTMIN
 10
1.0000000000000000E+020
 20
1.0000000000000000E+020
 30
1.0000000000000000E+020
  9
$PEXTMAX
 10
-1.0000000000000000E+020
 20
-1.0000000000000000E+020
 30
-1.0000000000000000E+020
  9
$PLIMMIN
 10
0.0
 20
0.0
  9
$PLIMMAX
 10
420.0
 20
297.0
  9
$UNITMODE
 70
     0
  9
$VISRETAIN
 70
     1
  9
$PLINEGEN
 70
     0
  9
$PSLTSCALE
 70
     1
  0
ENDSEC
  0
SECTION
  2
TABLES
  0
TABLE
  2
VPORT
 70
     3
  0
VPORT
  2
*ACTIVE
 70
     0
 10
0.0
 20
0.0
 11
1.0
 21
1.0
 12
-139.40177013601689
 22
-44.77338523024423
 13
0.0
 23
0.0
 14
2.5
 24
2.5
 15
10.0
 25
10.0
 16
0.0
 26
0.0
 36
1.0
 17
0.0
 27
0.0
 37
0.0
 40
262.4670125683997
 41
1.539641943734015
 42
50.0
 43
0.0
 44
0.0
 50
0.0
 51
0.0
 71
     0
 72
   100
 73
     1
 74
     3
 75
     0
 76
     0
 77
     0
 78
     0
  0
ENDTAB
  0
TABLE
  2
LTYPE
 70
    18
  0
LTYPE
  2
CONTINUOUS
 70
     0
  3
Solid line
 72
    65
 73
     0
 40
0.0
  0
LTYPE
  2
AM_ISO02W050
 70
     0
  3
__ __ __ __ __ __ __ __ __ __ __ __ __ __ __
 72
    65
 73
     2
 40
7.5
 49
6.0
 49
-1.5
  0
LTYPE
  2
AM_ISO08W050
 70
     0
  3
____ . ____ . ____ . ____ . ____ . ____ . ____
 72
    65
 73
     4
 40
18.0
 49
12.0
 49
-1.5
 49
3.0
 49
-1.5
  0
LTYPE
  2
AM_ISO09W050
 70
     0
  3
_____ . . _____ . . _____ . . ____ .. ____
 72
    65
 73
     6
 40
22.5
 49
12.0
 49
-1.5
 49
3.0
 49
-1.5
 49
3.0
 49
-1.5
  0
LTYPE
  2
AMCONSTR
 70
     0
  3
_______________________
 72
    65
 73
     2
 40
9999.0
 49
9999.0
 49
0.0
  0
LTYPE
  2
AM_ISO02W050X2
 70
     0
  3
 _ _ _ _ _ _ _ _ _ _ _ _
 72
    65
 73
     2
 40
3.75
 49
3.0
 49
-0.75
  0
LTYPE
  2
AM_ISO08W050X2
 70
     0
  3
__ . __ . __ . __ . __ . __
 72
    65
 73
     4
 40
9.0
 49
6.0
 49
-0.75
 49
1.5
 49
-0.75
  0
LTYPE
  2
AMZIGZAG
 70
     0
  3
/\/-/\/-/\/-/\/-/\/-/\/
 72
    65
 73
     2
 40
11.000099999999991
 49
0.0001
 49
-11.0
  0
LTYPE
  2
CENTER
 70
     0
  3
____ _ ____ _
 72
    65
 73
     4
 40
13.42150481887249
 49
8.3884405117953058
 49
-1.67768810235906
 49
1.67768810235906
 49
-1.67768810235906
  0
LTYPE
  2
HIDDEN
 70
     0
  3
_ _ _ _ _ _ _
 72
    65
 73
     2
 40
2.5165321535385901
 49
1.67768810235906
 49
-0.8388440511795305
  0
LTYPE
  2
PHANTOM2
 70
     0
  3
Phantom (.5x) ___ _ _ ___ _ _ ___ _ _ ___ _ _
 72
    65
 73
     6
 40
1.25
 49
0.625
 49
-0.125
 49
0.125
 49
-0.125
 49
0.125
 49
-0.125
  0
LTYPE
  2
HIDDEN2
 70
     0
  3
Hidden (.5x) _ _ _ _ _ _ _ _ _ _ _ _ _ _ _ _ _
 72
    65
 73
     2
 40
0.1875
 49
0.125
 49
-0.0625
  0
LTYPE
  2
CENTER2
 70
     0
  3
Center (.5x) ___ _ ___ _ ___ _ ___ _ ___ _ ___
 72
    65
 73
     4
 40
1.125
 49
0.75
 49
-0.125
 49
0.125
 49
-0.125
  0
LTYPE
  2
AMZIGZAG2
 70
     0
  3
/\/-/\/-/\/-/\/-/\/-/\/
 72
    65
 73
     2
 40
0.4401
 49
0.0001
 49
-0.4400000000000001
  0
LTYPE
  2
ACJISTGB
 70
     0
  3
__ . . __ . .
 72
    65
 73
     6
 40
9.0
 49
4.0
 49
-1.0
 49
1.0
 49
-1.0
 49
1.0
 49
-1.0
  0
LTYPE
  2
ACJISTGL
 70
     0
  3
_ _ _ _ _
 72
    65
 73
     2
 40
3.0
 49
2.0
 49
-1.0
  0
LTYPE
  2
ACANSTGBM
 70
     0
  3
__ . . __ . .
 72
    65
 73
     6
 40
9.0
 49
4.0
 49
-1.0
 49
1.0
 49
-1.0
 49
1.0
 49
-1.0
  0
LTYPE
  2
ACANSTGLM
 70
     0
  3
_ _ _ _ _
 72
    65
 73
     2
 40
3.0
 49
2.0
 49
-1.0
  0
ENDTAB
  0
TABLE
  2
LAYER
 70
    22
  0
LAYER
  2
0
 70
     0
 62
     7
  6
CONTINUOUS
  0
LAYER
  2
AM_5
 70
     0
 62
     3
  6
CONTINUOUS
  0
LAYER
  2
AM_7
 70
     0
 62
     4
  6
AM_ISO08W050
  0
LAYER
  2
AM_CL
 70
     0
 62
     1
  6
AMCONSTR
  0
LAYER
  2
AM_6
 70
     0
 62
     2
  6
CONTINUOUS
  0
LAYER
  2
AM_1
 70
     0
 62
    14
  6
CONTINUOUS
  0
LAYER
  2
AM_2
 70
     0
 62
     5
  6
CONTINUOUS
  0
LAYER
  2
AM_0
 70
     0
 62
     7
  6
CONTINUOUS
  0
LAYER
  2
AM_3
 70
     0
 62
     6
  6
AM_ISO02W050
  0
LAYER
  2
AM_4
 70
     0
 62
     3
  6
CONTINUOUS
  0
LAYER
  2
AM_8
 70
     0
 62
     1
  6
CONTINUOUS
  0
LAYER
  2
1
 70
     0
 62
     7
  6
CONTINUOUS
  0
LAYER
  2
3
 70
     0
 62
     2
  6
CONTINUOUS
  0
LAYER
  2
2
 70
     0
 62
     2
  6
CONTINUOUS
  0
LAYER
  2
AM_3H
 70
     0
 62
     7
  6
HIDDEN
  0
LAYER
  2
AM_7H
 70
     0
 62
    14
  6
AM_ISO08W050
  0
LAYER
  2
AM_4H
 70
     0
 62
     2
  6
PHANTOM2
  0
LAYER
  2
AM_10
 70
     0
 62
     7
  6
AM_ISO08W050
  0
LAYER
  2
AM_9
 70
     0
 62
   253
  6
CONTINUOUS
  0
LAYER
  2
DEFPOINTS
 70
     0
 62
     7
  6
CONTINUOUS
  0
LAYER
  2
AM_INV
 70
     0
 62
   253
  6
CONTINUOUS
  0
LAYER
  2
AM_BOR
 70
     0
 62
     7
  6
CONTINUOUS
  0
ENDTAB
  0
TABLE
  2
STYLE
 70
     6
  0
STYLE
  2
STANDARD
 70
     0
 40
0.0
 41
1.0
 50
0.0
 71
     0
 42
5.0
  3
ISOCP.SHX
  4
EXTFONT.SHX
  0
STYLE
  2

 70
     1
 40
0.0
 41
1.0
 50
0.0
 71
     0
 42
2.5
  3
ltypeshp.shx
  4

  0
STYLE
  2
ACJISTS
 70
     0
 40
1.0
 41
1.0
 50
0.0
 71
     0
 42
3.5
  3
isocp.shx
  4
bigfont.shx
  0
STYLE
  2
ACJISGDT
 70
     0
 40
0.0
 41
1.0
 50
0.0
 71
     0
 42
3.5
  3
amgdt.shx
  4

  0
STYLE
  2
ACANSTS
 70
     0
 40
1.0
 41
1.0
 50
0.0
 71
     0
 42
5.0
  3
romans.shx
  4
extfont.shx
  0
STYLE
  2
ACANSGDT
 70
     0
 40
0.0
 41
1.0
 50
0.0
 71
     0
 42
5.0
  3
amgdtans.shx
  4

  0
ENDTAB
  0
TABLE
  2
VIEW
 70
     6
  0
VIEW
  2
AM_VIEW1
 70
     0
 40
130.24999999999989
 10
46.573220813711607
 20
20.3433370686773
 41
193.9592391304347
 11
0.0
 21
0.0
 31
1.0
 12
0.0
 22
0.0
 32
0.0
 42
50.0
 43
0.0
 44
0.0
 50
0.0
 71
     0
  0
VIEW
  2
AM_VIEW2
 70
     0
 40
130.24999999999989
 10
35.613981683276833
 20
20.3433370686773
 41
193.9592391304347
 11
0.0
 21
0.0
 31
1.0
 12
0.0
 22
0.0
 32
0.0
 42
50.0
 43
0.0
 44
0.0
 50
0.0
 71
     0
  0
VIEW
  2
AM_VIEW3
 70
     0
 40
130.24999999999989
 10
46.573220813711607
 20
-109.9066629313226
 41
193.9592391304347
 11
0.0
 21
0.0
 31
1.0
 12
0.0
 22
0.0
 32
0.0
 42
50.0
 43
0.0
 44
0.0
 50
0.0
 71
     0
  0
VIEW
  2
AM_VIEW4
 70
     0
 40
130.24999999999989
 10
35.613981683276833
 20
-109.9066629313226
 41
193.9592391304347
 11
0.0
 21
0.0
 31
1.0
 12
0.0
 22
0.0
 32
0.0
 42
50.0
 43
0.0
 44
0.0
 50
0.0
 71
     0
  0
VIEW
  2
AM_VIEW5
 70
     0
 40
130.24999999999989
 10
41.093601248494217
 20
-44.7816629313227
 41
193.9592391304347
 11
0.0
 21
0.0
 31
1.0
 12
0.0
 22
0.0
 32
0.0
 42
50.0
 43
0.0
 44
0.0
 50
0.0
 71
     0
  0
VIEW
  2
AM_VIEW6
 70
     0
 40
260.49739499999998
 10
41.093601248494217
 20
-44.7816629313227
 41
387.91459907608692
 11
0.0
 21
0.0
 31
1.0
 12
0.0
 22
0.0
 32
0.0
 42
50.0
 43
0.0
 44
0.0
 50
0.0
 71
     0
  0
ENDTAB
  0
TABLE
  2
UCS
 70
     0
  0
ENDTAB
  0
TABLE
  2
APPID
 70
    23
  0
APPID
  2
ACAD
 70
     0
  0
APPID
  2
MCAD_NO_VIS
 70
     0
  0
APPID
  2
ACAD_TEMP_GRAPHIC
 70
     0
  0
APPID
  2
GENIUS_GENODEF_13
 70
     0
  0
APPID
  2
GENIUS_GENOBJ-N-TIT_13
 70
     0
  0
APPID
  2
GENIUS_GENTITLE_13
 70
     0
  0
APPID
  2
GENIUS_GENOENT_13
 70
     0
  0
APPID
  2
GENIUS_GENOREF_13
 70
     0
  0
APPID
  2
GENIUS_GENOLIS_13
 70
     0
  0
APPID
  2
GENIUS_GENZVEED_13
 70
     0
  0
APPID
  2
GENIUS_GENSCREG_15
 70
     0
  0
APPID
  2
GENIUS_GENOBJ-N-SDF_13
 70
     0
  0
APPID
  2
GENIUS_GENOBJ-N-CEN_13
 70
     0
  0
APPID
  2
GENIUS_GENOBJ-N-SEC_13
 70
     0
  0
APPID
  2
GENIUS_GENREC_14
 70
     0
  0
APPID
  2
GENIUS_GENOBJ-N-REC_13
 70
     0
  0
APPID
  2
GENIUS_GENBH_13
 70
     0
  0
APPID
  2
GENIUS_GENOBJ-NBEHI-BHF_13
 70
     0
  0
APPID
  2
GENIUS_GENOBJ-NBEHI-BHB_13
 70
     0
  0
APPID
  2
GENIUS_GENDTOL_13
 70
     0
  0
APPID
  2
GENIUS_GENOBJ-N-HTC_13
 70
     0
  0
APPID
  2
GENIUS_GENHATCH_13
 70
     0
  0
APPID
  2
GENIUS_GENSCREG_13
 70
     0
  0
ENDTAB
  0
TABLE
  2
DIMSTYLE
 70
     8
  0
DIMSTYLE
  2
AM_JIS
 70
     0
  3

  4
"
  5
OPEN30
  6
OPEN30
  7
OPEN30
 40
1.0
 41
2.5
 42
1.0
 43
10.0
 44
1.0
 45
0.0
 46
0.0
 47
0.1
 48
0.1
140
3.5
141
0.0
142
0.0
143
0.0393701
144
1.0
145
0.0
146
0.71
147
1.5
 71
     0
 72
     0
 73
     0
 74
     0
 75
     0
 76
     0
 77
     3
 78
     8
170
     0
171
     2
172
     1
173
     0
174
     0
175
     0
176
   256
177
   256
178
     2
  0
DIMSTYLE
  2
AM_JIS$3
 70
     0
  3

  4
"
  5
OPEN30
  6
OPEN30
  7
OPEN30
 40
1.0
 41
2.5
 42
1.0
 43
10.0
 44
1.0
 45
0.0
 46
0.0
 47
0.1
 48
0.1
140
3.5
141
0.0
142
0.0
143
0.0393701
144
1.0
145
0.0
146
0.71
147
1.5
 71
     0
 72
     0
 73
     0
 74
     1
 75
     0
 76
     0
 77
     3
 78
     8
170
     0
171
     2
172
     0
173
     0
174
     0
175
     0
176
   256
177
   256
178
     2
  0
DIMSTYLE
  2
AM_JIS$4
 70
     0
  3

  4
"
  5
OPEN30
  6
OPEN30
  7
OPEN30
 40
1.0
 41
2.5
 42
1.0
 43
10.0
 44
1.0
 45
0.0
 46
0.0
 47
0.1
 48
0.1
140
3.5
141
0.0
142
0.0
143
0.0393701
144
1.0
145
0.0
146
0.71
147
1.5
 71
     0
 72
     0
 73
     0
 74
     1
 75
     0
 76
     0
 77
     3
 78
     8
170
     0
171
     2
172
     0
173
     0
174
     0
175
     0
176
   256
177
   256
178
     2
  0
DIMSTYLE
  2
AM_JIS$6
 70
     0
  3

  4
"
  5
OPEN30
  6
OPEN30
  7
OPEN30
 40
1.0
 41
2.5
 42
1.0
 43
10.0
 44
1.0
 45
0.0
 46
0.0
 47
0.1
 48
0.1
140
3.5
141
0.0
142
0.0
143
0.0393701
144
1.0
145
0.0
146
0.71
147
1.5
 71
     0
 72
     0
 73
     0
 74
     0
 75
     0
 76
     0
 77
     0
 78
     8
170
     0
171
     2
172
     1
173
     0
174
     0
175
     0
176
   256
177
   256
178
     2
  0
DIMSTYLE
  2
AM_JIS$7
 70
     0
  3

  4
"
  5
OPEN30
  6
OPEN30
  7
OPEN30
 40
1.0
 41
2.5
 42
1.0
 43
10.0
 44
1.0
 45
0.0
 46
0.0
 47
0.1
 48
0.1
140
5.0
141
0.0
142
0.0
143
0.0393701
144
1.0
145
0.0
146
0.71
147
1.5
 71
     0
 72
     0
 73
     0
 74
     0
 75
     0
 76
     0
 77
     3
 78
     8
170
     0
171
     2
172
     1
173
     0
174
     0
175
     0
176
   256
177
   256
178
     2
  0
DIMSTYLE
  2
AM_JIS$SF
 70
     0
  3

  4
"
  5
OPEN30
  6
OPEN30
  7
OPEN30
 40
1.0
 41
2.5
 42
1.0
 43
10.0
 44
1.0
 45
0.0
 46
0.0
 47
0.1
 48
0.1
140
3.5
141
0.0
142
0.0
143
0.0393701
144
1.0
145
0.0
146
0.71
147
1.5
 71
     0
 72
     0
 73
     0
 74
     0
 75
     1
 76
     1
 77
     3
 78
     8
170
     0
171
     2
172
     1
173
     0
174
     0
175
     0
176
   256
177
   256
178
     2
  0
DIMSTYLE
  2
AM_JIS$SH
 70
     0
  3

  4
"
  5
OPEN30
  6
GENAXEH
  7
OPEN30
 40
1.0
 41
2.5
 42
1.0
 43
10.0
 44
1.0
 45
0.0
 46
0.0
 47
0.1
 48
0.1
140
3.5
141
0.0
142
0.0
143
0.0393701
144
2.0
145
0.0
146
0.71
147
1.5
 71
     0
 72
     0
 73
     0
 74
     0
 75
     1
 76
     1
 77
     3
 78
     8
170
     0
171
     2
172
     1
173
     1
174
     0
175
     0
176
   256
177
   256
178
     2
  0
DIMSTYLE
  2
STANDARD
 70
     0
  3

  4

  5

  6

  7

 40
1.0
 41
0.18
 42
0.0625
 43
0.38
 44
0.18
 45
0.0
 46
0.0
 47
0.0
 48
0.0
140
0.18
141
0.09
142
0.0
143
25.399999999999999
144
1.0
145
0.0
146
1.0
147
0.09
 71
     0
 72
     0
 73
     1
 74
     1
 75
     0
 76
     0
 77
     0
 78
     0
170
     0
171
     2
172
     0
173
     0
174
     0
175
     0
176
     0
177
     0
178
     0
  0
ENDTAB
  0
ENDSEC
  0
SECTION
  2
BLOCKS
  0
BLOCK
  8
0
  2
$MODEL_SPACE
 70
     2
 10
0.0
 20
0.0
 30
0.0
  3
$MODEL_SPACE
  1

  0
ENDBLK
  5
A
  8
0
  0
BLOCK
 67
     1
  8
0
  2
$PAPER_SPACE
 70
     0
 10
0.0
 20
0.0
 30
0.0
  3
$PAPER_SPACE
  1

  0
ENDBLK
  5
F
 67
     1
  8
0
  0
BLOCK
  8
0
  2
GENAXEH
 70
     0
 10
0.0
 20
0.0
 30
0.0
  3
GENAXEH
  1

  0
LINE
  5
98
  8
0
 10
-1.0
 20
0.0
 30
0.0
 11
1.0
 21
0.0
 31
0.0
  0
ENDBLK
  5
9A
  8
0
  0
BLOCK
  8
0
 62
     0
  2
_OPEN30
 70
     0
 10
0.0
 20
0.0
 30
0.0
  3
_OPEN30
  1

  0
LINE
  5
21
  8
0
 62
     0
 10
-1.0
 20
0.26794919
 30
0.0
 11
0.0
 21
0.0
 31
0.0
  0
LINE
  5
22
  8
0
 62
     0
 10
0.0
 20
0.0
 30
0.0
 11
-1.0
 21
-0.26794919
 31
0.0
  0
LINE
  5
23
  8
0
 62
     0
 10
0.0
 20
0.0
 30
0.0
 11
-1.0
 21
0.0
 31
0.0
  0
ENDBLK
  5
25
  8
0
 62
     0
  0
BLOCK
  8
0
  2
HOSSY-A4F-2
 70
     0
 10
0.0
 20
0.0
 30
0.0
  3
HOSSY-A4F-2
  1

  0
TEXT
  5
11C
  8
0
 10
-178.0
 20
50.999999999999929
 30
0.0
 40
3.0
  1
!gentitle-ll
  0
TEXT
  5
121
  8
0
 10
-178.0
 20
0.0
 30
0.0
 40
3.0
  1
!gentitle-insert
  0
TEXT
  5
122
  8
0
 10
3.0
 20
251.2999999999999
 30
0.0
 40
3.5
  1
!gentitle-max
  0
TEXT
  5
123
  8
0
 10
-0.0000003049374868
 20
249.4666668662274
 30
0.0
 40
3.5
  1
!gentitle-ru
  0
ENDBLK
  5
12A
  8
0
  0
BLOCK
  8
0
  2
HOSSY-A4T-2
 70
     2
 10
0.0
 20
0.0
 30
0.0
  3
HOSSY-A4T-2
  1

  0
ENDBLK
  5
18E
  8
0
  0
BLOCK
  8
0
  2
HOSSY-A4F
 70
     0
 10
0.0
 20
0.0
 30
0.0
  3
HOSSY-A4F
  1

  0
LINE
  5
289
  8
1
 62
     7
 10
-178.0
 20
248.2999999999999
 30
0.0
 11
0.0
 21
248.2999999999999
 31
0.0
  0
LINE
  5
28A
  8
1
 62
     7
 10
-178.0
 20
0.0
 30
0.0
 11
0.0
 21
0.0
 31
0.0
  0
LINE
  5
28B
  8
1
 62
     7
 10
-178.0
 20
0.0
 30
0.0
 11
-178.0
 21
248.2999999999999
 31
0.0
  0
TEXT
  5
28C
  8
0
 10
-178.0
 20
50.999999999999929
 30
0.0
 40
3.0
  1
!gentitle-ll
  0
LINE
  5
28D
  8
1
 62
     2
 10
-178.0
 20
56.999999999999929
 30
0.0
 11
-173.99999999999989
 21
56.999999999999929
 31
0.0
  0
LINE
  5
28E
  8
1
 62
     2
 10
-178.0
 20
62.999999999999929
 30
0.0
 11
-173.99999999999989
 21
62.999999999999929
 31
0.0
  0
LINE
  5
28F
  8
1
 62
     2
 10
-178.0
 20
68.999999999999915
 30
0.0
 11
-173.99999999999989
 21
68.999999999999915
 31
0.0
  0
LINE
  5
290
  8
1
 62
     7
 10
0.0
 20
248.2999999999999
 30
0.0
 11
0.0
 21
0.0
 31
0.0
  0
TEXT
  5
291
  8
0
 10
0.0
 20
0.0
 30
0.0
 40
3.0
  1
!gentitle-insert
  0
TEXT
  5
292
  8
0
 10
3.0
 20
251.2999999999999
 30
0.0
 40
3.5
  1
!gentitle-max
  0
TEXT
  5
293
  8
0
 10
-0.0000003049374868
 20
249.4666668662274
 30
0.0
 40
3.5
  1
!gentitle-ru
  0
LINE
  5
294
  8
1
 62
     2
 10
-49.999999999999993
 20
241.29999999999981
 30
0.0
 11
0.0
 21
241.29999999999981
 31
0.0
  0
LINE
  5
295
  8
1
 62
     2
 10
-49.999999999999993
 20
248.2999999999999
 30
0.0
 11
-49.999999999999993
 21
241.29999999999981
 31
0.0
  0
LINE
  5
296
  8
1
 62
     2
 10
-4.0
 20
220.29999999999981
 30
0.0
 11
0.0
 21
220.29999999999981
 31
0.0
  0
LINE
  5
297
  8
1
 62
     2
 10
-4.0
 20
227.29999999999981
 30
0.0
 11
0.0
 21
227.29999999999981
 31
0.0
  0
LINE
  5
298
  8
1
 62
     2
 10
-4.0
 20
234.2999999999999
 30
0.0
 11
0.0
 21
234.2999999999999
 31
0.0
  0
ENDBLK
  5
29A
  8
0
  0
BLOCK
  8
0
  2
HOSSY-A4T
 70
     2
 10
0.0
 20
0.0
 30
0.0
  3
HOSSY-A4T
  1

  0
TEXT
  5
2A3
  8
3
 10
-110.2999999999998
 20
-6.7085915585774103
 30
0.0
 40
5.0
  1
サンクス株式会社
 41
0.9
 72
     1
 11
-88.999999999999886
 21
-4.2085915585774103
 31
0.0
 73
     2
  0
ATTDEF
  5
2A4
  8
3
 10
-83.999999999999915
 20
12.0
 30
0.0
 40
3.5
  1

 72
     4
 11
-83.999999999999915
 21
12.0
 31
0.0
  3
設計者
  2
設計者
 70
     0
  0
ATTDEF
  5
2A5
  8
3
 10
-83.999999999999915
 20
4.0
 30
0.0
 40
3.5
  1

 72
     4
 11
-83.999999999999915
 21
4.0
 31
0.0
  3
設計日
  2
設計日
 70
     0
  0
TEXT
  5
2A6
  8
3
 10
-89.03219980483459
 20
16.616453041352411
 30
0.0
 40
3.5
  1
設 計
 41
0.9
 72
     1
 11
-84.727199804834584
 21
18.366453041352411
 31
0.0
 73
     2
  0
TEXT
  5
2A7
  8
3
 10
-91.990335591232835
 20
22.311389319093522
 30
0.0
 40
3.0
  1
年月日
 41
0.9
 72
     1
 11
-87.670335591232856
 21
23.811389319093522
 31
0.0
 73
     2
  0
LINE
  5
2A8
  8
1
 10
-177.99999999999989
 20
21.000000000000011
 30
0.0
 11
0.0
 21
21.000000000000011
 31
0.0
  0
LINE
  5
2A9
  8
1
 10
-177.99999999999989
 20
0.0
 30
0.0
 11
0.0000000000000853
 21
0.0
 31
0.0
  0
LINE
  5
2AA
  8
1
 10
-154.99999999999989
 20
16.000000000000011
 30
0.0
 11
-59.999999999999901
 21
16.000000000000011
 31
0.0
  0
LINE
  5
2AB
  8
2
 10
-177.99999999999989
 20
33.000000000000007
 30
0.0
 11
-59.999999999999901
 21
33.000000000000007
 31
0.0
  0
LINE
  5
2AC
  8
2
 10
-177.99999999999989
 20
38.999999999999908
 30
0.0
 11
-59.999999999999901
 21
38.999999999999908
 31
0.0
  0
LINE
  5
2AD
  8
2
 10
-177.99999999999989
 20
44.999999999999922
 30
0.0
 11
-59.999999999999901
 21
44.999999999999922
 31
0.0
  0
LINE
  5
2AE
  8
2
 10
-177.99999999999989
 20
50.999999999999929
 30
0.0
 11
0.0
 21
50.999999999999929
 31
0.0
  0
LINE
  5
2AF
  8
2
 10
-177.99999999999989
 20
27.000000000000011
 30
0.0
 11
-59.999999999999901
 21
27.000000000000011
 31
0.0
  0
ATTDEF
  5
2B0
  8
3
 10
-147.49999999999989
 20
11.000000000000011
 30
0.0
 40
3.5
  1

 72
     4
 11
-147.49999999999989
 21
11.000000000000011
 31
0.0
  3
尺度
  2
尺度
 70
     0
  0
TEXT
  5
2B1
  8
3
 10
-153.58420060292511
 20
1.431083395359422
 30
0.0
 40
3.199999999999998
  1
第三角法
 41
0.9
  0
TEXT
  5
2B2
  8
3
 10
-151.86966844094181
 20
16.7102435928044
 30
0.0
 40
3.5
  1
尺 度
 41
0.9
 72
     1
 11
-147.5646684409418
 21
18.4602435928044
 31
0.0
 73
     2
  0
LINE
  5
2B3
  8
1
 10
-154.99999999999989
 20
6.0
 30
0.0
 11
-139.99999999999989
 21
6.0
 31
0.0
  0
LINE
  5
2B4
  8
1
 10
-177.99999999999989
 20
-0.0000000000000284
 30
0.0
 11
-177.99999999999989
 21
50.999999999999929
 31
0.0
  0
LINE
  5
2B5
  8
2
 10
-177.99999999999989
 20
38.999999999999908
 30
0.0
 11
-173.9999999999998
 21
44.999999999999922
 31
0.0
  0
LINE
  5
2B6
  8
2
 10
-164.9999999999998
 20
50.999999999999929
 30
0.0
 11
-164.9999999999998
 21
21.000000000000011
 31
0.0
  0
LINE
  5
2B7
  8
2
 10
-169.99999999999989
 20
50.999999999999929
 30
0.0
 11
-169.99999999999989
 21
21.000000000000011
 31
0.0
  0
LINE
  5
2B8
  8
2
 10
-173.9999999999998
 20
44.999999999999922
 30
0.0
 11
-169.99999999999989
 21
38.999999999999908
 31
0.0
  0
POLYLINE
  5
2B9
  8
3
 66
     1
 10
0.0
 20
0.0
 30
0.0
 70
     1
  0
VERTEX
  5
2BA
  8
3
 10
-176.12945493511791
 20
11.73075439643382
 30
0.0
  0
VERTEX
  5
2BB
  8
3
 10
-172.51180787629431
 20
11.73075439643382
 30
0.0
 42
0.4142135624
  0
VERTEX
  5
2BC
  8
3
 10
-171.01180787629431
 20
13.23075439643382
 30
0.0
  0
VERTEX
  5
2BD
  8
3
 10
-171.01180787629431
 20
13.23075439643382
 30
0.0
 42
0.4142135624
  0
VERTEX
  5
2BE
  8
3
 10
-172.51180787629431
 20
14.73075439643382
 30
0.0
  0
VERTEX
  5
2BF
  8
3
 10
-176.12945493511791
 20
14.73075439643382
 30
0.0
 42
0.4142135624
  0
VERTEX
  5
2C0
  8
3
 10
-177.62945493511779
 20
13.23075439643382
 30
0.0
  0
VERTEX
  5
2C1
  8
3
 10
-177.62945493511779
 20
13.23075439643382
 30
0.0
 42
0.4142135624
  0
SEQEND
  5
2C2
  8
3
  0
TEXT
  5
2C3
  8
3
 10
-177.08870317321211
 20
7.2550724830093136
 30
0.0
 40
2.5
  1
   実長と異なる
 41
0.9
  0
TEXT
  5
2C4
  8
3
 10
-177.08870317321211
 20
1.7550724830093141
 30
0.0
 40
2.5
  1
寸法
 41
0.9
  0
LINE
  5
2C5
  8
3
 10
-177.1396526973372
 20
7.2583435798248104
 30
0.0
 11
-171.723518177355
 21
7.2583435798248104
 31
0.0
  0
TEXT
  5
2C6
  8
3
 10
-177.76660820526419
 20
17.302714550495018
 30
0.0
 40
2.5
  1
（　）参考寸法
 41
0.9
  0
TEXT
  5
2C7
  8
3
 10
-176.95145078584369
 20
22.671692873318719
 30
0.0
 40
3.0
  1
符号
 41
0.9
 72
     1
 11
-174.07145078584369
 21
24.171692873318712
 31
0.0
 73
     2
  0
LINE
  5
2C8
  8
2
 10
-173.9999999999998
 20
38.999999999999908
 30
0.0
 11
-169.99999999999989
 21
33.000000000000007
 31
0.0
  0
LINE
  5
2C9
  8
2
 10
-173.9999999999998
 20
33.000000000000007
 30
0.0
 11
-169.99999999999989
 21
27.000000000000011
 31
0.0
  0
LINE
  5
2CA
  8
2
 10
-177.99999999999989
 20
27.000000000000011
 30
0.0
 11
-173.9999999999998
 21
33.000000000000007
 31
0.0
  0
LINE
  5
2CB
  8
2
 10
-177.99999999999989
 20
33.000000000000007
 30
0.0
 11
-173.9999999999998
 21
38.999999999999908
 31
0.0
  0
LINE
  5
2CC
  8
1
 10
-154.99999999999989
 20
21.000000000000011
 30
0.0
 11
-154.99999999999989
 21
0.0
 31
0.0
  0
TEXT
  5
2CD
  8
3
 10
-170.54785763353499
 20
12.01163931839401
 30
0.0
 40
2.5
  1
重要管理寸法
 41
0.9
  0
TEXT
  5
2CE
  8
3
 10
-168.7649290035543
 20
22.77112518901621
 30
0.0
 40
3.0
  1
数
 41
0.9
 72
     1
 11
-167.50492900355431
 21
24.27112518901621
 31
0.0
 73
     2
  0
LINE
  5
2CF
  8
2
 10
-173.9999999999998
 20
50.999999999999929
 30
0.0
 11
-169.99999999999989
 21
44.999999999999922
 31
0.0
  0
LINE
  5
2D0
  8
2
 10
-177.99999999999989
 20
44.999999999999922
 30
0.0
 11
-173.9999999999998
 21
50.999999999999929
 31
0.0
  0
LINE
  5
2D1
  8
2
 10
-94.999999999999915
 20
21.000000000000011
 30
0.0
 11
-94.999999999999915
 21
50.999999999999929
 31
0.0
  0
ATTDEF
  5
2D2
  8
3
 10
-115.9999999999999
 20
4.0
 30
0.0
 40
3.5
  1

 72
     4
 11
-115.9999999999999
 21
4.0
 31
0.0
  3
承認日１
  2
承認日１
 70
     0
  0
ATTDEF
  5
2D3
  8
3
 10
-115.9999999999999
 20
12.0
 30
0.0
 40
3.5
  1

 72
     4
 11
-115.9999999999999
 21
12.0
 31
0.0
  3
承認者１
  2
承認者１
 70
     0
  0
TEXT
  5
2D4
  8
3
 10
-143.3362860647988
 20
22.749402975158411
 30
0.0
 40
3.0
  1
改   訂   事   項
 41
0.9
 72
     1
 11
-129.9262860647988
 21
24.249402975158421
 31
0.0
 73
     2
  0
LINE
  5
2D5
  8
1
 10
-139.99999999999989
 20
21.000000000000011
 30
0.0
 11
-139.99999999999989
 21
0.0
 31
0.0
  0
LINE
  5
2D6
  8
2
 10
-123.9999999999999
 20
16.000000000000011
 30
0.0
 11
-123.9999999999999
 21
0.0
 31
0.0
  0
ATTDEF
  5
2D7
  8
3
 10
-131.99999999999989
 20
4.0
 30
0.0
 40
3.5
  1

 72
     4
 11
-131.99999999999989
 21
4.0
 31
0.0
  3
承認日２
  2
承認日２
 70
     0
  0
ATTDEF
  5
2D8
  8
3
 10
-131.99999999999989
 20
12.0
 30
0.0
 40
3.5
  1

 72
     4
 11
-131.99999999999989
 21
12.0
 31
0.0
  3
承認者２
  2
承認者２
 70
     0
  0
TEXT
  5
2D9
  8
3
 10
-127.0786040642423
 20
16.796730166510201
 30
0.0
 40
3.5
  1
承認
 41
0.9
 72
     1
 11
-123.7186040642423
 21
18.546730166510201
 31
0.0
 73
     2
  0
LINE
  5
2DA
  8
2
 10
-107.9999999999999
 20
21.000000000000011
 30
0.0
 11
-107.9999999999999
 21
0.0
 31
0.0
  0
LINE
  5
2DB
  8
2
 10
-91.999999999999915
 20
21.000000000000011
 30
0.0
 11
-91.999999999999915
 21
0.0
 31
0.0
  0
ATTDEF
  5
2DC
  8
3
 10
-99.999999999999915
 20
4.0
 30
0.0
 40
3.5
  1

 72
     4
 11
-99.999999999999915
 21
4.0
 31
0.0
  3
検図日
  2
検図日
 70
     0
  0
ATTDEF
  5
2DD
  8
3
 10
-99.999999999999915
 20
12.0
 30
0.0
 40
3.5
  1

 72
     4
 11
-99.999999999999915
 21
12.0
 31
0.0
  3
検図者
  2
検図者
 70
     0
  0
TEXT
  5
2DE
  8
3
 10
-104.8952529473993
 20
16.618908828107401
 30
0.0
 40
3.5
  1
検 図
 41
0.9
 72
     1
 11
-100.6952529473993
 21
18.368908828107401
 31
0.0
 73
     2
  0
LINE
  5
2DF
  8
1
 10
-59.999999999999901
 20
9.0000000000000142
 30
0.0
 11
0.0
 21
9.0000000000000142
 31
0.0
  0
LINE
  5
2E0
  8
2
 10
-59.999999999999901
 20
31.000000000000011
 30
0.0
 11
0.0
 21
31.000000000000011
 31
0.0
  0
LINE
  5
2E1
  8
2
 10
-53.999999999999901
 20
15.000000000000011
 30
0.0
 11
0.0
 21
15.000000000000011
 31
0.0
  0
LINE
  5
2E2
  8
2
 10
-59.999999999999901
 20
40.999999999999929
 30
0.0
 11
0.0
 21
40.999999999999929
 31
0.0
  0
INSERT
  5
2E3
  8
AM_BOR
  2
*U9
 10
0.0
 20
0.0
 30
0.0
  0
LINE
  5
2E4
  8
1
 10
-59.999999999999901
 20
50.999999999999929
 30
0.0
 11
-59.999999999999901
 21
0.0
 31
0.0
  0
LINE
  5
2E5
  8
2
 10
-69.999999999999901
 20
50.999999999999929
 30
0.0
 11
-69.999999999999901
 21
21.000000000000011
 31
0.0
  0
LINE
  5
2E6
  8
2
 10
-79.999999999999915
 20
21.000000000000011
 30
0.0
 11
-79.999999999999915
 21
50.999999999999929
 31
0.0
  0
LINE
  5
2E7
  8
2
 10
-53.999999999999901
 20
50.999999999999929
 30
0.0
 11
-53.999999999999901
 21
0.0
 31
0.0
  0
LINE
  5
2E8
  8
2
 10
-75.999999999999901
 20
21.000000000000011
 30
0.0
 11
-75.999999999999901
 21
0.0
 31
0.0
  0
TEXT
  5
2E9
  8
3
 10
-78.063083895197764
 20
22.149627453221608
 30
0.0
 40
3.0
  1
担当
 41
0.9
 72
     1
 11
-75.240941038054899
 21
23.649627453221608
 31
0.0
 73
     2
  0
ATTDEF
  5
2EA
  8
3
 10
-67.999999999999901
 20
4.0
 30
0.0
 40
3.5
  1

 72
     4
 11
-67.999999999999901
 21
4.0
 31
0.0
  3
製図日
  2
製図日
 70
     0
  0
ATTDEF
  5
2EB
  8
3
 10
-67.999999999999901
 20
12.0
 30
0.0
 40
3.5
  1

 72
     4
 11
-67.999999999999901
 21
12.0
 31
0.0
  3
製図者
  2
製図者
 70
     0
  0
TEXT
  5
2EC
  8
3
 10
-72.974356115720823
 20
16.575654828231109
 30
0.0
 40
3.5
  1
製 図
 41
0.9
 72
     1
 11
-68.774356115720821
 21
18.325654828231109
 31
0.0
 73
     2
  0
TEXT
  5
2ED
  8
3
 10
-67.997002392644305
 20
22.165541242071608
 30
0.0
 40
3.0
  1
検図
 41
0.9
 72
     1
 11
-65.207002392644299
 21
23.665541242071608
 31
0.0
 73
     2
  0
INSERT
  5
2EE
  8
AM_BOR
  2
*U10
 10
0.0
 20
0.0
 30
0.0
  0
INSERT
  5
2EF
  8
AM_BOR
  2
*U11
 10
0.0
 20
0.0
 30
0.0
  0
INSERT
  5
2F0
  8
AM_BOR
  2
*U12
 10
0.0
 20
0.0
 30
0.0
  0
INSERT
  5
2F1
  8
AM_BOR
  2
*U13
 10
0.0
 20
0.0
 30
0.0
  0
LINE
  5
2F2
  8
1
 10
0.0
 20
50.999999999999929
 30
0.0
 11
0.0
 21
-0.0000000000000284
 31
0.0
  0
TEXT
  5
2F3
  8
3
 10
-18.903997115824691
 20
-3.1772703555137691
 30
0.0
 40
2.0
  1
No.GIJ-015-5
 41
0.9
  0
ATTDEF
  5
2F4
  8
3
 10
-27.0
 20
12.000000000000011
 30
0.0
 40
3.5
  1

 72
     4
 11
-27.0
 21
12.000000000000011
 31
0.0
  3
品名下
  2
品名下
 70
     0
  0
ATTDEF
  5
2F5
  8
3
 10
-26.99999999999994
 20
4.5
 30
0.0
 40
3.5
  1

 72
     4
 11
-26.99999999999994
 21
4.5
 31
0.0
  3
図番
  2
図番
 70
     0
  0
ATTDEF
  5
2F6
  8
3
 10
-27.0
 20
17.675755546292589
 30
0.0
 40
3.5
  1

 72
     4
 11
-27.0
 21
17.675755546292589
 31
0.0
  3
品名上
  2
品名上
 70
     0
  0
ATTDEF
  5
2F7
  8
3
 10
-27.0
 20
35.999999999999972
 30
0.0
 40
3.5
  1

 72
     4
 11
-27.0
 21
35.999999999999972
 31
0.0
  3
処理
  2
処理
 70
     0
  0
ATTDEF
  5
2F8
  8
3
 10
-27.0
 20
26.000000000000099
 30
0.0
 40
3.5
  1

 72
     4
 11
-27.0
 21
26.000000000000099
 31
0.0
  3
品番
  2
品番
 70
     0
  0
ATTDEF
  5
2F9
  8
3
 10
-27.0
 20
45.999999999999908
 30
0.0
 40
3.5
  1

 72
     4
 11
-27.0
 21
45.999999999999908
 31
0.0
  3
材質
  2
材質
 70
     0
  0
ENDBLK
  5
2FB
  8
0
  0
BLOCK
  8
0
  2
A$C19251A7F
 70
     0
 10
0.0
 20
0.0
 30
0.0
  3
A$C19251A7F
  1

  0
INSERT
  5
6A8
  8
AM_8
  6
CONTINUOUS
  2
*X14
 10
0.0
 20
0.0
 30
0.0
1001
GENIUS_GENODEF_13
1002
{
1000
HIER
1070
     0
1002
}
1002
{
1000
MANEDIT
1070
     0
1002
}
1002
{
1000
NOSEL
1070
     0
1002
}
1002
{
1000
BEHIND
1070
     0
1002
}
1002
{
1000
REACTOR
1002
}
1001
GENIUS_GENOBJ-N-HTC_13
1002
{
1000
OWNER
1000
GEN
1002
}
1001
GENIUS_GENHATCH_13
1002
{
1000
DATA
1040
45.0
1042
5.0
1000
ANSI31
1070
     0
1011
279.74258539572378
1021
0.0
1031
0.0
1021
111.28237064405489
1031
0.0
1002
}
1002
{
1000
UCS
1010
0.0
1020
0.0
1030
0.0
1010
1.0
1020
0.0
1030
0.0
1010
0.0
1020
1.0
1030
0.0
1002
}
1001
ACAD
1000
HATCH
1002
{
1070
    19
1000
ANSI31
1040
5.0
1040
0.0
1000
R14_HATCH_DATA
1000
6A8
1011
1.0
1021
0.0
1031
0.0
1021
0.0
1031
0.0
1011
0.0
1021
0.0
1031
0.0
1021
1.0
1031
0.0
1011
0.0
1021
0.0
1031
0.0
1021
0.0
1031
1.0
1040
0.0
1010
0.0
1020
0.0
1030
1.0
1000
ANSI31
1070
     0
1070
     0
1071
        1
1071
        1
1071
        4
1070
     1
1040
912.44608836145346
1040
244.19635840347331
1040
0.0000034472877815
1040
244.19635840347331
1070
     1
1040
0.0000034472877815
1040
244.19635840347331
1040
0.0000034472877815
1040
0.00000211796862
1070
     1
1040
0.0000034472877815
1040
0.00000211796862
1040
912.44608836145346
1040
0.0000021179685064
1070
     1
1040
912.44608836145346
1040
0.0000021179685064
1040
912.44608836145346
1040
244.19635840347331
1071
        0
1070
     0
1070
     1
1040
0.0
1040
5.0
1070
     0
1070
     1
1040
0.7853981633974483
1040
1396.9222149920381
1040
-320.08295234414339
1040
-11.22532015133643
1040
11.22532015133644
1070
     0
1071
        1
1040
1396.9222149920381
1040
-320.08295234414339
1040
0.0
1002
}
  0
TEXT
  5
6A9
  8
AM_0
 10
434.29928373740489
 20
454.9983397410885
 30
0.0
 40
77.576582108001958
  1
AM_0
  0
ENDBLK
  5
6AB
  8
0
  0
BLOCK
  8
0
  2
カタログA4F
 70
     0
 10
0.0
 20
0.0
 30
0.0
  3
カタログA4F
  1

  0
LINE
  5
85E
  8
AM_BOR
 62
     7
 10
-178.0
 20
260.49999999999989
 30
0.0
 11
0.0
 21
260.49999999999989
 31
0.0
  0
LINE
  5
85F
  8
AM_BOR
 62
     7
 10
0.0
 20
0.0
 30
0.0
 11
-178.0
 21
0.0
 31
0.0
  0
LINE
  5
860
  8
AM_BOR
 62
     7
 10
-178.0
 20
0.0
 30
0.0
 11
-178.0
 21
260.49999999999989
 31
0.0
  0
TEXT
  5
861
  8
AM_BOR
 10
-178.0
 20
30.0
 30
0.0
 40
3.5
  1
!GENTITLE-LL
  0
LINE
  5
862
  8
AM_BOR
 62
     7
 10
0.0
 20
260.49999999999989
 30
0.0
 11
0.0
 21
0.0
 31
0.0
  0
TEXT
  5
863
  8
AM_BOR
 10
0.0
 20
0.0
 30
0.0
 40
3.5
  1
!GENTITLE-INSERT
  0
TEXT
  5
864
  8
AM_BOR
 10
3.0
 20
263.5
 30
0.0
 40
3.5
  1
!GENTITLE-MAX
  0
TEXT
  5
865
  8
AM_BOR
 10
0.0
 20
260.49999999999989
 30
0.0
 40
3.5
  1
!GENTITLE-RU
  0
LINE
  5
866
  8
AM_BOR
 10
-183.0
 20
130.24999999999989
 30
0.0
 11
-178.0
 21
130.24999999999989
 31
0.0
  0
ENDBLK
  5
868
  8
0
  0
BLOCK
  8
0
  2
カタログT
 70
     2
 10
0.0
 20
0.0
 30
0.0
  3
カタログT
  1

  0
ATTDEF
  5
872
  8
AM_BOR
 62
     2
 10
-36.464359161941609
 20
24.968720392210908
 30
0.0
 40
3.5
  1

 72
     4
 11
-36.464359161941609
 21
24.968720392210908
 31
0.0
  3
Type
  2
TYPE
 70
     0
  0
ATTDEF
  5
873
  8
AM_BOR
 62
     2
 10
-36.464359161941609
 20
14.730427195775601
 30
0.0
 40
3.5
  1

 72
     4
 11
-36.464359161941609
 21
14.730427195775601
 31
0.0
  3
Model-name
  2
MODEL-NAME
 70
     0
  0
ATTDEF
  5
874
  8
AM_BOR
 62
     2
 10
-73.114207794603161
 20
3.0951784671507041
 30
0.0
 40
3.5
  1
1.0
 72
     4
 11
-70.487829841847244
 21
4.8451784671507019
 31
0.0
  3
Scale
  2
GEN-TITLE-SCA
 70
     0
  0
LINE
  5
875
  8
AM_BOR
 10
-89.999999999999986
 20
-0.0000000000000284
 30
0.0
 11
0.0
 21
0.0
 31
0.0
  0
LINE
  5
876
  8
AM_BOR
 62
     7
 10
-89.999999999999986
 20
29.999999999999972
 30
0.0
 11
0.0000000000000568
 21
29.999999999999972
 31
0.0
  0
LINE
  5
877
  8
AM_BOR
 62
     7
 10
-89.999999999999986
 20
19.999999999999972
 30
0.0
 11
0.0000000000000568
 21
19.999999999999972
 31
0.0
  0
LINE
  5
878
  8
AM_BOR
 62
     7
 10
-89.999999999999986
 20
9.9999999999999716
 30
0.0
 11
0.0000000000000568
 21
9.9999999999999716
 31
0.0
  0
LINE
  5
879
  8
AM_BOR
 62
     7
 10
-89.999999999999986
 20
29.999999999999972
 30
0.0
 11
-89.999999999999986
 21
-0.0000000000000284
 31
0.0
  0
TEXT
  5
87A
  8
AM_BOR
 62
     2
 10
-88.926276878663558
 20
5.957615947880555
 30
0.0
 40
2.0
  1
Scale;
 41
0.9
 11
-88.926276878663558
 21
6.957615947880555
 31
0.0
 73
     2
  0
TEXT
  5
87B
  8
AM_BOR
 62
     2
 10
-88.494748526937144
 20
26.239448479021942
 30
0.0
 40
2.0
  1
Type;
 41
0.9
 11
-88.494748526937144
 21
27.239448479021942
 31
0.0
 73
     2
  0
TEXT
  5
87C
  8
AM_BOR
 62
     2
 10
-89.070119662572338
 20
16.314296389314471
 30
0.0
 40
2.0
  1
Model name;
 41
0.9
 11
-89.070119662572338
 21
17.314296389314471
 31
0.0
 73
     2
  0
LINE
  5
87D
  8
AM_BOR
 62
     7
 10
-59.999999999999972
 20
9.9999999999999716
 30
0.0
 11
-59.999999999999972
 21
-0.0000000000000284
 31
0.0
  0
TEXT
  5
87E
  8
AM_BOR
 62
     2
 10
-46.636498409475273
 20
2.5122886214309679
 30
0.0
 40
4.0
  1
SUNX Ltd.
 41
0.9
 11
-46.636498409475273
 21
4.5122886214309679
 31
0.0
 73
     2
  0
LINE
  5
87F
  8
AM_BOR
 10
0.0000000000000568
 20
29.999999999999972
 30
0.0
 11
0.0
 21
0.0
 31
0.0
  0
ENDBLK
  5
881
  8
0
  0
BLOCK
  8
0
  2
*U9
 70
     1
 10
0.0
 20
0.0
 30
0.0
  3
*U9
  1

  0
TEXT
  5
95F
  8
AM_BOR
 10
-58.799999999999898
 20
36.999999999999972
 30
0.0
 40
3.0
  1
処
  0
TEXT
  5
960
  8
AM_BOR
 10
-58.799999999999898
 20
31.999999999999972
 30
0.0
 40
3.0
  1
理
  0
ENDBLK
  5
962
  8
0
  0
BLOCK
  8
0
  2
*U10
 70
     1
 10
0.0
 20
0.0
 30
0.0
  3
*U10
  1

  0
TEXT
  5
964
  8
AM_BOR
 10
-58.474999999999902
 20
5.5
 30
0.0
 40
3.0
  1
図
  0
TEXT
  5
965
  8
AM_BOR
 10
-58.499999999999901
 20
0.5
 30
0.0
 40
3.0
  1
番
  0
ENDBLK
  5
967
  8
0
  0
BLOCK
  8
0
  2
*U11
 70
     1
 10
0.0
 20
0.0
 30
0.0
  3
*U11
  1

  0
TEXT
  5
969
  8
AM_BOR
 10
-58.57499999999991
 20
16.000000000000011
 30
0.0
 40
3.0
  1
品
  0
TEXT
  5
96A
  8
AM_BOR
 10
-58.499999999999901
 20
11.000000000000011
 30
0.0
 40
3.0
  1
名
  0
ENDBLK
  5
96C
  8
0
  0
BLOCK
  8
0
  2
*U12
 70
     1
 10
0.0
 20
0.0
 30
0.0
  3
*U12
  1

  0
TEXT
  5
96E
  8
AM_BOR
 10
-58.57499999999991
 20
27.000000000000011
 30
0.0
 40
3.0
  1
品
  0
TEXT
  5
96F
  8
AM_BOR
 10
-58.499999999999908
 20
22.000000000000011
 30
0.0
 40
3.0
  1
番
  0
ENDBLK
  5
971
  8
0
  0
BLOCK
  8
0
  2
*U13
 70
     1
 10
0.0
 20
0.0
 30
0.0
  3
*U13
  1

  0
TEXT
  5
973
  8
AM_BOR
 10
-58.199999999999903
 20
46.999999999999929
 30
0.0
 40
3.0
  1
材
  0
TEXT
  5
974
  8
AM_BOR
 10
-58.499999999999901
 20
41.999999999999929
 30
0.0
 40
3.0
  1
質
  0
ENDBLK
  5
976
  8
0
  0
BLOCK
  8
0
  2
*X14
 70
     1
 10
0.0
 20
0.0
 30
0.0
  3
*X14
  1

  0
LINE
  5
978
  8
0
 62
     0
 10
908.78211855792745
 20
0.0000021179689327
 30
0.0
 11
912.44608836145346
 21
3.6639719214950328
 31
0.0
  0
LINE
  5
979
  8
0
 62
     0
 10
886.33147825525464
 20
0.00000211796889
 30
0.0
 11
912.44608836145346
 21
26.1146122241679
 31
0.0
  0
LINE
  5
97A
  8
0
 62
     0
 10
863.88083795258137
 20
0.0000021179688758
 30
0.0
 11
912.44608836145346
 21
48.56525252684078
 31
0.0
  0
LINE
  5
97B
  8
0
 62
     0
 10
841.43019764990868
 20
0.0000021179689327
 30
0.0
 11
912.44608836145346
 21
71.015892829513689
 31
0.0
  0
LINE
  5
97C
  8
0
 62
     0
 10
818.97955734723587
 20
0.0000021179689043
 30
0.0
 11
912.44608836145346
 21
93.466533132186527
 31
0.0
  0
LINE
  5
97D
  8
0
 62
     0
 10
796.52891704456283
 20
0.0000021179688758
 30
0.0
 11
912.44608836145346
 21
115.91717343485939
 31
0.0
  0
LINE
  5
97E
  8
0
 62
     0
 10
774.07827674189002
 20
0.0000021179689043
 30
0.0
 11
912.44608836145346
 21
138.36781373753229
 31
0.0
  0
LINE
  5
97F
  8
0
 62
     0
 10
751.6276364392171
 20
0.000002117968819
 30
0.0
 11
912.44608836145346
 21
160.8184540402051
 31
0.0
  0
LINE
  5
980
  8
0
 62
     0
 10
729.17699613654406
 20
0.0000021179688474
 30
0.0
 11
912.44608836145346
 21
183.26909434287799
 31
0.0
  0
LINE
  5
981
  8
0
 62
     0
 10
706.72635583387125
 20
0.000002117968819
 30
0.0
 11
912.44608836145346
 21
205.71973464555089
 31
0.0
  0
LINE
  5
982
  8
0
 62
     0
 10
684.27571553119856
 20
0.000002117968819
 30
0.0
 11
912.44608836145346
 21
228.17037494822381
 31
0.0
  0
LINE
  5
983
  8
0
 62
     0
 10
661.82507522852552
 20
0.0000021179687906
 30
0.0
 11
906.02143151403016
 21
244.1963584034734
 31
0.0
  0
LINE
  5
984
  8
0
 62
     0
 10
639.3744349258526
 20
0.0000021179688758
 30
0.0
 11
883.57079121135735
 21
244.1963584034734
 31
0.0
  0
LINE
  5
985
  8
0
 62
     0
 10
616.92379462317967
 20
0.0000021179687621
 30
0.0
 11
861.12015090868454
 21
244.1963584034734
 31
0.0
  0
LINE
  5
986
  8
0
 62
     0
 10
594.47315432050675
 20
0.0000021179687053
 30
0.0
 11
838.66951060601139
 21
244.1963584034734
 31
0.0
  0
LINE
  5
987
  8
0
 62
     0
 10
572.02251401783394
 20
0.0000021179687906
 30
0.0
 11
816.21887030333858
 21
244.1963584034734
 31
0.0
  0
LINE
  5
988
  8
0
 62
     0
 10
549.57187371516113
 20
0.0000021179687337
 30
0.0
 11
793.76823000066588
 21
244.1963584034734
 31
0.0
  0
LINE
  5
989
  8
0
 62
     0
 10
527.12123341248798
 20
0.00000211796862
 30
0.0
 11
771.31758969799284
 21
244.1963584034734
 31
0.0
  0
LINE
  5
98A
  8
0
 62
     0
 10
504.67059310981517
 20
0.0000021179687337
 30
0.0
 11
748.86694939532003
 21
244.1963584034734
 31
0.0
  0
LINE
  5
98B
  8
0
 62
     0
 10
482.21995280714248
 20
0.0000021179687337
 30
0.0
 11
726.41630909264723
 21
244.1963584034734
 31
0.0
  0
LINE
  5
98C
  8
0
 62
     0
 10
459.76931250446938
 20
0.00000211796862
 30
0.0
 11
703.96566878997419
 21
244.19635840347331
 31
0.0
  0
LINE
  5
98D
  8
0
 62
     0
 10
437.31867220179652
 20
0.0000021179687337
 30
0.0
 11
681.51502848730138
 21
244.1963584034734
 31
0.0
  0
LINE
  5
98E
  8
0
 62
     0
 10
414.86803189912371
 20
0.0000021179686769
 30
0.0
 11
659.06438818462846
 21
244.1963584034734
 31
0.0
  0
LINE
  5
98F
  8
0
 62
     0
 10
392.4173915964509
 20
0.00000211796862
 30
0.0
 11
636.61374788195565
 21
244.19635840347331
 31
0.0
  0
LINE
  5
990
  8
0
 62
     0
 10
369.96675129377792
 20
0.0000021179687337
 30
0.0
 11
614.16310757928272
 21
244.1963584034734
 31
0.0
  0
LINE
  5
991
  8
0
 62
     0
 10
347.51611099110488
 20
0.00000211796862
 30
0.0
 11
591.7124672766098
 21
244.1963584034734
 31
0.0
  0
LINE
  5
992
  8
0
 62
     0
 10
325.06547068843207
 20
0.0000021179685632
 30
0.0
 11
569.26182697393688
 21
244.1963584034732
 31
0.0
  0
LINE
  5
993
  8
0
 62
     0
 10
302.61483038575921
 20
0.0000021179687337
 30
0.0
 11
546.81118667126395
 21
244.1963584034734
 31
0.0
  0
LINE
  5
994
  8
0
 62
     0
 10
280.16419008308628
 20
0.00000211796862
 30
0.0
 11
524.36054636859103
 21
244.19635840347331
 31
0.0
  0
LINE
  5
995
  8
0
 62
     0
 10
257.71354978041342
 20
0.0000021179685064
 30
0.0
 11
501.90990606591822
 21
244.19635840347331
 31
0.0
  0
LINE
  5
996
  8
0
 62
     0
 10
235.26290947774041
 20
0.0000021179685632
 30
0.0
 11
479.4592657632453
 21
244.19635840347331
 31
0.0
  0
LINE
  5
997
  8
0
 62
     0
 10
212.81226917506771
 20
0.0000021179686769
 30
0.0
 11
457.00862546057238
 21
244.19635840347331
 31
0.0
  0
LINE
  5
998
  8
0
 62
     0
 10
190.3616288723949
 20
0.0000021179686769
 30
0.0
 11
434.55798515789951
 21
244.19635840347331
 31
0.0
  0
LINE
  5
999
  8
0
 62
     0
 10
167.9109885697217
 20
0.0000021179685632
 30
0.0
 11
412.10734485522647
 21
244.19635840347331
 31
0.0
  0
LINE
  5
99A
  8
0
 62
     0
 10
145.460348267049
 20
0.0000021179686769
 30
0.0
 11
389.65670455255372
 21
244.1963584034732
 31
0.0
  0
LINE
  5
99B
  8
0
 62
     0
 10
123.0097079643762
 20
0.0000021179686769
 30
0.0
 11
367.2060642498808
 21
244.1963584034732
 31
0.0
  0
LINE
  5
99C
  8
0
 62
     0
 10
100.5590676617032
 20
0.0000021179685632
 30
0.0
 11
344.75542394720787
 21
244.19635840347331
 31
0.0
  0
LINE
  5
99D
  8
0
 62
     0
 10
78.108427359030429
 20
0.0000021179687337
 30
0.0
 11
322.30478364453489
 21
244.1963584034732
 31
0.0
  0
LINE
  5
99E
  8
0
 62
     0
 10
55.657787056357563
 20
0.0000021179686769
 30
0.0
 11
299.8541433418622
 21
244.1963584034732
 31
0.0
  0
LINE
  5
99F
  8
0
 62
     0
 10
33.207146753684583
 20
0.00000211796862
 30
0.0
 11
277.40350303918927
 21
244.19635840347331
 31
0.0
  0
LINE
  5
9A0
  8
0
 62
     0
 10
10.75650645101177
 20
0.0000021179687337
 30
0.0
 11
254.95286273651621
 21
244.1963584034732
 31
0.0
  0
LINE
  5
9A1
  8
0
 62
     0
 10
0.0000034472877815
 20
11.69413941691743
 30
0.0
 11
232.50222243384329
 21
244.196358403473
 31
0.0
  0
LINE
  5
9A2
  8
0
 62
     0
 10
0.0000034472878951
 20
34.144779719590467
 30
0.0
 11
210.05158213117059
 21
244.1963584034732
 31
0.0
  0
LINE
  5
9A3
  8
0
 62
     0
 10
0.0000034472877815
 20
56.59542002226334
 30
0.0
 11
187.60094182849761
 21
244.1963584034732
 31
0.0
  0
LINE
  5
9A4
  8
0
 62
     0
 10
0.0000034472877815
 20
79.046060324936207
 30
0.0
 11
165.15030152582469
 21
244.196358403473
 31
0.0
  0
LINE
  5
9A5
  8
0
 62
     0
 10
0.0000034472878383
 20
101.4967006276091
 30
0.0
 11
142.69966122315191
 21
244.1963584034732
 31
0.0
  0
LINE
  5
9A6
  8
0
 62
     0
 10
0.0000034472877815
 20
123.9473409302819
 30
0.0
 11
120.2490209204789
 21
244.1963584034732
 31
0.0
  0
LINE
  5
9A7
  8
0
 62
     0
 10
0.0000034472877815
 20
146.39798123295481
 30
0.0
 11
97.798380617806075
 21
244.196358403473
 31
0.0
  0
LINE
  5
9A8
  8
0
 62
     0
 10
0.0000034472878383
 20
168.8486215356277
 30
0.0
 11
75.347740315133137
 21
244.196358403473
 31
0.0
  0
LINE
  5
9A9
  8
0
 62
     0
 10
0.0000034472877815
 20
191.29926183830059
 30
0.0
 11
52.897100012460271
 21
244.19635840347311
 31
0.0
  0
LINE
  5
9AA
  8
0
 62
     0
 10
0.0000034472877815
 20
213.74990214097349
 30
0.0
 11
30.446459709787401
 21
244.196358403473
 31
0.0
  0
LINE
  5
9AB
  8
0
 62
     0
 10
0.0000034472878383
 20
236.20054244364641
 30
0.0
 11
7.9958194071144808
 21
244.196358403473
 31
0.0
  0
ENDBLK
  5
9AD
  8
0
  0
BLOCK
  8
0
  2
*S15
 70
     1
 10
0.0
 20
0.0
 30
0.0
  3
*S15
  1

  0
LINE
  5
9AF
  8
AM_5
 10
-141.28781414360489
 20
-48.087209713012378
 30
0.0
 11
-134.699142070128
 21
-48.087209713012378
 31
0.0
  0
LINE
  5
9B0
  8
AM_5
 10
-134.699142070128
 20
-48.087209713012378
 30
0.0
 11
-123.1445477188973
 21
-48.087209713012378
 31
0.0
  0
LINE
  5
9B1
  8
AM_5
 10
-123.1445477188973
 20
-48.087209713012378
 30
0.0
 11
-121.5505642145593
 21
-44.841312471500011
 31
0.0
  0
TRACE
  5
9B2
  8
AM_5
 10
-121.101760117194
 20
-45.061709568096397
 30
0.0
 11
-121.9993683119246
 21
-44.62091537490361
 31
0.0
 12
-120.22818162969141
 22
-42.148487876536933
 32
0.0
 13
-120.22818162969141
 23
-42.148487876536933
 33
0.0
  0
TEXT
  8
0
  40
3
  5
9C4
  62
2
  72
0
  71
0
 10
-123.911
 20
-48.3516
 30
0.000000
  1
M4×0.7
  7
ACANSTS
  0
ENDBLK
  5
9B5
  8
0
  0
BLOCK
  8
0
  2
*S16
 70
     1
 10
0.0
 20
0.0
 30
0.0
  3
*S16
  1

  0
LINE
  5
9B7
  8
AM_5
  6
AM_ISO02W050X2
 10
-123.9031816296893
 20
-40.148487876536933
 30
0.0
 11
-125.3031816296871
 21
-40.148487876536933
 31
0.0
  0
LINE
  5
9B8
  8
AM_5
  6
AM_ISO02W050X2
 10
-125.3031816296871
 20
-40.148487876536933
 30
0.0
 11
-134.90318162968751
 21
-40.148487876536933
 31
0.0
  0
TRACE
  5
9B9
  8
AM_5
  6
AM_ISO02W050X2
 10
-134.90318162968751
 20
-39.648487878536933
 30
0.0
 11
-134.90318162968751
 21
-40.648487874536933
 31
0.0
 12
-137.90318162968751
 22
-40.148487876536933
 32
0.0
 13
-137.90318162968751
 23
-40.148487876536933
 33
0.0
  0
ENDBLK
  5
9BC
  8
0
  0
BLOCK
  8
0
  2
*S17
 70
     1
 10
0.0
 20
0.0
 30
0.0
  3
*S17
  1

  0
LINE
  5
9BE
  8
AM_5
  6
AM_ISO02W050X2
 10
-123.9031816296911
 20
5.1007468536716942
 30
0.0
 11
-125.30318162968889
 21
5.1007468536716942
 31
0.0
  0
LINE
  5
9BF
  8
AM_5
  6
AM_ISO02W050X2
 10
-125.30318162968889
 20
5.1007468536716942
 30
0.0
 11
-134.9031816296893
 21
5.1007468536716942
 31
0.0
  0
TRACE
  5
9C0
  8
AM_5
  6
AM_ISO02W050X2
 10
-134.9031816296893
 20
5.6007468516716941
 30
0.0
 11
-134.9031816296893
 21
4.6007468556716944
 31
0.0
 12
-137.9031816296893
 22
5.1007468536716942
 32
0.0
 13
-137.9031816296893
 23
5.1007468536716942
 33
0.0
  0
ENDBLK
  5
9C3
  8
0
  0
ENDSEC
  0
SECTION
  2
ENTITIES
  0
POINT
  5
522
  8
0
 10
0.0
 20
0.0
 30
0.0
1001
GENIUS_GENOBJ-NBEHI-BHF_13
1002
{
1000
OWNER
1000
GENBEHI
1002
}
1001
GENIUS_GENOENT_13
1002
{
1000
MYREF
1005
522
1002
}
1002
{
1000
GRP
1005
0
1002
}
1001
GENIUS_GENOLIS_13
1002
{
1000
ENT
1005
3A1
1002
}
1001
GENIUS_GENODEF_13
1002
{
1000
HIER
1070
     1
1002
}
1002
{
1000
MANEDIT
1070
     0
1002
}
1002
{
1000
NOSEL
1070
     1
1002
}
1002
{
1000
BEHIND
1070
     0
1002
}
1002
{
1000
REACTOR
1002
}
1001
GENIUS_GENBH_13
1002
{
1000
MODIFY
1002
{
1000
U
1000
N
1002
}
1002
{
1000
I
1000
N
1002
}
1002
}
1002
{
1000
FLAGS
1070
   564
1002
}
1002
{
1000
BGO
1005
523
1002
}
  0
LINE
  5
7FB
  8
AM_0
 62
     7
 10
-123.55318162969169
 20
-38.148487876536933
 30
0.0
 11
-116.903181629692
 21
-38.148487876536933
 31
0.0
  0
LINE
  5
7FC
  8
AM_0
 62
     7
 10
-116.9031816296911
 20
-42.148487876536933
 30
0.0
 11
-123.55318162969169
 21
-42.148487876536933
 31
0.0
  0
LINE
  5
7FD
  8
AM_0
 62
     7
 10
-116.9031816296911
 20
6.6507468536709657
 30
0.0
 11
-123.9031816296911
 21
6.6507468536709657
 31
0.0
  0
LINE
  5
7FE
  8
AM_0
 62
     7
 10
-116.9031816296911
 20
3.5507468536724209
 30
0.0
 11
-123.9031816296911
 21
3.5507468536724209
 31
0.0
  0
LINE
  5
7FF
  8
AM_0
 62
     2
 10
-123.9031816296893
 20
-38.884565410557222
 30
0.0
 11
-116.903181629692
 21
-38.884565410557222
 31
0.0
  0
LINE
  5
800
  8
AM_0
 62
     2
 10
-116.9031816296911
 20
-41.412410342518449
 30
0.0
 11
-123.9031816296893
 21
-41.412410342518449
 31
0.0
  0
TEXT
  5
801
  8
AM_0
 10
-165.9135503542461
 20
-45.846450460512862
 30
0.0
 40
0.3
  1
EX-31
  0
CIRCLE
  5
806
  8
AM_0
 62
     7
 10
-165.3392182533444
 20
-40.148487876536933
 30
0.0
 40
1.049999999998362
  0
ARC
  5
808
  8
AM_0
 62
     2
 10
-164.7142182533444
 20
-54.67973787653694
 30
0.0
 40
0.78125
 50
216.869897645854
 51
323.13010235414578
  0
ARC
  5
809
  8
AM_0
 62
     2
 10
-165.9642182533444
 20
-55.61723787653694
 30
0.0
 40
0.78125
 50
36.86989764585411
 51
143.13010235414581
  0
ARC
  5
80A
  8
AM_0
 62
     2
 10
-165.9642182533444
 20
-54.67973787653694
 30
0.0
 40
0.78125
 50
216.869897645854
 51
323.13010235414578
  0
ARC
  5
80B
  8
AM_0
 62
     7
 10
-165.3392182533444
 20
-40.148487876536933
 30
0.0
 40
1.9999999999989
 50
219.1949674259875
 51
320.80503257404558
  0
ARC
  5
80C
  8
AM_0
 62
     7
 10
-165.3392182533444
 20
-40.148487876536933
 30
0.0
 40
2.0000000000021152
 50
39.194967425987542
 51
140.80503257389901
  0
LINE
  5
80D
  8
AM_0
 62
     7
 10
-166.5892182533444
 20
-55.14848787653694
 30
0.0
 11
-166.5892182533444
 21
-50.14848787653694
 31
0.0
  0
LINE
  5
80E
  8
AM_0
 62
     7
 10
-164.0892182533444
 20
-55.14848787653694
 30
0.0
 11
-164.0892182533444
 21
-50.14848787653694
 31
0.0
  0
LINE
  5
80F
  8
AM_0
 62
     7
 10
-167.3662331417755
 20
-50.14848787654784
 30
0.0
 11
-163.31220336491609
 21
-50.14848787654784
 31
0.0
  0
LINE
  5
810
  8
AM_0
 62
     7
 10
-163.31220336491609
 20
-50.14848787654784
 30
0.0
 11
-163.08921825334349
 21
-47.648487876536933
 31
0.0
  0
LINE
  5
811
  8
AM_0
 62
     7
 10
-167.3662331417755
 20
-50.14848787654784
 30
0.0
 11
-167.58921825334349
 21
-47.648487876536933
 31
0.0
  0
LINE
  5
812
  8
AM_0
 62
     7
 10
-163.08921825334349
 20
-47.648487876536933
 30
0.0
 11
-163.08921825334349
 21
-47.148487876536933
 31
0.0
  0
LINE
  5
813
  8
AM_0
 62
     7
 10
-167.58921825334349
 20
-47.648487876536933
 30
0.0
 11
-167.58921825334349
 21
-47.14848787654784
 31
0.0
  0
LINE
  5
814
  8
AM_0
 62
     7
 10
-173.13921825334461
 20
-39.65848417556856
 30
0.0
 11
-173.13921825334461
 21
-40.638491577487123
 31
0.0
  0
LINE
  5
815
  8
AM_0
 62
     7
 10
-157.53921825334521
 20
-39.65848417558675
 30
0.0
 11
-157.53921825334521
 21
-40.638491577498023
 31
0.0
  0
LINE
  5
816
  8
AM_0
 62
     7
 10
-123.9031816296893
 20
-41.798487876536562
 30
0.0
 11
-123.9031816296893
 21
-38.498487876537297
 31
0.0
  0
LINE
  5
817
  8
AM_0
 62
     7
 10
-123.9031816296893
 20
-41.798487876536562
 30
0.0
 11
-123.55318162969169
 21
-42.148487876536933
 31
0.0
  0
LINE
  5
818
  8
AM_0
 62
     7
 10
-123.9031816296893
 20
-38.498487876537297
 30
0.0
 11
-123.55318162969169
 21
-38.148487876536933
 31
0.0
  0
LINE
  5
819
  8
AM_0
 62
     7
 10
-169.38067013768011
 20
-33.148487876548522
 30
0.0
 11
-173.13921825334461
 21
-39.65848417556856
 31
0.0
  0
LINE
  5
81A
  8
AM_0
 62
     7
 10
-173.13921825334461
 20
-40.638491577487123
 30
0.0
 11
-169.38067013767571
 21
-47.148487876536208
 31
0.0
  0
LINE
  5
81B
  8
AM_0
 62
     7
 10
-169.38067013767571
 20
-47.148487876536208
 30
0.0
 11
-161.29776636901511
 21
-47.148487876528293
 31
0.0
  0
LINE
  5
81C
  8
AM_0
 62
     7
 10
-161.29776636901519
 20
-47.148487876528293
 30
0.0
 11
-157.53921825334521
 21
-40.638491577498023
 31
0.0
  0
LINE
  5
81D
  8
AM_0
 62
     7
 10
-157.53921825334521
 20
-39.65848417558675
 30
0.0
 11
-161.29776636901511
 21
-33.148487876539193
 31
0.0
  0
LINE
  5
81E
  8
AM_0
 62
     7
 10
-161.29776636901511
 20
-33.148487876539193
 30
0.0
 11
-169.38067013768011
 21
-33.148487876548522
 31
0.0
  0
LINE
  5
81F
  8
AM_0
 62
     7
 10
-123.9031816296911
 20
3.5507468536724209
 30
0.0
 11
-123.9031816296911
 21
6.6507468536709657
 31
0.0
  0
LINE
  5
820
  8
AM_0
 62
     7
 10
-166.8892182533437
 20
-41.412410342518449
 30
0.0
 11
-166.8892182533437
 21
-38.884565410569962
 31
0.0
  0
LINE
  5
821
  8
AM_0
 62
     7
 10
-163.78921825334339
 20
-38.884565410569962
 30
0.0
 11
-163.78921825334339
 21
-41.412410342518449
 31
0.0
  0
LINE
  5
822
  8
AM_0
 62
     2
 10
-123.55318162969169
 20
-38.148487876536933
 30
0.0
 11
-123.55318162969169
 21
-38.884565410557222
 31
0.0
  0
LINE
  5
823
  8
AM_0
 62
     2
 10
-123.55318162969169
 20
-42.148487876536933
 30
0.0
 11
-123.55318162969169
 21
-41.412410342518449
 31
0.0
  0
LINE
  5
824
  8
AM_0
 62
     2
 10
-111.3031816296926
 20
9.1421987380016372
 30
0.0
 11
-109.9031816296911
 21
8.9112586303216403
 31
0.0
  0
LINE
  5
825
  8
AM_0
 62
     2
 10
-111.3031816296926
 20
1.059294969341749
 30
0.0
 11
-109.9031816296911
 21
1.2902350770217479
 31
0.0
  0
LINE
  5
826
  8
AM_0
 10
-111.2960748485048
 20
-47.141381095347363
 30
0.0
 11
-109.9031816296911
 21
-46.098487876524921
 31
0.0
  0
LINE
  5
827
  8
AM_0
 10
-111.2960748485048
 20
-33.155594657719227
 30
0.0
 11
-109.9031816296911
 21
-34.198487876538017
 31
0.0
  0
TEXT
  5
828
  8
AM_0
 10
-114.5312329931258
 20
-41.47625459073253
 30
0.0
 40
0.3
  1
EX-31
  0
TEXT
  5
829
  8
AM_0
 10
-114.7443812836819
 20
4.8397375647890613
 30
0.0
 40
0.3
  1
EX-31
  0
ARC
  5
82E
  8
AM_0
 62
     2
 10
-112.42818162968889
 20
-54.67973787653694
 30
0.0
 40
0.78125
 50
216.869897645854
 51
323.13010235414578
  0
ARC
  5
82F
  8
AM_0
 62
     2
 10
-111.17818162968889
 20
-55.61723787653694
 30
0.0
 40
0.78125
 50
36.86989764585411
 51
143.13010235414581
  0
ARC
  5
830
  8
AM_0
 62
     2
 10
-111.17818162968889
 20
-54.67973787653694
 30
0.0
 40
0.78125
 50
216.869897645854
 51
323.13010235414578
  0
LINE
  5
838
  8
AM_0
 62
     2
 10
-111.30318162968079
 20
-47.148487876527831
 30
0.0
 11
-111.30318162968079
 21
-33.148487876536933
 31
0.0
  0
LINE
  5
839
  8
AM_0
 62
     7
 10
-116.9031816296911
 20
-47.148487876533302
 30
0.0
 11
-111.30318162968079
 21
-47.148487876527831
 31
0.0
  0
LINE
  5
83A
  8
AM_0
 62
     7
 10
-116.903181629692
 20
-33.14848787652965
 30
0.0
 11
-111.30318162968889
 21
-33.148487876536933
 31
0.0
  0
LINE
  5
83B
  8
AM_0
 62
     2
 10
-109.9031816296911
 20
-40.148487876536933
 30
0.0
 11
-111.30318162968889
 21
-40.148487876536933
 31
0.0
  0
LINE
  5
83C
  8
AM_0
 62
     7
 10
-111.3031816296926
 20
-2.6992531463275782
 30
0.0
 11
-116.9031816296911
 21
-2.6992531463275782
 31
0.0
  0
LINE
  5
83D
  8
AM_0
 62
     2
 10
-116.9031816296911
 20
1.059294969341749
 30
0.0
 11
-111.3031816296926
 21
1.059294969341749
 31
0.0
  0
LINE
  5
83E
  8
AM_0
 62
     7
 10
-109.9031816296911
 20
-1.7387812420075759
 30
0.0
 11
-109.9031816296911
 21
3.5507468536724209
 31
0.0
  0
LINE
  5
83F
  8
AM_0
 62
     7
 10
-116.9031816296911
 20
12.90074685367096
 30
0.0
 11
-111.3031816296926
 21
12.90074685367096
 31
0.0
  0
LINE
  5
840
  8
AM_0
 62
     2
 10
-111.3031816296926
 20
9.1421987380016372
 30
0.0
 11
-116.9031816296911
 21
9.1421987380016372
 31
0.0
  0
LINE
  5
841
  8
AM_0
 62
     2
 10
-111.3031816296926
 20
12.90074685367096
 30
0.0
 11
-111.3031816296926
 21
6.6507468536709657
 31
0.0
  0
LINE
  5
842
  8
AM_0
 62
     7
 10
-111.2960748485048
 20
-33.155594657719227
 30
0.0
 11
-111.30318162968889
 21
-33.148487876536933
 31
0.0
  0
LINE
  5
843
  8
AM_0
 62
     7
 10
-111.30318162968079
 20
-47.148487876527831
 30
0.0
 11
-111.2960748485048
 21
-47.141381095347363
 31
0.0
  0
LINE
  5
844
  8
AM_0
 62
     7
 10
-109.9031816296911
 20
3.5507468536724209
 30
0.0
 11
-112.3031816296926
 21
3.5507468536724218
 31
0.0
  0
LINE
  5
845
  8
AM_0
 62
     7
 10
-112.3031816296926
 20
3.5507468536724232
 30
0.0
 11
-112.3031816296926
 21
6.6507468536709684
 31
0.0
  0
LINE
  5
846
  8
AM_0
 62
     7
 10
-112.3031816296926
 20
6.6507468536709666
 30
0.0
 11
-109.9031816296911
 21
6.6507468536709657
 31
0.0
  0
LINE
  5
847
  8
AM_0
 62
     7
 10
-109.9031816296911
 20
6.6507468536709657
 30
0.0
 11
-109.9031816296911
 21
11.940274949350959
 31
0.0
  0
LINE
  5
848
  8
AM_0
 62
     2
 10
-111.3031816296926
 20
3.5507468536724209
 30
0.0
 11
-111.3031816296926
 21
-2.6992531463275782
 31
0.0
  0
LINE
  5
849
  8
AM_0
 62
     7
 10
-110.55318162968889
 20
-50.14848787653694
 30
0.0
 11
-110.55318162968889
 21
-55.14848787653694
 31
0.0
  0
LINE
  5
84A
  8
AM_0
 62
     7
 10
-113.05318162968901
 20
-50.14848787653694
 30
0.0
 11
-113.05318162968901
 21
-55.14848787653694
 31
0.0
  0
LINE
  5
84B
  8
AM_0
 62
     7
 10
-113.7031816296831
 20
-50.14848787653694
 30
0.0
 11
-113.7031816296886
 21
-47.148487876527831
 31
0.0
  0
LINE
  5
84C
  8
AM_0
 62
     7
 10
-113.7031816296831
 20
-50.14848787653694
 30
0.0
 11
-109.9031816296911
 21
-50.14848787653694
 31
0.0
  0
LINE
  5
84D
  8
AM_0
 62
     7
 10
-109.9031816296911
 20
-34.198487876538017
 30
0.0
 11
-109.9031816296911
 21
-50.14848787653694
 31
0.0
  0
LINE
  5
84E
  8
AM_0
 62
     7
 10
-109.9031816296911
 20
6.6507468536709657
 30
0.0
 11
-109.9031816296911
 21
3.5507468536724209
 31
0.0
  0
LINE
  5
84F
  8
AM_0
 62
     2
 10
-111.30318162968889
 20
-40.638491577498023
 30
0.0
 11
-116.9031816296915
 21
-40.638491577498023
 31
0.0
  0
LINE
  5
850
  8
AM_0
 62
     2
 10
-116.9031816296916
 20
-39.65848417558675
 30
0.0
 11
-111.30318162968889
 21
-39.65848417558675
 31
0.0
  0
LINE
  5
852
  8
AM_0
 62
     7
 10
-116.9031816296911
 20
-2.6992531463275782
 30
0.0
 11
-116.9031816296911
 21
12.90074685367096
 31
0.0
  0
LINE
  5
855
  8
AM_0
 62
     7
 10
-116.903181629692
 20
-33.14848787652965
 30
0.0
 11
-116.9031816296911
 21
-47.148487876533302
 31
0.0
  0
LINE
  5
857
  8
AM_0
 62
     7
 10
-109.9031816296911
 20
11.940274949350959
 30
0.0
 11
-111.3031816296926
 21
12.90074685367096
 31
0.0
  0
LINE
  5
858
  8
AM_0
 62
     7
 10
-111.3031816296926
 20
-2.6992531463275782
 30
0.0
 11
-109.9031816296911
 21
-1.7387812420075759
 31
0.0
  0
INSERT
  5
86E
  8
AM_BOR
  2
カタログA4F
 10
-50.406398751505783
 20
-175.0316629313227
 30
0.0
1001
GENIUS_GENOREF_13
1005
888
1001
GENIUS_GENODEF_13
1002
{
1000
HIER
1070
     0
1002
}
1002
{
1000
MANEDIT
1070
     0
1002
}
1002
{
1000
NOSEL
1070
     0
1002
}
1002
{
1000
BEHIND
1070
     0
1002
}
1002
{
1000
REACTOR
1002
}
1001
GENIUS_GENOBJ-N-SDF_13
1002
{
1000
OWNER
1000
GEN
1002
}
1001
GENIUS_GENSCREG_13
1040
1.0
1040
1.0
1011
-50.406398751505783
1021
0.0
1031
0.0
1021
-175.0316629313227
1031
0.0
1011
132.5936012484942
1021
0.0
1031
0.0
1021
85.4683370686773
1031
0.0
1070
     3
  0
INSERT
  5
883
  8
AM_BOR
 66
     1
  2
カタログT
 10
-50.406398751505783
 20
-175.0316629313227
 30
0.0
1001
GENIUS_GENOREF_13
1005
888
  0
ATTRIB
  5
885
  8
AM_BOR
 62
     2
 10
-100.70013291344731
 20
-151.8129425391117
 30
0.0
 40
3.5
  1
Beam Sensor
 72
     4
 11
-86.870757913447392
 21
-150.0629425391117
 31
0.0
  2
TYPE
 70
     0
  0
ATTRIB
  5
886
  8
AM_BOR
 62
     2
 10
-92.995757913447392
 20
-161.97874836213171
 30
0.0
 40
3.5
  1
EX-31
 72
     4
 11
-86.870757913447392
 21
-160.3012357355471
 31
0.0
  2
MODEL-NAME
 70
     0
  0
ATTRIB
  5
887
  8
AM_BOR
 62
     2
 10
-123.169228593353
 20
-171.93648446417191
 30
0.0
 40
3.5
  1
1:1
 72
     4
 11
-120.89422859335301
 21
-170.18648446417191
 31
0.0
  2
GEN-TITLE-SCA
 70
     0
  0
SEQEND
  5
884
  8
AM_BOR
  0
POINT
  5
888
  8
0
 10
0.0
 20
0.0
 30
0.0
1001
GENIUS_GENOBJ-N-TIT_13
1002
{
1000
OWNER
1000
GEN
1002
}
1001
GENIUS_GENOENT_13
1002
{
1000
MYREF
1005
888
1002
}
1002
{
1000
GRP
1005
0
1002
}
1001
GENIUS_GENOLIS_13
1002
{
1000
ENT
1005
883
1005
86E
1002
}
1001
GENIUS_GENTITLE_13
1002
{
1000
SCALE
1000
1:1
1002
}
1002
{
1000
BORDER
1000
カタログA4F
1002
}
1002
{
1000
TITLE
1000
カタログT
1002
}
1002
{
1000
UNCHG
1002
{
1000
GEN-TITLE-SCA
1000
GEN-TITLE-SIZ
1002
}
1002
}
1002
{
1000
HRA
1005
86E
1002
}
1002
{
1000
HTIT
1005
883
1002
}
1002
{
1000
GENIUSID
1005
888
1002
}
1001
GENIUS_GENODEF_13
1002
{
1000
HIER
1070
     1
1002
}
1002
{
1000
MANEDIT
1070
     0
1002
}
1002
{
1000
NOSEL
1070
     0
1002
}
1002
{
1000
BEHIND
1070
     0
1002
}
1002
{
1000
REACTOR
1002
}
  0
INSERT
  5
8BA
  8
AM_5
  2
*S15
 10
0.0
 20
0.0
 30
0.0
  0
INSERT
  5
8BC
  8
AM_5
  2
*S16
 10
0.0
 20
0.0
 30
0.0
  0
INSERT
  5
8BD
  8
AM_5
  2
*S17
 10
0.0
 20
0.0
 30
0.0
  0
LINE
  5
8BE
  8
AM_BOR
  6
AM_ISO02W050X2
 62
     2
 10
-170.98444579800929
 20
-40.148487876536933
 30
0.0
 11
-159.82170245255921
 21
-40.148487876536933
 31
0.0
  0
LINE
  5
8BF
  8
AM_BOR
  6
AM_ISO02W050X2
 62
     2
 10
-165.33921825334249
 20
-35.209076540265983
 30
0.0
 11
-165.33921825334249
 21
-44.807872155393738
 31
0.0
  0
ENDSEC
  0
EOF
