  0
SECTION
  2
HEADER
  9
$ACADVER
  1
AC1009
  9
$INSBASE
 10
177.99999979121739
 20
6.7085914059697132
 30
0.0
  9
$EXTMIN
 10
28.71089354815927
 20
485.65897783439959
 30
0.0
  9
$EXTMAX
 10
112.6300511927153
 20
606.3099118919697
 30
0.0
  9
$LIMMIN
 10
-185.22394776397221
 20
352.48648918188883
  9
$LIMMAX
 10
-7.2239477639723182
 20
600.78648918188867
  9
$ORTHOMODE
 70
     0
  9
$REGENMODE
 70
     1
  9
$FILLMODE
 70
     1
  9
$QTEXTMODE
 70
     0
  9
$MIRRTEXT
 70
     1
  9
$DRAGMODE
 70
     2
  9
$LTSCALE
 40
1.0
  9
$OSMODE
 70
  3071
  9
$ATTMODE
 70
     1
  9
$TEXTSIZE
 40
5.0
  9
$TRACEWID
 40
1.0
  9
$TEXTSTYLE
  7
STANDARD
  9
$CLAYER
  8
0
  9
$CELTYPE
  6
BYLAYER
  9
$CECOLOR
 62
   256
  9
$DIMSCALE
 40
1.0
  9
$DIMASZ
 40
2.5
  9
$DIMEXO
 40
1.0
  9
$DIMDLI
 40
10.0
  9
$DIMRND
 40
0.0
  9
$DIMDLE
 40
0.0
  9
$DIMEXE
 40
1.0
  9
$DIMTP
 40
0.1
  9
$DIMTM
 40
0.1
  9
$DIMTXT
 40
3.5
  9
$DIMCEN
 40
0.0
  9
$DIMTSZ
 40
0.0
  9
$DIMTOL
 70
     1
  9
$DIMLIM
 70
     0
  9
$DIMTIH
 70
     1
  9
$DIMTOH
 70
     1
  9
$DIMSE1
 70
     0
  9
$DIMSE2
 70
     0
  9
$DIMTAD
 70
     0
  9
$DIMZIN
 70
     8
  9
$DIMBLK
  1
OPEN30
  9
$DIMASO
 70
     1
  9
$DIMSHO
 70
     1
  9
$DIMPOST
  1

  9
$DIMAPOST
  1
"
  9
$DIMALT
 70
     0
  9
$DIMALTD
 70
     2
  9
$DIMALTF
 40
0.0393701
  9
$DIMLFAC
 40
1.0
  9
$DIMTOFL
 70
     1
  9
$DIMTVP
 40
0.0
  9
$DIMTIX
 70
     0
  9
$DIMSOXD
 70
     0
  9
$DIMSAH
 70
     0
  9
$DIMBLK1
  1

  9
$DIMBLK2
  1

  9
$DIMSTYLE
  2
AM_JIS
  9
$DIMCLRD
 70
   256
  9
$DIMCLRE
 70
   256
  9
$DIMCLRT
 70
     2
  9
$DIMTFAC
 40
0.71
  9
$DIMGAP
 40
1.5
  9
$LUNITS
 70
     2
  9
$LUPREC
 70
     2
  9
$SKETCHINC
 40
1.0
  9
$FILLETRAD
 40
0.0
  9
$AUNITS
 70
     0
  9
$AUPREC
 70
     0
  9
$MENU
  1
.
  9
$ELEVATION
 40
0.0
  9
$PELEVATION
 40
0.0
  9
$THICKNESS
 40
0.0
  9
$LIMCHECK
 70
     0
  9
$BLIPMODE
 70
     0
  9
$CHAMFERA
 40
0.0
  9
$CHAMFERB
 40
0.0
  9
$SKPOLY
 70
     0
  9
$TDCREATE
 40
2454700.5488717011
  9
$TDUPDATE
 40
2454700.596222511
  9
$TDINDWG
 40
0.0153517593
  9
$TDUSRTIMER
 40
0.0153517593
  9
$USRTIMER
 70
     1
  9
$ANGBASE
 50
0.0
  9
$ANGDIR
 70
     0
  9
$PDMODE
 70
     0
  9
$PDSIZE
 40
0.0
  9
$PLINEWID
 40
0.0
  9
$COORDS
 70
     0
  9
$SPLFRAME
 70
     0
  9
$SPLINETYPE
 70
     6
  9
$SPLINESEGS
 70
     8
  9
$ATTDIA
 70
     1
  9
$ATTREQ
 70
     1
  9
$HANDLING
 70
     1
  9
$HANDSEED
  5
344D
  9
$SURFTAB1
 70
     6
  9
$SURFTAB2
 70
     6
  9
$SURFTYPE
 70
     6
  9
$SURFU
 70
     6
  9
$SURFV
 70
     6
  9
$UCSNAME
  2

  9
$UCSORG
 10
0.0
 20
0.0
 30
0.0
  9
$UCSXDIR
 10
1.0
 20
0.0
 30
0.0
  9
$UCSYDIR
 10
0.0
 20
1.0
 30
0.0
  9
$PUCSNAME
  2

  9
$PUCSORG
 10
0.0
 20
0.0
 30
0.0
  9
$PUCSXDIR
 10
1.0
 20
0.0
 30
0.0
  9
$PUCSYDIR
 10
0.0
 20
1.0
 30
0.0
  9
$USERI1
 70
     0
  9
$USERI2
 70
     0
  9
$USERI3
 70
     0
  9
$USERI4
 70
     0
  9
$USERI5
 70
     0
  9
$USERR1
 40
0.0
  9
$USERR2
 40
0.0
  9
$USERR3
 40
0.0
  9
$USERR4
 40
0.0
  9
$USERR5
 40
0.0
  9
$WORLDVIEW
 70
     1
  9
$SHADEDGE
 70
     3
  9
$SHADEDIF
 70
    70
  9
$TILEMODE
 70
     1
  9
$MAXACTVP
 70
    64
  9
$PLIMCHECK
 70
     0
  9
$PEXTMIN
 10
1.0000000000000000E+020
 20
1.0000000000000000E+020
 30
1.0000000000000000E+020
  9
$PEXTMAX
 10
-1.0000000000000000E+020
 20
-1.0000000000000000E+020
 30
-1.0000000000000000E+020
  9
$PLIMMIN
 10
-5.873748779296875
 20
-5.8737497329711923
  9
$PLIMMAX
 10
291.05224609375
 20
204.09957790374739
  9
$UNITMODE
 70
     0
  9
$VISRETAIN
 70
     1
  9
$PLINEGEN
 70
     0
  9
$PSLTSCALE
 70
     1
  0
ENDSEC
  0
SECTION
  2
TABLES
  0
TABLE
  2
VPORT
 70
     3
  0
VPORT
  2
*ACTIVE
 70
     0
 10
0.0
 20
0.0
 11
1.0
 21
1.0
 12
70.668676965586499
 22
545.98540815951321
 13
0.0
 23
0.0
 14
2.5
 24
2.5
 15
10.0
 25
10.0
 16
0.0
 26
0.0
 36
1.0
 17
0.0
 27
0.0
 37
0.0
 40
121.6171152791473
 41
1.621870882740448
 42
50.0
 43
0.0
 44
0.0
 50
0.0
 51
0.0
 71
     0
 72
   100
 73
     1
 74
     1
 75
     0
 76
     0
 77
     0
 78
     0
  0
ENDTAB
  0
TABLE
  2
LTYPE
 70
    20
  0
LTYPE
  2
CONTINUOUS
 70
     0
  3
Solid line
 72
    65
 73
     0
 40
0.0
  0
LTYPE
  2
AMCONSTR
 70
     0
  3
_______________________
 72
    65
 73
     2
 40
9999.0
 49
9999.0
 49
0.0
  0
LTYPE
  2
CENTER
 70
     0
  3
____ _ ____ _
 72
    65
 73
     4
 40
13.42150481887249
 49
8.3884405117953058
 49
-1.6776881023590591
 49
1.6776881023590591
 49
-1.6776881023590591
  0
LTYPE
  2
HIDDEN
 70
     0
  3
_ _ _ _ _ _ _
 72
    65
 73
     2
 40
2.5165321535385901
 49
1.6776881023590591
 49
-0.8388440511795305
  0
LTYPE
  2
PHANTOM2
 70
     0
  3
Phantom (.5x) ___ _ _ ___ _ _ ___ _ _ ___ _ _
 72
    65
 73
     6
 40
1.25
 49
0.625
 49
-0.125
 49
0.125
 49
-0.125
 49
0.125
 49
-0.125
  0
LTYPE
  2
CENTER2
 70
     0
  3
Center (.5x) ___ _ ___ _ ___ _ ___ _ ___ _ ___
 72
    65
 73
     4
 40
1.125
 49
0.75
 49
-0.125
 49
0.125
 49
-0.125
  0
LTYPE
  2
HIDDEN2
 70
     0
  3
Hidden (.5x) _ _ _ _ _ _ _ _ _ _ _ _ _ _ _ _ _
 72
    65
 73
     2
 40
0.1875
 49
0.125
 49
-0.0625
  0
LTYPE
  2
AMZIGZAG2
 70
     0
  3
/\/-/\/-/\/-/\/-/\/-/\/
 72
    65
 73
     2
 40
0.4401
 49
0.0001
 49
-0.4400000000000001
  0
LTYPE
  2
ACANSTGB
 70
     0
  3
__ . . __ . .
 72
    65
 73
     6
 40
0.35433070866
 49
0.15748031496
 49
-0.03937007874
 49
0.03937007874
 49
-0.03937007874
 49
0.03937007874
 49
-0.03937007874
  0
LTYPE
  2
ACANSTGL
 70
     0
  3
_ _ _ _ _
 72
    65
 73
     2
 40
0.11811023622
 49
0.07874015748
 49
-0.03937007874
  0
ENDTAB
  0
TABLE
  2
LAYER
 70
     1
  0
LAYER
  2
0
 70
     0
 62
     7
  6
CONTINUOUS
  0
ENDTAB
  0
TABLE
  2
STYLE
 70
     6
  0
STYLE
  2
STANDARD
 70
     0
 40
0.0
 41
1.0
 50
0.0
 71
     0
 42
5.0
  3
isocp.shx
  4
extfont.shx
  0
STYLE
  2

 70
     1
 40
0.0
 41
1.0
 50
0.0
 71
     0
 42
2.5
  3
ltypeshp.shx
  4

  0
STYLE
  2
ACANSTS
 70
     0
 40
1.0
 41
1.0
 50
0.0
 71
     0
 42
5.0
  3
romans.shx
  4
extfont.shx
  0
STYLE
  2
ACANSGDT
 70
     0
 40
0.0
 41
1.0
 50
0.0
 71
     0
 42
5.0
  3
amgdtans.shx
  4

  0
ENDTAB
  0
TABLE
  2
VIEW
 70
     6
  0
VIEW
  2
AM_VIEW1
 70
     1
 40
148.4629974365233
 10
102.4788300344005
 20
216.82074642181379
 41
216.70515762739481
 11
0.0
 21
0.0
 31
1.0
 12
0.0
 22
0.0
 32
0.0
 42
50.0
 43
0.0
 44
0.0
 50
0.0
 71
     0
  0
VIEW
  2
AM_VIEW2
 70
     1
 40
148.4629974365233
 10
305.72032768044312
 20
216.82074642181379
 41
216.70515762739481
 11
0.0
 21
0.0
 31
1.0
 12
0.0
 22
0.0
 32
0.0
 42
50.0
 43
0.0
 44
0.0
 50
0.0
 71
     0
  0
VIEW
  2
AM_VIEW3
 70
     1
 40
148.4629974365233
 10
102.4788300344005
 20
68.357748985290513
 41
216.70515762739481
 11
0.0
 21
0.0
 31
1.0
 12
0.0
 22
0.0
 32
0.0
 42
50.0
 43
0.0
 44
0.0
 50
0.0
 71
     0
  0
VIEW
  2
AM_VIEW4
 70
     1
 40
148.4629974365233
 10
305.72032768044312
 20
68.357748985290513
 41
216.70515762739481
 11
0.0
 21
0.0
 31
1.0
 12
0.0
 22
0.0
 32
0.0
 42
50.0
 43
0.0
 44
0.0
 50
0.0
 71
     0
  0
VIEW
  2
AM_VIEW5
 70
     1
 40
148.4629974365233
 10
204.0995788574217
 20
142.5892477035521
 41
216.70515762739461
 11
0.0
 21
0.0
 31
1.0
 12
0.0
 22
0.0
 32
0.0
 42
50.0
 43
0.0
 44
0.0
 50
0.0
 71
     0
  0
VIEW
  2
AM_VIEW6
 70
     1
 40
296.92302561309799
 10
204.0995788574217
 20
142.5892477035521
 41
433.40598115163721
 11
0.0
 21
0.0
 31
1.0
 12
0.0
 22
0.0
 32
0.0
 42
50.0
 43
0.0
 44
0.0
 50
0.0
 71
     0
  0
ENDTAB
  0
TABLE
  2
UCS
 70
     0
  0
ENDTAB
  0
TABLE
  2
APPID
 70
    43
  0
APPID
  2
ACAD
 70
     0
  0
APPID
  2
MCAD_NO_VIS
 70
     0
  0
APPID
  2
ACAD_TEMP_GRAPHIC
 70
     0
  0
APPID
  2
GENIUS_GENODEF_13
 70
     0
  0
APPID
  2
GENIUS_GENOBJ-N-TIT_13
 70
     0
  0
APPID
  2
GENIUS_GENTITLE_13
 70
     0
  0
APPID
  2
GENIUS_GENOENT_13
 70
     0
  0
APPID
  2
GENIUS_GENOREF_13
 70
     0
  0
APPID
  2
GENIUS_GENOLIS_13
 70
     0
  0
APPID
  2
GENIUS_GENZVEED_13
 70
     0
  0
APPID
  2
GENIUS_GENSCREG_15
 70
     0
  0
APPID
  2
GENIUS_GENOBJ-N-SDF_13
 70
     0
  0
APPID
  2
GENIUS_GENOBJ-N-CEN_13
 70
     0
  0
APPID
  2
GENIUS_GENOBJ-N-SEC_13
 70
     0
  0
APPID
  2
GENIUS_GENREC_14
 70
     0
  0
APPID
  2
GENIUS_GENOBJ-N-REC_13
 70
     0
  0
APPID
  2
GENIUS_GENBH_13
 70
     0
  0
APPID
  2
GENIUS_GENOBJ-NBEHI-BHF_13
 70
     0
  0
APPID
  2
GENIUS_GENOBJ-NBEHI-BHB_13
 70
     0
  0
APPID
  2
GENIUS_GENDTOL_13
 70
     0
  0
APPID
  2
GENIUS_GENOBJ-N-HTC_13
 70
     0
  0
APPID
  2
GENIUS_GENHATCH_13
 70
     0
  0
APPID
  2
GENIUS_GENOBJ-N-CRS_13
 70
     0
  0
APPID
  2
GENIUS_GENOBJ-N-CRC_13
 70
     0
  0
APPID
  2
GENIUS_GENCRC_14
 70
     0
  0
APPID
  2
GENIUS_GENOBJ-F-SHCL_13
 70
     0
  0
APPID
  2
GENIUS_GEFMSH_13
 70
     0
  0
APPID
  2
GENIUS_GEFSH_13
 70
     0
  0
APPID
  2
GENIUS_GEFSHP_13
 70
     0
  0
APPID
  2
GENIUS_GENOBJ-F-SHS_13
 70
     0
  0
APPID
  2
GENIUS_GENOBJ-F-SHSS_13
 70
     0
  0
APPID
  2
GENIUS_GEFSHP0_13
 70
     0
  0
APPID
  2
GENIUS_GEFSH0_13
 70
     0
  0
APPID
  2
GEVID995428964
 70
     0
  0
APPID
  2
GEVDC
 70
     0
  0
APPID
  2
GENIUS_GENBH_14
 70
     0
  0
APPID
  2
GEVID995428965
 70
     0
  0
APPID
  2
GEVID995428966
 70
     0
  0
APPID
  2
GENIUS_GENBHRL_14
 70
     0
  0
APPID
  2
GEVID995428967
 70
     0
  0
APPID
  2
GEVID995428968
 70
     0
  0
APPID
  2
GENIUS_GENOBJ-F-SHCV_13
 70
     0
  0
APPID
  2
ACATTRIBSERVICES
 70
     0
  0
ENDTAB
  0
TABLE
  2
DIMSTYLE
 70
    14
  0
DIMSTYLE
  2
AM_JIS
 70
     0
  3

  4
"
  5

  6

  7

 40
1.0
 41
2.5
 42
1.0
 43
10.0
 44
1.0
 45
0.0
 46
0.0
 47
0.1
 48
0.1
140
3.5
141
0.0
142
0.0
143
0.0393701
144
1.0
145
0.0
146
0.71
147
1.5
 71
     1
 72
     0
 73
     1
 74
     1
 75
     0
 76
     0
 77
     0
 78
     8
170
     0
171
     2
172
     1
173
     0
174
     0
175
     0
176
   256
177
   256
178
     2
  0
DIMSTYLE
  2
STANDARD
 70
     0
  3

  4

  5

  6

  7

 40
1.0
 41
0.18
 42
0.0625
 43
0.38
 44
0.18
 45
0.0
 46
0.0
 47
0.0
 48
0.0
140
0.18
141
0.09
142
0.0
143
25.399999999999999
144
1.0
145
0.0
146
1.0
147
0.09
 71
     0
 72
     0
 73
     1
 74
     1
 75
     0
 76
     0
 77
     0
 78
     0
170
     0
171
     2
172
     0
173
     0
174
     0
175
     0
176
     0
177
     0
178
     0
  0
DIMSTYLE
  2
AM_ANSI
 70
     0
  3

  4
mm
  5

  6

  7

 40
1.0
 41
0.1
 42
0.05
 43
0.5
 44
0.1
 45
0.0
 46
0.0
 47
0.1
 48
0.1
140
0.12
141
0.0
142
0.0
143
25.399999999999999
144
1.0
145
0.0
146
0.71
147
0.06
 71
     0
 72
     0
 73
     1
 74
     1
 75
     0
 76
     0
 77
     0
 78
     7
170
     0
171
     2
172
     0
173
     0
174
     0
175
     0
176
   256
177
   256
178
     2
  0
DIMSTYLE
  2
AM_ANSI$3
 70
     0
  3

  4
mm
  5

  6

  7

 40
1.0
 41
0.1
 42
0.05
 43
0.5
 44
0.1
 45
0.0
 46
0.0
 47
0.1
 48
0.1
140
0.12
141
0.0
142
0.0
143
25.399999999999999
144
1.0
145
0.0
146
0.71
147
0.06
 71
     0
 72
     0
 73
     1
 74
     1
 75
     0
 76
     0
 77
     0
 78
     7
170
     0
171
     2
172
     0
173
     0
174
     0
175
     0
176
   256
177
   256
178
     2
  0
DIMSTYLE
  2
AM_ANSI$4
 70
     0
  3

  4
mm
  5

  6

  7

 40
1.0
 41
0.1
 42
0.05
 43
0.5
 44
0.1
 45
0.0
 46
0.0
 47
0.1
 48
0.1
140
0.12
141
0.0
142
0.0
143
25.399999999999999
144
1.0
145
0.0
146
0.71
147
0.06
 71
     0
 72
     0
 73
     1
 74
     1
 75
     0
 76
     0
 77
     0
 78
     7
170
     0
171
     2
172
     0
173
     0
174
     0
175
     0
176
   256
177
   256
178
     2
  0
DIMSTYLE
  2
AM_ANSI$7
 70
     0
  3

  4
mm
  5

  6

  7

 40
1.0
 41
0.1
 42
0.05
 43
0.5
 44
0.1
 45
0.0
 46
0.0
 47
0.1
 48
0.1
140
0.24
141
0.0
142
0.0
143
25.399999999999999
144
1.0
145
0.0
146
0.71
147
0.06
 71
     0
 72
     0
 73
     1
 74
     1
 75
     0
 76
     0
 77
     0
 78
     7
170
     0
171
     2
172
     0
173
     0
174
     0
175
     0
176
   256
177
   256
178
     2
  0
DIMSTYLE
  2
AM_ANSI$SF
 70
     0
  3

  4
mm
  5

  6

  7

 40
1.0
 41
0.1
 42
0.05
 43
0.5
 44
0.1
 45
0.0
 46
0.0
 47
0.1
 48
0.1
140
0.12
141
0.0
142
0.0
143
25.399999999999999
144
1.0
145
0.0
146
0.71
147
0.06
 71
     0
 72
     0
 73
     1
 74
     1
 75
     1
 76
     1
 77
     0
 78
     7
170
     0
171
     2
172
     0
173
     0
174
     0
175
     0
176
   256
177
   256
178
     2
  0
DIMSTYLE
  2
AM_ANSI$SH
 70
     0
  3

  4
mm
  5

  6
GENAXEH
  7

 40
1.0
 41
0.1
 42
0.05
 43
0.5
 44
0.1
 45
0.0
 46
0.0
 47
0.1
 48
0.1
140
0.12
141
0.0
142
0.0
143
25.399999999999999
144
1.0
145
0.0
146
0.71
147
0.06
 71
     0
 72
     0
 73
     1
 74
     1
 75
     1
 76
     1
 77
     0
 78
     7
170
     0
171
     2
172
     0
173
     1
174
     0
175
     0
176
   256
177
   256
178
     2
  0
ENDTAB
  0
ENDSEC
  0
SECTION
  2
BLOCKS
  0
BLOCK
  8
0
  2
$MODEL_SPACE
 70
     0
 10
0.0
 20
0.0
 30
0.0
  3
$MODEL_SPACE
  1

  0
ENDBLK
  5
33A8
  8
0
  0
BLOCK
 67
     1
  8
0
  2
$PAPER_SPACE
 70
     0
 10
0.0
 20
0.0
 30
0.0
  3
$PAPER_SPACE
  1

  0
ENDBLK
  5
33A4
 67
     1
  8
0
  0
BLOCK
  8
0
  2
GENAXEH
 70
     0
 10
0.0
 20
0.0
 30
0.0
  3
GENAXEH
  1

  0
LINE
  5
98
  8
0
 10
-1.0
 20
0.0
 30
0.0
 11
1.0
 21
0.0
 31
0.0
  0
ENDBLK
  5
9A
  8
0
  0
BLOCK
  8
0
 62
     0
  2
_OPEN30
 70
     0
 10
0.0
 20
0.0
 30
0.0
  3
_OPEN30
  1

  0
LINE
  5
21
  8
0
 62
     0
 10
-1.0
 20
0.26794919
 30
0.0
 11
0.0
 21
0.0
 31
0.0
  0
LINE
  5
22
  8
0
 62
     0
 10
0.0
 20
0.0
 30
0.0
 11
-1.0
 21
-0.26794919
 31
0.0
  0
LINE
  5
23
  8
0
 62
     0
 10
0.0
 20
0.0
 30
0.0
 11
-1.0
 21
0.0
 31
0.0
  0
ENDBLK
  5
25
  8
0
 62
     0
  0
ENDSEC
  0
SECTION
  2
ENTITIES
  0
TEXT
  5
31B9
  8
0
 62
     2
 10
93.905051192715305
 20
485.61083073787643
 30
0.0
 40
3.5
  1
cx-441-z
  0
LINE
  5
328B
  8
0
  6
CONTINUOUS
 62
     7
 10
87.018178208891726
 20
509.31036882617292
 30
0.0
 11
87.018178208891726
 21
540.31036882617298
 31
0.0
  0
LINE
  5
328C
  8
0
  6
CONTINUOUS
 62
     7
 10
107.0181782088917
 20
516.31036882617286
 30
0.0
 11
107.0181782088917
 21
540.31036882617298
 31
0.0
  0
LINE
  5
328D
  8
0
  6
CONTINUOUS
 62
     7
 10
30.710893548159319
 20
540.31036782617298
 30
0.0
 11
30.710893548159319
 21
509.31036782617292
 31
0.0
  0
LINE
  5
328E
  8
0
  6
CONTINUOUS
 62
     7
 10
41.910893548159351
 20
540.31036782617298
 30
0.0
 11
41.910893548159351
 21
509.31036782617292
 31
0.0
  0
LINE
  5
3290
  8
0
  6
CONTINUOUS
 62
     7
 10
30.710893548159319
 20
509.31036782617292
 30
0.0
 11
41.910893548159351
 21
509.31036782617292
 31
0.0
  0
LINE
  5
3293
  8
0
  6
CENTER
 62
     4
 10
40.310893548159306
 20
518.31036882617298
 30
0.0
 11
32.310893548159349
 21
518.31036882617298
 31
0.0
  0
LINE
  5
3294
  8
0
  6
CENTER
 62
     4
 10
28.71089354815927
 20
512.11036782617282
 30
0.0
 11
43.910893548159343
 21
512.11036782617282
 31
0.0
  0
LINE
  5
3295
  8
0
  6
CENTER
 62
     4
 10
36.310893548159349
 20
514.31036882617298
 30
0.0
 11
36.310893548159349
 21
522.31036882617275
 31
0.0
  0
SOLID
  5
329B
  8
0
  6
CONTINUOUS
 62
     4
 10
80.218178208891729
 20
518.73165681845262
 30
0.0
 11
80.218178208891729
 21
517.88908083389333
 31
0.0
 12
77.01817820889174
 22
518.31036882617298
 32
0.0
 13
77.01817820889174
 23
518.31036882617298
 33
0.0
  0
LINE
  5
329C
  8
0
  6
CONTINUOUS
 62
     4
 10
90.018178208891698
 20
518.31036882617298
 30
0.0
 11
77.01817820889174
 21
518.31036882617298
 31
0.0
  0
LINE
  5
329E
  8
0
  6
CONTINUOUS
 62
     7
 10
87.018178208891726
 20
509.31036882617292
 30
0.0
 11
101.5181782088913
 21
509.31036882617292
 31
0.0
  0
CIRCLE
  5
32A0
  8
0
  6
CONTINUOUS
 62
     2
 10
90.018178208891698
 20
512.11036782617282
 30
0.0
 40
1.5
  0
CIRCLE
  5
32A1
  8
0
  6
CONTINUOUS
 62
     7
 10
90.018178208891698
 20
512.11036782617282
 30
0.0
 40
1.3500000000000221
  0
LINE
  5
32A3
  8
0
  6
CONTINUOUS
 62
     7
 10
34.110893548159282
 20
542.31036882617309
 30
0.0
 11
38.510893548159359
 21
542.31036882617309
 31
0.0
  0
LINE
  5
32A4
  8
0
  6
CENTER
 62
     4
 10
28.71089354815927
 20
537.51036782617291
 30
0.0
 11
43.910893548159343
 21
537.51036782617291
 31
0.0
  0
LINE
  5
32A5
  8
0
  6
CONTINUOUS
 62
     7
 10
41.910893548159322
 20
540.31036782617298
 30
0.0
 11
30.710893548159319
 21
540.31036782617298
 31
0.0
  0
LINE
  5
32A6
  8
0
  6
CONTINUOUS
 62
     7
 10
32.310893548159243
 20
540.51036882617313
 30
0.0
 11
32.310893548159243
 21
540.31036882617298
 31
0.0
  0
LINE
  5
32A7
  8
0
  6
CONTINUOUS
 62
     7
 10
32.310893548159243
 20
540.51036902617295
 30
0.0
 11
32.310893548159243
 21
540.51036882617313
 31
0.0
  0
ARC
  5
32A8
  8
0
  6
CONTINUOUS
 62
     7
 10
34.110893548159282
 20
540.51036882617313
 30
0.0
 40
1.799999999999869
 50
90.0
 51
180.0
  0
LINE
  5
32A9
  8
0
  6
CONTINUOUS
 62
     7
 10
40.310893548159243
 20
540.31036882617298
 30
0.0
 11
40.310893548159243
 21
540.51036882617313
 31
0.0
  0
ARC
  5
32AA
  8
0
  6
CONTINUOUS
 62
     7
 10
38.510893548159359
 20
540.51036882617313
 30
0.0
 40
1.7999999999998959
 50
0.0
 51
90.0
  0
LINE
  5
32AB
  8
0
  6
CONTINUOUS
 62
     7
 10
87.018178208891726
 20
540.31036882617298
 30
0.0
 11
107.0181782088917
 21
540.31036882617298
 31
0.0
  0
LINE
  5
32AC
  8
0
  6
CONTINUOUS
 62
     7
 10
87.018178208891939
 20
593.10991089196955
 30
0.0
 11
107.0181782088919
 21
593.10991089196955
 31
0.0
  0
LINE
  5
32AD
  8
0
  6
CONTINUOUS
 62
     7
 10
87.018178208891939
 20
604.30991089196959
 30
0.0
 11
107.0181782088919
 21
604.30991089196959
 31
0.0
  0
CIRCLE
  5
32AF
  8
0
  6
CONTINUOUS
 62
     2
 10
90.018178208891698
 20
537.51036782617291
 30
0.0
 40
1.5
  0
CIRCLE
  5
32B0
  8
0
  6
CONTINUOUS
 62
     7
 10
90.018178208891698
 20
537.51036782617291
 30
0.0
 40
1.3500000000000221
  0
LINE
  5
32B1
  8
0
  6
CONTINUOUS
 62
     7
 10
99.418180208891769
 20
542.31036882617309
 30
0.0
 11
98.21818020889171
 21
542.31036882617309
 31
0.0
  0
LINE
  5
32B2
  8
0
  6
CONTINUOUS
 62
     7
 10
96.418180208891712
 20
540.51036882617313
 30
0.0
 11
96.418180208891712
 21
540.31036882617298
 31
0.0
  0
ARC
  5
32B3
  8
0
  6
CONTINUOUS
 62
     7
 10
98.21818020889171
 20
540.51036882617313
 30
0.0
 40
1.8
 50
90.0
 51
180.0
  0
LINE
  5
32B4
  8
0
  6
CONTINUOUS
 62
     7
 10
102.7323345572068
 20
540.71036882617295
 30
0.0
 11
101.6798102212036
 21
540.71036882617295
 31
0.0
  0
LINE
  5
32B5
  8
0
  6
CONTINUOUS
 62
     7
 10
105.0681802088917
 20
540.410368826173
 30
0.0
 11
101.0078924712094
 21
540.410368826173
 31
0.0
  0
LINE
  5
32B6
  8
0
  6
CONTINUOUS
 62
     7
 10
102.31831490858249
 20
540.71036882617295
 30
0.0
 11
102.31831490858249
 21
540.41036882617311
 31
0.0
  0
LINE
  5
32B7
  8
0
  6
CONTINUOUS
 62
     7
 10
101.2181802088917
 20
540.51036882617313
 30
0.0
 11
101.2181802088917
 21
540.41036882617311
 31
0.0
  0
LINE
  5
32B8
  8
0
  6
CONTINUOUS
 62
     7
 10
101.0078924712094
 20
540.410368826173
 30
0.0
 11
101.0078924712094
 21
540.31036882617298
 31
0.0
  0
LINE
  5
32B9
  8
0
  6
CONTINUOUS
 62
     7
 10
101.6798102212036
 20
540.71036882617295
 30
0.0
 11
101.6798102212036
 21
540.410368826173
 31
0.0
  0
ARC
  5
32BA
  8
0
  6
CONTINUOUS
 62
     7
 10
99.418180208891769
 20
540.51036882617313
 30
0.0
 40
1.8
 50
0.0
 51
90.0
  0
LINE
  5
32BB
  8
0
  6
CONTINUOUS
 62
     7
 10
105.0681802088917
 20
540.410368826173
 30
0.0
 11
105.0681802088917
 21
540.31036882617298
 31
0.0
  0
LINE
  5
32BC
  8
0
  6
CONTINUOUS
 62
     7
 10
102.7323345572068
 20
540.71036882617295
 30
0.0
 11
102.7323345572068
 21
540.410368826173
 31
0.0
  0
SOLID
  5
32BD
  8
0
  6
CONTINUOUS
 62
     4
 10
80.218178208891729
 20
599.13119888424967
 30
0.0
 11
80.218178208891729
 21
598.28862289969004
 31
0.0
 12
77.01817820889174
 22
598.70991089196991
 32
0.0
 13
77.01817820889174
 23
598.70991089196991
 33
0.0
  0
LINE
  5
32BE
  8
0
  6
CONTINUOUS
 62
     4
 10
90.018178208891698
 20
598.70991089196991
 30
0.0
 11
77.01817820889174
 21
598.70991089196991
 31
0.0
  0
LINE
  5
32BF
  8
0
  6
CENTER
 62
     4
 10
90.018178208891698
 20
591.10991189196977
 30
0.0
 11
90.01817820889174
 21
606.3099118919697
 31
0.0
  0
LINE
  5
32C0
  8
0
  6
CONTINUOUS
 62
     7
 10
87.018178208891939
 20
593.10991089196955
 30
0.0
 11
87.018178208891939
 21
604.30991089196959
 31
0.0
  0
LINE
  5
32C1
  8
0
  6
CONTINUOUS
 62
     7
 10
101.6798083387062
 20
601.50991179213213
 30
0.0
 11
102.247576789432
 21
599.94998083045164
 31
0.0
  0
LINE
  5
32C2
  8
0
  6
CONTINUOUS
 62
     7
 10
102.8113920328239
 20
600.15519269057768
 30
0.0
 11
102.31831490858239
 21
601.50991192001868
 31
0.0
  0
ARC
  5
32C3
  8
0
  6
CONTINUOUS
 62
     7
 10
99.418178208892215
 20
600.60991489196999
 30
0.0
 40
1.7999999999999969
 50
0.0
 51
90.0
  0
ARC
  5
32C4
  8
0
  6
CONTINUOUS
 62
     7
 10
98.218178208892226
 20
600.60991489196999
 30
0.0
 40
1.800000000000004
 50
90.0
 51
180.0
  0
LINE
  5
32C5
  8
0
  6
CONTINUOUS
 62
     7
 10
99.418178208892229
 20
595.00990889196976
 30
0.0
 11
98.218178208892226
 21
595.00990889196976
 31
0.0
  0
ARC
  5
32C6
  8
0
  6
CONTINUOUS
 62
     7
 10
98.218178208892226
 20
596.80990889197005
 30
0.0
 40
1.800000000000004
 50
180.0
 51
270.0
  0
CIRCLE
  5
32C7
  8
0
  6
CONTINUOUS
 62
     7
 10
94.518178208891868
 20
598.70991189196161
 30
0.0
 40
1.1000000000000001
  0
LINE
  5
32C8
  8
0
  6
CONTINUOUS
 62
     7
 10
96.418178208892215
 20
596.80990889197005
 30
0.0
 11
96.418178208892215
 21
600.60991489196999
 31
0.0
  0
LINE
  5
32C9
  8
0
  6
CONTINUOUS
 62
     7
 10
102.2475761957655
 20
597.46984132240323
 30
0.0
 11
101.67980833870639
 21
595.9099119918078
 31
0.0
  0
LINE
  5
32CA
  8
0
  6
CONTINUOUS
 62
     7
 10
102.31831490858249
 20
595.90991186392114
 30
0.0
 11
102.81139134091551
 21
597.26462919235814
 31
0.0
  0
ARC
  5
32CB
  8
0
  6
CONTINUOUS
 62
     7
 10
99.418178208892215
 20
596.80990889197005
 30
0.0
 40
1.800000000000004
 50
270.0
 51
0.0
  0
LINE
  5
32CC
  8
0
  6
CONTINUOUS
 62
     7
 10
100.9770258066599
 20
595.90991213256825
 30
0.0
 11
102.31831490858249
 21
595.90991186392114
 31
0.0
  0
LINE
  5
32CD
  8
0
  6
CONTINUOUS
 62
     7
 10
102.2475761957655
 20
597.46984132240323
 30
0.0
 11
102.81139134091551
 21
597.26462919235814
 31
0.0
  0
LINE
  5
32CE
  8
0
  6
CONTINUOUS
 62
     7
 10
102.8113920328239
 20
600.15519269057768
 30
0.0
 11
102.2475768250592
 21
599.94998073256704
 31
0.0
  0
CIRCLE
  5
32CF
  8
0
  6
CONTINUOUS
 62
     7
 10
103.01817820889219
 20
598.70991089196991
 30
0.0
 40
1.1000000000000001
  0
LINE
  5
32D0
  8
0
  6
CONTINUOUS
 62
     7
 10
101.2181782088922
 20
600.60991489196999
 30
0.0
 11
101.2181782088922
 21
596.80990889197005
 31
0.0
  0
LINE
  5
32D1
  8
0
  6
CONTINUOUS
 62
     7
 10
103.01817820889219
 20
596.65991189197018
 30
0.0
 11
102.5912924001354
 21
596.65991189197018
 31
0.0
  0
LINE
  5
32D2
  8
0
  6
CONTINUOUS
 62
     7
 10
103.01817820889219
 20
600.75991189196975
 30
0.0
 11
102.5912924001354
 21
600.75991189196975
 31
0.0
  0
ARC
  5
32D3
  8
0
  6
CONTINUOUS
 62
     7
 10
103.01817820889219
 20
598.70991189197002
 30
0.0
 40
2.050000000000006
 50
270.0
 51
90.0
  0
LINE
  5
32D4
  8
0
  6
CONTINUOUS
 62
     7
 10
98.218178208892226
 20
602.40991489196995
 30
0.0
 11
99.418178208892215
 21
602.40991489196995
 31
0.0
  0
LINE
  5
32D5
  8
0
  6
CONTINUOUS
 62
     7
 10
102.31831490858239
 20
601.50991192001868
 30
0.0
 11
100.97702580666
 21
601.50991165137157
 31
0.0
  0
LINE
  5
32D6
  8
0
  6
CONTINUOUS
 62
     7
 10
107.0181782088919
 20
593.10991089196955
 30
0.0
 11
107.0181782088919
 21
604.30991089196959
 31
0.0
  0
LINE
  5
32E4
  8
0
  6
CENTER
 62
     4
 10
86.510765005621124
 20
512.11036782617282
 30
0.0
 11
93.525591412162299
 21
512.11036782617282
 31
0.0
  0
LINE
  5
32E5
  8
0
  6
CENTER
 62
     4
 10
90.018178208891925
 20
515.77389234347424
 30
0.0
 11
90.018178208891925
 21
508.44684330887139
 31
0.0
  0
LINE
  5
32E6
  8
0
  6
CENTER
 62
     4
 10
86.510765005621124
 20
537.51036782617291
 30
0.0
 11
93.525591412162299
 21
537.51036782617291
 31
0.0
  0
LINE
  5
32E7
  8
0
  6
CENTER
 62
     4
 10
90.018178208891925
 20
541.17389234347468
 30
0.0
 11
90.018178208891925
 21
533.84684330887126
 31
0.0
  0
LINE
  5
3324
  8
0
  6
CONTINUOUS
 62
     7
 10
104.96817857555619
 20
499.81036782617281
 30
0.0
 11
98.068177842226348
 21
499.81036782617281
 31
0.0
  0
LINE
  5
3325
  8
0
  6
CONTINUOUS
 62
     7
 10
104.7681782088913
 20
497.81036782617292
 30
0.0
 11
98.268178208891356
 21
497.81036782617292
 31
0.0
  0
LINE
  5
3326
  8
0
  6
CONTINUOUS
 62
     7
 10
105.5181782088913
 20
503.81036782617292
 30
0.0
 11
97.518178208891371
 21
503.81036782617292
 31
0.0
  0
LINE
  5
3327
  8
0
  6
CONTINUOUS
 62
     7
 10
105.5181782088913
 20
500.81036782617292
 30
0.0
 11
97.518178208891371
 21
500.81036782617292
 31
0.0
  0
LINE
  5
3328
  8
0
  6
CONTINUOUS
 62
     7
 10
106.2181782088921
 20
504.81036782617281
 30
0.0
 11
96.818178208892775
 21
504.81036782617292
 31
0.0
  0
LINE
  5
3329
  8
0
  6
CENTER
 62
     4
 10
101.5181782088913
 20
517.20304410533015
 30
0.0
 11
101.5181782088913
 21
495.31036782617321
 31
0.0
  0
LINE
  5
332A
  8
0
  6
CONTINUOUS
 62
     7
 10
96.818178208892775
 20
509.31036782617281
 30
0.0
 11
96.818178208892775
 21
504.81036782617309
 31
0.0
  0
LINE
  5
332B
  8
0
  6
CONTINUOUS
 62
     7
 10
97.518178208891371
 20
503.8103678261744
 30
0.0
 11
97.518178208891371
 21
500.8103678261777
 31
0.0
  0
LINE
  5
332C
  8
0
  6
CONTINUOUS
 62
     7
 10
98.068177842226348
 20
499.81036782617281
 30
0.0
 11
98.268178208891356
 21
497.81036482620277
 31
0.0
  0
LINE
  5
332D
  8
0
  6
CONTINUOUS
 62
     7
 10
98.268178208891356
 20
500.81036782617292
 30
0.0
 11
98.268178208891356
 21
499.81036782617281
 31
0.0
  0
LINE
  5
332E
  8
0
  6
CONTINUOUS
 62
     7
 10
98.268178208891356
 20
504.81036782617292
 30
0.0
 11
98.268178208891356
 21
503.81036782617292
 31
0.0
  0
LINE
  5
332F
  8
0
  6
CONTINUOUS
 62
     7
 10
106.2181782088921
 20
504.81036782617281
 30
0.0
 11
106.218178208892
 21
514.0103678261728
 31
0.0
  0
LINE
  5
3330
  8
0
  6
CONTINUOUS
 62
     7
 10
105.5181782088913
 20
500.8103678261777
 30
0.0
 11
105.5181782088913
 21
503.81036782617173
 31
0.0
  0
LINE
  5
3331
  8
0
  6
CONTINUOUS
 62
     7
 10
104.96817857555619
 20
499.81036782617281
 30
0.0
 11
104.7681782088913
 21
497.81036482620277
 31
0.0
  0
LINE
  5
3332
  8
0
  6
CONTINUOUS
 62
     7
 10
104.7681782088913
 20
499.81036782617281
 30
0.0
 11
104.7681782088913
 21
500.81036782617292
 31
0.0
  0
LINE
  5
3333
  8
0
  6
CONTINUOUS
 62
     7
 10
104.7681782088913
 20
504.81036782617292
 30
0.0
 11
104.7681782088913
 21
503.81036782617292
 31
0.0
  0
LINE
  5
3334
  8
0
  6
CONTINUOUS
 62
     7
 10
101.5181779374259
 20
509.31036882617281
 30
0.0
 11
106.5181782088916
 21
514.3103690976385
 31
0.0
  0
LINE
  5
3335
  8
0
  6
CONTINUOUS
 62
     7
 10
107.0181782088917
 20
516.31036606589578
 30
0.0
 11
100.0181819185175
 21
509.31036882617281
 31
0.0
  0
LINE
  5
333D
  8
0
  6
CONTINUOUS
 62
     7
 10
106.5181782088916
 20
514.3103690976385
 30
0.0
 11
106.5181782088916
 21
515.81037009763884
 31
0.0
  0
LINE
  5
3356
  8
0
  6
CONTINUOUS
 62
     7
 10
41.010893548157973
 20
504.81036782617292
 30
0.0
 11
41.010893548157973
 21
509.31036782617292
 31
0.0
  0
LINE
  5
3357
  8
0
  6
CONTINUOUS
 62
     7
 10
31.61089354816032
 20
509.31036782617292
 30
0.0
 11
31.61089354816032
 21
504.81036782617309
 31
0.0
  0
LINE
  5
3358
  8
0
  6
CONTINUOUS
 62
     7
 10
39.560893548159257
 20
497.81036782617309
 30
0.0
 11
33.060893548159257
 21
497.81036782617309
 31
0.0
  0
LINE
  5
3359
  8
0
  6
CONTINUOUS
 62
     7
 10
39.760893914824159
 20
499.81036782617298
 30
0.0
 11
32.86089318149434
 21
499.81036782617298
 31
0.0
  0
LINE
  5
335A
  8
0
  6
CONTINUOUS
 62
     7
 10
40.310893548159171
 20
500.81036782617292
 30
0.0
 11
32.3108935481591
 21
500.81036782617292
 31
0.0
  0
LINE
  5
335B
  8
0
  6
CONTINUOUS
 62
     7
 10
40.310893548159171
 20
503.81036782617298
 30
0.0
 11
32.3108935481591
 21
503.81036782617298
 31
0.0
  0
LINE
  5
335C
  8
0
  6
CONTINUOUS
 62
     7
 10
41.010893548157973
 20
504.81036782617309
 30
0.0
 11
31.61089354816032
 21
504.81036782617309
 31
0.0
  0
LINE
  5
335D
  8
0
  6
CONTINUOUS
 62
     7
 10
32.3108935481591
 20
503.8103678261744
 30
0.0
 11
32.3108935481591
 21
500.8103678261777
 31
0.0
  0
LINE
  5
335E
  8
0
  6
CONTINUOUS
 62
     7
 10
32.86089318149434
 20
499.81036782617298
 30
0.0
 11
33.060893548159257
 21
497.81036782617309
 31
0.0
  0
LINE
  5
335F
  8
0
  6
CONTINUOUS
 62
     7
 10
33.0608935481591
 20
500.81036782617309
 30
0.0
 11
33.0608935481591
 21
499.81036782617298
 31
0.0
  0
LINE
  5
3360
  8
0
  6
CONTINUOUS
 62
     7
 10
33.0608935481591
 20
503.81036782617298
 30
0.0
 11
33.0608935481591
 21
504.81036782617309
 31
0.0
  0
LINE
  5
3361
  8
0
  6
CONTINUOUS
 62
     7
 10
40.310893548159171
 20
500.8103678261777
 30
0.0
 11
40.310893548159171
 21
503.81036782617173
 31
0.0
  0
LINE
  5
3362
  8
0
  6
CONTINUOUS
 62
     7
 10
39.560893548159129
 20
499.81036782617298
 30
0.0
 11
39.560893548159129
 21
500.81036782617309
 31
0.0
  0
LINE
  5
3363
  8
0
  6
CONTINUOUS
 62
     7
 10
39.760893914824159
 20
499.81036782617298
 30
0.0
 11
39.560893548159257
 21
497.81036482620289
 31
0.0
  0
LINE
  5
3364
  8
0
  6
CONTINUOUS
 62
     7
 10
39.560893548159129
 20
503.81036782617298
 30
0.0
 11
39.560893548159129
 21
504.81036782617309
 31
0.0
  0
LINE
  5
3370
  8
0
  6
CENTER
 62
     4
 10
36.310893548159342
 20
495.31036782617309
 30
0.0
 11
36.310893548159342
 21
510.24324898239399
 31
0.0
  0
VIEWPORT
  5
31B7
 67
     1
  8
0
 10
142.58924865722651
 20
99.112914085388198
 30
0.0
 40
298.7640236092526
 41
234.25815487543659
 68
     1
 69
     1
1001
ACAD
1000
MVIEW
1002
{
1070
    16
1010
0.0
1020
0.0
1030
0.0
1010
0.0
1020
0.0
1030
1.0
1040
0.0
1040
234.25815487543659
1040
142.58924865722651
1040
99.112914085388198
1040
50.0
1040
0.0
1040
0.0
1070
     0
1070
   100
1070
     1
1070
     1
1070
     0
1070
     0
1070
     0
1070
     0
1040
0.0
1040
0.0
1040
0.0
1040
10.0
1040
10.0
1040
10.0
1040
10.0
1070
     0
1002
{
1002
}
1002
}
1001
GENIUS_GENODEF_13
1002
{
1000
HIER
1070
     0
1002
}
1002
{
1000
MANEDIT
1070
     0
1002
}
1002
{
1000
NOSEL
1070
     0
1002
}
1002
{
1000
BEHIND
1070
     0
1002
}
1002
{
1000
OTHER
1070
     0
1002
}
1002
{
1000
REACTOR
1002
}
1001
GENIUS_GENOBJ-N-SDF_13
1002
{
1000
OWNER
1000
GEN
1002
}
1001
GENIUS_GENSCREG_15
1000
PF
1040
1.0
1000
DF
1040
1.0
1000
MIN
1011
-6.7927631473997963
1021
5.3478898128743057E+063
1031
2.2952438607614025E+161
1021
-18.01616335233015
1031
0.0
1000
MAX
1011
291.97126046185281
1021
5.3478898128743057E+063
1031
2.2952438607614025E+161
1021
216.24199152310649
1031
0.0
1000
FLAGS
1070
     2
  0
ENDSEC
  0
EOF
