  0
SECTION
  2
HEADER
  9
$ACADVER
  1
AC1009
  9
$INSBASE
 10
177.9999997912175
 20
6.7085914059697132
 30
0.0
  9
$EXTMIN
 10
79.503937302511133
 20
110.2446144207434
 30
-0.0015258207003583
  9
$EXTMAX
 10
136.5451053606173
 20
162.10603383638201
 30
0.0000000349246037
  9
$LIMMIN
 10
0.0
 20
0.0
  9
$LIMMAX
 10
190.0
 20
277.0
  9
$ORTHOMODE
 70
     0
  9
$REGENMODE
 70
     1
  9
$FILLMODE
 70
     1
  9
$QTEXTMODE
 70
     0
  9
$MIRRTEXT
 70
     1
  9
$DRAGMODE
 70
     2
  9
$LTSCALE
 40
1.0
  9
$OSMODE
 70
   549
  9
$ATTMODE
 70
     1
  9
$TEXTSIZE
 40
5.0
  9
$TRACEWID
 40
1.0
  9
$TEXTSTYLE
  7
STANDARD
  9
$CLAYER
  8
0
  9
$CELTYPE
  6
BYLAYER
  9
$CECOLOR
 62
   256
  9
$DIMSCALE
 40
1.0
  9
$DIMASZ
 40
2.5
  9
$DIMEXO
 40
1.0
  9
$DIMDLI
 40
10.0
  9
$DIMRND
 40
0.0
  9
$DIMDLE
 40
0.0
  9
$DIMEXE
 40
1.0
  9
$DIMTP
 40
0.1
  9
$DIMTM
 40
0.1
  9
$DIMTXT
 40
3.5
  9
$DIMCEN
 40
0.0
  9
$DIMTSZ
 40
0.0
  9
$DIMTOL
 70
     1
  9
$DIMLIM
 70
     0
  9
$DIMTIH
 70
     0
  9
$DIMTOH
 70
     0
  9
$DIMSE1
 70
     0
  9
$DIMSE2
 70
     0
  9
$DIMTAD
 70
     3
  9
$DIMZIN
 70
     8
  9
$DIMBLK
  1
OPEN30
  9
$DIMASO
 70
     1
  9
$DIMSHO
 70
     1
  9
$DIMPOST
  1

  9
$DIMAPOST
  1
"
  9
$DIMALT
 70
     0
  9
$DIMALTD
 70
     2
  9
$DIMALTF
 40
0.0393701
  9
$DIMLFAC
 40
1.0
  9
$DIMTOFL
 70
     1
  9
$DIMTVP
 40
0.0
  9
$DIMTIX
 70
     0
  9
$DIMSOXD
 70
     0
  9
$DIMSAH
 70
     0
  9
$DIMBLK1
  1

  9
$DIMBLK2
  1

  9
$DIMSTYLE
  2
AM_JIS
  9
$DIMCLRD
 70
   256
  9
$DIMCLRE
 70
   256
  9
$DIMCLRT
 70
     2
  9
$DIMTFAC
 40
0.71
  9
$DIMGAP
 40
1.5
  9
$LUNITS
 70
     2
  9
$LUPREC
 70
     2
  9
$SKETCHINC
 40
1.0
  9
$FILLETRAD
 40
0.0
  9
$AUNITS
 70
     0
  9
$AUPREC
 70
     0
  9
$MENU
  1
.
  9
$ELEVATION
 40
0.0
  9
$PELEVATION
 40
0.0
  9
$THICKNESS
 40
0.0
  9
$LIMCHECK
 70
     0
  9
$BLIPMODE
 70
     0
  9
$CHAMFERA
 40
0.0
  9
$CHAMFERB
 40
0.0
  9
$SKPOLY
 70
     0
  9
$TDCREATE
 40
2457185.7630757759
  9
$TDUPDATE
 40
2457235.4636387611
  9
$TDINDWG
 40
0.0962297917
  9
$TDUSRTIMER
 40
0.0962290856
  9
$USRTIMER
 70
     1
  9
$ANGBASE
 50
0.0
  9
$ANGDIR
 70
     0
  9
$PDMODE
 70
     0
  9
$PDSIZE
 40
0.0
  9
$PLINEWID
 40
0.0
  9
$COORDS
 70
     2
  9
$SPLFRAME
 70
     0
  9
$SPLINETYPE
 70
     6
  9
$SPLINESEGS
 70
     8
  9
$ATTDIA
 70
     1
  9
$ATTREQ
 70
     1
  9
$HANDLING
 70
     1
  9
$HANDSEED
  5
6FEE
  9
$SURFTAB1
 70
     6
  9
$SURFTAB2
 70
     6
  9
$SURFTYPE
 70
     6
  9
$SURFU
 70
     6
  9
$SURFV
 70
     6
  9
$UCSNAME
  2

  9
$UCSORG
 10
0.0
 20
0.0
 30
0.0
  9
$UCSXDIR
 10
1.0
 20
0.0
 30
0.0
  9
$UCSYDIR
 10
0.0
 20
1.0
 30
0.0
  9
$PUCSNAME
  2

  9
$PUCSORG
 10
0.0
 20
0.0
 30
0.0
  9
$PUCSXDIR
 10
1.0
 20
0.0
 30
0.0
  9
$PUCSYDIR
 10
0.0
 20
1.0
 30
0.0
  9
$USERI1
 70
     0
  9
$USERI2
 70
     0
  9
$USERI3
 70
     0
  9
$USERI4
 70
     0
  9
$USERI5
 70
     0
  9
$USERR1
 40
0.0
  9
$USERR2
 40
0.0
  9
$USERR3
 40
0.0
  9
$USERR4
 40
0.0
  9
$USERR5
 40
0.0
  9
$WORLDVIEW
 70
     1
  9
$SHADEDGE
 70
     3
  9
$SHADEDIF
 70
    70
  9
$TILEMODE
 70
     1
  9
$MAXACTVP
 70
    64
  9
$PLIMCHECK
 70
     0
  9
$PEXTMIN
 10
1.0000000000000000E+020
 20
1.0000000000000000E+020
 30
1.0000000000000000E+020
  9
$PEXTMAX
 10
-1.0000000000000000E+020
 20
-1.0000000000000000E+020
 30
-1.0000000000000000E+020
  9
$PLIMMIN
 10
-5.873748779296875
 20
-5.8737497329711923
  9
$PLIMMAX
 10
291.09457397460932
 20
204.0995779037475
  9
$UNITMODE
 70
     0
  9
$VISRETAIN
 70
     1
  9
$PLINEGEN
 70
     0
  9
$PSLTSCALE
 70
     1
  0
ENDSEC
  0
SECTION
  2
TABLES
  0
TABLE
  2
VPORT
 70
     1
  0
VPORT
  2
*ACTIVE
 70
     0
 10
0.0
 20
0.0
 11
1.0
 21
1.0
 12
99.519872732263323
 22
133.77246174204629
 13
0.0
 23
0.0
 14
2.5
 24
2.5
 15
10.0
 25
10.0
 16
0.0
 26
0.0
 36
1.0
 17
0.0
 27
0.0
 37
0.0
 40
83.559648457417111
 41
1.63095238095238
 42
50.0
 43
0.0
 44
0.0
 50
0.0
 51
0.0
 71
     0
 72
   100
 73
     1
 74
     1
 75
     0
 76
     0
 77
     0
 78
     0
  0
ENDTAB
  0
TABLE
  2
LTYPE
 70
    24
  0
LTYPE
  2
CONTINUOUS
 70
     0
  3
Solid line
 72
    65
 73
     0
 40
0.0
  0
LTYPE
  2
PHANTOM2
 70
     0
  3
Phantom (.5x) ___ _ _ ___ _ _ ___ _ _ ___ _ _
 72
    65
 73
     6
 40
1.25
 49
0.625
 49
-0.125
 49
0.125
 49
-0.125
 49
0.125
 49
-0.125
  0
LTYPE
  2
AMCONSTR
 70
     0
  3
_______________________
 72
    65
 73
     2
 40
9999.0
 49
9999.0
 49
0.0
  0
LTYPE
  2
CENTER
 70
     0
  3
____ _ ____ _
 72
    65
 73
     4
 40
13.42150481887249
 49
8.3884405117953058
 49
-1.6776881023590591
 49
1.6776881023590591
 49
-1.6776881023590591
  0
LTYPE
  2
HIDDEN
 70
     0
  3
_ _ _ _ _ _ _
 72
    65
 73
     2
 40
2.5165321535385901
 49
1.6776881023590591
 49
-0.8388440511795305
  0
LTYPE
  2
CENTER2
 70
     0
  3
Center (.5x) ___ _ ___ _ ___ _ ___ _ ___ _ ___
 72
    65
 73
     4
 40
1.125
 49
0.75
 49
-0.125
 49
0.125
 49
-0.125
  0
LTYPE
  2
HIDDEN2
 70
     0
  3
Hidden (.5x) _ _ _ _ _ _ _ _ _ _ _ _ _ _ _ _ _
 72
    65
 73
     2
 40
0.1875
 49
0.125
 49
-0.0625
  0
LTYPE
  2
AMZIGZAG2
 70
     0
  3
/\/-/\/-/\/-/\/-/\/-/\/
 72
    65
 73
     2
 40
0.4401
 49
0.0001
 49
-0.4400000000000001
  0
LTYPE
  2
ACANSTGB
 70
     0
  3
__ . . __ . .
 72
    65
 73
     6
 40
0.35433070866
 49
0.15748031496
 49
-0.03937007874
 49
0.03937007874
 49
-0.03937007874
 49
0.03937007874
 49
-0.03937007874
  0
LTYPE
  2
ACANSTGL
 70
     0
  3
_ _ _ _ _
 72
    65
 73
     2
 40
0.11811023622
 49
0.07874015748
 49
-0.03937007874
  0
ENDTAB
  0
TABLE
  2
LAYER
 70
     3
  0
LAYER
  2
0
 70
     0
 62
     7
  6
CONTINUOUS
  0
LAYER
  2
DEFPOINTS
 70
     0
 62
     7
  6
CONTINUOUS
  0
ENDTAB
  0
TABLE
  2
STYLE
 70
     9
  0
STYLE
  2
STANDARD
 70
     0
 40
0.0
 41
1.0
 50
0.0
 71
     0
 42
5.0
  3
isocp.shx
  4
extfont.shx
  0
STYLE
  2
ACANSGDT
 70
     0
 40
0.0
 41
1.0
 50
0.0
 71
     0
 42
5.0
  3
amgdt.shx
  4

  0
STYLE
  2

 70
     1
 40
0.0
 41
1.0
 50
0.0
 71
     0
 42
5.0
  3
genltshp.shx
  4

  0
ENDTAB
  0
TABLE
  2
VIEW
 70
     6
  0
VIEW
  2
AM_VIEW1
 70
     1
 40
210.0
 10
215.76588321825781
 20
297.20624923706049
 41
443.11926605504578
 11
0.0
 21
0.0
 31
1.0
 12
0.0
 22
0.0
 32
0.0
 42
50.0
 43
0.0
 44
0.0
 50
0.0
 71
     0
  0
VIEW
  2
AM_VIEW2
 70
     1
 40
210.0
 10
366.646617163212
 20
297.20624923706049
 41
443.11926605504578
 11
0.0
 21
0.0
 31
1.0
 12
0.0
 22
0.0
 32
0.0
 42
50.0
 43
0.0
 44
0.0
 50
0.0
 71
     0
  0
VIEW
  2
AM_VIEW3
 70
     1
 40
210.0
 10
215.76588321825781
 20
87.206249237060547
 41
443.11926605504578
 11
0.0
 21
0.0
 31
1.0
 12
0.0
 22
0.0
 32
0.0
 42
50.0
 43
0.0
 44
0.0
 50
0.0
 71
     0
  0
VIEW
  2
AM_VIEW4
 70
     1
 40
210.0
 10
366.646617163212
 20
87.206249237060547
 41
443.11926605504578
 11
0.0
 21
0.0
 31
1.0
 12
0.0
 22
0.0
 32
0.0
 42
50.0
 43
0.0
 44
0.0
 50
0.0
 71
     0
  0
VIEW
  2
AM_VIEW5
 70
     1
 40
210.0
 10
291.20625019073492
 20
192.2062492370604
 41
443.11926605504578
 11
0.0
 21
0.0
 31
1.0
 12
0.0
 22
0.0
 32
0.0
 42
50.0
 43
0.0
 44
0.0
 50
0.0
 71
     0
  0
VIEW
  2
AM_VIEW6
 70
     1
 40
419.99579999999992
 10
291.20625019073492
 20
192.2062492370604
 41
886.22966972477093
 11
0.0
 21
0.0
 31
1.0
 12
0.0
 22
0.0
 32
0.0
 42
50.0
 43
0.0
 44
0.0
 50
0.0
 71
     0
  0
ENDTAB
  0
TABLE
  2
UCS
 70
     0
  0
ENDTAB
  0
TABLE
  2
APPID
 70
    65
  0
APPID
  2
ACAD
 70
     0
  0
APPID
  2
ACADANNOTATIVE
 70
     0
  0
APPID
  2
MCAD_NO_VIS
 70
     0
  0
APPID
  2
ACAD_TEMP_GRAPHIC
 70
     0
  0
APPID
  2
GENIUS_GENODEF_13
 70
     0
  0
APPID
  2
GENIUS_GENOBJ-N-TIT_13
 70
     0
  0
APPID
  2
GENIUS_GENTITLE_13
 70
     0
  0
APPID
  2
GENIUS_GENOENT_13
 70
     0
  0
APPID
  2
GENIUS_GENOREF_13
 70
     0
  0
APPID
  2
GENIUS_GENOLIS_13
 70
     0
  0
APPID
  2
GENIUS_GENZVEED_13
 70
     0
  0
APPID
  2
GENIUS_GENSCREG_15
 70
     0
  0
APPID
  2
GENIUS_GENOBJ-N-SDF_13
 70
     0
  0
APPID
  2
GENIUS_GENOBJ-N-CEN_13
 70
     0
  0
APPID
  2
GENIUS_GENOBJ-N-SEC_13
 70
     0
  0
APPID
  2
GENIUS_GENREC_14
 70
     0
  0
APPID
  2
GENIUS_GENOBJ-N-REC_13
 70
     0
  0
APPID
  2
GENIUS_GENBH_13
 70
     0
  0
APPID
  2
GENIUS_GENOBJ-NBEHI-BHF_13
 70
     0
  0
APPID
  2
GENIUS_GENOBJ-NBEHI-BHB_13
 70
     0
  0
APPID
  2
GENIUS_GENDTOL_13
 70
     0
  0
APPID
  2
GENIUS_GENOBJ-N-HTC_13
 70
     0
  0
APPID
  2
GENIUS_GENHATCH_13
 70
     0
  0
APPID
  2
GENIUS_GENOBJ-N-CRS_13
 70
     0
  0
APPID
  2
GENIUS_GENOBJ-N-CRC_13
 70
     0
  0
APPID
  2
GENIUS_GENCRC_14
 70
     0
  0
APPID
  2
GENIUS_GENOBJ-F-SHCL_13
 70
     0
  0
APPID
  2
GENIUS_GEFMSH_13
 70
     0
  0
APPID
  2
GENIUS_GEFSH_13
 70
     0
  0
APPID
  2
GENIUS_GEFSHP_13
 70
     0
  0
APPID
  2
GENIUS_GENOBJ-F-SHS_13
 70
     0
  0
APPID
  2
GENIUS_GENOBJ-F-SHSS_13
 70
     0
  0
APPID
  2
GENIUS_GEFSHP0_13
 70
     0
  0
APPID
  2
GENIUS_GEFSH0_13
 70
     0
  0
APPID
  2
GEVID995428964
 70
     0
  0
APPID
  2
GEVDC
 70
     0
  0
APPID
  2
GENIUS_GENBH_14
 70
     0
  0
APPID
  2
GEVID995428965
 70
     0
  0
APPID
  2
GEVID995428966
 70
     0
  0
APPID
  2
GENIUS_GENBHRL_14
 70
     0
  0
APPID
  2
GEVID995428967
 70
     0
  0
APPID
  2
GEVID995428968
 70
     0
  0
APPID
  2
GENIUS_GENOBJ-F-SHCV_13
 70
     0
  0
APPID
  2
ACATTRIBSERVICES
 70
     0
  0
APPID
  2
GENIUS_GENTRA_14
 70
     0
  0
APPID
  2
DESIGNERASSEMBLIES
 70
     0
  0
APPID
  2
ACAD_NAV_VCDISPLAY
 70
     0
  0
APPID
  2
ACAD_DSTYLE_DIMJAG
 70
     0
  0
APPID
  2
ACAD_DSTYLE_DIMBREAK
 70
     0
  0
APPID
  2
ACAD_DSTYLE_DIMINSPECT
 70
     0
  0
APPID
  2
GENIUS_GENCEN_19
 70
     0
  0
APPID
  2
GRADIENTCOLOR1ACI
 70
     0
  0
APPID
  2
GRADIENTCOLOR2ACI
 70
     0
  0
APPID
  2
ACAD_EXEMPT_FROM_CAD_STANDARDS
 70
     0
  0
APPID
  2
ACAECLAYERSTANDARD
 70
     0
  0
APPID
  2
ACAD_MLEADERVER
 70
     0
  0
APPID
  2
ACAD_DSTYLE_DIMARC_LENGTH_
 70
     0
  0
APPID
  2
ACAD_DSTYLE_DIM_LINETYPE
 70
     0
  0
APPID
  2
ACAD_DSTYLE_DIM_EXT1_LINETYPE
 70
     0
  0
APPID
  2
ACAD_DSTYLE_DIM_EXT2_LINETYPE
 70
     0
  0
APPID
  2
ACDBDYNAMICBLOCKTRUENAME2
 70
     0
  0
APPID
  2
ACDBDYNAMICBLOCKGUID
 70
     0
  0
APPID
  2
ACAD_PSEXT
 70
     0
  0
APPID
  2
GENIUS_AMGTXT_16
 70
     0
  0
APPID
  2
ACAD_DSTYLE_DIMARC_LENGTH0
 70
     0
  0
ENDTAB
  0
TABLE
  2
DIMSTYLE
 70
    23
  0
DIMSTYLE
  2
STANDARD
 70
     0
  3

  4

  5

  6

  7

 40
1.0
 41
0.18
 42
0.0625
 43
0.38
 44
0.18
 45
0.0
 46
0.0
 47
0.0
 48
0.0
140
0.18
141
0.09
142
0.0
143
25.399999999999999
144
1.0
145
0.0
146
1.0
147
0.09
 71
     0
 72
     0
 73
     1
 74
     1
 75
     0
 76
     0
 77
     0
 78
     0
170
     0
171
     2
172
     0
173
     0
174
     0
175
     0
176
     0
177
     0
178
     0
  0
DIMSTYLE
  2
AM_JIS
 70
     0
  3

  4
"
  5

  6

  7

 40
1.0
 41
2.5
 42
1.0
 43
10.0
 44
1.0
 45
0.0
 46
0.0
 47
0.1
 48
0.1
140
3.5
141
0.0
142
0.0
143
0.0393701
144
1.0
145
0.0
146
0.71
147
1.5
 71
     1
 72
     0
 73
     0
 74
     0
 75
     0
 76
     0
 77
     3
 78
     8
170
     0
171
     2
172
     1
173
     0
174
     0
175
     0
176
   256
177
   256
178
     2
  0
DIMSTYLE
  2
AM_ANSI
 70
     0
  3

  4
mm
  5

  6

  7

 40
1.0
 41
0.12
 42
0.05
 43
0.5
 44
0.1
 45
0.0
 46
0.0
 47
0.1
 48
0.1
140
0.12
141
0.0
142
0.0
143
25.399999999999999
144
1.0
145
0.0
146
0.71
147
0.06
 71
     0
 72
     0
 73
     1
 74
     1
 75
     0
 76
     0
 77
     0
 78
     7
170
     0
171
     2
172
     0
173
     0
174
     0
175
     0
176
   256
177
   256
178
     2
  0
DIMSTYLE
  2
AM_ANSI$3
 70
     0
  3

  4
mm
  5

  6

  7

 40
1.0
 41
0.12
 42
0.05
 43
0.5
 44
0.1
 45
0.0
 46
0.0
 47
0.1
 48
0.1
140
0.12
141
0.0
142
0.0
143
25.399999999999999
144
1.0
145
0.0
146
0.71
147
0.06
 71
     0
 72
     0
 73
     1
 74
     1
 75
     0
 76
     0
 77
     0
 78
     7
170
     0
171
     2
172
     0
173
     0
174
     0
175
     0
176
   256
177
   256
178
     2
  0
DIMSTYLE
  2
AM_ANSI$4
 70
     0
  3

  4
mm
  5

  6

  7

 40
1.0
 41
0.12
 42
0.05
 43
0.5
 44
0.1
 45
0.0
 46
0.0
 47
0.1
 48
0.1
140
0.12
141
0.0
142
0.0
143
25.399999999999999
144
1.0
145
0.0
146
0.71
147
0.06
 71
     0
 72
     0
 73
     1
 74
     1
 75
     0
 76
     0
 77
     0
 78
     7
170
     0
171
     2
172
     0
173
     0
174
     0
175
     0
176
   256
177
   256
178
     2
  0
DIMSTYLE
  2
AM_ANSI$7
 70
     0
  3

  4
mm
  5

  6

  7

 40
1.0
 41
0.12
 42
0.05
 43
0.5
 44
0.1
 45
0.0
 46
0.0
 47
0.1
 48
0.1
140
0.12
141
0.0
142
0.0
143
25.399999999999999
144
1.0
145
0.0
146
0.71
147
0.06
 71
     0
 72
     0
 73
     1
 74
     1
 75
     0
 76
     0
 77
     0
 78
     7
170
     0
171
     2
172
     0
173
     0
174
     0
175
     0
176
   256
177
   256
178
     2
  0
DIMSTYLE
  2
AM_ANSI$SF
 70
     0
  3

  4
mm
  5

  6

  7

 40
1.0
 41
0.12
 42
0.05
 43
0.5
 44
0.1
 45
0.0
 46
0.0
 47
0.1
 48
0.1
140
0.12
141
0.0
142
0.0
143
25.399999999999999
144
1.0
145
0.0
146
0.71
147
0.06
 71
     0
 72
     0
 73
     1
 74
     1
 75
     1
 76
     1
 77
     0
 78
     7
170
     0
171
     2
172
     0
173
     0
174
     0
175
     0
176
   256
177
   256
178
     2
  0
DIMSTYLE
  2
AM_ANSI$SH
 70
     0
  3

  4
mm
  5

  6
GENAXEH
  7

 40
1.0
 41
0.12
 42
0.05
 43
0.5
 44
0.1
 45
0.0
 46
0.0
 47
0.1
 48
0.1
140
0.12
141
0.0
142
0.0
143
25.399999999999999
144
1.0
145
0.0
146
0.71
147
0.06
 71
     0
 72
     0
 73
     1
 74
     1
 75
     1
 76
     1
 77
     0
 78
     7
170
     0
171
     2
172
     0
173
     1
174
     0
175
     0
176
   256
177
   256
178
     2
  0
ENDTAB
  0
ENDSEC
  0
SECTION
  2
BLOCKS
  0
BLOCK
  8
0
  2
$MODEL_SPACE
 70
     0
 10
0.0
 20
0.0
 30
0.0
  3
$MODEL_SPACE
  1

  0
ENDBLK
  5
6D55
  8
0
  0
BLOCK
 67
     1
  8
0
  2
$PAPER_SPACE
 70
     0
 10
0.0
 20
0.0
 30
0.0
  3
$PAPER_SPACE
  1

  0
ENDBLK
  5
6D51
 67
     1
  8
0
  0
BLOCK
  8
0
  2
GENAXEH
 70
     0
 10
0.0
 20
0.0
 30
0.0
  3
GENAXEH
  1

  0
LINE
  5
98
  8
0
 10
-1.0
 20
0.0
 30
0.0
 11
1.0
 21
0.0
 31
0.0
  0
ENDBLK
  5
9A
  8
0
  0
BLOCK
  8
0
 62
     0
  2
_OPEN30
 70
     0
 10
0.0
 20
0.0
 30
0.0
  3
_OPEN30
  1

  0
LINE
  5
21
  8
0
 62
     0
 10
-1.0
 20
0.26794919
 30
0.0
 11
0.0
 21
0.0
 31
0.0
  0
LINE
  5
22
  8
0
 62
     0
 10
0.0
 20
0.0
 30
0.0
 11
-1.0
 21
-0.26794919
 31
0.0
  0
LINE
  5
23
  8
0
 62
     0
 10
0.0
 20
0.0
 30
0.0
 11
-1.0
 21
0.0
 31
0.0
  0
ENDBLK
  5
25
  8
0
 62
     0
  0
BLOCK
  8
0
  2
*U73
 70
     1
 10
0.0
 20
0.0
 30
0.0
  3
*U73
  1

  0
TEXT
  5
6CE1
  8
0
 62
     2
 10
121.3186921550607
 20
110.0888583792082
 30
0.0
 40
3.5
  1
PM-F25
  0
ENDBLK
  5
6CE3
  8
0
  0
ENDSEC
  0
SECTION
  2
ENTITIES
  0
LINE
  5
5AF6
  8
0
  6
CONTINUOUS
 62
     7
 10
83.809610656915623
 20
126.6936567736175
 30
0.0
 11
83.809610656915623
 21
124.6936569114533
 31
0.0
  0
LINE
  5
5AF7
  8
0
  6
CONTINUOUS
 62
     7
 10
88.609610884903404
 20
124.6936569114533
 30
0.0
 11
88.609610884903404
 21
126.1936566916611
 31
0.0
  0
LINE
  5
5AFA
  8
0
  6
CONTINUOUS
 62
     7
 10
92.909610565273496
 20
127.69365670469961
 30
0.0
 11
93.909610729186227
 21
127.69365670469961
 31
0.0
  0
LINE
  5
5AFB
  8
0
  6
CONTINUOUS
 62
     7
 10
93.909610729186227
 20
129.69365668327919
 30
0.0
 11
92.909610565273496
 21
129.69365668327919
 31
0.0
  0
LINE
  5
5AFC
  8
0
  6
CONTINUOUS
 62
     7
 10
93.909610729186227
 20
127.69365670469961
 30
0.0
 11
94.409610811142656
 21
128.19365678665599
 31
0.0
  0
LINE
  5
5AFD
  8
0
  6
CONTINUOUS
 62
     7
 10
94.409610811142656
 20
129.19365671773821
 30
0.0
 11
93.909610729186227
 21
129.69365668327919
 31
0.0
  0
LINE
  5
5AFE
  8
0
  6
CONTINUOUS
 62
     7
 10
84.959610798849184
 20
124.6936569114533
 30
0.0
 11
84.959610798849184
 21
117.69365669538639
 31
0.0
  0
LINE
  5
5AFF
  8
0
  6
CONTINUOUS
 62
     7
 10
87.459610742969829
 20
117.69365669538639
 30
0.0
 11
87.459610742969829
 21
124.6936569114533
 31
0.0
  0
LINE
  5
5B0C
  8
0
  6
CONTINUOUS
 62
     7
 10
88.909610840944964
 20
126.1936566916611
 30
0.0
 11
88.909610840944964
 21
126.6936567736175
 31
0.0
  0
LINE
  5
5B15
  8
0
  6
CONTINUOUS
 62
     7
 10
92.909610565273496
 20
138.6936568779256
 30
0.0
 11
92.909610565273496
 21
126.1936566916611
 31
0.0
  0
LINE
  5
5B16
  8
0
  6
CONTINUOUS
 62
     7
 10
92.909610565273496
 20
126.1936566916611
 30
0.0
 11
87.852017572602648
 21
126.1936566916611
 31
0.0
  0
LINE
  5
5B18
  8
0
  6
CONTINUOUS
 62
     7
 10
79.509610976545503
 20
126.6936567736175
 30
0.0
 11
79.509610976545503
 21
138.6936568779256
 31
0.0
  0
LINE
  5
5B1D
  8
0
  6
CONTINUOUS
 62
     7
 10
83.209610744832446
 20
132.19365668560749
 30
0.0
 11
89.209610796986539
 21
132.19365668560749
 31
0.0
  0
LINE
  5
5B31
  8
0
  6
CONTINUOUS
 62
     7
 10
79.509610976545503
 20
138.6936568779256
 30
0.0
 11
83.209610744832446
 21
138.6936568779256
 31
0.0
  0
LINE
  5
5B34
  8
0
  6
CONTINUOUS
 62
     7
 10
89.209610796986539
 20
132.893660793392
 30
0.0
 11
83.209610744832446
 21
132.893660793392
 31
0.0
  0
LINE
  5
5B35
  8
0
  6
CONTINUOUS
 62
     7
 10
89.209610796986539
 20
133.19365667489731
 30
0.0
 11
83.209610744832446
 21
133.19365667489731
 31
0.0
  0
LINE
  5
5B36
  8
0
  6
CONTINUOUS
 62
     7
 10
87.852017572602648
 20
126.1936566916611
 30
0.0
 11
87.852017572602634
 21
126.6936567736175
 31
0.0
  0
LINE
  5
5B38
  8
0
  6
CONTINUOUS
 62
     7
 10
88.609610884903404
 20
124.6936569114533
 30
0.0
 11
83.809610656915623
 21
124.6936569114533
 31
0.0
  0
LINE
  5
5B50
  8
0
  6
CONTINUOUS
 62
     7
 10
93.909610729186227
 20
127.69365670469961
 30
0.0
 11
93.909610729186227
 21
129.69365668327919
 31
0.0
  0
LINE
  5
5B51
  8
0
  6
CONTINUOUS
 62
     7
 10
94.409610811142656
 20
129.19365671773821
 30
0.0
 11
94.409610811142656
 21
128.19365678665599
 31
0.0
  0
LINE
  5
5B52
  8
0
  6
CONTINUOUS
 62
     7
 10
84.959610798849184
 20
117.69365669538639
 30
0.0
 11
87.459610742969829
 21
117.69365669538639
 31
0.0
  0
LINE
  5
5B72
  8
0
  6
CONTINUOUS
 62
     7
 10
92.909610565273496
 20
138.6936568779256
 30
0.0
 11
89.209610796986539
 21
138.6936568779256
 31
0.0
  0
LINE
  5
6348
  8
0
  6
CONTINUOUS
 62
     7
 10
106.5307015361563
 20
124.6936569114533
 30
0.0
 11
106.5307015361563
 21
117.69365669538639
 31
0.0
  0
LINE
  5
6349
  8
0
  6
CONTINUOUS
 62
     7
 10
109.030701480277
 20
117.69365669538639
 30
0.0
 11
109.030701480277
 21
124.6936569114533
 31
0.0
  0
LINE
  5
634A
  8
0
  6
CONTINUOUS
 62
     7
 10
105.3807013942228
 20
126.1936566916611
 30
0.0
 11
105.3807013942228
 21
124.6936569114533
 31
0.0
  0
LINE
  5
634B
  8
0
  6
CONTINUOUS
 62
     7
 10
110.18070162221051
 20
124.6936569114533
 30
0.0
 11
110.18070162221051
 21
126.1936566916611
 31
0.0
  0
LINE
  5
634E
  8
0
  6
CONTINUOUS
 62
     7
 10
106.5307015361563
 20
117.69365669538639
 30
0.0
 11
109.030701480277
 21
117.69365669538639
 31
0.0
  0
CIRCLE
  5
635D
  8
0
  6
CONTINUOUS
 62
     7
 10
107.78070150821669
 20
128.6936567058172
 30
0.0
 40
0.4999999999999944
  0
CIRCLE
  5
635E
  8
0
  6
CONTINUOUS
 62
     7
 10
107.78070150821669
 20
128.6936567058172
 30
0.0
 40
1.0
  0
ARC
  5
635F
  8
0
  6
CONTINUOUS
 62
     7
 10
113.6307015082167
 20
128.6936567058172
 30
0.0
 40
1.6000000000000041
 50
90.0
 51
270.0
  0
LINE
  5
6360
  8
0
  6
CONTINUOUS
 62
     7
 10
113.6307013495193
 20
127.0936565597859
 30
0.0
 11
113.9807016862855
 21
127.0936565597859
 31
0.0
  0
ARC
  5
6361
  8
0
  6
CONTINUOUS
 62
     7
 10
113.9807015082167
 20
128.6936567058172
 30
0.0
 40
1.6000000000000041
 50
270.0
 51
90.0
  0
LINE
  5
6362
  8
0
  6
CONTINUOUS
 62
     7
 10
113.9807016862855
 20
130.29365671177769
 30
0.0
 11
113.6307013495193
 21
130.29365671177769
 31
0.0
  0
LINE
  5
636E
  8
0
  6
CONTINUOUS
 62
     7
 10
116.4807016304062
 20
131.1936567108697
 30
0.0
 11
116.4807016304062
 21
126.1936566916611
 31
0.0
  0
LINE
  5
637D
  8
0
  6
CONTINUOUS
 62
     7
 10
110.7807015342937
 20
138.6936568779256
 30
0.0
 11
110.7807015342937
 21
131.1936567108697
 31
0.0
  0
LINE
  5
6381
  8
0
  6
CONTINUOUS
 62
     7
 10
116.4807016304062
 20
126.1936566916611
 30
0.0
 11
104.78070148213961
 21
126.1936566916611
 31
0.0
  0
LINE
  5
6382
  8
0
  6
CONTINUOUS
 62
     7
 10
104.78070148213961
 20
126.1936566916611
 30
0.0
 11
104.78070148213961
 21
138.6936568779256
 31
0.0
  0
LINE
  5
638B
  8
0
  6
CONTINUOUS
 62
     7
 10
104.78070148213961
 20
138.6936568779256
 30
0.0
 11
110.7807015342937
 21
138.6936568779256
 31
0.0
  0
LINE
  5
6392
  8
0
  6
CONTINUOUS
 62
     7
 10
110.18070162221051
 20
124.6936569114533
 30
0.0
 11
105.3807013942228
 21
124.6936569114533
 31
0.0
  0
LINE
  5
6393
  8
0
  6
CENTER
 62
     4
 10
113.9807015082167
 20
130.7310124614618
 30
0.0
 11
113.9807015082167
 21
126.7565083369748
 31
0.0
  0
LINE
  5
6394
  8
0
  6
CENTER
 62
     4
 10
113.6307015082167
 20
130.7310124614618
 30
0.0
 11
113.6307015082167
 21
126.7565083369748
 31
0.0
  0
LINE
  5
6395
  8
0
  6
CENTER
 62
     4
 10
104.99971255890409
 20
128.6936567058172
 30
0.0
 11
117.1809628664443
 21
128.6936567058172
 31
0.0
  0
LINE
  5
6396
  8
0
  6
CENTER
 62
     4
 10
107.78070150821669
 20
139.52218897635191
 30
0.0
 11
107.78070150821669
 21
116.9314592314274
 31
0.0
  0
LINE
  5
63C4
  8
0
  6
CONTINUOUS
 62
     7
 10
92.909610565273425
 20
152.40172888559891
 30
0.0
 11
93.909610729186213
 21
152.40172888559891
 31
0.0
  0
LINE
  5
63C5
  8
0
  6
CONTINUOUS
 62
     7
 10
93.909610729186213
 20
154.40172898059379
 30
0.0
 11
92.909610565273425
 21
154.40172898059379
 31
0.0
  0
LINE
  5
63C6
  8
0
  6
CONTINUOUS
 62
     7
 10
93.909610729186213
 20
152.40172888559891
 30
0.0
 11
94.409610811142585
 21
152.90172890934761
 31
0.0
  0
LINE
  5
63C7
  8
0
  6
CONTINUOUS
 62
     7
 10
94.409610811142585
 20
153.90172895684501
 30
0.0
 11
93.909610729186213
 21
154.40172898059379
 31
0.0
  0
LINE
  5
644C
  8
0
  6
CONTINUOUS
 62
     7
 10
89.209610796986524
 20
155.593874845073
 30
0.0
 11
83.209610744832446
 21
155.593874845073
 31
0.0
  0
LINE
  5
644D
  8
0
  6
CONTINUOUS
 62
     7
 10
83.209610744832446
 20
151.20958302111961
 30
0.0
 11
89.209610796986524
 21
151.20958302111961
 31
0.0
  0
LINE
  5
6462
  8
0
  6
CONTINUOUS
 62
     7
 10
79.509610976545503
 20
150.4017289070193
 30
0.0
 11
79.509610976545503
 21
156.4017289591734
 31
0.0
  0
LINE
  5
64B5
  8
0
  6
CONTINUOUS
 62
     7
 10
92.909610565273425
 20
150.4017289070193
 30
0.0
 11
79.509610976545503
 21
150.4017289070193
 31
0.0
  0
LINE
  5
64B7
  8
0
  6
CONTINUOUS
 62
     7
 10
92.909610565273425
 20
156.40172895917331
 30
0.0
 11
79.509610976545503
 21
156.4017289591734
 31
0.0
  0
LINE
  5
64BA
  8
0
  6
CONTINUOUS
 62
     7
 10
88.909610840944936
 20
156.40172895917331
 30
0.0
 11
88.909610840944936
 21
162.1017290552858
 31
0.0
  0
LINE
  5
64BB
  8
0
  6
CONTINUOUS
 62
     7
 10
88.909610840944936
 20
162.1017290552858
 30
0.0
 11
92.909610565273425
 21
162.1017290552858
 31
0.0
  0
LINE
  5
64BC
  8
0
  6
CONTINUOUS
 62
     7
 10
92.909610565273425
 20
162.1017290552858
 30
0.0
 11
92.909610565273425
 21
150.4017289070193
 31
0.0
  0
LINE
  5
64BF
  8
0
  6
CONTINUOUS
 62
     7
 10
93.909610729186213
 20
152.40172888559891
 30
0.0
 11
93.909610729186213
 21
154.40172898059379
 31
0.0
  0
LINE
  5
64C0
  8
0
  6
CONTINUOUS
 62
     7
 10
94.409610811142585
 20
153.90172895684501
 30
0.0
 11
94.409610811142585
 21
152.90172890934761
 31
0.0
  0
LINE
  5
64C1
  8
0
  6
CENTER
 62
     4
 10
95.834006691446348
 20
153.40172893309631
 30
0.0
 11
91.697989513659167
 21
153.40172893309631
 31
0.0
  0
LINE
  5
6847
  8
0
  6
CONTINUOUS
 62
     7
 10
83.209610744832446
 20
156.4017289591734
 30
0.0
 11
83.209610744832446
 21
150.4017289070193
 31
0.0
  0
LINE
  5
6848
  8
0
  6
CONTINUOUS
 62
     7
 10
83.209610744832446
 20
150.90172893309631
 30
0.0
 11
89.209610796986539
 21
150.90172893309631
 31
0.0
  0
LINE
  5
6849
  8
0
  6
CONTINUOUS
 62
     7
 10
89.209610796986539
 20
150.4017289070193
 30
0.0
 11
89.209610796986539
 21
156.40172895917331
 31
0.0
  0
LINE
  5
684A
  8
0
  6
CONTINUOUS
 62
     7
 10
89.209610796986539
 20
155.90172893309631
 30
0.0
 11
83.209610744832446
 21
155.90172893309631
 31
0.0
  0
LINE
  5
684D
  8
0
  6
CONTINUOUS
 62
     7
 10
83.209610744832446
 20
132.19365668560749
 30
0.0
 11
83.209610744832446
 21
138.6936568779256
 31
0.0
  0
LINE
  5
684E
  8
0
  6
CONTINUOUS
 62
     7
 10
89.209610796986539
 20
132.19365668560749
 30
0.0
 11
89.209610796986539
 21
138.6936568779256
 31
0.0
  0
LINE
  5
684F
  8
0
  6
CONTINUOUS
 62
     7
 10
79.509610976545503
 20
126.6936567736175
 30
0.0
 11
88.909610840944964
 21
126.6936567736175
 31
0.0
  0
LINE
  5
6851
  8
0
  6
CONTINUOUS
 62
     7
 10
110.7807015342937
 20
131.1936567108697
 30
0.0
 11
116.4807016304062
 21
131.1936567108697
 31
0.0
  0
LINE
  5
688F
  8
0
  6
CENTER
 62
     4
 10
86.209610770909507
 20
139.52218897635191
 30
0.0
 11
86.209610770909507
 21
116.9314592314274
 31
0.0
  0
LINE
  5
6892
  8
0
  6
CENTER
 62
     4
 10
91.893799360637075
 20
128.6936567058172
 30
0.0
 11
95.415385474646072
 21
128.6936567058172
 31
0.0
  0
INSERT
  5
6894
  8
0
  2
*U73
 10
0.0
 20
0.0
 30
0.0
  0
LINE
  5
6F49
  8
0
  6
CONTINUOUS
 62
     2
 10
85.740796357378017
 20
137.11943028764199
 30
0.0
 11
84.151788359804243
 21
136.6936568779256
 31
0.0
  0
LINE
  5
6F4A
  8
0
  6
CONTINUOUS
 62
     2
 10
84.151788359804243
 20
136.6936568779256
 30
0.0
 11
85.740796357378017
 21
136.26788346820911
 31
0.0
  0
LINE
  5
6F4B
  8
0
  6
CONTINUOUS
 62
     2
 10
84.151788359804243
 20
136.6936568779256
 30
0.0
 11
88.267433182014784
 21
136.6936568779256
 31
0.0
  0
LINE
  5
6F4E
  8
0
  6
CONTINUOUS
 62
     2
 10
85.740796357378017
 20
153.82750234281269
 30
0.0
 11
84.151788359804243
 21
153.40172893309631
 31
0.0
  0
LINE
  5
6F4F
  8
0
  6
CONTINUOUS
 62
     2
 10
84.151788359804243
 20
153.40172893309631
 30
0.0
 11
85.740796357378017
 21
152.97595552337981
 31
0.0
  0
LINE
  5
6F50
  8
0
  6
CONTINUOUS
 62
     2
 10
84.151788359804243
 20
153.40172893309631
 30
0.0
 11
88.267433182014784
 21
153.40172893309631
 31
0.0
  0
VIEWPORT
  5
6830
 67
     1
  8
0
 10
142.61041259765619
 20
99.112914085388184
 30
0.0
 40
362.3189755670457
 41
222.15178063964851
 68
     1
 69
     1
1001
ACAD
1000
MVIEW
1002
{
1070
    16
1010
0.0
1020
0.0
1030
0.0
1010
0.0
1020
0.0
1030
1.0
1040
0.0
1040
222.15178063964851
1040
142.61041259765619
1040
99.112914085388184
1040
50.0
1040
0.0
1040
0.0
1070
     0
1070
   100
1070
     1
1070
     1
1070
     0
1070
     0
1070
     0
1070
     0
1040
0.0
1040
0.0
1040
0.0
1040
10.0
1040
10.0
1040
10.0
1040
10.0
1070
     0
1002
{
1002
}
1002
}
1001
GENIUS_GENODEF_13
1002
{
1000
HIER
1070
     0
1002
}
1002
{
1000
MANEDIT
1070
     0
1002
}
1002
{
1000
NOSEL
1070
     0
1002
}
1002
{
1000
BEHIND
1070
     0
1002
}
1002
{
1000
OTHER
1070
     0
1002
}
1002
{
1000
REACTOR
1002
}
1001
GENIUS_GENOBJ-N-SDF_13
1002
{
1000
OWNER
1000
GEN
1002
}
1001
GENIUS_GENSCREG_15
1000
PF
1040
1.0
1000
DF
1040
1.0
1000
MIN
1011
-38.549075185866691
1021
0.0
1031
0.0
1021
-11.96297623443607
1031
0.0
1000
MAX
1011
323.76990038117901
1021
0.0
1031
0.0
1021
210.18880440521241
1031
0.0
1000
FLAGS
1070
     4
  0
ENDSEC
  0
EOF
