  0
SECTION
  2
HEADER
  9
$ACADVER
  1
AC1009
  9
$INSBASE
 10
0
 20
0
  9
$EXTMIN
 10
-145.848408424859
 20
-67.80536622206022
  9
$EXTMAX
 10
34.15159157514091
 20
182.1946337779398
  9
$LIMMIN
 10
-145.848408424859
 20
-67.80536622206022
  9
$LIMMAX
 10
34.15159157514091
 20
182.1946337779398
  9
$VIEWCTR
 10
10
 20
10
  9
$VIEWSIZE
 40
10
  9
$SNAPMODE
 70
0
  9
$SNAPUNIT
 10
1
 20
1
  9
$SNAPBASE
 10
0
 20
0
  9
$SNAPANG
 50
0
  9
$SNAPSTYLE
 70
0
  9
$SNAPISOPAIR
 70
0
  9
$GRIDMODE
 70
0
  9
$GRIDUNIT
 10
0
 20
0
  9
$ORTHOMODE
 70
0
  9
$REGENMODE
 70
1
  9
$FILLMODE
 70
1
  9
$QTEXTMODE
 70
0
  9
$DRAGMODE
 70
2
  9
$LTSCALE
 40
1
  9
$OSMODE
 70
0
  9
$ATTMODE
 70
1
  9
$TEXTSIZE
 40
3.5
  9
$TRACEWID
 40
0.5
  9
$TEXTSTYLE
  7
STANDARD
  9
$CLAYER
  8
0
  9
$CELTYPE
  6
BYLAYER
  9
$CECOLOR
 62
256
  9
$DIMSCALE
 40
1
  9
$DIMASZ
 40
0.18
  9
$DIMEXO
 40
0.0625
  9
$DIMDLI
 40
0.38
  9
$DIMRND
 40
0
  9
$DIMDLE
 40
0
  9
$DIMEXE
 40
0.18
  9
$DIMTP
 40
0
  9
$DIMTM
 40
0
  9
$DIMTXT
 40
0.18
  9
$DIMCEN
 40
0.09
  9
$DIMTSZ
 40
0
  9
$DIMTOL
 70
0
  9
$DIMLIM
 70
0
  9
$DIMTIH
 70
1
  9
$DIMTOH
 70
1
  9
$DIMSE1
 70
0
  9
$DIMSE2
 70
0
  9
$DIMTAD
 70
0
  9
$DIMZIN
 70
0
  9
$DIMBLK
  1

  9
$DIMASO
 70
1
  9
$DIMSHO
 70
1
  9
$DIMPOST
  1

  9
$DIMAPOST
  1

  9
$DIMALT
 70
0
  9
$DIMALTD
 70
2
  9
$DIMALTF
 40
25.4
  9
$DIMLFAC
 40
1
  9
$DIMTOFL
 70
0
  9
$DIMTVP
 40
0
  9
$DIMTIX
 70
0
  9
$DIMSOXD
 70
0
  9
$DIMSAH
 70
0
  9
$DIMBLK1
  1

  9
$DIMBLK2
  1

  9
$DIMSTYLE
  2
*UNNAMED
  9
$DIMCLRD
 70
0
  9
$DIMCLRE
 70
0
  9
$DIMCLRT
 70
0
  9
$DIMTFAC
 40
1
  9
$DIMGAP
 40
0.09
  9
$LUNITS
 70
2
  9
$LUPREC
 70
4
  9
$AXISMODE
 70
0
  9
$AXISUNIT
 10
0
 20
0
  9
$SKETCHINC
 40
0.1
  9
$FILLETRAD
 40
2
  9
$AUNITS
 70
0
  9
$AUPREC
 70
0
  9
$MENU
  1
ACAD
  9
$ELEVATION
 40
0
  9
$THICKNESS
 40
0
  9
$VIEWDIR
 10
0
 20
0
 30
1
  9
$LIMCHECK
 70
0
  9
$BLIPMODE
 70
1
  9
$CHAMFERA
 40
0
  9
$CHAMFERB
 40
0
  9
$FASTZOOM
 70
1
  9
$SKPOLY
 70
0
  9
$ANGBASE
 50
0
  9
$ANGDIR
 70
0
  9
$PDMODE
 70
0
  9
$PDSIZE
 40
0
  9
$PLINEWID
 40
0
  9
$COORDS
 70
2
  0
ENDSEC
  0
SECTION
  2
TABLES
  0
TABLE
  2
DIMSTYLE
 70
0
  0
ENDTAB
  0
TABLE
  2
LTYPE
 70
9
  0
LTYPE
  2
CONTINUOUS
 70
64
  3
Solid line
 72
65
 73
0
 40
0
  0
LTYPE
  2
BORDER
 70
64
  3
__ __ . __ __ .
 72
65
 73
6
 40
11.51315789473684
 49
3.289473684210526
 49
-1.644736842105263
 49
3.289473684210526
 49
-1.644736842105263
 49
0
 49
-1.644736842105263
  0
LTYPE
  2
CENTER
 70
64
  3
____ _ ____ _
 72
65
 73
4
 40
13.1578947368421
 49
8.223684210526315
 49
-1.644736842105263
 49
1.644736842105263
 49
-1.644736842105263
  0
LTYPE
  2
DASHDOT
 70
64
  3
__ . __ . __ .
 72
65
 73
4
 40
6.578947368421052
 49
3.289473684210526
 49
-1.644736842105263
 49
0
 49
-1.644736842105263
  0
LTYPE
  2
DASHED
 70
64
  3
__ __ __ __ __
 72
65
 73
2
 40
4.934210526315789
 49
3.289473684210526
 49
-1.644736842105263
  0
LTYPE
  2
DIVIDE
 70
64
  3
__ . . __ . . 
 72
65
 73
6
 40
8.223684210526315
 49
3.289473684210526
 49
-1.644736842105263
 49
0
 49
-1.644736842105263
 49
0
 49
-1.644736842105263
  0
LTYPE
  2
DOT
 70
64
  3
..............
 72
65
 73
4
 40
3.289473684210526
 49
0
 49
-1.644736842105263
 49
0
 49
-1.644736842105263
  0
LTYPE
  2
HIDDEN
 70
64
  3
_ _ _ _ _ _ _
 72
65
 73
2
 40
2.467105263157895
 49
1.644736842105263
 49
-0.8223684210526315
  0
LTYPE
  2
PHANTOM
 70
64
  3
_____ _ _ _____ _ _ 
 72
65
 73
6
 40
16.44736842105263
 49
8.223684210526315
 49
-1.644736842105263
 49
1.644736842105263
 49
-1.644736842105263
 49
1.644736842105263
 49
-1.644736842105263
  0
ENDTAB
  0
TABLE
  2
LAYER
 70
9
  0
LAYER
  2
_F_Q_____-AM_0
 70
0
 62
7
  6
CONTINUOUS
  0
LAYER
  2
AM_0
 70
0
 62
7
  6
CONTINUOUS
  0
LAYER
  2
______-AM_0
 70
0
 62
7
  6
CONTINUOUS
  0
LAYER
  2
__________-AM_0
 70
0
 62
7
  6
CONTINUOUS
  0
LAYER
  2
_______-AM_0
 70
0
 62
7
  6
CONTINUOUS
  0
LAYER
  2
__________-AM_0N
 70
0
 62
7
  6
CONTINUOUS
  0
LAYER
  2
1
 70
0
 62
7
  6
CONTINUOUS
  0
LAYER
  2
0
 70
0
 62
7
  6
CONTINUOUS
  0
ENDTAB
  0
TABLE
  2
STYLE
 70
4
  0
STYLE
  2
STANDARD
 70
0
 40
0
 41
1
 50
0
 71
0
 42
3.5
  3
txt
  4

  0
STYLE
  2
SIMPLEX
 70
0
 40
0
 41
1
 50
0
 71
0
 42
3.5
  3
simplex
  4

  0
STYLE
  2
COMPLEX
 70
0
 40
0
 41
1
 50
0
 71
0
 42
3.5
  3
complex
  4

  0
STYLE
  2
ITALIC
 70
0
 40
0
 41
1
 50
0
 71
0
 42
3.5
  3
italic
  4

  0
ENDTAB
  0
TABLE
  2
VIEW
 70
0
  0
ENDTAB
  0
ENDSEC
  0
SECTION
  2
BLOCKS
  0
ENDSEC
  0
SECTION
  2
ENTITIES
  0
LINE
  8
1
 62
2
  6
DASHDOT
 10
-55.54785985776101
 20
0.3769188680425941
 30
0
 11
-43.54785985776101
 21
0.3769188680425941
 31
0
  0
LINE
  8
1
 62
2
  6
DASHDOT
 10
-49.54785985776101
 20
6.376918868042594
 30
0
 11
-49.54785985776101
 21
-5.623081131957406
 31
0
  0
LINE
  8
1
 62
2
  6
DASHDOT
 10
-19.54785985776101
 20
6.376918868042594
 30
0
 11
-19.54785985776101
 21
-5.623081131957406
 31
0
  0
LINE
  8
1
 62
2
  6
DASHDOT
 10
-25.54785985776101
 20
0.3769188680425941
 30
0
 11
-13.54785985776101
 21
0.3769188680425941
 31
0
  0
LINE
  8
1
 62
2
  6
DASHDOT
 10
2.451743957326897
 20
58.37703554505322
 30
0
 11
14.4517439573269
 21
58.37703554505322
 31
0
  0
LINE
  8
1
 62
2
  6
DASHDOT
 10
8.451743957326897
 20
64.37703554505322
 30
0
 11
8.451743957326897
 21
52.37703554505322
 31
0
  0
LINE
  8
1
 62
2
  6
DASHDOT
 10
-19.54785985776101
 20
154.4256970358198
 30
0
 11
-19.54785985776101
 21
120.4256970358199
 31
0
  0
LINE
  8
1
 62
2
  6
DASHDOT
 10
-115.8204771333295
 20
17.37696497302807
 30
0
 11
-99.82047713332946
 21
17.37696497302807
 31
0
  0
LINE
  8
1
 62
2
  6
DASHDOT
 10
-107.8204771333295
 20
25.37696497302807
 30
0
 11
-107.8204771333295
 21
9.376964973028066
 31
0
  0
LINE
  8
1
 62
2
  6
DASHDOT
 10
-124.8204771333295
 20
0.3769188680425941
 30
0
 11
-90.82047713332946
 21
0.3769188680425941
 31
0
  0
LINE
  8
1
 62
2
  6
DASHDOT
 10
-124.8204771333295
 20
58.37703554505322
 30
0
 11
-90.82047713332946
 21
58.37703554505322
 31
0
  0
LINE
  8
1
 62
2
  6
DASHDOT
 10
-49.54785985776101
 20
154.4256970650563
 30
0
 11
-49.54785985776101
 21
120.4256970650562
 31
0
  0
LINE
  8
1
 62
2
  6
DASHDOT
 10
8.451743957326897
 20
154.4256970358198
 30
0
 11
8.451743957326897
 21
120.4256970358199
 31
0
  0
LINE
  8
__________-AM_0N
 62
7
 10
-103.3151782848294
 20
-5.082680311459285
 30
0
 11
-102.6070106128029
 21
-5.082680311459285
 31
0
  0
LINE
  8
__________-AM_0
 62
7
 10
-101.810759855229
 20
-4.622964722231586
 30
0
 11
-102.6070106128029
 21
-5.082680311459285
 31
0
  0
LINE
  8
__________-AM_0
 62
7
 10
-101.3339436538565
 20
-6.468995103574571
 30
0
 11
-102.6070106128029
 21
-7.204000655018831
 31
0
  0
LINE
  8
__________-AM_0N
 62
7
 10
-101.3339436538565
 20
-6.468995103574571
 30
0
 11
-99.96204817203721
 21
-4.622964722231586
 31
0
  0
LINE
  8
__________-AM_0
 62
7
 10
-101.3339436538565
 20
-4.622964722231586
 30
0
 11
-101.3339436538565
 21
-6.468995103574571
 31
0
  0
LINE
  8
__________-AM_0
 62
7
 10
-102.6070106128029
 20
-7.204000655018831
 30
0
 11
-102.6070106128029
 21
-5.082680311459285
 31
0
  0
LINE
  8
__________-AM_0N
 62
7
 10
-113.0339436538564
 20
-7.204000655018888
 30
0
 11
-102.6070106128029
 21
-7.204000655018831
 31
0
  0
LINE
  8
__________-AM_0N
 62
7
 10
-113.0339436538561
 20
-5.082680311459001
 30
0
 11
-112.3257759818302
 21
-5.082680311459114
 31
0
  0
LINE
  8
__________-AM_0
 62
7
 10
-113.83019441143
 20
-4.6229647222317
 30
0
 11
-113.0339436538561
 21
-5.082680311459001
 31
0
  0
LINE
  8
__________-AM_0
 62
7
 10
-113.0339436538561
 20
-5.082680311459001
 30
0
 11
-113.0339436538564
 21
-7.204000655018888
 31
0
  0
LINE
  8
__________-AM_0
 62
7
 10
-114.307010612803
 20
-6.468995103574912
 30
0
 11
-113.0339436538564
 21
-7.204000655018888
 31
0
  0
LINE
  8
__________-AM_0N
 62
7
 10
-115.6789060946225
 20
-4.6229647222317
 30
0
 11
-114.307010612803
 21
-6.468995103574912
 31
0
  0
LINE
  8
__________-AM_0
 62
7
 10
-114.307010612803
 20
-6.468995103574912
 30
0
 11
-114.307010612803
 21
-4.6229647222317
 31
0
  0
LINE
  8
__________-AM_0
 62
7
 10
0.2216463292019739
 20
-6.893309848310992
 30
0
 11
0.6834002684301765
 21
-6.769583260453601
 31
0
  0
LINE
  8
__________-AM_0
 62
7
 10
-0.9378676149209753
 20
-7.204000655018831
 30
0
 11
0.2216463292019739
 21
-6.893309848310992
 31
0
  0
LINE
  8
__________-AM_0
 62
7
 10
-2.465007524045404
 20
-5.676860745894373
 30
0
 11
-0.9378676149209753
 21
-7.204000655018831
 31
0
  0
LINE
  8
1
 62
7
 10
-1.729905148630024
 20
-4.941758370479079
 30
0
 11
0.2216463292019739
 21
-6.893309848310992
 31
0
  0
LINE
  8
AM_0
 62
7
 10
7.408302119300771
 20
-0.05309303895262474
 30
0
 11
0.6834002684301765
 21
-6.769583260453601
 31
0
  0
LINE
  8
AM_0
 62
7
 10
8.880501111112977
 20
1.417264499623286
 30
0
 11
7.408302119300771
 21
-0.05309303895262474
 31
0
  0
LINE
  8
1
 62
7
 10
5.284860833752276
 20
2.073007611903336
 30
0
 11
7.408302119300771
 21
-0.05309303895262474
 31
0
  0
LINE
  8
1
 62
7
 10
6.754773700145989
 20
3.542920478296992
 30
0
 11
8.880501111112977
 21
1.417264499623286
 31
0
  0
LINE
  8
__________-AM_0
 62
7
 10
15.72275651218217
 20
8.606284109950934
 30
0
 11
15.59275909795528
 21
8.121126672270805
 31
0
  0
LINE
  8
AM_0
 62
7
 10
15.59275909795528
 20
8.121126672270805
 30
0
 11
8.880501111112977
 21
1.417264499623286
 31
0
  0
LINE
  8
1
 62
7
 10
13.77044692199098
 20
10.55859370014201
 30
0
 11
15.72275651218217
 21
8.606284109950934
 31
0
  0
LINE
  8
__________-AM_0
 62
7
 10
16.03344959441276
 20
9.765807632601877
 30
0
 11
15.72275651218217
 21
8.606284109950934
 31
0
  0
LINE
  8
__________-AM_0
 62
7
 10
14.50555522443167
 20
11.29370200258268
 30
0
 11
16.03344959441276
 21
9.765807632601877
 31
0
  0
LINE
  8
1
 62
7
 10
-6.636937435763116
 20
-2.212043542388585
 30
0
 11
-9.047858615605719
 21
-4.622964722231586
 31
0
  0
LINE
  8
1
 62
7
 10
-6.636937435763116
 20
-2.212043542388585
 30
0
 11
-2.818563878093215
 21
-6.030417100058571
 31
0
  0
LINE
  8
1
 62
7
 10
11.04073209390037
 20
15.46562598727519
 30
0
 11
-6.636937435763116
 21
-2.212043542388585
 31
0
  0
LINE
  8
1
 62
7
 10
11.04073209390037
 20
15.46562598727519
 30
0
 11
14.85910565145417
 21
11.64725242972133
 31
0
  0
LINE
  8
1
 62
7
 10
-23.54785985776101
 20
2.686319944801085
 30
0
 11
-19.54785985776093
 21
4.995721021559575
 31
0
  0
LINE
  8
1
 62
7
 10
-19.54785985776093
 20
4.995721021559575
 30
0
 11
-15.54785985776093
 21
2.686319944800971
 31
0
  0
LINE
  8
1
 62
7
 10
-15.54785985776093
 20
2.686319944800971
 30
0
 11
-15.54785985776101
 21
-1.932482208715896
 31
0
  0
LINE
  8
1
 62
7
 10
-15.54785985776101
 20
-1.932482208715896
 30
0
 11
-19.54785985776101
 21
-4.241883285474387
 31
0
  0
LINE
  8
1
 62
7
 10
-19.54785985776101
 20
-4.241883285474387
 30
0
 11
-23.54785985776101
 21
-1.932482208715896
 31
0
  0
LINE
  8
1
 62
7
 10
-23.54785985776101
 20
-1.932482208715896
 30
0
 11
-23.54785985776101
 21
2.686319944801085
 31
0
  0
LINE
  8
1
 62
7
 10
4.451743957326983
 20
60.68643662181171
 30
0
 11
8.451743957326983
 21
62.9958376985702
 31
0
  0
LINE
  8
1
 62
7
 10
8.451743957326983
 20
62.9958376985702
 30
0
 11
12.45174395732698
 21
60.68643662181171
 31
0
  0
LINE
  8
1
 62
7
 10
12.45174395732698
 20
60.68643662181171
 30
0
 11
12.45174395732698
 21
56.06763446829473
 31
0
  0
LINE
  8
1
 62
7
 10
12.45174395732698
 20
56.06763446829473
 30
0
 11
8.451743957326983
 21
53.75823339153624
 31
0
  0
LINE
  8
1
 62
7
 10
8.451743957326983
 20
53.75823339153624
 30
0
 11
4.451743957326983
 21
56.06763446829473
 31
0
  0
LINE
  8
1
 62
7
 10
4.451743957326983
 20
56.06763446829473
 30
0
 11
4.451743957326983
 21
60.68643662181171
 31
0
  0
LINE
  8
1
 62
7
 10
-53.54785985776101
 20
2.686319944801085
 30
0
 11
-49.54785985776093
 21
4.995721021559575
 31
0
  0
LINE
  8
1
 62
7
 10
-49.54785985776093
 20
4.995721021559575
 30
0
 11
-45.54785985776101
 21
2.686319944800971
 31
0
  0
LINE
  8
1
 62
7
 10
-45.54785985776101
 20
2.686319944800971
 30
0
 11
-45.54785985776101
 21
-1.932482208715896
 31
0
  0
LINE
  8
1
 62
7
 10
-45.54785985776101
 20
-1.932482208715896
 30
0
 11
-49.54785985776101
 21
-4.241883285474387
 31
0
  0
LINE
  8
1
 62
7
 10
-49.54785985776101
 20
-4.241883285474387
 30
0
 11
-53.54785985776101
 21
-1.932482208715896
 31
0
  0
LINE
  8
1
 62
7
 10
-53.54785985776101
 20
-1.932482208715896
 30
0
 11
-53.54785985776101
 21
2.686319944801085
 31
0
  0
LINE
  8
_______-AM_0
 62
7
 10
-54.54785861560612
 20
-4.6229647222317
 30
0
 11
-9.047858615605719
 21
-4.622964722231586
 31
0
  0
LINE
  8
1
 62
7
 10
-2.818563878093215
 20
-6.030417100058571
 30
0
 11
14.85910565145417
 21
11.64725242972133
 31
0
  0
LINE
  8
1
 62
7
 10
13.45165079398635
 20
63.3770352777683
 30
0
 11
13.45165079398669
 21
17.87654468736065
 31
0
  0
LINE
  8
1
 62
7
 10
13.45165079398669
 20
17.87654468736065
 30
0
 11
11.04073209390037
 21
15.46562598727519
 31
0
  0
LINE
  8
_______-AM_0
 62
7
 10
-54.5478586156058
 20
63.3770352777683
 30
0
 11
13.45165079398635
 21
63.3770352777683
 31
0
  0
LINE
  8
_F_Q_____-AM_0
 62
7
 10
-54.54785861560612
 20
4.377041301091481
 30
0
 11
-54.54785861560612
 21
-4.6229647222317
 31
0
  0
LINE
  8
_F_Q_____-AM_0
 62
7
 10
-54.5478586156058
 20
63.3770352777683
 30
0
 11
-54.54785861560612
 21
4.377041301091481
 31
0
  0
LINE
  8
1
 62
7
 10
-120.8204771333295
 20
-4.6229647222317
 30
0
 11
-120.8204771333295
 21
63.37705281348008
 31
0
  0
LINE
  8
1
 62
7
 10
-94.82047713332946
 20
-4.622964722231586
 30
0
 11
-120.8204771333295
 21
-4.6229647222317
 31
0
  0
LINE
  8
1
 62
7
 10
-94.82047713332946
 20
63.37705281348019
 30
0
 11
-94.82047713332946
 21
-4.622964722231586
 31
0
  0
LINE
  8
1
 62
7
 10
-120.8204771333295
 20
63.37705281348008
 30
0
 11
-94.82047713332946
 21
63.37705281348019
 31
0
  0
LINE
  8
1
 62
7
 10
-102.0194889935893
 20
65.37705288570896
 30
0
 11
-99.41948899358931
 21
65.37705235632257
 31
0
  0
LINE
  8
1
 62
7
 10
-99.41948899358931
 20
65.37705235632257
 30
0
 11
-98.71948901886941
 21
63.37705242855139
 31
0
  0
LINE
  8
1
 62
7
 10
-102.7194890188694
 20
63.3770528134803
 30
0
 11
-102.0194889935893
 21
65.37705288570896
 31
0
  0
LINE
  8
1
 62
7
 10
-116.2214652730702
 20
65.37705235632257
 30
0
 11
-113.6214652730703
 21
65.37705288570896
 31
0
  0
LINE
  8
1
 62
7
 10
-116.9214652477903
 20
63.37705242855139
 30
0
 11
-116.2214652730702
 21
65.37705235632257
 31
0
  0
LINE
  8
1
 62
7
 10
-113.6214652730703
 20
65.37705288570896
 30
0
 11
-112.9214652477902
 21
63.3770528134803
 31
0
  0
LINE
  8
1
 62
7
 10
-33.24786087923121
 20
65.37703518818682
 30
0
 11
-32.44786113608117
 21
65.37703511412661
 31
0
  0
LINE
  8
1
 62
7
 10
-33.74786106390963
 20
63.87703489194558
 30
0
 11
-33.74786106390963
 21
63.3770352777683
 31
0
  0
LINE
  8
1
 62
7
 10
-32.44786113608117
 20
65.37703511412661
 30
0
 11
-30.44786101674671
 21
63.37703499479233
 31
0
  0
LINE
  8
1
 62
7
 10
-33.74786055722521
 20
128.3256970169213
 30
0
 11
-33.74786055722521
 21
132.3256970169213
 31
0
  0
LINE
  8
1
 62
7
 10
-33.74786055722521
 20
132.3256970169213
 30
0
 11
-30.44786055722523
 21
132.3256970169213
 31
0
  0
LINE
  8
1
 62
7
 10
-30.44786055722523
 20
132.3256970169213
 30
0
 11
-30.44786055722523
 21
128.3256970169213
 31
0
  0
LINE
  8
1
 62
7
 10
-30.44786055722523
 20
128.3256970169213
 30
0
 11
-33.74786055722521
 21
128.3256970169213
 31
0
  0
LINE
  8
1
 62
7
 10
-33.74786055722521
 20
142.5256970169215
 30
0
 11
-33.74786055722521
 21
146.5256970169215
 31
0
  0
LINE
  8
1
 62
7
 10
-30.44786055722523
 20
142.5256970169215
 30
0
 11
-33.74786055722521
 21
142.5256970169215
 31
0
  0
LINE
  8
1
 62
7
 10
-30.44786055722523
 20
146.5256970169215
 30
0
 11
-30.44786055722523
 21
142.5256970169215
 31
0
  0
LINE
  8
1
 62
7
 10
-33.74786055722521
 20
146.5256970169215
 30
0
 11
-30.44786055722523
 21
146.5256970169215
 31
0
  0
LINE
  8
1
 62
7
 10
13.45213944277478
 20
150.4256970332992
 30
0
 11
13.45213944277478
 21
124.4256970332993
 31
0
  0
LINE
  8
_______-AM_0
 62
7
 10
-54.54786055722522
 20
124.4256970675766
 30
0
 11
13.45213944277478
 21
124.4256970332993
 31
0
  0
LINE
  8
_______-AM_0
 62
7
 10
13.45213944277478
 20
150.4256970332992
 30
0
 11
-54.54786055722522
 21
150.4256970675767
 31
0
  0
LINE
  8
1
 62
7
 10
-54.54786055722522
 20
150.4256970675767
 30
0
 11
-54.54786055722522
 21
124.4256970675766
 31
0
  0
LINE
  8
1
 62
7
 10
-55.84840842485909
 20
-57.8053662220602
 30
0
 11
34.15159157514091
 21
-57.8053662220602
 31
0
  0
LINE
  8
1
 62
7
 10
-25.84840842485909
 20
-57.80536622206021
 30
0
 11
-25.84840842485909
 21
-67.80536622206022
 31
0
  0
LINE
  8
1
 62
7
 10
-55.84840842485909
 20
-67.80536622206022
 30
0
 11
-55.84840842485909
 21
-37.8053662220602
 31
0
  0
LINE
  8
1
 62
7
 10
-55.84840842485909
 20
-47.8053662220602
 30
0
 11
34.15159157514091
 21
-47.8053662220602
 31
0
  0
LINE
  8
1
 62
7
 10
34.15159157514091
 20
-37.8053662220602
 30
0
 11
-55.84840842485909
 21
-37.8053662220602
 31
0
  0
LINE
  8
1
 62
7
 10
34.15159157514091
 20
182.1946337779398
 30
0
 11
34.15159157514091
 21
-67.8053662220602
 31
0
  0
LINE
  8
1
 62
7
 10
-145.848408424859
 20
182.1946337779398
 30
0
 11
34.15159157514091
 21
182.1946337779398
 31
0
  0
LINE
  8
1
 62
7
 10
-145.848408424859
 20
-67.8053662220602
 30
0
 11
-145.848408424859
 21
182.1946337779398
 31
0
  0
LINE
  8
1
 62
7
 10
34.15159157514091
 20
-67.8053662220602
 30
0
 11
-145.848408424859
 21
-67.8053662220602
 31
0
  0
ARC
  8
1
 62
7
 10
-31.24786091390001
 20
63.87703489194558
 30
0
 40
2.500000150009723
 50
143.1300964459468
 51
180
  0
CIRCLE
  8
_______-AM_0
 62
7
 10
-19.54785985776101
 20
0.3769188680425941
 30
0
 40
2.550000000000012
  0
CIRCLE
  8
_______-AM_0
 62
7
 10
8.451743957326897
 20
58.37703554505322
 30
0
 40
2.549999999999955
  0
CIRCLE
  8
_______-AM_0
 62
7
 10
-49.54785985776101
 20
0.3769188680425941
 30
0
 40
2.550000000000012
  0
CIRCLE
  8
______-AM_0
 62
7
 10
-32.1482747030532
 20
137.425693437613
 30
0
 40
2.000000000007578
  0
POLYLINE
  8
1
 62
7
 66
1
  0
VERTEX
  8
1
 10
-113.7405783095764
 20
-4.622929097531539
 30
0
 42
0.01181215223606329
  0
VERTEX
  8
1
 10
-113.0942226765325
 20
-4.851734682327772
 30
0
 42
0.03263302517705748
  0
VERTEX
  8
1
 10
-111.0498206898373
 20
-5.376837622760337
 30
0
 42
0.03119874727239097
  0
VERTEX
  8
1
 10
-108.9078744524737
 20
-5.643385186311763
 30
0
 42
0.03073078209532236
  0
VERTEX
  8
1
 10
-106.7330798141853
 20
-5.643385186311762
 30
0
 42
0.03120059587771359
  0
VERTEX
  8
1
 10
-104.5911335768217
 20
-5.376837622760338
 30
0
 42
0.03263718843105037
  0
VERTEX
  8
1
 10
-102.5467315901264
 20
-4.851734682327741
 30
0
 42
0.0118000023242864
  0
VERTEX
  8
1
 10
-101.9003759570828
 20
-4.622929097531653
 30
0
  0
SEQEND
  8
1
  0
LINE
  8
1
 62
2
  6
DASHED
 10
-49.54785985776101
 20
17.37696497302807
 30
0
 11
-69.54786055722522
 21
17.37696497302807
 31
0
  0
SOLID
  8
1
 62
2
  6
DASHED
 10
-66.34786055722522
 20
17.79825296530774
 30
0
 11
-66.34786055722522
 21
16.9556769807484
 31
0
 12
-69.54786055722522
 22
17.37696497302807
 32
0
 13
-69.54786055722522
 23
17.37696497302807
 33
0
  0
LINE
  8
1
 62
2
  6
DASHED
 10
-49.54785985776101
 20
137.4256970169215
 30
0
 11
-69.54786055722522
 21
137.4256970169215
 31
0
  0
SOLID
  8
1
 62
2
  6
DASHED
 10
-66.34786055722522
 20
137.8469850092012
 30
0
 11
-66.34786055722522
 21
137.0044090246418
 31
0
 12
-69.54786055722522
 22
137.4256970169215
 32
0
 13
-69.54786055722522
 23
137.4256970169215
 33
0
  0
TEXT
  8
1
 62
2
 10
-110.4928877194694
 20
31.73295443064785
 30
0
 40
0.6
  1
EQ-501,501T
 41
0.891
  0
TEXT
  8
1
 62
2
 10
-17.49288771946939
 20
136.7329544306479
 30
0
 40
0.6
  1
EQ-501,501T
 41
0.891
  0
TEXT
  8
1
 62
2
 10
-25.49288771946939
 20
30.73295443064785
 30
0
 40
0.6
  1
EQ-501,501T
 41
0.891
  0
TEXT
  8
1
 62
2
 10
-9.58644267534018
 20
-65.39305536041161
 30
0
 40
4
  1
SUNX Ltd.
 41
0.891
  0
TEXT
  8
1
 62
2
 10
-38.30691569909918
 20
-64.9145208859686
 30
0
 40
4
  1
1.0
 41
0.891
  0
TEXT
  8
1
 62
2
 10
-54.84840842485909
 20
-62.31961385660711
 30
0
 40
2.5
  1
Scale;
 41
0.7128000000000001
  0
TEXT
  8
1
 62
2
 10
-54.84840842485909
 20
-52.4390063217306
 30
0
 40
2.5
  1
Model name;
 41
0.7128000000000001
  0
TEXT
  8
1
 62
2
 10
-54.84840842485909
 20
-42.2589864373124
 30
0
 40
2.5
  1
Type;
 41
0.7128000000000001
  0
TEXT
  8
1
 62
2
 10
-28.858825787856
 20
-45.0267121736901
 30
0
 40
4
  1
Beam Sensor
 41
0.891
  0
TEXT
  8
1
 62
2
 10
-26.76198391734642
 20
-54.6202396591419
 30
0
 40
4
  1
EQ-501,501T
 41
0.891
  0
ENDSEC
  0
EOF
