ISO-10303-21;
HEADER;
FILE_DESCRIPTION (( 'STEP AP203' ),
    '1' );
FILE_NAME ('RF-230.STEP',
    '2005-09-05T07:06:23',
    ( 'êÏìáó«âp' ),
    ( ' ' ),
    'SwSTEP 2.0',
    'SolidWorks 2004251',
    '' );
FILE_SCHEMA (( 'CONFIG_CONTROL_DESIGN' ));
ENDSEC;

DATA;
#1 = VERTEX_POINT ( 'NONE', #586 ) ;
#2 = CLOSED_SHELL ( 'NONE', ( #238, #11, #19, #227, #213, #346 ) ) ;
#3 = ORIENTED_EDGE ( 'NONE', *, *, #230, .F. ) ;
#4 = EDGE_CURVE ( 'NONE', #13, #1, #585, .T. ) ;
#5 = CLOSED_SHELL ( 'NONE', ( #171, #182, #200, #207, #33, #191, #352, #297, #259, #244, #280, #364, #311, #322, #370, #501, #269, #377, #515, #41, #165 ) ) ;
#6 = ORIENTED_EDGE ( 'NONE', *, *, #14, .F. ) ;
#7 = EDGE_LOOP ( 'NONE', ( #8, #9, #6, #3 ) ) ;
#8 = ORIENTED_EDGE ( 'NONE', *, *, #349, .F. ) ;
#9 = ORIENTED_EDGE ( 'NONE', *, *, #4, .F. ) ;
#10 = ORIENTED_EDGE ( 'NONE', *, *, #343, .T. ) ;
#11 = ADVANCED_FACE ( 'NONE', ( #581 ), #580, .T. ) ;
#12 = ORIENTED_EDGE ( 'NONE', *, *, #15, .F. ) ;
#13 = VERTEX_POINT ( 'NONE', #575 ) ;
#14 = EDGE_CURVE ( 'NONE', #232, #13, #574, .T. ) ;
#15 = EDGE_CURVE ( 'NONE', #224, #13, #570, .T. ) ;
#16 = ORIENTED_EDGE ( 'NONE', *, *, #14, .T. ) ;
#17 = ORIENTED_EDGE ( 'NONE', *, *, #4, .T. ) ;
#18 = EDGE_LOOP ( 'NONE', ( #17, #342, #344, #345 ) ) ;
#19 = ADVANCED_FACE ( 'NONE', ( #566 ), #565, .F. ) ;
#20 = VERTEX_POINT ( 'NONE', #560 ) ;
#21 = BREP_WITH_VOIDS ( 'NONE', #5, ( #559 ) );
#22 = ORIENTED_EDGE ( 'NONE', *, *, #234, .T. ) ;
#23 = VERTEX_POINT ( 'NONE', #558 ) ;
#24 = ORIENTED_EDGE ( 'NONE', *, *, #223, .F. ) ;
#25 = EDGE_LOOP ( 'NONE', ( #26, #480, #483, #486 ) ) ;
#26 = ORIENTED_EDGE ( 'NONE', *, *, #28, .F. ) ;
#27 = EDGE_LOOP ( 'NONE', ( #39, #32, #511, #513 ) ) ;
#28 = EDGE_CURVE ( 'NONE', #20, #23, #650, .T. ) ;
#29 = VERTEX_POINT ( 'NONE', #646 ) ;
#30 = EDGE_CURVE ( 'NONE', #31, #34, #645, .T. ) ;
#31 = VERTEX_POINT ( 'NONE', #641 ) ;
#32 = ORIENTED_EDGE ( 'NONE', *, *, #30, .T. ) ;
#33 = ADVANCED_FACE ( 'NONE', ( #640, #639 ), #638, .T. ) ;
#34 = VERTEX_POINT ( 'NONE', #633 ) ;
#35 = VERTEX_POINT ( 'NONE', #632 ) ;
#36 = EDGE_CURVE ( 'NONE', #519, #37, #631, .T. ) ;
#37 = VERTEX_POINT ( 'NONE', #627 ) ;
#38 = ORIENTED_EDGE ( 'NONE', *, *, #36, .F. ) ;
#39 = ORIENTED_EDGE ( 'NONE', *, *, #40, .T. ) ;
#40 = EDGE_CURVE ( 'NONE', #29, #31, #625, .T. ) ;
#41 = ADVANCED_FACE ( 'NONE', ( #626 ), #615, .F. ) ;
#42 = EDGE_CURVE ( 'NONE', #37, #618, #612, .T. ) ;
#43 = DIRECTION ( 'NONE',  ( -1.000000000000000000, 0.0000000000000000000, 0.0000000000000000000 ) ) ;
#44 = VECTOR ( 'NONE', #43, 1000.000000000000000 ) ;
#45 = CARTESIAN_POINT ( 'NONE',  ( 10.65000000000000000, -54.29999999999999700, -7.450000000000000200 ) ) ;
#46 = LINE ( 'NONE', #45, #44 ) ;
#47 = CARTESIAN_POINT ( 'NONE',  ( 3.299999999999999800, -54.29999999999999700, -7.450000000000000200 ) ) ;
#48 = CARTESIAN_POINT ( 'NONE',  ( 3.299999999999999800, -54.29999999999999700, -2.849999999999999600 ) ) ;
#49 = DIRECTION ( 'NONE',  ( 0.0000000000000000000, 0.0000000000000000000, 1.000000000000000000 ) ) ;
#50 = DIRECTION ( 'NONE',  ( 1.000000000000000000, 0.0000000000000000000, 0.0000000000000000000 ) ) ;
#51 = AXIS2_PLACEMENT_3D ( 'NONE', #58, #50, #49 ) ;
#52 = CIRCLE ( 'NONE', #51, 2.300000000000000300 ) ;
#53 = DIRECTION ( 'NONE',  ( 0.0000000000000000000, 0.0000000000000000000, 1.000000000000000000 ) ) ;
#54 = DIRECTION ( 'NONE',  ( -1.000000000000000000, 0.0000000000000000000, 0.0000000000000000000 ) ) ;
#55 = CARTESIAN_POINT ( 'NONE',  ( 10.65000000000000000, -54.29999999999999700, -5.150000000000000400 ) ) ;
#56 = AXIS2_PLACEMENT_3D ( 'NONE', #55, #54, #53 ) ;
#57 = CYLINDRICAL_SURFACE ( 'NONE', #56, 2.300000000000000300 ) ;
#58 = CARTESIAN_POINT ( 'NONE',  ( 3.299999999999999800, -54.29999999999999700, -5.150000000000000400 ) ) ;
#59 = FACE_OUTER_BOUND ( 'NONE', #516, .T. ) ;
#60 = DIRECTION ( 'NONE',  ( -1.000000000000000000, 0.0000000000000000000, 0.0000000000000000000 ) ) ;
#61 = VECTOR ( 'NONE', #60, 1000.000000000000000 ) ;
#62 = CARTESIAN_POINT ( 'NONE',  ( 10.65000000000000000, -54.29999999999999700, -42.85000000000000100 ) ) ;
#63 = LINE ( 'NONE', #62, #61 ) ;
#64 = DIRECTION ( 'NONE',  ( 0.0000000000000000000, 0.0000000000000000000, -1.000000000000000000 ) ) ;
#65 = DIRECTION ( 'NONE',  ( 1.000000000000000000, 0.0000000000000000000, 0.0000000000000000000 ) ) ;
#66 = CARTESIAN_POINT ( 'NONE',  ( 0.0000000000000000000, -54.29999999999999700, -45.15000000000000600 ) ) ;
#67 = AXIS2_PLACEMENT_3D ( 'NONE', #66, #65, #64 ) ;
#68 = CIRCLE ( 'NONE', #67, 2.300000000000003400 ) ;
#69 = CARTESIAN_POINT ( 'NONE',  ( 0.0000000000000000000, -59.29999999999999700, -7.261915678166697800E-015 ) ) ;
#70 = CARTESIAN_POINT ( 'NONE',  ( 0.0000000000000000000, 0.0000000000000000000, 0.0000000000000000000 ) ) ;
#71 = DIRECTION ( 'NONE',  ( 0.0000000000000000000, -1.000000000000000000, -1.224606353822377800E-016 ) ) ;
#72 = VECTOR ( 'NONE', #71, 1000.000000000000000 ) ;
#73 = CARTESIAN_POINT ( 'NONE',  ( 0.0000000000000000000, 0.0000000000000000000, 0.0000000000000000000 ) ) ;
#74 = LINE ( 'NONE', #73, #72 ) ;
#75 = DIRECTION ( 'NONE',  ( 0.0000000000000000000, 0.0000000000000000000, 1.000000000000000000 ) ) ;
#76 = CARTESIAN_POINT ( 'NONE',  ( -0.02514999999999999500, 0.02429999999999999500, -0.007500000000000000600 ) ) ;
#77 = AXIS2_PLACEMENT_3D ( 'NONE', #76, #85, #75 ) ;
#78 = SHAPE_DEFINITION_REPRESENTATION ( #144, #79 ) ;
#79 = ADVANCED_BREP_SHAPE_REPRESENTATION ( 'RF-230', ( #21, #77 ), #80 ) ;
#80 =( GEOMETRIC_REPRESENTATION_CONTEXT ( 3 ) GLOBAL_UNCERTAINTY_ASSIGNED_CONTEXT ( ( #81 ) ) GLOBAL_UNIT_ASSIGNED_CONTEXT ( ( #84, #83, #82 ) ) REPRESENTATION_CONTEXT ( 'NONE', 'WORKASPACE' ) );
#81 = UNCERTAINTY_MEASURE_WITH_UNIT (LENGTH_MEASURE( 1.000000000000000100E-005 ), #84, 'distance_accuracy_value', 'NONE');
#82 =( NAMED_UNIT ( * ) SI_UNIT ( $, .STERADIAN. ) SOLID_ANGLE_UNIT ( ) );
#83 =( NAMED_UNIT ( * ) PLANE_ANGLE_UNIT ( ) SI_UNIT ( $, .RADIAN. ) );
#84 =( LENGTH_UNIT ( ) NAMED_UNIT ( * ) SI_UNIT ( .MILLI., .METRE. ) );
#85 = DIRECTION ( 'NONE',  ( -1.000000000000000000, 0.0000000000000000000, 0.0000000000000000000 ) ) ;
#86 = CARTESIAN_POINT ( 'NONE',  ( 0.0000000000000000000, -54.29999999999999700, -7.450000000000000200 ) ) ;
#87 = CC_DESIGN_PERSON_AND_ORGANIZATION_ASSIGNMENT ( #89, #88, ( #92 ) ) ;
#88 = PERSON_AND_ORGANIZATION_ROLE ( 'design_owner' ) ;
#89 = PERSON_AND_ORGANIZATION ( #91, #90 ) ;
#90 = ORGANIZATION ( 'UNSPECIFIED', 'UNSPECIFIED', '' ) ;
#91 = PERSON ( 'UNSPECIFIED', 'UNSPECIFIED', 'UNSPECIFIED', ('UNSPECIFIED'), ('UNSPECIFIED'), ('UNSPECIFIED') ) ;
#92 = PRODUCT ( 'RF-230', 'RF-230', '', ( #93 ) ) ;
#93 = MECHANICAL_CONTEXT ( 'NONE', #95, 'mechanical' ) ;
#94 = APPLICATION_PROTOCOL_DEFINITION ( 'international standard', 'config_control_design', 1994, #95 ) ;
#95 = APPLICATION_CONTEXT ( 'configuration controlled 3d designs of mechanical parts and assemblies' ) ;
#96 = DATE_AND_TIME ( #160, #161 ) ;
#97 = CC_DESIGN_PERSON_AND_ORGANIZATION_ASSIGNMENT ( #99, #98, ( #100 ) ) ;
#98 = PERSON_AND_ORGANIZATION_ROLE ( 'classification_officer' ) ;
#99 = PERSON_AND_ORGANIZATION ( #91, #90 ) ;
#100 = SECURITY_CLASSIFICATION ( '', '', #101 ) ;
#101 = SECURITY_CLASSIFICATION_LEVEL ( 'unclassified' ) ;
#102 = CC_DESIGN_PERSON_AND_ORGANIZATION_ASSIGNMENT ( #104, #103, ( #119 ) ) ;
#103 = PERSON_AND_ORGANIZATION_ROLE ( 'design_supplier' ) ;
#104 = PERSON_AND_ORGANIZATION ( #91, #90 ) ;
#105 = CC_DESIGN_PERSON_AND_ORGANIZATION_ASSIGNMENT ( #107, #106, ( #119 ) ) ;
#106 = PERSON_AND_ORGANIZATION_ROLE ( 'creator' ) ;
#107 = PERSON_AND_ORGANIZATION ( #91, #90 ) ;
#108 = CC_DESIGN_APPROVAL ( #116, ( #119 ) ) ;
#109 = APPROVAL_DATE_TIME ( #110, #116 ) ;
#110 = DATE_AND_TIME ( #111, #112 ) ;
#111 = CALENDAR_DATE ( 2005, 5, 9 ) ;
#112 = LOCAL_TIME ( 16, 6, 23.00000000000000000, #113 ) ;
#113 = COORDINATED_UNIVERSAL_TIME_OFFSET ( 9, 0, .AHEAD. ) ;
#114 = APPROVAL_PERSON_ORGANIZATION ( #118, #116, #115 ) ;
#115 = APPROVAL_ROLE ( '' ) ;
#116 = APPROVAL ( #117, 'UNSPECIFIED' ) ;
#117 = APPROVAL_STATUS ( 'not_yet_approved' ) ;
#118 = PERSON_AND_ORGANIZATION ( #91, #90 ) ;
#119 = PRODUCT_DEFINITION_FORMATION_WITH_SPECIFIED_SOURCE ( 'ANY', '', #92, .NOT_KNOWN. ) ;
#120 = CC_DESIGN_DATE_AND_TIME_ASSIGNMENT ( #122, #121, ( #140 ) ) ;
#121 = DATE_TIME_ROLE ( 'creation_date' ) ;
#122 = DATE_AND_TIME ( #123, #124 ) ;
#123 = CALENDAR_DATE ( 2005, 5, 9 ) ;
#124 = LOCAL_TIME ( 16, 6, 23.00000000000000000, #125 ) ;
#125 = COORDINATED_UNIVERSAL_TIME_OFFSET ( 9, 0, .AHEAD. ) ;
#126 = CC_DESIGN_PERSON_AND_ORGANIZATION_ASSIGNMENT ( #128, #127, ( #140 ) ) ;
#127 = PERSON_AND_ORGANIZATION_ROLE ( 'creator' ) ;
#128 = PERSON_AND_ORGANIZATION ( #91, #90 ) ;
#129 = CC_DESIGN_APPROVAL ( #137, ( #140 ) ) ;
#130 = APPROVAL_DATE_TIME ( #131, #137 ) ;
#131 = DATE_AND_TIME ( #132, #133 ) ;
#132 = CALENDAR_DATE ( 2005, 5, 9 ) ;
#133 = LOCAL_TIME ( 16, 6, 23.00000000000000000, #134 ) ;
#134 = COORDINATED_UNIVERSAL_TIME_OFFSET ( 9, 0, .AHEAD. ) ;
#135 = APPROVAL_PERSON_ORGANIZATION ( #139, #137, #136 ) ;
#136 = APPROVAL_ROLE ( '' ) ;
#137 = APPROVAL ( #138, 'UNSPECIFIED' ) ;
#138 = APPROVAL_STATUS ( 'not_yet_approved' ) ;
#139 = PERSON_AND_ORGANIZATION ( #91, #90 ) ;
#140 = PRODUCT_DEFINITION ( 'UNKNOWN', '', #119, #141 ) ;
#141 = DESIGN_CONTEXT ( 'detailed design', #143, 'design' ) ;
#142 = APPLICATION_PROTOCOL_DEFINITION ( 'international standard', 'config_control_design', 1994, #143 ) ;
#143 = APPLICATION_CONTEXT ( 'configuration controlled 3d designs of mechanical parts and assemblies' ) ;
#144 = PRODUCT_DEFINITION_SHAPE ( 'NONE', 'NONE',  #140 ) ;
#145 = PRODUCT_RELATED_PRODUCT_CATEGORY ( 'detail', '', ( #92 ) ) ;
#146 = CC_DESIGN_SECURITY_CLASSIFICATION ( #100, ( #119 ) ) ;
#147 = CC_DESIGN_APPROVAL ( #155, ( #100 ) ) ;
#148 = APPROVAL_DATE_TIME ( #149, #155 ) ;
#149 = DATE_AND_TIME ( #150, #151 ) ;
#150 = CALENDAR_DATE ( 2005, 5, 9 ) ;
#151 = LOCAL_TIME ( 16, 6, 23.00000000000000000, #152 ) ;
#152 = COORDINATED_UNIVERSAL_TIME_OFFSET ( 9, 0, .AHEAD. ) ;
#153 = APPROVAL_PERSON_ORGANIZATION ( #157, #155, #154 ) ;
#154 = APPROVAL_ROLE ( '' ) ;
#155 = APPROVAL ( #156, 'UNSPECIFIED' ) ;
#156 = APPROVAL_STATUS ( 'not_yet_approved' ) ;
#157 = PERSON_AND_ORGANIZATION ( #91, #90 ) ;
#158 = CC_DESIGN_DATE_AND_TIME_ASSIGNMENT ( #96, #159, ( #100 ) ) ;
#159 = DATE_TIME_ROLE ( 'classification_date' ) ;
#160 = CALENDAR_DATE ( 2005, 5, 9 ) ;
#161 = LOCAL_TIME ( 16, 6, 23.00000000000000000, #162 ) ;
#162 = COORDINATED_UNIVERSAL_TIME_OFFSET ( 9, 0, .AHEAD. ) ;
#163 = ORIENTED_EDGE ( 'NONE', *, *, #42, .F. ) ;
#164 = ORIENTED_EDGE ( 'NONE', *, *, #505, .F. ) ;
#165 = ADVANCED_FACE ( 'NONE', ( #608 ), #607, .F. ) ;
#166 = EDGE_LOOP ( 'NONE', ( #167, #168, #169, #170 ) ) ;
#167 = ORIENTED_EDGE ( 'NONE', *, *, #30, .F. ) ;
#168 = ORIENTED_EDGE ( 'NONE', *, *, #279, .T. ) ;
#169 = ORIENTED_EDGE ( 'NONE', *, *, #514, .T. ) ;
#170 = ORIENTED_EDGE ( 'NONE', *, *, #325, .F. ) ;
#171 = ADVANCED_FACE ( 'NONE', ( #606 ), #601, .F. ) ;
#172 = EDGE_LOOP ( 'NONE', ( #173, #174, #177, #180 ) ) ;
#173 = ORIENTED_EDGE ( 'NONE', *, *, #494, .T. ) ;
#174 = ORIENTED_EDGE ( 'NONE', *, *, #175, .F. ) ;
#175 = EDGE_CURVE ( 'NONE', #176, #491, #596, .T. ) ;
#176 = VERTEX_POINT ( 'NONE', #592 ) ;
#177 = ORIENTED_EDGE ( 'NONE', *, *, #178, .F. ) ;
#178 = EDGE_CURVE ( 'NONE', #179, #176, #591, .T. ) ;
#179 = VERTEX_POINT ( 'NONE', #587 ) ;
#180 = ORIENTED_EDGE ( 'NONE', *, *, #181, .T. ) ;
#181 = EDGE_CURVE ( 'NONE', #179, #495, #557, .T. ) ;
#182 = ADVANCED_FACE ( 'NONE', ( #553 ), #552, .F. ) ;
#183 = EDGE_LOOP ( 'NONE', ( #184, #185, #188, #190 ) ) ;
#184 = ORIENTED_EDGE ( 'NONE', *, *, #490, .T. ) ;
#185 = ORIENTED_EDGE ( 'NONE', *, *, #186, .F. ) ;
#186 = EDGE_CURVE ( 'NONE', #187, #492, #547, .T. ) ;
#187 = VERTEX_POINT ( 'NONE', #543 ) ;
#188 = ORIENTED_EDGE ( 'NONE', *, *, #189, .F. ) ;
#189 = EDGE_CURVE ( 'NONE', #176, #187, #542, .T. ) ;
#190 = ORIENTED_EDGE ( 'NONE', *, *, #175, .T. ) ;
#191 = ADVANCED_FACE ( 'NONE', ( #538 ), #537, .F. ) ;
#192 = EDGE_LOOP ( 'NONE', ( #193, #194, #197, #199 ) ) ;
#193 = ORIENTED_EDGE ( 'NONE', *, *, #500, .T. ) ;
#194 = ORIENTED_EDGE ( 'NONE', *, *, #195, .F. ) ;
#195 = EDGE_CURVE ( 'NONE', #196, #496, #532, .T. ) ;
#196 = VERTEX_POINT ( 'NONE', #528 ) ;
#197 = ORIENTED_EDGE ( 'NONE', *, *, #198, .F. ) ;
#198 = EDGE_CURVE ( 'NONE', #187, #196, #527, .T. ) ;
#199 = ORIENTED_EDGE ( 'NONE', *, *, #186, .T. ) ;
#200 = ADVANCED_FACE ( 'NONE', ( #523 ), #522, .F. ) ;
#201 = EDGE_LOOP ( 'NONE', ( #202, #203, #204, #206 ) ) ;
#202 = ORIENTED_EDGE ( 'NONE', *, *, #498, .T. ) ;
#203 = ORIENTED_EDGE ( 'NONE', *, *, #181, .F. ) ;
#204 = ORIENTED_EDGE ( 'NONE', *, *, #205, .F. ) ;
#205 = EDGE_CURVE ( 'NONE', #196, #179, #442, .T. ) ;
#206 = ORIENTED_EDGE ( 'NONE', *, *, #195, .T. ) ;
#207 = ADVANCED_FACE ( 'NONE', ( #438 ), #437, .F. ) ;
#208 = EDGE_LOOP ( 'NONE', ( #209, #210, #211, #212 ) ) ;
#209 = ORIENTED_EDGE ( 'NONE', *, *, #178, .T. ) ;
#210 = ORIENTED_EDGE ( 'NONE', *, *, #189, .T. ) ;
#211 = ORIENTED_EDGE ( 'NONE', *, *, #198, .T. ) ;
#212 = ORIENTED_EDGE ( 'NONE', *, *, #205, .T. ) ;
#213 = ADVANCED_FACE ( 'NONE', ( #432 ), #431, .T. ) ;
#214 = EDGE_LOOP ( 'NONE', ( #215, #219, #222, #225 ) ) ;
#215 = ORIENTED_EDGE ( 'NONE', *, *, #216, .T. ) ;
#216 = EDGE_CURVE ( 'NONE', #217, #218, #426, .T. ) ;
#217 = VERTEX_POINT ( 'NONE', #422 ) ;
#218 = VERTEX_POINT ( 'NONE', #421 ) ;
#219 = ORIENTED_EDGE ( 'NONE', *, *, #220, .T. ) ;
#220 = EDGE_CURVE ( 'NONE', #218, #221, #420, .T. ) ;
#221 = VERTEX_POINT ( 'NONE', #416 ) ;
#222 = ORIENTED_EDGE ( 'NONE', *, *, #223, .T. ) ;
#223 = EDGE_CURVE ( 'NONE', #221, #224, #415, .T. ) ;
#224 = VERTEX_POINT ( 'NONE', #477 ) ;
#225 = ORIENTED_EDGE ( 'NONE', *, *, #226, .T. ) ;
#226 = EDGE_CURVE ( 'NONE', #224, #217, #476, .T. ) ;
#227 = ADVANCED_FACE ( 'NONE', ( #472 ), #471, .F. ) ;
#228 = EDGE_LOOP ( 'NONE', ( #229, #233, #235, #236 ) ) ;
#229 = ORIENTED_EDGE ( 'NONE', *, *, #230, .T. ) ;
#230 = EDGE_CURVE ( 'NONE', #231, #232, #466, .T. ) ;
#231 = VERTEX_POINT ( 'NONE', #462 ) ;
#232 = VERTEX_POINT ( 'NONE', #461 ) ;
#233 = ORIENTED_EDGE ( 'NONE', *, *, #234, .F. ) ;
#234 = EDGE_CURVE ( 'NONE', #221, #232, #460, .T. ) ;
#235 = ORIENTED_EDGE ( 'NONE', *, *, #220, .F. ) ;
#236 = ORIENTED_EDGE ( 'NONE', *, *, #237, .T. ) ;
#237 = EDGE_CURVE ( 'NONE', #218, #231, #456, .T. ) ;
#238 = ADVANCED_FACE ( 'NONE', ( #452 ), #451, .F. ) ;
#239 = EDGE_LOOP ( 'NONE', ( #260, #253, #254, #255, #241, #243 ) ) ;
#240 = ORIENTED_EDGE ( 'NONE', *, *, #300, .T. ) ;
#241 = ORIENTED_EDGE ( 'NONE', *, *, #242, .F. ) ;
#242 = EDGE_CURVE ( 'NONE', #482, #331, #413, .T. ) ;
#243 = ORIENTED_EDGE ( 'NONE', *, *, #481, .F. ) ;
#244 = ADVANCED_FACE ( 'NONE', ( #409 ), #408, .F. ) ;
#245 = EDGE_LOOP ( 'NONE', ( #246, #247, #248, #249 ) ) ;
#246 = ORIENTED_EDGE ( 'NONE', *, *, #330, .T. ) ;
#247 = ORIENTED_EDGE ( 'NONE', *, *, #267, .F. ) ;
#248 = ORIENTED_EDGE ( 'NONE', *, *, #484, .F. ) ;
#249 = ORIENTED_EDGE ( 'NONE', *, *, #242, .T. ) ;
#250 = ORIENTED_EDGE ( 'NONE', *, *, #251, .F. ) ;
#251 = EDGE_CURVE ( 'NONE', #287, #288, #403, .T. ) ;
#252 = ORIENTED_EDGE ( 'NONE', *, *, #314, .T. ) ;
#253 = ORIENTED_EDGE ( 'NONE', *, *, #274, .T. ) ;
#254 = ORIENTED_EDGE ( 'NONE', *, *, #272, .T. ) ;
#255 = ORIENTED_EDGE ( 'NONE', *, *, #326, .T. ) ;
#256 = EDGE_CURVE ( 'NONE', #340, #315, #399, .T. ) ;
#257 = ORIENTED_EDGE ( 'NONE', *, *, #301, .T. ) ;
#258 = ORIENTED_EDGE ( 'NONE', *, *, #327, .T. ) ;
#259 = ADVANCED_FACE ( 'NONE', ( #395 ), #394, .F. ) ;
#260 = ORIENTED_EDGE ( 'NONE', *, *, #261, .T. ) ;
#261 = EDGE_CURVE ( 'NONE', #20, #316, #389, .T. ) ;
#262 = ORIENTED_EDGE ( 'NONE', *, *, #283, .F. ) ;
#263 = ORIENTED_EDGE ( 'NONE', *, *, #264, .F. ) ;
#264 = EDGE_CURVE ( 'NONE', #23, #284, #384, .T. ) ;
#265 = ORIENTED_EDGE ( 'NONE', *, *, #487, .F. ) ;
#266 = ORIENTED_EDGE ( 'NONE', *, *, #267, .T. ) ;
#267 = EDGE_CURVE ( 'NONE', #485, #509, #806, .T. ) ;
#268 = ORIENTED_EDGE ( 'NONE', *, *, #508, .T. ) ;
#269 = ADVANCED_FACE ( 'NONE', ( #807 ), #808, .F. ) ;
#270 = EDGE_LOOP ( 'NONE', ( #271, #273, #339, #252, #250, #257, #240, #258 ) ) ;
#271 = ORIENTED_EDGE ( 'NONE', *, *, #272, .F. ) ;
#272 = EDGE_CURVE ( 'NONE', #321, #333, #748, .T. ) ;
#273 = ORIENTED_EDGE ( 'NONE', *, *, #320, .T. ) ;
#274 = EDGE_CURVE ( 'NONE', #316, #321, #744, .T. ) ;
#275 = ORIENTED_EDGE ( 'NONE', *, *, #276, .T. ) ;
#276 = EDGE_CURVE ( 'NONE', #316, #334, #740, .T. ) ;
#277 = ORIENTED_EDGE ( 'NONE', *, *, #40, .F. ) ;
#278 = ORIENTED_EDGE ( 'NONE', *, *, #279, .F. ) ;
#279 = EDGE_CURVE ( 'NONE', #31, #29, #736, .T. ) ;
#280 = ADVANCED_FACE ( 'NONE', ( #731, #730 ), #729, .F. ) ;
#281 = EDGE_LOOP ( 'NONE', ( #282, #286, #302, #305 ) ) ;
#282 = ORIENTED_EDGE ( 'NONE', *, *, #283, .T. ) ;
#283 = EDGE_CURVE ( 'NONE', #284, #285, #724, .T. ) ;
#284 = VERTEX_POINT ( 'NONE', #720 ) ;
#285 = VERTEX_POINT ( 'NONE', #719 ) ;
#286 = ORIENTED_EDGE ( 'NONE', *, *, #301, .F. ) ;
#287 = VERTEX_POINT ( 'NONE', #718 ) ;
#288 = VERTEX_POINT ( 'NONE', #717 ) ;
#289 = ORIENTED_EDGE ( 'NONE', *, *, #290, .T. ) ;
#290 = EDGE_CURVE ( 'NONE', #315, #291, #683, .T. ) ;
#291 = VERTEX_POINT ( 'NONE', #679 ) ;
#292 = ORIENTED_EDGE ( 'NONE', *, *, #293, .T. ) ;
#293 = EDGE_CURVE ( 'NONE', #291, #294, #678, .T. ) ;
#294 = VERTEX_POINT ( 'NONE', #674 ) ;
#295 = ORIENTED_EDGE ( 'NONE', *, *, #296, .F. ) ;
#296 = EDGE_CURVE ( 'NONE', #288, #294, #673, .T. ) ;
#297 = ADVANCED_FACE ( 'NONE', ( #669 ), #668, .F. ) ;
#298 = EDGE_LOOP ( 'NONE', ( #299, #262, #263, #265, #266, #268 ) ) ;
#299 = ORIENTED_EDGE ( 'NONE', *, *, #300, .F. ) ;
#300 = EDGE_CURVE ( 'NONE', #285, #510, #663, .T. ) ;
#301 = EDGE_CURVE ( 'NONE', #287, #285, #659, .T. ) ;
#302 = ORIENTED_EDGE ( 'NONE', *, *, #303, .F. ) ;
#303 = EDGE_CURVE ( 'NONE', #304, #287, #655, .T. ) ;
#304 = VERTEX_POINT ( 'NONE', #651 ) ;
#305 = ORIENTED_EDGE ( 'NONE', *, *, #306, .T. ) ;
#306 = EDGE_CURVE ( 'NONE', #304, #284, #716, .T. ) ;
#307 = EDGE_LOOP ( 'NONE', ( #308, #309 ) ) ;
#308 = ORIENTED_EDGE ( 'NONE', *, *, #518, .F. ) ;
#309 = ORIENTED_EDGE ( 'NONE', *, *, #310, .F. ) ;
#310 = EDGE_CURVE ( 'NONE', #520, #519, #712, .T. ) ;
#311 = ADVANCED_FACE ( 'NONE', ( #707 ), #706, .F. ) ;
#312 = EDGE_LOOP ( 'NONE', ( #313, #289, #292, #295 ) ) ;
#313 = ORIENTED_EDGE ( 'NONE', *, *, #314, .F. ) ;
#314 = EDGE_CURVE ( 'NONE', #315, #288, #701, .T. ) ;
#315 = VERTEX_POINT ( 'NONE', #697 ) ;
#316 = VERTEX_POINT ( 'NONE', #696 ) ;
#317 = EDGE_LOOP ( 'NONE', ( #277, #278 ) ) ;
#318 = ORIENTED_EDGE ( 'NONE', *, *, #274, .F. ) ;
#319 = ORIENTED_EDGE ( 'NONE', *, *, #320, .F. ) ;
#320 = EDGE_CURVE ( 'NONE', #321, #340, #695, .T. ) ;
#321 = VERTEX_POINT ( 'NONE', #691 ) ;
#322 = ADVANCED_FACE ( 'NONE', ( #690, #689 ), #688, .F. ) ;
#323 = ORIENTED_EDGE ( 'NONE', *, *, #324, .T. ) ;
#324 = EDGE_CURVE ( 'NONE', #334, #340, #784, .T. ) ;
#325 = EDGE_CURVE ( 'NONE', #34, #35, #780, .T. ) ;
#326 = EDGE_CURVE ( 'NONE', #333, #331, #775, .T. ) ;
#327 = EDGE_CURVE ( 'NONE', #510, #333, #771, .T. ) ;
#328 = ORIENTED_EDGE ( 'NONE', *, *, #326, .F. ) ;
#329 = ORIENTED_EDGE ( 'NONE', *, *, #327, .F. ) ;
#330 = EDGE_CURVE ( 'NONE', #331, #509, #767, .T. ) ;
#331 = VERTEX_POINT ( 'NONE', #763 ) ;
#332 = EDGE_LOOP ( 'NONE', ( #337, #336 ) ) ;
#333 = VERTEX_POINT ( 'NONE', #762 ) ;
#334 = VERTEX_POINT ( 'NONE', #761 ) ;
#335 = EDGE_LOOP ( 'NONE', ( #323, #319, #318, #275 ) ) ;
#336 = ORIENTED_EDGE ( 'NONE', *, *, #325, .T. ) ;
#337 = ORIENTED_EDGE ( 'NONE', *, *, #512, .T. ) ;
#338 = EDGE_LOOP ( 'NONE', ( #16, #12, #24, #22 ) ) ;
#339 = ORIENTED_EDGE ( 'NONE', *, *, #256, .T. ) ;
#340 = VERTEX_POINT ( 'NONE', #760 ) ;
#341 = ORIENTED_EDGE ( 'NONE', *, *, #330, .F. ) ;
#342 = ORIENTED_EDGE ( 'NONE', *, *, #343, .F. ) ;
#343 = EDGE_CURVE ( 'NONE', #217, #1, #759, .T. ) ;
#344 = ORIENTED_EDGE ( 'NONE', *, *, #226, .F. ) ;
#345 = ORIENTED_EDGE ( 'NONE', *, *, #15, .T. ) ;
#346 = ADVANCED_FACE ( 'NONE', ( #755 ), #754, .F. ) ;
#347 = EDGE_LOOP ( 'NONE', ( #348, #350, #351, #10 ) ) ;
#348 = ORIENTED_EDGE ( 'NONE', *, *, #349, .T. ) ;
#349 = EDGE_CURVE ( 'NONE', #1, #231, #803, .T. ) ;
#350 = ORIENTED_EDGE ( 'NONE', *, *, #237, .F. ) ;
#351 = ORIENTED_EDGE ( 'NONE', *, *, #216, .F. ) ;
#352 = ADVANCED_FACE ( 'NONE', ( #799 ), #798, .F. ) ;
#353 = EDGE_LOOP ( 'NONE', ( #354, #355, #356, #358, #359, #361, #362, #363 ) ) ;
#354 = ORIENTED_EDGE ( 'NONE', *, *, #264, .T. ) ;
#355 = ORIENTED_EDGE ( 'NONE', *, *, #306, .F. ) ;
#356 = ORIENTED_EDGE ( 'NONE', *, *, #357, .F. ) ;
#357 = EDGE_CURVE ( 'NONE', #294, #304, #793, .T. ) ;
#358 = ORIENTED_EDGE ( 'NONE', *, *, #293, .F. ) ;
#359 = ORIENTED_EDGE ( 'NONE', *, *, #360, .T. ) ;
#360 = EDGE_CURVE ( 'NONE', #291, #334, #789, .T. ) ;
#361 = ORIENTED_EDGE ( 'NONE', *, *, #276, .F. ) ;
#362 = ORIENTED_EDGE ( 'NONE', *, *, #261, .F. ) ;
#363 = ORIENTED_EDGE ( 'NONE', *, *, #28, .T. ) ;
#364 = ADVANCED_FACE ( 'NONE', ( #818 ), #816, .T. ) ;
#365 = EDGE_LOOP ( 'NONE', ( #366, #367, #368, #369 ) ) ;
#366 = ORIENTED_EDGE ( 'NONE', *, *, #296, .T. ) ;
#367 = ORIENTED_EDGE ( 'NONE', *, *, #357, .T. ) ;
#368 = ORIENTED_EDGE ( 'NONE', *, *, #303, .T. ) ;
#369 = ORIENTED_EDGE ( 'NONE', *, *, #251, .T. ) ;
#370 = ADVANCED_FACE ( 'NONE', ( #817 ), #843, .F. ) ;
#371 = EDGE_LOOP ( 'NONE', ( #372, #373, #374, #376 ) ) ;
#372 = ORIENTED_EDGE ( 'NONE', *, *, #290, .F. ) ;
#373 = ORIENTED_EDGE ( 'NONE', *, *, #256, .F. ) ;
#374 = ORIENTED_EDGE ( 'NONE', *, *, #324, .F. ) ;
#375 = EDGE_LOOP ( 'NONE', ( #378, #379, #380, #164 ) ) ;
#376 = ORIENTED_EDGE ( 'NONE', *, *, #360, .F. ) ;
#377 = ADVANCED_FACE ( 'NONE', ( #838 ), #836, .F. ) ;
#378 = ORIENTED_EDGE ( 'NONE', *, *, #617, .F. ) ;
#379 = ORIENTED_EDGE ( 'NONE', *, *, #310, .T. ) ;
#380 = ORIENTED_EDGE ( 'NONE', *, *, #36, .T. ) ;
#381 = DIRECTION ( 'NONE',  ( -1.000000000000000000, 0.0000000000000000000, 0.0000000000000000000 ) ) ;
#382 = VECTOR ( 'NONE', #381, 1000.000000000000000 ) ;
#383 = CARTESIAN_POINT ( 'NONE',  ( 7.500000000000000900, -49.29999999999999700, 0.0000000000000000000 ) ) ;
#384 = LINE ( 'NONE', #383, #382 ) ;
#385 = DIRECTION ( 'NONE',  ( 0.0000000000000000000, 0.0000000000000000000, -1.000000000000000000 ) ) ;
#386 = DIRECTION ( 'NONE',  ( -1.000000000000000000, 0.0000000000000000000, 0.0000000000000000000 ) ) ;
#387 = VECTOR ( 'NONE', #386, 1000.000000000000000 ) ;
#388 = CARTESIAN_POINT ( 'NONE',  ( 7.500000000000000900, -49.29999999999999700, -50.30000000000000400 ) ) ;
#389 = LINE ( 'NONE', #388, #387 ) ;
#390 = DIRECTION ( 'NONE',  ( 0.0000000000000000000, -1.000000000000000000, -1.170133879242365800E-016 ) ) ;
#391 = DIRECTION ( 'NONE',  ( 0.0000000000000000000, -1.170133879242365800E-016, 1.000000000000000000 ) ) ;
#392 = CARTESIAN_POINT ( 'NONE',  ( 7.500000000000000900, 0.0000000000000000000, -50.29999999999999700 ) ) ;
#393 = AXIS2_PLACEMENT_3D ( 'NONE', #392, #391, #390 ) ;
#394 = PLANE ( 'NONE',  #393 ) ;
#395 = FACE_OUTER_BOUND ( 'NONE', #239, .T. ) ;
#396 = DIRECTION ( 'NONE',  ( 1.000000000000000000, 0.0000000000000000000, 0.0000000000000000000 ) ) ;
#397 = VECTOR ( 'NONE', #396, 1000.000000000000000 ) ;
#398 = CARTESIAN_POINT ( 'NONE',  ( 5.799999999999999800, -59.29999999999999700, -39.64999999999999900 ) ) ;
#399 = LINE ( 'NONE', #398, #397 ) ;
#400 = DIRECTION ( 'NONE',  ( 1.000000000000000000, 0.0000000000000000000, 0.0000000000000000000 ) ) ;
#401 = VECTOR ( 'NONE', #400, 1000.000000000000000 ) ;
#402 = CARTESIAN_POINT ( 'NONE',  ( 5.799999999999999800, -59.29999999999999700, -10.65000000000000000 ) ) ;
#403 = LINE ( 'NONE', #402, #401 ) ;
#404 = DIRECTION ( 'NONE',  ( 0.0000000000000000000, 0.0000000000000000000, -1.000000000000000000 ) ) ;
#405 = DIRECTION ( 'NONE',  ( 0.0000000000000000000, -1.000000000000000000, 0.0000000000000000000 ) ) ;
#406 = CARTESIAN_POINT ( 'NONE',  ( 7.500000000000000900, 0.0000000000000000000, 0.0000000000000000000 ) ) ;
#407 = AXIS2_PLACEMENT_3D ( 'NONE', #406, #405, #404 ) ;
#408 = PLANE ( 'NONE',  #407 ) ;
#409 = FACE_OUTER_BOUND ( 'NONE', #245, .T. ) ;
#410 = DIRECTION ( 'NONE',  ( -1.000000000000000000, 0.0000000000000000000, 0.0000000000000000000 ) ) ;
#411 = VECTOR ( 'NONE', #410, 1000.000000000000000 ) ;
#412 = CARTESIAN_POINT ( 'NONE',  ( 7.500000000000000900, 0.0000000000000000000, -50.29999999999999700 ) ) ;
#413 = LINE ( 'NONE', #412, #411 ) ;
#414 = CARTESIAN_POINT ( 'NONE',  ( 7.400000000000000400, -2.000000000000000000, -48.30000000000000400 ) ) ;
#415 = LINE ( 'NONE', #414, #479 ) ;
#416 = CARTESIAN_POINT ( 'NONE',  ( 7.400000000000000400, -47.29999999999998300, -48.30000000000001100 ) ) ;
#417 = DIRECTION ( 'NONE',  ( 0.0000000000000000000, 0.0000000000000000000, -1.000000000000000000 ) ) ;
#418 = VECTOR ( 'NONE', #417, 1000.000000000000000 ) ;
#419 = CARTESIAN_POINT ( 'NONE',  ( 7.400000000000000400, -47.29999999999998300, -2.000000000000005800 ) ) ;
#420 = LINE ( 'NONE', #419, #418 ) ;
#421 = CARTESIAN_POINT ( 'NONE',  ( 7.400000000000000400, -47.29999999999998300, -2.000000000000005800 ) ) ;
#422 = CARTESIAN_POINT ( 'NONE',  ( 7.400000000000000400, -2.000000000000000000, -2.000000000000000000 ) ) ;
#423 = DIRECTION ( 'NONE',  ( 0.0000000000000000000, -1.000000000000000000, -1.244558785193074000E-016 ) ) ;
#424 = VECTOR ( 'NONE', #423, 1000.000000000000000 ) ;
#425 = CARTESIAN_POINT ( 'NONE',  ( 7.400000000000000400, -2.000000000000000000, -2.000000000000000000 ) ) ;
#426 = LINE ( 'NONE', #425, #424 ) ;
#427 = DIRECTION ( 'NONE',  ( 0.0000000000000000000, 0.0000000000000000000, -1.000000000000000000 ) ) ;
#428 = DIRECTION ( 'NONE',  ( 1.000000000000000000, 0.0000000000000000000, 0.0000000000000000000 ) ) ;
#429 = CARTESIAN_POINT ( 'NONE',  ( 7.400000000000000400, -47.29999999999998300, -2.000000000000005800 ) ) ;
#430 = AXIS2_PLACEMENT_3D ( 'NONE', #429, #428, #427 ) ;
#431 = PLANE ( 'NONE',  #430 ) ;
#432 = FACE_OUTER_BOUND ( 'NONE', #214, .T. ) ;
#433 = DIRECTION ( 'NONE',  ( 0.0000000000000000000, 0.0000000000000000000, 1.000000000000000000 ) ) ;
#434 = DIRECTION ( 'NONE',  ( -1.000000000000000000, 0.0000000000000000000, 0.0000000000000000000 ) ) ;
#435 = CARTESIAN_POINT ( 'NONE',  ( 8.300000000000000700, -1.000000000000000000, -1.000000000000014700 ) ) ;
#436 = AXIS2_PLACEMENT_3D ( 'NONE', #435, #434, #433 ) ;
#437 = PLANE ( 'NONE',  #436 ) ;
#438 = FACE_OUTER_BOUND ( 'NONE', #208, .T. ) ;
#439 = DIRECTION ( 'NONE',  ( 0.0000000000000000000, 0.0000000000000000000, 1.000000000000000000 ) ) ;
#440 = VECTOR ( 'NONE', #439, 1000.000000000000000 ) ;
#441 = CARTESIAN_POINT ( 'NONE',  ( 8.300000000000000700, -1.000000000000000000, -49.29999999999999700 ) ) ;
#442 = LINE ( 'NONE', #441, #440 ) ;
#443 = DIRECTION ( 'NONE',  ( 0.0000000000000000000, 0.0000000000000000000, -1.000000000000000000 ) ) ;
#444 = DIRECTION ( 'NONE',  ( 0.0000000000000000000, -1.000000000000000000, 0.0000000000000000000 ) ) ;
#445 = CARTESIAN_POINT ( 'NONE',  ( 8.300000000000000700, -1.000000000000000000, -49.29999999999999700 ) ) ;
#446 = AXIS2_PLACEMENT_3D ( 'NONE', #445, #444, #443 ) ;
#447 = DIRECTION ( 'NONE',  ( 0.0000000000000000000, 1.000000000000000000, 1.531764658699168100E-016 ) ) ;
#448 = DIRECTION ( 'NONE',  ( 0.0000000000000000000, 1.531764658699168100E-016, -1.000000000000000000 ) ) ;
#449 = CARTESIAN_POINT ( 'NONE',  ( 7.400000000000000400, -2.000000000000000000, -48.30000000000000400 ) ) ;
#450 = AXIS2_PLACEMENT_3D ( 'NONE', #449, #448, #447 ) ;
#451 = PLANE ( 'NONE',  #450 ) ;
#452 = FACE_OUTER_BOUND ( 'NONE', #338, .T. ) ;
#453 = DIRECTION ( 'NONE',  ( 1.000000000000000000, 0.0000000000000000000, 0.0000000000000000000 ) ) ;
#454 = VECTOR ( 'NONE', #453, 1000.000000000000000 ) ;
#455 = CARTESIAN_POINT ( 'NONE',  ( 7.400000000000000400, -47.29999999999998300, -2.000000000000005800 ) ) ;
#456 = LINE ( 'NONE', #455, #454 ) ;
#457 = DIRECTION ( 'NONE',  ( 1.000000000000000000, 0.0000000000000000000, 0.0000000000000000000 ) ) ;
#458 = VECTOR ( 'NONE', #457, 1000.000000000000000 ) ;
#459 = CARTESIAN_POINT ( 'NONE',  ( 7.400000000000000400, -47.29999999999998300, -48.30000000000001100 ) ) ;
#460 = LINE ( 'NONE', #459, #458 ) ;
#461 = CARTESIAN_POINT ( 'NONE',  ( 7.500000000000000900, -47.29999999999998300, -48.30000000000001100 ) ) ;
#462 = CARTESIAN_POINT ( 'NONE',  ( 7.500000000000000900, -47.29999999999998300, -2.000000000000005800 ) ) ;
#463 = DIRECTION ( 'NONE',  ( 0.0000000000000000000, 0.0000000000000000000, -1.000000000000000000 ) ) ;
#464 = VECTOR ( 'NONE', #463, 1000.000000000000000 ) ;
#465 = CARTESIAN_POINT ( 'NONE',  ( 7.500000000000000900, -47.29999999999998300, -2.000000000000005800 ) ) ;
#466 = LINE ( 'NONE', #465, #464 ) ;
#467 = DIRECTION ( 'NONE',  ( 0.0000000000000000000, 0.0000000000000000000, -1.000000000000000000 ) ) ;
#468 = DIRECTION ( 'NONE',  ( 0.0000000000000000000, -1.000000000000000000, 0.0000000000000000000 ) ) ;
#469 = CARTESIAN_POINT ( 'NONE',  ( 7.400000000000000400, -47.29999999999998300, -2.000000000000005800 ) ) ;
#470 = AXIS2_PLACEMENT_3D ( 'NONE', #469, #468, #467 ) ;
#471 = PLANE ( 'NONE',  #470 ) ;
#472 = FACE_OUTER_BOUND ( 'NONE', #228, .T. ) ;
#473 = DIRECTION ( 'NONE',  ( 0.0000000000000000000, 0.0000000000000000000, 1.000000000000000000 ) ) ;
#474 = VECTOR ( 'NONE', #473, 1000.000000000000000 ) ;
#475 = CARTESIAN_POINT ( 'NONE',  ( 7.400000000000000400, -2.000000000000000000, -2.000000000000000000 ) ) ;
#476 = LINE ( 'NONE', #475, #474 ) ;
#477 = CARTESIAN_POINT ( 'NONE',  ( 7.400000000000000400, -2.000000000000000000, -48.30000000000000400 ) ) ;
#478 = DIRECTION ( 'NONE',  ( 0.0000000000000000000, 1.000000000000000000, 1.531764658699168100E-016 ) ) ;
#479 = VECTOR ( 'NONE', #478, 1000.000000000000000 ) ;
#480 = ORIENTED_EDGE ( 'NONE', *, *, #481, .T. ) ;
#481 = EDGE_CURVE ( 'NONE', #20, #482, #832, .T. ) ;
#482 = VERTEX_POINT ( 'NONE', #828 ) ;
#483 = ORIENTED_EDGE ( 'NONE', *, *, #484, .T. ) ;
#484 = EDGE_CURVE ( 'NONE', #482, #485, #827, .T. ) ;
#485 = VERTEX_POINT ( 'NONE', #823 ) ;
#486 = ORIENTED_EDGE ( 'NONE', *, *, #487, .T. ) ;
#487 = EDGE_CURVE ( 'NONE', #485, #23, #822, .T. ) ;
#488 = EDGE_LOOP ( 'NONE', ( #489, #493, #497, #499 ) ) ;
#489 = ORIENTED_EDGE ( 'NONE', *, *, #490, .F. ) ;
#490 = EDGE_CURVE ( 'NONE', #491, #492, #875, .T. ) ;
#491 = VERTEX_POINT ( 'NONE', #871 ) ;
#492 = VERTEX_POINT ( 'NONE', #870 ) ;
#493 = ORIENTED_EDGE ( 'NONE', *, *, #494, .F. ) ;
#494 = EDGE_CURVE ( 'NONE', #495, #491, #869, .T. ) ;
#495 = VERTEX_POINT ( 'NONE', #865 ) ;
#496 = VERTEX_POINT ( 'NONE', #864 ) ;
#497 = ORIENTED_EDGE ( 'NONE', *, *, #498, .F. ) ;
#498 = EDGE_CURVE ( 'NONE', #496, #495, #863, .T. ) ;
#499 = ORIENTED_EDGE ( 'NONE', *, *, #500, .F. ) ;
#500 = EDGE_CURVE ( 'NONE', #492, #496, #859, .T. ) ;
#501 = ADVANCED_FACE ( 'NONE', ( #855, #854, #853 ), #852, .F. ) ;
#502 = EDGE_LOOP ( 'NONE', ( #503, #504 ) ) ;
#503 = ORIENTED_EDGE ( 'NONE', *, *, #42, .T. ) ;
#504 = ORIENTED_EDGE ( 'NONE', *, *, #505, .T. ) ;
#505 = EDGE_CURVE ( 'NONE', #618, #37, #847, .T. ) ;
#506 = EDGE_LOOP ( 'NONE', ( #507, #341, #328, #329 ) ) ;
#507 = ORIENTED_EDGE ( 'NONE', *, *, #508, .F. ) ;
#508 = EDGE_CURVE ( 'NONE', #509, #510, #74, .T. ) ;
#509 = VERTEX_POINT ( 'NONE', #70 ) ;
#510 = VERTEX_POINT ( 'NONE', #69 ) ;
#511 = ORIENTED_EDGE ( 'NONE', *, *, #512, .F. ) ;
#512 = EDGE_CURVE ( 'NONE', #35, #34, #68, .T. ) ;
#513 = ORIENTED_EDGE ( 'NONE', *, *, #514, .F. ) ;
#514 = EDGE_CURVE ( 'NONE', #29, #35, #63, .T. ) ;
#515 = ADVANCED_FACE ( 'NONE', ( #59 ), #57, .F. ) ;
#516 = EDGE_LOOP ( 'NONE', ( #517, #521, #163, #38 ) ) ;
#517 = ORIENTED_EDGE ( 'NONE', *, *, #518, .T. ) ;
#518 = EDGE_CURVE ( 'NONE', #519, #520, #52, .T. ) ;
#519 = VERTEX_POINT ( 'NONE', #48 ) ;
#520 = VERTEX_POINT ( 'NONE', #47 ) ;
#521 = ORIENTED_EDGE ( 'NONE', *, *, #617, .T. ) ;
#522 = PLANE ( 'NONE',  #446 ) ;
#523 = FACE_OUTER_BOUND ( 'NONE', #201, .T. ) ;
#524 = DIRECTION ( 'NONE',  ( 0.0000000000000000000, 1.000000000000000000, 1.466996597020556300E-016 ) ) ;
#525 = VECTOR ( 'NONE', #524, 1000.000000000000000 ) ;
#526 = CARTESIAN_POINT ( 'NONE',  ( 8.300000000000000700, -48.29999999999998300, -49.30000000000000400 ) ) ;
#527 = LINE ( 'NONE', #526, #525 ) ;
#528 = CARTESIAN_POINT ( 'NONE',  ( 8.300000000000000700, -1.000000000000000000, -49.29999999999999700 ) ) ;
#529 = DIRECTION ( 'NONE',  ( -1.000000000000000000, 0.0000000000000000000, 0.0000000000000000000 ) ) ;
#530 = VECTOR ( 'NONE', #529, 1000.000000000000000 ) ;
#531 = CARTESIAN_POINT ( 'NONE',  ( 8.300000000000000700, -1.000000000000000000, -49.29999999999999700 ) ) ;
#532 = LINE ( 'NONE', #531, #530 ) ;
#533 = DIRECTION ( 'NONE',  ( 0.0000000000000000000, -1.000000000000000000, -1.466996597020556300E-016 ) ) ;
#534 = DIRECTION ( 'NONE',  ( 0.0000000000000000000, -1.466996597020556300E-016, 1.000000000000000000 ) ) ;
#535 = CARTESIAN_POINT ( 'NONE',  ( 8.300000000000000700, -48.29999999999998300, -49.30000000000000400 ) ) ;
#536 = AXIS2_PLACEMENT_3D ( 'NONE', #535, #534, #533 ) ;
#537 = PLANE ( 'NONE',  #536 ) ;
#538 = FACE_OUTER_BOUND ( 'NONE', #192, .T. ) ;
#539 = DIRECTION ( 'NONE',  ( 0.0000000000000000000, 2.873247993336326500E-016, -1.000000000000000000 ) ) ;
#540 = VECTOR ( 'NONE', #539, 1000.000000000000000 ) ;
#541 = CARTESIAN_POINT ( 'NONE',  ( 8.300000000000000700, -48.29999999999999700, -1.000000000000000000 ) ) ;
#542 = LINE ( 'NONE', #541, #540 ) ;
#543 = CARTESIAN_POINT ( 'NONE',  ( 8.300000000000000700, -48.29999999999998300, -49.30000000000000400 ) ) ;
#544 = DIRECTION ( 'NONE',  ( -1.000000000000000000, 0.0000000000000000000, 0.0000000000000000000 ) ) ;
#545 = VECTOR ( 'NONE', #544, 1000.000000000000000 ) ;
#546 = CARTESIAN_POINT ( 'NONE',  ( 8.300000000000000700, -48.29999999999998300, -49.30000000000000400 ) ) ;
#547 = LINE ( 'NONE', #546, #545 ) ;
#548 = DIRECTION ( 'NONE',  ( 0.0000000000000000000, -2.873247993336326500E-016, 1.000000000000000000 ) ) ;
#549 = DIRECTION ( 'NONE',  ( 0.0000000000000000000, 1.000000000000000000, 2.873247993336326500E-016 ) ) ;
#550 = CARTESIAN_POINT ( 'NONE',  ( 8.300000000000000700, -48.29999999999999700, -1.000000000000000000 ) ) ;
#551 = AXIS2_PLACEMENT_3D ( 'NONE', #550, #549, #548 ) ;
#552 = PLANE ( 'NONE',  #551 ) ;
#553 = FACE_OUTER_BOUND ( 'NONE', #183, .T. ) ;
#554 = DIRECTION ( 'NONE',  ( -1.000000000000000000, 0.0000000000000000000, 0.0000000000000000000 ) ) ;
#555 = VECTOR ( 'NONE', #554, 1000.000000000000000 ) ;
#556 = CARTESIAN_POINT ( 'NONE',  ( 8.300000000000000700, -1.000000000000000000, -1.000000000000000000 ) ) ;
#557 = LINE ( 'NONE', #556, #555 ) ;
#558 = CARTESIAN_POINT ( 'NONE',  ( 7.500000000000000900, -49.29999999999999700, 0.0000000000000000000 ) ) ;
#559 = ORIENTED_CLOSED_SHELL ( 'NONE', *, #2, .F. );
#560 = CARTESIAN_POINT ( 'NONE',  ( 7.500000000000000900, -49.29999999999998300, -50.30000000000000400 ) ) ;
#561 = DIRECTION ( 'NONE',  ( 0.0000000000000000000, 0.0000000000000000000, 1.000000000000000000 ) ) ;
#562 = DIRECTION ( 'NONE',  ( 0.0000000000000000000, 1.000000000000000000, 0.0000000000000000000 ) ) ;
#563 = CARTESIAN_POINT ( 'NONE',  ( 7.400000000000000400, -2.000000000000000000, -2.000000000000000000 ) ) ;
#564 = AXIS2_PLACEMENT_3D ( 'NONE', #563, #562, #561 ) ;
#565 = PLANE ( 'NONE',  #564 ) ;
#566 = FACE_OUTER_BOUND ( 'NONE', #18, .T. ) ;
#567 = DIRECTION ( 'NONE',  ( 1.000000000000000000, 0.0000000000000000000, 0.0000000000000000000 ) ) ;
#568 = VECTOR ( 'NONE', #567, 1000.000000000000000 ) ;
#569 = CARTESIAN_POINT ( 'NONE',  ( 7.400000000000000400, -2.000000000000000000, -48.30000000000000400 ) ) ;
#570 = LINE ( 'NONE', #569, #568 ) ;
#571 = DIRECTION ( 'NONE',  ( 0.0000000000000000000, 1.000000000000000000, 1.531764658699168100E-016 ) ) ;
#572 = VECTOR ( 'NONE', #571, 1000.000000000000000 ) ;
#573 = CARTESIAN_POINT ( 'NONE',  ( 7.500000000000000900, -2.000000000000000000, -48.30000000000000400 ) ) ;
#574 = LINE ( 'NONE', #573, #572 ) ;
#575 = CARTESIAN_POINT ( 'NONE',  ( 7.500000000000000900, -2.000000000000000000, -48.30000000000000400 ) ) ;
#576 = DIRECTION ( 'NONE',  ( 0.0000000000000000000, 0.0000000000000000000, 1.000000000000000000 ) ) ;
#577 = DIRECTION ( 'NONE',  ( -1.000000000000000000, 0.0000000000000000000, 0.0000000000000000000 ) ) ;
#578 = CARTESIAN_POINT ( 'NONE',  ( 7.500000000000000900, -1.000000000000000000, -1.000000000000014700 ) ) ;
#579 = AXIS2_PLACEMENT_3D ( 'NONE', #578, #577, #576 ) ;
#580 = PLANE ( 'NONE',  #579 ) ;
#581 = FACE_OUTER_BOUND ( 'NONE', #7, .T. ) ;
#582 = DIRECTION ( 'NONE',  ( 0.0000000000000000000, 0.0000000000000000000, 1.000000000000000000 ) ) ;
#583 = VECTOR ( 'NONE', #582, 1000.000000000000000 ) ;
#584 = CARTESIAN_POINT ( 'NONE',  ( 7.500000000000000900, -2.000000000000000000, -2.000000000000000000 ) ) ;
#585 = LINE ( 'NONE', #584, #583 ) ;
#586 = CARTESIAN_POINT ( 'NONE',  ( 7.500000000000000900, -2.000000000000000000, -2.000000000000000000 ) ) ;
#587 = CARTESIAN_POINT ( 'NONE',  ( 8.300000000000000700, -1.000000000000000000, -1.000000000000000000 ) ) ;
#588 = DIRECTION ( 'NONE',  ( 0.0000000000000000000, -1.000000000000000000, 0.0000000000000000000 ) ) ;
#589 = VECTOR ( 'NONE', #588, 1000.000000000000000 ) ;
#590 = CARTESIAN_POINT ( 'NONE',  ( 8.300000000000000700, -1.000000000000000000, -1.000000000000000000 ) ) ;
#591 = LINE ( 'NONE', #590, #589 ) ;
#592 = CARTESIAN_POINT ( 'NONE',  ( 8.300000000000000700, -48.29999999999999700, -1.000000000000000000 ) ) ;
#593 = DIRECTION ( 'NONE',  ( -1.000000000000000000, 0.0000000000000000000, 0.0000000000000000000 ) ) ;
#594 = VECTOR ( 'NONE', #593, 1000.000000000000000 ) ;
#595 = CARTESIAN_POINT ( 'NONE',  ( 8.300000000000000700, -48.29999999999999700, -1.000000000000000000 ) ) ;
#596 = LINE ( 'NONE', #595, #594 ) ;
#597 = DIRECTION ( 'NONE',  ( -1.000000000000000000, 0.0000000000000000000, 0.0000000000000000000 ) ) ;
#598 = DIRECTION ( 'NONE',  ( 0.0000000000000000000, 0.0000000000000000000, -1.000000000000000000 ) ) ;
#599 = CARTESIAN_POINT ( 'NONE',  ( 8.300000000000000700, -1.000000000000000000, -1.000000000000000000 ) ) ;
#600 = AXIS2_PLACEMENT_3D ( 'NONE', #599, #598, #597 ) ;
#601 = PLANE ( 'NONE',  #600 ) ;
#602 = DIRECTION ( 'NONE',  ( 0.0000000000000000000, 0.0000000000000000000, 1.000000000000000000 ) ) ;
#603 = DIRECTION ( 'NONE',  ( -1.000000000000000000, 0.0000000000000000000, 0.0000000000000000000 ) ) ;
#604 = CARTESIAN_POINT ( 'NONE',  ( 10.65000000000000000, -54.29999999999999700, -45.15000000000000600 ) ) ;
#605 = AXIS2_PLACEMENT_3D ( 'NONE', #604, #603, #602 ) ;
#606 = FACE_OUTER_BOUND ( 'NONE', #172, .T. ) ;
#607 = CYLINDRICAL_SURFACE ( 'NONE', #605, 2.300000000000003400 ) ;
#608 = FACE_OUTER_BOUND ( 'NONE', #166, .T. ) ;
#609 = DIRECTION ( 'NONE',  ( 0.0000000000000000000, 0.0000000000000000000, -1.000000000000000000 ) ) ;
#610 = DIRECTION ( 'NONE',  ( 1.000000000000000000, 0.0000000000000000000, 0.0000000000000000000 ) ) ;
#611 = AXIS2_PLACEMENT_3D ( 'NONE', #616, #610, #609 ) ;
#612 = CIRCLE ( 'NONE', #611, 2.299999999999999800 ) ;
#613 = DIRECTION ( 'NONE',  ( 0.0000000000000000000, 0.0000000000000000000, 1.000000000000000000 ) ) ;
#614 = AXIS2_PLACEMENT_3D ( 'NONE', #619, #620, #613 ) ;
#615 = CYLINDRICAL_SURFACE ( 'NONE', #614, 2.300000000000003400 ) ;
#616 = CARTESIAN_POINT ( 'NONE',  ( 0.0000000000000000000, -54.29999999999999700, -5.150000000000000400 ) ) ;
#617 = EDGE_CURVE ( 'NONE', #520, #618, #46, .T. ) ;
#618 = VERTEX_POINT ( 'NONE', #86 ) ;
#619 = CARTESIAN_POINT ( 'NONE',  ( 10.65000000000000000, -54.29999999999999700, -45.15000000000000600 ) ) ;
#620 = DIRECTION ( 'NONE',  ( -1.000000000000000000, 0.0000000000000000000, 0.0000000000000000000 ) ) ;
#621 = DIRECTION ( 'NONE',  ( 0.0000000000000000000, 0.0000000000000000000, 1.000000000000000000 ) ) ;
#622 = DIRECTION ( 'NONE',  ( 1.000000000000000000, 0.0000000000000000000, 0.0000000000000000000 ) ) ;
#623 = CARTESIAN_POINT ( 'NONE',  ( 3.299999999999999800, -54.29999999999999700, -45.15000000000000600 ) ) ;
#624 = AXIS2_PLACEMENT_3D ( 'NONE', #623, #622, #621 ) ;
#625 = CIRCLE ( 'NONE', #624, 2.300000000000003400 ) ;
#626 = FACE_OUTER_BOUND ( 'NONE', #27, .T. ) ;
#627 = CARTESIAN_POINT ( 'NONE',  ( 0.0000000000000000000, -54.29999999999999700, -2.849999999999999600 ) ) ;
#628 = DIRECTION ( 'NONE',  ( -1.000000000000000000, 0.0000000000000000000, 0.0000000000000000000 ) ) ;
#629 = VECTOR ( 'NONE', #628, 1000.000000000000000 ) ;
#630 = CARTESIAN_POINT ( 'NONE',  ( 10.65000000000000000, -54.29999999999999700, -2.849999999999999600 ) ) ;
#631 = LINE ( 'NONE', #630, #629 ) ;
#632 = CARTESIAN_POINT ( 'NONE',  ( 0.0000000000000000000, -54.29999999999999700, -42.85000000000000100 ) ) ;
#633 = CARTESIAN_POINT ( 'NONE',  ( 0.0000000000000000000, -54.29999999999999700, -47.45000000000000300 ) ) ;
#634 = DIRECTION ( 'NONE',  ( 0.0000000000000000000, 0.0000000000000000000, -1.000000000000000000 ) ) ;
#635 = DIRECTION ( 'NONE',  ( 1.000000000000000000, 0.0000000000000000000, 0.0000000000000000000 ) ) ;
#636 = CARTESIAN_POINT ( 'NONE',  ( 7.500000000000000900, -59.29999999999999700, -7.261915678166700900E-015 ) ) ;
#637 = AXIS2_PLACEMENT_3D ( 'NONE', #636, #635, #634 ) ;
#638 = PLANE ( 'NONE',  #637 ) ;
#639 = FACE_BOUND ( 'NONE', #488, .T. ) ;
#640 = FACE_OUTER_BOUND ( 'NONE', #25, .T. ) ;
#641 = CARTESIAN_POINT ( 'NONE',  ( 3.299999999999999800, -54.29999999999999700, -47.45000000000000300 ) ) ;
#642 = DIRECTION ( 'NONE',  ( -1.000000000000000000, 0.0000000000000000000, 0.0000000000000000000 ) ) ;
#643 = VECTOR ( 'NONE', #642, 1000.000000000000000 ) ;
#644 = CARTESIAN_POINT ( 'NONE',  ( 10.65000000000000000, -54.29999999999999700, -47.45000000000000300 ) ) ;
#645 = LINE ( 'NONE', #644, #643 ) ;
#646 = CARTESIAN_POINT ( 'NONE',  ( 3.299999999999999800, -54.29999999999999700, -42.85000000000000100 ) ) ;
#647 = DIRECTION ( 'NONE',  ( 0.0000000000000000000, 0.0000000000000000000, 1.000000000000000000 ) ) ;
#648 = VECTOR ( 'NONE', #647, 1000.000000000000000 ) ;
#649 = CARTESIAN_POINT ( 'NONE',  ( 7.500000000000000900, -49.29999999999999700, -50.30000000000000400 ) ) ;
#650 = LINE ( 'NONE', #649, #648 ) ;
#651 = CARTESIAN_POINT ( 'NONE',  ( 3.299999999999999800, -49.29999999999999700, -10.65000000000000000 ) ) ;
#652 = DIRECTION ( 'NONE',  ( 0.0000000000000000000, -1.000000000000000000, 0.0000000000000000000 ) ) ;
#653 = VECTOR ( 'NONE', #652, 1000.000000000000000 ) ;
#654 = CARTESIAN_POINT ( 'NONE',  ( 3.299999999999999800, -59.29999999999999700, -10.65000000000000000 ) ) ;
#655 = LINE ( 'NONE', #654, #653 ) ;
#656 = DIRECTION ( 'NONE',  ( 0.0000000000000000000, 0.0000000000000000000, 1.000000000000000000 ) ) ;
#657 = VECTOR ( 'NONE', #656, 1000.000000000000000 ) ;
#658 = CARTESIAN_POINT ( 'NONE',  ( 3.299999999999999800, -59.29999999999999700, -10.65000000000000000 ) ) ;
#659 = LINE ( 'NONE', #658, #657 ) ;
#660 = DIRECTION ( 'NONE',  ( -1.000000000000000000, 0.0000000000000000000, 0.0000000000000000000 ) ) ;
#661 = VECTOR ( 'NONE', #660, 1000.000000000000000 ) ;
#662 = CARTESIAN_POINT ( 'NONE',  ( 7.500000000000000900, -59.29999999999999700, -7.261915678166697800E-015 ) ) ;
#663 = LINE ( 'NONE', #662, #661 ) ;
#664 = DIRECTION ( 'NONE',  ( 0.0000000000000000000, 1.000000000000000000, 1.224606353822377800E-016 ) ) ;
#665 = DIRECTION ( 'NONE',  ( 0.0000000000000000000, 1.224606353822377800E-016, -1.000000000000000000 ) ) ;
#666 = CARTESIAN_POINT ( 'NONE',  ( 7.500000000000000900, 0.0000000000000000000, 0.0000000000000000000 ) ) ;
#667 = AXIS2_PLACEMENT_3D ( 'NONE', #666, #665, #664 ) ;
#668 = PLANE ( 'NONE',  #667 ) ;
#669 = FACE_OUTER_BOUND ( 'NONE', #298, .T. ) ;
#670 = DIRECTION ( 'NONE',  ( 0.0000000000000000000, 1.000000000000000000, 0.0000000000000000000 ) ) ;
#671 = VECTOR ( 'NONE', #670, 1000.000000000000000 ) ;
#672 = CARTESIAN_POINT ( 'NONE',  ( 5.799999999999999800, -59.29999999999999700, -10.65000000000000000 ) ) ;
#673 = LINE ( 'NONE', #672, #671 ) ;
#674 = CARTESIAN_POINT ( 'NONE',  ( 5.799999999999999800, -49.29999999999999700, -10.65000000000000000 ) ) ;
#675 = DIRECTION ( 'NONE',  ( 0.0000000000000000000, 0.0000000000000000000, 1.000000000000000000 ) ) ;
#676 = VECTOR ( 'NONE', #675, 1000.000000000000000 ) ;
#677 = CARTESIAN_POINT ( 'NONE',  ( 5.799999999999999800, -49.29999999999999700, -50.30000000000000400 ) ) ;
#678 = LINE ( 'NONE', #677, #676 ) ;
#679 = CARTESIAN_POINT ( 'NONE',  ( 5.799999999999999800, -49.29999999999999700, -39.64999999999999900 ) ) ;
#680 = DIRECTION ( 'NONE',  ( 0.0000000000000000000, 1.000000000000000000, 0.0000000000000000000 ) ) ;
#681 = VECTOR ( 'NONE', #680, 1000.000000000000000 ) ;
#682 = CARTESIAN_POINT ( 'NONE',  ( 5.799999999999999800, -59.29999999999999700, -39.64999999999999900 ) ) ;
#683 = LINE ( 'NONE', #682, #681 ) ;
#684 = DIRECTION ( 'NONE',  ( 0.0000000000000000000, 0.0000000000000000000, 1.000000000000000000 ) ) ;
#685 = DIRECTION ( 'NONE',  ( -1.000000000000000000, 0.0000000000000000000, 0.0000000000000000000 ) ) ;
#686 = CARTESIAN_POINT ( 'NONE',  ( 3.299999999999999800, -59.29999999999999700, -50.29999999999999700 ) ) ;
#687 = AXIS2_PLACEMENT_3D ( 'NONE', #686, #685, #684 ) ;
#688 = PLANE ( 'NONE',  #687 ) ;
#689 = FACE_BOUND ( 'NONE', #317, .T. ) ;
#690 = FACE_OUTER_BOUND ( 'NONE', #335, .T. ) ;
#691 = CARTESIAN_POINT ( 'NONE',  ( 3.299999999999999800, -59.29999999999999700, -50.29999999999999700 ) ) ;
#692 = DIRECTION ( 'NONE',  ( 0.0000000000000000000, 0.0000000000000000000, 1.000000000000000000 ) ) ;
#693 = VECTOR ( 'NONE', #692, 1000.000000000000000 ) ;
#694 = CARTESIAN_POINT ( 'NONE',  ( 3.299999999999999800, -59.29999999999999700, -50.29999999999999700 ) ) ;
#695 = LINE ( 'NONE', #694, #693 ) ;
#696 = CARTESIAN_POINT ( 'NONE',  ( 3.299999999999999800, -49.29999999999999700, -50.29999999999999700 ) ) ;
#697 = CARTESIAN_POINT ( 'NONE',  ( 5.799999999999999800, -59.29999999999999700, -39.64999999999999900 ) ) ;
#698 = DIRECTION ( 'NONE',  ( 0.0000000000000000000, 0.0000000000000000000, 1.000000000000000000 ) ) ;
#699 = VECTOR ( 'NONE', #698, 1000.000000000000000 ) ;
#700 = CARTESIAN_POINT ( 'NONE',  ( 5.799999999999999800, -59.29999999999999700, -50.30000000000000400 ) ) ;
#701 = LINE ( 'NONE', #700, #699 ) ;
#702 = DIRECTION ( 'NONE',  ( 0.0000000000000000000, 0.0000000000000000000, 1.000000000000000000 ) ) ;
#703 = DIRECTION ( 'NONE',  ( -1.000000000000000000, 0.0000000000000000000, 0.0000000000000000000 ) ) ;
#704 = CARTESIAN_POINT ( 'NONE',  ( 5.799999999999999800, -59.29999999999999700, -50.30000000000000400 ) ) ;
#705 = AXIS2_PLACEMENT_3D ( 'NONE', #704, #703, #702 ) ;
#706 = PLANE ( 'NONE',  #705 ) ;
#707 = FACE_OUTER_BOUND ( 'NONE', #312, .T. ) ;
#708 = DIRECTION ( 'NONE',  ( 0.0000000000000000000, 0.0000000000000000000, 1.000000000000000000 ) ) ;
#709 = DIRECTION ( 'NONE',  ( 1.000000000000000000, 0.0000000000000000000, 0.0000000000000000000 ) ) ;
#710 = CARTESIAN_POINT ( 'NONE',  ( 3.299999999999999800, -54.29999999999999700, -5.150000000000000400 ) ) ;
#711 = AXIS2_PLACEMENT_3D ( 'NONE', #710, #709, #708 ) ;
#712 = CIRCLE ( 'NONE', #711, 2.300000000000000300 ) ;
#713 = DIRECTION ( 'NONE',  ( 0.0000000000000000000, 0.0000000000000000000, 1.000000000000000000 ) ) ;
#714 = VECTOR ( 'NONE', #713, 1000.000000000000000 ) ;
#715 = CARTESIAN_POINT ( 'NONE',  ( 3.299999999999999800, -49.29999999999999700, -10.65000000000000000 ) ) ;
#716 = LINE ( 'NONE', #715, #714 ) ;
#717 = CARTESIAN_POINT ( 'NONE',  ( 5.799999999999999800, -59.29999999999999700, -10.65000000000000000 ) ) ;
#718 = CARTESIAN_POINT ( 'NONE',  ( 3.299999999999999800, -59.29999999999999700, -10.65000000000000000 ) ) ;
#719 = CARTESIAN_POINT ( 'NONE',  ( 3.299999999999999800, -59.29999999999999700, 0.0000000000000000000 ) ) ;
#720 = CARTESIAN_POINT ( 'NONE',  ( 3.299999999999999800, -49.29999999999999700, 0.0000000000000000000 ) ) ;
#721 = DIRECTION ( 'NONE',  ( 0.0000000000000000000, -1.000000000000000000, 0.0000000000000000000 ) ) ;
#722 = VECTOR ( 'NONE', #721, 1000.000000000000000 ) ;
#723 = CARTESIAN_POINT ( 'NONE',  ( 3.299999999999999800, -59.29999999999999700, 0.0000000000000000000 ) ) ;
#724 = LINE ( 'NONE', #723, #722 ) ;
#725 = DIRECTION ( 'NONE',  ( 0.0000000000000000000, 0.0000000000000000000, 1.000000000000000000 ) ) ;
#726 = DIRECTION ( 'NONE',  ( -1.000000000000000000, 0.0000000000000000000, 0.0000000000000000000 ) ) ;
#727 = CARTESIAN_POINT ( 'NONE',  ( 3.299999999999999800, -59.29999999999999700, -10.65000000000000000 ) ) ;
#728 = AXIS2_PLACEMENT_3D ( 'NONE', #727, #726, #725 ) ;
#729 = PLANE ( 'NONE',  #728 ) ;
#730 = FACE_BOUND ( 'NONE', #307, .T. ) ;
#731 = FACE_OUTER_BOUND ( 'NONE', #281, .T. ) ;
#732 = DIRECTION ( 'NONE',  ( 0.0000000000000000000, 0.0000000000000000000, 1.000000000000000000 ) ) ;
#733 = DIRECTION ( 'NONE',  ( 1.000000000000000000, 0.0000000000000000000, 0.0000000000000000000 ) ) ;
#734 = CARTESIAN_POINT ( 'NONE',  ( 3.299999999999999800, -54.29999999999999700, -45.15000000000000600 ) ) ;
#735 = AXIS2_PLACEMENT_3D ( 'NONE', #734, #733, #732 ) ;
#736 = CIRCLE ( 'NONE', #735, 2.300000000000003400 ) ;
#737 = DIRECTION ( 'NONE',  ( 0.0000000000000000000, 0.0000000000000000000, 1.000000000000000000 ) ) ;
#738 = VECTOR ( 'NONE', #737, 1000.000000000000000 ) ;
#739 = CARTESIAN_POINT ( 'NONE',  ( 3.299999999999999800, -49.29999999999999700, -50.29999999999999700 ) ) ;
#740 = LINE ( 'NONE', #739, #738 ) ;
#741 = DIRECTION ( 'NONE',  ( 0.0000000000000000000, -1.000000000000000000, 0.0000000000000000000 ) ) ;
#742 = VECTOR ( 'NONE', #741, 1000.000000000000000 ) ;
#743 = CARTESIAN_POINT ( 'NONE',  ( 3.299999999999999800, -59.29999999999999700, -50.29999999999999700 ) ) ;
#744 = LINE ( 'NONE', #743, #742 ) ;
#745 = DIRECTION ( 'NONE',  ( -1.000000000000000000, 0.0000000000000000000, 0.0000000000000000000 ) ) ;
#746 = VECTOR ( 'NONE', #745, 1000.000000000000000 ) ;
#747 = CARTESIAN_POINT ( 'NONE',  ( 7.500000000000000900, -59.29999999999999700, -50.30000000000000400 ) ) ;
#748 = LINE ( 'NONE', #747, #746 ) ;
#749 = DIRECTION ( 'NONE',  ( 0.0000000000000000000, 0.0000000000000000000, 1.000000000000000000 ) ) ;
#750 = DIRECTION ( 'NONE',  ( 0.0000000000000000000, 1.000000000000000000, 0.0000000000000000000 ) ) ;
#751 = AXIS2_PLACEMENT_3D ( 'NONE', #809, #750, #749 ) ;
#752 = CARTESIAN_POINT ( 'NONE',  ( 7.400000000000000400, -2.000000000000000000, -2.000000000000000000 ) ) ;
#753 = AXIS2_PLACEMENT_3D ( 'NONE', #752, #805, #804 ) ;
#754 = PLANE ( 'NONE',  #753 ) ;
#755 = FACE_OUTER_BOUND ( 'NONE', #347, .T. ) ;
#756 = DIRECTION ( 'NONE',  ( 1.000000000000000000, 0.0000000000000000000, 0.0000000000000000000 ) ) ;
#757 = VECTOR ( 'NONE', #756, 1000.000000000000000 ) ;
#758 = CARTESIAN_POINT ( 'NONE',  ( 7.400000000000000400, -2.000000000000000000, -2.000000000000000000 ) ) ;
#759 = LINE ( 'NONE', #758, #757 ) ;
#760 = CARTESIAN_POINT ( 'NONE',  ( 3.299999999999999800, -59.29999999999999700, -39.64999999999999900 ) ) ;
#761 = CARTESIAN_POINT ( 'NONE',  ( 3.299999999999999800, -49.29999999999999700, -39.64999999999999900 ) ) ;
#762 = CARTESIAN_POINT ( 'NONE',  ( 0.0000000000000000000, -59.29999999999999700, -50.30000000000000400 ) ) ;
#763 = CARTESIAN_POINT ( 'NONE',  ( 0.0000000000000000000, 0.0000000000000000000, -50.29999999999999700 ) ) ;
#764 = DIRECTION ( 'NONE',  ( 0.0000000000000000000, 0.0000000000000000000, 1.000000000000000000 ) ) ;
#765 = VECTOR ( 'NONE', #764, 1000.000000000000000 ) ;
#766 = CARTESIAN_POINT ( 'NONE',  ( 0.0000000000000000000, 0.0000000000000000000, 0.0000000000000000000 ) ) ;
#767 = LINE ( 'NONE', #766, #765 ) ;
#768 = DIRECTION ( 'NONE',  ( 0.0000000000000000000, 0.0000000000000000000, -1.000000000000000000 ) ) ;
#769 = VECTOR ( 'NONE', #768, 1000.000000000000000 ) ;
#770 = CARTESIAN_POINT ( 'NONE',  ( 0.0000000000000000000, -59.29999999999999700, -7.261915678166697800E-015 ) ) ;
#771 = LINE ( 'NONE', #770, #769 ) ;
#772 = DIRECTION ( 'NONE',  ( 0.0000000000000000000, 1.000000000000000000, 1.170133879242365800E-016 ) ) ;
#773 = VECTOR ( 'NONE', #772, 1000.000000000000000 ) ;
#774 = CARTESIAN_POINT ( 'NONE',  ( 0.0000000000000000000, 0.0000000000000000000, -50.29999999999999700 ) ) ;
#775 = LINE ( 'NONE', #774, #773 ) ;
#776 = DIRECTION ( 'NONE',  ( 0.0000000000000000000, 0.0000000000000000000, -1.000000000000000000 ) ) ;
#777 = DIRECTION ( 'NONE',  ( 1.000000000000000000, 0.0000000000000000000, 0.0000000000000000000 ) ) ;
#778 = CARTESIAN_POINT ( 'NONE',  ( 0.0000000000000000000, -54.29999999999999700, -45.15000000000000600 ) ) ;
#779 = AXIS2_PLACEMENT_3D ( 'NONE', #778, #777, #776 ) ;
#780 = CIRCLE ( 'NONE', #779, 2.300000000000003400 ) ;
#781 = DIRECTION ( 'NONE',  ( 0.0000000000000000000, -1.000000000000000000, 0.0000000000000000000 ) ) ;
#782 = VECTOR ( 'NONE', #781, 1000.000000000000000 ) ;
#783 = CARTESIAN_POINT ( 'NONE',  ( 3.299999999999999800, -59.29999999999999700, -39.64999999999999900 ) ) ;
#784 = LINE ( 'NONE', #783, #782 ) ;
#785 = CARTESIAN_POINT ( 'NONE',  ( 7.500000000000000900, 0.0000000000000000000, 0.0000000000000000000 ) ) ;
#786 = DIRECTION ( 'NONE',  ( -1.000000000000000000, 0.0000000000000000000, 0.0000000000000000000 ) ) ;
#787 = VECTOR ( 'NONE', #786, 1000.000000000000000 ) ;
#788 = CARTESIAN_POINT ( 'NONE',  ( 5.799999999999999800, -49.29999999999999700, -39.64999999999999900 ) ) ;
#789 = LINE ( 'NONE', #788, #787 ) ;
#790 = DIRECTION ( 'NONE',  ( -1.000000000000000000, 0.0000000000000000000, 0.0000000000000000000 ) ) ;
#791 = VECTOR ( 'NONE', #790, 1000.000000000000000 ) ;
#792 = CARTESIAN_POINT ( 'NONE',  ( 5.799999999999999800, -49.29999999999999700, -10.65000000000000000 ) ) ;
#793 = LINE ( 'NONE', #792, #791 ) ;
#794 = DIRECTION ( 'NONE',  ( 0.0000000000000000000, 0.0000000000000000000, 1.000000000000000000 ) ) ;
#795 = DIRECTION ( 'NONE',  ( 0.0000000000000000000, 1.000000000000000000, 0.0000000000000000000 ) ) ;
#796 = CARTESIAN_POINT ( 'NONE',  ( 7.500000000000000900, -49.29999999999999700, -50.30000000000000400 ) ) ;
#797 = AXIS2_PLACEMENT_3D ( 'NONE', #796, #795, #794 ) ;
#798 = PLANE ( 'NONE',  #797 ) ;
#799 = FACE_OUTER_BOUND ( 'NONE', #353, .T. ) ;
#800 = DIRECTION ( 'NONE',  ( 0.0000000000000000000, -1.000000000000000000, -1.244558785193074000E-016 ) ) ;
#801 = VECTOR ( 'NONE', #800, 1000.000000000000000 ) ;
#802 = CARTESIAN_POINT ( 'NONE',  ( 7.500000000000000900, -2.000000000000000000, -2.000000000000000000 ) ) ;
#803 = LINE ( 'NONE', #802, #801 ) ;
#804 = DIRECTION ( 'NONE',  ( 0.0000000000000000000, -1.000000000000000000, -1.244558785193074000E-016 ) ) ;
#805 = DIRECTION ( 'NONE',  ( 0.0000000000000000000, -1.244558785193074000E-016, 1.000000000000000000 ) ) ;
#806 = LINE ( 'NONE', #785, #811 ) ;
#807 = FACE_OUTER_BOUND ( 'NONE', #270, .T. ) ;
#808 = PLANE ( 'NONE',  #751 ) ;
#809 = CARTESIAN_POINT ( 'NONE',  ( 7.500000000000000900, -59.29999999999999700, -7.261915678166697800E-015 ) ) ;
#810 = DIRECTION ( 'NONE',  ( -1.000000000000000000, 0.0000000000000000000, 0.0000000000000000000 ) ) ;
#811 = VECTOR ( 'NONE', #810, 1000.000000000000000 ) ;
#812 = DIRECTION ( 'NONE',  ( 1.000000000000000000, 0.0000000000000000000, 0.0000000000000000000 ) ) ;
#813 = DIRECTION ( 'NONE',  ( 0.0000000000000000000, 0.0000000000000000000, 1.000000000000000000 ) ) ;
#814 = CARTESIAN_POINT ( 'NONE',  ( 5.799999999999999800, -49.29999999999999700, -10.65000000000000000 ) ) ;
#815 = AXIS2_PLACEMENT_3D ( 'NONE', #814, #813, #812 ) ;
#816 = PLANE ( 'NONE',  #815 ) ;
#817 = FACE_OUTER_BOUND ( 'NONE', #371, .T. ) ;
#818 = FACE_OUTER_BOUND ( 'NONE', #365, .T. ) ;
#819 = DIRECTION ( 'NONE',  ( 0.0000000000000000000, -1.000000000000000000, -1.224606353822377800E-016 ) ) ;
#820 = VECTOR ( 'NONE', #819, 1000.000000000000000 ) ;
#821 = CARTESIAN_POINT ( 'NONE',  ( 7.500000000000000900, 0.0000000000000000000, 0.0000000000000000000 ) ) ;
#822 = LINE ( 'NONE', #821, #820 ) ;
#823 = CARTESIAN_POINT ( 'NONE',  ( 7.500000000000000900, 0.0000000000000000000, 0.0000000000000000000 ) ) ;
#824 = DIRECTION ( 'NONE',  ( 0.0000000000000000000, 0.0000000000000000000, 1.000000000000000000 ) ) ;
#825 = VECTOR ( 'NONE', #824, 1000.000000000000000 ) ;
#826 = CARTESIAN_POINT ( 'NONE',  ( 7.500000000000000900, 0.0000000000000000000, 0.0000000000000000000 ) ) ;
#827 = LINE ( 'NONE', #826, #825 ) ;
#828 = CARTESIAN_POINT ( 'NONE',  ( 7.500000000000000900, 0.0000000000000000000, -50.29999999999999700 ) ) ;
#829 = DIRECTION ( 'NONE',  ( 0.0000000000000000000, 1.000000000000000000, 1.170133879242365800E-016 ) ) ;
#830 = VECTOR ( 'NONE', #829, 1000.000000000000000 ) ;
#831 = CARTESIAN_POINT ( 'NONE',  ( 7.500000000000000900, 0.0000000000000000000, -50.29999999999999700 ) ) ;
#832 = LINE ( 'NONE', #831, #830 ) ;
#833 = DIRECTION ( 'NONE',  ( 0.0000000000000000000, 0.0000000000000000000, 1.000000000000000000 ) ) ;
#834 = DIRECTION ( 'NONE',  ( -1.000000000000000000, 0.0000000000000000000, 0.0000000000000000000 ) ) ;
#835 = CARTESIAN_POINT ( 'NONE',  ( 10.65000000000000000, -54.29999999999999700, -5.150000000000000400 ) ) ;
#836 = CYLINDRICAL_SURFACE ( 'NONE', #837, 2.300000000000000300 ) ;
#837 = AXIS2_PLACEMENT_3D ( 'NONE', #835, #834, #833 ) ;
#838 = FACE_OUTER_BOUND ( 'NONE', #375, .T. ) ;
#839 = DIRECTION ( 'NONE',  ( 1.000000000000000000, 0.0000000000000000000, 0.0000000000000000000 ) ) ;
#840 = DIRECTION ( 'NONE',  ( 0.0000000000000000000, 0.0000000000000000000, 1.000000000000000000 ) ) ;
#841 = CARTESIAN_POINT ( 'NONE',  ( 5.799999999999999800, -49.29999999999999700, -39.64999999999999900 ) ) ;
#842 = AXIS2_PLACEMENT_3D ( 'NONE', #841, #840, #839 ) ;
#843 = PLANE ( 'NONE',  #842 ) ;
#844 = DIRECTION ( 'NONE',  ( 1.000000000000000000, 0.0000000000000000000, 0.0000000000000000000 ) ) ;
#845 = CARTESIAN_POINT ( 'NONE',  ( 0.0000000000000000000, -54.29999999999999700, -5.150000000000000400 ) ) ;
#846 = AXIS2_PLACEMENT_3D ( 'NONE', #845, #844, #385 ) ;
#847 = CIRCLE ( 'NONE', #846, 2.299999999999999800 ) ;
#848 = DIRECTION ( 'NONE',  ( 0.0000000000000000000, 0.0000000000000000000, -1.000000000000000000 ) ) ;
#849 = DIRECTION ( 'NONE',  ( 1.000000000000000000, 0.0000000000000000000, 0.0000000000000000000 ) ) ;
#850 = CARTESIAN_POINT ( 'NONE',  ( 0.0000000000000000000, -59.29999999999999700, -7.261915678166700900E-015 ) ) ;
#851 = AXIS2_PLACEMENT_3D ( 'NONE', #850, #849, #848 ) ;
#852 = PLANE ( 'NONE',  #851 ) ;
#853 = FACE_BOUND ( 'NONE', #332, .T. ) ;
#854 = FACE_OUTER_BOUND ( 'NONE', #506, .T. ) ;
#855 = FACE_BOUND ( 'NONE', #502, .T. ) ;
#856 = DIRECTION ( 'NONE',  ( 0.0000000000000000000, 1.000000000000000000, 1.466996597020556300E-016 ) ) ;
#857 = VECTOR ( 'NONE', #856, 1000.000000000000000 ) ;
#858 = CARTESIAN_POINT ( 'NONE',  ( 7.500000000000000900, -48.29999999999998300, -49.30000000000000400 ) ) ;
#859 = LINE ( 'NONE', #858, #857 ) ;
#860 = DIRECTION ( 'NONE',  ( 0.0000000000000000000, 0.0000000000000000000, 1.000000000000000000 ) ) ;
#861 = VECTOR ( 'NONE', #860, 1000.000000000000000 ) ;
#862 = CARTESIAN_POINT ( 'NONE',  ( 7.500000000000000900, -1.000000000000000000, -49.29999999999999700 ) ) ;
#863 = LINE ( 'NONE', #862, #861 ) ;
#864 = CARTESIAN_POINT ( 'NONE',  ( 7.500000000000000900, -1.000000000000000900, -49.29999999999999700 ) ) ;
#865 = CARTESIAN_POINT ( 'NONE',  ( 7.500000000000000900, -1.000000000000000000, -1.000000000000000000 ) ) ;
#866 = DIRECTION ( 'NONE',  ( 0.0000000000000000000, -1.000000000000000000, 0.0000000000000000000 ) ) ;
#867 = VECTOR ( 'NONE', #866, 1000.000000000000000 ) ;
#868 = CARTESIAN_POINT ( 'NONE',  ( 7.500000000000000900, -1.000000000000000000, -1.000000000000000000 ) ) ;
#869 = LINE ( 'NONE', #868, #867 ) ;
#870 = CARTESIAN_POINT ( 'NONE',  ( 7.500000000000000900, -48.29999999999998300, -49.30000000000000400 ) ) ;
#871 = CARTESIAN_POINT ( 'NONE',  ( 7.500000000000000900, -48.29999999999999700, -1.000000000000000000 ) ) ;
#872 = DIRECTION ( 'NONE',  ( 0.0000000000000000000, 2.873247993336326500E-016, -1.000000000000000000 ) ) ;
#873 = VECTOR ( 'NONE', #872, 1000.000000000000000 ) ;
#874 = CARTESIAN_POINT ( 'NONE',  ( 7.500000000000000900, -48.29999999999999700, -1.000000000000000000 ) ) ;
#875 = LINE ( 'NONE', #874, #873 ) ;
ENDSEC;
END-ISO-10303-21;
