  0
SECTION
  2
HEADER
  9
$ACADVER
  1
AC1009
  9
$INSBASE
 10
0.0
 20
0.0
 30
0.0
  9
$EXTMIN
 10
695.23042226165535
 20
442.19589655213969
 30
-0.0015258207003583
  9
$EXTMAX
 10
873.24128651948035
 20
690.51105158145413
 30
0.0000000349246037
  9
$LIMMIN
 10
695.23585397612919
 20
442.20347348867858
  9
$LIMMAX
 10
873.23585397612931
 20
690.50347348867831
  9
$ORTHOMODE
 70
     0
  9
$REGENMODE
 70
     1
  9
$FILLMODE
 70
     1
  9
$QTEXTMODE
 70
     0
  9
$MIRRTEXT
 70
     0
  9
$DRAGMODE
 70
     2
  9
$LTSCALE
 40
1.0
  9
$OSMODE
 70
    39
  9
$ATTMODE
 70
     1
  9
$TEXTSIZE
 40
3.5
  9
$TRACEWID
 40
0.5
  9
$TEXTSTYLE
  7
STANDARD
  9
$CLAYER
  8
0
  9
$CELTYPE
  6
BYLAYER
  9
$CECOLOR
 62
   256
  9
$DIMSCALE
 40
1.0
  9
$DIMASZ
 40
0.18
  9
$DIMEXO
 40
0.0625
  9
$DIMDLI
 40
0.38
  9
$DIMRND
 40
0.0
  9
$DIMDLE
 40
0.0
  9
$DIMEXE
 40
0.18
  9
$DIMTP
 40
0.0
  9
$DIMTM
 40
0.0
  9
$DIMTXT
 40
0.18
  9
$DIMCEN
 40
0.09
  9
$DIMTSZ
 40
0.0
  9
$DIMTOL
 70
     0
  9
$DIMLIM
 70
     0
  9
$DIMTIH
 70
     1
  9
$DIMTOH
 70
     1
  9
$DIMSE1
 70
     0
  9
$DIMSE2
 70
     0
  9
$DIMTAD
 70
     0
  9
$DIMZIN
 70
     0
  9
$DIMBLK
  1

  9
$DIMASO
 70
     1
  9
$DIMSHO
 70
     1
  9
$DIMPOST
  1

  9
$DIMAPOST
  1

  9
$DIMALT
 70
     0
  9
$DIMALTD
 70
     2
  9
$DIMALTF
 40
25.399999999999999
  9
$DIMLFAC
 40
1.0
  9
$DIMTOFL
 70
     0
  9
$DIMTVP
 40
0.0
  9
$DIMTIX
 70
     0
  9
$DIMSOXD
 70
     0
  9
$DIMSAH
 70
     0
  9
$DIMBLK1
  1

  9
$DIMBLK2
  1

  9
$DIMSTYLE
  2
STANDARD
  9
$DIMCLRD
 70
     0
  9
$DIMCLRE
 70
     0
  9
$DIMCLRT
 70
     0
  9
$DIMTFAC
 40
1.0
  9
$DIMGAP
 40
0.09
  9
$LUNITS
 70
     2
  9
$LUPREC
 70
     4
  9
$SKETCHINC
 40
0.1
  9
$FILLETRAD
 40
2.0
  9
$AUNITS
 70
     0
  9
$AUPREC
 70
     0
  9
$MENU
  1
ACAD
  9
$ELEVATION
 40
0.0
  9
$PELEVATION
 40
0.0
  9
$THICKNESS
 40
0.0
  9
$LIMCHECK
 70
     0
  9
$BLIPMODE
 70
     0
  9
$CHAMFERA
 40
0.0
  9
$CHAMFERB
 40
0.0
  9
$SKPOLY
 70
     0
  9
$TDCREATE
 40
2457165.5667600692
  9
$TDUPDATE
 40
2457165.574965578
  9
$TDINDWG
 40
0.008206956
  9
$TDUSRTIMER
 40
0.008206956
  9
$USRTIMER
 70
     1
  9
$ANGBASE
 50
0.0
  9
$ANGDIR
 70
     0
  9
$PDMODE
 70
     0
  9
$PDSIZE
 40
0.0
  9
$PLINEWID
 40
0.0
  9
$COORDS
 70
     2
  9
$SPLFRAME
 70
     0
  9
$SPLINETYPE
 70
     6
  9
$SPLINESEGS
 70
     8
  9
$ATTDIA
 70
     1
  9
$ATTREQ
 70
     1
  9
$HANDLING
 70
     1
  9
$HANDSEED
  5
265
  9
$SURFTAB1
 70
     6
  9
$SURFTAB2
 70
     6
  9
$SURFTYPE
 70
     6
  9
$SURFU
 70
     6
  9
$SURFV
 70
     6
  9
$UCSNAME
  2

  9
$UCSORG
 10
0.0
 20
0.0
 30
0.0
  9
$UCSXDIR
 10
1.0
 20
0.0
 30
0.0
  9
$UCSYDIR
 10
0.0
 20
1.0
 30
0.0
  9
$PUCSNAME
  2

  9
$PUCSORG
 10
0.0
 20
0.0
 30
0.0
  9
$PUCSXDIR
 10
1.0
 20
0.0
 30
0.0
  9
$PUCSYDIR
 10
0.0
 20
1.0
 30
0.0
  9
$USERI1
 70
     0
  9
$USERI2
 70
     0
  9
$USERI3
 70
     0
  9
$USERI4
 70
     0
  9
$USERI5
 70
     0
  9
$USERR1
 40
0.0
  9
$USERR2
 40
0.0
  9
$USERR3
 40
0.0
  9
$USERR4
 40
0.0
  9
$USERR5
 40
0.0
  9
$WORLDVIEW
 70
     1
  9
$SHADEDGE
 70
     3
  9
$SHADEDIF
 70
    70
  9
$TILEMODE
 70
     1
  9
$MAXACTVP
 70
    64
  9
$PLIMCHECK
 70
     0
  9
$PEXTMIN
 10
1.0000000000000000E+020
 20
1.0000000000000000E+020
 30
1.0000000000000000E+020
  9
$PEXTMAX
 10
-1.0000000000000000E+020
 20
-1.0000000000000000E+020
 30
-1.0000000000000000E+020
  9
$PLIMMIN
 10
0.0
 20
0.0
  9
$PLIMMAX
 10
12.0
 20
9.0
  9
$UNITMODE
 70
     0
  9
$VISRETAIN
 70
     1
  9
$PLINEGEN
 70
     0
  9
$PSLTSCALE
 70
     1
  0
ENDSEC
  0
SECTION
  2
TABLES
  0
TABLE
  2
VPORT
 70
     1
  0
VPORT
  2
*ACTIVE
 70
     0
 10
0.0
 20
0.0
 11
1.0
 21
1.0
 12
821.30769330437386
 22
627.25495225765735
 13
0.0
 23
0.0
 14
1.0
 24
1.0
 15
0.0
 25
0.0
 16
0.0
 26
0.0
 36
1.0
 17
0.0
 27
0.0
 37
0.0
 40
280.50375406094469
 41
1.0384226491405451
 42
50.0
 43
0.0
 44
0.0
 50
0.0
 51
0.0
 71
     0
 72
   100
 73
     1
 74
     1
 75
     0
 76
     0
 77
     0
 78
     0
  0
ENDTAB
  0
TABLE
  2
LTYPE
 70
    24
  0
LTYPE
  2
CONTINUOUS
 70
     0
  3
Solid line
 72
    65
 73
     0
 40
0.0
  0
LTYPE
  2
PHANTOM2
 70
     0
  3
Phantom (.5x) ___ _ _ ___ _ _ ___ _ _ ___ _ _
 72
    65
 73
     6
 40
1.25
 49
0.625
 49
-0.125
 49
0.125
 49
-0.125
 49
0.125
 49
-0.125
  0
LTYPE
  2
BORDER
 70
     0
  3
__ __ . __ __ .
 72
    65
 73
     6
 40
11.43486842105262
 49
3.2671052631578918
 49
-1.6335526315789459
 49
3.2671052631578918
 49
-1.6335526315789459
 49
0.0
 49
-1.6335526315789459
  0
LTYPE
  2
CENTER
 70
     0
  3
____ _ ____ _
 72
    65
 73
     4
 40
13.068421052631569
 49
8.1677631578947327
 49
-1.6335526315789459
 49
1.6335526315789459
 49
-1.6335526315789459
  0
LTYPE
  2
DASHDOT
 70
     0
  3
__ . __ . __ .
 72
    65
 73
     4
 40
6.5342105263157846
 49
3.2671052631578918
 49
-1.6335526315789459
 49
0.0
 49
-1.6335526315789459
  0
LTYPE
  2
DASHED
 70
     0
  3
__ __ __ __ __
 72
    65
 73
     2
 40
4.9006578947368391
 49
3.2671052631578918
 49
-1.6335526315789459
  0
LTYPE
  2
DIVIDE
 70
     0
  3
__ . . __ . . 
 72
    65
 73
     6
 40
8.1677631578947327
 49
3.2671052631578918
 49
-1.6335526315789459
 49
0.0
 49
-1.6335526315789459
 49
0.0
 49
-1.6335526315789459
  0
LTYPE
  2
DOT
 70
     0
  3
..............
 72
    65
 73
     4
 40
3.2671052631578918
 49
0.0
 49
-1.6335526315789459
 49
0.0
 49
-1.6335526315789459
  0
LTYPE
  2
HIDDEN
 70
     0
  3
_ _ _ _ _ _ _
 72
    65
 73
     2
 40
2.4503289473684191
 49
1.6335526315789459
 49
-0.8167763157894732
  0
LTYPE
  2
PHANTOM
 70
     0
  3
_____ _ _ _____ _ _ 
 72
    65
 73
     6
 40
16.335526315789469
 49
8.1677631578947327
 49
-1.6335526315789459
 49
1.6335526315789459
 49
-1.6335526315789459
 49
1.6335526315789459
 49
-1.6335526315789459
  0
LTYPE
  2
AM_ISO02W050
 70
     0
  3
__ __ __ __ __ __ __ __ __ __ __ __ __ __ __
 72
    65
 73
     2
 40
7.5
 49
6.0
 49
-1.5
  0
LTYPE
  2
AM_ISO08W050
 70
     0
  3
____ . ____ . ____ . ____ . ____ . ____ . ____
 72
    65
 73
     4
 40
18.0
 49
12.0
 49
-1.5
 49
3.0
 49
-1.5
  0
LTYPE
  2
AM_ISO09W050
 70
     0
  3
_____ . . _____ . . _____ . . ____ .. ____
 72
    65
 73
     6
 40
22.5
 49
12.0
 49
-1.5
 49
3.0
 49
-1.5
 49
3.0
 49
-1.5
  0
LTYPE
  2
AMCONSTR
 70
     0
  3
_______________________
 72
    65
 73
     2
 40
9999.0
 49
9999.0
 49
0.0
  0
LTYPE
  2
AM_ISO08W050X2
 70
     0
  3
__ . __ . __ . __ . __ . __
 72
    65
 73
     4
 40
9.0
 49
6.0
 49
-0.75
 49
1.5
 49
-0.75
  0
LTYPE
  2
AM_ISO02W050X2
 70
     0
  3
 _ _ _ _ _ _ _ _ _ _ _ _
 72
    65
 73
     2
 40
3.75
 49
3.0
 49
-0.75
  0
LTYPE
  2
AMZIGZAG
 70
     0
  3
/\/-/\/-/\/-/\/-/\/-/\/
 72
    65
 73
     2
 40
11.0001
 49
0.0001
 49
-11.0
  0
LTYPE
  2
CENTER2
 70
     0
  3
Center (.5x) ___ _ ___ _ ___ _ ___ _ ___ _ ___
 72
    65
 73
     4
 40
1.125
 49
0.75
 49
-0.125
 49
0.125
 49
-0.125
  0
LTYPE
  2
HIDDEN2
 70
     0
  3
Hidden (.5x) _ _ _ _ _ _ _ _ _ _ _ _ _ _ _ _ _
 72
    65
 73
     2
 40
0.1875
 49
0.125
 49
-0.0625
  0
LTYPE
  2
AMZIGZAG2
 70
     0
  3
/\/-/\/-/\/-/\/-/\/-/\/
 72
    65
 73
     2
 40
0.4401
 49
0.0001
 49
-0.4400000000000001
  0
LTYPE
  2
ACANSTGB
 70
     0
  3
__ . . __ . .
 72
    65
 73
     6
 40
0.35433070866
 49
0.15748031496
 49
-0.03937007874
 49
0.03937007874
 49
-0.03937007874
 49
0.03937007874
 49
-0.03937007874
  0
LTYPE
  2
ACANSTGL
 70
     0
  3
_ _ _ _ _
 72
    65
 73
     2
 40
0.11811023622
 49
0.07874015748
 49
-0.03937007874
  0
ENDTAB
  0
TABLE
  2
LAYER
 70
     2
  0
LAYER
  2
0
 70
     0
 62
     7
  6
CONTINUOUS
  0
LAYER
  2
1
 70
     0
 62
     7
  6
CONTINUOUS
  0
ENDTAB
  0
TABLE
  2
STYLE
 70
     8
  0
STYLE
  2
STANDARD
 70
     0
 40
0.0
 41
1.0
 50
0.0
 71
     0
 42
3.5
  3
txt
  4

  0
STYLE
  2
ANNOTATIVE
 70
     0
 40
0.0
 41
1.0
 50
0.0
 71
     0
 42
0.2
  3
txt
  4

  0
STYLE
  2
SIMPLEX
 70
     0
 40
0.0
 41
1.0
 50
0.0
 71
     0
 42
3.5
  3
simplex
  4

  0
STYLE
  2
COMPLEX
 70
     0
 40
0.0
 41
1.0
 50
0.0
 71
     0
 42
3.5
  3
complex
  4

  0
STYLE
  2
ITALIC
 70
     0
 40
0.0
 41
1.0
 50
0.0
 71
     0
 42
3.5
  3
italic
  4

  0
STYLE
  2

 70
     1
 40
0.0
 41
1.0
 50
0.0
 71
     0
 42
3.5
  3
genltshp.shx
  4

  0
STYLE
  2
ACANSTS
 70
     0
 40
1.0
 41
1.0
 50
0.0
 71
     0
 42
3.5
  3
romans.shx
  4
extfont.shx
  0
STYLE
  2
ACANSGDT
 70
     0
 40
0.0
 41
1.0
 50
0.0
 71
     0
 42
3.5
  3
amgdt.shx
  4

  0
ENDTAB
  0
TABLE
  2
VIEW
 70
     0
  0
ENDTAB
  0
TABLE
  2
UCS
 70
     0
  0
ENDTAB
  0
TABLE
  2
APPID
 70
    12
  0
APPID
  2
ACAD
 70
     0
  0
APPID
  2
ACADANNOTATIVE
 70
     0
  0
APPID
  2
MCAD_NO_VIS
 70
     0
  0
APPID
  2
ACAD_TEMP_GRAPHIC
 70
     0
  0
APPID
  2
ACATTRIBSERVICES
 70
     0
  0
APPID
  2
DESIGNERASSEMBLIES
 70
     0
  0
APPID
  2
ACAD_DSTYLE_DIMJAG
 70
     0
  0
APPID
  2
ACAD_DSTYLE_DIMBREAK
 70
     0
  0
APPID
  2
ACAD_NAV_VCDISPLAY
 70
     0
  0
APPID
  2
ACAD_EXEMPT_FROM_CAD_STANDARDS
 70
     0
  0
APPID
  2
ACDBDYNAMICBLOCKTRUENAME2
 70
     0
  0
APPID
  2
ACAD_MLEADERVER
 70
     0
  0
ENDTAB
  0
TABLE
  2
DIMSTYLE
 70
     9
  0
DIMSTYLE
  2
STANDARD
 70
     0
  3

  4

  5

  6

  7

 40
1.0
 41
0.18
 42
0.0625
 43
0.38
 44
0.18
 45
0.0
 46
0.0
 47
0.0
 48
0.0
140
0.18
141
0.09
142
0.0
143
25.399999999999999
144
1.0
145
0.0
146
1.0
147
0.09
 71
     0
 72
     0
 73
     1
 74
     1
 75
     0
 76
     0
 77
     0
 78
     0
170
     0
171
     2
172
     0
173
     0
174
     0
175
     0
176
     0
177
     0
178
     0
  0
DIMSTYLE
  2
ANNOTATIVE
 70
     0
  3

  4

  5

  6

  7

 40
1.0
 41
0.18
 42
0.0625
 43
0.38
 44
0.18
 45
0.0
 46
0.0
 47
0.0
 48
0.0
140
0.18
141
0.09
142
0.0
143
25.399999999999999
144
1.0
145
0.0
146
1.0
147
0.09
 71
     0
 72
     0
 73
     1
 74
     1
 75
     0
 76
     0
 77
     0
 78
     0
170
     0
171
     2
172
     0
173
     0
174
     0
175
     0
176
     0
177
     0
178
     0
  0
DIMSTYLE
  2
AM_ANSI
 70
     0
  3

  4
mm
  5

  6

  7

 40
1.0
 41
0.12
 42
0.05
 43
0.5
 44
0.1
 45
0.0
 46
0.0
 47
0.1
 48
0.1
140
0.12
141
0.0
142
0.0
143
25.399999999999999
144
1.0
145
0.0
146
0.71
147
0.06
 71
     0
 72
     0
 73
     1
 74
     1
 75
     0
 76
     0
 77
     0
 78
     7
170
     0
171
     2
172
     0
173
     0
174
     0
175
     0
176
   256
177
   256
178
     2
  0
DIMSTYLE
  2
AM_ANSI$3
 70
     0
  3

  4
mm
  5

  6

  7

 40
1.0
 41
0.12
 42
0.05
 43
0.5
 44
0.1
 45
0.0
 46
0.0
 47
0.1
 48
0.1
140
0.12
141
0.0
142
0.0
143
25.399999999999999
144
1.0
145
0.0
146
0.71
147
0.06
 71
     0
 72
     0
 73
     1
 74
     1
 75
     0
 76
     0
 77
     0
 78
     7
170
     0
171
     2
172
     0
173
     0
174
     0
175
     0
176
   256
177
   256
178
     2
  0
DIMSTYLE
  2
AM_ANSI$4
 70
     0
  3

  4
mm
  5

  6

  7

 40
1.0
 41
0.12
 42
0.05
 43
0.5
 44
0.1
 45
0.0
 46
0.0
 47
0.1
 48
0.1
140
0.12
141
0.0
142
0.0
143
25.399999999999999
144
1.0
145
0.0
146
0.71
147
0.06
 71
     0
 72
     0
 73
     1
 74
     1
 75
     0
 76
     0
 77
     0
 78
     7
170
     0
171
     2
172
     0
173
     0
174
     0
175
     0
176
   256
177
   256
178
     2
  0
DIMSTYLE
  2
AM_ANSI$7
 70
     0
  3

  4
mm
  5

  6

  7

 40
1.0
 41
0.12
 42
0.05
 43
0.5
 44
0.1
 45
0.0
 46
0.0
 47
0.1
 48
0.1
140
0.12
141
0.0
142
0.0
143
25.399999999999999
144
1.0
145
0.0
146
0.71
147
0.06
 71
     0
 72
     0
 73
     1
 74
     1
 75
     0
 76
     0
 77
     0
 78
     7
170
     0
171
     2
172
     0
173
     0
174
     0
175
     0
176
   256
177
   256
178
     2
  0
DIMSTYLE
  2
AM_ANSI$SF
 70
     0
  3

  4
mm
  5

  6

  7

 40
1.0
 41
0.12
 42
0.05
 43
0.5
 44
0.1
 45
0.0
 46
0.0
 47
0.1
 48
0.1
140
0.12
141
0.0
142
0.0
143
25.399999999999999
144
1.0
145
0.0
146
0.71
147
0.06
 71
     0
 72
     0
 73
     1
 74
     1
 75
     1
 76
     1
 77
     0
 78
     7
170
     0
171
     2
172
     0
173
     0
174
     0
175
     0
176
   256
177
   256
178
     2
  0
DIMSTYLE
  2
AM_ANSI$SH
 70
     0
  3

  4
mm
  5

  6
GENAXEH
  7

 40
1.0
 41
0.12
 42
0.05
 43
0.5
 44
0.1
 45
0.0
 46
0.0
 47
0.1
 48
0.1
140
0.12
141
0.0
142
0.0
143
25.399999999999999
144
1.0
145
0.0
146
0.71
147
0.06
 71
     0
 72
     0
 73
     1
 74
     1
 75
     1
 76
     1
 77
     0
 78
     7
170
     0
171
     2
172
     0
173
     1
174
     0
175
     0
176
   256
177
   256
178
     2
  0
ENDTAB
  0
ENDSEC
  0
SECTION
  2
BLOCKS
  0
BLOCK
  8
0
  2
$MODEL_SPACE
 70
     0
 10
0.0
 20
0.0
 30
0.0
  3
$MODEL_SPACE
  1

  0
ENDBLK
  5
72
  8
0
  0
BLOCK
 67
     1
  8
0
  2
$PAPER_SPACE
 70
     0
 10
0.0
 20
0.0
 30
0.0
  3
$PAPER_SPACE
  1

  0
ENDBLK
  5
6E
 67
     1
  8
0
  0
BLOCK
  8
0
  2
GENAXEH
 70
     0
 10
0.0
 20
0.0
 30
0.0
  3
GENAXEH
  1

  0
LINE
  5
138
  8
0
 10
-1.0
 20
0.0
 30
0.0
 11
1.0
 21
0.0
 31
0.0
  0
ENDBLK
  5
13A
  8
0
  0
BLOCK
  8
0
  2
*U3
 70
     1
 10
0.0
 20
0.0
 30
0.0
  3
*U3
  1

  0
TEXT
  5
262
  8
0
 62
     2
 10
810.397597658927
 20
538.16125746371745
 30
0.0
 40
3.5
  1
EX-22A
  0
ENDBLK
  5
264
  8
0
  0
ENDSEC
  0
SECTION
  2
ENTITIES
  0
LINE
  5
8E
  8
0
 62
     7
 10
801.67814870894347
 20
612.63517822068252
 30
0.0
 11
801.67814870894347
 21
604.43517822068225
 31
0.0
  0
LINE
  5
8F
  8
0
 62
     7
 10
760.86143468466776
 20
578.93464803627467
 30
0.0
 11
769.06143468466746
 21
578.93464803627467
 31
0.0
  0
LINE
  5
90
  8
0
 62
     7
 10
769.06143468466746
 20
581.43225039598133
 30
0.0
 11
769.06143468466746
 21
559.43464803627501
 31
0.0
  0
LINE
  5
91
  8
0
  6
CENTER
 62
     4
 10
807.37814870894283
 20
613.63517822068229
 30
0.0
 11
807.37814870894283
 21
603.43517822068225
 31
0.0
  0
LINE
  5
92
  8
0
  6
CENTER
 62
     4
 10
759.86143468466776
 20
562.43464803627501
 30
0.0
 11
770.06143468466746
 21
562.43464803627501
 31
0.0
  0
LINE
  5
93
  8
0
  6
CENTER
 62
     4
 10
759.86143468466776
 20
578.43464803627489
 30
0.0
 11
770.06143468466746
 21
578.43464803627489
 31
0.0
  0
LINE
  5
94
  8
0
 62
     7
 10
800.67814870892664
 20
556.43464803627501
 30
0.0
 11
800.67814870892664
 21
559.43464803627501
 31
0.0
  0
LINE
  5
95
  8
0
  6
CENTER
 62
     4
 10
764.96143468466823
 20
574.93225039598178
 30
0.0
 11
764.96143468466823
 21
565.93225039598178
 31
0.0
  0
LINE
  5
96
  8
0
  6
CENTER
 62
     4
 10
762.56143468466826
 20
567.93225039598167
 30
0.0
 11
767.36143468466787
 21
567.93225039598167
 31
0.0
  0
LINE
  5
97
  8
0
  6
CENTER
 62
     4
 10
762.56143468466826
 20
572.93225039598133
 30
0.0
 11
767.36143468466787
 21
572.93225039598133
 31
0.0
  0
LINE
  5
98
  8
0
 62
     7
 10
767.56143468466894
 20
564.93225039598292
 30
0.0
 11
767.56143468466894
 21
575.93225039598178
 31
0.0
  0
LINE
  5
99
  8
0
 62
     7
 10
767.56143468466894
 20
564.9322503959819
 30
0.0
 11
768.06143468466837
 21
563.43225039598178
 31
0.0
  0
LINE
  5
9A
  8
0
 62
     7
 10
761.86143468466878
 20
577.43225039598133
 30
0.0
 11
761.86143468466878
 21
563.43225039598178
 31
0.0
  0
LINE
  5
9B
  8
0
 62
     7
 10
761.86143468466878
 20
577.43225039598133
 30
0.0
 11
762.36143468466878
 21
575.93225039598178
 31
0.0
  0
LINE
  5
9C
  8
0
 62
     7
 10
799.67814870893847
 20
605.43517822068225
 30
0.0
 11
797.87814870893442
 21
605.90853567003467
 31
0.0
  0
LINE
  5
9D
  8
0
 62
     7
 10
797.87814870893442
 20
611.1586253684635
 30
0.0
 11
799.6781487089346
 21
611.63517822068263
 31
0.0
  0
LINE
  5
9E
  8
0
 62
     7
 10
797.87814870893442
 20
605.90853567003467
 30
0.0
 11
797.87814870893442
 21
611.1586253684635
 31
0.0
  0
LINE
  5
9F
  8
0
 62
     7
 10
800.17814870892641
 20
578.93464803627467
 30
0.0
 11
801.67814870892732
 21
581.43464803627535
 31
0.0
  0
LINE
  5
A0
  8
0
 62
     7
 10
800.17814870893653
 20
612.63517822068263
 30
0.0
 11
800.1781487089354
 21
604.43517822068225
 31
0.0
  0
LINE
  5
A1
  8
0
 62
     7
 10
800.17814870892619
 20
577.43464803627455
 30
0.0
 11
799.67814870892482
 21
577.43464803627501
 31
0.0
  0
LINE
  5
A2
  8
0
 62
     7
 10
800.17814870892232
 20
563.43464803628365
 30
0.0
 11
800.17814870892641
 21
578.93464803627467
 31
0.0
  0
LINE
  5
A3
  8
0
 62
     7
 10
799.67814870892482
 20
577.43464803627501
 30
0.0
 11
797.87814870892475
 21
575.96265458673486
 31
0.0
  0
LINE
  5
A4
  8
0
 62
     7
 10
797.87814870892475
 20
575.96265458673486
 30
0.0
 11
797.87814870892475
 21
564.90807859916367
 31
0.0
  0
LINE
  5
A5
  8
0
 62
     7
 10
797.87814870892475
 20
564.90807859916367
 30
0.0
 11
799.67814870892482
 21
563.43464803627501
 31
0.0
  0
LINE
  5
A6
  8
0
 62
     7
 10
799.67814870892482
 20
563.43464803627501
 30
0.0
 11
800.17814870892323
 21
563.43464803627501
 31
0.0
  0
LINE
  5
A7
  8
0
 62
     7
 10
761.86143468466878
 20
577.43225039598133
 30
0.0
 11
768.06143468466837
 21
577.43225039598133
 31
0.0
  0
LINE
  5
A8
  8
0
 62
     7
 10
799.67814870892482
 20
577.43464803627501
 30
0.0
 11
799.67814870892482
 21
563.43464803627501
 31
0.0
  0
LINE
  5
A9
  8
0
 62
     7
 10
768.06143468466837
 20
563.43225039598178
 30
0.0
 11
768.06143468466837
 21
577.43225039598133
 31
0.0
  0
LINE
  5
AA
  8
0
 62
     7
 10
760.86143468466776
 20
563.43225039598178
 30
0.0
 11
769.06143468466746
 21
563.43225039598178
 31
0.0
  0
LINE
  5
AB
  8
0
 62
     7
 10
769.06143468466746
 20
581.43225039598133
 30
0.0
 11
760.86143468466776
 21
581.43225039598133
 31
0.0
  0
LINE
  5
AC
  8
0
 62
     7
 10
799.67814870893847
 20
605.43517822068225
 30
0.0
 11
800.17814870893562
 21
605.43517822068281
 31
0.0
  0
LINE
  5
AD
  8
0
 62
     7
 10
799.6781487089346
 20
611.63517822068263
 30
0.0
 11
799.67814870893847
 21
605.43517822068225
 31
0.0
  0
LINE
  5
AE
  8
0
 62
     7
 10
810.17814870892619
 20
559.43464803627455
 30
0.0
 11
800.67814870892664
 21
559.4346480362733
 31
0.0
  0
LINE
  5
AF
  8
0
 62
     7
 10
801.67814870892732
 20
581.43464803627535
 30
0.0
 11
810.17814870892619
 21
581.43464803627455
 31
0.0
  0
LINE
  5
B0
  8
0
 62
     7
 10
810.17814870892619
 20
581.43464803627455
 30
0.0
 11
810.17814870892619
 21
559.43464803627455
 31
0.0
  0
LINE
  5
B1
  8
0
 62
     7
 10
805.69814870892628
 20
559.43464803627467
 30
0.0
 11
805.57814870892685
 21
556.43464803627501
 31
0.0
  0
LINE
  5
B2
  8
0
 62
     7
 10
800.67814870892664
 20
556.43464803627501
 30
0.0
 11
805.57814870892685
 21
556.43464803627501
 31
0.0
  0
LINE
  5
B3
  8
0
 62
     7
 10
801.92814870892585
 20
551.47955244388095
 30
0.0
 11
801.92814870892585
 21
556.43464803627501
 31
0.0
  0
LINE
  5
B4
  8
0
 62
     7
 10
804.42814870892585
 20
551.47955244388095
 30
0.0
 11
804.42814870892585
 21
556.43464803627501
 31
0.0
  0
LINE
  5
B5
  8
0
 62
     7
 10
800.1781487089354
 20
604.43517822068225
 30
0.0
 11
810.17814870894426
 21
604.43517822068225
 31
0.0
  0
LINE
  5
B6
  8
0
 62
     7
 10
810.17814870893903
 20
612.63517822068229
 30
0.0
 11
800.17814870893653
 21
612.63517822068263
 31
0.0
  0
LINE
  5
B7
  8
0
 62
     7
 10
810.17814870893903
 20
612.63517822068229
 30
0.0
 11
810.17814870894426
 21
604.43517822068225
 31
0.0
  0
LINE
  5
B8
  8
0
 62
     7
 10
800.67814870892664
 20
559.4346480362733
 30
0.0
 11
800.17814870892232
 21
563.43464803628365
 31
0.0
  0
LINE
  5
B9
  8
0
 62
     7
 10
767.56143468466894
 20
575.93225039598178
 30
0.0
 11
768.06143468466837
 21
577.43225039598133
 31
0.0
  0
LINE
  5
BA
  8
0
 62
     7
 10
762.36143468466878
 20
575.93225039598178
 30
0.0
 11
767.56143468466894
 21
575.93225039598178
 31
0.0
  0
LINE
  5
BB
  8
0
 62
     7
 10
762.36143468466878
 20
575.93225039598178
 30
0.0
 11
762.36143468466878
 21
564.9322503959819
 31
0.0
  0
LINE
  5
BC
  8
0
 62
     2
 10
767.56143468466894
 20
564.9322503959819
 30
0.0
 11
767.56143468466894
 21
564.9322503959819
 31
0.0
  0
LINE
  5
BD
  8
0
 62
     7
 10
762.36143468466878
 20
564.9322503959819
 30
0.0
 11
767.56143468466894
 21
564.9322503959819
 31
0.0
  0
LINE
  5
BE
  8
0
 62
     7
 10
762.36143468466878
 20
564.9322503959819
 30
0.0
 11
761.86143468466878
 21
563.43225039598178
 31
0.0
  0
LINE
  5
BF
  8
0
 62
     7
 10
800.17814870893653
 20
611.63517822068263
 30
0.0
 11
799.6781487089346
 21
611.63517822068263
 31
0.0
  0
LINE
  5
C0
  8
0
  6
CENTER
 62
     4
 10
805.4581487089265
 20
578.43464803627489
 30
0.0
 11
809.29814870892665
 21
578.43464803627489
 31
0.0
  0
LINE
  5
C1
  8
0
  6
CENTER
 62
     4
 10
807.37814870892669
 20
576.51464803627482
 30
0.0
 11
807.37814870892669
 21
580.35464803627508
 31
0.0
  0
LINE
  5
C2
  8
0
  6
CENTER
 62
     4
 10
805.4581487089265
 20
562.43464803627501
 30
0.0
 11
809.29814870892665
 21
562.43464803627501
 31
0.0
  0
LINE
  5
C3
  8
0
  6
CENTER
 62
     4
 10
807.37814870892669
 20
560.51464803627482
 30
0.0
 11
807.37814870892669
 21
564.35464803627508
 31
0.0
  0
LINE
  5
C4
  8
0
 62
     7
 10
760.86143468466776
 20
559.43464803627501
 30
0.0
 11
760.86143468466776
 21
581.43225039598133
 31
0.0
  0
LINE
  5
C5
  8
0
 62
     7
 10
766.21143468466744
 20
556.43464803627501
 30
0.0
 11
766.21143468466823
 21
551.47955244388152
 31
0.0
  0
LINE
  5
C6
  8
0
 62
     7
 10
763.71143468466744
 20
556.43464803627501
 30
0.0
 11
763.71143468466823
 21
551.47955244388152
 31
0.0
  0
LINE
  5
C7
  8
0
 62
     7
 10
760.86143468466776
 20
559.43464803627501
 30
0.0
 11
769.06143468466746
 21
559.43464803627501
 31
0.0
  0
LINE
  5
C8
  8
0
 62
     7
 10
762.46143468466755
 20
556.43464803627501
 30
0.0
 11
762.46143468466755
 21
559.43464803627501
 31
0.0
  0
LINE
  5
C9
  8
0
 62
     7
 10
762.46143468466755
 20
556.43464803627501
 30
0.0
 11
767.46143468466801
 21
556.43464803627501
 31
0.0
  0
LINE
  5
CA
  8
0
 62
     7
 10
767.46143468466801
 20
556.43464803627501
 30
0.0
 11
767.46143468466801
 21
559.43464803627501
 31
0.0
  0
CIRCLE
  5
D1
  8
0
 62
     7
 10
807.37814870892669
 20
578.43464803627489
 30
0.0
 40
1.5999999999994541
  0
CIRCLE
  5
D2
  8
0
 62
     7
 10
807.37814870892669
 20
562.43464803627501
 30
0.0
 40
1.5999999999994541
  0
LINE
  5
D3
  8
0
 62
     4
 10
789.95030838831747
 20
572.93225039598155
 30
0.0
 11
797.87814870892475
 21
572.93225039598155
 31
0.0
  0
SOLID
  5
D4
  8
0
 62
     4
 10
794.87814870892475
 20
572.5372929032194
 30
0.0
 11
794.87814870892475
 21
573.32720788874371
 31
0.0
 12
797.87814870892475
 22
572.93225039598155
 32
0.0
 13
797.87814870892475
 23
572.93225039598155
 33
0.0
  0
LINE
  5
D5
  8
0
 62
     4
 10
797.87814870891816
 20
567.93225039598167
 30
0.0
 11
789.95030838831099
 21
567.93225039598167
 31
0.0
  0
SOLID
  5
D6
  8
0
 62
     4
 10
792.95030838831087
 20
568.32720788874371
 30
0.0
 11
792.95030838831087
 21
567.53729290321951
 31
0.0
 12
789.95030838831099
 22
567.93225039598167
 32
0.0
 13
789.95030838831099
 23
567.93225039598167
 33
0.0
  0
LINE
  5
1B2
  8
0
  6
CENTER
 62
     4
 10
796.50798334099704
 20
608.53358051924909
 30
0.0
 11
811.96532718165929
 21
608.53358051924909
 31
0.0
  0
LINE
  5
1B5
  8
0
  6
CENTER
 62
     4
 10
764.96143468466755
 20
584.18429794808799
 30
0.0
 11
764.96143468466755
 21
548.84102783755952
 31
0.0
  0
INSERT
  5
1BD
  8
0
  2
*U3
 10
0.0
 20
0.0
 30
0.0
  0
ENDSEC
  0
EOF
