ISO-10303-21;
HEADER;
FILE_DESCRIPTION (( 'STEP AP203' ),
    '1' );
FILE_NAME ('RF-200.STEP',
    '2005-09-05T07:32:04',
    ( 'êÏìáó«âp' ),
    ( ' ' ),
    'SwSTEP 2.0',
    'SolidWorks 2004251',
    '' );
FILE_SCHEMA (( 'CONFIG_CONTROL_DESIGN' ));
ENDSEC;

DATA;
#1 = EDGE_CURVE ( 'NONE', #58, #38, #349, .T. ) ;
#2 = ORIENTED_EDGE ( 'NONE', *, *, #40, .F. ) ;
#3 = ORIENTED_EDGE ( 'NONE', *, *, #1, .F. ) ;
#4 = ORIENTED_EDGE ( 'NONE', *, *, #13, .T. ) ;
#5 = ADVANCED_FACE ( 'NONE', ( #345 ), #344, .F. ) ;
#6 = ORIENTED_EDGE ( 'NONE', *, *, #7, .F. ) ;
#7 = EDGE_CURVE ( 'NONE', #212, #243, #339, .T. ) ;
#8 = EDGE_LOOP ( 'NONE', ( #6, #225, #226, #227, #228, #230 ) ) ;
#9 = ORIENTED_EDGE ( 'NONE', *, *, #10, .F. ) ;
#10 = EDGE_CURVE ( 'NONE', #11, #14, #335, .T. ) ;
#11 = VERTEX_POINT ( 'NONE', #331 ) ;
#12 = ORIENTED_EDGE ( 'NONE', *, *, #13, .F. ) ;
#13 = EDGE_CURVE ( 'NONE', #19, #11, #449, .T. ) ;
#14 = VERTEX_POINT ( 'NONE', #445 ) ;
#15 = EDGE_CURVE ( 'NONE', #14, #16, #444, .T. ) ;
#16 = VERTEX_POINT ( 'NONE', #440 ) ;
#17 = EDGE_CURVE ( 'NONE', #16, #19, #439, .T. ) ;
#18 = ORIENTED_EDGE ( 'NONE', *, *, #15, .F. ) ;
#19 = VERTEX_POINT ( 'NONE', #435 ) ;
#20 = ORIENTED_EDGE ( 'NONE', *, *, #17, .F. ) ;
#21 = EDGE_LOOP ( 'NONE', ( #20, #18, #9, #12 ) ) ;
#22 = ADVANCED_FACE ( 'NONE', ( #434, #433 ), #432, .T. ) ;
#23 = ADVANCED_FACE ( 'NONE', ( #431 ), #426, .F. ) ;
#24 = EDGE_LOOP ( 'NONE', ( #25, #26, #27, #30 ) ) ;
#25 = ORIENTED_EDGE ( 'NONE', *, *, #15, .T. ) ;
#26 = ORIENTED_EDGE ( 'NONE', *, *, #63, .F. ) ;
#27 = ORIENTED_EDGE ( 'NONE', *, *, #28, .F. ) ;
#28 = EDGE_CURVE ( 'NONE', #29, #61, #421, .T. ) ;
#29 = VERTEX_POINT ( 'NONE', #417 ) ;
#30 = ORIENTED_EDGE ( 'NONE', *, *, #31, .T. ) ;
#31 = EDGE_CURVE ( 'NONE', #29, #14, #416, .T. ) ;
#32 = ADVANCED_FACE ( 'NONE', ( #402 ), #401, .F. ) ;
#33 = EDGE_LOOP ( 'NONE', ( #34, #35, #36, #39 ) ) ;
#34 = ORIENTED_EDGE ( 'NONE', *, *, #10, .T. ) ;
#35 = ORIENTED_EDGE ( 'NONE', *, *, #31, .F. ) ;
#36 = ORIENTED_EDGE ( 'NONE', *, *, #37, .F. ) ;
#37 = EDGE_CURVE ( 'NONE', #38, #29, #396, .T. ) ;
#38 = VERTEX_POINT ( 'NONE', #392 ) ;
#39 = ORIENTED_EDGE ( 'NONE', *, *, #40, .T. ) ;
#40 = EDGE_CURVE ( 'NONE', #38, #11, #513, .T. ) ;
#41 = EDGE_LOOP ( 'NONE', ( #4, #2, #3, #49 ) ) ;
#42 = ADVANCED_FACE ( 'NONE', ( #509 ), #508, .T. ) ;
#43 = EDGE_LOOP ( 'NONE', ( #44, #46, #47, #48 ) ) ;
#44 = ORIENTED_EDGE ( 'NONE', *, *, #45, .F. ) ;
#45 = EDGE_CURVE ( 'NONE', #176, #243, #503, .T. ) ;
#46 = ORIENTED_EDGE ( 'NONE', *, *, #175, .F. ) ;
#47 = ORIENTED_EDGE ( 'NONE', *, *, #415, .T. ) ;
#48 = ORIENTED_EDGE ( 'NONE', *, *, #7, .T. ) ;
#49 = ORIENTED_EDGE ( 'NONE', *, *, #57, .T. ) ;
#50 = ADVANCED_FACE ( 'NONE', ( #499 ), #498, .T. ) ;
#51 = EDGE_LOOP ( 'NONE', ( #52, #53, #214, #356 ) ) ;
#52 = ORIENTED_EDGE ( 'NONE', *, *, #60, .T. ) ;
#53 = ORIENTED_EDGE ( 'NONE', *, *, #1, .T. ) ;
#54 = EDGE_LOOP ( 'NONE', ( #55, #56, #59, #62 ) ) ;
#55 = ORIENTED_EDGE ( 'NONE', *, *, #17, .T. ) ;
#56 = ORIENTED_EDGE ( 'NONE', *, *, #57, .F. ) ;
#57 = EDGE_CURVE ( 'NONE', #58, #19, #493, .T. ) ;
#58 = VERTEX_POINT ( 'NONE', #489 ) ;
#59 = ORIENTED_EDGE ( 'NONE', *, *, #60, .F. ) ;
#60 = EDGE_CURVE ( 'NONE', #61, #58, #488, .T. ) ;
#61 = VERTEX_POINT ( 'NONE', #319 ) ;
#62 = ORIENTED_EDGE ( 'NONE', *, *, #63, .T. ) ;
#63 = EDGE_CURVE ( 'NONE', #61, #16, #318, .T. ) ;
#64 = ADVANCED_FACE ( 'NONE', ( #314 ), #313, .T. ) ;
#65 = EDGE_LOOP ( 'NONE', ( #66, #68, #134, #125 ) ) ;
#66 = ORIENTED_EDGE ( 'NONE', *, *, #67, .F. ) ;
#67 = EDGE_CURVE ( 'NONE', #135, #78, #308, .T. ) ;
#68 = ORIENTED_EDGE ( 'NONE', *, *, #69, .F. ) ;
#69 = EDGE_CURVE ( 'NONE', #70, #135, #304, .T. ) ;
#70 = VERTEX_POINT ( 'NONE', #300 ) ;
#71 = EDGE_CURVE ( 'NONE', #76, #86, #299, .T. ) ;
#72 = ORIENTED_EDGE ( 'NONE', *, *, #85, .T. ) ;
#73 = ORIENTED_EDGE ( 'NONE', *, *, #71, .T. ) ;
#74 = ORIENTED_EDGE ( 'NONE', *, *, #75, .F. ) ;
#75 = EDGE_CURVE ( 'NONE', #76, #78, #391, .T. ) ;
#76 = VERTEX_POINT ( 'NONE', #387 ) ;
#77 = ORIENTED_EDGE ( 'NONE', *, *, #81, .T. ) ;
#78 = VERTEX_POINT ( 'NONE', #386 ) ;
#79 = ADVANCED_FACE ( 'NONE', ( #385 ), #384, .T. ) ;
#80 = EDGE_LOOP ( 'NONE', ( #82, #74, #73, #72 ) ) ;
#81 = EDGE_CURVE ( 'NONE', #89, #88, #379, .T. ) ;
#82 = ORIENTED_EDGE ( 'NONE', *, *, #83, .F. ) ;
#83 = EDGE_CURVE ( 'NONE', #78, #93, #375, .T. ) ;
#84 = ORIENTED_EDGE ( 'NONE', *, *, #95, .T. ) ;
#85 = EDGE_CURVE ( 'NONE', #86, #93, #371, .T. ) ;
#86 = VERTEX_POINT ( 'NONE', #367 ) ;
#87 = EDGE_CURVE ( 'NONE', #70, #76, #366, .T. ) ;
#88 = VERTEX_POINT ( 'NONE', #481 ) ;
#89 = VERTEX_POINT ( 'NONE', #480 ) ;
#90 = ORIENTED_EDGE ( 'NONE', *, *, #92, .F. ) ;
#91 = ORIENTED_EDGE ( 'NONE', *, *, #85, .F. ) ;
#92 = EDGE_CURVE ( 'NONE', #93, #88, #479, .T. ) ;
#93 = VERTEX_POINT ( 'NONE', #475 ) ;
#94 = MANIFOLD_SOLID_BREP ( 'NONE', #107 ) ;
#95 = EDGE_CURVE ( 'NONE', #86, #89, #474, .T. ) ;
#96 = ADVANCED_FACE ( 'NONE', ( #470 ), #469, .T. ) ;
#97 = EDGE_LOOP ( 'NONE', ( #90, #91, #84, #77 ) ) ;
#98 = EDGE_CURVE ( 'NONE', #99, #176, #464, .T. ) ;
#99 = VERTEX_POINT ( 'NONE', #460 ) ;
#100 = ORIENTED_EDGE ( 'NONE', *, *, #101, .T. ) ;
#101 = EDGE_CURVE ( 'NONE', #99, #102, #459, .T. ) ;
#102 = VERTEX_POINT ( 'NONE', #455 ) ;
#103 = ORIENTED_EDGE ( 'NONE', *, *, #104, .T. ) ;
#104 = EDGE_CURVE ( 'NONE', #102, #105, #454, .T. ) ;
#105 = VERTEX_POINT ( 'NONE', #450 ) ;
#106 = ORIENTED_EDGE ( 'NONE', *, *, #128, .T. ) ;
#107 = CLOSED_SHELL ( 'NONE', ( #96, #79, #126, #133, #118, #64 ) ) ;
#108 = VERTEX_POINT ( 'NONE', #295 ) ;
#109 = EDGE_LOOP ( 'NONE', ( #115, #106, #116, #110 ) ) ;
#110 = ORIENTED_EDGE ( 'NONE', *, *, #83, .T. ) ;
#111 = MANIFOLD_SOLID_BREP ( 'NONE', #352 ) ;
#112 = ADVANCED_FACE ( 'NONE', ( #294 ), #292, .F. ) ;
#113 = ORIENTED_EDGE ( 'NONE', *, *, #114, .T. ) ;
#114 = EDGE_CURVE ( 'NONE', #108, #151, #288, .T. ) ;
#115 = ORIENTED_EDGE ( 'NONE', *, *, #92, .T. ) ;
#116 = ORIENTED_EDGE ( 'NONE', *, *, #67, .T. ) ;
#117 = EDGE_LOOP ( 'NONE', ( #113, #144, #147, #250 ) ) ;
#118 = ADVANCED_FACE ( 'NONE', ( #283 ), #282, .F. ) ;
#119 = ORIENTED_EDGE ( 'NONE', *, *, #131, .F. ) ;
#120 = EDGE_LOOP ( 'NONE', ( #121, #122, #123, #119 ) ) ;
#121 = ORIENTED_EDGE ( 'NONE', *, *, #95, .F. ) ;
#122 = ORIENTED_EDGE ( 'NONE', *, *, #71, .F. ) ;
#123 = ORIENTED_EDGE ( 'NONE', *, *, #87, .F. ) ;
#124 = EDGE_LOOP ( 'NONE', ( #127, #129, #130, #132 ) ) ;
#125 = ORIENTED_EDGE ( 'NONE', *, *, #75, .T. ) ;
#126 = ADVANCED_FACE ( 'NONE', ( #277 ), #276, .T. ) ;
#127 = ORIENTED_EDGE ( 'NONE', *, *, #128, .F. ) ;
#128 = EDGE_CURVE ( 'NONE', #88, #135, #271, .T. ) ;
#129 = ORIENTED_EDGE ( 'NONE', *, *, #81, .F. ) ;
#130 = ORIENTED_EDGE ( 'NONE', *, *, #131, .T. ) ;
#131 = EDGE_CURVE ( 'NONE', #89, #70, #266, .T. ) ;
#132 = ORIENTED_EDGE ( 'NONE', *, *, #69, .T. ) ;
#133 = ADVANCED_FACE ( 'NONE', ( #598 ), #597, .T. ) ;
#134 = ORIENTED_EDGE ( 'NONE', *, *, #87, .T. ) ;
#135 = VERTEX_POINT ( 'NONE', #596 ) ;
#136 = VERTEX_POINT ( 'NONE', #517 ) ;
#137 = ORIENTED_EDGE ( 'NONE', *, *, #138, .F. ) ;
#138 = EDGE_CURVE ( 'NONE', #139, #136, #602, .T. ) ;
#139 = VERTEX_POINT ( 'NONE', #591 ) ;
#140 = ORIENTED_EDGE ( 'NONE', *, *, #141, .F. ) ;
#141 = EDGE_CURVE ( 'NONE', #215, #139, #516, .T. ) ;
#142 = ADVANCED_FACE ( 'NONE', ( #581, #580, #579 ), #578, .F. ) ;
#143 = EDGE_LOOP ( 'NONE', ( #255, #178, #181, #184 ) ) ;
#144 = ORIENTED_EDGE ( 'NONE', *, *, #145, .T. ) ;
#145 = EDGE_CURVE ( 'NONE', #151, #146, #603, .T. ) ;
#146 = VERTEX_POINT ( 'NONE', #587 ) ;
#147 = ORIENTED_EDGE ( 'NONE', *, *, #148, .F. ) ;
#148 = EDGE_CURVE ( 'NONE', #149, #146, #586, .T. ) ;
#149 = VERTEX_POINT ( 'NONE', #576 ) ;
#150 = EDGE_LOOP ( 'NONE', ( #253, #217, #137, #140 ) ) ;
#151 = VERTEX_POINT ( 'NONE', #575 ) ;
#152 = ADVANCED_FACE ( 'NONE', ( #574 ), #573, .F. ) ;
#153 = EDGE_LOOP ( 'NONE', ( #154, #156, #157, #207 ) ) ;
#154 = ORIENTED_EDGE ( 'NONE', *, *, #155, .F. ) ;
#155 = EDGE_CURVE ( 'NONE', #173, #182, #568, .T. ) ;
#156 = ORIENTED_EDGE ( 'NONE', *, *, #204, .T. ) ;
#157 = ORIENTED_EDGE ( 'NONE', *, *, #170, .T. ) ;
#158 = ADVANCED_FACE ( 'NONE', ( #564 ), #563, .F. ) ;
#159 = ORIENTED_EDGE ( 'NONE', *, *, #201, .F. ) ;
#160 = ORIENTED_EDGE ( 'NONE', *, *, #161, .T. ) ;
#161 = EDGE_CURVE ( 'NONE', #199, #162, #558, .T. ) ;
#162 = VERTEX_POINT ( 'NONE', #554 ) ;
#163 = ORIENTED_EDGE ( 'NONE', *, *, #164, .F. ) ;
#164 = EDGE_CURVE ( 'NONE', #165, #162, #553, .T. ) ;
#165 = VERTEX_POINT ( 'NONE', #549 ) ;
#166 = ORIENTED_EDGE ( 'NONE', *, *, #167, .T. ) ;
#167 = EDGE_CURVE ( 'NONE', #165, #257, #548, .T. ) ;
#168 = ORIENTED_EDGE ( 'NONE', *, *, #256, .T. ) ;
#169 = ORIENTED_EDGE ( 'NONE', *, *, #170, .F. ) ;
#170 = EDGE_CURVE ( 'NONE', #202, #258, #544, .T. ) ;
#171 = EDGE_CURVE ( 'NONE', #172, #173, #540, .T. ) ;
#172 = VERTEX_POINT ( 'NONE', #536 ) ;
#173 = VERTEX_POINT ( 'NONE', #535 ) ;
#174 = ORIENTED_EDGE ( 'NONE', *, *, #175, .T. ) ;
#175 = EDGE_CURVE ( 'NONE', #172, #176, #534, .T. ) ;
#176 = VERTEX_POINT ( 'NONE', #530 ) ;
#177 = ORIENTED_EDGE ( 'NONE', *, *, #98, .F. ) ;
#178 = ORIENTED_EDGE ( 'NONE', *, *, #179, .F. ) ;
#179 = EDGE_CURVE ( 'NONE', #180, #257, #529, .T. ) ;
#180 = VERTEX_POINT ( 'NONE', #525 ) ;
#181 = ORIENTED_EDGE ( 'NONE', *, *, #183, .F. ) ;
#182 = VERTEX_POINT ( 'NONE', #524 ) ;
#183 = EDGE_CURVE ( 'NONE', #182, #180, #523, .T. ) ;
#184 = ORIENTED_EDGE ( 'NONE', *, *, #185, .F. ) ;
#185 = EDGE_CURVE ( 'NONE', #258, #182, #613, .T. ) ;
#186 = EDGE_LOOP ( 'NONE', ( #187, #188 ) ) ;
#187 = ORIENTED_EDGE ( 'NONE', *, *, #138, .T. ) ;
#188 = ORIENTED_EDGE ( 'NONE', *, *, #189, .T. ) ;
#189 = EDGE_CURVE ( 'NONE', #136, #139, #609, .T. ) ;
#190 = EDGE_LOOP ( 'NONE', ( #191, #192 ) ) ;
#191 = ORIENTED_EDGE ( 'NONE', *, *, #148, .T. ) ;
#192 = ORIENTED_EDGE ( 'NONE', *, *, #193, .T. ) ;
#193 = EDGE_CURVE ( 'NONE', #146, #149, #751, .T. ) ;
#194 = ADVANCED_FACE ( 'NONE', ( #746, #745 ), #744, .F. ) ;
#195 = EDGE_LOOP ( 'NONE', ( #196, #174, #177, #100, #103, #197, #200, #203 ) ) ;
#196 = ORIENTED_EDGE ( 'NONE', *, *, #171, .F. ) ;
#197 = ORIENTED_EDGE ( 'NONE', *, *, #198, .T. ) ;
#198 = EDGE_CURVE ( 'NONE', #105, #199, #739, .T. ) ;
#199 = VERTEX_POINT ( 'NONE', #735 ) ;
#200 = ORIENTED_EDGE ( 'NONE', *, *, #201, .T. ) ;
#201 = EDGE_CURVE ( 'NONE', #199, #202, #734, .T. ) ;
#202 = VERTEX_POINT ( 'NONE', #730 ) ;
#203 = ORIENTED_EDGE ( 'NONE', *, *, #204, .F. ) ;
#204 = EDGE_CURVE ( 'NONE', #173, #202, #729, .T. ) ;
#205 = EDGE_LOOP ( 'NONE', ( #206, #236 ) ) ;
#206 = ORIENTED_EDGE ( 'NONE', *, *, #114, .F. ) ;
#207 = ORIENTED_EDGE ( 'NONE', *, *, #185, .T. ) ;
#208 = ADVANCED_FACE ( 'NONE', ( #725 ), #723, .F. ) ;
#209 = EDGE_LOOP ( 'NONE', ( #210, #414, #484, #485, #486, #408 ) ) ;
#210 = ORIENTED_EDGE ( 'NONE', *, *, #211, .F. ) ;
#211 = EDGE_CURVE ( 'NONE', #212, #213, #724, .T. ) ;
#212 = VERTEX_POINT ( 'NONE', #639 ) ;
#213 = VERTEX_POINT ( 'NONE', #638 ) ;
#214 = ORIENTED_EDGE ( 'NONE', *, *, #37, .T. ) ;
#215 = VERTEX_POINT ( 'NONE', #637 ) ;
#216 = VERTEX_POINT ( 'NONE', #636 ) ;
#217 = ORIENTED_EDGE ( 'NONE', *, *, #218, .T. ) ;
#218 = EDGE_CURVE ( 'NONE', #216, #136, #635, .T. ) ;
#219 = ADVANCED_FACE ( 'NONE', ( #784 ), #783, .T. ) ;
#220 = EDGE_LOOP ( 'NONE', ( #221, #222, #223 ) ) ;
#221 = ORIENTED_EDGE ( 'NONE', *, *, #242, .T. ) ;
#222 = ORIENTED_EDGE ( 'NONE', *, *, #98, .T. ) ;
#223 = ORIENTED_EDGE ( 'NONE', *, *, #45, .T. ) ;
#224 = ADVANCED_FACE ( 'NONE', ( #778 ), #777, .F. ) ;
#225 = ORIENTED_EDGE ( 'NONE', *, *, #211, .T. ) ;
#226 = ORIENTED_EDGE ( 'NONE', *, *, #259, .T. ) ;
#227 = ORIENTED_EDGE ( 'NONE', *, *, #164, .T. ) ;
#228 = ORIENTED_EDGE ( 'NONE', *, *, #229, .F. ) ;
#229 = EDGE_CURVE ( 'NONE', #246, #162, #772, .T. ) ;
#230 = ORIENTED_EDGE ( 'NONE', *, *, #245, .F. ) ;
#231 = ADVANCED_FACE ( 'NONE', ( #768 ), #767, .T. ) ;
#232 = EDGE_LOOP ( 'NONE', ( #233, #234, #235, #330 ) ) ;
#233 = ORIENTED_EDGE ( 'NONE', *, *, #161, .F. ) ;
#234 = ORIENTED_EDGE ( 'NONE', *, *, #198, .F. ) ;
#235 = ORIENTED_EDGE ( 'NONE', *, *, #329, .T. ) ;
#236 = ORIENTED_EDGE ( 'NONE', *, *, #237, .F. ) ;
#237 = EDGE_CURVE ( 'NONE', #151, #108, #762, .T. ) ;
#238 = ADVANCED_FACE ( 'NONE', ( #757 ), #756, .F. ) ;
#239 = EDGE_LOOP ( 'NONE', ( #240, #241, #244, #247 ) ) ;
#240 = ORIENTED_EDGE ( 'NONE', *, *, #101, .F. ) ;
#241 = ORIENTED_EDGE ( 'NONE', *, *, #242, .F. ) ;
#242 = EDGE_CURVE ( 'NONE', #243, #99, #674, .T. ) ;
#243 = VERTEX_POINT ( 'NONE', #670 ) ;
#244 = ORIENTED_EDGE ( 'NONE', *, *, #245, .T. ) ;
#245 = EDGE_CURVE ( 'NONE', #243, #246, #669, .T. ) ;
#246 = VERTEX_POINT ( 'NONE', #665 ) ;
#247 = ORIENTED_EDGE ( 'NONE', *, *, #248, .T. ) ;
#248 = EDGE_CURVE ( 'NONE', #246, #102, #664, .T. ) ;
#249 = EDGE_LOOP ( 'NONE', ( #159, #160, #163, #166, #168, #169 ) ) ;
#250 = ORIENTED_EDGE ( 'NONE', *, *, #251, .F. ) ;
#251 = EDGE_CURVE ( 'NONE', #108, #149, #660, .T. ) ;
#252 = ADVANCED_FACE ( 'NONE', ( #656 ), #654, .T. ) ;
#253 = ORIENTED_EDGE ( 'NONE', *, *, #254, .T. ) ;
#254 = EDGE_CURVE ( 'NONE', #215, #216, #649, .T. ) ;
#255 = ORIENTED_EDGE ( 'NONE', *, *, #256, .F. ) ;
#256 = EDGE_CURVE ( 'NONE', #257, #258, #645, .T. ) ;
#257 = VERTEX_POINT ( 'NONE', #717 ) ;
#258 = VERTEX_POINT ( 'NONE', #716 ) ;
#259 = EDGE_CURVE ( 'NONE', #213, #165, #715, .T. ) ;
#260 = ORIENTED_EDGE ( 'NONE', *, *, #409, .T. ) ;
#261 = ORIENTED_EDGE ( 'NONE', *, *, #167, .F. ) ;
#262 = DIRECTION ( 'NONE',  ( 0.0000000000000000000, 0.0000000000000000000, -1.000000000000000000 ) ) ;
#263 = DIRECTION ( 'NONE',  ( 0.9986295347545740600, 0.05233595624294011500, 0.0000000000000000000 ) ) ;
#264 = VECTOR ( 'NONE', #263, 1000.000000000000100 ) ;
#265 = CARTESIAN_POINT ( 'NONE',  ( 6.500000000000003600, -17.15042521936223000, -9.599999999999999600 ) ) ;
#266 = LINE ( 'NONE', #265, #264 ) ;
#267 = DIRECTION ( 'NONE',  ( 1.000000000000000000, 0.0000000000000000000, 0.0000000000000000000 ) ) ;
#268 = DIRECTION ( 'NONE',  ( 0.9986295347545740600, 0.05233595624294011500, 0.0000000000000000000 ) ) ;
#269 = VECTOR ( 'NONE', #268, 1000.000000000000100 ) ;
#270 = CARTESIAN_POINT ( 'NONE',  ( 6.500000000000003600, -17.15042521936223000, 0.0000000000000000000 ) ) ;
#271 = LINE ( 'NONE', #270, #269 ) ;
#272 = DIRECTION ( 'NONE',  ( 0.9986295347545740600, 0.05233595624294011500, 0.0000000000000000000 ) ) ;
#273 = DIRECTION ( 'NONE',  ( 0.05233595624294012200, -0.9986295347545741700, 0.0000000000000000000 ) ) ;
#274 = CARTESIAN_POINT ( 'NONE',  ( 6.500000000000003600, -17.15042521936223000, -9.599999999999999600 ) ) ;
#275 = AXIS2_PLACEMENT_3D ( 'NONE', #274, #273, #272 ) ;
#276 = PLANE ( 'NONE',  #275 ) ;
#277 = FACE_OUTER_BOUND ( 'NONE', #124, .T. ) ;
#278 = DIRECTION ( 'NONE',  ( -1.000000000000000000, 0.0000000000000000000, 0.0000000000000000000 ) ) ;
#279 = DIRECTION ( 'NONE',  ( 0.0000000000000000000, 0.0000000000000000000, -1.000000000000000000 ) ) ;
#280 = CARTESIAN_POINT ( 'NONE',  ( 4.600000000000001400, -17.25000000000000000, 0.0000000000000000000 ) ) ;
#281 = AXIS2_PLACEMENT_3D ( 'NONE', #280, #279, #278 ) ;
#282 = PLANE ( 'NONE',  #281 ) ;
#283 = FACE_OUTER_BOUND ( 'NONE', #109, .T. ) ;
#284 = DIRECTION ( 'NONE',  ( 0.0000000000000000000, 0.0000000000000000000, 1.000000000000000000 ) ) ;
#285 = DIRECTION ( 'NONE',  ( 1.000000000000000000, 0.0000000000000000000, 0.0000000000000000000 ) ) ;
#286 = CARTESIAN_POINT ( 'NONE',  ( 2.299999999999999800, -21.75000000000000400, -4.799999999999999800 ) ) ;
#287 = AXIS2_PLACEMENT_3D ( 'NONE', #286, #285, #284 ) ;
#288 = CIRCLE ( 'NONE', #287, 1.599999999999999900 ) ;
#289 = DIRECTION ( 'NONE',  ( 0.0000000000000000000, 0.0000000000000000000, 1.000000000000000000 ) ) ;
#290 = DIRECTION ( 'NONE',  ( -1.000000000000000000, 0.0000000000000000000, 0.0000000000000000000 ) ) ;
#291 = AXIS2_PLACEMENT_3D ( 'NONE', #293, #290, #289 ) ;
#292 = CYLINDRICAL_SURFACE ( 'NONE', #291, 1.599999999999999900 ) ;
#293 = CARTESIAN_POINT ( 'NONE',  ( 4.599999999999999600, -21.75000000000000400, -4.799999999999999800 ) ) ;
#294 = FACE_OUTER_BOUND ( 'NONE', #117, .T. ) ;
#295 = CARTESIAN_POINT ( 'NONE',  ( 2.299999999999999800, -21.75000000000000400, -3.199999999999999700 ) ) ;
#296 = DIRECTION ( 'NONE',  ( -0.9681476403781086300, 0.2503800040544378900, 0.0000000000000000000 ) ) ;
#297 = VECTOR ( 'NONE', #296, 999.9999999999998900 ) ;
#298 = CARTESIAN_POINT ( 'NONE',  ( 4.599999999999999600, -0.2500000000000000000, -9.599999999999999600 ) ) ;
#299 = LINE ( 'NONE', #298, #297 ) ;
#300 = CARTESIAN_POINT ( 'NONE',  ( 6.500000000000003600, -17.15042521936223000, -9.599999999999999600 ) ) ;
#301 = DIRECTION ( 'NONE',  ( 0.0000000000000000000, 0.0000000000000000000, 1.000000000000000000 ) ) ;
#302 = VECTOR ( 'NONE', #301, 1000.000000000000000 ) ;
#303 = CARTESIAN_POINT ( 'NONE',  ( 6.500000000000003600, -17.15042521936223000, -9.599999999999999600 ) ) ;
#304 = LINE ( 'NONE', #303, #302 ) ;
#305 = DIRECTION ( 'NONE',  ( -2.642936801223720300E-016, 1.000000000000000000, 0.0000000000000000000 ) ) ;
#306 = VECTOR ( 'NONE', #305, 1000.000000000000000 ) ;
#307 = CARTESIAN_POINT ( 'NONE',  ( 6.499999999999999100, -0.7413734102761839800, 0.0000000000000000000 ) ) ;
#308 = LINE ( 'NONE', #307, #306 ) ;
#309 = DIRECTION ( 'NONE',  ( -2.642936801223720300E-016, 1.000000000000000000, 0.0000000000000000000 ) ) ;
#310 = DIRECTION ( 'NONE',  ( 1.000000000000000000, 2.642936801223720300E-016, 0.0000000000000000000 ) ) ;
#311 = CARTESIAN_POINT ( 'NONE',  ( 6.499999999999999100, -0.7413734102761839800, -9.599999999999999600 ) ) ;
#312 = AXIS2_PLACEMENT_3D ( 'NONE', #311, #310, #309 ) ;
#313 = PLANE ( 'NONE',  #312 ) ;
#314 = FACE_OUTER_BOUND ( 'NONE', #65, .T. ) ;
#315 = DIRECTION ( 'NONE',  ( 1.000000000000000000, 0.0000000000000000000, 0.0000000000000000000 ) ) ;
#316 = VECTOR ( 'NONE', #315, 1000.000000000000000 ) ;
#317 = CARTESIAN_POINT ( 'NONE',  ( 4.500000000000000000, -1.550000000000000000, -1.200000000000000000 ) ) ;
#318 = LINE ( 'NONE', #317, #316 ) ;
#319 = CARTESIAN_POINT ( 'NONE',  ( 4.500000000000000000, -1.550000000000000000, -1.200000000000000000 ) ) ;
#320 = DIRECTION ( 'NONE',  ( 0.0000000000000000000, -1.000000000000000000, -1.011922027653137500E-016 ) ) ;
#321 = VECTOR ( 'NONE', #320, 1000.000000000000000 ) ;
#322 = ORIENTED_EDGE ( 'NONE', *, *, #237, .T. ) ;
#323 = ORIENTED_EDGE ( 'NONE', *, *, #254, .F. ) ;
#324 = ORIENTED_EDGE ( 'NONE', *, *, #328, .F. ) ;
#325 = EDGE_LOOP ( 'NONE', ( #354, #322, #350, #351 ) ) ;
#326 = ADVANCED_FACE ( 'NONE', ( #711 ), #710, .T. ) ;
#327 = ORIENTED_EDGE ( 'NONE', *, *, #328, .T. ) ;
#328 = EDGE_CURVE ( 'NONE', #216, #215, #704, .T. ) ;
#329 = EDGE_CURVE ( 'NONE', #105, #246, #700, .T. ) ;
#330 = ORIENTED_EDGE ( 'NONE', *, *, #229, .T. ) ;
#331 = CARTESIAN_POINT ( 'NONE',  ( 4.599999999999999600, -16.54999999999999700, -8.400000000000000400 ) ) ;
#332 = DIRECTION ( 'NONE',  ( 0.0000000000000000000, 1.000000000000000000, 1.156482317317871500E-016 ) ) ;
#333 = VECTOR ( 'NONE', #332, 1000.000000000000000 ) ;
#334 = CARTESIAN_POINT ( 'NONE',  ( 4.599999999999999600, -1.550000000000000000, -8.400000000000000400 ) ) ;
#335 = LINE ( 'NONE', #334, #333 ) ;
#336 = DIRECTION ( 'NONE',  ( 0.0000000000000000000, 0.0000000000000000000, 1.000000000000000000 ) ) ;
#337 = VECTOR ( 'NONE', #336, 1000.000000000000000 ) ;
#338 = CARTESIAN_POINT ( 'NONE',  ( 4.599999999999999600, -17.50000000000000000, -9.600000000000003200 ) ) ;
#339 = LINE ( 'NONE', #338, #337 ) ;
#340 = DIRECTION ( 'NONE',  ( 0.0000000000000000000, 0.0000000000000000000, -1.000000000000000000 ) ) ;
#341 = DIRECTION ( 'NONE',  ( 0.0000000000000000000, -1.000000000000000000, 0.0000000000000000000 ) ) ;
#342 = CARTESIAN_POINT ( 'NONE',  ( 4.500000000000000000, -16.54999999999999700, -1.200000000000001500 ) ) ;
#343 = AXIS2_PLACEMENT_3D ( 'NONE', #342, #341, #340 ) ;
#344 = PLANE ( 'NONE',  #343 ) ;
#345 = FACE_OUTER_BOUND ( 'NONE', #41, .T. ) ;
#346 = DIRECTION ( 'NONE',  ( 0.0000000000000000000, 0.0000000000000000000, -1.000000000000000000 ) ) ;
#347 = VECTOR ( 'NONE', #346, 1000.000000000000000 ) ;
#348 = CARTESIAN_POINT ( 'NONE',  ( 4.500000000000000000, -16.54999999999999700, -1.200000000000001500 ) ) ;
#349 = LINE ( 'NONE', #348, #347 ) ;
#350 = ORIENTED_EDGE ( 'NONE', *, *, #251, .T. ) ;
#351 = ORIENTED_EDGE ( 'NONE', *, *, #193, .F. ) ;
#352 = CLOSED_SHELL ( 'NONE', ( #142, #410, #326, #208, #152, #112, #353, #158, #252, #22, #361, #194, #42, #231, #238, #224, #23, #32, #5, #219, #363, #50 ) ) ;
#353 = ADVANCED_FACE ( 'NONE', ( #696 ), #693, .F. ) ;
#354 = ORIENTED_EDGE ( 'NONE', *, *, #145, .F. ) ;
#355 = ORIENTED_EDGE ( 'NONE', *, *, #189, .F. ) ;
#356 = ORIENTED_EDGE ( 'NONE', *, *, #28, .T. ) ;
#357 = EDGE_LOOP ( 'NONE', ( #358, #327, #359, #355 ) ) ;
#358 = ORIENTED_EDGE ( 'NONE', *, *, #218, .F. ) ;
#359 = ORIENTED_EDGE ( 'NONE', *, *, #141, .T. ) ;
#360 = EDGE_LOOP ( 'NONE', ( #323, #324 ) ) ;
#361 = ADVANCED_FACE ( 'NONE', ( #694 ), #689, .F. ) ;
#362 = ORIENTED_EDGE ( 'NONE', *, *, #259, .F. ) ;
#363 = ADVANCED_FACE ( 'NONE', ( #630 ), #629, .F. ) ;
#364 = EDGE_LOOP ( 'NONE', ( #411, #412, #413 ) ) ;
#365 = CARTESIAN_POINT ( 'NONE',  ( 6.499999999999999100, -0.7413734102761839800, -9.599999999999999600 ) ) ;
#366 = LINE ( 'NONE', #365, #483 ) ;
#367 = CARTESIAN_POINT ( 'NONE',  ( 4.599999999999999600, -0.2500000000000000000, -9.599999999999999600 ) ) ;
#368 = DIRECTION ( 'NONE',  ( 0.0000000000000000000, 0.0000000000000000000, 1.000000000000000000 ) ) ;
#369 = VECTOR ( 'NONE', #368, 1000.000000000000000 ) ;
#370 = CARTESIAN_POINT ( 'NONE',  ( 4.599999999999999600, -0.2500000000000000000, -9.599999999999999600 ) ) ;
#371 = LINE ( 'NONE', #370, #369 ) ;
#372 = DIRECTION ( 'NONE',  ( -0.9681476403781086300, 0.2503800040544378900, 0.0000000000000000000 ) ) ;
#373 = VECTOR ( 'NONE', #372, 999.9999999999998900 ) ;
#374 = CARTESIAN_POINT ( 'NONE',  ( 4.599999999999999600, -0.2500000000000000000, 0.0000000000000000000 ) ) ;
#375 = LINE ( 'NONE', #374, #373 ) ;
#376 = DIRECTION ( 'NONE',  ( 0.0000000000000000000, 0.0000000000000000000, 1.000000000000000000 ) ) ;
#377 = VECTOR ( 'NONE', #376, 1000.000000000000000 ) ;
#378 = CARTESIAN_POINT ( 'NONE',  ( 4.600000000000001400, -17.25000000000000000, -9.599999999999999600 ) ) ;
#379 = LINE ( 'NONE', #378, #377 ) ;
#380 = DIRECTION ( 'NONE',  ( -0.9681476403781087400, 0.2503800040544378900, 0.0000000000000000000 ) ) ;
#381 = DIRECTION ( 'NONE',  ( 0.2503800040544378900, 0.9681476403781087400, 0.0000000000000000000 ) ) ;
#382 = CARTESIAN_POINT ( 'NONE',  ( 4.599999999999999600, -0.2500000000000000000, -9.599999999999999600 ) ) ;
#383 = AXIS2_PLACEMENT_3D ( 'NONE', #382, #381, #380 ) ;
#384 = PLANE ( 'NONE',  #383 ) ;
#385 = FACE_OUTER_BOUND ( 'NONE', #80, .T. ) ;
#386 = CARTESIAN_POINT ( 'NONE',  ( 6.499999999999999100, -0.7413734102761839800, 0.0000000000000000000 ) ) ;
#387 = CARTESIAN_POINT ( 'NONE',  ( 6.499999999999999100, -0.7413734102761839800, -9.599999999999999600 ) ) ;
#388 = DIRECTION ( 'NONE',  ( 0.0000000000000000000, 0.0000000000000000000, 1.000000000000000000 ) ) ;
#389 = VECTOR ( 'NONE', #388, 1000.000000000000000 ) ;
#390 = CARTESIAN_POINT ( 'NONE',  ( 6.499999999999999100, -0.7413734102761839800, -9.599999999999999600 ) ) ;
#391 = LINE ( 'NONE', #390, #389 ) ;
#392 = CARTESIAN_POINT ( 'NONE',  ( 4.500000000000000000, -16.54999999999999700, -8.400000000000000400 ) ) ;
#393 = DIRECTION ( 'NONE',  ( 0.0000000000000000000, 1.000000000000000000, 1.156482317317871500E-016 ) ) ;
#394 = VECTOR ( 'NONE', #393, 1000.000000000000000 ) ;
#395 = CARTESIAN_POINT ( 'NONE',  ( 4.500000000000000000, -1.550000000000000000, -8.400000000000000400 ) ) ;
#396 = LINE ( 'NONE', #395, #394 ) ;
#397 = DIRECTION ( 'NONE',  ( 0.0000000000000000000, 1.000000000000000000, 1.156482317317871500E-016 ) ) ;
#398 = DIRECTION ( 'NONE',  ( 0.0000000000000000000, 1.156482317317871500E-016, -1.000000000000000000 ) ) ;
#399 = CARTESIAN_POINT ( 'NONE',  ( 4.500000000000000000, -1.550000000000000000, -8.400000000000000400 ) ) ;
#400 = AXIS2_PLACEMENT_3D ( 'NONE', #399, #398, #397 ) ;
#401 = PLANE ( 'NONE',  #400 ) ;
#402 = FACE_OUTER_BOUND ( 'NONE', #33, .T. ) ;
#403 = DIRECTION ( 'NONE',  ( 1.000000000000000000, 0.0000000000000000000, 0.0000000000000000000 ) ) ;
#404 = VECTOR ( 'NONE', #403, 1000.000000000000000 ) ;
#405 = CARTESIAN_POINT ( 'NONE',  ( 4.500000000000000000, -1.550000000000000000, -8.400000000000000400 ) ) ;
#406 = EDGE_LOOP ( 'NONE', ( #407, #261, #362, #260 ) ) ;
#407 = ORIENTED_EDGE ( 'NONE', *, *, #179, .T. ) ;
#408 = ORIENTED_EDGE ( 'NONE', *, *, #409, .F. ) ;
#409 = EDGE_CURVE ( 'NONE', #213, #180, #624, .T. ) ;
#410 = ADVANCED_FACE ( 'NONE', ( #620 ), #619, .F. ) ;
#411 = ORIENTED_EDGE ( 'NONE', *, *, #248, .F. ) ;
#412 = ORIENTED_EDGE ( 'NONE', *, *, #329, .F. ) ;
#413 = ORIENTED_EDGE ( 'NONE', *, *, #104, .F. ) ;
#414 = ORIENTED_EDGE ( 'NONE', *, *, #415, .F. ) ;
#415 = EDGE_CURVE ( 'NONE', #172, #212, #614, .T. ) ;
#416 = LINE ( 'NONE', #405, #404 ) ;
#417 = CARTESIAN_POINT ( 'NONE',  ( 4.500000000000000000, -1.550000000000000000, -8.400000000000000400 ) ) ;
#418 = DIRECTION ( 'NONE',  ( 0.0000000000000000000, 0.0000000000000000000, 1.000000000000000000 ) ) ;
#419 = VECTOR ( 'NONE', #418, 1000.000000000000000 ) ;
#420 = CARTESIAN_POINT ( 'NONE',  ( 4.500000000000000000, -1.550000000000000000, -1.200000000000000000 ) ) ;
#421 = LINE ( 'NONE', #420, #419 ) ;
#422 = DIRECTION ( 'NONE',  ( 0.0000000000000000000, 0.0000000000000000000, 1.000000000000000000 ) ) ;
#423 = DIRECTION ( 'NONE',  ( 0.0000000000000000000, 1.000000000000000000, 0.0000000000000000000 ) ) ;
#424 = CARTESIAN_POINT ( 'NONE',  ( 4.500000000000000000, -1.550000000000000000, -1.200000000000000000 ) ) ;
#425 = AXIS2_PLACEMENT_3D ( 'NONE', #424, #423, #422 ) ;
#426 = PLANE ( 'NONE',  #425 ) ;
#427 = DIRECTION ( 'NONE',  ( 0.0000000000000000000, 0.0000000000000000000, -1.000000000000000000 ) ) ;
#428 = DIRECTION ( 'NONE',  ( 1.000000000000000000, 0.0000000000000000000, 0.0000000000000000000 ) ) ;
#429 = CARTESIAN_POINT ( 'NONE',  ( 4.599999999999999600, -25.25000000000000000, -3.092131043401503000E-015 ) ) ;
#430 = AXIS2_PLACEMENT_3D ( 'NONE', #429, #428, #427 ) ;
#431 = FACE_OUTER_BOUND ( 'NONE', #24, .T. ) ;
#432 = PLANE ( 'NONE',  #430 ) ;
#433 = FACE_OUTER_BOUND ( 'NONE', #8, .T. ) ;
#434 = FACE_BOUND ( 'NONE', #21, .T. ) ;
#435 = CARTESIAN_POINT ( 'NONE',  ( 4.599999999999999600, -16.54999999999999700, -1.200000000000001300 ) ) ;
#436 = DIRECTION ( 'NONE',  ( 0.0000000000000000000, -1.000000000000000000, -1.011922027653137500E-016 ) ) ;
#437 = VECTOR ( 'NONE', #436, 1000.000000000000000 ) ;
#438 = CARTESIAN_POINT ( 'NONE',  ( 4.599999999999999600, -1.550000000000000000, -1.200000000000000000 ) ) ;
#439 = LINE ( 'NONE', #438, #437 ) ;
#440 = CARTESIAN_POINT ( 'NONE',  ( 4.599999999999999600, -1.550000000000000000, -1.200000000000000000 ) ) ;
#441 = DIRECTION ( 'NONE',  ( 0.0000000000000000000, 0.0000000000000000000, 1.000000000000000000 ) ) ;
#442 = VECTOR ( 'NONE', #441, 1000.000000000000000 ) ;
#443 = CARTESIAN_POINT ( 'NONE',  ( 4.599999999999999600, -1.550000000000000000, -1.200000000000000000 ) ) ;
#444 = LINE ( 'NONE', #443, #442 ) ;
#445 = CARTESIAN_POINT ( 'NONE',  ( 4.599999999999999600, -1.550000000000000000, -8.400000000000000400 ) ) ;
#446 = DIRECTION ( 'NONE',  ( 0.0000000000000000000, 0.0000000000000000000, -1.000000000000000000 ) ) ;
#447 = VECTOR ( 'NONE', #446, 1000.000000000000000 ) ;
#448 = CARTESIAN_POINT ( 'NONE',  ( 4.599999999999999600, -16.54999999999999700, -1.200000000000001500 ) ) ;
#449 = LINE ( 'NONE', #448, #447 ) ;
#450 = CARTESIAN_POINT ( 'NONE',  ( 2.299999999999999800, -21.50000000000000000, -0.8000000000000003800 ) ) ;
#451 = DIRECTION ( 'NONE',  ( 0.0000000000000000000, -1.000000000000000000, 0.0000000000000000000 ) ) ;
#452 = VECTOR ( 'NONE', #451, 1000.000000000000000 ) ;
#453 = CARTESIAN_POINT ( 'NONE',  ( 2.299999999999999800, -21.50000000000000000, -0.8000000000000000400 ) ) ;
#454 = LINE ( 'NONE', #453, #452 ) ;
#455 = CARTESIAN_POINT ( 'NONE',  ( 2.299999999999999800, -17.50000000000000000, -0.8000000000000003800 ) ) ;
#456 = DIRECTION ( 'NONE',  ( 0.0000000000000000000, 0.0000000000000000000, 1.000000000000000000 ) ) ;
#457 = VECTOR ( 'NONE', #456, 1000.000000000000000 ) ;
#458 = CARTESIAN_POINT ( 'NONE',  ( 2.299999999999999800, -17.50000000000000000, -9.600000000000003200 ) ) ;
#459 = LINE ( 'NONE', #458, #457 ) ;
#460 = CARTESIAN_POINT ( 'NONE',  ( 2.299999999999999800, -17.50000000000000000, -8.799999999999998900 ) ) ;
#461 = DIRECTION ( 'NONE',  ( 0.0000000000000000000, -1.000000000000000000, 0.0000000000000000000 ) ) ;
#462 = VECTOR ( 'NONE', #461, 1000.000000000000000 ) ;
#463 = CARTESIAN_POINT ( 'NONE',  ( 2.299999999999999800, -21.50000000000000000, -8.799999999999998900 ) ) ;
#464 = LINE ( 'NONE', #463, #462 ) ;
#465 = DIRECTION ( 'NONE',  ( 1.020425574104004000E-016, -1.000000000000000000, 0.0000000000000000000 ) ) ;
#466 = DIRECTION ( 'NONE',  ( -1.000000000000000000, -1.020425574104004000E-016, 0.0000000000000000000 ) ) ;
#467 = CARTESIAN_POINT ( 'NONE',  ( 4.599999999999999600, -0.2500000000000000000, -9.599999999999999600 ) ) ;
#468 = AXIS2_PLACEMENT_3D ( 'NONE', #467, #466, #465 ) ;
#469 = PLANE ( 'NONE',  #468 ) ;
#470 = FACE_OUTER_BOUND ( 'NONE', #97, .T. ) ;
#471 = DIRECTION ( 'NONE',  ( 1.020425574104004100E-016, -1.000000000000000000, 0.0000000000000000000 ) ) ;
#472 = VECTOR ( 'NONE', #471, 1000.000000000000000 ) ;
#473 = CARTESIAN_POINT ( 'NONE',  ( 4.599999999999999600, -0.2500000000000000000, -9.599999999999999600 ) ) ;
#474 = LINE ( 'NONE', #473, #472 ) ;
#475 = CARTESIAN_POINT ( 'NONE',  ( 4.599999999999999600, -0.2500000000000000000, 0.0000000000000000000 ) ) ;
#476 = DIRECTION ( 'NONE',  ( 1.020425574104004100E-016, -1.000000000000000000, 0.0000000000000000000 ) ) ;
#477 = VECTOR ( 'NONE', #476, 1000.000000000000000 ) ;
#478 = CARTESIAN_POINT ( 'NONE',  ( 4.599999999999999600, -0.2500000000000000000, 0.0000000000000000000 ) ) ;
#479 = LINE ( 'NONE', #478, #477 ) ;
#480 = CARTESIAN_POINT ( 'NONE',  ( 4.600000000000001400, -17.25000000000000000, -9.599999999999999600 ) ) ;
#481 = CARTESIAN_POINT ( 'NONE',  ( 4.600000000000001400, -17.25000000000000000, 0.0000000000000000000 ) ) ;
#482 = DIRECTION ( 'NONE',  ( -2.642936801223720300E-016, 1.000000000000000000, 0.0000000000000000000 ) ) ;
#483 = VECTOR ( 'NONE', #482, 1000.000000000000000 ) ;
#484 = ORIENTED_EDGE ( 'NONE', *, *, #171, .T. ) ;
#485 = ORIENTED_EDGE ( 'NONE', *, *, #155, .T. ) ;
#486 = ORIENTED_EDGE ( 'NONE', *, *, #183, .T. ) ;
#487 = CARTESIAN_POINT ( 'NONE',  ( 4.500000000000000000, -1.550000000000000000, -1.200000000000000000 ) ) ;
#488 = LINE ( 'NONE', #487, #321 ) ;
#489 = CARTESIAN_POINT ( 'NONE',  ( 4.500000000000000000, -16.54999999999999700, -1.200000000000001500 ) ) ;
#490 = DIRECTION ( 'NONE',  ( 1.000000000000000000, 0.0000000000000000000, 0.0000000000000000000 ) ) ;
#491 = VECTOR ( 'NONE', #490, 1000.000000000000000 ) ;
#492 = CARTESIAN_POINT ( 'NONE',  ( 4.500000000000000000, -16.54999999999999700, -1.200000000000001500 ) ) ;
#493 = LINE ( 'NONE', #492, #491 ) ;
#494 = DIRECTION ( 'NONE',  ( 0.0000000000000000000, 0.0000000000000000000, -1.000000000000000000 ) ) ;
#495 = DIRECTION ( 'NONE',  ( 1.000000000000000000, 0.0000000000000000000, 0.0000000000000000000 ) ) ;
#496 = CARTESIAN_POINT ( 'NONE',  ( 4.500000000000000000, -16.54999999999999700, -1.200000000000001500 ) ) ;
#497 = AXIS2_PLACEMENT_3D ( 'NONE', #496, #495, #494 ) ;
#498 = PLANE ( 'NONE',  #497 ) ;
#499 = FACE_OUTER_BOUND ( 'NONE', #51, .T. ) ;
#500 = DIRECTION ( 'NONE',  ( 0.4984711242580826000, 0.8669063030575352400, 0.0000000000000000000 ) ) ;
#501 = VECTOR ( 'NONE', #500, 1000.000000000000100 ) ;
#502 = CARTESIAN_POINT ( 'NONE',  ( 4.599999999999999600, -17.50000000000000000, -8.799999999999998900 ) ) ;
#503 = LINE ( 'NONE', #502, #501 ) ;
#504 = DIRECTION ( 'NONE',  ( 0.4984711242580826000, 0.8669063030575352400, 0.0000000000000000000 ) ) ;
#505 = DIRECTION ( 'NONE',  ( 0.8669063030575352400, -0.4984711242580826000, 0.0000000000000000000 ) ) ;
#506 = CARTESIAN_POINT ( 'NONE',  ( 4.599999999999999600, -17.50000000000000000, -9.599999999999999600 ) ) ;
#507 = AXIS2_PLACEMENT_3D ( 'NONE', #506, #505, #504 ) ;
#508 = PLANE ( 'NONE',  #507 ) ;
#509 = FACE_OUTER_BOUND ( 'NONE', #43, .T. ) ;
#510 = DIRECTION ( 'NONE',  ( 1.000000000000000000, 0.0000000000000000000, 0.0000000000000000000 ) ) ;
#511 = VECTOR ( 'NONE', #510, 1000.000000000000000 ) ;
#512 = CARTESIAN_POINT ( 'NONE',  ( 4.500000000000000000, -16.54999999999999700, -8.400000000000000400 ) ) ;
#513 = LINE ( 'NONE', #512, #511 ) ;
#514 = VECTOR ( 'NONE', #582, 1000.000000000000000 ) ;
#515 = CARTESIAN_POINT ( 'NONE',  ( -1.500000000000000000, -8.750000000000000000, -5.949999999999999300 ) ) ;
#516 = LINE ( 'NONE', #515, #514 ) ;
#517 = CARTESIAN_POINT ( 'NONE',  ( 0.0000000000000000000, -8.750000000000000000, -3.649999999999999500 ) ) ;
#518 = DIRECTION ( 'NONE',  ( -1.000000000000000000, 0.0000000000000000000, 0.0000000000000000000 ) ) ;
#519 = DIRECTION ( 'NONE',  ( 0.0000000000000000000, 0.0000000000000000000, -1.000000000000000000 ) ) ;
#520 = DIRECTION ( 'NONE',  ( 0.0000000000000000000, 1.000000000000000000, 2.061057595219968700E-016 ) ) ;
#521 = VECTOR ( 'NONE', #520, 1000.000000000000000 ) ;
#522 = CARTESIAN_POINT ( 'NONE',  ( 0.0000000000000000000, 0.0000000000000000000, -9.599999999999997900 ) ) ;
#523 = LINE ( 'NONE', #522, #521 ) ;
#524 = CARTESIAN_POINT ( 'NONE',  ( 0.0000000000000000000, -25.25000000000000000, -9.600000000000003200 ) ) ;
#525 = CARTESIAN_POINT ( 'NONE',  ( 0.0000000000000000000, 0.0000000000000000000, -9.599999999999997900 ) ) ;
#526 = DIRECTION ( 'NONE',  ( 0.0000000000000000000, 0.0000000000000000000, 1.000000000000000000 ) ) ;
#527 = VECTOR ( 'NONE', #526, 1000.000000000000000 ) ;
#528 = CARTESIAN_POINT ( 'NONE',  ( 0.0000000000000000000, 0.0000000000000000000, 0.0000000000000000000 ) ) ;
#529 = LINE ( 'NONE', #528, #527 ) ;
#530 = CARTESIAN_POINT ( 'NONE',  ( 2.299999999999999800, -21.50000000000000000, -8.799999999999998900 ) ) ;
#531 = DIRECTION ( 'NONE',  ( 0.0000000000000000000, 0.0000000000000000000, 1.000000000000000000 ) ) ;
#532 = VECTOR ( 'NONE', #531, 1000.000000000000000 ) ;
#533 = CARTESIAN_POINT ( 'NONE',  ( 2.299999999999999800, -21.50000000000000000, -9.599999999999999600 ) ) ;
#534 = LINE ( 'NONE', #533, #532 ) ;
#535 = CARTESIAN_POINT ( 'NONE',  ( 2.299999999999999800, -25.25000000000000000, -9.600000000000003200 ) ) ;
#536 = CARTESIAN_POINT ( 'NONE',  ( 2.299999999999999800, -21.50000000000000000, -9.599999999999999600 ) ) ;
#537 = DIRECTION ( 'NONE',  ( 0.0000000000000000000, -1.000000000000000000, 0.0000000000000000000 ) ) ;
#538 = VECTOR ( 'NONE', #537, 1000.000000000000000 ) ;
#539 = CARTESIAN_POINT ( 'NONE',  ( 2.299999999999999800, -25.25000000000000000, -9.600000000000003200 ) ) ;
#540 = LINE ( 'NONE', #539, #538 ) ;
#541 = DIRECTION ( 'NONE',  ( -1.000000000000000000, 0.0000000000000000000, 0.0000000000000000000 ) ) ;
#542 = VECTOR ( 'NONE', #541, 1000.000000000000000 ) ;
#543 = CARTESIAN_POINT ( 'NONE',  ( 4.599999999999999600, -25.25000000000000000, -3.092131043401503000E-015 ) ) ;
#544 = LINE ( 'NONE', #543, #542 ) ;
#545 = DIRECTION ( 'NONE',  ( -1.000000000000000000, 0.0000000000000000000, 0.0000000000000000000 ) ) ;
#546 = VECTOR ( 'NONE', #545, 1000.000000000000000 ) ;
#547 = CARTESIAN_POINT ( 'NONE',  ( 4.599999999999999600, 0.0000000000000000000, 0.0000000000000000000 ) ) ;
#548 = LINE ( 'NONE', #547, #546 ) ;
#549 = CARTESIAN_POINT ( 'NONE',  ( 4.599999999999999600, 0.0000000000000000000, 0.0000000000000000000 ) ) ;
#550 = DIRECTION ( 'NONE',  ( 0.0000000000000000000, -1.000000000000000000, -1.224606353822377300E-016 ) ) ;
#551 = VECTOR ( 'NONE', #550, 1000.000000000000000 ) ;
#552 = CARTESIAN_POINT ( 'NONE',  ( 4.599999999999999600, 0.0000000000000000000, 0.0000000000000000000 ) ) ;
#553 = LINE ( 'NONE', #552, #551 ) ;
#554 = CARTESIAN_POINT ( 'NONE',  ( 4.599999999999999600, -17.50000000000000000, 0.0000000000000000000 ) ) ;
#555 = DIRECTION ( 'NONE',  ( 0.4984711242580826000, 0.8669063030575352400, 0.0000000000000000000 ) ) ;
#556 = VECTOR ( 'NONE', #555, 1000.000000000000100 ) ;
#557 = CARTESIAN_POINT ( 'NONE',  ( 4.599999999999999600, -17.50000000000000000, 0.0000000000000000000 ) ) ;
#558 = LINE ( 'NONE', #557, #556 ) ;
#559 = DIRECTION ( 'NONE',  ( 0.0000000000000000000, 1.000000000000000000, 1.224606353822377300E-016 ) ) ;
#560 = DIRECTION ( 'NONE',  ( 0.0000000000000000000, 1.224606353822377300E-016, -1.000000000000000000 ) ) ;
#561 = CARTESIAN_POINT ( 'NONE',  ( 4.599999999999999600, 0.0000000000000000000, 0.0000000000000000000 ) ) ;
#562 = AXIS2_PLACEMENT_3D ( 'NONE', #561, #560, #559 ) ;
#563 = PLANE ( 'NONE',  #562 ) ;
#564 = FACE_OUTER_BOUND ( 'NONE', #249, .T. ) ;
#565 = DIRECTION ( 'NONE',  ( -1.000000000000000000, 0.0000000000000000000, 0.0000000000000000000 ) ) ;
#566 = VECTOR ( 'NONE', #565, 1000.000000000000000 ) ;
#567 = CARTESIAN_POINT ( 'NONE',  ( 4.599999999999999600, -25.25000000000000000, -9.600000000000003200 ) ) ;
#568 = LINE ( 'NONE', #567, #566 ) ;
#569 = DIRECTION ( 'NONE',  ( 0.0000000000000000000, 0.0000000000000000000, 1.000000000000000000 ) ) ;
#570 = DIRECTION ( 'NONE',  ( 0.0000000000000000000, 1.000000000000000000, 0.0000000000000000000 ) ) ;
#571 = CARTESIAN_POINT ( 'NONE',  ( 4.599999999999999600, -25.25000000000000000, -3.092131043401503000E-015 ) ) ;
#572 = AXIS2_PLACEMENT_3D ( 'NONE', #571, #570, #569 ) ;
#573 = PLANE ( 'NONE',  #572 ) ;
#574 = FACE_OUTER_BOUND ( 'NONE', #153, .T. ) ;
#575 = CARTESIAN_POINT ( 'NONE',  ( 2.299999999999999800, -21.75000000000000400, -6.399999999999999500 ) ) ;
#576 = CARTESIAN_POINT ( 'NONE',  ( 0.0000000000000000000, -21.75000000000000400, -3.199999999999999300 ) ) ;
#577 = DIRECTION ( 'NONE',  ( 0.0000000000000000000, 0.0000000000000000000, -1.000000000000000000 ) ) ;
#578 = PLANE ( 'NONE',  #599 ) ;
#579 = FACE_BOUND ( 'NONE', #190, .T. ) ;
#580 = FACE_BOUND ( 'NONE', #186, .T. ) ;
#581 = FACE_OUTER_BOUND ( 'NONE', #143, .T. ) ;
#582 = DIRECTION ( 'NONE',  ( 1.000000000000000000, 0.0000000000000000000, 0.0000000000000000000 ) ) ;
#583 = DIRECTION ( 'NONE',  ( 1.000000000000000000, 0.0000000000000000000, 0.0000000000000000000 ) ) ;
#584 = CARTESIAN_POINT ( 'NONE',  ( 0.0000000000000000000, -21.75000000000000400, -4.799999999999999800 ) ) ;
#585 = AXIS2_PLACEMENT_3D ( 'NONE', #584, #583, #577 ) ;
#586 = CIRCLE ( 'NONE', #585, 1.599999999999999900 ) ;
#587 = CARTESIAN_POINT ( 'NONE',  ( 0.0000000000000000000, -21.75000000000000400, -6.399999999999999500 ) ) ;
#588 = DIRECTION ( 'NONE',  ( -1.000000000000000000, 0.0000000000000000000, 0.0000000000000000000 ) ) ;
#589 = VECTOR ( 'NONE', #588, 1000.000000000000000 ) ;
#590 = CARTESIAN_POINT ( 'NONE',  ( 4.599999999999999600, -21.75000000000000400, -6.399999999999999500 ) ) ;
#591 = CARTESIAN_POINT ( 'NONE',  ( 0.0000000000000000000, -8.750000000000000000, -5.949999999999999300 ) ) ;
#592 = DIRECTION ( 'NONE',  ( 0.0000000000000000000, 0.0000000000000000000, -1.000000000000000000 ) ) ;
#593 = DIRECTION ( 'NONE',  ( 1.000000000000000000, 0.0000000000000000000, 0.0000000000000000000 ) ) ;
#594 = CARTESIAN_POINT ( 'NONE',  ( 0.0000000000000000000, -8.750000000000000000, -4.799999999999999800 ) ) ;
#595 = AXIS2_PLACEMENT_3D ( 'NONE', #601, #519, #518 ) ;
#596 = CARTESIAN_POINT ( 'NONE',  ( 6.500000000000003600, -17.15042521936223000, 0.0000000000000000000 ) ) ;
#597 = PLANE ( 'NONE',  #595 ) ;
#598 = FACE_OUTER_BOUND ( 'NONE', #120, .T. ) ;
#599 = AXIS2_PLACEMENT_3D ( 'NONE', #606, #605, #604 ) ;
#600 = AXIS2_PLACEMENT_3D ( 'NONE', #594, #593, #592 ) ;
#601 = CARTESIAN_POINT ( 'NONE',  ( 4.600000000000001400, -17.25000000000000000, -9.599999999999999600 ) ) ;
#602 = CIRCLE ( 'NONE', #600, 1.149999999999999900 ) ;
#603 = LINE ( 'NONE', #590, #589 ) ;
#604 = DIRECTION ( 'NONE',  ( 0.0000000000000000000, 0.0000000000000000000, -1.000000000000000000 ) ) ;
#605 = DIRECTION ( 'NONE',  ( 1.000000000000000000, 0.0000000000000000000, 0.0000000000000000000 ) ) ;
#606 = CARTESIAN_POINT ( 'NONE',  ( 0.0000000000000000000, -25.25000000000000000, -3.092131043401503000E-015 ) ) ;
#607 = CARTESIAN_POINT ( 'NONE',  ( 0.0000000000000000000, -8.750000000000000000, -4.799999999999999800 ) ) ;
#608 = AXIS2_PLACEMENT_3D ( 'NONE', #607, #267, #262 ) ;
#609 = CIRCLE ( 'NONE', #608, 1.149999999999999900 ) ;
#610 = DIRECTION ( 'NONE',  ( 0.0000000000000000000, 0.0000000000000000000, -1.000000000000000000 ) ) ;
#611 = VECTOR ( 'NONE', #610, 1000.000000000000000 ) ;
#612 = CARTESIAN_POINT ( 'NONE',  ( 0.0000000000000000000, -25.25000000000000000, -3.092131043401503000E-015 ) ) ;
#613 = LINE ( 'NONE', #612, #611 ) ;
#614 = LINE ( 'NONE', #687, #686 ) ;
#615 = DIRECTION ( 'NONE',  ( 0.0000000000000000000, 0.0000000000000000000, -1.000000000000000000 ) ) ;
#616 = DIRECTION ( 'NONE',  ( 0.0000000000000000000, -1.000000000000000000, 0.0000000000000000000 ) ) ;
#617 = CARTESIAN_POINT ( 'NONE',  ( 4.599999999999999600, 0.0000000000000000000, 0.0000000000000000000 ) ) ;
#618 = AXIS2_PLACEMENT_3D ( 'NONE', #617, #616, #615 ) ;
#619 = PLANE ( 'NONE',  #618 ) ;
#620 = FACE_OUTER_BOUND ( 'NONE', #406, .T. ) ;
#621 = DIRECTION ( 'NONE',  ( -1.000000000000000000, 0.0000000000000000000, 0.0000000000000000000 ) ) ;
#622 = VECTOR ( 'NONE', #621, 1000.000000000000000 ) ;
#623 = CARTESIAN_POINT ( 'NONE',  ( 4.599999999999999600, 0.0000000000000000000, -9.599999999999997900 ) ) ;
#624 = LINE ( 'NONE', #623, #622 ) ;
#625 = DIRECTION ( 'NONE',  ( 1.000000000000000000, 0.0000000000000000000, 0.0000000000000000000 ) ) ;
#626 = DIRECTION ( 'NONE',  ( 0.0000000000000000000, 0.0000000000000000000, 1.000000000000000000 ) ) ;
#627 = CARTESIAN_POINT ( 'NONE',  ( 2.299999999999999800, -17.50000000000000000, -0.8000000000000000400 ) ) ;
#628 = AXIS2_PLACEMENT_3D ( 'NONE', #627, #626, #625 ) ;
#629 = PLANE ( 'NONE',  #628 ) ;
#630 = FACE_OUTER_BOUND ( 'NONE', #364, .T. ) ;
#631 = DIRECTION ( 'NONE',  ( 0.0000000000000000000, 0.0000000000000000000, -1.000000000000000000 ) ) ;
#632 = DIRECTION ( 'NONE',  ( 1.000000000000000000, 0.0000000000000000000, 0.0000000000000000000 ) ) ;
#633 = CARTESIAN_POINT ( 'NONE',  ( -1.500000000000000000, -8.750000000000000000, -4.799999999999999800 ) ) ;
#634 = CARTESIAN_POINT ( 'NONE',  ( -1.500000000000000000, -8.750000000000000000, -3.649999999999999500 ) ) ;
#635 = LINE ( 'NONE', #634, #786 ) ;
#636 = CARTESIAN_POINT ( 'NONE',  ( -1.500000000000000000, -8.750000000000000000, -3.649999999999999500 ) ) ;
#637 = CARTESIAN_POINT ( 'NONE',  ( -1.500000000000000000, -8.750000000000000000, -5.949999999999999300 ) ) ;
#638 = CARTESIAN_POINT ( 'NONE',  ( 4.599999999999999600, 0.0000000000000000000, -9.599999999999997900 ) ) ;
#639 = CARTESIAN_POINT ( 'NONE',  ( 4.599999999999999600, -17.50000000000000000, -9.599999999999999600 ) ) ;
#640 = DIRECTION ( 'NONE',  ( 0.0000000000000000000, 1.000000000000000000, 2.061057595219968700E-016 ) ) ;
#641 = VECTOR ( 'NONE', #640, 1000.000000000000000 ) ;
#642 = CARTESIAN_POINT ( 'NONE',  ( 4.599999999999999600, 0.0000000000000000000, -9.599999999999997900 ) ) ;
#643 = VECTOR ( 'NONE', #718, 1000.000000000000000 ) ;
#644 = CARTESIAN_POINT ( 'NONE',  ( 0.0000000000000000000, 0.0000000000000000000, 0.0000000000000000000 ) ) ;
#645 = LINE ( 'NONE', #644, #643 ) ;
#646 = DIRECTION ( 'NONE',  ( 0.0000000000000000000, 0.0000000000000000000, -1.000000000000000000 ) ) ;
#647 = DIRECTION ( 'NONE',  ( 1.000000000000000000, 0.0000000000000000000, 0.0000000000000000000 ) ) ;
#648 = AXIS2_PLACEMENT_3D ( 'NONE', #655, #647, #646 ) ;
#649 = CIRCLE ( 'NONE', #648, 1.149999999999999900 ) ;
#650 = DIRECTION ( 'NONE',  ( 0.0000000000000000000, 0.0000000000000000000, -1.000000000000000000 ) ) ;
#651 = DIRECTION ( 'NONE',  ( 1.000000000000000000, 0.0000000000000000000, 0.0000000000000000000 ) ) ;
#652 = CARTESIAN_POINT ( 'NONE',  ( -1.500000000000000000, -8.750000000000000000, -4.799999999999999800 ) ) ;
#653 = AXIS2_PLACEMENT_3D ( 'NONE', #652, #651, #650 ) ;
#654 = CYLINDRICAL_SURFACE ( 'NONE', #653, 1.149999999999999900 ) ;
#655 = CARTESIAN_POINT ( 'NONE',  ( -1.500000000000000000, -8.750000000000000000, -4.799999999999999800 ) ) ;
#656 = FACE_OUTER_BOUND ( 'NONE', #150, .T. ) ;
#657 = DIRECTION ( 'NONE',  ( -1.000000000000000000, 0.0000000000000000000, 0.0000000000000000000 ) ) ;
#658 = VECTOR ( 'NONE', #657, 1000.000000000000000 ) ;
#659 = CARTESIAN_POINT ( 'NONE',  ( 4.599999999999999600, -21.75000000000000400, -3.199999999999999700 ) ) ;
#660 = LINE ( 'NONE', #659, #658 ) ;
#661 = DIRECTION ( 'NONE',  ( -1.000000000000000000, 0.0000000000000000000, 0.0000000000000000000 ) ) ;
#662 = VECTOR ( 'NONE', #661, 1000.000000000000000 ) ;
#663 = CARTESIAN_POINT ( 'NONE',  ( 2.299999999999999800, -17.50000000000000000, -0.8000000000000000400 ) ) ;
#664 = LINE ( 'NONE', #663, #662 ) ;
#665 = CARTESIAN_POINT ( 'NONE',  ( 4.599999999999999600, -17.50000000000000000, -0.8000000000000003800 ) ) ;
#666 = DIRECTION ( 'NONE',  ( 0.0000000000000000000, 0.0000000000000000000, 1.000000000000000000 ) ) ;
#667 = VECTOR ( 'NONE', #666, 1000.000000000000000 ) ;
#668 = CARTESIAN_POINT ( 'NONE',  ( 4.599999999999999600, -17.50000000000000000, -9.600000000000003200 ) ) ;
#669 = LINE ( 'NONE', #668, #667 ) ;
#670 = CARTESIAN_POINT ( 'NONE',  ( 4.599999999999999600, -17.50000000000000000, -8.799999999999998900 ) ) ;
#671 = DIRECTION ( 'NONE',  ( -1.000000000000000000, 0.0000000000000000000, 0.0000000000000000000 ) ) ;
#672 = VECTOR ( 'NONE', #671, 1000.000000000000000 ) ;
#673 = CARTESIAN_POINT ( 'NONE',  ( 2.299999999999999800, -17.50000000000000000, -8.799999999999998900 ) ) ;
#674 = LINE ( 'NONE', #673, #672 ) ;
#675 = DIRECTION ( 'NONE',  ( 0.0000000000000000000, 0.0000000000000000000, 1.000000000000000000 ) ) ;
#676 = DIRECTION ( 'NONE',  ( -1.000000000000000000, 0.0000000000000000000, 0.0000000000000000000 ) ) ;
#677 = CARTESIAN_POINT ( 'NONE',  ( -0.004799999999999999600, 0.008999999999999999300, -0.004599999999999999900 ) ) ;
#678 = AXIS2_PLACEMENT_3D ( 'NONE', #677, #676, #675 ) ;
#679 = ADVANCED_BREP_SHAPE_REPRESENTATION ( 'RF-200', ( #94, #111, #678 ), #680 ) ;
#680 =( GEOMETRIC_REPRESENTATION_CONTEXT ( 3 ) GLOBAL_UNCERTAINTY_ASSIGNED_CONTEXT ( ( #681 ) ) GLOBAL_UNIT_ASSIGNED_CONTEXT ( ( #684, #683, #682 ) ) REPRESENTATION_CONTEXT ( 'NONE', 'WORKASPACE' ) );
#681 = UNCERTAINTY_MEASURE_WITH_UNIT (LENGTH_MEASURE( 1.000000000000000100E-005 ), #684, 'distance_accuracy_value', 'NONE');
#682 =( NAMED_UNIT ( * ) SI_UNIT ( $, .STERADIAN. ) SOLID_ANGLE_UNIT ( ) );
#683 =( NAMED_UNIT ( * ) PLANE_ANGLE_UNIT ( ) SI_UNIT ( $, .RADIAN. ) );
#684 =( LENGTH_UNIT ( ) NAMED_UNIT ( * ) SI_UNIT ( .MILLI., .METRE. ) );
#685 = DIRECTION ( 'NONE',  ( 0.4984711242580826000, 0.8669063030575352400, 0.0000000000000000000 ) ) ;
#686 = VECTOR ( 'NONE', #685, 1000.000000000000100 ) ;
#687 = CARTESIAN_POINT ( 'NONE',  ( 4.599999999999999600, -17.50000000000000000, -9.599999999999999600 ) ) ;
#688 = AXIS2_PLACEMENT_3D ( 'NONE', #633, #632, #631 ) ;
#689 = PLANE ( 'NONE',  #688 ) ;
#690 = DIRECTION ( 'NONE',  ( 0.0000000000000000000, 0.0000000000000000000, 1.000000000000000000 ) ) ;
#691 = DIRECTION ( 'NONE',  ( -1.000000000000000000, 0.0000000000000000000, 0.0000000000000000000 ) ) ;
#692 = AXIS2_PLACEMENT_3D ( 'NONE', #695, #691, #690 ) ;
#693 = CYLINDRICAL_SURFACE ( 'NONE', #692, 1.599999999999999900 ) ;
#694 = FACE_OUTER_BOUND ( 'NONE', #360, .T. ) ;
#695 = CARTESIAN_POINT ( 'NONE',  ( 4.599999999999999600, -21.75000000000000400, -4.799999999999999800 ) ) ;
#696 = FACE_OUTER_BOUND ( 'NONE', #325, .T. ) ;
#697 = DIRECTION ( 'NONE',  ( 0.4984711242580826000, 0.8669063030575352400, 0.0000000000000000000 ) ) ;
#698 = VECTOR ( 'NONE', #697, 1000.000000000000100 ) ;
#699 = CARTESIAN_POINT ( 'NONE',  ( 4.599999999999999600, -17.50000000000000000, -0.8000000000000000400 ) ) ;
#700 = LINE ( 'NONE', #699, #698 ) ;
#701 = DIRECTION ( 'NONE',  ( 0.0000000000000000000, 0.0000000000000000000, -1.000000000000000000 ) ) ;
#702 = DIRECTION ( 'NONE',  ( 1.000000000000000000, 0.0000000000000000000, 0.0000000000000000000 ) ) ;
#703 = AXIS2_PLACEMENT_3D ( 'NONE', #709, #702, #701 ) ;
#704 = CIRCLE ( 'NONE', #703, 1.149999999999999900 ) ;
#705 = DIRECTION ( 'NONE',  ( 0.0000000000000000000, 0.0000000000000000000, -1.000000000000000000 ) ) ;
#706 = DIRECTION ( 'NONE',  ( 1.000000000000000000, 0.0000000000000000000, 0.0000000000000000000 ) ) ;
#707 = CARTESIAN_POINT ( 'NONE',  ( -1.500000000000000000, -8.750000000000000000, -4.799999999999999800 ) ) ;
#708 = AXIS2_PLACEMENT_3D ( 'NONE', #707, #706, #705 ) ;
#709 = CARTESIAN_POINT ( 'NONE',  ( -1.500000000000000000, -8.750000000000000000, -4.799999999999999800 ) ) ;
#710 = CYLINDRICAL_SURFACE ( 'NONE', #708, 1.149999999999999900 ) ;
#711 = FACE_OUTER_BOUND ( 'NONE', #357, .T. ) ;
#712 = DIRECTION ( 'NONE',  ( 0.0000000000000000000, 0.0000000000000000000, 1.000000000000000000 ) ) ;
#713 = VECTOR ( 'NONE', #712, 1000.000000000000000 ) ;
#714 = CARTESIAN_POINT ( 'NONE',  ( 4.599999999999999600, 0.0000000000000000000, 0.0000000000000000000 ) ) ;
#715 = LINE ( 'NONE', #714, #713 ) ;
#716 = CARTESIAN_POINT ( 'NONE',  ( 0.0000000000000000000, -25.25000000000000000, -3.092131043401503000E-015 ) ) ;
#717 = CARTESIAN_POINT ( 'NONE',  ( 0.0000000000000000000, 0.0000000000000000000, 0.0000000000000000000 ) ) ;
#718 = DIRECTION ( 'NONE',  ( 0.0000000000000000000, -1.000000000000000000, -1.224606353822377300E-016 ) ) ;
#719 = DIRECTION ( 'NONE',  ( 0.0000000000000000000, -1.000000000000000000, -2.061057595219968700E-016 ) ) ;
#720 = DIRECTION ( 'NONE',  ( 0.0000000000000000000, -2.061057595219968700E-016, 1.000000000000000000 ) ) ;
#721 = CARTESIAN_POINT ( 'NONE',  ( 4.599999999999999600, 0.0000000000000000000, -9.599999999999997900 ) ) ;
#722 = AXIS2_PLACEMENT_3D ( 'NONE', #721, #720, #719 ) ;
#723 = PLANE ( 'NONE',  #722 ) ;
#724 = LINE ( 'NONE', #642, #641 ) ;
#725 = FACE_OUTER_BOUND ( 'NONE', #209, .T. ) ;
#726 = DIRECTION ( 'NONE',  ( 0.0000000000000000000, 0.0000000000000000000, 1.000000000000000000 ) ) ;
#727 = VECTOR ( 'NONE', #726, 1000.000000000000000 ) ;
#728 = CARTESIAN_POINT ( 'NONE',  ( 2.299999999999999800, -25.25000000000000000, -9.600000000000003200 ) ) ;
#729 = LINE ( 'NONE', #728, #727 ) ;
#730 = CARTESIAN_POINT ( 'NONE',  ( 2.299999999999999800, -25.25000000000000000, 0.0000000000000000000 ) ) ;
#731 = DIRECTION ( 'NONE',  ( 0.0000000000000000000, -1.000000000000000000, 0.0000000000000000000 ) ) ;
#732 = VECTOR ( 'NONE', #731, 1000.000000000000000 ) ;
#733 = CARTESIAN_POINT ( 'NONE',  ( 2.299999999999999800, -25.25000000000000000, 0.0000000000000000000 ) ) ;
#734 = LINE ( 'NONE', #733, #732 ) ;
#735 = CARTESIAN_POINT ( 'NONE',  ( 2.299999999999999800, -21.50000000000000000, 0.0000000000000000000 ) ) ;
#736 = DIRECTION ( 'NONE',  ( 0.0000000000000000000, 0.0000000000000000000, 1.000000000000000000 ) ) ;
#737 = VECTOR ( 'NONE', #736, 1000.000000000000000 ) ;
#738 = CARTESIAN_POINT ( 'NONE',  ( 2.299999999999999800, -21.50000000000000000, -0.8000000000000000400 ) ) ;
#739 = LINE ( 'NONE', #738, #737 ) ;
#740 = DIRECTION ( 'NONE',  ( 0.0000000000000000000, 0.0000000000000000000, 1.000000000000000000 ) ) ;
#741 = DIRECTION ( 'NONE',  ( -1.000000000000000000, 0.0000000000000000000, 0.0000000000000000000 ) ) ;
#742 = CARTESIAN_POINT ( 'NONE',  ( 2.299999999999999800, -25.25000000000000000, -9.600000000000003200 ) ) ;
#743 = AXIS2_PLACEMENT_3D ( 'NONE', #742, #741, #740 ) ;
#744 = PLANE ( 'NONE',  #743 ) ;
#745 = FACE_BOUND ( 'NONE', #205, .T. ) ;
#746 = FACE_OUTER_BOUND ( 'NONE', #195, .T. ) ;
#747 = DIRECTION ( 'NONE',  ( 0.0000000000000000000, 0.0000000000000000000, -1.000000000000000000 ) ) ;
#748 = DIRECTION ( 'NONE',  ( 1.000000000000000000, 0.0000000000000000000, 0.0000000000000000000 ) ) ;
#749 = CARTESIAN_POINT ( 'NONE',  ( 0.0000000000000000000, -21.75000000000000400, -4.799999999999999800 ) ) ;
#750 = AXIS2_PLACEMENT_3D ( 'NONE', #749, #748, #747 ) ;
#751 = CIRCLE ( 'NONE', #750, 1.599999999999999900 ) ;
#752 = DIRECTION ( 'NONE',  ( 0.0000000000000000000, 0.0000000000000000000, 1.000000000000000000 ) ) ;
#753 = DIRECTION ( 'NONE',  ( 0.0000000000000000000, 1.000000000000000000, 0.0000000000000000000 ) ) ;
#754 = CARTESIAN_POINT ( 'NONE',  ( 4.599999999999999600, -17.50000000000000000, -9.600000000000003200 ) ) ;
#755 = AXIS2_PLACEMENT_3D ( 'NONE', #754, #753, #752 ) ;
#756 = PLANE ( 'NONE',  #755 ) ;
#757 = FACE_OUTER_BOUND ( 'NONE', #239, .T. ) ;
#758 = DIRECTION ( 'NONE',  ( 0.0000000000000000000, 0.0000000000000000000, 1.000000000000000000 ) ) ;
#759 = DIRECTION ( 'NONE',  ( 1.000000000000000000, 0.0000000000000000000, 0.0000000000000000000 ) ) ;
#760 = CARTESIAN_POINT ( 'NONE',  ( 2.299999999999999800, -21.75000000000000400, -4.799999999999999800 ) ) ;
#761 = AXIS2_PLACEMENT_3D ( 'NONE', #760, #759, #758 ) ;
#762 = CIRCLE ( 'NONE', #761, 1.599999999999999900 ) ;
#763 = DIRECTION ( 'NONE',  ( 0.4984711242580826000, 0.8669063030575352400, 0.0000000000000000000 ) ) ;
#764 = DIRECTION ( 'NONE',  ( 0.8669063030575352400, -0.4984711242580826000, 0.0000000000000000000 ) ) ;
#765 = CARTESIAN_POINT ( 'NONE',  ( 4.599999999999999600, -17.50000000000000000, -0.8000000000000000400 ) ) ;
#766 = AXIS2_PLACEMENT_3D ( 'NONE', #765, #764, #763 ) ;
#767 = PLANE ( 'NONE',  #766 ) ;
#768 = FACE_OUTER_BOUND ( 'NONE', #232, .T. ) ;
#769 = DIRECTION ( 'NONE',  ( 0.0000000000000000000, 0.0000000000000000000, 1.000000000000000000 ) ) ;
#770 = VECTOR ( 'NONE', #769, 1000.000000000000000 ) ;
#771 = CARTESIAN_POINT ( 'NONE',  ( 4.599999999999999600, -17.50000000000000000, -0.8000000000000000400 ) ) ;
#772 = LINE ( 'NONE', #771, #770 ) ;
#773 = DIRECTION ( 'NONE',  ( 0.0000000000000000000, -1.000000000000000000, -1.011922027653137500E-016 ) ) ;
#774 = DIRECTION ( 'NONE',  ( 0.0000000000000000000, -1.011922027653137500E-016, 1.000000000000000000 ) ) ;
#775 = CARTESIAN_POINT ( 'NONE',  ( 4.500000000000000000, -1.550000000000000000, -1.200000000000000000 ) ) ;
#776 = AXIS2_PLACEMENT_3D ( 'NONE', #775, #774, #773 ) ;
#777 = PLANE ( 'NONE',  #776 ) ;
#778 = FACE_OUTER_BOUND ( 'NONE', #54, .T. ) ;
#779 = DIRECTION ( 'NONE',  ( 1.000000000000000000, 0.0000000000000000000, 0.0000000000000000000 ) ) ;
#780 = DIRECTION ( 'NONE',  ( 0.0000000000000000000, 0.0000000000000000000, 1.000000000000000000 ) ) ;
#781 = CARTESIAN_POINT ( 'NONE',  ( 2.299999999999999800, -17.50000000000000000, -8.799999999999998900 ) ) ;
#782 = AXIS2_PLACEMENT_3D ( 'NONE', #781, #780, #779 ) ;
#783 = PLANE ( 'NONE',  #782 ) ;
#784 = FACE_OUTER_BOUND ( 'NONE', #220, .T. ) ;
#785 = DIRECTION ( 'NONE',  ( 1.000000000000000000, 0.0000000000000000000, 0.0000000000000000000 ) ) ;
#786 = VECTOR ( 'NONE', #785, 1000.000000000000000 ) ;
#787 = CC_DESIGN_PERSON_AND_ORGANIZATION_ASSIGNMENT ( #789, #788, ( #792 ) ) ;
#788 = PERSON_AND_ORGANIZATION_ROLE ( 'design_owner' ) ;
#789 = PERSON_AND_ORGANIZATION ( #791, #790 ) ;
#790 = ORGANIZATION ( 'UNSPECIFIED', 'UNSPECIFIED', '' ) ;
#791 = PERSON ( 'UNSPECIFIED', 'UNSPECIFIED', 'UNSPECIFIED', ('UNSPECIFIED'), ('UNSPECIFIED'), ('UNSPECIFIED') ) ;
#792 = PRODUCT ( 'RF-200', 'RF-200', '', ( #793 ) ) ;
#793 = MECHANICAL_CONTEXT ( 'NONE', #795, 'mechanical' ) ;
#794 = APPLICATION_PROTOCOL_DEFINITION ( 'international standard', 'config_control_design', 1994, #795 ) ;
#795 = APPLICATION_CONTEXT ( 'configuration controlled 3d designs of mechanical parts and assemblies' ) ;
#796 = PRODUCT_DEFINITION_SHAPE ( 'NONE', 'NONE',  #837 ) ;
#797 = PRODUCT_RELATED_PRODUCT_CATEGORY ( 'detail', '', ( #792 ) ) ;
#798 = CC_DESIGN_SECURITY_CLASSIFICATION ( #819, ( #842 ) ) ;
#799 = CC_DESIGN_APPROVAL ( #807, ( #819 ) ) ;
#800 = APPROVAL_DATE_TIME ( #801, #807 ) ;
#801 = DATE_AND_TIME ( #802, #803 ) ;
#802 = CALENDAR_DATE ( 2005, 5, 9 ) ;
#803 = LOCAL_TIME ( 16, 32, 4.000000000000000000, #804 ) ;
#804 = COORDINATED_UNIVERSAL_TIME_OFFSET ( 9, 0, .AHEAD. ) ;
#805 = APPROVAL_PERSON_ORGANIZATION ( #809, #807, #806 ) ;
#806 = APPROVAL_ROLE ( '' ) ;
#807 = APPROVAL ( #808, 'UNSPECIFIED' ) ;
#808 = APPROVAL_STATUS ( 'not_yet_approved' ) ;
#809 = PERSON_AND_ORGANIZATION ( #791, #790 ) ;
#810 = CC_DESIGN_DATE_AND_TIME_ASSIGNMENT ( #812, #811, ( #819 ) ) ;
#811 = DATE_TIME_ROLE ( 'classification_date' ) ;
#812 = DATE_AND_TIME ( #813, #814 ) ;
#813 = CALENDAR_DATE ( 2005, 5, 9 ) ;
#814 = LOCAL_TIME ( 16, 32, 4.000000000000000000, #815 ) ;
#815 = COORDINATED_UNIVERSAL_TIME_OFFSET ( 9, 0, .AHEAD. ) ;
#816 = CC_DESIGN_PERSON_AND_ORGANIZATION_ASSIGNMENT ( #818, #817, ( #819 ) ) ;
#817 = PERSON_AND_ORGANIZATION_ROLE ( 'classification_officer' ) ;
#818 = PERSON_AND_ORGANIZATION ( #791, #790 ) ;
#819 = SECURITY_CLASSIFICATION ( '', '', #820 ) ;
#820 = SECURITY_CLASSIFICATION_LEVEL ( 'unclassified' ) ;
#821 = CC_DESIGN_PERSON_AND_ORGANIZATION_ASSIGNMENT ( #823, #822, ( #842 ) ) ;
#822 = PERSON_AND_ORGANIZATION_ROLE ( 'design_supplier' ) ;
#823 = PERSON_AND_ORGANIZATION ( #791, #790 ) ;
#824 = CC_DESIGN_PERSON_AND_ORGANIZATION_ASSIGNMENT ( #826, #825, ( #842 ) ) ;
#825 = PERSON_AND_ORGANIZATION_ROLE ( 'creator' ) ;
#826 = PERSON_AND_ORGANIZATION ( #791, #790 ) ;
#827 = CC_DESIGN_APPROVAL ( #835, ( #842 ) ) ;
#828 = APPROVAL_DATE_TIME ( #829, #835 ) ;
#829 = DATE_AND_TIME ( #830, #831 ) ;
#830 = CALENDAR_DATE ( 2005, 5, 9 ) ;
#831 = LOCAL_TIME ( 16, 32, 4.000000000000000000, #832 ) ;
#832 = COORDINATED_UNIVERSAL_TIME_OFFSET ( 9, 0, .AHEAD. ) ;
#833 = APPROVAL_PERSON_ORGANIZATION ( #841, #835, #834 ) ;
#834 = APPROVAL_ROLE ( '' ) ;
#835 = APPROVAL ( #836, 'UNSPECIFIED' ) ;
#836 = APPROVAL_STATUS ( 'not_yet_approved' ) ;
#837 = PRODUCT_DEFINITION ( 'UNKNOWN', '', #842, #838 ) ;
#838 = DESIGN_CONTEXT ( 'detailed design', #840, 'design' ) ;
#839 = APPLICATION_PROTOCOL_DEFINITION ( 'international standard', 'config_control_design', 1994, #840 ) ;
#840 = APPLICATION_CONTEXT ( 'configuration controlled 3d designs of mechanical parts and assemblies' ) ;
#841 = PERSON_AND_ORGANIZATION ( #791, #790 ) ;
#842 = PRODUCT_DEFINITION_FORMATION_WITH_SPECIFIED_SOURCE ( 'ANY', '', #792, .NOT_KNOWN. ) ;
#843 = CC_DESIGN_DATE_AND_TIME_ASSIGNMENT ( #845, #844, ( #837 ) ) ;
#844 = DATE_TIME_ROLE ( 'creation_date' ) ;
#845 = DATE_AND_TIME ( #846, #847 ) ;
#846 = CALENDAR_DATE ( 2005, 5, 9 ) ;
#847 = LOCAL_TIME ( 16, 32, 4.000000000000000000, #854 ) ;
#848 = COORDINATED_UNIVERSAL_TIME_OFFSET ( 9, 0, .AHEAD. ) ;
#849 = APPROVAL_PERSON_ORGANIZATION ( #853, #851, #850 ) ;
#850 = APPROVAL_ROLE ( '' ) ;
#851 = APPROVAL ( #852, 'UNSPECIFIED' ) ;
#852 = APPROVAL_STATUS ( 'not_yet_approved' ) ;
#853 = PERSON_AND_ORGANIZATION ( #791, #790 ) ;
#854 = COORDINATED_UNIVERSAL_TIME_OFFSET ( 9, 0, .AHEAD. ) ;
#855 = CC_DESIGN_PERSON_AND_ORGANIZATION_ASSIGNMENT ( #858, #857, ( #837 ) ) ;
#856 = SHAPE_DEFINITION_REPRESENTATION ( #796, #679 ) ;
#857 = PERSON_AND_ORGANIZATION_ROLE ( 'creator' ) ;
#858 = PERSON_AND_ORGANIZATION ( #791, #790 ) ;
#859 = CC_DESIGN_APPROVAL ( #851, ( #837 ) ) ;
#860 = APPROVAL_DATE_TIME ( #861, #851 ) ;
#861 = DATE_AND_TIME ( #862, #863 ) ;
#862 = CALENDAR_DATE ( 2005, 5, 9 ) ;
#863 = LOCAL_TIME ( 16, 32, 4.000000000000000000, #848 ) ;
ENDSEC;
END-ISO-10303-21;
