  0
SECTION
  2
HEADER
  9
$ACADVER
  1
AC1009
  9
$INSBASE
 10
177.9999997912175
 20
6.7085914059697132
 30
0.0
  9
$EXTMIN
 10
74.650672249196447
 20
188.07901087365931
 30
-0.0015258207003583
  9
$EXTMAX
 10
147.5619510765676
 20
243.55335720008571
 30
0.0000000349246037
  9
$LIMMIN
 10
0.0
 20
0.0
  9
$LIMMAX
 10
190.0
 20
277.0
  9
$ORTHOMODE
 70
     0
  9
$REGENMODE
 70
     1
  9
$FILLMODE
 70
     1
  9
$QTEXTMODE
 70
     0
  9
$MIRRTEXT
 70
     1
  9
$DRAGMODE
 70
     2
  9
$LTSCALE
 40
1.0
  9
$OSMODE
 70
   549
  9
$ATTMODE
 70
     1
  9
$TEXTSIZE
 40
5.0
  9
$TRACEWID
 40
1.0
  9
$TEXTSTYLE
  7
STANDARD
  9
$CLAYER
  8
0
  9
$CELTYPE
  6
BYLAYER
  9
$CECOLOR
 62
   256
  9
$DIMSCALE
 40
1.0
  9
$DIMASZ
 40
2.5
  9
$DIMEXO
 40
1.0
  9
$DIMDLI
 40
10.0
  9
$DIMRND
 40
0.0
  9
$DIMDLE
 40
0.0
  9
$DIMEXE
 40
1.0
  9
$DIMTP
 40
0.1
  9
$DIMTM
 40
0.1
  9
$DIMTXT
 40
3.5
  9
$DIMCEN
 40
0.0
  9
$DIMTSZ
 40
0.0
  9
$DIMTOL
 70
     1
  9
$DIMLIM
 70
     0
  9
$DIMTIH
 70
     0
  9
$DIMTOH
 70
     0
  9
$DIMSE1
 70
     0
  9
$DIMSE2
 70
     0
  9
$DIMTAD
 70
     3
  9
$DIMZIN
 70
     8
  9
$DIMBLK
  1
OPEN30
  9
$DIMASO
 70
     1
  9
$DIMSHO
 70
     1
  9
$DIMPOST
  1

  9
$DIMAPOST
  1
"
  9
$DIMALT
 70
     0
  9
$DIMALTD
 70
     2
  9
$DIMALTF
 40
0.0393701
  9
$DIMLFAC
 40
1.0
  9
$DIMTOFL
 70
     1
  9
$DIMTVP
 40
0.0
  9
$DIMTIX
 70
     0
  9
$DIMSOXD
 70
     0
  9
$DIMSAH
 70
     0
  9
$DIMBLK1
  1

  9
$DIMBLK2
  1

  9
$DIMSTYLE
  2
AM_JIS
  9
$DIMCLRD
 70
   256
  9
$DIMCLRE
 70
   256
  9
$DIMCLRT
 70
     2
  9
$DIMTFAC
 40
0.71
  9
$DIMGAP
 40
1.5
  9
$LUNITS
 70
     2
  9
$LUPREC
 70
     2
  9
$SKETCHINC
 40
1.0
  9
$FILLETRAD
 40
0.0
  9
$AUNITS
 70
     0
  9
$AUPREC
 70
     0
  9
$MENU
  1
.
  9
$ELEVATION
 40
0.0
  9
$PELEVATION
 40
0.0
  9
$THICKNESS
 40
0.0
  9
$LIMCHECK
 70
     0
  9
$BLIPMODE
 70
     0
  9
$CHAMFERA
 40
0.0
  9
$CHAMFERB
 40
0.0
  9
$SKPOLY
 70
     0
  9
$TDCREATE
 40
2457186.4229301498
  9
$TDUPDATE
 40
2457235.465503681
  9
$TDINDWG
 40
0.0734604514
  9
$TDUSRTIMER
 40
0.0734604514
  9
$USRTIMER
 70
     1
  9
$ANGBASE
 50
0.0
  9
$ANGDIR
 70
     0
  9
$PDMODE
 70
     0
  9
$PDSIZE
 40
0.0
  9
$PLINEWID
 40
0.0
  9
$COORDS
 70
     2
  9
$SPLFRAME
 70
     0
  9
$SPLINETYPE
 70
     6
  9
$SPLINESEGS
 70
     8
  9
$ATTDIA
 70
     1
  9
$ATTREQ
 70
     1
  9
$HANDLING
 70
     1
  9
$HANDSEED
  5
6692
  9
$SURFTAB1
 70
     6
  9
$SURFTAB2
 70
     6
  9
$SURFTYPE
 70
     6
  9
$SURFU
 70
     6
  9
$SURFV
 70
     6
  9
$UCSNAME
  2

  9
$UCSORG
 10
0.0
 20
0.0
 30
0.0
  9
$UCSXDIR
 10
1.0
 20
0.0
 30
0.0
  9
$UCSYDIR
 10
0.0
 20
1.0
 30
0.0
  9
$PUCSNAME
  2

  9
$PUCSORG
 10
0.0
 20
0.0
 30
0.0
  9
$PUCSXDIR
 10
1.0
 20
0.0
 30
0.0
  9
$PUCSYDIR
 10
0.0
 20
1.0
 30
0.0
  9
$USERI1
 70
     0
  9
$USERI2
 70
     0
  9
$USERI3
 70
     0
  9
$USERI4
 70
     0
  9
$USERI5
 70
     0
  9
$USERR1
 40
0.0
  9
$USERR2
 40
0.0
  9
$USERR3
 40
0.0
  9
$USERR4
 40
0.0
  9
$USERR5
 40
0.0
  9
$WORLDVIEW
 70
     1
  9
$SHADEDGE
 70
     3
  9
$SHADEDIF
 70
    70
  9
$TILEMODE
 70
     1
  9
$MAXACTVP
 70
    64
  9
$PLIMCHECK
 70
     0
  9
$PEXTMIN
 10
1.0000000000000000E+020
 20
1.0000000000000000E+020
 30
1.0000000000000000E+020
  9
$PEXTMAX
 10
-1.0000000000000000E+020
 20
-1.0000000000000000E+020
 30
-1.0000000000000000E+020
  9
$PLIMMIN
 10
-5.873748779296875
 20
-5.8737497329711914
  9
$PLIMMAX
 10
291.09457397460932
 20
204.0995779037475
  9
$UNITMODE
 70
     0
  9
$VISRETAIN
 70
     1
  9
$PLINEGEN
 70
     0
  9
$PSLTSCALE
 70
     1
  0
ENDSEC
  0
SECTION
  2
TABLES
  0
TABLE
  2
VPORT
 70
     1
  0
VPORT
  2
*ACTIVE
 70
     0
 10
0.0
 20
0.0
 11
1.0
 21
1.0
 12
107.064103039656
 22
212.61576219247249
 13
0.0
 23
0.0
 14
2.5
 24
2.5
 15
10.0
 25
10.0
 16
0.0
 26
0.0
 36
1.0
 17
0.0
 27
0.0
 37
0.0
 40
79.746005195959896
 41
1.63095238095238
 42
50.0
 43
0.0
 44
0.0
 50
0.0
 51
0.0
 71
     0
 72
   100
 73
     1
 74
     1
 75
     0
 76
     0
 77
     0
 78
     0
  0
ENDTAB
  0
TABLE
  2
LTYPE
 70
    19
  0
LTYPE
  2
CONTINUOUS
 70
     0
  3
Solid line
 72
    65
 73
     0
 40
0.0
  0
LTYPE
  2
AM_ISO02W050
 70
     0
  3
__ __ __ __ __ __ __ __ __ __ __ __ __ __ __
 72
    65
 73
     2
 40
7.5
 49
6.0
 49
-1.5
  0
LTYPE
  2
AM_ISO08W050
 70
     0
  3
____ . ____ . ____ . ____ . ____ . ____ . ____
 72
    65
 73
     4
 40
18.0
 49
12.0
 49
-1.5
 49
3.0
 49
-1.5
  0
LTYPE
  2
AM_ISO09W050
 70
     0
  3
_____ . . _____ . . _____ . . ____ .. ____
 72
    65
 73
     6
 40
22.5
 49
12.0
 49
-1.5
 49
3.0
 49
-1.5
 49
3.0
 49
-1.5
  0
LTYPE
  2
AMCONSTR
 70
     0
  3
_______________________
 72
    65
 73
     2
 40
9999.0
 49
9999.0
 49
0.0
  0
LTYPE
  2
AM_ISO02W050X2
 70
     0
  3
 _ _ _ _ _ _ _ _ _ _ _ _
 72
    65
 73
     2
 40
3.75
 49
3.0
 49
-0.75
  0
LTYPE
  2
AM_ISO08W050X2
 70
     0
  3
__ . __ . __ . __ . __ . __
 72
    65
 73
     4
 40
9.0
 49
6.0
 49
-0.75
 49
1.5
 49
-0.75
  0
LTYPE
  2
AMZIGZAG
 70
     0
  3
/\/-/\/-/\/-/\/-/\/-/\/
 72
    65
 73
     2
 40
11.0001
 49
0.0001
 49
-11.0
  0
LTYPE
  2
CENTER
 70
     0
  3
____ _ ____ _
 72
    65
 73
     4
 40
13.42150481887249
 49
8.3884405117953058
 49
-1.67768810235906
 49
1.67768810235906
 49
-1.67768810235906
  0
LTYPE
  2
HIDDEN
 70
     0
  3
_ _ _ _ _ _ _
 72
    65
 73
     2
 40
2.5165321535385901
 49
1.67768810235906
 49
-0.8388440511795305
  0
LTYPE
  2
PHANTOM2
 70
     0
  3
Phantom (.5x) ___ _ _ ___ _ _ ___ _ _ ___ _ _
 72
    65
 73
     6
 40
1.25
 49
0.625
 49
-0.125
 49
0.125
 49
-0.125
 49
0.125
 49
-0.125
  0
LTYPE
  2
ACJISTGB
 70
     0
  3
__ . . __ . .
 72
    65
 73
     6
 40
9.0
 49
4.0
 49
-1.0
 49
1.0
 49
-1.0
 49
1.0
 49
-1.0
  0
LTYPE
  2
ACJISTGL
 70
     0
  3
_ _ _ _ _
 72
    65
 73
     2
 40
3.0
 49
2.0
 49
-1.0
  0
LTYPE
  2
ACANSTGBM
 70
     0
  3
__ . . __ . .
 72
    65
 73
     6
 40
9.0
 49
4.0
 49
-1.0
 49
1.0
 49
-1.0
 49
1.0
 49
-1.0
  0
LTYPE
  2
ACANSTGLM
 70
     0
  3
_ _ _ _ _
 72
    65
 73
     2
 40
3.0
 49
2.0
 49
-1.0
  0
LTYPE
  2
ACISOWELD
 70
     0
  3
_ _ _ _ _
 72
    65
 73
     2
 40
2.0
 49
2.0
 49
-1.0
  0
LTYPE
  2
ACISOTGL
 70
     0
  3
_ _ _ _ _
 72
    65
 73
     2
 40
3.0
 49
2.0
 49
-1.0
  0
LTYPE
  2
ACISOTGB
 70
     0
  3
__ . . __ . .
 72
    65
 73
     6
 40
9.0
 49
4.0
 49
-1.0
 49
1.0
 49
-1.0
 49
1.0
 49
-1.0
  0
ENDTAB
  0
TABLE
  2
LAYER
 70
     3
  0
LAYER
  2
0
 70
     0
 62
     7
  6
CONTINUOUS
  0
LAYER
  2
DEFPOINTS
 70
     0
 62
     7
  6
CONTINUOUS
  0
ENDTAB
  0
TABLE
  2
STYLE
 70
     7
  0
STYLE
  2
STANDARD
 70
     0
 40
0.0
 41
1.0
 50
0.0
 71
     0
 42
5.0
  3
isocp.shx
  4
extfont.shx
  0
STYLE
  2

 70
     1
 40
0.0
 41
1.0
 50
0.0
 71
     0
 42
2.5
  3
ltypeshp.shx
  4

  0
STYLE
  2
ACJISTS
 70
     0
 40
1.0
 41
1.0
 50
0.0
 71
     0
 42
3.5
  3
isocp.shx
  4
bigfont.shx
  0
STYLE
  2
ACJISGDT
 70
     0
 40
0.0
 41
1.0
 50
0.0
 71
     0
 42
3.5
  3
amgdt.shx
  4

  0
STYLE
  2
ACANSTS
 70
     0
 40
1.0
 41
1.0
 50
0.0
 71
     0
 42
5.0
  3
romans.shx
  4
extfont.shx
  0
STYLE
  2
ACANSGDT
 70
     0
 40
0.0
 41
1.0
 50
0.0
 71
     0
 42
5.0
  3
amgdtans.shx
  4

  0
STYLE
  2
ACISOGDT
 70
     0
 40
0.0
 41
1.0
 50
0.0
 71
     0
 42
2.5
  3
amgdt.shx
  4

  0
ENDTAB
  0
TABLE
  2
VIEW
 70
     6
  0
VIEW
  2
AM_VIEW1
 70
     1
 40
210.0
 10
215.76588321825781
 20
297.20624923706049
 41
443.11926605504578
 11
0.0
 21
0.0
 31
1.0
 12
0.0
 22
0.0
 32
0.0
 42
50.0
 43
0.0
 44
0.0
 50
0.0
 71
     0
  0
VIEW
  2
AM_VIEW2
 70
     1
 40
210.0
 10
366.64661716321189
 20
297.20624923706049
 41
443.11926605504578
 11
0.0
 21
0.0
 31
1.0
 12
0.0
 22
0.0
 32
0.0
 42
50.0
 43
0.0
 44
0.0
 50
0.0
 71
     0
  0
VIEW
  2
AM_VIEW3
 70
     1
 40
210.0
 10
215.76588321825781
 20
87.206249237060547
 41
443.11926605504578
 11
0.0
 21
0.0
 31
1.0
 12
0.0
 22
0.0
 32
0.0
 42
50.0
 43
0.0
 44
0.0
 50
0.0
 71
     0
  0
VIEW
  2
AM_VIEW4
 70
     1
 40
210.0
 10
366.64661716321189
 20
87.206249237060547
 41
443.11926605504578
 11
0.0
 21
0.0
 31
1.0
 12
0.0
 22
0.0
 32
0.0
 42
50.0
 43
0.0
 44
0.0
 50
0.0
 71
     0
  0
VIEW
  2
AM_VIEW5
 70
     1
 40
210.0
 10
291.20625019073492
 20
192.20624923706049
 41
443.1192660550459
 11
0.0
 21
0.0
 31
1.0
 12
0.0
 22
0.0
 32
0.0
 42
50.0
 43
0.0
 44
0.0
 50
0.0
 71
     0
  0
VIEW
  2
AM_VIEW6
 70
     1
 40
419.99579999999997
 10
291.20625019073492
 20
192.20624923706049
 41
886.2296697247707
 11
0.0
 21
0.0
 31
1.0
 12
0.0
 22
0.0
 32
0.0
 42
50.0
 43
0.0
 44
0.0
 50
0.0
 71
     0
  0
ENDTAB
  0
TABLE
  2
UCS
 70
     0
  0
ENDTAB
  0
TABLE
  2
APPID
 70
    61
  0
APPID
  2
ACAD
 70
     0
  0
APPID
  2
MCAD_NO_VIS
 70
     0
  0
APPID
  2
ACAD_TEMP_GRAPHIC
 70
     0
  0
APPID
  2
GENIUS_GENODEF_13
 70
     0
  0
APPID
  2
GENIUS_GENOBJ-N-TIT_13
 70
     0
  0
APPID
  2
GENIUS_GENTITLE_13
 70
     0
  0
APPID
  2
GENIUS_GENOENT_13
 70
     0
  0
APPID
  2
GENIUS_GENOREF_13
 70
     0
  0
APPID
  2
GENIUS_GENOLIS_13
 70
     0
  0
APPID
  2
GENIUS_GENZVEED_13
 70
     0
  0
APPID
  2
GENIUS_GENSCREG_15
 70
     0
  0
APPID
  2
GENIUS_GENOBJ-N-SDF_13
 70
     0
  0
APPID
  2
GENIUS_GENOBJ-N-CEN_13
 70
     0
  0
APPID
  2
GENIUS_GENOBJ-N-SEC_13
 70
     0
  0
APPID
  2
GENIUS_GENREC_14
 70
     0
  0
APPID
  2
GENIUS_GENOBJ-N-REC_13
 70
     0
  0
APPID
  2
GENIUS_GENBH_13
 70
     0
  0
APPID
  2
GENIUS_GENOBJ-NBEHI-BHF_13
 70
     0
  0
APPID
  2
GENIUS_GENOBJ-NBEHI-BHB_13
 70
     0
  0
APPID
  2
GENIUS_GENDTOL_13
 70
     0
  0
APPID
  2
GENIUS_GENOBJ-N-HTC_13
 70
     0
  0
APPID
  2
GENIUS_GENHATCH_13
 70
     0
  0
APPID
  2
GENIUS_GENOBJ-N-CRS_13
 70
     0
  0
APPID
  2
GENIUS_GENOBJ-N-CRC_13
 70
     0
  0
APPID
  2
GENIUS_GENCRC_14
 70
     0
  0
APPID
  2
GENIUS_GENOBJ-F-SHCL_13
 70
     0
  0
APPID
  2
GENIUS_GEFMSH_13
 70
     0
  0
APPID
  2
GENIUS_GEFSH_13
 70
     0
  0
APPID
  2
GENIUS_GEFSHP_13
 70
     0
  0
APPID
  2
GENIUS_GENOBJ-F-SHS_13
 70
     0
  0
APPID
  2
GENIUS_GENOBJ-F-SHSS_13
 70
     0
  0
APPID
  2
GENIUS_GEFSHP0_13
 70
     0
  0
APPID
  2
GENIUS_GEFSH0_13
 70
     0
  0
APPID
  2
GEVID995428964
 70
     0
  0
APPID
  2
GEVDC
 70
     0
  0
APPID
  2
GENIUS_GENBH_14
 70
     0
  0
APPID
  2
GEVID995428965
 70
     0
  0
APPID
  2
GEVID995428966
 70
     0
  0
APPID
  2
GENIUS_GENBHRL_14
 70
     0
  0
APPID
  2
GEVID995428967
 70
     0
  0
APPID
  2
GEVID995428968
 70
     0
  0
APPID
  2
GENIUS_GENOBJ-F-SHCV_13
 70
     0
  0
APPID
  2
ACATTRIBSERVICES
 70
     0
  0
APPID
  2
GENIUS_GENTRA_14
 70
     0
  0
APPID
  2
DESIGNERASSEMBLIES
 70
     0
  0
APPID
  2
ACAD_NAV_VCDISPLAY
 70
     0
  0
APPID
  2
ACAD_DSTYLE_DIMJAG
 70
     0
  0
APPID
  2
ACAD_DSTYLE_DIMBREAK
 70
     0
  0
APPID
  2
ACAECLAYERSTANDARD
 70
     0
  0
APPID
  2
GRADIENTCOLOR1ACI
 70
     0
  0
APPID
  2
GRADIENTCOLOR2ACI
 70
     0
  0
APPID
  2
ACAD_DSTYLE_DIMINSPECT
 70
     0
  0
APPID
  2
GENIUS_GENCEN_19
 70
     0
  0
APPID
  2
ACAD_EXEMPT_FROM_CAD_STANDARDS
 70
     0
  0
APPID
  2
ACAD_MLEADERVER
 70
     0
  0
APPID
  2
ACAD_DSTYLE_DIMARC_LENGTH_
 70
     0
  0
APPID
  2
ACAD_DSTYLE_DIM_LINETYPE
 70
     0
  0
APPID
  2
ACAD_DSTYLE_DIM_EXT1_LINETYPE
 70
     0
  0
APPID
  2
ACAD_DSTYLE_DIM_EXT2_LINETYPE
 70
     0
  0
APPID
  2
ACAD_PSEXT
 70
     0
  0
APPID
  2
GENIUS_AMGTXT_16
 70
     0
  0
ENDTAB
  0
TABLE
  2
DIMSTYLE
 70
    16
  0
DIMSTYLE
  2
AM_JIS
 70
     0
  3

  4
"
  5
OPEN30
  6

  7

 40
1.0
 41
2.5
 42
1.0
 43
10.0
 44
1.0
 45
0.0
 46
0.0
 47
0.1
 48
0.1
140
3.5
141
0.0
142
0.0
143
0.0393701
144
1.0
145
0.0
146
0.71
147
1.5
 71
     1
 72
     0
 73
     0
 74
     0
 75
     0
 76
     0
 77
     3
 78
     8
170
     0
171
     2
172
     1
173
     0
174
     0
175
     0
176
   256
177
   256
178
     2
  0
DIMSTYLE
  2
AM_JIS$3
 70
     0
  3

  4
"
  5
OPEN30
  6

  7

 40
1.0
 41
2.5
 42
1.0
 43
10.0
 44
1.0
 45
0.0
 46
0.0
 47
0.1
 48
0.1
140
3.5
141
0.0
142
0.0
143
0.0393701
144
1.0
145
0.0
146
0.71
147
1.5
 71
     1
 72
     0
 73
     0
 74
     1
 75
     0
 76
     0
 77
     3
 78
     8
170
     0
171
     2
172
     0
173
     0
174
     0
175
     0
176
   256
177
   256
178
     2
  0
DIMSTYLE
  2
AM_JIS$4
 70
     0
  3

  4
"
  5
OPEN30
  6

  7

 40
1.0
 41
2.5
 42
1.0
 43
10.0
 44
1.0
 45
0.0
 46
0.0
 47
0.1
 48
0.1
140
3.5
141
0.0
142
0.0
143
0.0393701
144
1.0
145
0.0
146
0.71
147
1.5
 71
     1
 72
     0
 73
     0
 74
     1
 75
     0
 76
     0
 77
     3
 78
     8
170
     0
171
     2
172
     0
173
     0
174
     0
175
     0
176
   256
177
   256
178
     2
  0
DIMSTYLE
  2
AM_JIS$6
 70
     0
  3

  4
"
  5
OPEN30
  6

  7

 40
1.0
 41
2.5
 42
1.0
 43
10.0
 44
1.0
 45
0.0
 46
0.0
 47
0.1
 48
0.1
140
3.5
141
0.0
142
0.0
143
0.0393701
144
1.0
145
0.0
146
0.71
147
1.5
 71
     1
 72
     0
 73
     0
 74
     0
 75
     0
 76
     0
 77
     0
 78
     8
170
     0
171
     2
172
     1
173
     0
174
     0
175
     0
176
   256
177
   256
178
     2
  0
DIMSTYLE
  2
AM_JIS$7
 70
     0
  3

  4
"
  5
OPEN30
  6

  7

 40
1.0
 41
2.5
 42
1.0
 43
10.0
 44
1.0
 45
0.0
 46
0.0
 47
0.1
 48
0.1
140
5.0
141
0.0
142
0.0
143
0.0393701
144
1.0
145
0.0
146
0.71
147
1.5
 71
     1
 72
     0
 73
     0
 74
     0
 75
     0
 76
     0
 77
     3
 78
     8
170
     0
171
     2
172
     1
173
     0
174
     0
175
     0
176
   256
177
   256
178
     2
  0
DIMSTYLE
  2
AM_JIS$SF
 70
     0
  3

  4
"
  5
OPEN30
  6
OPEN30
  7
OPEN30
 40
1.0
 41
2.5
 42
1.0
 43
10.0
 44
1.0
 45
0.0
 46
0.0
 47
0.1
 48
0.1
140
3.5
141
0.0
142
0.0
143
0.0393701
144
1.0
145
0.0
146
0.71
147
1.5
 71
     0
 72
     0
 73
     0
 74
     0
 75
     1
 76
     1
 77
     3
 78
     8
170
     0
171
     2
172
     1
173
     0
174
     0
175
     0
176
   256
177
   256
178
     2
  0
DIMSTYLE
  2
AM_JIS$SH
 70
     0
  3

  4
"
  5
OPEN30
  6
GENAXEH
  7
OPEN30
 40
1.0
 41
2.5
 42
1.0
 43
10.0
 44
1.0
 45
0.0
 46
0.0
 47
0.1
 48
0.1
140
3.5
141
0.0
142
0.0
143
0.0393701
144
2.0
145
0.0
146
0.71
147
1.5
 71
     0
 72
     0
 73
     0
 74
     0
 75
     1
 76
     1
 77
     3
 78
     8
170
     0
171
     2
172
     1
173
     1
174
     0
175
     0
176
   256
177
   256
178
     2
  0
DIMSTYLE
  2
STANDARD
 70
     0
  3

  4

  5

  6

  7

 40
1.0
 41
0.18
 42
0.0625
 43
0.38
 44
0.18
 45
0.0
 46
0.0
 47
0.0
 48
0.0
140
0.18
141
0.09
142
0.0
143
25.399999999999999
144
1.0
145
0.0
146
1.0
147
0.09
 71
     0
 72
     0
 73
     1
 74
     1
 75
     0
 76
     0
 77
     0
 78
     0
170
     0
171
     2
172
     0
173
     0
174
     0
175
     0
176
     0
177
     0
178
     0
  0
DIMSTYLE
  2
AM_ISO
 70
     0
  3

  4
"
  5

  6

  7

 40
1.0
 41
3.5
 42
1.0
 43
10.0
 44
1.0
 45
0.0
 46
0.0
 47
0.1
 48
0.1
140
3.5
141
0.0
142
0.0
143
0.0393701
144
1.0
145
0.0
146
0.71
147
1.5
 71
     0
 72
     0
 73
     0
 74
     0
 75
     0
 76
     0
 77
     1
 78
     8
170
     0
171
     2
172
     1
173
     0
174
     0
175
     0
176
   256
177
   256
178
     2
  0
DIMSTYLE
  2
AM_ISO$3
 70
     0
  3

  4
"
  5

  6

  7

 40
1.0
 41
3.5
 42
1.0
 43
10.0
 44
1.0
 45
0.0
 46
0.0
 47
0.1
 48
0.1
140
3.5
141
0.0
142
0.0
143
0.0393701
144
1.0
145
0.0
146
0.71
147
1.5
 71
     0
 72
     0
 73
     0
 74
     1
 75
     0
 76
     0
 77
     1
 78
     8
170
     0
171
     2
172
     0
173
     0
174
     0
175
     0
176
   256
177
   256
178
     2
  0
DIMSTYLE
  2
AM_ISO$4
 70
     0
  3

  4
"
  5

  6

  7

 40
1.0
 41
3.5
 42
1.0
 43
10.0
 44
1.0
 45
0.0
 46
0.0
 47
0.1
 48
0.1
140
3.5
141
0.0
142
0.0
143
0.0393701
144
1.0
145
0.0
146
0.71
147
1.5
 71
     0
 72
     0
 73
     0
 74
     1
 75
     0
 76
     0
 77
     1
 78
     8
170
     0
171
     2
172
     0
173
     0
174
     0
175
     0
176
   256
177
   256
178
     2
  0
DIMSTYLE
  2
AM_ISO$6
 70
     0
  3

  4
"
  5

  6

  7

 40
1.0
 41
3.5
 42
1.0
 43
10.0
 44
1.0
 45
0.0
 46
0.0
 47
0.1
 48
0.1
140
3.5
141
0.0
142
0.0
143
0.0393701
144
1.0
145
0.0
146
0.71
147
1.5
 71
     0
 72
     0
 73
     0
 74
     0
 75
     0
 76
     0
 77
     0
 78
     8
170
     0
171
     2
172
     1
173
     0
174
     0
175
     0
176
   256
177
   256
178
     2
  0
DIMSTYLE
  2
AM_ISO$7
 70
     0
  3

  4
"
  5

  6

  7

 40
1.0
 41
3.5
 42
1.0
 43
10.0
 44
1.0
 45
0.0
 46
0.0
 47
0.1
 48
0.1
140
3.5
141
0.0
142
0.0
143
0.0393701
144
1.0
145
0.0
146
0.71
147
1.5
 71
     0
 72
     0
 73
     0
 74
     0
 75
     0
 76
     0
 77
     1
 78
     8
170
     0
171
     2
172
     1
173
     0
174
     0
175
     0
176
   256
177
   256
178
     2
  0
DIMSTYLE
  2
AM_ISO$SF
 70
     0
  3

  4
"
  5

  6

  7

 40
1.0
 41
3.5
 42
1.0
 43
10.0
 44
1.0
 45
0.0
 46
0.0
 47
0.1
 48
0.1
140
3.5
141
0.0
142
0.0
143
0.0393701
144
1.0
145
0.0
146
0.71
147
1.5
 71
     0
 72
     0
 73
     0
 74
     0
 75
     1
 76
     1
 77
     1
 78
     8
170
     0
171
     2
172
     1
173
     0
174
     0
175
     0
176
   256
177
   256
178
     2
  0
DIMSTYLE
  2
AM_ISO$SH
 70
     0
  3

  4
"
  5

  6
GENAXEH
  7

 40
1.0
 41
3.5
 42
1.0
 43
10.0
 44
1.0
 45
0.0
 46
0.0
 47
0.1
 48
0.1
140
3.5
141
0.0
142
0.0
143
0.0393701
144
2.0
145
0.0
146
0.71
147
1.5
 71
     0
 72
     0
 73
     0
 74
     0
 75
     1
 76
     1
 77
     1
 78
     8
170
     0
171
     2
172
     1
173
     1
174
     0
175
     0
176
   256
177
   256
178
     2
  0
ENDTAB
  0
ENDSEC
  0
SECTION
  2
BLOCKS
  0
BLOCK
  8
0
  2
$MODEL_SPACE
 70
     2
 10
0.0
 20
0.0
 30
0.0
  3
$MODEL_SPACE
  1

  0
ENDBLK
  5
A
  8
0
  0
BLOCK
 67
     1
  8
0
  2
$PAPER_SPACE
 70
     0
 10
0.0
 20
0.0
 30
0.0
  3
$PAPER_SPACE
  1

  0
ENDBLK
  5
63E2
 67
     1
  8
0
  0
BLOCK
  8
0
  2
GENAXEH
 70
     0
 10
0.0
 20
0.0
 30
0.0
  3
GENAXEH
  1

  0
LINE
  5
98
  8
0
 10
-1.0
 20
0.0
 30
0.0
 11
1.0
 21
0.0
 31
0.0
  0
ENDBLK
  5
9A
  8
0
  0
BLOCK
  8
0
 62
     0
  2
_OPEN30
 70
     0
 10
0.0
 20
0.0
 30
0.0
  3
_OPEN30
  1

  0
LINE
  5
21
  8
0
 62
     0
 10
-1.0
 20
0.26794919
 30
0.0
 11
0.0
 21
0.0
 31
0.0
  0
LINE
  5
22
  8
0
 62
     0
 10
0.0
 20
0.0
 30
0.0
 11
-1.0
 21
-0.26794919
 31
0.0
  0
LINE
  5
23
  8
0
 62
     0
 10
0.0
 20
0.0
 30
0.0
 11
-1.0
 21
0.0
 31
0.0
  0
ENDBLK
  5
25
  8
0
 62
     0
  0
BLOCK
  8
0
  2
*U4
 70
     1
 10
0.0
 20
0.0
 30
0.0
  3
*U4
  1

  0
TEXT
  5
668C
  8
0
 62
     2
 10
131.95536629566411
 20
187.92295811608619
 30
0.0
 40
3.5
  1
PM-K25
  0
ENDBLK
  5
668E
  8
0
  0
ENDSEC
  0
SECTION
  2
ENTITIES
  0
LINE
  5
3419
  8
0
  6
CONTINUOUS
 62
     7
 10
84.764689274908108
 20
206.8122675341921
 30
0.0
 11
84.764689274908108
 21
204.81226767202779
 31
0.0
  0
LINE
  5
341A
  8
0
  6
CONTINUOUS
 62
     7
 10
90.764689327062186
 20
204.81226767202779
 30
0.0
 11
90.764689327062186
 21
206.8122675341921
 31
0.0
  0
LINE
  5
341D
  8
0
  6
CONTINUOUS
 62
     7
 10
86.514689328924817
 20
204.81226767202779
 30
0.0
 11
86.514689328924817
 21
197.81226745596101
 31
0.0
  0
LINE
  5
341E
  8
0
  6
CONTINUOUS
 62
     7
 10
89.014689273045477
 20
197.81226745596101
 30
0.0
 11
89.014689273045477
 21
204.81226767202779
 31
0.0
  0
LINE
  5
342C
  8
0
  6
CONTINUOUS
 62
     7
 10
81.064689506621164
 20
206.8122675341921
 30
0.0
 11
94.464689095349115
 21
206.8122675341921
 31
0.0
  0
LINE
  5
3430
  8
0
  6
CONTINUOUS
 62
     7
 10
80.764689550579604
 20
206.5122675781505
 30
0.0
 11
81.064689506621164
 21
206.8122675341921
 31
0.0
  0
LINE
  5
3434
  8
0
  6
CONTINUOUS
 62
     7
 10
94.464689095349115
 20
206.8122675341921
 30
0.0
 11
94.764689517051977
 21
206.5122675781505
 31
0.0
  0
CIRCLE
  5
3435
  8
0
  6
CONTINUOUS
 62
     7
 10
78.414689300985117
 20
208.8122674663918
 30
0.0
 40
1.6000000000000001
  0
CIRCLE
  5
3436
  8
0
  6
CONTINUOUS
 62
     7
 10
97.114689300985106
 20
208.8122674663918
 30
0.0
 40
1.6000000000000001
  0
LINE
  5
3442
  8
0
  6
CONTINUOUS
 62
     7
 10
99.714689490229887
 20
211.51226746639179
 30
0.0
 11
99.714689490229887
 21
206.5122675781505
 31
0.0
  0
LINE
  5
3443
  8
0
  6
CONTINUOUS
 62
     7
 10
94.464689095349115
 20
211.51226746639179
 30
0.0
 11
99.714689490229887
 21
211.51226746639179
 31
0.0
  0
LINE
  5
3444
  8
0
  6
CONTINUOUS
 62
     7
 10
99.714689490229887
 20
206.5122675781505
 30
0.0
 11
94.764689517051977
 21
206.5122675781505
 31
0.0
  0
LINE
  5
3446
  8
0
  6
CONTINUOUS
 62
     7
 10
75.814689111740392
 20
206.5122675781505
 30
0.0
 11
75.814689111740392
 21
211.51226746639179
 31
0.0
  0
LINE
  5
3449
  8
0
  6
CONTINUOUS
 62
     7
 10
84.764689274908108
 20
212.31226744618209
 30
0.0
 11
90.764689327062186
 21
212.31226744618209
 31
0.0
  0
LINE
  5
344B
  8
0
  6
CONTINUOUS
 62
     7
 10
80.764689084918317
 20
206.5122675781505
 30
0.0
 11
75.814689111740392
 21
206.5122675781505
 31
0.0
  0
LINE
  5
344D
  8
0
  6
CONTINUOUS
 62
     7
 10
75.814689111740392
 20
211.51226746639179
 30
0.0
 11
81.064689506621164
 21
211.51226746639179
 31
0.0
  0
LINE
  5
344F
  8
0
  6
CONTINUOUS
 62
     7
 10
90.764689327062186
 20
204.81226767202779
 30
0.0
 11
84.764689274908108
 21
204.81226767202779
 31
0.0
  0
LINE
  5
3462
  8
0
  6
CONTINUOUS
 62
     7
 10
81.064689506621164
 20
218.81226763850029
 30
0.0
 11
84.764689274908108
 21
218.81226763850029
 31
0.0
  0
LINE
  5
3465
  8
0
  6
CONTINUOUS
 62
     7
 10
90.764689327062186
 20
213.0122715539666
 30
0.0
 11
84.764689274908108
 21
213.0122715539666
 31
0.0
  0
LINE
  5
3466
  8
0
  6
CONTINUOUS
 62
     7
 10
90.764689327062186
 20
213.31226743547191
 30
0.0
 11
84.764689274908108
 21
213.31226743547191
 31
0.0
  0
LINE
  5
3475
  8
0
  6
CONTINUOUS
 62
     7
 10
94.464689095349115
 20
211.51226746639179
 30
0.0
 11
94.464689095349115
 21
218.81226763850029
 31
0.0
  0
LINE
  5
3476
  8
0
  6
CONTINUOUS
 62
     7
 10
81.064689506621164
 20
218.81226763850029
 30
0.0
 11
81.064689506621164
 21
211.51226746639179
 31
0.0
  0
LINE
  5
347F
  8
0
  6
CONTINUOUS
 62
     7
 10
86.514689328924817
 20
197.81226745596101
 30
0.0
 11
89.014689273045477
 21
197.81226745596101
 31
0.0
  0
LINE
  5
34A2
  8
0
  6
CONTINUOUS
 62
     7
 10
94.464689095349115
 20
218.81226763850029
 30
0.0
 11
90.764689327062186
 21
218.81226763850029
 31
0.0
  0
LINE
  5
5F10
  8
0
  6
CONTINUOUS
 62
     7
 10
120.81201608744929
 20
204.81226767202779
 30
0.0
 11
120.81201608744929
 21
197.81226745596101
 31
0.0
  0
LINE
  5
5F11
  8
0
  6
CONTINUOUS
 62
     7
 10
123.3120160315699
 20
197.81226745596101
 30
0.0
 11
123.3120160315699
 21
204.81226767202779
 31
0.0
  0
LINE
  5
5F12
  8
0
  6
CONTINUOUS
 62
     7
 10
119.0620160334326
 20
218.81226763850029
 30
0.0
 11
119.0620160334326
 21
204.81226767202779
 31
0.0
  0
LINE
  5
5F13
  8
0
  6
CONTINUOUS
 62
     7
 10
125.06201608558661
 20
204.81226767202779
 30
0.0
 11
125.06201608558661
 21
218.81226763850029
 31
0.0
  0
LINE
  5
5F16
  8
0
  6
CONTINUOUS
 62
     7
 10
120.81201608744929
 20
197.81226745596101
 30
0.0
 11
123.3120160315699
 21
197.81226745596101
 31
0.0
  0
LINE
  5
5F27
  8
0
  6
CONTINUOUS
 62
     7
 10
125.06201608558661
 20
206.5122675781505
 30
0.0
 11
119.0620160334326
 21
206.5122675781505
 31
0.0
  0
LINE
  5
5F2B
  8
0
  6
CONTINUOUS
 62
     7
 10
119.0620160334326
 20
211.51226746639179
 30
0.0
 11
125.06201608558661
 21
211.51226746639179
 31
0.0
  0
LINE
  5
5F45
  8
0
  6
CONTINUOUS
 62
     7
 10
119.0620160334326
 20
218.81226763850029
 30
0.0
 11
125.06201608558661
 21
218.81226763850029
 31
0.0
  0
LINE
  5
5F4C
  8
0
  6
CONTINUOUS
 62
     7
 10
125.06201608558661
 20
204.81226767202779
 30
0.0
 11
119.0620160334326
 21
204.81226767202779
 31
0.0
  0
LINE
  5
5FD6
  8
0
  6
CONTINUOUS
 62
     7
 10
81.064689506621164
 20
241.9741295606087
 30
0.0
 11
81.064689506621164
 21
241.96364379974111
 31
0.0
  0
LINE
  5
5FDD
  8
0
  6
CONTINUOUS
 62
     7
 10
90.764689327062186
 20
241.66626854354541
 30
0.0
 11
84.764689274908108
 21
241.66626854354541
 31
0.0
  0
LINE
  5
5FDE
  8
0
  6
CONTINUOUS
 62
     7
 10
84.764689274908108
 20
237.281976719592
 30
0.0
 11
90.764689327062186
 21
237.281976719592
 31
0.0
  0
LINE
  5
5FF3
  8
0
  6
CONTINUOUS
 62
     7
 10
81.064689506621164
 20
236.47412260549169
 30
0.0
 11
81.064689506621164
 21
242.47412265764581
 31
0.0
  0
LINE
  5
5FFB
  8
0
  6
CONTINUOUS
 62
     7
 10
94.464689095349115
 20
242.47412265764581
 30
0.0
 11
94.464689095349115
 21
236.47412260549169
 31
0.0
  0
LINE
  5
6017
  8
0
  6
CONTINUOUS
 62
     7
 10
81.064689506621164
 20
241.94008157143401
 30
0.0
 11
81.064689506621164
 21
241.96364379974111
 31
0.0
  0
LINE
  5
6040
  8
0
  6
CONTINUOUS
 62
     7
 10
81.064689506621164
 20
241.97412257568939
 30
0.0
 11
81.064689506621164
 21
241.96364379974111
 31
0.0
  0
LINE
  5
604B
  8
0
  6
CONTINUOUS
 62
     7
 10
99.714689490229887
 20
236.47412260549169
 30
0.0
 11
75.814689111740392
 21
236.47412260549169
 31
0.0
  0
LINE
  5
6051
  8
0
  6
CONTINUOUS
 62
     7
 10
75.814689111740392
 20
236.47412260549169
 30
0.0
 11
75.814689111740392
 21
242.47412265764581
 31
0.0
  0
LINE
  5
6052
  8
0
  6
CONTINUOUS
 62
     7
 10
99.714689490229887
 20
242.47412265764581
 30
0.0
 11
99.714689490229887
 21
236.47412260549169
 31
0.0
  0
LINE
  5
6054
  8
0
  6
CONTINUOUS
 62
     7
 10
75.814689111740392
 20
242.47412265764581
 30
0.0
 11
99.714689490229887
 21
242.47412265764581
 31
0.0
  0
LINE
  5
6059
  8
0
  6
CENTER
 62
     4
 10
100.5215384841128
 20
239.47412263156869
 30
0.0
 11
74.650672249196447
 21
239.47412263156869
 31
0.0
  0
LINE
  5
6166
  8
0
  6
CENTER
 62
     4
 10
76.134684660044286
 20
208.8122674663918
 30
0.0
 11
80.694693941925934
 21
208.8122674663918
 31
0.0
  0
LINE
  5
6167
  8
0
  6
CENTER
 62
     4
 10
78.414689300985117
 20
206.7657535619781
 30
0.0
 11
78.414689300985117
 21
210.85878137080559
 31
0.0
  0
LINE
  5
6168
  8
0
  6
CENTER
 62
     4
 10
94.834684660044275
 20
208.8122674663918
 30
0.0
 11
99.394693941925937
 21
208.8122674663918
 31
0.0
  0
LINE
  5
6169
  8
0
  6
CENTER
 62
     4
 10
97.114689300985106
 20
206.7657535619781
 30
0.0
 11
97.114689300985106
 21
210.85878137080559
 31
0.0
  0
LINE
  5
63FB
  8
0
  6
CONTINUOUS
 62
     7
 10
84.764689274908108
 20
212.31226744618209
 30
0.0
 11
84.764689274908108
 21
218.81226763850029
 31
0.0
  0
LINE
  5
63FC
  8
0
  6
CONTINUOUS
 62
     7
 10
90.764689327062186
 20
212.31226744618209
 30
0.0
 11
90.764689327062186
 21
218.81226763850029
 31
0.0
  0
LINE
  5
63FF
  8
0
  6
CONTINUOUS
 62
     7
 10
84.764689274908108
 20
242.47412265764581
 30
0.0
 11
84.764689274908108
 21
236.47412260549169
 31
0.0
  0
LINE
  5
6400
  8
0
  6
CONTINUOUS
 62
     7
 10
90.764689327062186
 20
236.47412260549169
 30
0.0
 11
90.764689327062186
 21
242.47412265764581
 31
0.0
  0
LINE
  5
6440
  8
0
  6
CONTINUOUS
 62
     7
 10
84.764689274908108
 20
241.97412263156869
 30
0.0
 11
90.764689327062186
 21
241.97412263156869
 31
0.0
  0
LINE
  5
6441
  8
0
  6
CONTINUOUS
 62
     7
 10
90.764689327062186
 20
236.97412263156869
 30
0.0
 11
84.764689274908108
 21
236.97412263156869
 31
0.0
  0
LINE
  5
644B
  8
0
  6
CENTER
 62
     4
 10
87.764689300985154
 20
221.15735503964339
 30
0.0
 11
87.764689300985154
 21
196.9232382278536
 31
0.0
  0
LINE
  5
644C
  8
0
  6
CENTER
 62
     4
 10
87.764689300985154
 20
234.29569699658489
 30
0.0
 11
87.764689300985154
 21
243.55335720008571
 31
0.0
  0
LINE
  5
644E
  8
0
  6
CENTER
 62
     4
 10
122.0620160595096
 20
221.15735503964339
 30
0.0
 11
122.0620160595096
 21
196.9232382278536
 31
0.0
  0
INSERT
  5
6450
  8
0
  2
*U4
 10
0.0
 20
0.0
 30
0.0
  0
LINE
  5
65E3
  8
0
  6
CONTINUOUS
 62
     2
 10
85.386639010608107
 20
216.81226763850029
 30
0.0
 11
90.142739591362158
 21
216.81226763850029
 31
0.0
  0
LINE
  5
65E4
  8
0
  6
CONTINUOUS
 62
     2
 10
90.142739591362158
 20
216.81226763850029
 30
0.0
 11
88.508992301649428
 21
217.25002890541529
 31
0.0
  0
LINE
  5
65E5
  8
0
  6
CONTINUOUS
 62
     2
 10
88.508992301649428
 20
216.3745063715852
 30
0.0
 11
90.142739591362158
 21
216.81226763850029
 31
0.0
  0
LINE
  5
65E8
  8
0
  6
CONTINUOUS
 62
     2
 10
85.386639010608107
 20
239.47412263156869
 30
0.0
 11
90.142739591362158
 21
239.47412263156869
 31
0.0
  0
LINE
  5
65E9
  8
0
  6
CONTINUOUS
 62
     2
 10
90.142739591362158
 20
239.47412263156869
 30
0.0
 11
88.508992301649428
 21
239.91188389848381
 31
0.0
  0
LINE
  5
65EA
  8
0
  6
CONTINUOUS
 62
     2
 10
88.508992301649428
 20
239.0363613646536
 30
0.0
 11
90.142739591362158
 21
239.47412263156869
 31
0.0
  0
VIEWPORT
  5
63E6
 67
     1
  8
0
 10
142.61041259765619
 20
99.112914085388184
 30
0.0
 40
369.66526460936211
 41
222.15178063964851
 68
     1
 69
     1
1001
ACAD
1000
MVIEW
1002
{
1070
    16
1010
0.0
1020
0.0
1030
0.0
1010
0.0
1020
0.0
1030
1.0
1040
0.0
1040
222.15178063964851
1040
142.61041259765619
1040
99.112914085388184
1040
50.0
1040
0.0
1040
0.0
1070
     0
1070
   100
1070
     1
1070
     1
1070
     0
1070
     0
1070
     0
1070
     0
1040
0.0
1040
0.0
1040
0.0
1040
10.0
1040
10.0
1040
10.0
1040
10.0
1070
     0
1002
{
1002
}
1002
}
1001
GENIUS_GENODEF_13
1002
{
1000
HIER
1070
     0
1002
}
1002
{
1000
MANEDIT
1070
     0
1002
}
1002
{
1000
NOSEL
1070
     0
1002
}
1002
{
1000
BEHIND
1070
     0
1002
}
1002
{
1000
OTHER
1070
     0
1002
}
1002
{
1000
REACTOR
1002
}
1001
GENIUS_GENOBJ-N-SDF_13
1002
{
1000
OWNER
1000
GEN
1002
}
1001
GENIUS_GENSCREG_15
1000
PF
1040
1.0
1000
DF
1040
1.0
1000
MIN
1011
-42.222219707024799
1021
0.0
1031
0.0
1021
-11.96297623443604
1031
0.0
1000
MAX
1011
327.44304490233731
1021
0.0
1031
0.0
1021
210.18880440521241
1031
0.0
1000
FLAGS
1070
     4
  0
ENDSEC
  0
EOF
