  0
SECTION
  2
HEADER
  9
$ACADVER
  1
AC1009
  9
$INSBASE
 10
0.0
 20
0.0
 30
0.0
  9
$EXTMIN
 10
244.1555866994438
 20
295.23181013514682
 30
0.0
  9
$EXTMAX
 10
388.58547049585587
 20
374.99311590980483
 30
0.0
  9
$LIMMIN
 10
-420.0
 20
-297.0
  9
$LIMMAX
 10
420.0
 20
297.0
  9
$ORTHOMODE
 70
     0
  9
$REGENMODE
 70
     1
  9
$FILLMODE
 70
     1
  9
$QTEXTMODE
 70
     0
  9
$MIRRTEXT
 70
     1
  9
$DRAGMODE
 70
     2
  9
$LTSCALE
 40
1.0
  9
$OSMODE
 70
    39
  9
$ATTMODE
 70
     1
  9
$TEXTSIZE
 40
0.2
  9
$TRACEWID
 40
0.05
  9
$TEXTSTYLE
  7
STANDARD
  9
$CLAYER
  8
0
  9
$CELTYPE
  6
BYLAYER
  9
$CECOLOR
 62
   256
  9
$DIMSCALE
 40
1.0
  9
$DIMASZ
 40
2.5
  9
$DIMEXO
 40
0.0625
  9
$DIMDLI
 40
0.38
  9
$DIMRND
 40
0.0
  9
$DIMDLE
 40
0.0
  9
$DIMEXE
 40
0.18
  9
$DIMTP
 40
0.0
  9
$DIMTM
 40
0.0
  9
$DIMTXT
 40
0.18
  9
$DIMCEN
 40
0.09
  9
$DIMTSZ
 40
0.0
  9
$DIMTOL
 70
     0
  9
$DIMLIM
 70
     0
  9
$DIMTIH
 70
     1
  9
$DIMTOH
 70
     1
  9
$DIMSE1
 70
     0
  9
$DIMSE2
 70
     0
  9
$DIMTAD
 70
     3
  9
$DIMZIN
 70
     0
  9
$DIMBLK
  1

  9
$DIMASO
 70
     1
  9
$DIMSHO
 70
     1
  9
$DIMPOST
  1

  9
$DIMAPOST
  1

  9
$DIMALT
 70
     0
  9
$DIMALTD
 70
     2
  9
$DIMALTF
 40
25.399999999999999
  9
$DIMLFAC
 40
1.0
  9
$DIMTOFL
 70
     0
  9
$DIMTVP
 40
0.0
  9
$DIMTIX
 70
     0
  9
$DIMSOXD
 70
     0
  9
$DIMSAH
 70
     0
  9
$DIMBLK1
  1

  9
$DIMBLK2
  1

  9
$DIMSTYLE
  2
STANDARD
  9
$DIMCLRD
 70
     0
  9
$DIMCLRE
 70
     0
  9
$DIMCLRT
 70
     0
  9
$DIMTFAC
 40
1.0
  9
$DIMGAP
 40
0.09
  9
$LUNITS
 70
     2
  9
$LUPREC
 70
     4
  9
$SKETCHINC
 40
0.1
  9
$FILLETRAD
 40
0.5
  9
$AUNITS
 70
     0
  9
$AUPREC
 70
     0
  9
$MENU
  1
.
  9
$ELEVATION
 40
0.0
  9
$PELEVATION
 40
0.0
  9
$THICKNESS
 40
0.0
  9
$LIMCHECK
 70
     0
  9
$BLIPMODE
 70
     0
  9
$CHAMFERA
 40
0.5
  9
$CHAMFERB
 40
0.5
  9
$SKPOLY
 70
     0
  9
$TDCREATE
 40
2454551.8754738308
  9
$TDUPDATE
 40
2457165.6408755439
  9
$TDINDWG
 40
0.1616046644
  9
$TDUSRTIMER
 40
0.1616044792
  9
$USRTIMER
 70
     1
  9
$ANGBASE
 50
0.0
  9
$ANGDIR
 70
     0
  9
$PDMODE
 70
     0
  9
$PDSIZE
 40
1.0
  9
$PLINEWID
 40
0.0
  9
$COORDS
 70
     2
  9
$SPLFRAME
 70
     0
  9
$SPLINETYPE
 70
     6
  9
$SPLINESEGS
 70
     8
  9
$ATTDIA
 70
     1
  9
$ATTREQ
 70
     1
  9
$HANDLING
 70
     1
  9
$HANDSEED
  5
AAF
  9
$SURFTAB1
 70
     6
  9
$SURFTAB2
 70
     6
  9
$SURFTYPE
 70
     6
  9
$SURFU
 70
     6
  9
$SURFV
 70
     6
  9
$UCSNAME
  2

  9
$UCSORG
 10
0.0
 20
0.0
 30
0.0
  9
$UCSXDIR
 10
1.0
 20
0.0
 30
0.0
  9
$UCSYDIR
 10
0.0
 20
1.0
 30
0.0
  9
$PUCSNAME
  2

  9
$PUCSORG
 10
0.0
 20
0.0
 30
0.0
  9
$PUCSXDIR
 10
1.0
 20
0.0
 30
0.0
  9
$PUCSYDIR
 10
0.0
 20
1.0
 30
0.0
  9
$USERI1
 70
     0
  9
$USERI2
 70
     0
  9
$USERI3
 70
     0
  9
$USERI4
 70
     0
  9
$USERI5
 70
     0
  9
$USERR1
 40
0.0
  9
$USERR2
 40
0.0
  9
$USERR3
 40
0.0
  9
$USERR4
 40
0.0
  9
$USERR5
 40
0.0
  9
$WORLDVIEW
 70
     1
  9
$SHADEDGE
 70
     3
  9
$SHADEDIF
 70
    70
  9
$TILEMODE
 70
     1
  9
$MAXACTVP
 70
    64
  9
$PLIMCHECK
 70
     0
  9
$PEXTMIN
 10
0.0
 20
0.0
 30
0.0
  9
$PEXTMAX
 10
0.0
 20
0.0
 30
0.0
  9
$PLIMMIN
 10
0.0
 20
0.0
  9
$PLIMMAX
 10
12.0
 20
9.0
  9
$UNITMODE
 70
     0
  9
$VISRETAIN
 70
     0
  9
$PLINEGEN
 70
     1
  9
$PSLTSCALE
 70
     1
  0
ENDSEC
  0
SECTION
  2
TABLES
  0
TABLE
  2
VPORT
 70
     1
  0
VPORT
  2
*ACTIVE
 70
     0
 10
0.0
 20
0.0
 11
1.0
 21
1.0
 12
43.23930807466126
 22
22.048086939133679
 13
0.0
 23
0.0
 14
0.5
 24
0.5
 15
0.5
 25
0.5
 16
0.0
 26
0.0
 36
1.0
 17
276.17846708505988
 27
311.69594930295619
 37
0.0
 40
243.1877340764681
 41
1.0384226491405451
 42
50.0
 43
0.0
 44
0.0
 50
0.0
 51
0.0
 71
     0
 72
  1000
 73
     1
 74
     1
 75
     0
 76
     0
 77
     0
 78
     0
  0
ENDTAB
  0
TABLE
  2
LTYPE
 70
    20
  0
LTYPE
  2
CONTINUOUS
 70
     0
  3
Solid line
 72
    65
 73
     0
 40
0.0
  0
LTYPE
  2
PHANTOM2
 70
     0
  3
Phantom (.5x) ___ _ _ ___ _ _ ___ _ _ ___ _ _
 72
    65
 73
     6
 40
1.25
 49
0.625
 49
-0.125
 49
0.125
 49
-0.125
 49
0.125
 49
-0.125
  0
LTYPE
  2
CENTER
 70
     0
  3
CADPAC LINETYPE
 72
    65
 73
     4
 40
23.418181818181829
 49
10.18181818181818
 49
-5.0909090909090917
 49
3.054545454545456
 49
-5.0909090909090917
  0
LTYPE
  2
AM_ISO02W050
 70
     0
  3
__ __ __ __ __ __ __ __ __ __ __ __ __ __ __
 72
    65
 73
     2
 40
7.5
 49
6.0
 49
-1.5
  0
LTYPE
  2
AM_ISO08W050
 70
     0
  3
____ . ____ . ____ . ____ . ____ . ____ . ____
 72
    65
 73
     4
 40
18.0
 49
12.0
 49
-1.5
 49
3.0
 49
-1.5
  0
LTYPE
  2
AM_ISO09W050
 70
     0
  3
_____ . . _____ . . _____ . . ____ .. ____
 72
    65
 73
     6
 40
22.5
 49
12.0
 49
-1.5
 49
3.0
 49
-1.5
 49
3.0
 49
-1.5
  0
LTYPE
  2
AMCONSTR
 70
     0
  3
_______________________
 72
    65
 73
     2
 40
9999.0
 49
9999.0
 49
0.0
  0
LTYPE
  2
AM_ISO08W050X2
 70
     0
  3
__ . __ . __ . __ . __ . __
 72
    65
 73
     4
 40
9.0
 49
6.0
 49
-0.75
 49
1.5
 49
-0.75
  0
LTYPE
  2
AM_ISO02W050X2
 70
     0
  3
 _ _ _ _ _ _ _ _ _ _ _ _
 72
    65
 73
     2
 40
3.75
 49
3.0
 49
-0.75
  0
LTYPE
  2
AMZIGZAG
 70
     0
  3
/\/-/\/-/\/-/\/-/\/-/\/
 72
    65
 73
     2
 40
11.000099999999991
 49
0.0001
 49
-11.0
  0
LTYPE
  2
ACISOWELD
 70
     0
  3
_ _ _ _ _
 72
    65
 73
     2
 40
2.0
 49
2.0
 49
-1.0
  0
LTYPE
  2
ACISOTGB
 70
     0
  3
__ . . __ . .
 72
    65
 73
     6
 40
9.0
 49
4.0
 49
-1.0
 49
1.0
 49
-1.0
 49
1.0
 49
-1.0
  0
LTYPE
  2
ACISOTGL
 70
     0
  3
_ _ _ _ _
 72
    65
 73
     2
 40
3.0
 49
2.0
 49
-1.0
  0
LTYPE
  2
HIDDEN
 70
     0
  3
Hidden __ __ __ __ __ __ __ __ __ __ __ __ __ _
 72
    65
 73
     2
 40
0.375
 49
0.25
 49
-0.125
  0
LTYPE
  2
CENTER2
 70
     0
  3
Center (.5x) ___ _ ___ _ ___ _ ___ _ ___ _ ___
 72
    65
 73
     4
 40
1.125
 49
0.75
 49
-0.125
 49
0.125
 49
-0.125
  0
LTYPE
  2
HIDDEN2
 70
     0
  3
Hidden (.5x) _ _ _ _ _ _ _ _ _ _ _ _ _ _ _ _ _
 72
    65
 73
     2
 40
0.1875
 49
0.125
 49
-0.0625
  0
LTYPE
  2
AMZIGZAG2
 70
     0
  3
/\/-/\/-/\/-/\/-/\/-/\/
 72
    65
 73
     2
 40
0.4401
 49
0.0001
 49
-0.4400000000000001
  0
LTYPE
  2
ACANSTGB
 70
     0
  3
__ . . __ . .
 72
    65
 73
     6
 40
0.35433070866
 49
0.15748031496
 49
-0.03937007874
 49
0.03937007874
 49
-0.03937007874
 49
0.03937007874
 49
-0.03937007874
  0
LTYPE
  2
ACANSTGL
 70
     0
  3
_ _ _ _ _
 72
    65
 73
     2
 40
0.11811023622
 49
0.07874015748
 49
-0.03937007874
  0
ENDTAB
  0
TABLE
  2
LAYER
 70
     4
  0
LAYER
  2
0
 70
     0
 62
     7
  6
CONTINUOUS
  0
LAYER
  2
DEFPOINTS
 70
     0
 62
     7
  6
CONTINUOUS
  0
LAYER
  2
AM_0
 70
     0
 62
     7
  6
CONTINUOUS
  0
LAYER
  2
AM_CL
 70
     0
 62
     1
  6
AMCONSTR
  0
ENDTAB
  0
TABLE
  2
STYLE
 70
     8
  0
STYLE
  2
STANDARD
 70
     0
 40
0.0
 41
1.0
 50
0.0
 71
     0
 42
0.2
  3
txt
  4

  0
STYLE
  2
ANNOTATIVE
 70
     0
 40
0.0
 41
1.0
 50
0.0
 71
     0
 42
0.2
  3
txt
  4

  0
STYLE
  2

 70
     1
 40
0.0
 41
1.0
 50
0.0
 71
     0
 42
0.2
  3
ltypeshp.shx
  4

  0
STYLE
  2
ACISOTS
 70
     0
 40
1.0
 41
1.0
 50
0.0
 71
     0
 42
0.2
  3
isocp.shx
  4
extfont.shx
  0
STYLE
  2
ACISOGDT
 70
     0
 40
0.0
 41
1.0
 50
0.0
 71
     0
 42
0.2
  3
amgdt.shx
  4

  0
STYLE
  2

 70
     1
 40
0.0
 41
1.0
 50
0.0
 71
     0
 42
0.2
  3
genltshp.shx
  4

  0
STYLE
  2
ACANSTS
 70
     0
 40
1.0
 41
1.0
 50
0.0
 71
     0
 42
0.2
  3
romans.shx
  4
extfont.shx
  0
STYLE
  2
ACANSGDT
 70
     0
 40
0.0
 41
1.0
 50
0.0
 71
     0
 42
0.2
  3
amgdt.shx
  4

  0
ENDTAB
  0
TABLE
  2
VIEW
 70
     0
  0
ENDTAB
  0
TABLE
  2
UCS
 70
     0
  0
ENDTAB
  0
TABLE
  2
APPID
 70
    21
  0
APPID
  2
ACAD
 70
     0
  0
APPID
  2
ACADANNOTATIVE
 70
     0
  0
APPID
  2
DAFUSIONOUT
 70
     0
  0
APPID
  2
MCAD_NO_VIS
 70
     0
  0
APPID
  2
ACAD_TEMP_GRAPHIC
 70
     0
  0
APPID
  2
ACATTRIBSERVICES
 70
     0
  0
APPID
  2
GENIUS_GENSCREG_15
 70
     0
  0
APPID
  2
GENIUS_GENOBJ-N-SDF_13
 70
     0
  0
APPID
  2
GENIUS_GENODEF_13
 70
     0
  0
APPID
  2
DESIGNERASSEMBLIES
 70
     0
  0
APPID
  2
ACAD_DSTYLE_DIMJAG
 70
     0
  0
APPID
  2
ACAD_DSTYLE_DIMBREAK
 70
     0
  0
APPID
  2
ACAD_NAV_VCDISPLAY
 70
     0
  0
APPID
  2
ACAD_EXEMPT_FROM_CAD_STANDARDS
 70
     0
  0
APPID
  2
ACAD_MLEADERVER
 70
     0
  0
APPID
  2
ACAD_DSTYLE_DIMARC_LENGTH_
 70
     0
  0
APPID
  2
ACAD_DSTYLE_DIM_LINETYPE
 70
     0
  0
APPID
  2
ACAD_DSTYLE_DIM_EXT1_LINETYPE
 70
     0
  0
APPID
  2
ACAD_DSTYLE_DIM_EXT2_LINETYPE
 70
     0
  0
APPID
  2
ACAECLAYERSTANDARD
 70
     0
  0
APPID
  2
ACDBDYNAMICBLOCKTRUENAME2
 70
     0
  0
ENDTAB
  0
TABLE
  2
DIMSTYLE
 70
    15
  0
DIMSTYLE
  2
STANDARD
 70
     0
  3

  4

  5

  6

  7

 40
1.0
 41
0.18
 42
0.0625
 43
0.38
 44
0.18
 45
0.0
 46
0.0
 47
0.0
 48
0.0
140
0.18
141
0.09
142
0.0
143
25.399999999999999
144
1.0
145
0.0
146
1.0
147
0.09
 71
     0
 72
     0
 73
     1
 74
     1
 75
     0
 76
     0
 77
     0
 78
     0
170
     0
171
     2
172
     0
173
     0
174
     0
175
     0
176
     0
177
     0
178
     0
  0
DIMSTYLE
  2
ANNOTATIVE
 70
     0
  3

  4

  5

  6

  7

 40
1.0
 41
0.18
 42
0.0625
 43
0.38
 44
0.18
 45
0.0
 46
0.0
 47
0.0
 48
0.0
140
0.18
141
0.09
142
0.0
143
25.399999999999999
144
1.0
145
0.0
146
1.0
147
0.09
 71
     0
 72
     0
 73
     1
 74
     1
 75
     0
 76
     0
 77
     0
 78
     0
170
     0
171
     2
172
     0
173
     0
174
     0
175
     0
176
     0
177
     0
178
     0
  0
DIMSTYLE
  2
AM_ISO
 70
     0
  3

  4
"
  5

  6

  7

 40
1.0
 41
2.5
 42
1.0
 43
10.0
 44
1.0
 45
0.0
 46
0.0
 47
0.1
 48
0.1
140
3.5
141
0.0
142
0.0
143
0.0393701
144
1.0
145
0.0
146
0.71
147
1.5
 71
     0
 72
     0
 73
     0
 74
     0
 75
     0
 76
     0
 77
     1
 78
     8
170
     0
171
     2
172
     1
173
     0
174
     0
175
     0
176
   256
177
   256
178
     2
  0
DIMSTYLE
  2
AM_ISO$3
 70
     0
  3

  4
"
  5

  6

  7

 40
1.0
 41
2.5
 42
1.0
 43
10.0
 44
1.0
 45
0.0
 46
0.0
 47
0.1
 48
0.1
140
3.5
141
0.0
142
0.0
143
0.0393701
144
1.0
145
0.0
146
0.71
147
1.5
 71
     0
 72
     0
 73
     0
 74
     1
 75
     0
 76
     0
 77
     1
 78
     8
170
     0
171
     2
172
     0
173
     0
174
     0
175
     0
176
   256
177
   256
178
     2
  0
DIMSTYLE
  2
AM_ISO$4
 70
     0
  3

  4
"
  5

  6

  7

 40
1.0
 41
2.5
 42
1.0
 43
10.0
 44
1.0
 45
0.0
 46
0.0
 47
0.1
 48
0.1
140
3.5
141
0.0
142
0.0
143
0.0393701
144
1.0
145
0.0
146
0.71
147
1.5
 71
     0
 72
     0
 73
     0
 74
     1
 75
     0
 76
     0
 77
     1
 78
     8
170
     0
171
     2
172
     0
173
     0
174
     0
175
     0
176
   256
177
   256
178
     2
  0
DIMSTYLE
  2
AM_ISO$6
 70
     0
  3

  4
"
  5

  6

  7

 40
1.0
 41
2.5
 42
1.0
 43
10.0
 44
1.0
 45
0.0
 46
0.0
 47
0.1
 48
0.1
140
3.5
141
0.0
142
0.0
143
0.0393701
144
1.0
145
0.0
146
0.71
147
1.5
 71
     0
 72
     0
 73
     0
 74
     0
 75
     0
 76
     0
 77
     0
 78
     8
170
     0
171
     2
172
     1
173
     0
174
     0
175
     0
176
   256
177
   256
178
     2
  0
DIMSTYLE
  2
AM_ISO$7
 70
     0
  3

  4
"
  5

  6

  7

 40
1.0
 41
2.5
 42
1.0
 43
10.0
 44
1.0
 45
0.0
 46
0.0
 47
0.1
 48
0.1
140
5.0
141
0.0
142
0.0
143
0.0393701
144
1.0
145
0.0
146
0.71
147
1.5
 71
     0
 72
     0
 73
     0
 74
     0
 75
     0
 76
     0
 77
     1
 78
     8
170
     0
171
     2
172
     1
173
     0
174
     0
175
     0
176
   256
177
   256
178
     2
  0
DIMSTYLE
  2
AM_ISO$SF
 70
     0
  3

  4
"
  5

  6

  7

 40
1.0
 41
2.5
 42
1.0
 43
10.0
 44
1.0
 45
0.0
 46
0.0
 47
0.1
 48
0.1
140
3.5
141
0.0
142
0.0
143
0.0393701
144
1.0
145
0.0
146
0.71
147
1.5
 71
     0
 72
     0
 73
     0
 74
     0
 75
     1
 76
     1
 77
     1
 78
     8
170
     0
171
     2
172
     1
173
     0
174
     0
175
     0
176
   256
177
   256
178
     2
  0
DIMSTYLE
  2
AM_ISO$SH
 70
     0
  3

  4
"
  5

  6

  7

 40
1.0
 41
2.5
 42
1.0
 43
10.0
 44
1.0
 45
0.0
 46
0.0
 47
0.1
 48
0.1
140
3.5
141
0.0
142
0.0
143
0.0393701
144
2.0
145
0.0
146
0.71
147
1.5
 71
     0
 72
     0
 73
     0
 74
     0
 75
     1
 76
     1
 77
     1
 78
     8
170
     0
171
     2
172
     1
173
     1
174
     0
175
     0
176
   256
177
   256
178
     2
  0
DIMSTYLE
  2
AM_ANSI
 70
     0
  3

  4
mm
  5

  6

  7

 40
1.0
 41
0.12
 42
0.05
 43
0.5
 44
0.1
 45
0.0
 46
0.0
 47
0.1
 48
0.1
140
0.12
141
0.0
142
0.0
143
25.399999999999999
144
1.0
145
0.0
146
0.71
147
0.06
 71
     0
 72
     0
 73
     1
 74
     1
 75
     0
 76
     0
 77
     0
 78
     7
170
     0
171
     2
172
     0
173
     0
174
     0
175
     0
176
   256
177
   256
178
     2
  0
DIMSTYLE
  2
AM_ANSI$3
 70
     0
  3

  4
mm
  5

  6

  7

 40
1.0
 41
0.12
 42
0.05
 43
0.5
 44
0.1
 45
0.0
 46
0.0
 47
0.1
 48
0.1
140
0.12
141
0.0
142
0.0
143
25.399999999999999
144
1.0
145
0.0
146
0.71
147
0.06
 71
     0
 72
     0
 73
     1
 74
     1
 75
     0
 76
     0
 77
     0
 78
     7
170
     0
171
     2
172
     0
173
     0
174
     0
175
     0
176
   256
177
   256
178
     2
  0
DIMSTYLE
  2
AM_ANSI$4
 70
     0
  3

  4
mm
  5

  6

  7

 40
1.0
 41
0.12
 42
0.05
 43
0.5
 44
0.1
 45
0.0
 46
0.0
 47
0.1
 48
0.1
140
0.12
141
0.0
142
0.0
143
25.399999999999999
144
1.0
145
0.0
146
0.71
147
0.06
 71
     0
 72
     0
 73
     1
 74
     1
 75
     0
 76
     0
 77
     0
 78
     7
170
     0
171
     2
172
     0
173
     0
174
     0
175
     0
176
   256
177
   256
178
     2
  0
DIMSTYLE
  2
AM_ANSI$7
 70
     0
  3

  4
mm
  5

  6

  7

 40
1.0
 41
0.12
 42
0.05
 43
0.5
 44
0.1
 45
0.0
 46
0.0
 47
0.1
 48
0.1
140
0.12
141
0.0
142
0.0
143
25.399999999999999
144
1.0
145
0.0
146
0.71
147
0.06
 71
     0
 72
     0
 73
     1
 74
     1
 75
     0
 76
     0
 77
     0
 78
     7
170
     0
171
     2
172
     0
173
     0
174
     0
175
     0
176
   256
177
   256
178
     2
  0
DIMSTYLE
  2
AM_ANSI$SF
 70
     0
  3

  4
mm
  5

  6

  7

 40
1.0
 41
0.12
 42
0.05
 43
0.5
 44
0.1
 45
0.0
 46
0.0
 47
0.1
 48
0.1
140
0.12
141
0.0
142
0.0
143
25.399999999999999
144
1.0
145
0.0
146
0.71
147
0.06
 71
     0
 72
     0
 73
     1
 74
     1
 75
     1
 76
     1
 77
     0
 78
     7
170
     0
171
     2
172
     0
173
     0
174
     0
175
     0
176
   256
177
   256
178
     2
  0
DIMSTYLE
  2
AM_ANSI$SH
 70
     0
  3

  4
mm
  5

  6
GENAXEH
  7

 40
1.0
 41
0.12
 42
0.05
 43
0.5
 44
0.1
 45
0.0
 46
0.0
 47
0.1
 48
0.1
140
0.12
141
0.0
142
0.0
143
25.399999999999999
144
1.0
145
0.0
146
0.71
147
0.06
 71
     0
 72
     0
 73
     1
 74
     1
 75
     1
 76
     1
 77
     0
 78
     7
170
     0
171
     2
172
     0
173
     1
174
     0
175
     0
176
   256
177
   256
178
     2
  0
ENDTAB
  0
ENDSEC
  0
SECTION
  2
BLOCKS
  0
BLOCK
  8
0
  2
$MODEL_SPACE
 70
     0
 10
0.0
 20
0.0
 30
0.0
  3
$MODEL_SPACE
  1

  0
ENDBLK
  5
7B8
  8
0
  0
BLOCK
 67
     1
  8
0
  2
$PAPER_SPACE
 70
     0
 10
0.0
 20
0.0
 30
0.0
  3
$PAPER_SPACE
  1

  0
ENDBLK
  5
7B4
 67
     1
  8
0
  0
BLOCK
  8
0
  2
GENAXEH
 70
     0
 10
0.0
 20
0.0
 30
0.0
  3
GENAXEH
  1

  0
LINE
  5
2AE
  8
0
 10
-1.0
 20
0.0
 30
0.0
 11
1.0
 21
0.0
 31
0.0
  0
ENDBLK
  5
2B0
  8
0
  0
ENDSEC
  0
SECTION
  2
ENTITIES
  0
LINE
  5
18C
  8
0
  6
CENTER
 62
     4
 10
289.63358123682622
 20
332.91225569736781
 30
0.0
 11
289.63358123682622
 21
336.75225569736722
 31
0.0
  0
LINE
  5
18D
  8
0
  6
CENTER
 62
     4
 10
287.71358123682631
 20
334.83225569736737
 30
0.0
 11
291.55358123682589
 21
334.83225569736737
 31
0.0
  0
LINE
  5
18E
  8
0
  6
CENTER
 62
     4
 10
299.63358123682622
 20
332.91225569736781
 30
0.0
 11
299.63358123682622
 21
336.75225569736722
 31
0.0
  0
LINE
  5
18F
  8
0
  6
CENTER
 62
     4
 10
297.71358123682631
 20
334.83225569736737
 30
0.0
 11
301.55358123682601
 21
334.83225569736737
 31
0.0
  0
LINE
  5
190
  8
0
  6
CENTER
 62
     4
 10
264.433581236826
 20
321.33225569736823
 30
0.0
 11
264.433581236826
 21
331.83225569736737
 31
0.0
  0
LINE
  5
191
  8
0
  6
CENTER
 62
     4
 10
264.73358123682613
 20
334.83225569736862
 30
0.0
 11
261.83358123682621
 21
334.83225569736862
 31
0.0
  0
LINE
  5
192
  8
0
  6
CENTER
 62
     4
 10
294.63358123682622
 20
321.33225569736737
 30
0.0
 11
294.63358123682622
 21
350.33225569736749
 31
0.0
  0
LINE
  5
193
  8
0
  6
CENTER
 62
     4
 10
294.63358123682622
 20
369.33225569736788
 30
0.0
 11
294.63358123682622
 21
374.83225569736788
 31
0.0
  0
LINE
  5
198
  8
0
  6
CENTER
 62
     4
 10
291.81015353534508
 20
343.83225569736732
 30
0.0
 11
297.55068391088469
 21
343.83225569736732
 31
0.0
  0
LINE
  5
1EF
  8
0
  6
CONTINUOUS
 62
     7
 10
290.63358123682622
 20
331.83225569736737
 30
0.0
 11
286.63358123682622
 21
331.83225569736737
 31
0.0
  0
LINE
  5
1F0
  8
0
  6
CONTINUOUS
 62
     7
 10
290.63358123682622
 20
331.83225569736737
 30
0.0
 11
292.43358123682611
 21
332.33225569736737
 31
0.0
  0
LINE
  5
1F1
  8
0
  6
CONTINUOUS
 62
     7
 10
296.83358123682638
 20
332.33225569736737
 30
0.0
 11
298.63358123682622
 21
331.83225569736737
 31
0.0
  0
LINE
  5
1F2
  8
0
  6
CONTINUOUS
 62
     7
 10
302.63358123682622
 20
331.83225569736737
 30
0.0
 11
298.63358123682622
 21
331.83225569736737
 31
0.0
  0
LINE
  5
1F5
  8
0
  6
CONTINUOUS
 62
     7
 10
264.433581236826
 20
332.33225569736737
 30
0.0
 11
264.433581236826
 21
331.83225569736737
 31
0.0
  0
LINE
  5
1F6
  8
0
  6
CONTINUOUS
 62
     7
 10
264.433581236826
 20
332.33225569736737
 30
0.0
 11
266.63358123682622
 21
332.44755281179022
 31
0.0
  0
LINE
  5
1F7
  8
0
  6
CONTINUOUS
 62
     7
 10
266.63358123682622
 20
349.7536440284432
 30
0.0
 11
265.1335812368261
 21
349.83225569736783
 31
0.0
  0
LINE
  5
1F8
  8
0
  6
CONTINUOUS
 62
     7
 10
262.13358123682622
 20
349.83225569736783
 30
0.0
 11
262.13358123682622
 21
331.83225569736737
 31
0.0
  0
LINE
  5
1F9
  8
0
  6
CONTINUOUS
 62
     7
 10
262.13358123682622
 20
331.83225569736737
 30
0.0
 11
264.433581236826
 21
331.83225569736737
 31
0.0
  0
LINE
  5
1FA
  8
0
  6
CONTINUOUS
 62
     7
 10
263.18358123682589
 20
331.83225569736737
 30
0.0
 11
263.1835812368264
 21
321.83225569736732
 31
0.0
  0
LINE
  5
1FB
  8
0
  6
CONTINUOUS
 62
     7
 10
265.68358123682611
 20
332.39776542147132
 30
0.0
 11
265.6835812368264
 21
321.83225569736737
 31
0.0
  0
LINE
  5
1FC
  8
0
  6
CONTINUOUS
 62
     7
 10
264.433581236826
 20
337.63225569736852
 30
0.0
 11
264.433581236826
 21
332.33225569736737
 31
0.0
  0
LINE
  5
1FD
  8
0
  6
CONTINUOUS
 62
     7
 10
264.433581236826
 20
337.63225569736852
 30
0.0
 11
266.63358123682622
 21
337.74755281179108
 31
0.0
  0
LINE
  5
1FE
  8
0
  6
CONTINUOUS
 62
     7
 10
266.63358123682622
 20
332.44755281179022
 30
0.0
 11
266.63358123682622
 21
349.7536440284432
 31
0.0
  0
LINE
  5
1FF
  8
0
  6
CONTINUOUS
 62
     7
 10
265.1335812368261
 20
349.83225569736783
 30
0.0
 11
262.13358123682622
 21
349.83225569736783
 31
0.0
  0
LINE
  5
200
  8
0
  6
CONTINUOUS
 62
     7
 10
292.63358123682622
 20
332.33225569736737
 30
0.0
 11
292.63358123682622
 21
334.83225569736737
 31
0.0
  0
LINE
  5
201
  8
0
  6
CONTINUOUS
 62
     7
 10
296.63358123682622
 20
332.33225569736737
 30
0.0
 11
296.63358123682622
 21
334.83225569736737
 31
0.0
  0
LINE
  5
202
  8
0
  6
CONTINUOUS
 62
     7
 10
299.63358123682622
 20
337.83225569736749
 30
0.0
 11
302.63358123682622
 21
337.83225569736749
 31
0.0
  0
LINE
  5
203
  8
0
  6
CONTINUOUS
 62
     7
 10
286.63358123682622
 20
337.83225569736749
 30
0.0
 11
289.63358123682622
 21
337.83225569736749
 31
0.0
  0
LINE
  5
204
  8
0
  6
CONTINUOUS
 62
     7
 10
302.63358123682622
 20
349.8322556973672
 30
0.0
 11
302.63358123682622
 21
331.83225569736737
 31
0.0
  0
LINE
  5
205
  8
0
  6
CONTINUOUS
 62
     7
 10
302.63358123682622
 20
349.8322556973672
 30
0.0
 11
286.63358123682622
 21
349.8322556973672
 31
0.0
  0
LINE
  5
206
  8
0
  6
CONTINUOUS
 62
     7
 10
286.63358123682622
 20
349.8322556973672
 30
0.0
 11
286.63358123682622
 21
331.83225569736737
 31
0.0
  0
LINE
  5
207
  8
0
  6
CONTINUOUS
 62
     7
 10
293.38358123682588
 20
332.33225569736737
 30
0.0
 11
293.38358123682622
 21
321.83225569736737
 31
0.0
  0
LINE
  5
208
  8
0
  6
CONTINUOUS
 62
     7
 10
295.88358123682588
 20
332.33225569736737
 30
0.0
 11
295.88358123682622
 21
321.83225569736737
 31
0.0
  0
LINE
  5
209
  8
0
  6
CONTINUOUS
 62
     7
 10
286.63358123682622
 20
374.332255697368
 30
0.0
 11
302.63358123682622
 21
374.332255697368
 31
0.0
  0
LINE
  5
20A
  8
0
  6
CONTINUOUS
 62
     7
 10
302.63358123682622
 20
374.332255697368
 30
0.0
 11
302.63358123682622
 21
371.33225569736788
 31
0.0
  0
LINE
  5
20B
  8
0
  6
CONTINUOUS
 62
     7
 10
286.63358123682622
 20
374.332255697368
 30
0.0
 11
286.63358123682622
 21
371.33225569736788
 31
0.0
  0
LINE
  5
20C
  8
0
  6
CONTINUOUS
 62
     7
 10
302.63358123682622
 20
371.33225569736788
 30
0.0
 11
302.55496956790159
 21
369.832255697368
 31
0.0
  0
LINE
  5
20D
  8
0
  6
CONTINUOUS
 62
     7
 10
286.63358123682622
 20
371.33225569736788
 30
0.0
 11
286.71219290575073
 21
369.832255697368
 31
0.0
  0
LINE
  5
20E
  8
0
  6
CONTINUOUS
 62
     7
 10
286.71219290575073
 20
369.832255697368
 30
0.0
 11
302.55496956790159
 21
369.832255697368
 31
0.0
  0
LINE
  5
21D
  8
0
  6
CONTINUOUS
 62
     7
 10
296.83358123682638
 20
332.33225569736737
 30
0.0
 11
292.43358123682611
 21
332.33225569736737
 31
0.0
  0
CIRCLE
  5
21E
  8
0
  6
CONTINUOUS
 62
     7
 10
299.63358123682622
 20
334.83225569736737
 30
0.0
 40
1.599999999999794
  0
CIRCLE
  5
21F
  8
0
  6
CONTINUOUS
 62
     7
 10
289.63358123682622
 20
334.83225569736737
 30
0.0
 40
1.599999999999794
  0
ARC
  5
22A
  8
0
  6
CONTINUOUS
 62
     7
 10
299.63358123682622
 20
334.83225569736737
 30
0.0
 40
3.0
 50
90.0
 51
180.0
  0
ARC
  5
22B
  8
0
  6
CONTINUOUS
 62
     7
 10
289.63358123682622
 20
334.83225569736737
 30
0.0
 40
3.0
 50
0.0
 51
90.0
  0
LINE
  5
673
  8
0
  6
CENTER
 62
     4
 10
299.63358123682622
 20
369.04379069897141
 30
0.0
 11
299.63358123682622
 21
374.99311590980483
 31
0.0
  0
LINE
  5
674
  8
0
  6
CENTER
 62
     4
 10
289.63358123682622
 20
369.04379069897141
 30
0.0
 11
289.63358123682622
 21
374.99311590980483
 31
0.0
  0
LINE
  5
6A4
  8
0
  6
CONTINUOUS
 62
     4
 10
294.63358123682622
 20
367.17766477565402
 30
0.0
 11
294.63358123682622
 21
362.69420346367059
 31
0.0
  0
LINE
  5
6CF
  8
0
  6
CONTINUOUS
 62
     4
 10
270.6593940074282
 20
343.83225569736732
 30
0.0
 11
275.14285531941169
 21
343.83225569736732
 31
0.0
  0
SOLID
  5
8C9
  8
0
 62
     4
 10
294.23862374406423
 20
363.30501118097573
 30
0.0
 11
295.02853872958832
 21
363.30501118097573
 31
0.0
 12
294.63358123682622
 22
360.30501118097612
 32
0.0
 13
294.63358123682622
 23
360.30501118097612
 33
0.0
  0
SOLID
  5
8D0
  8
0
 62
     4
 10
273.8624125283755
 20
343.43729820460521
 30
0.0
 11
273.8624125283755
 21
344.22721319012931
 31
0.0
 12
276.86241252837522
 22
343.83225569736732
 32
0.0
 13
276.86241252837522
 23
343.83225569736732
 33
0.0
  0
LINE
  5
8E0
  8
0
  6
CENTER
 62
     4
 10
260.50190607840608
 20
343.83225569736732
 30
0.0
 11
267.86150802372902
 21
343.83225569736732
 31
0.0
  0
LINE
  5
955
  8
0
  6
CENTER
 62
     4
 10
352.3502403961723
 20
332.91225569736781
 30
0.0
 11
352.3502403961723
 21
336.75225569736722
 31
0.0
  0
LINE
  5
956
  8
0
  6
CENTER
 62
     4
 10
354.2702403961722
 20
334.83225569736737
 30
0.0
 11
350.43024039617262
 21
334.83225569736737
 31
0.0
  0
LINE
  5
957
  8
0
  6
CENTER
 62
     4
 10
342.3502403961723
 20
332.91225569736781
 30
0.0
 11
342.3502403961723
 21
336.75225569736722
 31
0.0
  0
LINE
  5
958
  8
0
  6
CENTER
 62
     4
 10
344.2702403961722
 20
334.83225569736737
 30
0.0
 11
340.43024039617251
 21
334.83225569736737
 31
0.0
  0
LINE
  5
959
  8
0
  6
CENTER
 62
     4
 10
377.55024039617251
 20
321.33225569736823
 30
0.0
 11
377.55024039617251
 21
331.83225569736737
 31
0.0
  0
LINE
  5
95A
  8
0
  6
CENTER
 62
     4
 10
377.25024039617239
 20
334.83225569736862
 30
0.0
 11
380.15024039617231
 21
334.83225569736862
 31
0.0
  0
LINE
  5
95B
  8
0
  6
CENTER
 62
     4
 10
347.3502403961723
 20
321.33225569736737
 30
0.0
 11
347.3502403961723
 21
350.33225569736749
 31
0.0
  0
LINE
  5
95C
  8
0
  6
CENTER
 62
     4
 10
347.3502403961723
 20
369.33225569736788
 30
0.0
 11
347.3502403961723
 21
374.83225569736788
 31
0.0
  0
LINE
  5
95D
  8
0
  6
CENTER
 62
     4
 10
350.17366809765338
 20
343.83225569736732
 30
0.0
 11
344.43313772211383
 21
343.83225569736732
 31
0.0
  0
LINE
  5
95E
  8
0
  6
CONTINUOUS
 62
     7
 10
351.3502403961723
 20
331.83225569736737
 30
0.0
 11
355.3502403961723
 21
331.83225569736737
 31
0.0
  0
LINE
  5
95F
  8
0
  6
CONTINUOUS
 62
     7
 10
351.3502403961723
 20
331.83225569736737
 30
0.0
 11
349.55024039617251
 21
332.33225569736737
 31
0.0
  0
LINE
  5
960
  8
0
  6
CONTINUOUS
 62
     7
 10
345.15024039617208
 20
332.33225569736737
 30
0.0
 11
343.3502403961723
 21
331.83225569736737
 31
0.0
  0
LINE
  5
961
  8
0
  6
CONTINUOUS
 62
     7
 10
339.3502403961723
 20
331.83225569736737
 30
0.0
 11
343.3502403961723
 21
331.83225569736737
 31
0.0
  0
LINE
  5
962
  8
0
  6
CONTINUOUS
 62
     7
 10
377.55024039617251
 20
332.33225569736737
 30
0.0
 11
377.55024039617251
 21
331.83225569736737
 31
0.0
  0
LINE
  5
963
  8
0
  6
CONTINUOUS
 62
     7
 10
377.55024039617251
 20
332.33225569736737
 30
0.0
 11
375.35024039617241
 21
332.44755281179022
 31
0.0
  0
LINE
  5
964
  8
0
  6
CONTINUOUS
 62
     7
 10
375.35024039617241
 20
349.7536440284432
 30
0.0
 11
376.85024039617252
 21
349.83225569736783
 31
0.0
  0
LINE
  5
965
  8
0
  6
CONTINUOUS
 62
     7
 10
379.85024039617241
 20
349.83225569736783
 30
0.0
 11
379.85024039617241
 21
331.83225569736737
 31
0.0
  0
LINE
  5
966
  8
0
  6
CONTINUOUS
 62
     7
 10
379.85024039617241
 20
331.83225569736737
 30
0.0
 11
377.55024039617251
 21
331.83225569736737
 31
0.0
  0
LINE
  5
967
  8
0
  6
CONTINUOUS
 62
     7
 10
378.80024039617251
 20
331.83225569736737
 30
0.0
 11
378.80024039617211
 21
321.83225569736732
 31
0.0
  0
LINE
  5
968
  8
0
  6
CONTINUOUS
 62
     7
 10
376.3002403961724
 20
332.39776542147132
 30
0.0
 11
376.30024039617211
 21
321.83225569736737
 31
0.0
  0
LINE
  5
969
  8
0
  6
CONTINUOUS
 62
     7
 10
377.55024039617251
 20
337.63225569736852
 30
0.0
 11
377.55024039617251
 21
332.33225569736737
 31
0.0
  0
LINE
  5
96A
  8
0
  6
CONTINUOUS
 62
     7
 10
377.55024039617251
 20
337.63225569736852
 30
0.0
 11
375.35024039617241
 21
337.74755281179108
 31
0.0
  0
LINE
  5
96B
  8
0
  6
CONTINUOUS
 62
     7
 10
375.35024039617241
 20
332.44755281179022
 30
0.0
 11
375.35024039617241
 21
349.7536440284432
 31
0.0
  0
LINE
  5
96C
  8
0
  6
CONTINUOUS
 62
     7
 10
376.85024039617252
 20
349.83225569736783
 30
0.0
 11
379.85024039617241
 21
349.83225569736783
 31
0.0
  0
LINE
  5
96D
  8
0
  6
CONTINUOUS
 62
     7
 10
349.3502403961723
 20
332.33225569736737
 30
0.0
 11
349.3502403961723
 21
334.83225569736737
 31
0.0
  0
LINE
  5
96E
  8
0
  6
CONTINUOUS
 62
     7
 10
345.3502403961723
 20
332.33225569736737
 30
0.0
 11
345.3502403961723
 21
334.83225569736737
 31
0.0
  0
LINE
  5
96F
  8
0
  6
CONTINUOUS
 62
     7
 10
342.3502403961723
 20
337.83225569736749
 30
0.0
 11
339.3502403961723
 21
337.83225569736749
 31
0.0
  0
LINE
  5
970
  8
0
  6
CONTINUOUS
 62
     7
 10
355.3502403961723
 20
337.83225569736749
 30
0.0
 11
352.3502403961723
 21
337.83225569736749
 31
0.0
  0
LINE
  5
971
  8
0
  6
CONTINUOUS
 62
     7
 10
339.3502403961723
 20
349.8322556973672
 30
0.0
 11
339.3502403961723
 21
331.83225569736737
 31
0.0
  0
LINE
  5
972
  8
0
  6
CONTINUOUS
 62
     7
 10
339.3502403961723
 20
349.8322556973672
 30
0.0
 11
355.3502403961723
 21
349.8322556973672
 31
0.0
  0
LINE
  5
973
  8
0
  6
CONTINUOUS
 62
     7
 10
355.3502403961723
 20
349.8322556973672
 30
0.0
 11
355.3502403961723
 21
331.83225569736737
 31
0.0
  0
LINE
  5
974
  8
0
  6
CONTINUOUS
 62
     7
 10
348.60024039617258
 20
332.33225569736737
 30
0.0
 11
348.6002403961723
 21
321.83225569736737
 31
0.0
  0
LINE
  5
975
  8
0
  6
CONTINUOUS
 62
     7
 10
346.10024039617258
 20
332.33225569736737
 30
0.0
 11
346.1002403961723
 21
321.83225569736737
 31
0.0
  0
LINE
  5
976
  8
0
  6
CONTINUOUS
 62
     7
 10
355.3502403961723
 20
374.332255697368
 30
0.0
 11
339.3502403961723
 21
374.332255697368
 31
0.0
  0
LINE
  5
977
  8
0
  6
CONTINUOUS
 62
     7
 10
339.3502403961723
 20
374.332255697368
 30
0.0
 11
339.3502403961723
 21
371.33225569736788
 31
0.0
  0
LINE
  5
978
  8
0
  6
CONTINUOUS
 62
     7
 10
355.3502403961723
 20
374.332255697368
 30
0.0
 11
355.3502403961723
 21
371.33225569736788
 31
0.0
  0
LINE
  5
979
  8
0
  6
CONTINUOUS
 62
     7
 10
339.3502403961723
 20
371.33225569736788
 30
0.0
 11
339.42885206509681
 21
369.832255697368
 31
0.0
  0
LINE
  5
97A
  8
0
  6
CONTINUOUS
 62
     7
 10
355.3502403961723
 20
371.33225569736788
 30
0.0
 11
355.27162872724779
 21
369.832255697368
 31
0.0
  0
LINE
  5
97B
  8
0
  6
CONTINUOUS
 62
     7
 10
355.27162872724779
 20
369.832255697368
 30
0.0
 11
339.42885206509681
 21
369.832255697368
 31
0.0
  0
LINE
  5
97C
  8
0
  6
CONTINUOUS
 62
     7
 10
345.15024039617208
 20
332.33225569736737
 30
0.0
 11
349.55024039617251
 21
332.33225569736737
 31
0.0
  0
CIRCLE
  5
97D
  8
0
  6
CONTINUOUS
 62
     7
 10
342.3502403961723
 20
334.83225569736737
 30
0.0
 40
1.599999999999794
  0
CIRCLE
  5
97E
  8
0
  6
CONTINUOUS
 62
     7
 10
352.3502403961723
 20
334.83225569736737
 30
0.0
 40
1.599999999999794
  0
ARC
  5
97F
  8
0
  6
CONTINUOUS
 62
     7
 10
342.3502403961723
 20
334.83225569736737
 30
0.0
 40
3.0
 50
0.000000000000007
 51
90.0
  0
ARC
  5
980
  8
0
  6
CONTINUOUS
 62
     7
 10
352.3502403961723
 20
334.83225569736737
 30
0.0
 40
3.0
 50
90.0
 51
180.0
  0
LINE
  5
981
  8
0
  6
CENTER
 62
     4
 10
342.3502403961723
 20
369.04379069897141
 30
0.0
 11
342.3502403961723
 21
374.99311590980483
 31
0.0
  0
LINE
  5
982
  8
0
  6
CENTER
 62
     4
 10
352.3502403961723
 20
369.04379069897141
 30
0.0
 11
352.3502403961723
 21
374.99311590980483
 31
0.0
  0
LINE
  5
983
  8
0
  6
CONTINUOUS
 62
     4
 10
347.3502403961723
 20
360.55167770509411
 30
0.0
 11
347.3502403961723
 21
365.03513901707743
 31
0.0
  0
LINE
  5
984
  8
0
  6
CONTINUOUS
 62
     4
 10
365.61118034220112
 20
343.83225569736732
 30
0.0
 11
370.0946416541845
 21
343.83225569736732
 31
0.0
  0
SOLID
  5
986
  8
0
 62
     4
 10
347.7451978889344
 20
364.42433129977229
 30
0.0
 11
346.95528290341019
 21
364.42433129977229
 31
0.0
 12
347.3502403961723
 22
367.42433129977189
 32
0.0
 13
347.3502403961723
 23
367.42433129977189
 33
0.0
  0
SOLID
  5
987
  8
0
 62
     4
 10
368.81419886314842
 20
343.43729820460521
 30
0.0
 11
368.81419886314842
 21
344.22721319012931
 31
0.0
 12
371.81419886314802
 22
343.83225569736732
 32
0.0
 13
371.81419886314802
 23
343.83225569736732
 33
0.0
  0
LINE
  5
988
  8
0
  6
CENTER
 62
     4
 10
381.48191555459238
 20
343.83225569736732
 30
0.0
 11
374.1223136092695
 21
343.83225569736732
 31
0.0
  0
TEXT
  5
994
  8
0
 62
     2
 10
273.82153711900622
 20
310.2812455013713
 30
0.0
 40
3.5
  1
EMITTER
  0
TEXT
  5
995
  8
0
 62
     2
 10
369.91880382918919
 20
295.23181013514682
 30
0.0
 40
3.5
  1
EX-21A
  0
TEXT
  5
996
  8
0
 62
     2
 10
349.58249995594412
 20
310.89343234983983
 30
0.0
 40
3.5
  1
RECEIVER
  0
ENDSEC
  0
EOF
