  0
SECTION
  2
HEADER
  9
$ACADVER
  1
AC1009
  9
$INSBASE
 10
177.99999979121739
 20
6.7085914059697132
 30
0.0
  9
$EXTMIN
 10
-241.17310237640331
 20
468.02686379818641
 30
0.0
  9
$EXTMAX
 10
-29.170472688484509
 20
593.73237607327951
 30
0.0
  9
$LIMMIN
 10
-185.22394776397221
 20
352.48648918188883
  9
$LIMMAX
 10
-7.2239477639723182
 20
600.78648918188867
  9
$ORTHOMODE
 70
     1
  9
$REGENMODE
 70
     1
  9
$FILLMODE
 70
     1
  9
$QTEXTMODE
 70
     0
  9
$MIRRTEXT
 70
     1
  9
$DRAGMODE
 70
     2
  9
$LTSCALE
 40
1.0
  9
$OSMODE
 70
  3071
  9
$ATTMODE
 70
     1
  9
$TEXTSIZE
 40
5.0
  9
$TRACEWID
 40
1.0
  9
$TEXTSTYLE
  7
STANDARD
  9
$CLAYER
  8
0
  9
$CELTYPE
  6
BYLAYER
  9
$CECOLOR
 62
   256
  9
$DIMSCALE
 40
1.0
  9
$DIMASZ
 40
2.5
  9
$DIMEXO
 40
1.0
  9
$DIMDLI
 40
10.0
  9
$DIMRND
 40
0.0
  9
$DIMDLE
 40
0.0
  9
$DIMEXE
 40
1.0
  9
$DIMTP
 40
0.1
  9
$DIMTM
 40
0.1
  9
$DIMTXT
 40
3.5
  9
$DIMCEN
 40
0.0
  9
$DIMTSZ
 40
0.0
  9
$DIMTOL
 70
     1
  9
$DIMLIM
 70
     0
  9
$DIMTIH
 70
     1
  9
$DIMTOH
 70
     1
  9
$DIMSE1
 70
     0
  9
$DIMSE2
 70
     0
  9
$DIMTAD
 70
     0
  9
$DIMZIN
 70
     8
  9
$DIMBLK
  1
OPEN30
  9
$DIMASO
 70
     1
  9
$DIMSHO
 70
     1
  9
$DIMPOST
  1

  9
$DIMAPOST
  1
"
  9
$DIMALT
 70
     0
  9
$DIMALTD
 70
     2
  9
$DIMALTF
 40
0.0393701
  9
$DIMLFAC
 40
1.0
  9
$DIMTOFL
 70
     1
  9
$DIMTVP
 40
0.0
  9
$DIMTIX
 70
     0
  9
$DIMSOXD
 70
     0
  9
$DIMSAH
 70
     0
  9
$DIMBLK1
  1

  9
$DIMBLK2
  1

  9
$DIMSTYLE
  2
AM_JIS
  9
$DIMCLRD
 70
   256
  9
$DIMCLRE
 70
   256
  9
$DIMCLRT
 70
     2
  9
$DIMTFAC
 40
0.71
  9
$DIMGAP
 40
1.5
  9
$LUNITS
 70
     2
  9
$LUPREC
 70
     2
  9
$SKETCHINC
 40
1.0
  9
$FILLETRAD
 40
0.0
  9
$AUNITS
 70
     0
  9
$AUPREC
 70
     0
  9
$MENU
  1
.
  9
$ELEVATION
 40
0.0
  9
$PELEVATION
 40
0.0
  9
$THICKNESS
 40
0.0
  9
$LIMCHECK
 70
     0
  9
$BLIPMODE
 70
     0
  9
$CHAMFERA
 40
0.0
  9
$CHAMFERB
 40
0.0
  9
$SKPOLY
 70
     0
  9
$TDCREATE
 40
2454700.5488717011
  9
$TDUPDATE
 40
2454700.6205394561
  9
$TDINDWG
 40
0.0235803588
  9
$TDUSRTIMER
 40
0.0235798264
  9
$USRTIMER
 70
     1
  9
$ANGBASE
 50
0.0
  9
$ANGDIR
 70
     0
  9
$PDMODE
 70
     0
  9
$PDSIZE
 40
0.0
  9
$PLINEWID
 40
0.0
  9
$COORDS
 70
     0
  9
$SPLFRAME
 70
     0
  9
$SPLINETYPE
 70
     6
  9
$SPLINESEGS
 70
     8
  9
$ATTDIA
 70
     1
  9
$ATTREQ
 70
     1
  9
$HANDLING
 70
     1
  9
$HANDSEED
  5
35CA
  9
$SURFTAB1
 70
     6
  9
$SURFTAB2
 70
     6
  9
$SURFTYPE
 70
     6
  9
$SURFU
 70
     6
  9
$SURFV
 70
     6
  9
$UCSNAME
  2

  9
$UCSORG
 10
0.0
 20
0.0
 30
0.0
  9
$UCSXDIR
 10
1.0
 20
0.0
 30
0.0
  9
$UCSYDIR
 10
0.0
 20
1.0
 30
0.0
  9
$PUCSNAME
  2

  9
$PUCSORG
 10
0.0
 20
0.0
 30
0.0
  9
$PUCSXDIR
 10
1.0
 20
0.0
 30
0.0
  9
$PUCSYDIR
 10
0.0
 20
1.0
 30
0.0
  9
$USERI1
 70
     0
  9
$USERI2
 70
     0
  9
$USERI3
 70
     0
  9
$USERI4
 70
     0
  9
$USERI5
 70
     0
  9
$USERR1
 40
0.0
  9
$USERR2
 40
0.0
  9
$USERR3
 40
0.0
  9
$USERR4
 40
0.0
  9
$USERR5
 40
0.0
  9
$WORLDVIEW
 70
     1
  9
$SHADEDGE
 70
     3
  9
$SHADEDIF
 70
    70
  9
$TILEMODE
 70
     1
  9
$MAXACTVP
 70
    64
  9
$PLIMCHECK
 70
     0
  9
$PEXTMIN
 10
1.0000000000000000E+020
 20
1.0000000000000000E+020
 30
1.0000000000000000E+020
  9
$PEXTMAX
 10
-1.0000000000000000E+020
 20
-1.0000000000000000E+020
 30
-1.0000000000000000E+020
  9
$PLIMMIN
 10
-5.873748779296875
 20
-5.8737497329711923
  9
$PLIMMAX
 10
291.05224609375
 20
204.09957790374739
  9
$UNITMODE
 70
     0
  9
$VISRETAIN
 70
     1
  9
$PLINEGEN
 70
     0
  9
$PSLTSCALE
 70
     1
  0
ENDSEC
  0
SECTION
  2
TABLES
  0
TABLE
  2
VPORT
 70
     3
  0
VPORT
  2
*ACTIVE
 70
     0
 10
0.0
 20
0.0
 11
1.0
 21
1.0
 12
-135.171900653638
 22
530.88202281265922
 13
0.0
 23
0.0
 14
2.5
 24
2.5
 15
10.0
 25
10.0
 16
0.0
 26
0.0
 36
1.0
 17
0.0
 27
0.0
 37
0.0
 40
131.36790534838499
 41
1.621870882740448
 42
50.0
 43
0.0
 44
0.0
 50
0.0
 51
0.0
 71
     0
 72
   100
 73
     1
 74
     1
 75
     0
 76
     0
 77
     0
 78
     0
  0
ENDTAB
  0
TABLE
  2
LTYPE
 70
    20
  0
LTYPE
  2
CONTINUOUS
 70
     0
  3
Solid line
 72
    65
 73
     0
 40
0.0
  0
LTYPE
  2
AMCONSTR
 70
     0
  3
_______________________
 72
    65
 73
     2
 40
9999.0
 49
9999.0
 49
0.0
  0
LTYPE
  2
CENTER
 70
     0
  3
____ _ ____ _
 72
    65
 73
     4
 40
13.42150481887249
 49
8.3884405117953058
 49
-1.6776881023590591
 49
1.6776881023590591
 49
-1.6776881023590591
  0
LTYPE
  2
HIDDEN
 70
     0
  3
_ _ _ _ _ _ _
 72
    65
 73
     2
 40
2.5165321535385901
 49
1.6776881023590591
 49
-0.8388440511795305
  0
LTYPE
  2
PHANTOM2
 70
     0
  3
Phantom (.5x) ___ _ _ ___ _ _ ___ _ _ ___ _ _
 72
    65
 73
     6
 40
1.25
 49
0.625
 49
-0.125
 49
0.125
 49
-0.125
 49
0.125
 49
-0.125
  0
LTYPE
  2
CENTER2
 70
     0
  3
Center (.5x) ___ _ ___ _ ___ _ ___ _ ___ _ ___
 72
    65
 73
     4
 40
1.125
 49
0.75
 49
-0.125
 49
0.125
 49
-0.125
  0
LTYPE
  2
HIDDEN2
 70
     0
  3
Hidden (.5x) _ _ _ _ _ _ _ _ _ _ _ _ _ _ _ _ _
 72
    65
 73
     2
 40
0.1875
 49
0.125
 49
-0.0625
  0
LTYPE
  2
AMZIGZAG2
 70
     0
  3
/\/-/\/-/\/-/\/-/\/-/\/
 72
    65
 73
     2
 40
0.4401
 49
0.0001
 49
-0.4400000000000001
  0
LTYPE
  2
ACANSTGB
 70
     0
  3
__ . . __ . .
 72
    65
 73
     6
 40
0.35433070866
 49
0.15748031496
 49
-0.03937007874
 49
0.03937007874
 49
-0.03937007874
 49
0.03937007874
 49
-0.03937007874
  0
LTYPE
  2
ACANSTGL
 70
     0
  3
_ _ _ _ _
 72
    65
 73
     2
 40
0.11811023622
 49
0.07874015748
 49
-0.03937007874
  0
ENDTAB
  0
TABLE
  2
LAYER
 70
     1
  0
LAYER
  2
0
 70
     0
 62
     7
  6
CONTINUOUS
  0
ENDTAB
  0
TABLE
  2
STYLE
 70
     6
  0
STYLE
  2
STANDARD
 70
     0
 40
0.0
 41
1.0
 50
0.0
 71
     0
 42
5.0
  3
isocp.shx
  4
extfont.shx
  0
STYLE
  2

 70
     1
 40
0.0
 41
1.0
 50
0.0
 71
     0
 42
2.5
  3
ltypeshp.shx
  4

  0
STYLE
  2
ACANSTS
 70
     0
 40
1.0
 41
1.0
 50
0.0
 71
     0
 42
5.0
  3
romans.shx
  4
extfont.shx
  0
STYLE
  2
ACANSGDT
 70
     0
 40
0.0
 41
1.0
 50
0.0
 71
     0
 42
5.0
  3
amgdtans.shx
  4

  0
ENDTAB
  0
TABLE
  2
VIEW
 70
     6
  0
VIEW
  2
AM_VIEW1
 70
     1
 40
148.4629974365233
 10
102.4788300344005
 20
216.82074642181379
 41
216.70515762739481
 11
0.0
 21
0.0
 31
1.0
 12
0.0
 22
0.0
 32
0.0
 42
50.0
 43
0.0
 44
0.0
 50
0.0
 71
     0
  0
VIEW
  2
AM_VIEW2
 70
     1
 40
148.4629974365233
 10
305.72032768044312
 20
216.82074642181379
 41
216.70515762739481
 11
0.0
 21
0.0
 31
1.0
 12
0.0
 22
0.0
 32
0.0
 42
50.0
 43
0.0
 44
0.0
 50
0.0
 71
     0
  0
VIEW
  2
AM_VIEW3
 70
     1
 40
148.4629974365233
 10
102.4788300344005
 20
68.357748985290513
 41
216.70515762739481
 11
0.0
 21
0.0
 31
1.0
 12
0.0
 22
0.0
 32
0.0
 42
50.0
 43
0.0
 44
0.0
 50
0.0
 71
     0
  0
VIEW
  2
AM_VIEW4
 70
     1
 40
148.4629974365233
 10
305.72032768044312
 20
68.357748985290513
 41
216.70515762739481
 11
0.0
 21
0.0
 31
1.0
 12
0.0
 22
0.0
 32
0.0
 42
50.0
 43
0.0
 44
0.0
 50
0.0
 71
     0
  0
VIEW
  2
AM_VIEW5
 70
     1
 40
148.4629974365233
 10
204.0995788574217
 20
142.5892477035521
 41
216.70515762739461
 11
0.0
 21
0.0
 31
1.0
 12
0.0
 22
0.0
 32
0.0
 42
50.0
 43
0.0
 44
0.0
 50
0.0
 71
     0
  0
VIEW
  2
AM_VIEW6
 70
     1
 40
296.92302561309799
 10
204.0995788574217
 20
142.5892477035521
 41
433.40598115163721
 11
0.0
 21
0.0
 31
1.0
 12
0.0
 22
0.0
 32
0.0
 42
50.0
 43
0.0
 44
0.0
 50
0.0
 71
     0
  0
ENDTAB
  0
TABLE
  2
UCS
 70
     0
  0
ENDTAB
  0
TABLE
  2
APPID
 70
    44
  0
APPID
  2
ACAD
 70
     0
  0
APPID
  2
MCAD_NO_VIS
 70
     0
  0
APPID
  2
ACAD_TEMP_GRAPHIC
 70
     0
  0
APPID
  2
GENIUS_GENODEF_13
 70
     0
  0
APPID
  2
GENIUS_GENOBJ-N-TIT_13
 70
     0
  0
APPID
  2
GENIUS_GENTITLE_13
 70
     0
  0
APPID
  2
GENIUS_GENOENT_13
 70
     0
  0
APPID
  2
GENIUS_GENOREF_13
 70
     0
  0
APPID
  2
GENIUS_GENOLIS_13
 70
     0
  0
APPID
  2
GENIUS_GENZVEED_13
 70
     0
  0
APPID
  2
GENIUS_GENSCREG_15
 70
     0
  0
APPID
  2
GENIUS_GENOBJ-N-SDF_13
 70
     0
  0
APPID
  2
GENIUS_GENOBJ-N-CEN_13
 70
     0
  0
APPID
  2
GENIUS_GENOBJ-N-SEC_13
 70
     0
  0
APPID
  2
GENIUS_GENREC_14
 70
     0
  0
APPID
  2
GENIUS_GENOBJ-N-REC_13
 70
     0
  0
APPID
  2
GENIUS_GENBH_13
 70
     0
  0
APPID
  2
GENIUS_GENOBJ-NBEHI-BHF_13
 70
     0
  0
APPID
  2
GENIUS_GENOBJ-NBEHI-BHB_13
 70
     0
  0
APPID
  2
GENIUS_GENDTOL_13
 70
     0
  0
APPID
  2
GENIUS_GENOBJ-N-HTC_13
 70
     0
  0
APPID
  2
GENIUS_GENHATCH_13
 70
     0
  0
APPID
  2
GENIUS_GENOBJ-N-CRS_13
 70
     0
  0
APPID
  2
GENIUS_GENOBJ-N-CRC_13
 70
     0
  0
APPID
  2
GENIUS_GENCRC_14
 70
     0
  0
APPID
  2
GENIUS_GENOBJ-F-SHCL_13
 70
     0
  0
APPID
  2
GENIUS_GEFMSH_13
 70
     0
  0
APPID
  2
GENIUS_GEFSH_13
 70
     0
  0
APPID
  2
GENIUS_GEFSHP_13
 70
     0
  0
APPID
  2
GENIUS_GENOBJ-F-SHS_13
 70
     0
  0
APPID
  2
GENIUS_GENOBJ-F-SHSS_13
 70
     0
  0
APPID
  2
GENIUS_GEFSHP0_13
 70
     0
  0
APPID
  2
GENIUS_GEFSH0_13
 70
     0
  0
APPID
  2
GEVID995428964
 70
     0
  0
APPID
  2
GEVDC
 70
     0
  0
APPID
  2
GENIUS_GENBH_14
 70
     0
  0
APPID
  2
GEVID995428965
 70
     0
  0
APPID
  2
GEVID995428966
 70
     0
  0
APPID
  2
GENIUS_GENBHRL_14
 70
     0
  0
APPID
  2
GEVID995428967
 70
     0
  0
APPID
  2
GEVID995428968
 70
     0
  0
APPID
  2
GENIUS_GENOBJ-F-SHCV_13
 70
     0
  0
APPID
  2
ACATTRIBSERVICES
 70
     0
  0
APPID
  2
GENIUS_GENOBJ-N-FIL_13
 70
     0
  0
ENDTAB
  0
TABLE
  2
DIMSTYLE
 70
    14
  0
DIMSTYLE
  2
AM_JIS
 70
     0
  3

  4
"
  5

  6

  7

 40
1.0
 41
2.5
 42
1.0
 43
10.0
 44
1.0
 45
0.0
 46
0.0
 47
0.1
 48
0.1
140
3.5
141
0.0
142
0.0
143
0.0393701
144
1.0
145
0.0
146
0.71
147
1.5
 71
     1
 72
     0
 73
     1
 74
     1
 75
     0
 76
     0
 77
     0
 78
     8
170
     0
171
     2
172
     1
173
     0
174
     0
175
     0
176
   256
177
   256
178
     2
  0
DIMSTYLE
  2
STANDARD
 70
     0
  3

  4

  5

  6

  7

 40
1.0
 41
0.18
 42
0.0625
 43
0.38
 44
0.18
 45
0.0
 46
0.0
 47
0.0
 48
0.0
140
0.18
141
0.09
142
0.0
143
25.399999999999999
144
1.0
145
0.0
146
1.0
147
0.09
 71
     0
 72
     0
 73
     1
 74
     1
 75
     0
 76
     0
 77
     0
 78
     0
170
     0
171
     2
172
     0
173
     0
174
     0
175
     0
176
     0
177
     0
178
     0
  0
DIMSTYLE
  2
AM_ANSI
 70
     0
  3

  4
mm
  5

  6

  7

 40
1.0
 41
0.1
 42
0.05
 43
0.5
 44
0.1
 45
0.0
 46
0.0
 47
0.1
 48
0.1
140
0.12
141
0.0
142
0.0
143
25.399999999999999
144
1.0
145
0.0
146
0.71
147
0.06
 71
     0
 72
     0
 73
     1
 74
     1
 75
     0
 76
     0
 77
     0
 78
     7
170
     0
171
     2
172
     0
173
     0
174
     0
175
     0
176
   256
177
   256
178
     2
  0
DIMSTYLE
  2
AM_ANSI$3
 70
     0
  3

  4
mm
  5

  6

  7

 40
1.0
 41
0.1
 42
0.05
 43
0.5
 44
0.1
 45
0.0
 46
0.0
 47
0.1
 48
0.1
140
0.12
141
0.0
142
0.0
143
25.399999999999999
144
1.0
145
0.0
146
0.71
147
0.06
 71
     0
 72
     0
 73
     1
 74
     1
 75
     0
 76
     0
 77
     0
 78
     7
170
     0
171
     2
172
     0
173
     0
174
     0
175
     0
176
   256
177
   256
178
     2
  0
DIMSTYLE
  2
AM_ANSI$4
 70
     0
  3

  4
mm
  5

  6

  7

 40
1.0
 41
0.1
 42
0.05
 43
0.5
 44
0.1
 45
0.0
 46
0.0
 47
0.1
 48
0.1
140
0.12
141
0.0
142
0.0
143
25.399999999999999
144
1.0
145
0.0
146
0.71
147
0.06
 71
     0
 72
     0
 73
     1
 74
     1
 75
     0
 76
     0
 77
     0
 78
     7
170
     0
171
     2
172
     0
173
     0
174
     0
175
     0
176
   256
177
   256
178
     2
  0
DIMSTYLE
  2
AM_ANSI$7
 70
     0
  3

  4
mm
  5

  6

  7

 40
1.0
 41
0.1
 42
0.05
 43
0.5
 44
0.1
 45
0.0
 46
0.0
 47
0.1
 48
0.1
140
0.24
141
0.0
142
0.0
143
25.399999999999999
144
1.0
145
0.0
146
0.71
147
0.06
 71
     0
 72
     0
 73
     1
 74
     1
 75
     0
 76
     0
 77
     0
 78
     7
170
     0
171
     2
172
     0
173
     0
174
     0
175
     0
176
   256
177
   256
178
     2
  0
DIMSTYLE
  2
AM_ANSI$SF
 70
     0
  3

  4
mm
  5

  6

  7

 40
1.0
 41
0.1
 42
0.05
 43
0.5
 44
0.1
 45
0.0
 46
0.0
 47
0.1
 48
0.1
140
0.12
141
0.0
142
0.0
143
25.399999999999999
144
1.0
145
0.0
146
0.71
147
0.06
 71
     0
 72
     0
 73
     1
 74
     1
 75
     1
 76
     1
 77
     0
 78
     7
170
     0
171
     2
172
     0
173
     0
174
     0
175
     0
176
   256
177
   256
178
     2
  0
DIMSTYLE
  2
AM_ANSI$SH
 70
     0
  3

  4
mm
  5

  6
GENAXEH
  7

 40
1.0
 41
0.1
 42
0.05
 43
0.5
 44
0.1
 45
0.0
 46
0.0
 47
0.1
 48
0.1
140
0.12
141
0.0
142
0.0
143
25.399999999999999
144
1.0
145
0.0
146
0.71
147
0.06
 71
     0
 72
     0
 73
     1
 74
     1
 75
     1
 76
     1
 77
     0
 78
     7
170
     0
171
     2
172
     0
173
     1
174
     0
175
     0
176
   256
177
   256
178
     2
  0
ENDTAB
  0
ENDSEC
  0
SECTION
  2
BLOCKS
  0
BLOCK
  8
0
  2
$MODEL_SPACE
 70
     0
 10
0.0
 20
0.0
 30
0.0
  3
$MODEL_SPACE
  1

  0
ENDBLK
  5
3524
  8
0
  0
BLOCK
 67
     1
  8
0
  2
$PAPER_SPACE
 70
     0
 10
0.0
 20
0.0
 30
0.0
  3
$PAPER_SPACE
  1

  0
ENDBLK
  5
3520
 67
     1
  8
0
  0
BLOCK
  8
0
  2
GENAXEH
 70
     0
 10
0.0
 20
0.0
 30
0.0
  3
GENAXEH
  1

  0
LINE
  5
98
  8
0
 10
-1.0
 20
0.0
 30
0.0
 11
1.0
 21
0.0
 31
0.0
  0
ENDBLK
  5
9A
  8
0
  0
BLOCK
  8
0
 62
     0
  2
_OPEN30
 70
     0
 10
0.0
 20
0.0
 30
0.0
  3
_OPEN30
  1

  0
LINE
  5
21
  8
0
 62
     0
 10
-1.0
 20
0.26794919
 30
0.0
 11
0.0
 21
0.0
 31
0.0
  0
LINE
  5
22
  8
0
 62
     0
 10
0.0
 20
0.0
 30
0.0
 11
-1.0
 21
-0.26794919
 31
0.0
  0
LINE
  5
23
  8
0
 62
     0
 10
0.0
 20
0.0
 30
0.0
 11
-1.0
 21
0.0
 31
0.0
  0
ENDBLK
  5
25
  8
0
 62
     0
  0
ENDSEC
  0
SECTION
  2
ENTITIES
  0
LINE
  5
3159
  8
0
  6
CONTINUOUS
 62
     7
 10
-97.623867592352866
 20
494.56277568187539
 30
0.0
 11
-97.623867592352866
 21
525.56277568187534
 31
0.0
  0
LINE
  5
315A
  8
0
  6
CONTINUOUS
 62
     7
 10
-108.8238675923526
 20
525.56277568187534
 30
0.0
 11
-108.8238675923526
 21
494.56277568187539
 31
0.0
  0
LINE
  5
315B
  8
0
  6
CONTINUOUS
 62
     7
 10
-57.493910360234459
 20
494.56277568187539
 30
0.0
 11
-57.493910360234459
 21
525.56277568187534
 31
0.0
  0
LINE
  5
315C
  8
0
  6
CONTINUOUS
 62
     7
 10
-37.49391036023475
 20
525.56277568187534
 30
0.0
 11
-37.493910360234644
 21
501.56277568187483
 31
0.0
  0
LINE
  5
315D
  8
0
  6
CENTER
 62
     4
 10
-110.2363226205255
 20
497.36277568187518
 30
0.0
 11
-96.211412564179852
 21
497.36277568187518
 31
0.0
  0
LINE
  5
315E
  8
0
  6
CONTINUOUS
 62
     7
 10
-108.8238675923526
 20
494.56277568187539
 30
0.0
 11
-97.623867592352866
 21
494.56277568187539
 31
0.0
  0
LINE
  5
3166
  8
0
  6
CONTINUOUS
 62
     7
 10
-57.493910360234459
 20
494.56277568187539
 30
0.0
 11
-42.99391036023485
 21
494.56277568187539
 31
0.0
  0
LINE
  5
3167
  8
0
  6
CENTER
 62
     4
 10
-58.001323563505281
 20
497.36277568187518
 30
0.0
 11
-50.98649715696407
 21
497.36277568187518
 31
0.0
  0
LINE
  5
3168
  8
0
  6
CENTER
 62
     4
 10
-54.493910360234452
 20
501.02630019917672
 30
0.0
 11
-54.493910360234452
 21
493.6992511645737
 31
0.0
  0
CIRCLE
  5
3169
  8
0
  6
CONTINUOUS
 62
     7
 10
-54.493910360234452
 20
497.36277568187518
 30
0.0
 40
1.3499999999999941
  0
CIRCLE
  5
316A
  8
0
  6
CONTINUOUS
 62
     2
 10
-54.493910360234452
 20
497.36277568187518
 30
0.0
 40
1.5
  0
LINE
  5
316E
  8
0
  6
CONTINUOUS
 62
     4
 10
-54.493910360234452
 20
587.05794074937558
 30
0.0
 11
-67.493910360234651
 21
587.05794074937558
 31
0.0
  0
LINE
  5
316F
  8
0
  6
CONTINUOUS
 62
     4
 10
-67.493910360234651
 20
510.06277568187511
 30
0.0
 11
-54.493910360234452
 21
510.06277568187511
 31
0.0
  0
ARC
  5
3170
  8
0
  6
CONTINUOUS
 62
     7
 10
-102.0371089828236
 20
524.70577383500358
 30
0.0
 40
2.7501786724523201
 50
18.156692740035979
 51
68.397192297993058
  0
LINE
  5
3171
  8
0
  6
CENTER
 62
     4
 10
-99.22386759235269
 20
510.06277568187511
 30
0.0
 11
-107.2238675923526
 21
510.06277568187511
 31
0.0
  0
LINE
  5
3172
  8
0
  6
CENTER
 62
     4
 10
-110.2363226205255
 20
522.76277568187538
 30
0.0
 11
-96.211412564179852
 21
522.76277568187538
 31
0.0
  0
LINE
  5
3173
  8
0
  6
CONTINUOUS
 62
     7
 10
-97.623867592352866
 20
525.56277568187534
 30
0.0
 11
-108.8238675923526
 21
525.56277568187534
 31
0.0
  0
LINE
  5
3174
  8
0
  6
CENTER
 62
     4
 10
-103.2238675923526
 20
514.06277568187534
 30
0.0
 11
-103.2238675923526
 21
506.06277568187511
 31
0.0
  0
ARC
  5
3175
  8
0
  6
CONTINUOUS
 62
     7
 10
-104.4106262018817
 20
524.70577383500358
 30
0.0
 40
2.7501786724524342
 50
111.60280770200841
 51
161.84330725996401
  0
LINE
  5
3176
  8
0
  6
CONTINUOUS
 62
     7
 10
-102.1235136957167
 20
527.62812754867502
 30
0.0
 11
-104.323513695709
 21
527.62812754867502
 31
0.0
  0
LINE
  5
3177
  8
0
  6
CONTINUOUS
 62
     7
 10
-105.42386759235271
 20
527.26277568187504
 30
0.0
 11
-101.02457538559931
 21
527.26277568187504
 31
0.0
  0
LINE
  5
3178
  8
0
  6
CONTINUOUS
 62
     7
 10
-104.323513695709
 20
527.26277568187515
 30
0.0
 11
-104.323513695709
 21
527.62812754867502
 31
0.0
  0
LINE
  5
3179
  8
0
  6
CONTINUOUS
 62
     7
 10
-102.1235136957167
 20
527.62812754867502
 30
0.0
 11
-102.1235136957086
 21
527.26277568187515
 31
0.0
  0
ARC
  5
317C
  8
0
  6
CONTINUOUS
 62
     7
 10
-40.981107429788523
 20
586.03903928415275
 30
0.0
 40
1.5393348573290691
 50
309.88987472747363
 51
356.98002291836877
  0
ARC
  5
317D
  8
0
  6
CONTINUOUS
 62
     7
 10
-41.056765164198012
 20
586.06184032193744
 30
0.0
 40
2.012858581347817
 50
307.17186063270287
 51
359.88899906257723
  0
ARC
  5
317E
  8
0
  6
CONTINUOUS
 62
     7
 10
-45.589632972688399
 20
576.66561469309988
 30
0.0
 40
8.1962712987158302
 50
91.777803421964038
 51
126.45652821088279
  0
LINE
  5
317F
  8
0
  6
CONTINUOUS
 62
     7
 10
-51.543910393517322
 20
589.20794074937589
 30
0.0
 11
-51.543909914908888
 21
584.90794074937594
 31
0.0
  0
LINE
  5
3180
  8
0
  6
CENTER
 62
     4
 10
-54.493910360234452
 20
593.73237607327928
 30
0.0
 11
-54.493910360234452
 21
580.38350542547209
 31
0.0
  0
LINE
  5
3181
  8
0
  6
CONTINUOUS
 62
     7
 10
-37.493910360234644
 20
581.45794074937578
 30
0.0
 11
-37.493910360234452
 21
592.6579407493756
 31
0.0
  0
LINE
  5
3182
  8
0
  6
CONTINUOUS
 62
     7
 10
-57.493910360234459
 20
592.65794074937605
 30
0.0
 11
-57.493910360234459
 21
581.45794074937578
 31
0.0
  0
LINE
  5
3183
  8
0
  6
CENTER
 62
     4
 10
-54.493910360234452
 20
526.42630019917692
 30
0.0
 11
-54.493910360234452
 21
519.09925116457373
 31
0.0
  0
CIRCLE
  5
3184
  8
0
  6
CONTINUOUS
 62
     7
 10
-54.493910360234452
 20
522.76277568187538
 30
0.0
 40
1.3499999999999941
  0
CIRCLE
  5
3185
  8
0
  6
CONTINUOUS
 62
     2
 10
-54.493910360234452
 20
522.76277568187538
 30
0.0
 40
1.5
  0
LINE
  5
3186
  8
0
  6
CENTER
 62
     4
 10
-58.001323563505281
 20
522.76277568187538
 30
0.0
 11
-50.98649715696407
 21
522.76277568187538
 31
0.0
  0
ARC
  5
3187
  8
0
  6
CONTINUOUS
 62
     7
 10
-45.53397637307738
 20
513.2114954380487
 30
0.0
 40
14.0520025032631
 50
95.145607165175747
 51
108.691938804381
  0
ARC
  5
3188
  8
0
  6
CONTINUOUS
 62
     7
 10
-49.175298956854661
 20
523.50639070364059
 30
0.0
 40
3.136724116488526
 50
105.9517573527575
 51
139.03608140730131
  0
ARC
  5
3189
  8
0
  6
CONTINUOUS
 62
     7
 10
-49.052257946217921
 20
525.14349670391016
 30
0.0
 40
1.468800138826889
 50
118.5306482470352
 51
163.41384474114869
  0
LINE
  5
318A
  8
0
  6
CONTINUOUS
 62
     7
 10
-57.493910360234459
 20
525.56277568187534
 30
0.0
 11
-37.49391036023475
 21
525.56277568187534
 31
0.0
  0
LINE
  5
318B
  8
0
  6
CONTINUOUS
 62
     7
 10
-45.124363187689838
 20
527.26269865873883
 30
0.0
 11
-39.44391036023454
 21
527.26277563659039
 31
0.0
  0
ARC
  5
318C
  8
0
  6
CONTINUOUS
 62
     7
 10
-45.624921571367807
 20
515.27516661509185
 30
0.0
 40
11.984073909788311
 50
91.285694143606506
 51
100.6370941227644
  0
ARC
  5
318D
  8
0
  6
CONTINUOUS
 62
     7
 10
-46.762192727547401
 20
520.4514829290672
 30
0.0
 40
6.688748920512773
 50
99.247175617580723
 51
116.5679886171047
  0
ARC
  5
318E
  8
0
  6
CONTINUOUS
 62
     7
 10
-45.371985651358088
 20
509.66777343609527
 30
0.0
 40
17.596667595738769
 50
89.193700153825574
 51
94.636065397435303
  0
LINE
  5
318F
  8
0
  6
CONTINUOUS
 62
     7
 10
-44.246440756897719
 20
527.26277568187515
 30
0.0
 11
-44.246440756897719
 21
527.62812754867525
 31
0.0
  0
LINE
  5
3190
  8
0
  6
CONTINUOUS
 62
     7
 10
-46.446440756897744
 20
527.62812754867525
 30
0.0
 11
-46.446440756897729
 21
527.23357487023725
 31
0.0
  0
LINE
  5
3191
  8
0
  6
CONTINUOUS
 62
     7
 10
-46.446440756897744
 20
527.62812754867525
 30
0.0
 11
-44.246440756897719
 21
527.62812754867525
 31
0.0
  0
LINE
  5
3192
  8
0
  6
CONTINUOUS
 62
     7
 10
-40.346440756897749
 20
527.62812754867525
 30
0.0
 11
-42.546440756897752
 21
527.62812754867525
 31
0.0
  0
LINE
  5
3193
  8
0
  6
CONTINUOUS
 62
     7
 10
-42.546440756897752
 20
527.62812754867525
 30
0.0
 11
-42.546440756897738
 21
527.26277568187515
 31
0.0
  0
LINE
  5
3194
  8
0
  6
CONTINUOUS
 62
     7
 10
-40.346440756897749
 20
527.26277568187515
 30
0.0
 11
-40.346440756897749
 21
527.62812754867525
 31
0.0
  0
LINE
  5
3195
  8
0
  6
CONTINUOUS
 62
     7
 10
-39.44391036023454
 20
527.26277563659039
 30
0.0
 11
-39.043910360234527
 21
525.56277568187534
 31
0.0
  0
LINE
  5
3196
  8
0
  6
CONTINUOUS
 62
     7
 10
-39.993910360234587
 20
527.26276834096973
 30
0.0
 11
-39.840580215436887
 21
525.56277568187534
 31
0.0
  0
LINE
  5
3197
  8
0
  6
CONTINUOUS
 62
     7
 10
-50.459961541676421
 20
583.25794074937585
 30
0.0
 11
-47.459954647096417
 21
583.25794074937585
 31
0.0
  0
LINE
  5
3198
  8
0
  6
CONTINUOUS
 62
     7
 10
-57.493910360234459
 20
581.45794074937578
 30
0.0
 11
-37.493910360234644
 21
581.45794074937578
 31
0.0
  0
ARC
  5
3199
  8
0
  6
CONTINUOUS
 62
     7
 10
-49.731572952856887
 20
584.917491374375
 30
0.0
 40
1.812362605346268
 50
180.30193352877291
 51
246.30298750256321
  0
LINE
  5
319A
  8
0
  6
CONTINUOUS
 62
     7
 10
-39.99391036023458
 20
584.85794074937564
 30
0.0
 11
-45.843910360234503
 21
584.85794074937564
 31
0.0
  0
LINE
  5
319B
  8
0
  6
CONTINUOUS
 62
     7
 10
-39.840580215416452
 20
584.45794074937601
 30
0.0
 11
-45.035679076380148
 21
584.45794074937601
 31
0.0
  0
ARC
  5
319C
  8
0
  6
CONTINUOUS
 62
     7
 10
-45.076332951599369
 20
581.49125089007146
 30
0.0
 40
2.9669589559365921
 50
89.228316392524917
 51
143.4549416676945
  0
ARC
  5
319D
  8
0
  6
CONTINUOUS
 62
     7
 10
-49.163878124775131
 20
581.113471869926
 30
0.0
 40
9.9050167083089917
 50
19.73400963150236
 51
22.212180790194061
  0
ARC
  5
319E
  8
0
  6
CONTINUOUS
 62
     7
 10
-45.589632972688399
 20
597.45026680565161
 30
0.0
 40
8.1962712987158302
 50
233.54347178911709
 51
268.22219657803578
  0
LINE
  5
319F
  8
0
  6
CONTINUOUS
 62
     7
 10
-50.459961541676421
 20
590.85794074937598
 30
0.0
 11
-47.459954647096417
 21
590.85794074937598
 31
0.0
  0
LINE
  5
31A0
  8
0
  6
CONTINUOUS
 62
     7
 10
-37.493910360234452
 20
592.6579407493756
 30
0.0
 11
-57.493910360234459
 21
592.65794074937605
 31
0.0
  0
ARC
  5
31A1
  8
0
  6
CONTINUOUS
 62
     7
 10
-49.731572952856887
 20
589.19839012437671
 30
0.0
 40
1.812362605346268
 50
113.6970124974367
 51
179.69806647122709
  0
LINE
  5
31A2
  8
0
  6
CONTINUOUS
 62
     7
 10
-39.982279082498373
 20
589.25794074937585
 30
0.0
 11
-45.843910360234503
 21
589.25794074937585
 31
0.0
  0
LINE
  5
31A3
  8
0
  6
CONTINUOUS
 62
     7
 10
-39.840580215416452
 20
589.65794074937583
 30
0.0
 11
-45.035679076380148
 21
589.65794074937583
 31
0.0
  0
ARC
  5
31A4
  8
0
  6
CONTINUOUS
 62
     7
 10
-45.076332951599369
 20
592.62463060868015
 30
0.0
 40
2.9669589559365921
 50
216.5450583323053
 51
270.7716836074751
  0
CIRCLE
  5
31A5
  8
0
  6
CONTINUOUS
 62
     7
 10
-45.34391036023456
 20
587.0579407493758
 30
0.0
 40
1.1000000000000001
  0
CIRCLE
  5
31A6
  8
0
  6
CONTINUOUS
 62
     7
 10
-41.443910360234547
 20
587.0579407493758
 30
0.0
 40
1.1000000000000001
  0
ARC
  5
31A7
  8
0
  6
CONTINUOUS
 62
     7
 10
-41.056765164198012
 20
588.05404117681428
 30
0.0
 40
2.012858581347817
 50
0.1110009374227218
 51
52.828139367296913
  0
ARC
  5
31A8
  8
0
  6
CONTINUOUS
 62
     7
 10
-40.981107429788523
 20
588.07684221459886
 30
0.0
 40
1.5393348573290691
 50
3.0199770816310281
 51
50.110125272526219
  0
LINE
  5
31A9
  8
0
  6
CONTINUOUS
 62
     7
 10
-39.443910360234533
 20
588.15794074937583
 30
0.0
 11
-39.443910360234568
 21
585.95794074937567
 31
0.0
  0
LINE
  5
31AA
  8
0
  6
CONTINUOUS
 62
     7
 10
-39.043910360234527
 20
588.05794074937558
 30
0.0
 11
-39.043910360234527
 21
586.0579407493758
 31
0.0
  0
ARC
  5
31AB
  8
0
  6
CONTINUOUS
 62
     7
 10
-134.91936247985191
 20
623.11423186421905
 30
0.0
 40
100.7933442844769
 50
340.37284085010981
 51
340.61406573806539
  0
TEXT
  5
31B9
  8
0
 62
     2
 10
-46.845472688484499
 20
467.97871670166307
 30
0.0
 40
3.5
  1
cx-411-z
  0
SOLID
  5
331F
  8
0
  6
CONTINUOUS
 62
     4
 10
-57.993910360234572
 20
510.52355942343121
 30
0.0
 11
-57.993910360234572
 21
509.60199194031901
 31
0.0
 12
-54.493910360234452
 22
510.06277568187511
 32
0.0
 13
-54.493910360234452
 23
510.06277568187511
 33
0.0
  0
SOLID
  5
3328
  8
0
  6
CONTINUOUS
 62
     4
 10
-57.993910360234572
 20
587.51872449093185
 30
0.0
 11
-57.993910360234572
 21
586.59715700781976
 31
0.0
 12
-54.493910360234452
 22
587.0579407493758
 32
0.0
 13
-54.493910360234452
 23
587.0579407493758
 33
0.0
  0
LINE
  5
3385
  8
0
  6
CONTINUOUS
 62
     7
 10
-181.04314514428481
 20
525.56277568187511
 30
0.0
 11
-181.04314514428481
 21
494.56277568187539
 31
0.0
  0
LINE
  5
3386
  8
0
  6
CONTINUOUS
 62
     7
 10
-169.84314514428499
 20
494.56277568187539
 30
0.0
 11
-169.84314514428499
 21
525.56277568187579
 31
0.0
  0
LINE
  5
3389
  8
0
  6
CONTINUOUS
 62
     7
 10
-181.04314514428481
 20
494.56277568187539
 30
0.0
 11
-169.84314514428499
 21
494.56277568187539
 31
0.0
  0
LINE
  5
338A
  8
0
  6
CONTINUOUS
 62
     7
 10
-180.54314514428481
 20
494.56277568187539
 30
0.0
 11
-170.34314514428499
 21
494.56277568187539
 31
0.0
  0
ARC
  5
3391
  8
0
  6
CONTINUOUS
 62
     7
 10
-174.24314514428519
 20
525.76277568187561
 30
0.0
 40
2.197726097583879
 50
2.2945309065903019
 51
89.999999999993477
  0
ARC
  5
3392
  8
0
  6
CONTINUOUS
 62
     7
 10
-176.6431451442848
 20
525.76277568187561
 30
0.0
 40
2.197726097583879
 50
90.000000000003226
 51
177.7054690934097
  0
LINE
  5
3393
  8
0
  6
CONTINUOUS
 62
     7
 10
-169.84314514428499
 20
525.56277568187579
 30
0.0
 11
-181.04314514428481
 21
525.56277568187511
 31
0.0
  0
LINE
  5
3395
  8
0
  6
CENTER
 62
     4
 10
-171.4431451442849
 20
510.06277568187528
 30
0.0
 11
-179.44314514428501
 21
510.06277568187528
 31
0.0
  0
LINE
  5
3396
  8
0
  6
CENTER
 62
     4
 10
-182.45560017245771
 20
522.76277568187538
 30
0.0
 11
-168.430690116112
 21
522.76277568187538
 31
0.0
  0
LINE
  5
3397
  8
0
  6
CENTER
 62
     4
 10
-182.45560017245771
 20
497.36277568187518
 30
0.0
 11
-168.430690116112
 21
497.36277568187518
 31
0.0
  0
LINE
  5
3398
  8
0
  6
CENTER
 62
     4
 10
-175.44314514428501
 20
514.06277568187545
 30
0.0
 11
-175.44314514428501
 21
506.06277568187528
 31
0.0
  0
LINE
  5
3399
  8
0
  6
CONTINUOUS
 62
     7
 10
-176.64314514428511
 20
527.96277568187566
 30
0.0
 11
-174.24314514428511
 21
527.96277568187566
 31
0.0
  0
LINE
  5
339A
  8
0
  6
CONTINUOUS
 62
     7
 10
-178.83910915187309
 20
525.85076475720712
 30
0.0
 11
-178.83910915187309
 21
525.56277568187511
 31
0.0
  0
LINE
  5
339B
  8
0
  6
CONTINUOUS
 62
     7
 10
-176.54314514428521
 20
527.96277568187566
 30
0.0
 11
-174.34314514428499
 21
527.96277568187588
 31
0.0
  0
LINE
  5
339C
  8
0
  6
CONTINUOUS
 62
     7
 10
-172.04718113669699
 20
525.85076475720712
 30
0.0
 11
-172.04718113669699
 21
525.56277568187545
 31
0.0
  0
SOLID
  5
339D
  8
0
  6
CONTINUOUS
 62
     4
 10
-214.67310237640319
 20
510.52355942343121
 30
0.0
 11
-214.67310237640319
 21
509.60199194031918
 31
0.0
 12
-211.17310237640311
 22
510.06277568187528
 32
0.0
 13
-211.17310237640311
 23
510.06277568187528
 33
0.0
  0
LINE
  5
339E
  8
0
  6
CONTINUOUS
 62
     4
 10
-211.17310237640311
 20
510.06277568187528
 30
0.0
 11
-224.17310237640311
 21
510.06277568187528
 31
0.0
  0
CIRCLE
  5
33A0
  8
0
  6
CONTINUOUS
 62
     2
 10
-224.17310237640311
 20
497.36277568187518
 30
0.0
 40
1.5
  0
CIRCLE
  5
33A1
  8
0
  6
CONTINUOUS
 62
     7
 10
-224.17310237640311
 20
497.36277568187518
 30
0.0
 40
1.3499999999999941
  0
LINE
  5
33A5
  8
0
  6
CONTINUOUS
 62
     7
 10
-221.17310237640339
 20
494.56277568187539
 30
0.0
 11
-221.17310237640339
 21
525.56277568187511
 31
0.0
  0
LINE
  5
33A7
  8
0
  6
CONTINUOUS
 62
     7
 10
-221.17310237640339
 20
494.56277568187539
 30
0.0
 11
-235.6731023764028
 21
494.56277568187539
 31
0.0
  0
LINE
  5
33B0
  8
0
  6
CONTINUOUS
 62
     7
 10
-221.17310237640339
 20
525.56277568187511
 30
0.0
 11
-241.17310237640311
 21
525.56277568187511
 31
0.0
  0
CIRCLE
  5
33B3
  8
0
  6
CONTINUOUS
 62
     2
 10
-224.17310237640311
 20
522.76277568187538
 30
0.0
 40
1.5
  0
CIRCLE
  5
33B4
  8
0
  6
CONTINUOUS
 62
     7
 10
-224.17310237640311
 20
522.76277568187538
 30
0.0
 40
1.3499999999999941
  0
ARC
  5
33B5
  8
0
  6
CONTINUOUS
 62
     7
 10
-234.87310237640301
 20
525.96277568187543
 30
0.0
 40
1.999999999999952
 50
90.0
 51
182.4919063689828
  0
ARC
  5
33B6
  8
0
  6
CONTINUOUS
 62
     7
 10
-234.0731023763984
 20
525.56277568188523
 30
0.0
 40
2.399999999990539
 50
359.999999999772
 51
90.0
  0
LINE
  5
33B8
  8
0
  6
CONTINUOUS
 62
     7
 10
-234.0731023763984
 20
527.96277568187588
 30
0.0
 11
-234.87310237640301
 21
527.96277568187588
 31
0.0
  0
LINE
  5
33B9
  8
0
  6
CONTINUOUS
 62
     7
 10
-234.17310237640339
 20
527.96277568187475
 30
0.0
 11
-234.7731023764033
 21
527.96277568187475
 31
0.0
  0
LINE
  5
33BA
  8
0
  6
CONTINUOUS
 62
     7
 10
-236.87121112302481
 20
525.87581916013664
 30
0.0
 11
-236.87121112302481
 21
525.56277568187511
 31
0.0
  0
LINE
  5
33BB
  8
0
  6
CONTINUOUS
 62
     7
 10
-241.17310237640311
 20
525.56277568187511
 30
0.0
 11
-241.17310237640331
 21
501.56277568187528
 31
0.0
  0
SOLID
  5
33BC
  8
0
  6
CONTINUOUS
 62
     4
 10
-214.67310237640319
 20
587.51872449093185
 30
0.0
 11
-214.67310237640319
 21
586.59715700781976
 31
0.0
 12
-211.17310237640311
 22
587.05794074937603
 32
0.0
 13
-211.17310237640311
 23
587.05794074937603
 33
0.0
  0
LINE
  5
33BD
  8
0
  6
CONTINUOUS
 62
     4
 10
-224.17310237640311
 20
587.05794074937603
 30
0.0
 11
-211.17310237640311
 21
587.05794074937603
 31
0.0
  0
LINE
  5
33BE
  8
0
  6
CONTINUOUS
 62
     7
 10
-241.17310237640331
 20
592.6579407493756
 30
0.0
 11
-221.17310237640339
 21
592.65794074937639
 31
0.0
  0
LINE
  5
33BF
  8
0
  6
CONTINUOUS
 62
     7
 10
-221.17310237640311
 20
581.45794074937578
 30
0.0
 11
-241.17310237640331
 21
581.45794074937578
 31
0.0
  0
LINE
  5
33C0
  8
0
  6
CONTINUOUS
 62
     7
 10
-221.17310237640339
 20
592.65794074937639
 30
0.0
 11
-221.17310237640311
 21
581.45794074937578
 31
0.0
  0
LINE
  5
33C1
  8
0
  6
CENTER
 62
     4
 10
-224.17310237640311
 20
593.73237607327951
 30
0.0
 11
-224.17310237640311
 21
580.38350542547244
 31
0.0
  0
ARC
  5
33C3
  8
0
  6
CONTINUOUS
 62
     7
 10
-234.87121112302069
 20
588.45794074937589
 30
0.0
 40
2.0
 50
89.999999999980446
 51
180.0
1001
GENIUS_GENODEF_13
1002
{
1000
HIER
1070
     0
1002
}
1002
{
1000
MANEDIT
1070
     0
1002
}
1002
{
1000
NOSEL
1070
     0
1002
}
1002
{
1000
BEHIND
1070
     0
1002
}
1002
{
1000
REACTOR
1002
}
1001
GENIUS_GENOBJ-N-FIL_13
1002
{
1000
OWNER
1000
GEN
1002
}
  0
ARC
  5
33C4
  8
0
  6
CONTINUOUS
 62
     7
 10
-233.67121112302081
 20
588.45794074937589
 30
0.0
 40
2.0
 50
0.000000000000007
 51
89.999999999983714
1001
GENIUS_GENODEF_13
1002
{
1000
HIER
1070
     0
1002
}
1002
{
1000
MANEDIT
1070
     0
1002
}
1002
{
1000
NOSEL
1070
     0
1002
}
1002
{
1000
BEHIND
1070
     0
1002
}
1002
{
1000
REACTOR
1002
}
1001
GENIUS_GENOBJ-N-FIL_13
1002
{
1000
OWNER
1000
GEN
1002
}
  0
LINE
  5
33C5
  8
0
  6
CONTINUOUS
 62
     7
 10
-241.17310237640331
 20
581.45794074937578
 30
0.0
 11
-241.17310237640331
 21
592.6579407493756
 31
0.0
  0
ARC
  5
33C6
  8
0
  6
CONTINUOUS
 62
     7
 10
-234.87121112302049
 20
585.65794074937605
 30
0.0
 40
2.0
 50
180.0
 51
270.0
1001
GENIUS_GENODEF_13
1002
{
1000
HIER
1070
     0
1002
}
1002
{
1000
MANEDIT
1070
     0
1002
}
1002
{
1000
NOSEL
1070
     0
1002
}
1002
{
1000
BEHIND
1070
     0
1002
}
1002
{
1000
REACTOR
1002
}
1001
GENIUS_GENOBJ-N-FIL_13
1002
{
1000
OWNER
1000
GEN
1002
}
  0
ARC
  5
33C7
  8
0
  6
CONTINUOUS
 62
     7
 10
-233.67121112302081
 20
585.65794074937605
 30
0.0
 40
2.0
 50
270.0
 51
0.000000000000007
1001
GENIUS_GENODEF_13
1002
{
1000
HIER
1070
     0
1002
}
1002
{
1000
MANEDIT
1070
     0
1002
}
1002
{
1000
NOSEL
1070
     0
1002
}
1002
{
1000
BEHIND
1070
     0
1002
}
1002
{
1000
REACTOR
1002
}
1001
GENIUS_GENOBJ-N-FIL_13
1002
{
1000
OWNER
1000
GEN
1002
}
  0
LINE
  5
33C8
  8
0
  6
CONTINUOUS
 62
     7
 10
-231.67121112302081
 20
585.65794074937605
 30
0.0
 11
-231.67121112302081
 21
588.45794074937589
 31
0.0
1001
GENIUS_GENREC_14
1002
{
1000
PYDIR
1011
-231.67121112302081
1021
0.0
1031
0.0
1021
583.75794074937619
1031
0.0
1002
}
1002
{
1000
PXDIR
1011
-236.84060116174831
1021
0.0
1031
0.0
1021
590.35794074937598
1031
0.0
1002
}
1002
{
1000
PORI
1011
-231.67121112302081
1021
0.0
1031
0.0
1021
590.35794074937598
1031
0.0
1002
}
1002
{
1000
PINS
1011
-231.67121112302081
1021
0.0
1031
0.0
1021
590.35794074937598
1031
0.0
1002
}
1002
{
1000
PINS2
1011
-236.84060116174831
1021
0.0
1031
0.0
1021
583.75794074937619
1031
0.0
1002
}
1002
{
1000
C
1070
     1
1002
}
1001
GENIUS_GENODEF_13
1002
{
1000
HIER
1070
     0
1002
}
1002
{
1000
MANEDIT
1070
     0
1002
}
1002
{
1000
NOSEL
1070
     0
1002
}
1002
{
1000
BEHIND
1070
     0
1002
}
1002
{
1000
REACTOR
1002
}
1001
GENIUS_GENOBJ-N-REC_13
1002
{
1000
OWNER
1000
GEN
1002
}
  0
LINE
  5
33C9
  8
0
  6
CONTINUOUS
 62
     7
 10
-234.87121112302049
 20
583.6579407493756
 30
0.0
 11
-233.67121112302081
 21
583.6579407493756
 31
0.0
1001
GENIUS_GENREC_14
1002
{
1000
PYDIR
1011
-231.7018210842931
1021
0.0
1031
0.0
1021
583.6579407493756
1031
0.0
1002
}
1002
{
1000
PXDIR
1011
-236.87121112302069
1021
0.0
1031
0.0
1021
590.25794074937608
1031
0.0
1002
}
1002
{
1000
PORI
1011
-231.7018210842931
1021
0.0
1031
0.0
1021
590.25794074937608
1031
0.0
1002
}
1002
{
1000
PINS
1011
-231.7018210842931
1021
0.0
1031
0.0
1021
590.25794074937608
1031
0.0
1002
}
1002
{
1000
PINS2
1011
-236.87121112302069
1021
0.0
1031
0.0
1021
583.6579407493756
1031
0.0
1002
}
1002
{
1000
C
1070
     1
1002
}
1001
GENIUS_GENODEF_13
1002
{
1000
HIER
1070
     0
1002
}
1002
{
1000
MANEDIT
1070
     0
1002
}
1002
{
1000
NOSEL
1070
     0
1002
}
1002
{
1000
BEHIND
1070
     0
1002
}
1002
{
1000
REACTOR
1002
}
1001
GENIUS_GENOBJ-N-REC_13
1002
{
1000
OWNER
1000
GEN
1002
}
  0
LINE
  5
33CA
  8
0
  6
CONTINUOUS
 62
     7
 10
-236.87121112302069
 20
588.45794074937589
 30
0.0
 11
-236.87121112302069
 21
585.65794074937605
 31
0.0
1001
GENIUS_GENREC_14
1002
{
1000
PYDIR
1011
-231.7018210842931
1021
0.0
1031
0.0
1021
583.75794074937619
1031
0.0
1002
}
1002
{
1000
PXDIR
1011
-236.87121112302069
1021
0.0
1031
0.0
1021
590.35794074937598
1031
0.0
1002
}
1002
{
1000
PORI
1011
-231.7018210842931
1021
0.0
1031
0.0
1021
590.35794074937598
1031
0.0
1002
}
1002
{
1000
PINS
1011
-231.7018210842931
1021
0.0
1031
0.0
1021
590.35794074937598
1031
0.0
1002
}
1002
{
1000
PINS2
1011
-236.87121112302069
1021
0.0
1031
0.0
1021
583.75794074937619
1031
0.0
1002
}
1002
{
1000
C
1070
     1
1002
}
1001
GENIUS_GENODEF_13
1002
{
1000
HIER
1070
     0
1002
}
1002
{
1000
MANEDIT
1070
     0
1002
}
1002
{
1000
NOSEL
1070
     0
1002
}
1002
{
1000
BEHIND
1070
     0
1002
}
1002
{
1000
REACTOR
1002
}
1001
GENIUS_GENOBJ-N-REC_13
1002
{
1000
OWNER
1000
GEN
1002
}
  0
LINE
  5
33CB
  8
0
  6
CONTINUOUS
 62
     7
 10
-233.67121112301999
 20
590.45794074937533
 30
0.0
 11
-234.87121112302
 21
590.45794074937612
 31
0.0
1001
GENIUS_GENREC_14
1002
{
1000
PYDIR
1011
-231.7018210842931
1021
0.0
1031
0.0
1021
583.85794074937576
1031
0.0
1002
}
1002
{
1000
PXDIR
1011
-236.87121112302069
1021
0.0
1031
0.0
1021
590.45794074937567
1031
0.0
1002
}
1002
{
1000
PORI
1011
-231.7018210842931
1021
0.0
1031
0.0
1021
590.45794074937567
1031
0.0
1002
}
1002
{
1000
PINS
1011
-231.7018210842931
1021
0.0
1031
0.0
1021
590.45794074937567
1031
0.0
1002
}
1002
{
1000
PINS2
1011
-236.87121112302069
1021
0.0
1031
0.0
1021
583.85794074937576
1031
0.0
1002
}
1002
{
1000
C
1070
     1
1002
}
1001
GENIUS_GENODEF_13
1002
{
1000
HIER
1070
     0
1002
}
1002
{
1000
MANEDIT
1070
     0
1002
}
1002
{
1000
NOSEL
1070
     0
1002
}
1002
{
1000
BEHIND
1070
     0
1002
}
1002
{
1000
REACTOR
1002
}
1001
GENIUS_GENOBJ-N-REC_13
1002
{
1000
OWNER
1000
GEN
1002
}
  0
LINE
  5
33F2
  8
0
  6
CENTER
 62
     4
 10
-227.68051557967391
 20
522.7627756818755
 30
0.0
 11
-220.66568917313251
 21
522.7627756818755
 31
0.0
  0
LINE
  5
33F3
  8
0
  6
CENTER
 62
     4
 10
-224.17310237640291
 20
526.42630019917715
 30
0.0
 11
-224.17310237640291
 21
519.09925116457373
 31
0.0
  0
LINE
  5
33F4
  8
0
  6
CENTER
 62
     4
 10
-227.68051557967391
 20
497.36277568187518
 30
0.0
 11
-220.66568917313251
 21
497.36277568187518
 31
0.0
  0
LINE
  5
33F5
  8
0
  6
CENTER
 62
     4
 10
-224.17310237640291
 20
501.026300199177
 30
0.0
 11
-224.17310237640291
 21
493.69925116457398
 31
0.0
  0
TEXT
  5
3400
  8
0
 62
     2
 10
-210.7393553205855
 20
479.3690715459777
 30
0.0
 40
3.5
  1
EMITTER
  0
TEXT
  5
340B
  8
0
 62
     2
 10
-81.335803408659729
 20
479.3690715459777
 30
0.0
 40
3.5
  1
RECEIVER
  0
LINE
  5
345B
  8
0
  6
CONTINUOUS
 62
     7
 10
-38.29391036023447
 20
490.06277568187539
 30
0.0
 11
-47.693910360234362
 21
490.06277568187539
 31
0.0
  0
LINE
  5
345C
  8
0
  6
CONTINUOUS
 62
     7
 10
-38.993910360235049
 20
486.06277568187687
 30
0.0
 11
-46.993910360234757
 21
486.06277568187687
 31
0.0
  0
LINE
  5
345D
  8
0
  6
CONTINUOUS
 62
     7
 10
-38.993910360235148
 20
489.06277568187511
 30
0.0
 11
-46.993910360234757
 21
489.06277568187511
 31
0.0
  0
LINE
  5
345E
  8
0
  6
CONTINUOUS
 62
     7
 10
-44.493910360234267
 20
494.56277568187511
 30
0.0
 11
-37.493910360234644
 21
501.56277568187471
 31
0.0
  0
LINE
  5
345F
  8
0
  6
CONTINUOUS
 62
     7
 10
-37.993910360234381
 20
499.56277568187511
 30
0.0
 11
-42.993910360234388
 21
494.56277568187539
 31
0.0
  0
LINE
  5
3460
  8
0
  6
CONTINUOUS
 62
     7
 10
-39.543909993570061
 20
485.06277568187511
 30
0.0
 11
-46.443910726899873
 21
485.06277568187511
 31
0.0
  0
LINE
  5
3461
  8
0
  6
CONTINUOUS
 62
     7
 10
-39.743910360234757
 20
483.06277568187488
 30
0.0
 11
-46.243910360235063
 21
483.06277568187488
 31
0.0
  0
LINE
  5
3462
  8
0
  6
CONTINUOUS
 62
     7
 10
-47.693910360234362
 20
494.56277568187488
 30
0.0
 11
-47.693910360234362
 21
490.06277568187539
 31
0.0
  0
LINE
  5
3463
  8
0
  6
CENTER
 62
     4
 10
-42.99391036023485
 20
495.49565683809618
 30
0.0
 11
-42.99391036023485
 21
480.56277568187562
 31
0.0
  0
LINE
  5
3464
  8
0
  6
CONTINUOUS
 62
     7
 10
-46.993910360234757
 20
489.06277568187511
 30
0.0
 11
-46.993910360234757
 21
486.06277568187687
 31
0.0
  0
LINE
  5
3465
  8
0
  6
CONTINUOUS
 62
     7
 10
-46.243910360234857
 20
486.06277568187539
 30
0.0
 11
-46.243910360234857
 21
485.06277568187511
 31
0.0
  0
LINE
  5
3466
  8
0
  6
CONTINUOUS
 62
     7
 10
-46.443910726899873
 20
485.06277568187511
 30
0.0
 11
-46.243910360235063
 21
483.06277268190502
 31
0.0
  0
LINE
  5
3467
  8
0
  6
CONTINUOUS
 62
     7
 10
-46.243910360235148
 20
490.06277568187539
 30
0.0
 11
-46.243910360235063
 21
489.06277568187511
 31
0.0
  0
LINE
  5
3468
  8
0
  6
CONTINUOUS
 62
     7
 10
-38.29391036023447
 20
490.06277568187539
 30
0.0
 11
-38.29391036023447
 21
499.2627756818751
 31
0.0
  0
LINE
  5
3469
  8
0
  6
CONTINUOUS
 62
     7
 10
-38.993910360235049
 20
486.06277568187687
 30
0.0
 11
-38.993910360235148
 21
489.06277568187511
 31
0.0
  0
LINE
  5
346A
  8
0
  6
CONTINUOUS
 62
     7
 10
-39.743910360234757
 20
485.06277568187511
 30
0.0
 11
-39.743910360234757
 21
486.06277568187539
 31
0.0
  0
LINE
  5
346B
  8
0
  6
CONTINUOUS
 62
     7
 10
-39.543909993570061
 20
485.06277568187511
 30
0.0
 11
-39.743910360234757
 21
483.06277268190502
 31
0.0
  0
LINE
  5
346C
  8
0
  6
CONTINUOUS
 62
     7
 10
-39.743910360234757
 20
490.06277568187539
 30
0.0
 11
-39.743910360234757
 21
489.06277568187511
 31
0.0
  0
LINE
  5
346D
  8
0
  6
CONTINUOUS
 62
     7
 10
-37.993910360234253
 20
501.06277568187522
 30
0.0
 11
-37.993910360234381
 21
499.56277568187511
 31
0.0
  0
LINE
  5
3486
  8
0
  6
CONTINUOUS
 62
     7
 10
-99.223867592353656
 20
486.06277568186931
 30
0.0
 11
-107.2238675923535
 21
486.06277568186931
 31
0.0
  0
LINE
  5
3487
  8
0
  6
CONTINUOUS
 62
     7
 10
-99.223867592353656
 20
489.06277568186761
 30
0.0
 11
-107.2238675923534
 21
489.06277568186761
 31
0.0
  0
LINE
  5
3488
  8
0
  6
CONTINUOUS
 62
     7
 10
-99.773867225688761
 20
485.06277568186761
 30
0.0
 11
-106.67386795901839
 21
485.06277568186761
 31
0.0
  0
LINE
  5
3489
  8
0
  6
CONTINUOUS
 62
     7
 10
-98.523867592352957
 20
490.06277568186778
 30
0.0
 11
-107.9238675923513
 21
490.06277568186778
 31
0.0
  0
LINE
  5
348A
  8
0
  6
CONTINUOUS
 62
     7
 10
-99.973867592353656
 20
483.06277568186778
 30
0.0
 11
-106.4738675923535
 21
483.06277568186778
 31
0.0
  0
LINE
  5
348B
  8
0
  6
CONTINUOUS
 62
     7
 10
-107.2238675923534
 20
489.06277568186761
 30
0.0
 11
-107.2238675923535
 21
486.06277568186931
 31
0.0
  0
LINE
  5
348C
  8
0
  6
CONTINUOUS
 62
     7
 10
-106.4738675923533
 20
486.06277568186772
 30
0.0
 11
-106.4738675923533
 21
485.06277568186761
 31
0.0
  0
LINE
  5
348D
  8
0
  6
CONTINUOUS
 62
     7
 10
-106.67386795901839
 20
485.06277568186761
 30
0.0
 11
-106.4738675923535
 21
483.0627726818978
 31
0.0
  0
LINE
  5
348E
  8
0
  6
CONTINUOUS
 62
     7
 10
-107.9238675923513
 20
490.06277568186778
 30
0.0
 11
-107.9238675923535
 21
494.56277568187539
 31
0.0
  0
LINE
  5
348F
  8
0
  6
CONTINUOUS
 62
     7
 10
-106.4738675923529
 20
490.06277568186778
 30
0.0
 11
-106.4738675923529
 21
489.06277568186761
 31
0.0
  0
LINE
  5
3490
  8
0
  6
CONTINUOUS
 62
     7
 10
-99.223867592353656
 20
486.06277568186931
 30
0.0
 11
-99.223867592353656
 21
489.06277568186761
 31
0.0
  0
LINE
  5
3491
  8
0
  6
CENTER
 62
     4
 10
-103.2238675923526
 20
480.56277568187568
 30
0.0
 11
-103.2238675923526
 21
495.49565683809629
 31
0.0
  0
LINE
  5
3492
  8
0
  6
CONTINUOUS
 62
     7
 10
-99.973867592353557
 20
485.06277568186761
 30
0.0
 11
-99.973867592353557
 21
486.06277568186772
 31
0.0
  0
LINE
  5
3493
  8
0
  6
CONTINUOUS
 62
     7
 10
-99.773867225688761
 20
485.06277568186761
 30
0.0
 11
-99.973867592353656
 21
483.0627726818978
 31
0.0
  0
LINE
  5
3494
  8
0
  6
CONTINUOUS
 62
     7
 10
-98.523867592352957
 20
490.06277568186778
 30
0.0
 11
-98.523867592352957
 21
494.56277568187539
 31
0.0
  0
LINE
  5
3495
  8
0
  6
CONTINUOUS
 62
     7
 10
-99.973867592352974
 20
490.06277568186778
 30
0.0
 11
-99.973867592352974
 21
489.06277568186761
 31
0.0
  0
LINE
  5
34AC
  8
0
  6
CONTINUOUS
 62
     7
 10
-171.44314514428581
 20
486.06277568186931
 30
0.0
 11
-179.44314514428581
 21
486.06277568186931
 31
0.0
  0
LINE
  5
34AD
  8
0
  6
CONTINUOUS
 62
     7
 10
-171.44314514428581
 20
489.06277568186761
 30
0.0
 11
-179.44314514428581
 21
489.06277568186761
 31
0.0
  0
LINE
  5
34AE
  8
0
  6
CONTINUOUS
 62
     7
 10
-171.99314477762101
 20
485.06277568186761
 30
0.0
 11
-178.89314551095069
 21
485.06277568186761
 31
0.0
  0
LINE
  5
34AF
  8
0
  6
CONTINUOUS
 62
     7
 10
-170.74314514428511
 20
490.06277568186778
 30
0.0
 11
-180.14314514428341
 21
490.06277568186778
 31
0.0
  0
LINE
  5
34B0
  8
0
  6
CONTINUOUS
 62
     7
 10
-172.19314514428581
 20
483.06277568186778
 30
0.0
 11
-178.69314514428581
 21
483.06277568186778
 31
0.0
  0
LINE
  5
34B1
  8
0
  6
CONTINUOUS
 62
     7
 10
-179.44314514428581
 20
489.06277568186761
 30
0.0
 11
-179.44314514428581
 21
486.06277568186931
 31
0.0
  0
LINE
  5
34B2
  8
0
  6
CONTINUOUS
 62
     7
 10
-178.69314514428561
 20
486.06277568186772
 30
0.0
 11
-178.69314514428561
 21
485.06277568186761
 31
0.0
  0
LINE
  5
34B3
  8
0
  6
CONTINUOUS
 62
     7
 10
-178.89314551095069
 20
485.06277568186761
 30
0.0
 11
-178.69314514428581
 21
483.0627726818978
 31
0.0
  0
LINE
  5
34B4
  8
0
  6
CONTINUOUS
 62
     7
 10
-180.14314514428341
 20
490.06277568186778
 30
0.0
 11
-180.1431451442858
 21
494.56277568187539
 31
0.0
  0
LINE
  5
34B5
  8
0
  6
CONTINUOUS
 62
     7
 10
-178.69314514428521
 20
490.06277568186778
 30
0.0
 11
-178.69314514428521
 21
489.06277568186761
 31
0.0
  0
LINE
  5
34B6
  8
0
  6
CONTINUOUS
 62
     7
 10
-171.44314514428581
 20
486.06277568186931
 30
0.0
 11
-171.44314514428581
 21
489.06277568186761
 31
0.0
  0
LINE
  5
34B7
  8
0
  6
CENTER
 62
     4
 10
-175.44314514428501
 20
480.56277568187568
 30
0.0
 11
-175.44314514428501
 21
495.49565683809629
 31
0.0
  0
LINE
  5
34B8
  8
0
  6
CONTINUOUS
 62
     7
 10
-172.19314514428581
 20
485.06277568186761
 30
0.0
 11
-172.19314514428581
 21
486.06277568186772
 31
0.0
  0
LINE
  5
34B9
  8
0
  6
CONTINUOUS
 62
     7
 10
-171.99314477762101
 20
485.06277568186761
 30
0.0
 11
-172.19314514428581
 21
483.0627726818978
 31
0.0
  0
LINE
  5
34BA
  8
0
  6
CONTINUOUS
 62
     7
 10
-170.74314514428511
 20
490.06277568186778
 30
0.0
 11
-170.74314514428511
 21
494.56277568187539
 31
0.0
  0
LINE
  5
34BB
  8
0
  6
CONTINUOUS
 62
     7
 10
-172.19314514428521
 20
490.06277568186778
 30
0.0
 11
-172.19314514428521
 21
489.06277568186761
 31
0.0
  0
LINE
  5
34C4
  8
0
  6
CONTINUOUS
 62
     7
 10
-240.3731023764033
 20
490.06277568187539
 30
0.0
 11
-240.3731023764033
 21
499.2627756818751
 31
0.0
  0
LINE
  5
34C5
  8
0
  6
CONTINUOUS
 62
     7
 10
-240.67310237640339
 20
499.56277568187511
 30
0.0
 11
-235.67310237640319
 21
494.56277568187539
 31
0.0
  0
LINE
  5
34C6
  8
0
  6
CONTINUOUS
 62
     7
 10
-234.17310237640339
 20
494.56277568187511
 30
0.0
 11
-241.17310237640311
 21
501.56277568187471
 31
0.0
  0
LINE
  5
34C7
  8
0
  6
CONTINUOUS
 62
     7
 10
-238.92310237640291
 20
483.06277568187488
 30
0.0
 11
-232.42310237640271
 21
483.06277568187488
 31
0.0
  0
LINE
  5
34C8
  8
0
  6
CONTINUOUS
 62
     7
 10
-239.1231027430677
 20
485.06277568187511
 30
0.0
 11
-232.2231020097378
 21
485.06277568187511
 31
0.0
  0
LINE
  5
34C9
  8
0
  6
CONTINUOUS
 62
     7
 10
-239.67310237640251
 20
489.06277568187511
 30
0.0
 11
-231.67310237640291
 21
489.06277568187511
 31
0.0
  0
LINE
  5
34CA
  8
0
  6
CONTINUOUS
 62
     7
 10
-239.67310237640271
 20
486.06277568187687
 30
0.0
 11
-231.67310237640291
 21
486.06277568187687
 31
0.0
  0
LINE
  5
34CB
  8
0
  6
CONTINUOUS
 62
     7
 10
-240.3731023764033
 20
490.06277568187539
 30
0.0
 11
-230.97310237640329
 21
490.06277568187539
 31
0.0
  0
LINE
  5
34CC
  8
0
  6
CONTINUOUS
 62
     7
 10
-231.67310237640291
 20
489.06277568187511
 30
0.0
 11
-231.67310237640291
 21
486.06277568187687
 31
0.0
  0
LINE
  5
34CD
  8
0
  6
CENTER
 62
     4
 10
-235.6731023764028
 20
495.49565683809618
 30
0.0
 11
-235.6731023764028
 21
480.56277568187562
 31
0.0
  0
LINE
  5
34CE
  8
0
  6
CONTINUOUS
 62
     7
 10
-232.2231020097378
 20
485.06277568187511
 30
0.0
 11
-232.42310237640271
 21
483.06277268190502
 31
0.0
  0
LINE
  5
34CF
  8
0
  6
CONTINUOUS
 62
     7
 10
-232.4231023764028
 20
486.06277568187539
 30
0.0
 11
-232.4231023764028
 21
485.06277568187511
 31
0.0
  0
LINE
  5
34D0
  8
0
  6
CONTINUOUS
 62
     7
 10
-230.97310237640329
 20
494.56277568187488
 30
0.0
 11
-230.97310237640329
 21
490.06277568187539
 31
0.0
  0
LINE
  5
34D1
  8
0
  6
CONTINUOUS
 62
     7
 10
-232.4231023764026
 20
490.06277568187539
 30
0.0
 11
-232.42310237640271
 21
489.06277568187511
 31
0.0
  0
LINE
  5
34D2
  8
0
  6
CONTINUOUS
 62
     7
 10
-239.67310237640271
 20
486.06277568187687
 30
0.0
 11
-239.67310237640251
 21
489.06277568187511
 31
0.0
  0
LINE
  5
34D3
  8
0
  6
CONTINUOUS
 62
     7
 10
-239.1231027430677
 20
485.06277568187511
 30
0.0
 11
-238.92310237640291
 21
483.06277268190502
 31
0.0
  0
LINE
  5
34D4
  8
0
  6
CONTINUOUS
 62
     7
 10
-238.92310237640291
 20
485.06277568187511
 30
0.0
 11
-238.92310237640291
 21
486.06277568187539
 31
0.0
  0
LINE
  5
34D5
  8
0
  6
CONTINUOUS
 62
     7
 10
-238.92310237640291
 20
490.06277568187539
 30
0.0
 11
-238.92310237640291
 21
489.06277568187511
 31
0.0
  0
LINE
  5
34D6
  8
0
  6
CONTINUOUS
 62
     7
 10
-240.67310237640339
 20
501.06277568187522
 30
0.0
 11
-240.67310237640339
 21
499.56277568187511
 31
0.0
  0
VIEWPORT
  5
31B7
 67
     1
  8
0
 10
185.26530536043151
 20
99.112914085388184
 30
0.0
 40
399.49981598209342
 41
246.3203577013881
 68
     1
 69
     1
1001
ACAD
1000
MVIEW
1002
{
1070
    16
1010
0.0
1020
0.0
1030
0.0
1010
0.0
1020
0.0
1030
1.0
1040
0.0
1040
246.3203577013881
1040
185.26530536043151
1040
99.112914085388184
1040
50.0
1040
0.0
1040
0.0
1070
     0
1070
   100
1070
     1
1070
     1
1070
     0
1070
     0
1070
     0
1070
     0
1040
0.0
1040
0.0
1040
0.0
1040
10.0
1040
10.0
1040
10.0
1040
10.0
1070
     0
1002
{
1002
}
1002
}
1001
GENIUS_GENOBJ-N-SDF_13
1002
{
1000
OWNER
1000
GEN
1002
}
1001
GENIUS_GENODEF_13
1002
{
1000
HIER
1070
     0
1002
}
1002
{
1000
MANEDIT
1070
     0
1002
}
1002
{
1000
NOSEL
1070
     0
1002
}
1002
{
1000
BEHIND
1070
     0
1002
}
1002
{
1000
OTHER
1070
     0
1002
}
1002
{
1000
REACTOR
1002
}
1001
GENIUS_GENSCREG_15
1000
PF
1040
1.0
1000
DF
1040
1.0
1000
MIN
1011
-14.48460263061525
1021
0.0
1031
0.0
1021
-24.04726476530589
1031
0.0
1000
MAX
1011
385.01521335147822
1021
0.0
1031
0.0
1021
222.27309293608221
1031
0.0
1000
FLAGS
1070
     2
  0
ENDSEC
  0
EOF
