  0
SECTION
  2
HEADER
  9
$ACADVER
  1
AC1012
  9
$DWGCODEPAGE
  3
dos932
  9
$INSBASE
 10
0.0
 20
0.0
 30
0.0
  9
$EXTMIN
 10
58.30881568642382
 20
14.36350519119179
 30
-0.0015258207003583
  9
$EXTMAX
 10
236.319679944249
 20
262.6786602205061
 30
0.0000000349246037
  9
$LIMMIN
 10
58.31424740089783
 20
14.37108212773057
  9
$LIMMAX
 10
236.3142474008978
 20
262.6710821277304
  9
$ORTHOMODE
 70
     0
  9
$REGENMODE
 70
     1
  9
$FILLMODE
 70
     1
  9
$QTEXTMODE
 70
     0
  9
$MIRRTEXT
 70
     1
  9
$DRAGMODE
 70
     2
  9
$LTSCALE
 40
1.0
  9
$OSMODE
 70
  3071
  9
$ATTMODE
 70
     1
  9
$TEXTSIZE
 40
3.5
  9
$TRACEWID
 40
0.5
  9
$TEXTSTYLE
  7
STANDARD
  9
$CLAYER
  8
0
  9
$CELTYPE
  6
BYLAYER
  9
$CECOLOR
 62
   256
  9
$CELTSCALE
 40
1.0
  9
$DELOBJ
 70
     1
  9
$DISPSILH
 70
     0
  9
$DIMSCALE
 40
1.0
  9
$DIMASZ
 40
0.18
  9
$DIMEXO
 40
0.0625
  9
$DIMDLI
 40
0.38
  9
$DIMRND
 40
0.0
  9
$DIMDLE
 40
0.0
  9
$DIMEXE
 40
0.18
  9
$DIMTP
 40
0.0
  9
$DIMTM
 40
0.0
  9
$DIMTXT
 40
0.18
  9
$DIMCEN
 40
0.09
  9
$DIMTSZ
 40
0.0
  9
$DIMTOL
 70
     0
  9
$DIMLIM
 70
     0
  9
$DIMTIH
 70
     1
  9
$DIMTOH
 70
     1
  9
$DIMSE1
 70
     0
  9
$DIMSE2
 70
     0
  9
$DIMTAD
 70
     0
  9
$DIMZIN
 70
     0
  9
$DIMBLK
  1

  9
$DIMASO
 70
     1
  9
$DIMSHO
 70
     1
  9
$DIMPOST
  1

  9
$DIMAPOST
  1

  9
$DIMALT
 70
     0
  9
$DIMALTD
 70
     2
  9
$DIMALTF
 40
25.4
  9
$DIMLFAC
 40
1.0
  9
$DIMTOFL
 70
     0
  9
$DIMTVP
 40
0.0
  9
$DIMTIX
 70
     0
  9
$DIMSOXD
 70
     0
  9
$DIMSAH
 70
     0
  9
$DIMBLK1
  1

  9
$DIMBLK2
  1

  9
$DIMSTYLE
  2
STANDARD
  9
$DIMCLRD
 70
     0
  9
$DIMCLRE
 70
     0
  9
$DIMCLRT
 70
     0
  9
$DIMTFAC
 40
1.0
  9
$DIMGAP
 40
0.09
  9
$DIMJUST
 70
     0
  9
$DIMSD1
 70
     0
  9
$DIMSD2
 70
     0
  9
$DIMTOLJ
 70
     1
  9
$DIMTZIN
 70
     0
  9
$DIMALTZ
 70
     0
  9
$DIMALTTZ
 70
     0
  9
$DIMFIT
 70
     3
  9
$DIMUPT
 70
     0
  9
$DIMUNIT
 70
     2
  9
$DIMDEC
 70
     4
  9
$DIMTDEC
 70
     4
  9
$DIMALTU
 70
     2
  9
$DIMALTTD
 70
     2
  9
$DIMTXSTY
  7
STANDARD
  9
$DIMAUNIT
 70
     0
  9
$LUNITS
 70
     2
  9
$LUPREC
 70
     4
  9
$SKETCHINC
 40
0.1
  9
$FILLETRAD
 40
2.0
  9
$AUNITS
 70
     0
  9
$AUPREC
 70
     0
  9
$MENU
  1
ACAD
  9
$ELEVATION
 40
0.0
  9
$PELEVATION
 40
0.0
  9
$THICKNESS
 40
0.0
  9
$LIMCHECK
 70
     0
  9
$BLIPMODE
 70
     0
  9
$CHAMFERA
 40
0.0
  9
$CHAMFERB
 40
0.0
  9
$CHAMFERC
 40
0.0
  9
$CHAMFERD
 40
0.0
  9
$SKPOLY
 70
     0
  9
$TDCREATE
 40
2452600.457989398
  9
$TDUPDATE
 40
2452600.465446296
  9
$TDINDWG
 40
0.0074613079
  9
$TDUSRTIMER
 40
0.0074613079
  9
$USRTIMER
 70
     1
  9
$ANGBASE
 50
0.0
  9
$ANGDIR
 70
     0
  9
$PDMODE
 70
     0
  9
$PDSIZE
 40
0.0
  9
$PLINEWID
 40
0.0
  9
$COORDS
 70
     1
  9
$SPLFRAME
 70
     0
  9
$SPLINETYPE
 70
     6
  9
$SPLINESEGS
 70
     8
  9
$ATTDIA
 70
     1
  9
$ATTREQ
 70
     1
  9
$HANDLING
 70
 12289
  9
$HANDSEED
  5
141
  9
$SURFTAB1
 70
     6
  9
$SURFTAB2
 70
     6
  9
$SURFTYPE
 70
     6
  9
$SURFU
 70
     6
  9
$SURFV
 70
     6
  9
$UCSNAME
  2

  9
$UCSORG
 10
0.0
 20
0.0
 30
0.0
  9
$UCSXDIR
 10
1.0
 20
0.0
 30
0.0
  9
$UCSYDIR
 10
0.0
 20
1.0
 30
0.0
  9
$PUCSNAME
  2

  9
$PUCSORG
 10
0.0
 20
0.0
 30
0.0
  9
$PUCSXDIR
 10
1.0
 20
0.0
 30
0.0
  9
$PUCSYDIR
 10
0.0
 20
1.0
 30
0.0
  9
$USERI1
 70
     0
  9
$USERI2
 70
     0
  9
$USERI3
 70
     0
  9
$USERI4
 70
     0
  9
$USERI5
 70
     0
  9
$USERR1
 40
0.0
  9
$USERR2
 40
0.0
  9
$USERR3
 40
0.0
  9
$USERR4
 40
0.0
  9
$USERR5
 40
0.0
  9
$WORLDVIEW
 70
     1
  9
$SHADEDGE
 70
     3
  9
$SHADEDIF
 70
    70
  9
$TILEMODE
 70
     1
  9
$MAXACTVP
 70
    64
  9
$PINSBASE
 10
0.0
 20
0.0
 30
0.0
  9
$PLIMCHECK
 70
     0
  9
$PEXTMIN
 10
1.000000000000000E+20
 20
1.000000000000000E+20
 30
1.000000000000000E+20
  9
$PEXTMAX
 10
-1.000000000000000E+20
 20
-1.000000000000000E+20
 30
-1.000000000000000E+20
  9
$PLIMMIN
 10
0.0
 20
0.0
  9
$PLIMMAX
 10
12.0
 20
9.0
  9
$UNITMODE
 70
     0
  9
$VISRETAIN
 70
     1
  9
$PLINEGEN
 70
     0
  9
$PSLTSCALE
 70
     1
  9
$TREEDEPTH
 70
  3020
  9
$PICKSTYLE
 70
     1
  9
$CMLSTYLE
  2
STANDARD
  9
$CMLJUST
 70
     0
  9
$CMLSCALE
 40
1.0
  9
$SAVEIMAGES
 70
     1
  0
ENDSEC
  0
SECTION
  2
CLASSES
  0
CLASS
  1
ACDBDICTIONARYWDFLT
  2
AcDbDictionaryWithDefault
  3
AutoCAD 2000
 90
    32768
280
     0
281
     0
  0
CLASS
  1
ACDBPLACEHOLDER
  2
AcDbPlaceHolder
  3
AutoCAD 2000
 90
    32768
280
     0
281
     0
  0
CLASS
  1
LAYOUT
  2
AcDbLayout
  3
AutoCAD 2000
 90
    32768
280
     0
281
     0
  0
CLASS
  1
AMGSETTINGSOBJ
  2
AmgSettingsObj
  3
"AcadM|Product Description: AutoCAD Mechanical 2000|Company: Autodesk"
 90
    32768
280
     0
281
     0
  0
CLASS
  1
AMGOBJPROPCFG
  2
AmgObjPropCfg
  3
"AmgLay|Product Description: AutoCAD Mechanical 2000|Company: Autodesk"
 90
    32769
280
     0
281
     0
  0
CLASS
  1
ACME_DOCUMENT
  2
AcMeDbDoc
  3
AcMeServices
 90
    32768
280
     0
281
     0
  0
CLASS
  1
ACMESCOPE
  2
AcMeScope
  3
AcMeServices
 90
    32768
280
     0
281
     0
  0
CLASS
  1
ACMECOMMANDHISTORY
  2
AcMeCommandHistory
  3
AcMeServices
 90
    32768
280
     0
281
     0
  0
CLASS
  1
DICTIONARYVAR
  2
AcDbDictionaryVar
  3
AutoCAD 2000
 90
    32768
280
     0
281
     0
  0
CLASS
  1
ACIMSYSVARMAN
  2
AcImSysVarManager
  3
AcMeServices
 90
    32768
280
     0
281
     0
  0
CLASS
  1
ACIMREALSYSVAR
  2
AcImRealSysVar
  3
AcMeServices
 90
    32768
280
     0
281
     0
  0
CLASS
  1
ACIMINTSYSVAR
  2
AcImIntSysVar
  3
AcMeServices
 90
    32768
280
     0
281
     0
  0
CLASS
  1
ACMEDRAWINGMAN
  2
AcMeDrawingMan
  3
AcMeServices
 90
    32768
280
     0
281
     0
  0
CLASS
  1
ACMEVIEW
  2
AcMeView
  3
AcMeServices
 90
    32768
280
     0
281
     0
  0
CLASS
  1
ACDBENTITYCACHE
  2
AcMeEntityCache
  3
AcMeServices
 90
    32768
280
     0
281
     0
  0
CLASS
  1
GSMANAGER
  2
AcMeGSManager
  3
AcMeServices
 90
    32768
280
     0
281
     0
  0
CLASS
  1
AmdtInternalReactor
  2
AmdtInternalReactor
  3
AcMeServices
 90
    32768
280
     0
281
     0
  0
CLASS
  1
ACMESTATEMGR
  2
AcMeStateMgr
  3
AcMeServices
 90
    32768
280
     0
281
     0
  0
CLASS
  1
ACME_DATABASE
  2
AcMeDbDatabase
  3
AcMeServices
 90
    32768
280
     0
281
     0
  0
CLASS
  1
ACRFINSADJUSTERMGR
  2
AcRfInsAdjusterMgr
  3
AcMeServices
 90
    32768
280
     0
281
     0
  0
CLASS
  1
ACMDATADICTIONARY
  2
AcmDataDictionary
  3
"AcmSymBB|Product Description: AutoCAD Mechanical 2000|Company: Autodesk"
 90
    32768
280
     0
281
     0
  0
CLASS
  1
ACMDATAENTRYBLOCK
  2
AcmDataEntryBlock
  3
"AcmSymBB|Product Description: AutoCAD Mechanical 2000|Company: Autodesk"
 90
    32768
280
     0
281
     0
  0
CLASS
  1
ACAMGFILTERDAT
  2
AcAmgFilterDat
  3
"AcadM|Product Description: AutoCAD Mechanical 2000|Company: Autodesk"
 90
    32768
280
     0
281
     0
  0
CLASS
  1
LAYER_INDEX
  2
AcDbLayerIndex
  3
AutoCAD 2000
 90
    32768
280
     0
281
     0
  0
CLASS
  1
IDBUFFER
  2
AcDbIdBuffer
  3
AutoCAD 2000
 90
    32768
280
     0
281
     0
  0
CLASS
  1
LONG_TRANSACTION
  2
AcDbLongTransaction
  3
AutoCAD 2000
 90
    32768
280
     0
281
     0
  0
CLASS
  1
LWPOLYLINE
  2
AcDbPolyline
  3
AutoCAD 2000
 90
    32768
280
     0
281
     1
  0
CLASS
  1
HATCH
  2
AcDbHatch
  3
AutoCAD 2000
 90
    32768
280
     0
281
     1
  0
CLASS
  1
XRECORD
  2
AcDbXrecord
  3
AutoCAD 2000
 90
    32768
280
     0
281
     0
  0
ENDSEC
  0
SECTION
  2
TABLES
  0
TABLE
  2
VPORT
  5
8
330
0
100
AcDbSymbolTable
 70
     4
  0
VPORT
  5
13D
330
8
100
AcDbSymbolTableRecord
100
AcDbViewportTableRecord
  2
*ACTIVE
 70
     0
 10
0.0
 20
0.0
 11
1.0
 21
1.0
 12
147.3142478153364
 22
138.5210827058489
 13
0.0
 23
0.0
 14
1.0
 24
1.0
 15
0.0
 25
0.0
 16
0.0
 26
0.0
 36
1.0
 17
0.0
 27
0.0
 37
0.0
 40
250.1821862701362
 41
1.565872020075282
 42
50.0
 43
0.0
 44
0.0
 50
0.0
 51
0.0
 71
     0
 72
   100
 73
     1
 74
     1
 75
     0
 76
     0
 77
     0
 78
     0
  0
ENDTAB
  0
TABLE
  2
LTYPE
  5
5
330
0
100
AcDbSymbolTable
 70
    20
  0
LTYPE
  5
13
330
5
100
AcDbSymbolTableRecord
100
AcDbLinetypeTableRecord
  2
BYBLOCK
 70
     0
  3

 72
    65
 73
     0
 40
0.0
  0
LTYPE
  5
14
330
5
100
AcDbSymbolTableRecord
100
AcDbLinetypeTableRecord
  2
BYLAYER
 70
     0
  3

 72
    65
 73
     0
 40
0.0
  0
LTYPE
  5
15
330
5
100
AcDbSymbolTableRecord
100
AcDbLinetypeTableRecord
  2
CONTINUOUS
 70
     0
  3
Solid line
 72
    65
 73
     0
 40
0.0
  0
LTYPE
  5
22
330
5
100
AcDbSymbolTableRecord
100
AcDbLinetypeTableRecord
  2
BORDER
 70
     0
  3
__ __ . __ __ .
 72
    65
 73
     6
 40
11.43486842105261
 49
3.267105263157892
 74
     0
 49
-1.633552631578946
 74
     0
 49
3.267105263157892
 74
     0
 49
-1.633552631578946
 74
     0
 49
0.0
 74
     0
 49
-1.633552631578946
 74
     0
  0
LTYPE
  5
23
330
5
100
AcDbSymbolTableRecord
100
AcDbLinetypeTableRecord
  2
CENTER
 70
     0
  3
____ _ ____ _
 72
    65
 73
     4
 40
13.06842105263157
 49
8.167763157894732
 74
     0
 49
-1.633552631578946
 74
     0
 49
1.633552631578946
 74
     0
 49
-1.633552631578946
 74
     0
  0
LTYPE
  5
24
330
5
100
AcDbSymbolTableRecord
100
AcDbLinetypeTableRecord
  2
DASHDOT
 70
     0
  3
__ . __ . __ .
 72
    65
 73
     4
 40
6.534210526315785
 49
3.267105263157892
 74
     0
 49
-1.633552631578946
 74
     0
 49
0.0
 74
     0
 49
-1.633552631578946
 74
     0
  0
LTYPE
  5
25
330
5
100
AcDbSymbolTableRecord
100
AcDbLinetypeTableRecord
  2
DASHED
 70
     0
  3
__ __ __ __ __
 72
    65
 73
     2
 40
4.900657894736839
 49
3.267105263157892
 74
     0
 49
-1.633552631578946
 74
     0
  0
LTYPE
  5
26
330
5
100
AcDbSymbolTableRecord
100
AcDbLinetypeTableRecord
  2
DIVIDE
 70
     0
  3
__ . . __ . . 
 72
    65
 73
     6
 40
8.167763157894732
 49
3.267105263157892
 74
     0
 49
-1.633552631578946
 74
     0
 49
0.0
 74
     0
 49
-1.633552631578946
 74
     0
 49
0.0
 74
     0
 49
-1.633552631578946
 74
     0
  0
LTYPE
  5
27
330
5
100
AcDbSymbolTableRecord
100
AcDbLinetypeTableRecord
  2
DOT
 70
     0
  3
..............
 72
    65
 73
     4
 40
3.267105263157892
 49
0.0
 74
     0
 49
-1.633552631578946
 74
     0
 49
0.0
 74
     0
 49
-1.633552631578946
 74
     0
  0
LTYPE
  5
28
330
5
100
AcDbSymbolTableRecord
100
AcDbLinetypeTableRecord
  2
HIDDEN
 70
     0
  3
_ _ _ _ _ _ _
 72
    65
 73
     2
 40
2.450328947368419
 49
1.633552631578946
 74
     0
 49
-0.8167763157894732
 74
     0
  0
LTYPE
  5
29
330
5
100
AcDbSymbolTableRecord
100
AcDbLinetypeTableRecord
  2
PHANTOM
 70
     0
  3
_____ _ _ _____ _ _ 
 72
    65
 73
     6
 40
16.33552631578947
 49
8.167763157894732
 74
     0
 49
-1.633552631578946
 74
     0
 49
1.633552631578946
 74
     0
 49
-1.633552631578946
 74
     0
 49
1.633552631578946
 74
     0
 49
-1.633552631578946
 74
     0
  0
LTYPE
  5
10A
330
5
100
AcDbSymbolTableRecord
100
AcDbLinetypeTableRecord
  2
AM_ISO02W050
 70
     0
  3
__ __ __ __ __ __ __ __ __ __ __ __ __ __ __
 72
    65
 73
     2
 40
7.5
 49
6.0
 74
     0
 49
-1.5
 74
     0
  0
LTYPE
  5
10B
330
5
100
AcDbSymbolTableRecord
100
AcDbLinetypeTableRecord
  2
AM_ISO08W050
 70
     0
  3
____ . ____ . ____ . ____ . ____ . ____ . ____
 72
    65
 73
     4
 40
18.0
 49
12.0
 74
     0
 49
-1.5
 74
     0
 49
3.0
 74
     0
 49
-1.5
 74
     0
  0
LTYPE
  5
10C
330
5
100
AcDbSymbolTableRecord
100
AcDbLinetypeTableRecord
  2
AM_ISO09W050
 70
     0
  3
_____ . . _____ . . _____ . . ____ .. ____
 72
    65
 73
     6
 40
22.5
 49
12.0
 74
     0
 49
-1.5
 74
     0
 49
3.0
 74
     0
 49
-1.5
 74
     0
 49
3.0
 74
     0
 49
-1.5
 74
     0
  0
LTYPE
  5
10D
330
5
100
AcDbSymbolTableRecord
100
AcDbLinetypeTableRecord
  2
AMCONSTR
 70
     0
  3
_______________________
 72
    65
 73
     2
 40
9999.0
 49
9999.0
 74
     0
 49
0.0
 74
     0
  0
LTYPE
  5
10E
330
5
100
AcDbSymbolTableRecord
100
AcDbLinetypeTableRecord
  2
AM_ISO02W050X2
 70
     0
  3
 _ _ _ _ _ _ _ _ _ _ _ _
 72
    65
 73
     2
 40
3.75
 49
3.0
 74
     0
 49
-0.75
 74
     0
  0
LTYPE
  5
10F
330
5
100
AcDbSymbolTableRecord
100
AcDbLinetypeTableRecord
  2
AM_ISO08W050X2
 70
     0
  3
__ . __ . __ . __ . __ . __
 72
    65
 73
     4
 40
9.0
 49
6.0
 74
     0
 49
-0.75
 74
     0
 49
1.5
 74
     0
 49
-0.75
 74
     0
  0
LTYPE
  5
112
330
5
100
AcDbSymbolTableRecord
100
AcDbLinetypeTableRecord
  2
AMZIGZAG
 70
     0
  3
/\/-/\/-/\/-/\/-/\/-/\/
 72
    65
 73
     2
 40
11.00009999999999
 49
0.0001
 74
     4
 75
   135
340
111
 46
0.04
 50
0.0
 44
0.0
 45
0.0
 49
-11.0
 74
     0
  0
LTYPE
  5
113
330
5
100
AcDbSymbolTableRecord
100
AcDbLinetypeTableRecord
  2
PHANTOM2
 70
     0
  3
Phantom (.5x) ___ _ _ ___ _ _ ___ _ _ ___ _ _
 72
    65
 73
     6
 40
1.25
 49
0.625
 74
     0
 49
-0.125
 74
     0
 49
0.125
 74
     0
 49
-0.125
 74
     0
 49
0.125
 74
     0
 49
-0.125
 74
     0
  0
LTYPE
  5
114
330
5
100
AcDbSymbolTableRecord
100
AcDbLinetypeTableRecord
  2
HIDDEN2
 70
     0
  3
Hidden (.5x) _ _ _ _ _ _ _ _ _ _ _ _ _ _ _ _ _
 72
    65
 73
     2
 40
0.1875
 49
0.125
 74
     0
 49
-0.0625
 74
     0
  0
LTYPE
  5
115
330
5
100
AcDbSymbolTableRecord
100
AcDbLinetypeTableRecord
  2
CENTER2
 70
     0
  3
Center (.5x) ___ _ ___ _ ___ _ ___ _ ___ _ ___
 72
    65
 73
     4
 40
1.125
 49
0.75
 74
     0
 49
-0.125
 74
     0
 49
0.125
 74
     0
 49
-0.125
 74
     0
  0
LTYPE
  5
116
330
5
100
AcDbSymbolTableRecord
100
AcDbLinetypeTableRecord
  2
AMZIGZAG2
 70
     0
  3
/\/-/\/-/\/-/\/-/\/-/\/
 72
    65
 73
     2
 40
0.4401
 49
0.0001
 74
     4
 75
   135
340
111
 46
0.0016
 50
0.0
 44
0.0
 45
0.0
 49
-0.4400000000000001
 74
     0
  0
ENDTAB
  0
TABLE
  2
LAYER
  5
2
330
0
100
AcDbSymbolTable
 70
     2
  0
LAYER
  5
10
330
2
100
AcDbSymbolTableRecord
100
AcDbLayerTableRecord
  2
0
 70
     0
 62
     7
  6
CONTINUOUS
  0
LAYER
  5
2A
330
2
100
AcDbSymbolTableRecord
100
AcDbLayerTableRecord
  2
1
 70
     0
 62
     7
  6
CONTINUOUS
  0
ENDTAB
  0
TABLE
  2
STYLE
  5
3
330
0
100
AcDbSymbolTable
 70
     5
  0
STYLE
  5
11
330
3
100
AcDbSymbolTableRecord
100
AcDbTextStyleTableRecord
  2
STANDARD
 70
     0
 40
0.0
 41
1.0
 50
0.0
 71
     0
 42
3.5
  3
txt
  4

  0
STYLE
  5
2B
330
3
100
AcDbSymbolTableRecord
100
AcDbTextStyleTableRecord
  2
SIMPLEX
 70
     0
 40
0.0
 41
1.0
 50
0.0
 71
     0
 42
3.5
  3
simplex
  4

  0
STYLE
  5
2C
330
3
100
AcDbSymbolTableRecord
100
AcDbTextStyleTableRecord
  2
COMPLEX
 70
     0
 40
0.0
 41
1.0
 50
0.0
 71
     0
 42
3.5
  3
complex
  4

  0
STYLE
  5
2D
330
3
100
AcDbSymbolTableRecord
100
AcDbTextStyleTableRecord
  2
ITALIC
 70
     0
 40
0.0
 41
1.0
 50
0.0
 71
     0
 42
3.5
  3
italic
  4

  0
STYLE
  5
111
330
3
100
AcDbSymbolTableRecord
100
AcDbTextStyleTableRecord
  2

 70
     1
 40
0.0
 41
1.0
 50
0.0
 71
     0
 42
3.5
  3
ltypeshp.shx
  4

  0
ENDTAB
  0
TABLE
  2
VIEW
  5
6
330
0
100
AcDbSymbolTable
 70
     0
  0
ENDTAB
  0
TABLE
  2
UCS
  5
7
330
0
100
AcDbSymbolTable
 70
     0
  0
ENDTAB
  0
TABLE
  2
APPID
  5
9
330
0
100
AcDbSymbolTable
 70
     3
  0
APPID
  5
12
330
9
100
AcDbSymbolTableRecord
100
AcDbRegAppTableRecord
  2
ACAD
 70
     0
  0
APPID
  5
119
330
9
100
AcDbSymbolTableRecord
100
AcDbRegAppTableRecord
  2
MCAD_NO_VIS
 70
     0
  0
APPID
  5
11A
330
9
100
AcDbSymbolTableRecord
100
AcDbRegAppTableRecord
  2
ACAD_TEMP_GRAPHIC
 70
     0
  0
ENDTAB
  0
TABLE
  2
DIMSTYLE
  5
A
330
0
100
AcDbSymbolTable
 70
     1
  0
DIMSTYLE
105
104
330
A
100
AcDbSymbolTableRecord
100
AcDbDimStyleTableRecord
  2
STANDARD
 70
     0
  3

  4

  5

  6

  7

 40
1.0
 41
0.18
 42
0.0625
 43
0.38
 44
0.18
 45
0.0
 46
0.0
 47
0.0
 48
0.0
140
0.18
141
0.09
142
0.0
143
25.4
144
1.0
145
0.0
146
1.0
147
0.09
 71
     0
 72
     0
 73
     1
 74
     1
 75
     0
 76
     0
 77
     0
 78
     0
170
     0
171
     2
172
     0
173
     0
174
     0
175
     0
176
     0
177
     0
178
     0
270
     2
271
     4
272
     4
273
     2
274
     2
340
11
275
     0
280
     0
281
     0
282
     0
283
     1
284
     0
285
     0
286
     0
287
     3
288
     0
  0
ENDTAB
  0
TABLE
  2
BLOCK_RECORD
  5
1
330
0
100
AcDbSymbolTable
 70
     0
  0
BLOCK_RECORD
  5
1E
102
{ACAD_XDICTIONARY
360
138
102
}
330
1
100
AcDbSymbolTableRecord
100
AcDbBlockTableRecord
  2
*MODEL_SPACE
  0
BLOCK_RECORD
  5
1A
102
{ACAD_XDICTIONARY
360
13E
102
}
330
1
100
AcDbSymbolTableRecord
100
AcDbBlockTableRecord
  2
*PAPER_SPACE
  0
ENDTAB
  0
ENDSEC
  0
SECTION
  2
BLOCKS
  0
BLOCK
  5
1F
330
1E
100
AcDbEntity
  8
0
100
AcDbBlockBegin
  2
*MODEL_SPACE
 70
     0
 10
0.0
 20
0.0
 30
0.0
  3
*MODEL_SPACE
  1

  0
ENDBLK
  5
20
330
1E
100
AcDbEntity
  8
0
100
AcDbBlockEnd
  0
BLOCK
  5
1B
330
1A
100
AcDbEntity
 67
     1
  8
0
100
AcDbBlockBegin
  2
*PAPER_SPACE
 70
     0
 10
0.0
 20
0.0
 30
0.0
  3
*PAPER_SPACE
  1

  0
ENDBLK
  5
1C
330
1A
100
AcDbEntity
 67
     1
  8
0
100
AcDbBlockEnd
  0
ENDSEC
  0
SECTION
  2
ENTITIES
  0
LINE
  5
33
330
1E
100
AcDbEntity
  8
1
 62
     7
100
AcDbLine
 10
144.4746913968613
 20
63.64475933385232
 30
0.0
 11
143.4746913968613
 21
64.15200947570929
 31
0.0
  0
LINE
  5
34
330
1E
100
AcDbEntity
  8
1
 62
     7
100
AcDbLine
 10
144.4746913968613
 20
57.65200947570928
 30
0.0
 11
143.4746913968613
 21
57.15200947570941
 31
0.0
  0
LINE
  5
35
330
1E
100
AcDbEntity
  8
1
 62
     7
100
AcDbLine
 10
150.4746913968614
 20
57.65200947570928
 30
0.0
 11
151.4746913968613
 21
57.15200947570941
 31
0.0
  0
LINE
  5
36
330
1E
100
AcDbEntity
  8
1
 62
     7
100
AcDbLine
 10
150.4746913968614
 20
63.64475933385232
 30
0.0
 11
151.4746913968613
 21
64.15200947570929
 31
0.0
  0
LINE
  5
37
330
1E
100
AcDbEntity
  8
1
 62
     7
100
AcDbLine
 10
100.5586316454932
 20
136.2424242064389
 30
0.0
 11
107.558631645493
 21
136.2424242064389
 31
0.0
  0
LINE
  5
38
330
1E
100
AcDbEntity
  8
1
 62
     7
100
AcDbLine
 10
100.5586316454932
 20
109.2424242064389
 30
0.0
 11
107.558631645493
 21
109.2424242064389
 31
0.0
  0
LINE
  5
39
330
1E
100
AcDbEntity
  8
1
 62
     7
100
AcDbLine
 10
143.4746913968613
 20
109.2424242064389
 30
0.0
 11
151.4746913968613
 21
109.2424242064389
 31
0.0
  0
LINE
  5
3A
330
1E
100
AcDbEntity
  8
1
 62
     7
100
AcDbLine
 10
143.4746913968613
 20
136.2424242064389
 30
0.0
 11
151.4746913968613
 21
136.2424242064389
 31
0.0
  0
LINE
  5
3B
330
1E
100
AcDbEntity
  8
1
 62
     7
100
AcDbLine
 10
149.7746913968614
 20
65.15200947570929
 30
0.0
 11
149.7746913968614
 21
64.15200947570929
 31
0.0
  0
LINE
  5
3C
330
1E
100
AcDbEntity
  8
1
 62
     7
100
AcDbLine
 10
145.1746913968613
 20
65.15200947570929
 30
0.0
 11
149.7746913968614
 21
65.15200947570929
 31
0.0
  0
LINE
  5
3D
330
1E
100
AcDbEntity
  8
1
 62
     7
100
AcDbLine
 10
145.1746913968613
 20
64.15200947570929
 30
0.0
 11
145.1746913968613
 21
65.15200947570929
 31
0.0
  0
LINE
  5
3E
330
1E
100
AcDbEntity
  8
1
 62
     7
100
AcDbLine
 10
143.4746913968613
 20
57.15200947570941
 30
0.0
 11
143.4746913968613
 21
64.15200947570929
 31
0.0
  0
LINE
  5
3F
330
1E
100
AcDbEntity
  8
1
 62
     7
100
AcDbLine
 10
151.4746913968613
 20
57.15200947570941
 30
0.0
 11
143.4746913968613
 21
57.15200947570941
 31
0.0
  0
LINE
  5
40
330
1E
100
AcDbEntity
  8
1
 62
     7
100
AcDbLine
 10
151.4746913968613
 20
64.15200947570929
 30
0.0
 11
151.4746913968613
 21
57.15200947570941
 31
0.0
  0
LINE
  5
41
330
1E
100
AcDbEntity
  8
1
 62
     7
100
AcDbLine
 10
143.4746913968613
 20
64.15200947570929
 30
0.0
 11
151.4746913968613
 21
64.15200947570929
 31
0.0
  0
LINE
  5
42
330
1E
100
AcDbEntity
  8
1
 62
     7
100
AcDbLine
 10
144.4746913968613
 20
57.65200947570928
 30
0.0
 11
144.4746913968613
 21
63.64475933385232
 31
0.0
  0
LINE
  5
43
330
1E
100
AcDbEntity
  8
1
 62
     7
100
AcDbLine
 10
150.4746913968614
 20
57.65200947570928
 30
0.0
 11
144.4746913968613
 21
57.65200947570928
 31
0.0
  0
LINE
  5
44
330
1E
100
AcDbEntity
  8
1
 62
     7
100
AcDbLine
 10
150.4746913968614
 20
63.64475933385232
 30
0.0
 11
150.4746913968614
 21
57.65200947570928
 31
0.0
  0
LINE
  5
45
330
1E
100
AcDbEntity
  8
1
 62
     7
100
AcDbLine
 10
144.4746913968613
 20
63.64475933385232
 30
0.0
 11
150.4746913968614
 21
63.64475933385232
 31
0.0
  0
LINE
  5
46
330
1E
100
AcDbEntity
  8
1
 62
     7
100
AcDbLine
 10
90.94351260623621
 20
186.0935550582801
 30
0.0
 11
91.49351260623619
 21
186.0935550582801
 31
0.0
  0
LINE
  5
47
330
1E
100
AcDbEntity
  8
1
 62
     7
100
AcDbLine
 10
90.09351260623619
 20
191.0483716735813
 30
0.0
 11
91.49351260623619
 21
191.0483716735813
 31
0.0
  0
LINE
  5
48
330
1E
100
AcDbEntity
  8
1
 62
     7
100
AcDbLine
 10
90.09351260623619
 20
194.1435550582801
 30
0.0
 11
91.49351260623619
 21
194.1435550582801
 31
0.0
  0
LINE
  5
49
330
1E
100
AcDbEntity
  8
1
 62
     7
100
AcDbLine
 10
90.09351260623619
 20
201.5435550582802
 30
0.0
 11
91.49351260623619
 21
201.5435550582802
 31
0.0
  0
LINE
  5
4A
330
1E
100
AcDbEntity
  8
1
  6
CENTER
 62
     2
100
AcDbLine
 10
87.49351260623619
 20
192.3435550582801
 30
0.0
 11
91.9935126062362
 21
192.3435550582801
 31
0.0
  0
LINE
  5
4B
330
1E
100
AcDbEntity
  8
1
  6
CENTER
 62
     2
100
AcDbLine
 10
87.49351260623619
 20
203.3435550582802
 30
0.0
 11
91.9935126062362
 21
203.3435550582802
 31
0.0
  0
LINE
  5
4C
330
1E
100
AcDbEntity
  8
1
  6
CENTER
 62
     2
100
AcDbLine
 10
202.9558701874869
 20
192.3435550582801
 30
0.0
 11
207.4558701874869
 21
192.3435550582801
 31
0.0
  0
LINE
  5
4D
330
1E
100
AcDbEntity
  8
1
  6
CENTER
 62
     2
100
AcDbLine
 10
202.9558701874869
 20
203.3435550582802
 30
0.0
 11
207.4558701874869
 21
203.3435550582802
 31
0.0
  0
LINE
  5
4E
330
1E
100
AcDbEntity
  8
1
 62
     7
100
AcDbLine
 10
131.4890010479888
 20
225.0935550582803
 30
0.0
 11
125.0390010479875
 21
225.0935550582803
 31
0.0
  0
LINE
  5
4F
330
1E
100
AcDbEntity
  8
1
 62
     7
100
AcDbLine
 10
125.0390010479875
 20
225.0935550582803
 30
0.0
 11
121.4890010479876
 21
225.0935550582803
 31
0.0
  0
LINE
  5
50
330
1E
100
AcDbEntity
  8
1
 62
     7
100
AcDbLine
 10
125.0390010479875
 20
228.5935550582804
 30
0.0
 11
131.4890010479875
 21
228.5935550582804
 31
0.0
  0
LINE
  5
51
330
1E
100
AcDbEntity
  8
1
 62
     7
100
AcDbLine
 10
121.4890010479876
 20
226.4935550582801
 30
0.0
 11
125.0390010479875
 21
226.4935550582801
 31
0.0
  0
LINE
  5
52
330
1E
100
AcDbEntity
  8
1
  6
CENTER
 62
     2
100
AcDbLine
 10
123.2390010479875
 20
224.5935550582803
 30
0.0
 11
123.2390010479875
 21
229.0935550582803
 31
0.0
  0
LINE
  5
53
330
1E
100
AcDbEntity
  8
1
 62
     7
100
AcDbLine
 10
121.4890010479876
 20
225.0935550582803
 30
0.0
 11
121.4890010479876
 21
228.5935550582804
 31
0.0
  0
LINE
  5
54
330
1E
100
AcDbEntity
  8
1
 62
     7
100
AcDbLine
 10
131.4890010479875
 20
228.5935550582804
 30
0.0
 11
131.4890010479888
 21
225.0935550582803
 31
0.0
  0
LINE
  5
55
330
1E
100
AcDbEntity
  8
1
 62
     7
100
AcDbLine
 10
125.0390010479875
 20
226.4935550582801
 30
0.0
 11
125.0390010479875
 21
225.0935550582803
 31
0.0
  0
LINE
  5
56
330
1E
100
AcDbEntity
  8
1
 62
     7
100
AcDbLine
 10
121.4890010479876
 20
228.5935550582804
 30
0.0
 11
125.0390010479875
 21
228.5935550582804
 31
0.0
  0
LINE
  5
57
330
1E
100
AcDbEntity
  8
1
 62
     7
100
AcDbLine
 10
125.0435126062362
 20
205.0935550582802
 30
0.0
 11
121.4935126062362
 21
205.0935550582802
 31
0.0
  0
LINE
  5
58
330
1E
100
AcDbEntity
  8
1
 62
     7
100
AcDbLine
 10
169.905870187487
 20
225.0935550582803
 30
0.0
 11
163.4558701874857
 21
225.0935550582803
 31
0.0
  0
LINE
  5
59
330
1E
100
AcDbEntity
  8
1
 62
     7
100
AcDbLine
 10
204.8558701874867
 20
191.0483716735813
 30
0.0
 11
203.4558701874869
 21
191.0483716735813
 31
0.0
  0
LINE
  5
5A
330
1E
100
AcDbEntity
  8
1
 62
     7
100
AcDbLine
 10
204.8558701874867
 20
194.1435550582801
 30
0.0
 11
203.4558701874869
 21
194.1435550582801
 31
0.0
  0
LINE
  5
5B
330
1E
100
AcDbEntity
  8
1
 62
     7
100
AcDbLine
 10
204.8558701874867
 20
201.5435550582802
 30
0.0
 11
203.4558701874869
 21
201.5435550582802
 31
0.0
  0
LINE
  5
5C
330
1E
100
AcDbEntity
  8
1
 62
     7
100
AcDbLine
 10
107.051381503636
 20
103.7424242064389
 30
0.0
 11
101.058631645493
 21
103.7424242064389
 31
0.0
  0
LINE
  5
5D
330
1E
100
AcDbEntity
  8
1
 62
     7
100
AcDbLine
 10
107.558631645493
 20
124.2424242064387
 30
0.0
 11
108.558631645493
 21
124.2424242064387
 31
0.0
  0
LINE
  5
5E
330
1E
100
AcDbEntity
  8
1
 62
     7
100
AcDbLine
 10
107.558631645493
 20
128.8424242064387
 30
0.0
 11
108.558631645493
 21
128.8424242064387
 31
0.0
  0
LINE
  5
5F
330
1E
100
AcDbEntity
  8
1
  6
CENTER
 62
     2
100
AcDbLine
 10
123.2435126062364
 20
202.0235550582851
 30
0.0
 11
123.2435126062364
 21
204.6635550582752
 31
0.0
  0
LINE
  5
60
330
1E
100
AcDbEntity
  8
1
  6
CENTER
 62
     2
100
AcDbLine
 10
121.9235126062412
 20
203.3435550582801
 30
0.0
 11
124.5635126062312
 21
203.3435550582801
 31
0.0
  0
LINE
  5
61
330
1E
100
AcDbEntity
  8
1
  6
DASHED
 62
     2
100
AcDbLine
 10
128.7435126062364
 20
198.1435550582802
 30
0.0
 11
128.7435126062364
 21
200.5435550582801
 31
0.0
  0
LINE
  5
62
330
1E
100
AcDbEntity
  8
1
  6
DASHED
 62
     2
100
AcDbLine
 10
127.5435126062364
 20
199.3435550582801
 30
0.0
 11
129.9435126062363
 21
199.3435550582801
 31
0.0
  0
LINE
  5
63
330
1E
100
AcDbEntity
  8
1
  6
CENTER
 62
     2
100
AcDbLine
 10
123.2435126062364
 20
191.0235550582781
 30
0.0
 11
123.2435126062364
 21
193.663555058282
 31
0.0
  0
LINE
  5
64
330
1E
100
AcDbEntity
  8
1
  6
CENTER
 62
     2
100
AcDbLine
 10
121.9235126062345
 20
192.3435550582801
 30
0.0
 11
124.5635126062383
 21
192.3435550582801
 31
0.0
  0
LINE
  5
65
330
1E
100
AcDbEntity
  8
1
  6
CENTER
 62
     2
100
AcDbLine
 10
171.7058701874869
 20
191.0235550582783
 30
0.0
 11
171.7058701874869
 21
193.6635550582819
 31
0.0
  0
LINE
  5
66
330
1E
100
AcDbEntity
  8
1
  6
CENTER
 62
     2
100
AcDbLine
 10
170.3858701874851
 20
192.3435550582801
 30
0.0
 11
173.0258701874888
 21
192.3435550582801
 31
0.0
  0
LINE
  5
67
330
1E
100
AcDbEntity
  8
1
  6
CENTER
 62
     2
100
AcDbLine
 10
171.7058701874869
 20
202.0235550582849
 30
0.0
 11
171.7058701874869
 21
204.6635550582754
 31
0.0
  0
LINE
  5
68
330
1E
100
AcDbEntity
  8
1
  6
CENTER
 62
     2
100
AcDbLine
 10
170.3858701874918
 20
203.3435550582801
 30
0.0
 11
173.0258701874823
 21
203.3435550582801
 31
0.0
  0
LINE
  5
69
330
1E
100
AcDbEntity
  8
1
  6
DASHED
 62
     2
100
AcDbLine
 10
166.205870187487
 20
198.1435550582802
 30
0.0
 11
166.205870187487
 21
200.5435550582801
 31
0.0
  0
LINE
  5
6A
330
1E
100
AcDbEntity
  8
1
  6
DASHED
 62
     2
100
AcDbLine
 10
165.005870187487
 20
199.3435550582801
 30
0.0
 11
167.4058701874869
 21
199.3435550582801
 31
0.0
  0
LINE
  5
6B
330
1E
100
AcDbEntity
  8
1
 62
     7
100
AcDbLine
 10
90.94351260623621
 20
176.0952692626668
 30
0.0
 11
90.94351260623621
 21
186.0935550582801
 31
0.0
  0
LINE
  5
6C
330
1E
100
AcDbEntity
  8
1
 62
     7
100
AcDbLine
 10
131.4935126062362
 20
190.5935550582801
 30
0.0
 11
130.2877412402962
 21
186.0935550582801
 31
0.0
  0
LINE
  5
6D
330
1E
100
AcDbEntity
  8
1
 62
     7
100
AcDbLine
 10
124.4935126062362
 20
190.5935550582801
 30
0.0
 11
125.6992839721763
 21
186.0935550582801
 31
0.0
  0
LINE
  5
6E
330
1E
100
AcDbEntity
  8
1
 62
     7
100
AcDbLine
 10
129.2435126062357
 20
186.0935550582801
 30
0.0
 11
129.2435126062362
 21
176.0952692626668
 31
0.0
  0
LINE
  5
6F
330
1E
100
AcDbEntity
  8
1
 62
     7
100
AcDbLine
 10
125.6992839721763
 20
186.0935550582801
 30
0.0
 11
130.2877412402962
 21
186.0935550582801
 31
0.0
  0
LINE
  5
70
330
1E
100
AcDbEntity
  8
1
 62
     7
100
AcDbLine
 10
126.7435126062357
 20
186.0935550582801
 30
0.0
 11
126.7435126062362
 21
176.0952692626668
 31
0.0
  0
LINE
  5
71
330
1E
100
AcDbEntity
  8
1
 62
     7
100
AcDbLine
 10
131.4935126062362
 20
190.5935550582801
 30
0.0
 11
131.4935126062362
 21
205.0935550582802
 31
0.0
  0
LINE
  5
72
330
1E
100
AcDbEntity
  8
1
 62
     7
100
AcDbLine
 10
124.4935126062362
 20
190.5935550582801
 30
0.0
 11
124.4935126062362
 21
191.0483716735813
 31
0.0
  0
LINE
  5
73
330
1E
100
AcDbEntity
  8
1
 62
     7
100
AcDbLine
 10
123.2435126062362
 20
194.1435550582801
 30
0.0
 11
121.4935126062362
 21
194.1435550582801
 31
0.0
  0
LINE
  5
74
330
1E
100
AcDbEntity
  8
1
 62
     7
100
AcDbLine
 10
123.2435126062362
 20
201.5435550582802
 30
0.0
 11
121.4935126062362
 21
201.5435550582802
 31
0.0
  0
LINE
  5
75
330
1E
100
AcDbEntity
  8
1
 62
     7
100
AcDbLine
 10
121.4935126062362
 20
205.0935550582802
 30
0.0
 11
121.4935126062362
 21
190.5935550582803
 31
0.0
  0
LINE
  5
76
330
1E
100
AcDbEntity
  8
1
 62
     7
100
AcDbLine
 10
131.4935126062362
 20
205.0935550582802
 30
0.0
 11
125.0435126062362
 21
205.0935550582802
 31
0.0
  0
LINE
  5
77
330
1E
100
AcDbEntity
  8
1
 62
     7
100
AcDbLine
 10
121.4935126062362
 20
190.5935550582803
 30
0.0
 11
124.4935126062362
 21
190.5935550582801
 31
0.0
  0
LINE
  5
78
330
1E
100
AcDbEntity
  8
1
 62
     7
100
AcDbLine
 10
125.0435126062362
 20
203.3435550582802
 30
0.0
 11
125.0435126062362
 21
205.0935550582802
 31
0.0
  0
LINE
  5
79
330
1E
100
AcDbEntity
  8
1
 62
     7
100
AcDbLine
 10
87.9935126062362
 20
205.0935550582802
 30
0.0
 11
91.49351260623619
 21
205.0935550582802
 31
0.0
  0
LINE
  5
7A
330
1E
100
AcDbEntity
  8
1
 62
     7
100
AcDbLine
 10
87.9935126062362
 20
205.0935550582802
 30
0.0
 11
87.9935126062362
 21
186.0935550582801
 31
0.0
  0
LINE
  5
7B
330
1E
100
AcDbEntity
  8
1
 62
     7
100
AcDbLine
 10
90.09351260623619
 20
205.0935550582802
 30
0.0
 11
90.09351260623619
 21
201.5435550582802
 31
0.0
  0
LINE
  5
7C
330
1E
100
AcDbEntity
  8
1
 62
     7
100
AcDbLine
 10
90.09351260623619
 20
194.1435550582801
 30
0.0
 11
90.09351260623619
 21
191.0483716735813
 31
0.0
  0
LINE
  5
7D
330
1E
100
AcDbEntity
  8
1
 62
     7
100
AcDbLine
 10
91.49351260623619
 20
190.5935550582801
 30
0.0
 11
87.9935126062362
 21
190.5935550582801
 31
0.0
  0
LINE
  5
7E
330
1E
100
AcDbEntity
  8
1
 62
     7
100
AcDbLine
 10
91.49351260623619
 20
205.0935550582802
 30
0.0
 11
91.49351260623619
 21
194.5016153192909
 31
0.0
  0
LINE
  5
7F
330
1E
100
AcDbEntity
  8
1
 62
     7
100
AcDbLine
 10
88.44351260623621
 20
186.0935550582801
 30
0.0
 11
88.44351260623621
 21
176.0952692626668
 31
0.0
  0
LINE
  5
80
330
1E
100
AcDbEntity
  8
1
 62
     7
100
AcDbLine
 10
87.9935126062362
 20
186.0935550582801
 30
0.0
 11
90.94351260623621
 21
186.0935550582801
 31
0.0
  0
LINE
  5
81
330
1E
100
AcDbEntity
  8
1
 62
     7
100
AcDbLine
 10
91.49351260623619
 20
194.5016153192909
 30
0.0
 11
91.49351260623619
 21
186.0935550582801
 31
0.0
  0
LINE
  5
82
330
1E
100
AcDbEntity
  8
1
 62
     7
100
AcDbLine
 10
173.455870187487
 20
225.0935550582803
 30
0.0
 11
169.905870187487
 21
225.0935550582803
 31
0.0
  0
LINE
  5
83
330
1E
100
AcDbEntity
  8
1
 62
     7
100
AcDbLine
 10
163.455870187487
 20
228.5935550582804
 30
0.0
 11
169.905870187487
 21
228.5935550582804
 31
0.0
  0
LINE
  5
84
330
1E
100
AcDbEntity
  8
1
 62
     7
100
AcDbLine
 10
169.905870187487
 20
226.4935550582801
 30
0.0
 11
173.455870187487
 21
226.4935550582801
 31
0.0
  0
LINE
  5
85
330
1E
100
AcDbEntity
  8
1
  6
CENTER
 62
     2
100
AcDbLine
 10
171.7058701874869
 20
229.0935550582803
 30
0.0
 11
171.7058701874869
 21
224.5935550582803
 31
0.0
  0
LINE
  5
86
330
1E
100
AcDbEntity
  8
1
 62
     7
100
AcDbLine
 10
173.455870187487
 20
228.5935550582804
 30
0.0
 11
173.455870187487
 21
225.0935550582803
 31
0.0
  0
LINE
  5
87
330
1E
100
AcDbEntity
  8
1
 62
     7
100
AcDbLine
 10
163.4558701874857
 20
225.0935550582803
 30
0.0
 11
163.455870187487
 21
228.5935550582804
 31
0.0
  0
LINE
  5
88
330
1E
100
AcDbEntity
  8
1
 62
     7
100
AcDbLine
 10
204.0058701874868
 20
176.0952692626668
 30
0.0
 11
204.0058701874868
 21
186.0935550582801
 31
0.0
  0
LINE
  5
89
330
1E
100
AcDbEntity
  8
1
 62
     7
100
AcDbLine
 10
203.4558701874868
 20
186.0935550582801
 30
0.0
 11
203.4558701874868
 21
206.5935550582802
 31
0.0
  0
LINE
  5
8A
330
1E
100
AcDbEntity
  8
1
 62
     7
100
AcDbLine
 10
169.250558141228
 20
186.095269262667
 30
0.0
 11
170.4558701874869
 21
190.5935550582801
 31
0.0
  0
LINE
  5
8B
330
1E
100
AcDbEntity
  8
1
 62
     7
100
AcDbLine
 10
168.205870187487
 20
186.095269262667
 30
0.0
 11
168.205870187487
 21
176.0952692626668
 31
0.0
  0
LINE
  5
8C
330
1E
100
AcDbEntity
  8
1
 62
     7
100
AcDbLine
 10
165.7058701874869
 20
186.095269262667
 30
0.0
 11
165.705870187487
 21
176.0952692626668
 31
0.0
  0
LINE
  5
8D
330
1E
100
AcDbEntity
  8
1
 62
     7
100
AcDbLine
 10
163.4558701874869
 20
190.5935550582801
 30
0.0
 11
164.6611822337459
 21
186.095269262667
 31
0.0
  0
LINE
  5
8E
330
1E
100
AcDbEntity
  8
1
 62
     7
100
AcDbLine
 10
163.4558701874869
 20
206.5935550582802
 30
0.0
 11
163.4558701874869
 21
190.5935550582801
 31
0.0
  0
LINE
  5
8F
330
1E
100
AcDbEntity
  8
1
 62
     7
100
AcDbLine
 10
173.455870187487
 20
205.0935550582802
 30
0.0
 11
173.455870187487
 21
190.5935550582803
 31
0.0
  0
LINE
  5
90
330
1E
100
AcDbEntity
  8
1
 62
     7
100
AcDbLine
 10
173.455870187487
 20
190.5935550582803
 30
0.0
 11
170.4558701874869
 21
190.5935550582801
 31
0.0
  0
LINE
  5
91
330
1E
100
AcDbEntity
  8
1
 62
     7
100
AcDbLine
 10
163.4558701874869
 20
206.5935550582802
 30
0.0
 11
169.9058701874876
 21
206.5935550582802
 31
0.0
  0
LINE
  5
92
330
1E
100
AcDbEntity
  8
1
 62
     7
100
AcDbLine
 10
164.6611822337459
 20
186.095269262667
 30
0.0
 11
169.250558141228
 21
186.095269262667
 31
0.0
  0
LINE
  5
93
330
1E
100
AcDbEntity
  8
1
 62
     7
100
AcDbLine
 10
173.455870187487
 20
201.5435550582802
 30
0.0
 11
171.7058701874869
 21
201.5435550582802
 31
0.0
  0
LINE
  5
94
330
1E
100
AcDbEntity
  8
1
 62
     7
100
AcDbLine
 10
173.455870187487
 20
194.1435550582801
 30
0.0
 11
171.7058701874869
 21
194.1435550582801
 31
0.0
  0
LINE
  5
95
330
1E
100
AcDbEntity
  8
1
 62
     7
100
AcDbLine
 10
170.4558701874869
 20
191.0483716735813
 30
0.0
 11
170.4558701874869
 21
190.5935550582801
 31
0.0
  0
LINE
  5
96
330
1E
100
AcDbEntity
  8
1
 62
     7
100
AcDbLine
 10
169.9058701874876
 20
206.5935550582802
 30
0.0
 11
169.905870187487
 21
203.3435550582802
 31
0.0
  0
LINE
  5
97
330
1E
100
AcDbEntity
  8
1
 62
     7
100
AcDbLine
 10
169.9058701874876
 20
205.0935550582802
 30
0.0
 11
173.455870187487
 21
205.0935550582802
 31
0.0
  0
LINE
  5
98
330
1E
100
AcDbEntity
  8
1
 62
     7
100
AcDbLine
 10
203.4558701874869
 20
205.0935550582802
 30
0.0
 11
206.9558701874869
 21
205.0935550582802
 31
0.0
  0
LINE
  5
99
330
1E
100
AcDbEntity
  8
1
 62
     7
100
AcDbLine
 10
206.9558701874869
 20
190.5935550582801
 30
0.0
 11
203.4558701874868
 21
190.5935550582801
 31
0.0
  0
LINE
  5
9A
330
1E
100
AcDbEntity
  8
1
 62
     7
100
AcDbLine
 10
206.5058701874868
 20
176.0952692626668
 30
0.0
 11
206.5058701874868
 21
186.0935550582801
 31
0.0
  0
LINE
  5
9B
330
1E
100
AcDbEntity
  8
1
 62
     7
100
AcDbLine
 10
203.4558701874868
 20
186.0935550582801
 30
0.0
 11
206.9558701874869
 21
186.0935550582801
 31
0.0
  0
LINE
  5
9C
330
1E
100
AcDbEntity
  8
1
 62
     7
100
AcDbLine
 10
206.9558701874869
 20
186.0935550582801
 30
0.0
 11
206.9558701874869
 21
206.5935550582802
 31
0.0
  0
LINE
  5
9D
330
1E
100
AcDbEntity
  8
1
 62
     7
100
AcDbLine
 10
203.4558701874868
 20
206.5935550582802
 30
0.0
 11
206.9558701874869
 21
206.5935550582802
 31
0.0
  0
LINE
  5
9E
330
1E
100
AcDbEntity
  8
1
 62
     7
100
AcDbLine
 10
169.905870187487
 20
225.0935550582803
 30
0.0
 11
169.905870187487
 21
228.5935550582804
 31
0.0
  0
LINE
  5
9F
330
1E
100
AcDbEntity
  8
1
 62
     7
100
AcDbLine
 10
169.905870187487
 20
228.5935550582804
 30
0.0
 11
173.455870187487
 21
228.5935550582804
 31
0.0
  0
LINE
  5
A0
330
1E
100
AcDbEntity
  8
1
 62
     7
100
AcDbLine
 10
204.8558701874867
 20
205.0935550582802
 30
0.0
 11
204.8558701874867
 21
201.5435550582802
 31
0.0
  0
LINE
  5
A1
330
1E
100
AcDbEntity
  8
1
 62
     7
100
AcDbLine
 10
204.8558701874867
 20
194.1435550582801
 30
0.0
 11
204.8558701874867
 21
190.5935550582801
 31
0.0
  0
LINE
  5
A2
330
1E
100
AcDbEntity
  8
1
 62
     7
100
AcDbLine
 10
90.09351260623619
 20
191.0483716735813
 30
0.0
 11
90.09351260623619
 21
190.5935550582801
 31
0.0
  0
LINE
  5
A3
330
1E
100
AcDbEntity
  8
1
 62
     7
100
AcDbLine
 10
151.4746913968613
 20
136.2424242064389
 30
0.0
 11
151.4746913968613
 21
109.2424242064389
 31
0.0
  0
LINE
  5
A4
330
1E
100
AcDbEntity
  8
1
 62
     7
100
AcDbLine
 10
151.4746913968613
 20
109.2424242064389
 30
0.0
 11
150.4746913968614
 21
103.7424242064389
 31
0.0
  0
LINE
  5
A5
330
1E
100
AcDbEntity
  8
1
 62
     7
100
AcDbLine
 10
149.3746913968617
 20
103.7424242064389
 30
0.0
 11
149.3746913968617
 21
88.24242420643894
 31
0.0
  0
LINE
  5
A6
330
1E
100
AcDbEntity
  8
1
 62
     7
100
AcDbLine
 10
145.5746913968613
 20
103.7424242064389
 30
0.0
 11
145.5746913968613
 21
88.24242420643894
 31
0.0
  0
LINE
  5
A7
330
1E
100
AcDbEntity
  8
1
 62
     7
100
AcDbLine
 10
147.9746913968614
 20
151.7424242064389
 30
0.0
 11
147.9746913968614
 21
141.7424242064388
 31
0.0
  0
LINE
  5
A8
330
1E
100
AcDbEntity
  8
1
 62
     7
100
AcDbLine
 10
144.4746913968614
 20
151.7424242064389
 30
0.0
 11
144.4746913968614
 21
141.7424242064388
 31
0.0
  0
LINE
  5
A9
330
1E
100
AcDbEntity
  8
1
 62
     7
100
AcDbLine
 10
143.4746913968613
 20
136.2424242064389
 30
0.0
 11
143.7246913968614
 21
141.7424242064388
 31
0.0
  0
LINE
  5
AA
330
1E
100
AcDbEntity
  8
1
 62
     7
100
AcDbLine
 10
151.2246913968614
 20
141.7424242064388
 30
0.0
 11
151.4746913968613
 21
136.2424242064389
 31
0.0
  0
LINE
  5
AB
330
1E
100
AcDbEntity
  8
1
 62
     7
100
AcDbLine
 10
143.4746913968613
 20
109.2424242064389
 30
0.0
 11
143.4746913968613
 21
136.2424242064389
 31
0.0
  0
LINE
  5
AC
330
1E
100
AcDbEntity
  8
1
 62
     7
100
AcDbLine
 10
143.7246913968614
 20
141.7424242064388
 30
0.0
 11
151.2246913968614
 21
141.7424242064388
 31
0.0
  0
LINE
  5
AD
330
1E
100
AcDbEntity
  8
1
 62
     7
100
AcDbLine
 10
150.4746913968614
 20
141.7424242064388
 30
0.0
 11
150.4746913968614
 21
151.742424206439
 31
0.0
  0
LINE
  5
AE
330
1E
100
AcDbEntity
  8
1
 62
     7
100
AcDbLine
 10
146.9746913968615
 20
141.7424242064388
 30
0.0
 11
146.9746913968615
 21
151.742424206439
 31
0.0
  0
LINE
  5
AF
330
1E
100
AcDbEntity
  8
1
 62
     7
100
AcDbLine
 10
150.4746913968614
 20
103.7424242064389
 30
0.0
 11
144.4746913968613
 21
103.7424242064389
 31
0.0
  0
LINE
  5
B0
330
1E
100
AcDbEntity
  8
1
 62
     7
100
AcDbLine
 10
144.4746913968613
 20
103.7424242064389
 30
0.0
 11
143.4746913968613
 21
109.2424242064389
 31
0.0
  0
LINE
  5
B1
330
1E
100
AcDbEntity
  8
1
 62
     7
100
AcDbLine
 10
108.558631645493
 20
128.8424242064387
 30
0.0
 11
108.558631645493
 21
124.2424242064387
 31
0.0
  0
LINE
  5
B2
330
1E
100
AcDbEntity
  8
1
 62
     7
100
AcDbLine
 10
100.5586316454932
 20
136.2424242064389
 30
0.0
 11
101.058631645493
 21
141.7424242064388
 31
0.0
  0
LINE
  5
B3
330
1E
100
AcDbEntity
  8
1
 62
     7
100
AcDbLine
 10
101.058631645493
 20
103.7424242064389
 30
0.0
 11
100.5586316454932
 21
109.2424242064389
 31
0.0
  0
LINE
  5
B4
330
1E
100
AcDbEntity
  8
1
 62
     7
100
AcDbLine
 10
100.5586316454932
 20
109.2424242064389
 30
0.0
 11
100.5586316454932
 21
136.2424242064389
 31
0.0
  0
LINE
  5
B5
330
1E
100
AcDbEntity
  8
1
 62
     7
100
AcDbLine
 10
107.558631645493
 20
136.2424242064389
 30
0.0
 11
107.558631645493
 21
109.2424242064389
 31
0.0
  0
LINE
  5
B6
330
1E
100
AcDbEntity
  8
1
 62
     7
100
AcDbLine
 10
102.1586316454929
 20
103.7424242064389
 30
0.0
 11
102.1586316454929
 21
86.74242420643894
 31
0.0
  0
LINE
  5
B7
330
1E
100
AcDbEntity
  8
1
 62
     7
100
AcDbLine
 10
105.3086316454932
 20
141.7424242064388
 30
0.0
 11
105.3086316454932
 21
151.7424242064389
 31
0.0
  0
LINE
  5
B8
330
1E
100
AcDbEntity
  8
1
 62
     7
100
AcDbLine
 10
102.8086316454932
 20
141.7424242064388
 30
0.0
 11
102.8086316454932
 21
151.7424242064389
 31
0.0
  0
LINE
  5
B9
330
1E
100
AcDbEntity
  8
1
 62
     7
100
AcDbLine
 10
101.058631645493
 20
141.7424242064388
 30
0.0
 11
107.051381503636
 21
141.7424242064388
 31
0.0
  0
LINE
  5
BA
330
1E
100
AcDbEntity
  8
1
 62
     7
100
AcDbLine
 10
105.958631645493
 20
86.74242420643894
 30
0.0
 11
105.958631645493
 21
103.7424242064389
 31
0.0
  0
LINE
  5
BB
330
1E
100
AcDbEntity
  8
1
 62
     7
100
AcDbLine
 10
107.558631645493
 20
136.2424242064389
 30
0.0
 11
107.051381503636
 21
141.7424242064388
 31
0.0
  0
LINE
  5
BC
330
1E
100
AcDbEntity
  8
1
 62
     7
100
AcDbLine
 10
107.051381503636
 20
103.7424242064389
 30
0.0
 11
107.558631645493
 21
109.2424242064389
 31
0.0
  0
LINE
  5
BD
330
1E
100
AcDbEntity
  8
1
 62
     7
100
AcDbLine
 10
58.31424740089783
 20
262.6710821277304
 30
0.0
 11
236.3142474008978
 21
262.6710821277304
 31
0.0
  0
LINE
  5
BE
330
1E
100
AcDbEntity
  8
1
 62
     7
100
AcDbLine
 10
236.3142474008978
 20
262.6710821277304
 30
0.0
 11
236.3142474008978
 21
14.37108212773057
 31
0.0
  0
LINE
  5
BF
330
1E
100
AcDbEntity
  8
1
 62
     7
100
AcDbLine
 10
236.3142474008978
 20
14.37108212773057
 30
0.0
 11
58.31424740089783
 21
14.37108212773057
 31
0.0
  0
LINE
  5
C0
330
1E
100
AcDbEntity
  8
1
 62
     7
100
AcDbLine
 10
58.31424740089783
 20
14.37108212773057
 30
0.0
 11
58.31424740089783
 21
262.6710821277304
 31
0.0
  0
LINE
  5
C1
330
1E
100
AcDbEntity
  8
1
 62
     7
100
AcDbLine
 10
146.3142474008978
 20
44.37108212773057
 30
0.0
 11
236.3142474008978
 21
44.37108212773057
 31
0.0
  0
LINE
  5
C2
330
1E
100
AcDbEntity
  8
1
 62
     7
100
AcDbLine
 10
146.3142474008978
 20
34.37108212773056
 30
0.0
 11
236.3142474008978
 21
34.37108212773056
 31
0.0
  0
LINE
  5
C3
330
1E
100
AcDbEntity
  8
1
 62
     7
100
AcDbLine
 10
146.3142474008978
 20
24.37108212773057
 30
0.0
 11
236.3142474008978
 21
24.37108212773057
 31
0.0
  0
LINE
  5
C4
330
1E
100
AcDbEntity
  8
1
 62
     7
100
AcDbLine
 10
146.3142474008978
 20
44.37108212773057
 30
0.0
 11
146.3142474008978
 21
14.37108212773059
 31
0.0
  0
LINE
  5
C5
330
1E
100
AcDbEntity
  8
1
 62
     7
100
AcDbLine
 10
176.3142474008978
 20
24.37108212773057
 30
0.0
 11
176.3142474008978
 21
14.37108212773059
 31
0.0
  0
ARC
  5
C6
330
1E
100
AcDbEntity
  8
1
 62
     2
100
AcDbCircle
 10
90.31851260623639
 20
176.5640192626669
 30
0.0
 40
0.78125
100
AcDbArc
 50
216.8698976458439
 51
323.1301023541472
  0
ARC
  5
C7
330
1E
100
AcDbEntity
  8
1
 62
     2
100
AcDbCircle
 10
90.31851260623639
 20
175.6265192626669
 30
0.0
 40
0.7812499999998409
100
AcDbArc
 50
36.86989764585277
 51
143.130102354156
  0
ARC
  5
C8
330
1E
100
AcDbEntity
  8
1
 62
     2
100
AcDbCircle
 10
89.06851260623639
 20
176.5640192626669
 30
0.0
 40
0.7812500000001592
100
AcDbArc
 50
216.8698976458351
 51
323.130102354156
  0
ARC
  5
C9
330
1E
100
AcDbEntity
  8
1
 62
     2
100
AcDbCircle
 10
128.6185126062362
 20
176.5640192626669
 30
0.0
 40
0.7812500000000114
100
AcDbArc
 50
216.8698976458433
 51
323.130102354156
  0
ARC
  5
CA
330
1E
100
AcDbEntity
  8
1
 62
     2
100
AcDbCircle
 10
128.6185126062362
 20
175.6265192626669
 30
0.0
 40
0.78125
100
AcDbArc
 50
36.86989764584402
 51
143.1301023541565
  0
ARC
  5
CB
330
1E
100
AcDbEntity
  8
1
 62
     2
100
AcDbCircle
 10
127.3685126062362
 20
176.5640192626669
 30
0.0
 40
0.78125
100
AcDbArc
 50
216.8698976458439
 51
323.130102354156
  0
ARC
  5
CC
330
1E
100
AcDbEntity
  8
1
 62
     2
100
AcDbCircle
 10
167.580870187487
 20
176.5640192626669
 30
0.0
 40
0.78125
100
AcDbArc
 50
216.8698976458439
 51
323.130102354151
  0
ARC
  5
CD
330
1E
100
AcDbEntity
  8
1
 62
     2
100
AcDbCircle
 10
167.580870187487
 20
175.6265192626669
 30
0.0
 40
0.7812499999999091
100
AcDbArc
 50
36.86989764584903
 51
143.130102354156
  0
ARC
  5
CE
330
1E
100
AcDbEntity
  8
1
 62
     2
100
AcDbCircle
 10
166.330870187487
 20
176.5640192626669
 30
0.0
 40
0.78125
100
AcDbArc
 50
216.8698976458439
 51
323.130102354156
  0
ARC
  5
CF
330
1E
100
AcDbEntity
  8
1
 62
     2
100
AcDbCircle
 10
205.8808701874867
 20
176.5640192626669
 30
0.0
 40
0.78125
100
AcDbArc
 50
216.8698976458439
 51
323.130102354156
  0
ARC
  5
D0
330
1E
100
AcDbEntity
  8
1
 62
     2
100
AcDbCircle
 10
205.8808701874867
 20
175.6265192626669
 30
0.0
 40
0.78125
100
AcDbArc
 50
36.86989764584402
 51
143.130102354156
  0
ARC
  5
D1
330
1E
100
AcDbEntity
  8
1
 62
     2
100
AcDbCircle
 10
204.6308701874868
 20
176.5640192626669
 30
0.0
 40
0.78125
100
AcDbArc
 50
216.8698976458439
 51
323.130102354156
  0
ARC
  5
D2
330
1E
100
AcDbEntity
  8
1
 62
     7
100
AcDbCircle
 10
123.2435126062362
 20
192.3435550582801
 30
0.0
 40
1.799999999999864
100
AcDbArc
 50
313.9829631303629
 51
90.0
  0
ARC
  5
D3
330
1E
100
AcDbEntity
  8
1
 62
     7
100
AcDbCircle
 10
123.2435126062362
 20
203.3435550582802
 30
0.0
 40
1.800000000000096
100
AcDbArc
 50
270.0
 51
0.0
  0
ARC
  5
D4
330
1E
100
AcDbEntity
  8
1
 62
     7
100
AcDbCircle
 10
171.7058701874869
 20
203.3435550582802
 30
0.0
 40
1.799999999999982
100
AcDbArc
 50
180.0
 51
270.0
  0
ARC
  5
D5
330
1E
100
AcDbEntity
  8
1
 62
     7
100
AcDbCircle
 10
171.7058701874869
 20
192.3435550582801
 30
0.0
 40
1.800000000000011
100
AcDbArc
 50
90.0
 51
226.0170368696396
  0
ARC
  5
D6
330
1E
100
AcDbEntity
  8
1
 62
     2
100
AcDbCircle
 10
148.4246913968613
 20
88.9549242064389
 30
0.0
 40
1.187500000000067
100
AcDbArc
 50
216.8698976458402
 51
323.1301023541656
  0
ARC
  5
D7
330
1E
100
AcDbEntity
  8
1
 62
     2
100
AcDbCircle
 10
148.4246913968613
 20
87.52992420643881
 30
0.0
 40
1.187500000000312
100
AcDbArc
 50
36.8698976458399
 51
143.1301023541543
  0
ARC
  5
D8
330
1E
100
AcDbEntity
  8
1
 62
     2
100
AcDbCircle
 10
146.5246913968614
 20
88.9549242064389
 30
0.0
 40
1.1875
100
AcDbArc
 50
216.8698976458426
 51
323.1301023541531
  0
ARC
  5
D9
330
1E
100
AcDbEntity
  8
1
 62
     2
100
AcDbCircle
 10
149.8496913968614
 20
151.2736742064388
 30
0.0
 40
0.7812500000000683
100
AcDbArc
 50
36.86989764585068
 51
143.130102354156
  0
ARC
  5
DA
330
1E
100
AcDbEntity
  8
1
 62
     2
100
AcDbCircle
 10
148.5996913968614
 20
152.2111742064389
 30
0.0
 40
0.78125
100
AcDbArc
 50
216.8698976458439
 51
323.130102354156
  0
ARC
  5
DB
330
1E
100
AcDbEntity
  8
1
 62
     2
100
AcDbCircle
 10
148.5996913968614
 20
151.2736742064388
 30
0.0
 40
0.78125
100
AcDbArc
 50
36.86989764584402
 51
143.130102354156
  0
ARC
  5
DC
330
1E
100
AcDbEntity
  8
1
 62
     2
100
AcDbCircle
 10
146.3496913968614
 20
151.2736742064388
 30
0.0
 40
0.7812500000000683
100
AcDbArc
 50
36.86989764585068
 51
143.130102354156
  0
ARC
  5
DD
330
1E
100
AcDbEntity
  8
1
 62
     2
100
AcDbCircle
 10
145.0996913968614
 20
152.2111742064389
 30
0.0
 40
0.78125
100
AcDbArc
 50
216.8698976458439
 51
323.130102354156
  0
ARC
  5
DE
330
1E
100
AcDbEntity
  8
1
 62
     2
100
AcDbCircle
 10
145.0996913968614
 20
151.2736742064388
 30
0.0
 40
0.78125
100
AcDbArc
 50
36.86989764584402
 51
143.130102354156
  0
ARC
  5
DF
330
1E
100
AcDbEntity
  8
1
 62
     2
100
AcDbCircle
 10
105.008631645493
 20
87.45492420643889
 30
0.0
 40
1.187499999999988
100
AcDbArc
 50
216.8698976458431
 51
323.1301023541569
  0
ARC
  5
E0
330
1E
100
AcDbEntity
  8
1
 62
     2
100
AcDbCircle
 10
105.008631645493
 20
86.02992420643881
 30
0.0
 40
1.187500000000073
100
AcDbArc
 50
36.86989764584854
 51
143.1301023541514
  0
ARC
  5
E1
330
1E
100
AcDbEntity
  8
1
 62
     2
100
AcDbCircle
 10
103.1086316454928
 20
87.45492420643889
 30
0.0
 40
1.187499999999909
100
AcDbArc
 50
216.8698976458459
 51
323.1301023541623
  0
ARC
  5
E2
330
1E
100
AcDbEntity
  8
1
 62
     2
100
AcDbCircle
 10
104.6836316454932
 20
151.2736742064388
 30
0.0
 40
0.78125
100
AcDbArc
 50
36.86989764584402
 51
143.130102354156
  0
ARC
  5
E3
330
1E
100
AcDbEntity
  8
1
 62
     2
100
AcDbCircle
 10
103.4336316454932
 20
152.2111742064389
 30
0.0
 40
0.78125
100
AcDbArc
 50
216.8698976458439
 51
323.130102354156
  0
ARC
  5
E4
330
1E
100
AcDbEntity
  8
1
 62
     2
100
AcDbCircle
 10
103.4336316454932
 20
151.2736742064388
 30
0.0
 40
0.78125
100
AcDbArc
 50
36.86989764584402
 51
143.130102354156
  0
CIRCLE
  5
E5
330
1E
100
AcDbEntity
  8
1
 62
     7
100
AcDbCircle
 10
147.4746913968616
 20
60.65200947570929
 30
0.0
 40
1.90000000000009
  0
CIRCLE
  5
E6
330
1E
100
AcDbEntity
  8
1
 62
     7
100
AcDbCircle
 10
147.4746913968614
 20
126.5424242064204
 30
0.0
 40
2.30000000000001
  0
CIRCLE
  5
E7
330
1E
100
AcDbEntity
  8
1
 62
     7
100
AcDbCircle
 10
147.4746913968614
 20
122.5424242064204
 30
0.0
 40
1.0
  0
CIRCLE
  5
E8
330
1E
100
AcDbEntity
  8
1
 62
     7
100
AcDbCircle
 10
123.2435126062362
 20
203.3435550582802
 30
0.0
 40
1.099999999995918
  0
CIRCLE
  5
E9
330
1E
100
AcDbEntity
  8
1
 62
     7
100
AcDbCircle
 10
123.2435126062362
 20
192.3435550582801
 30
0.0
 40
1.100000000001728
  0
CIRCLE
  5
EA
330
1E
100
AcDbEntity
  8
1
 62
     7
100
AcDbCircle
 10
171.7058701874869
 20
192.3435550582801
 30
0.0
 40
1.100000000001495
  0
CIRCLE
  5
EB
330
1E
100
AcDbEntity
  8
1
 62
     7
100
AcDbCircle
 10
171.7058701874869
 20
203.3435550582802
 30
0.0
 40
1.099999999995985
  0
LINE
  5
EC
330
1E
100
AcDbEntity
  8
1
  6
DASHED
 62
     2
100
AcDbLine
 10
166.205870187487
 20
220.0935550582802
 30
0.0
 11
166.205870187487
 21
225.0935550582803
 31
0.0
  0
SOLID
  5
ED
330
1E
100
AcDbEntity
  8
1
  6
DASHED
 62
     2
100
AcDbTrace
 10
166.6008276802491
 20
222.0935550582802
 30
0.0
 11
165.8109126947248
 21
222.0935550582802
 31
0.0
 12
166.205870187487
 22
225.0935550582803
 32
0.0
 13
166.205870187487
 23
225.0935550582803
 33
0.0
  0
LINE
  5
EE
330
1E
100
AcDbEntity
  8
1
  6
DASHED
 62
     2
100
AcDbLine
 10
198.455870187487
 20
199.3435550582801
 30
0.0
 11
203.4558701874869
 21
199.3435550582801
 31
0.0
  0
SOLID
  5
EF
330
1E
100
AcDbEntity
  8
1
  6
DASHED
 62
     2
100
AcDbTrace
 10
200.455870187487
 20
198.9485975655179
 30
0.0
 11
200.455870187487
 21
199.7385125510423
 31
0.0
 12
203.4558701874869
 22
199.3435550582801
 32
0.0
 13
203.4558701874869
 23
199.3435550582801
 33
0.0
  0
LINE
  5
F0
330
1E
100
AcDbEntity
  8
1
  6
DASHED
 62
     2
100
AcDbLine
 10
128.7435126062364
 20
225.0935550582803
 30
0.0
 11
128.7435126062364
 21
220.0935550582802
 31
0.0
  0
SOLID
  5
F1
330
1E
100
AcDbEntity
  8
1
  6
DASHED
 62
     2
100
AcDbTrace
 10
128.3485551134741
 20
223.0935550582803
 30
0.0
 11
129.1384700989985
 21
223.0935550582803
 31
0.0
 12
128.7435126062364
 22
220.0935550582802
 32
0.0
 13
128.7435126062364
 23
220.0935550582802
 33
0.0
  0
LINE
  5
F2
330
1E
100
AcDbEntity
  8
1
  6
DASHED
 62
     2
100
AcDbLine
 10
91.49351260623619
 20
199.3435550582801
 30
0.0
 11
96.49351260623619
 21
199.3435550582801
 31
0.0
  0
SOLID
  5
F3
330
1E
100
AcDbEntity
  8
1
  6
DASHED
 62
     2
100
AcDbTrace
 10
93.49351260623619
 20
198.9485975655179
 30
0.0
 11
93.49351260623619
 21
199.7385125510423
 31
0.0
 12
96.49351260623619
 22
199.3435550582801
 32
0.0
 13
96.49351260623619
 23
199.3435550582801
 33
0.0
  0
TEXT
  5
F4
330
1E
100
AcDbEntity
  8
1
 62
     2
100
AcDbText
 10
170.793380045046
 20
27.62108212773057
 30
0.0
 40
3.5
  1
EX-15/17/17W
 41
0.9
 72
     1
 11
188.1183800450459
 21
29.37108212773057
 31
0.0
100
AcDbText
 73
     2
  0
TEXT
  5
F5
330
1E
100
AcDbEntity
  8
1
 62
     2
100
AcDbText
 10
171.43002448033
 20
37.62108212773056
 30
0.0
 40
3.5
  1
Beam Sensor
 41
0.9
 72
     1
 11
188.23002448033
 21
39.37108212773056
 31
0.0
100
AcDbText
 73
     2
  0
TEXT
  5
F6
330
1E
100
AcDbEntity
  8
1
 62
     2
100
AcDbText
 10
102.5700065745645
 20
114.606085027476
 30
0.0
 40
0.3
  1
EX-15/17/17W
 41
0.9
 72
     1
 11
104.0550065745645
 21
114.756085027476
 31
0.0
100
AcDbText
 73
     2
  0
TEXT
  5
F7
330
1E
100
AcDbEntity
  8
1
 62
     2
100
AcDbText
 10
145.9896913968614
 20
114.606085027476
 30
0.0
 40
0.3
  1
EX-15/17/17W
 41
0.9
 72
     1
 11
147.4746913968614
 21
114.756085027476
 31
0.0
100
AcDbText
 73
     2
  0
TEXT
  5
F8
330
1E
100
AcDbEntity
  8
1
 62
     2
100
AcDbText
 10
145.9896913968614
 20
58.09169538454191
 30
0.0
 40
0.3
  1
EX-15/17/17W
 41
0.9
 72
     1
 11
147.4746913968614
 21
58.2416953845419
 31
0.0
100
AcDbText
 73
     2
  0
TEXT
  5
F9
330
1E
100
AcDbEntity
  8
1
 62
     2
100
AcDbText
 10
123.786963932886
 20
197.865387932577
 30
0.0
 40
0.3
  1
EX-15/17/17W
 41
0.9
 72
     1
 11
125.271963932886
 21
198.015387932577
 31
0.0
100
AcDbText
 73
     2
  0
TEXT
  5
FA
330
1E
100
AcDbEntity
  8
1
 62
     2
100
AcDbText
 10
88.35965442355625
 20
197.865387932577
 30
0.0
 40
0.3
  1
EX-15/17/17W
 41
0.9
 72
     1
 11
89.84465442355626
 21
198.015387932577
 31
0.0
100
AcDbText
 73
     2
  0
TEXT
  5
FB
330
1E
100
AcDbEntity
  8
1
 62
     2
100
AcDbText
 10
125.721542409757
 20
226.7347570228589
 30
0.0
 40
0.3
  1
EX-15/17/17W
 41
0.9
 72
     1
 11
127.206542409757
 21
226.8847570228589
 31
0.0
100
AcDbText
 73
     2
  0
TEXT
  5
FC
330
1E
100
AcDbEntity
  8
1
 62
     2
100
AcDbText
 10
168.3662579771159
 20
197.336633034128
 30
0.0
 40
0.3
  1
EX-15/17/17W
 41
0.9
 72
     1
 11
169.8512579771159
 21
197.486633034128
 31
0.0
100
AcDbText
 73
     2
  0
TEXT
  5
FD
330
1E
100
AcDbEntity
  8
1
 62
     2
100
AcDbText
 10
203.853165353242
 20
196.8939689088539
 30
0.0
 40
0.3
  1
EX-15/17/17W
 41
0.9
 72
     1
 11
205.338165353242
 21
197.043968908854
 31
0.0
100
AcDbText
 73
     2
  0
TEXT
  5
FE
330
1E
100
AcDbEntity
  8
1
 62
     2
100
AcDbText
 10
165.931605288109
 20
226.4786879479949
 30
0.0
 40
0.3
  1
EX-15/17/17W
 41
0.9
 72
     1
 11
167.416605288109
 21
226.6286879479949
 31
0.0
100
AcDbText
 73
     2
  0
TEXT
  5
FF
330
1E
100
AcDbEntity
  8
1
 62
     2
100
AcDbText
 10
189.6777489914225
 20
16.88337074916151
 30
0.0
 40
4.0
  1
SUNX Ltd.
 41
0.9
 11
189.6777489914225
 21
18.88337074916151
 31
0.0
100
AcDbText
 73
     2
  0
TEXT
  5
100
330
1E
100
AcDbEntity
  8
1
 62
     2
100
AcDbText
 10
147.3879705222341
 20
20.32869807561117
 30
0.0
 40
2.0
  1
Scale;
 41
0.9
 11
147.3879705222341
 21
21.32869807561117
 31
0.0
100
AcDbText
 73
     2
  0
TEXT
  5
101
330
1E
100
AcDbEntity
  8
1
 62
     2
100
AcDbText
 10
147.8194988739605
 20
40.61053060675255
 30
0.0
 40
2.0
  1
Type;
 41
0.9
 11
147.8194988739605
 21
41.61053060675254
 31
0.0
100
AcDbText
 73
     2
  0
TEXT
  5
102
330
1E
100
AcDbEntity
  8
1
 62
     2
100
AcDbText
 10
147.2441277383253
 20
30.68537851704506
 30
0.0
 40
2.0
  1
Model name;
 41
0.9
 11
147.2441277383253
 21
31.68537851704507
 31
0.0
100
AcDbText
 73
     2
  0
TEXT
  5
103
330
1E
100
AcDbEntity
  8
1
 62
     2
100
AcDbText
 10
163.7860478878378
 20
17.42105631697912
 30
0.0
 40
3.5
  1
1.0
 41
0.9
 11
163.7860478878378
 21
19.17105631697912
 31
0.0
100
AcDbText
 73
     2
  0
ENDSEC
  0
SECTION
  2
OBJECTS
  0
DICTIONARY
  5
C
330
0
100
AcDbDictionary
  3
ACAD_GROUP
350
D
  3
ACAD_MLINESTYLE
350
16
  3
ACAD_PLOTSETTINGS
350
18
  3
ACAD_LAYOUT
350
19
  3
AMG
350
106
  3
ACMDICTIONARY
350
12C
  3
DWGPROPS
350
12F
  3
AMGSNAPSETTINGS
350
131
1001
ACAD
1000
TREAT_AS_HARD
1070
     0
  0
DICTIONARY
  5
138
330
1E
100
AcDbDictionary
  3
ACAD_INDEX
350
139
  3
ACAD_LAYOUTSELFREF
350
140
1001
ACAD
1000
TREAT_AS_HARD
1070
     1
  0
DICTIONARY
  5
13E
330
1A
100
AcDbDictionary
  3
ACAD_LAYOUTSELFREF
350
13F
  0
DICTIONARY
  5
D
102
{ACAD_REACTORS
330
C
102
}
330
C
100
AcDbDictionary
1001
ACAD
1000
TREAT_AS_HARD
1070
     0
  0
DICTIONARY
  5
16
102
{ACAD_REACTORS
330
C
102
}
330
C
100
AcDbDictionary
  3
STANDARD
350
17
1001
ACAD
1000
TREAT_AS_HARD
1070
     0
  0
DICTIONARY
  5
18
102
{ACAD_REACTORS
330
C
102
}
330
C
100
AcDbDictionary
1001
ACAD
1000
TREAT_AS_HARD
1070
     0
  0
DICTIONARY
  5
19
102
{ACAD_REACTORS
330
C
102
}
330
C
100
AcDbDictionary
1001
ACAD
1000
TREAT_AS_HARD
1070
     0
  0
DICTIONARY
  5
106
102
{ACAD_REACTORS
330
C
102
}
330
C
100
AcDbDictionary
  3
ACMGSETTINGS
350
107
1001
ACAD
1000
TREAT_AS_HARD
1070
     0
  0
DICTIONARY
  5
12C
102
{ACAD_REACTORS
330
C
102
}
330
C
100
AcDbDictionary
1001
ACAD
1000
TREAT_AS_HARD
1070
     0
  0
XRECORD
  5
12F
102
{ACAD_REACTORS
330
C
102
}
330
C
100
AcDbXrecord
  1
DWGPROPS COOKIE
  2

  3

  4

  6

  7

  8

  9

300
AmdtFileType=82
301
=
302
=
303
=
304
=
305
=
306
=
307
=
308
=
309
=
 40
0.0000027777777778
 41
2452600.457989398
 42
2311994.355721794
  1

 90
        1
  0
DICTIONARY
  5
131
102
{ACAD_REACTORS
330
C
102
}
330
C
100
AcDbDictionary
1001
ACAD
1000
TREAT_AS_HARD
1070
     0
  0
DICTIONARY
  5
139
102
{ACAD_REACTORS
330
138
102
}
330
138
100
AcDbDictionary
  3
*A1
350
13A
1001
ACAD
1000
TREAT_AS_HARD
1070
     0
  0
XRECORD
  5
140
102
{ACAD_REACTORS
330
138
102
}
330
138
100
AcDbXrecord
340
1E
  0
XRECORD
  5
13F
102
{ACAD_REACTORS
330
13E
102
}
330
13E
100
AcDbXrecord
340
1A
  0
MLINESTYLE
  5
17
102
{ACAD_REACTORS
330
16
102
}
330
16
100
AcDbMlineStyle
  2
STANDARD
 70
     0
  3

 62
   256
 51
90.0
 52
90.0
 71
     2
 49
0.5
 62
   256
  6
BYLAYER
 49
-0.5
 62
   256
  6
BYLAYER
  0
DICTIONARY
  5
107
102
{ACAD_REACTORS
330
106
102
}
330
106
100
AcDbDictionary
  3
DWGSETTINGS
350
108
1001
ACAD
1000
TREAT_AS_HARD
1070
     0
  0
LAYER_INDEX
  5
13A
102
{ACAD_REACTORS
330
139
102
}
330
139
100
AcDbIndex
 40
2452600.465446296
100
AcDbLayerIndex
  8
0
360
13B
 90
        0
  8
1
360
13C
 90
      209
  0
XRECORD
  5
108
102
{ACAD_REACTORS
330
107
102
}
330
107
100
AcDbXrecord
  1
VERSION
140
15.0
  1
PRODUCT
  2
AutoCAD Mechanical 2000
  0
IDBUFFER
  5
13B
330
0
100
AcDbIdBuffer
  0
IDBUFFER
  5
13C
330
0
100
AcDbIdBuffer
330
A3
330
A4
330
A5
330
A6
330
A7
330
A8
330
A9
330
AA
330
AB
330
AC
330
AD
330
AE
330
AF
330
B0
330
B1
330
B2
330
B3
330
B4
330
B5
330
B6
330
B7
330
B8
330
B9
330
BA
330
BB
330
BC
330
BD
330
BE
330
BF
330
C0
330
C1
330
C2
330
C3
330
C4
330
C5
330
C6
330
C7
330
C8
330
C9
330
CA
330
CB
330
CC
330
CD
330
CE
330
CF
330
D0
330
D1
330
D2
330
D3
330
D4
330
D5
330
D6
330
D7
330
D8
330
D9
330
DA
330
DB
330
DC
330
DD
330
DE
330
DF
330
E0
330
E1
330
E2
330
E3
330
E4
330
E5
330
E6
330
E7
330
E8
330
E9
330
EA
330
EB
330
EC
330
ED
330
EE
330
EF
330
F0
330
F1
330
F2
330
F3
330
F4
330
F5
330
F6
330
F7
330
F8
330
F9
330
FA
330
FB
330
FC
330
FD
330
FE
330
FF
330
100
330
101
330
102
330
103
330
33
330
34
330
35
330
36
330
37
330
38
330
39
330
3A
330
3B
330
3C
330
3D
330
3E
330
3F
330
40
330
41
330
42
330
43
330
44
330
45
330
46
330
47
330
48
330
49
330
4A
330
4B
330
4C
330
4D
330
4E
330
4F
330
50
330
51
330
52
330
53
330
54
330
55
330
56
330
57
330
58
330
59
330
5A
330
5B
330
5C
330
5D
330
5E
330
5F
330
60
330
61
330
62
330
63
330
64
330
65
330
66
330
67
330
68
330
69
330
6A
330
6B
330
6C
330
6D
330
6E
330
6F
330
70
330
71
330
72
330
73
330
74
330
75
330
76
330
77
330
78
330
79
330
7A
330
7B
330
7C
330
7D
330
7E
330
7F
330
80
330
81
330
82
330
83
330
84
330
85
330
86
330
87
330
88
330
89
330
8A
330
8B
330
8C
330
8D
330
8E
330
8F
330
90
330
91
330
92
330
93
330
94
330
95
330
96
330
97
330
98
330
99
330
9A
330
9B
330
9C
330
9D
330
9E
330
9F
330
A0
330
A1
330
A2
  0
ENDSEC
  0
EOF
