  0
SECTION
  2
HEADER
  9
$ACADVER
  1
AC1009
  9
$INSBASE
 10
0.0
 20
0.0
 30
0.0
  9
$EXTMIN
 10
84.542339828552031
 20
128.78170023349259
 30
0.0
  9
$EXTMAX
 10
142.37114040062329
 20
198.15981854210611
 30
0.0
  9
$LIMMIN
 10
0.0
 20
0.0
  9
$LIMMAX
 10
210.0
 20
297.0
  9
$ORTHOMODE
 70
     0
  9
$REGENMODE
 70
     1
  9
$FILLMODE
 70
     1
  9
$QTEXTMODE
 70
     0
  9
$MIRRTEXT
 70
     1
  9
$DRAGMODE
 70
     2
  9
$LTSCALE
 40
1.0
  9
$OSMODE
 70
    39
  9
$ATTMODE
 70
     1
  9
$TEXTSIZE
 40
2.5
  9
$TRACEWID
 40
1.0
  9
$TEXTSTYLE
  7
STANDARD
  9
$CLAYER
  8
0
  9
$CELTYPE
  6
BYLAYER
  9
$CECOLOR
 62
   256
  9
$DIMSCALE
 40
1.0
  9
$DIMASZ
 40
6.0
  9
$DIMEXO
 40
1.0
  9
$DIMDLI
 40
3.75
  9
$DIMRND
 40
0.0
  9
$DIMDLE
 40
0.0
  9
$DIMEXE
 40
1.0
  9
$DIMTP
 40
0.0
  9
$DIMTM
 40
0.0
  9
$DIMTXT
 40
3.5
  9
$DIMCEN
 40
2.5
  9
$DIMTSZ
 40
0.0
  9
$DIMTOL
 70
     0
  9
$DIMLIM
 70
     0
  9
$DIMTIH
 70
     1
  9
$DIMTOH
 70
     1
  9
$DIMSE1
 70
     0
  9
$DIMSE2
 70
     0
  9
$DIMTAD
 70
     1
  9
$DIMZIN
 70
     0
  9
$DIMBLK
  1

  9
$DIMASO
 70
     1
  9
$DIMSHO
 70
     1
  9
$DIMPOST
  1

  9
$DIMAPOST
  1

  9
$DIMALT
 70
     0
  9
$DIMALTD
 70
     3
  9
$DIMALTF
 40
0.0393700787401575
  9
$DIMLFAC
 40
1.0
  9
$DIMTOFL
 70
     1
  9
$DIMTVP
 40
0.0
  9
$DIMTIX
 70
     0
  9
$DIMSOXD
 70
     0
  9
$DIMSAH
 70
     0
  9
$DIMBLK1
  1

  9
$DIMBLK2
  1

  9
$DIMSTYLE
  2
ISO-25
  9
$DIMCLRD
 70
     0
  9
$DIMCLRE
 70
     0
  9
$DIMCLRT
 70
     0
  9
$DIMTFAC
 40
1.0
  9
$DIMGAP
 40
1.524
  9
$LUNITS
 70
     2
  9
$LUPREC
 70
     2
  9
$SKETCHINC
 40
1.0
  9
$FILLETRAD
 40
10.0
  9
$AUNITS
 70
     0
  9
$AUPREC
 70
     2
  9
$MENU
  1
.
  9
$ELEVATION
 40
0.0
  9
$PELEVATION
 40
0.0
  9
$THICKNESS
 40
0.0
  9
$LIMCHECK
 70
     0
  9
$BLIPMODE
 70
     0
  9
$CHAMFERA
 40
10.0
  9
$CHAMFERB
 40
10.0
  9
$SKPOLY
 70
     0
  9
$TDCREATE
 40
2457238.6058337851
  9
$TDUPDATE
 40
2457242.6889763768
  9
$TDINDWG
 40
0.050881794
  9
$TDUSRTIMER
 40
0.050881794
  9
$USRTIMER
 70
     1
  9
$ANGBASE
 50
0.0
  9
$ANGDIR
 70
     0
  9
$PDMODE
 70
     0
  9
$PDSIZE
 40
-1.0
  9
$PLINEWID
 40
0.0
  9
$COORDS
 70
     2
  9
$SPLFRAME
 70
     0
  9
$SPLINETYPE
 70
     6
  9
$SPLINESEGS
 70
     8
  9
$ATTDIA
 70
     1
  9
$ATTREQ
 70
     1
  9
$HANDLING
 70
     1
  9
$HANDSEED
  5
3C7
  9
$SURFTAB1
 70
     6
  9
$SURFTAB2
 70
     6
  9
$SURFTYPE
 70
     6
  9
$SURFU
 70
     6
  9
$SURFV
 70
     6
  9
$UCSNAME
  2

  9
$UCSORG
 10
0.0
 20
0.0
 30
0.0
  9
$UCSXDIR
 10
1.0
 20
0.0
 30
0.0
  9
$UCSYDIR
 10
0.0
 20
1.0
 30
0.0
  9
$PUCSNAME
  2

  9
$PUCSORG
 10
0.0
 20
0.0
 30
0.0
  9
$PUCSXDIR
 10
1.0
 20
0.0
 30
0.0
  9
$PUCSYDIR
 10
0.0
 20
1.0
 30
0.0
  9
$USERI1
 70
     0
  9
$USERI2
 70
     0
  9
$USERI3
 70
     0
  9
$USERI4
 70
     0
  9
$USERI5
 70
     0
  9
$USERR1
 40
0.0
  9
$USERR2
 40
0.0
  9
$USERR3
 40
0.0
  9
$USERR4
 40
0.0
  9
$USERR5
 40
0.0
  9
$WORLDVIEW
 70
     1
  9
$SHADEDGE
 70
     3
  9
$SHADEDIF
 70
    70
  9
$TILEMODE
 70
     1
  9
$MAXACTVP
 70
    64
  9
$PLIMCHECK
 70
     0
  9
$PEXTMIN
 10
1.0000000000000000E+020
 20
1.0000000000000000E+020
 30
1.0000000000000000E+020
  9
$PEXTMAX
 10
-1.0000000000000000E+020
 20
-1.0000000000000000E+020
 30
-1.0000000000000000E+020
  9
$PLIMMIN
 10
0.0
 20
0.0
  9
$PLIMMAX
 10
420.0
 20
297.0
  9
$UNITMODE
 70
     0
  9
$VISRETAIN
 70
     1
  9
$PLINEGEN
 70
     0
  9
$PSLTSCALE
 70
     1
  0
ENDSEC
  0
SECTION
  2
TABLES
  0
TABLE
  2
VPORT
 70
     1
  0
VPORT
  2
*ACTIVE
 70
     0
 10
0.0
 20
0.0
 11
1.0
 21
1.0
 12
131.90229680771969
 22
169.0177260450092
 13
0.0
 23
0.0
 14
10.0
 24
10.0
 15
10.0
 25
10.0
 16
0.0
 26
0.0
 36
1.0
 17
0.0
 27
0.0
 37
0.0
 40
145.93750688468461
 41
0.8926673751328372
 42
50.0
 43
0.0
 44
0.0
 50
0.0
 51
0.0
 71
     0
 72
  2000
 73
     1
 74
     3
 75
     0
 76
     0
 77
     0
 78
     0
  0
ENDTAB
  0
TABLE
  2
LTYPE
 70
    17
  0
LTYPE
  2
CONTINUOUS
 70
     0
  3
Solid line
 72
    65
 73
     0
 40
0.0
  0
LTYPE
  2
HIDDEN
 70
     0
  3
Hidden __ __ __ __ __ __ __ __ __ __ __ __ __ __
 72
    65
 73
     2
 40
1.905
 49
1.27
 49
-0.635
  0
LTYPE
  2
PHANTOM
 70
     0
  3
Phantom ______  __  __  ______  __  __  ______
 72
    65
 73
     6
 40
12.699999999999999
 49
6.3499999999999988
 49
-1.27
 49
1.27
 49
-1.27
 49
1.27
 49
-1.27
  0
LTYPE
  2
CENTER
 70
     0
  3
Center ____ _ ____ _ ____ _ ____ _ ____ _ ____
 72
    65
 73
     4
 40
10.16
 49
6.3499999999999988
 49
-1.27
 49
1.27
 49
-1.27
  0
LTYPE
  2
CENTERX2
 70
     0
  3
Center (2x) ________  __  ________  __  _____
 72
    65
 73
     4
 40
20.32
 49
12.699999999999999
 49
-2.54
 49
2.54
 49
-2.54
  0
LTYPE
  2
DOT2
 70
     0
  3
Dot (.5x) ........................................
 72
    65
 73
     2
 40
0.635
 49
0.0
 49
-0.635
  0
LTYPE
  2
PHANTOM2
 70
     0
  3
Phantom (.5x) ___ _ _ ___ _ _ ___ _ _ ___ _ _
 72
    65
 73
     6
 40
31.75
 49
15.875
 49
-3.1749999999999989
 49
3.1749999999999989
 49
-3.1749999999999989
 49
3.1749999999999989
 49
-3.1749999999999989
  0
LTYPE
  2
AM_ISO02W050
 70
     0
  3
__ __ __ __ __ __ __ __ __ __ __ __ __ __ __
 72
    65
 73
     2
 40
7.5
 49
6.0
 49
-1.5
  0
LTYPE
  2
AM_ISO08W050
 70
     0
  3
____ . ____ . ____ . ____ . ____ . ____ . ____
 72
    65
 73
     4
 40
18.0
 49
12.0
 49
-1.5
 49
3.0
 49
-1.5
  0
LTYPE
  2
AM_ISO09W050
 70
     0
  3
_____ . . _____ . . _____ . . ____ .. ____
 72
    65
 73
     6
 40
22.5
 49
12.0
 49
-1.5
 49
3.0
 49
-1.5
 49
3.0
 49
-1.5
  0
LTYPE
  2
AMCONSTR
 70
     0
  3
_______________________
 72
    65
 73
     2
 40
9999.0
 49
9999.0
 49
0.0
  0
LTYPE
  2
AM_ISO08W050X2
 70
     0
  3
__ . __ . __ . __ . __ . __
 72
    65
 73
     4
 40
9.0
 49
6.0
 49
-0.75
 49
1.5
 49
-0.75
  0
LTYPE
  2
AM_ISO02W050X2
 70
     0
  3
 _ _ _ _ _ _ _ _ _ _ _ _
 72
    65
 73
     2
 40
3.75
 49
3.0
 49
-0.75
  0
LTYPE
  2
AMZIGZAG
 70
     0
  3
/\/-/\/-/\/-/\/-/\/-/\/
 72
    65
 73
     2
 40
11.0001
 49
0.0001
 49
-11.0
  0
LTYPE
  2
ACISOWELD
 70
     0
  3
_ _ _ _ _
 72
    65
 73
     2
 40
2.0
 49
2.0
 49
-1.0
  0
LTYPE
  2
ACISOTGL
 70
     0
  3
_ _ _ _ _
 72
    65
 73
     2
 40
3.0
 49
2.0
 49
-1.0
  0
LTYPE
  2
ACISOTGB
 70
     0
  3
__ . . __ . .
 72
    65
 73
     6
 40
9.0
 49
4.0
 49
-1.0
 49
1.0
 49
-1.0
 49
1.0
 49
-1.0
  0
ENDTAB
  0
TABLE
  2
LAYER
 70
     2
  0
LAYER
  2
0
 70
     0
 62
     7
  6
CONTINUOUS
  0
LAYER
  2
AM_CL
 70
     0
 62
     1
  6
AMCONSTR
  0
ENDTAB
  0
TABLE
  2
STYLE
 70
     4
  0
STYLE
  2
STANDARD
 70
     0
 40
0.0
 41
1.0
 50
0.0
 71
     0
 42
2.5
  3
txt
  4
bigfont
  0
STYLE
  2

 70
     1
 40
0.0
 41
1.0
 50
0.0
 71
     0
 42
3.5
  3
genltshp.shx
  4

  0
STYLE
  2
ACISOTS
 70
     0
 40
1.0
 41
1.0
 50
0.0
 71
     0
 42
3.5
  3
isocp.shx
  4
extfont.shx
  0
STYLE
  2
ACISOGDT
 70
     0
 40
0.0
 41
1.0
 50
0.0
 71
     0
 42
3.5
  3
amgdt.shx
  4

  0
ENDTAB
  0
TABLE
  2
VIEW
 70
     0
  0
ENDTAB
  0
TABLE
  2
UCS
 70
     0
  0
ENDTAB
  0
TABLE
  2
APPID
 70
    17
  0
APPID
  2
ACAD
 70
     0
  0
APPID
  2
MCAD_NO_VIS
 70
     0
  0
APPID
  2
ACAD_TEMP_GRAPHIC
 70
     0
  0
APPID
  2
ACATTRIBSERVICES
 70
     0
  0
APPID
  2
DESIGNERASSEMBLIES
 70
     0
  0
APPID
  2
ACAD_DSTYLE_DIMJAG
 70
     0
  0
APPID
  2
ACAD_DSTYLE_DIMBREAK
 70
     0
  0
APPID
  2
ACAD_NAV_VCDISPLAY
 70
     0
  0
APPID
  2
ACAD_PSEXT
 70
     0
  0
APPID
  2
ACAECLAYERSTANDARD
 70
     0
  0
APPID
  2
ACAD_EXEMPT_FROM_CAD_STANDARDS
 70
     0
  0
APPID
  2
ACAD_MLEADERVER
 70
     0
  0
APPID
  2
ACAD_DSTYLE_DIMARC_LENGTH_
 70
     0
  0
APPID
  2
ACAD_DSTYLE_DIM_LINETYPE
 70
     0
  0
APPID
  2
ACAD_DSTYLE_DIM_EXT1_LINETYPE
 70
     0
  0
APPID
  2
ACAD_DSTYLE_DIM_EXT2_LINETYPE
 70
     0
  0
APPID
  2
ACDBDYNAMICBLOCKTRUENAME2
 70
     0
  0
ENDTAB
  0
TABLE
  2
DIMSTYLE
 70
     8
  0
DIMSTYLE
  2
ISO-25
 70
     0
  3

  4

  5

  6

  7

 40
1.0
 41
2.5
 42
0.625
 43
3.75
 44
1.25
 45
0.0
 46
0.0
 47
0.0
 48
0.0
140
2.5
141
2.5
142
0.0
143
0.03937007874016
144
1.0
145
0.0
146
1.0
147
0.625
 71
     0
 72
     0
 73
     0
 74
     0
 75
     0
 76
     0
 77
     1
 78
     8
170
     0
171
     3
172
     1
173
     0
174
     0
175
     0
176
     0
177
     0
178
     0
  0
DIMSTYLE
  2
AM_ISO
 70
     0
  3

  4
"
  5

  6

  7

 40
1.0
 41
3.5
 42
1.0
 43
10.0
 44
1.0
 45
0.0
 46
0.0
 47
0.1
 48
0.1
140
3.5
141
0.0
142
0.0
143
0.0393701
144
1.0
145
0.0
146
0.71
147
1.5
 71
     0
 72
     0
 73
     0
 74
     0
 75
     0
 76
     0
 77
     1
 78
     8
170
     0
171
     2
172
     1
173
     0
174
     0
175
     0
176
   256
177
   256
178
     2
  0
DIMSTYLE
  2
AM_ISO$3
 70
     0
  3

  4
"
  5

  6

  7

 40
1.0
 41
3.5
 42
1.0
 43
10.0
 44
1.0
 45
0.0
 46
0.0
 47
0.1
 48
0.1
140
3.5
141
0.0
142
0.0
143
0.0393701
144
1.0
145
0.0
146
0.71
147
1.5
 71
     0
 72
     0
 73
     0
 74
     1
 75
     0
 76
     0
 77
     1
 78
     8
170
     0
171
     2
172
     0
173
     0
174
     0
175
     0
176
   256
177
   256
178
     2
  0
DIMSTYLE
  2
AM_ISO$4
 70
     0
  3

  4
"
  5

  6

  7

 40
1.0
 41
3.5
 42
1.0
 43
10.0
 44
1.0
 45
0.0
 46
0.0
 47
0.1
 48
0.1
140
3.5
141
0.0
142
0.0
143
0.0393701
144
1.0
145
0.0
146
0.71
147
1.5
 71
     0
 72
     0
 73
     0
 74
     1
 75
     0
 76
     0
 77
     1
 78
     8
170
     0
171
     2
172
     0
173
     0
174
     0
175
     0
176
   256
177
   256
178
     2
  0
DIMSTYLE
  2
AM_ISO$6
 70
     0
  3

  4
"
  5

  6

  7

 40
1.0
 41
3.5
 42
1.0
 43
10.0
 44
1.0
 45
0.0
 46
0.0
 47
0.1
 48
0.1
140
3.5
141
0.0
142
0.0
143
0.0393701
144
1.0
145
0.0
146
0.71
147
1.5
 71
     0
 72
     0
 73
     0
 74
     0
 75
     0
 76
     0
 77
     0
 78
     8
170
     0
171
     2
172
     1
173
     0
174
     0
175
     0
176
   256
177
   256
178
     2
  0
DIMSTYLE
  2
AM_ISO$7
 70
     0
  3

  4
"
  5

  6

  7

 40
1.0
 41
3.5
 42
1.0
 43
10.0
 44
1.0
 45
0.0
 46
0.0
 47
0.1
 48
0.1
140
3.5
141
0.0
142
0.0
143
0.0393701
144
1.0
145
0.0
146
0.71
147
1.5
 71
     0
 72
     0
 73
     0
 74
     0
 75
     0
 76
     0
 77
     1
 78
     8
170
     0
171
     2
172
     1
173
     0
174
     0
175
     0
176
   256
177
   256
178
     2
  0
DIMSTYLE
  2
AM_ISO$SF
 70
     0
  3

  4
"
  5

  6

  7

 40
1.0
 41
3.5
 42
1.0
 43
10.0
 44
1.0
 45
0.0
 46
0.0
 47
0.1
 48
0.1
140
3.5
141
0.0
142
0.0
143
0.0393701
144
1.0
145
0.0
146
0.71
147
1.5
 71
     0
 72
     0
 73
     0
 74
     0
 75
     1
 76
     1
 77
     1
 78
     8
170
     0
171
     2
172
     1
173
     0
174
     0
175
     0
176
   256
177
   256
178
     2
  0
DIMSTYLE
  2
AM_ISO$SH
 70
     0
  3

  4
"
  5

  6
GENAXEH
  7

 40
1.0
 41
3.5
 42
1.0
 43
10.0
 44
1.0
 45
0.0
 46
0.0
 47
0.1
 48
0.1
140
3.5
141
0.0
142
0.0
143
0.0393701
144
2.0
145
0.0
146
0.71
147
1.5
 71
     0
 72
     0
 73
     0
 74
     0
 75
     1
 76
     1
 77
     1
 78
     8
170
     0
171
     2
172
     1
173
     1
174
     0
175
     0
176
   256
177
   256
178
     2
  0
ENDTAB
  0
ENDSEC
  0
SECTION
  2
BLOCKS
  0
BLOCK
  8
0
  2
$MODEL_SPACE
 70
     0
 10
0.0
 20
0.0
 30
0.0
  3
$MODEL_SPACE
  1

  0
ENDBLK
  5
21
  8
0
  0
BLOCK
 67
     1
  8
0
  2
$PAPER_SPACE
 70
     0
 10
0.0
 20
0.0
 30
0.0
  3
$PAPER_SPACE
  1

  0
ENDBLK
  5
1D
 67
     1
  8
0
  0
BLOCK
  8
0
  2
GENAXEH
 70
     0
 10
0.0
 20
0.0
 30
0.0
  3
GENAXEH
  1

  0
LINE
  5
176
  8
0
 10
-1.0
 20
0.0
 30
0.0
 11
1.0
 21
0.0
 31
0.0
  0
ENDBLK
  5
178
  8
0
  0
BLOCK
  8
0
  2
*U3
 70
     1
 10
0.0
 20
0.0
 30
0.0
  3
*U3
  1

  0
TEXT
  5
3C4
  8
0
 62
     2
 10
98.766550280554171
 20
129.94836690015919
 30
0.0
 40
3.5
  1
pm-y65
  0
ENDBLK
  5
3C6
  8
0
  0
ENDSEC
  0
SECTION
  2
ENTITIES
  0
LINE
  5
44
  8
0
  6
CONTINUOUS
 62
     7
 10
97.258512136796909
 20
144.4930437391489
 30
0.0
 11
97.258512136796909
 21
145.54304373914891
 31
0.0
  0
LINE
  5
45
  8
0
  6
CONTINUOUS
 62
     7
 10
98.058512136796935
 20
145.54304373914891
 30
0.0
 11
98.058512136796935
 21
148.9930437391489
 31
0.0
  0
LINE
  5
46
  8
0
  6
CONTINUOUS
 62
     7
 10
88.858512136796904
 20
145.54304373914891
 30
0.0
 11
88.858512136796904
 21
144.4930437391489
 31
0.0
  0
LINE
  5
47
  8
0
  6
CONTINUOUS
 62
     7
 10
98.958512136796926
 20
149.04304373914891
 30
0.0
 11
98.458512136796926
 21
149.54304373914891
 31
0.0
  0
LINE
  5
48
  8
0
  6
CONTINUOUS
 62
     7
 10
90.258512136796924
 20
148.9930437391489
 30
0.0
 11
88.058512136796907
 21
148.9930437391489
 31
0.0
  0
LINE
  5
49
  8
0
  6
CONTINUOUS
 62
     7
 10
87.658512136796915
 20
149.54304373914891
 30
0.0
 11
87.158512136796915
 21
149.04304373914891
 31
0.0
  0
LINE
  5
4A
  8
0
  6
CONTINUOUS
 62
     7
 10
97.258512136796909
 20
145.54304373914891
 30
0.0
 11
98.058512136796935
 21
145.54304373914891
 31
0.0
  0
LINE
  5
4B
  8
0
  6
CONTINUOUS
 62
     7
 10
90.258512136796924
 20
148.9930437391489
 30
0.0
 11
90.258512136796924
 21
149.54304373914891
 31
0.0
  0
LINE
  5
4C
  8
0
  6
CONTINUOUS
 62
     7
 10
95.858512136796918
 20
148.9930437391489
 30
0.0
 11
95.858512136796918
 21
149.54304373914891
 31
0.0
  0
LINE
  5
4D
  8
0
  6
CONTINUOUS
 62
     7
 10
88.058512136796907
 20
145.54304373914891
 30
0.0
 11
88.858512136796904
 21
145.54304373914891
 31
0.0
  0
LINE
  5
4E
  8
0
  6
CONTINUOUS
 62
     7
 10
86.358512136796904
 20
143.04304373914891
 30
0.0
 11
99.758512136796909
 21
143.04304373914891
 31
0.0
  0
LINE
  5
4F
  8
0
  6
CONTINUOUS
 62
     7
 10
90.058512136796921
 20
143.69304373914889
 30
0.0
 11
96.058512136796921
 21
143.69304373914889
 31
0.0
  0
LINE
  5
50
  8
0
  6
CONTINUOUS
 62
     7
 10
88.058512136796907
 20
148.9930437391489
 30
0.0
 11
88.058512136796907
 21
145.54304373914891
 31
0.0
  0
LINE
  5
51
  8
0
  6
CONTINUOUS
 62
     7
 10
87.658512136796915
 20
149.54304373914891
 30
0.0
 11
90.258512136796924
 21
149.54304373914891
 31
0.0
  0
LINE
  5
52
  8
0
  6
CONTINUOUS
 62
     7
 10
95.858512136796918
 20
149.54304373914891
 30
0.0
 11
98.458512136796926
 21
149.54304373914891
 31
0.0
  0
LINE
  5
53
  8
0
  6
CONTINUOUS
 62
     7
 10
96.058512136796921
 20
144.4930437391489
 30
0.0
 11
97.258512136796909
 21
144.4930437391489
 31
0.0
  0
LINE
  5
54
  8
0
  6
CONTINUOUS
 62
     7
 10
88.858512136796904
 20
144.4930437391489
 30
0.0
 11
90.058512136796921
 21
144.4930437391489
 31
0.0
  0
LINE
  5
55
  8
0
  6
CONTINUOUS
 62
     7
 10
96.058512136796921
 20
143.69304373914889
 30
0.0
 11
96.058512136796921
 21
144.4930437391489
 31
0.0
  0
LINE
  5
56
  8
0
  6
CONTINUOUS
 62
     7
 10
98.058512136796935
 20
148.9930437391489
 30
0.0
 11
95.858512136796918
 21
148.9930437391489
 31
0.0
  0
LINE
  5
57
  8
0
  6
CONTINUOUS
 62
     7
 10
90.058512136796921
 20
144.4930437391489
 30
0.0
 11
90.058512136796921
 21
143.69304373914889
 31
0.0
  0
LINE
  5
58
  8
0
  6
CONTINUOUS
 62
     7
 10
86.358512136796904
 20
149.04304373914891
 30
0.0
 11
86.358512136796904
 21
143.04304373914891
 31
0.0
  0
LINE
  5
59
  8
0
  6
CONTINUOUS
 62
     7
 10
99.758512136796909
 20
143.04304373914891
 30
0.0
 11
99.758512136796909
 21
149.04304373914891
 31
0.0
  0
LINE
  5
5A
  8
0
  6
CONTINUOUS
 62
     7
 10
87.158512136796915
 20
149.04304373914891
 30
0.0
 11
86.358512136796904
 21
149.04304373914891
 31
0.0
  0
LINE
  5
5B
  8
0
  6
CONTINUOUS
 62
     7
 10
99.758512136796909
 20
149.04304373914891
 30
0.0
 11
98.958512136796926
 21
149.04304373914891
 31
0.0
  0
LINE
  5
5C
  8
0
  6
CONTINUOUS
 62
     7
 10
96.058512136796921
 20
144.4930437391489
 30
0.0
 11
90.058512136796921
 21
144.4930437391489
 31
0.0
  0
LINE
  5
5D
  8
0
  6
CONTINUOUS
 62
     7
 10
95.858512136796918
 20
148.9930437391489
 30
0.0
 11
95.508512136796924
 21
148.9930437391489
 31
0.0
  0
LINE
  5
5E
  8
0
  6
CONTINUOUS
 62
     7
 10
88.858512136796904
 20
147.19304373914889
 30
0.0
 11
97.258512136796924
 21
147.19304373914889
 31
0.0
  0
LINE
  5
5F
  8
0
  6
CONTINUOUS
 62
     7
 10
90.608512136796918
 20
147.89304373914891
 30
0.0
 11
95.508512136796924
 21
147.89304373914891
 31
0.0
  0
LINE
  5
60
  8
0
  6
CONTINUOUS
 62
     7
 10
90.608512136796918
 20
147.89304373914891
 30
0.0
 11
90.608512136796918
 21
148.9930437391489
 31
0.0
  0
LINE
  5
61
  8
0
  6
CONTINUOUS
 62
     7
 10
95.508512136796924
 20
147.89304373914891
 30
0.0
 11
95.508512136796924
 21
148.9930437391489
 31
0.0
  0
LINE
  5
62
  8
0
  6
CONTINUOUS
 62
     7
 10
90.608512136796918
 20
148.9930437391489
 30
0.0
 11
90.258512136796924
 21
148.9930437391489
 31
0.0
  0
LINE
  5
63
  8
0
  6
CONTINUOUS
 62
     7
 10
97.258512136796924
 20
147.19304373914889
 30
0.0
 11
97.258512136796909
 21
145.54304373914891
 31
0.0
  0
LINE
  5
64
  8
0
  6
CONTINUOUS
 62
     7
 10
88.858512136796904
 20
145.54304373914891
 30
0.0
 11
88.858512136796904
 21
147.19304373914889
 31
0.0
  0
LINE
  5
65
  8
0
  6
CONTINUOUS
 62
     7
 10
91.808512136796935
 20
145.64304373914891
 30
0.0
 11
92.308512136796921
 21
145.64304373914891
 31
0.0
  0
LINE
  5
66
  8
0
  6
CONTINUOUS
 62
     7
 10
91.808512136796935
 20
146.14304373914891
 30
0.0
 11
91.808512136796935
 21
145.64304373914891
 31
0.0
  0
LINE
  5
67
  8
0
  6
CONTINUOUS
 62
     7
 10
92.308512136796921
 20
146.14304373914891
 30
0.0
 11
91.808512136796935
 21
146.14304373914891
 31
0.0
  0
LINE
  5
68
  8
0
  6
CONTINUOUS
 62
     7
 10
92.308512136796921
 20
145.64304373914891
 30
0.0
 11
92.308512136796921
 21
146.14304373914891
 31
0.0
  0
LINE
  5
69
  8
0
  6
CONTINUOUS
 62
     7
 10
93.808512136796921
 20
146.14304373914891
 30
0.0
 11
93.808512136796921
 21
145.64304373914891
 31
0.0
  0
LINE
  5
6A
  8
0
  6
CONTINUOUS
 62
     7
 10
94.308512136796935
 20
146.14304373914891
 30
0.0
 11
93.808512136796921
 21
146.14304373914891
 31
0.0
  0
LINE
  5
6B
  8
0
  6
CONTINUOUS
 62
     7
 10
94.308512136796935
 20
145.64304373914891
 30
0.0
 11
94.308512136796935
 21
146.14304373914891
 31
0.0
  0
LINE
  5
6C
  8
0
  6
CONTINUOUS
 62
     7
 10
93.808512136796921
 20
145.64304373914891
 30
0.0
 11
94.308512136796935
 21
145.64304373914891
 31
0.0
  0
LINE
  5
6D
  8
0
  6
CONTINUOUS
 62
     7
 10
90.308512136796921
 20
146.14304373914891
 30
0.0
 11
89.808512136796921
 21
146.14304373914891
 31
0.0
  0
LINE
  5
6E
  8
0
  6
CONTINUOUS
 62
     7
 10
90.308512136796921
 20
145.64304373914891
 30
0.0
 11
90.308512136796921
 21
146.14304373914891
 31
0.0
  0
LINE
  5
6F
  8
0
  6
CONTINUOUS
 62
     7
 10
89.808512136796921
 20
146.14304373914891
 30
0.0
 11
89.808512136796921
 21
145.64304373914891
 31
0.0
  0
LINE
  5
70
  8
0
  6
CONTINUOUS
 62
     7
 10
89.808512136796921
 20
145.64304373914891
 30
0.0
 11
90.308512136796921
 21
145.64304373914891
 31
0.0
  0
LINE
  5
71
  8
0
  6
CONTINUOUS
 62
     7
 10
95.808512136796907
 20
145.64304373914891
 30
0.0
 11
96.308512136796921
 21
145.64304373914891
 31
0.0
  0
LINE
  5
72
  8
0
  6
CONTINUOUS
 62
     7
 10
95.808512136796907
 20
146.14304373914891
 30
0.0
 11
95.808512136796907
 21
145.64304373914891
 31
0.0
  0
LINE
  5
73
  8
0
  6
CONTINUOUS
 62
     7
 10
96.308512136796921
 20
145.64304373914891
 30
0.0
 11
96.308512136796921
 21
146.14304373914891
 31
0.0
  0
LINE
  5
74
  8
0
  6
CONTINUOUS
 62
     7
 10
96.308512136796921
 20
146.14304373914891
 30
0.0
 11
95.808512136796907
 21
146.14304373914891
 31
0.0
  0
LINE
  5
75
  8
0
  6
CONTINUOUS
 62
     7
 10
92.258512136796924
 20
148.4930437391489
 30
0.0
 11
92.258512136796924
 21
147.89304373914891
 31
0.0
  0
LINE
  5
76
  8
0
  6
CONTINUOUS
 62
     7
 10
93.858512136796904
 20
148.4930437391489
 30
0.0
 11
93.858512136796904
 21
147.89304373914891
 31
0.0
  0
LINE
  5
77
  8
0
  6
CONTINUOUS
 62
     7
 10
92.258512136796924
 20
148.4930437391489
 30
0.0
 11
93.858512136796904
 21
148.4930437391489
 31
0.0
  0
LINE
  5
78
  8
0
  6
CONTINUOUS
 62
     7
 10
95.858512136796918
 20
149.54304373914891
 30
0.0
 11
90.258512136796924
 21
149.54304373914891
 31
0.0
  0
LINE
  5
79
  8
0
  6
CONTINUOUS
 62
     7
 10
86.358512136796904
 20
157.94304373914889
 30
0.0
 11
90.058512136796921
 21
157.94304373914889
 31
0.0
  0
LINE
  5
7A
  8
0
  6
CONTINUOUS
 62
     7
 10
90.058512136796921
 20
157.94304373914889
 30
0.0
 11
90.058512136796921
 21
149.54304373914891
 31
0.0
  0
LINE
  5
7B
  8
0
  6
CONTINUOUS
 62
     7
 10
86.358512136796904
 20
149.04304373914891
 30
0.0
 11
86.358512136796904
 21
157.94304373914889
 31
0.0
  0
LINE
  5
7C
  8
0
  6
CONTINUOUS
 62
     7
 10
96.058512136796921
 20
157.94304373914889
 30
0.0
 11
99.758512136796909
 21
157.94304373914889
 31
0.0
  0
LINE
  5
7D
  8
0
  6
CONTINUOUS
 62
     7
 10
96.058512136796921
 20
149.54304373914891
 30
0.0
 11
96.058512136796921
 21
157.94304373914889
 31
0.0
  0
LINE
  5
7E
  8
0
  6
CONTINUOUS
 62
     7
 10
99.758512136796909
 20
157.94304373914889
 30
0.0
 11
99.758512136796909
 21
149.04304373914891
 31
0.0
  0
LINE
  5
7F
  8
0
  6
CONTINUOUS
 62
     7
 10
119.6711404006233
 20
143.04304373914891
 30
0.0
 11
119.6711404006233
 21
149.04304373914891
 31
0.0
  0
LINE
  5
80
  8
0
  6
CONTINUOUS
 62
     7
 10
128.87114040062329
 20
157.94304373914889
 30
0.0
 11
134.87114040062329
 21
157.94304373914889
 31
0.0
  0
LINE
  5
81
  8
0
  6
CONTINUOUS
 62
     7
 10
134.87114040062329
 20
157.94304373914889
 30
0.0
 11
134.87114040062329
 21
145.54304373914891
 31
0.0
  0
LINE
  5
82
  8
0
  6
CONTINUOUS
 62
     7
 10
140.37114040062329
 20
145.54304373914891
 30
0.0
 11
134.87114040062329
 21
145.54304373914891
 31
0.0
  0
LINE
  5
83
  8
0
  6
CONTINUOUS
 62
     7
 10
119.6711404006233
 20
143.04304373914891
 30
0.0
 11
140.37114040062329
 21
143.04304373914891
 31
0.0
  0
LINE
  5
84
  8
0
  6
CONTINUOUS
 62
     7
 10
128.87114040062329
 20
157.94304373914889
 30
0.0
 11
128.87114040062329
 21
149.04304373914891
 31
0.0
  0
LINE
  5
85
  8
0
  6
CONTINUOUS
 62
     7
 10
119.6711404006233
 20
149.04304373914891
 30
0.0
 11
128.87114040062329
 21
149.04304373914891
 31
0.0
  0
LINE
  5
86
  8
0
  6
CONTINUOUS
 62
     7
 10
142.37114040062329
 20
145.54304373914891
 30
0.0
 11
142.37114040062329
 21
143.04304373914891
 31
0.0
  0
LINE
  5
87
  8
0
  6
CONTINUOUS
 62
     7
 10
142.37114040062329
 20
143.04304373914891
 30
0.0
 11
140.37114040062329
 21
143.04304373914891
 31
0.0
  0
LINE
  5
88
  8
0
  6
CONTINUOUS
 62
     7
 10
140.37114040062329
 20
145.54304373914891
 30
0.0
 11
142.37114040062329
 21
145.54304373914891
 31
0.0
  0
LINE
  5
89
  8
0
  6
CONTINUOUS
 62
     7
 10
119.6711404006233
 20
149.54304373914891
 30
0.0
 11
127.4711404006233
 21
149.54304373914891
 31
0.0
  0
LINE
  5
8A
  8
0
  6
CONTINUOUS
 62
     7
 10
127.9711404006233
 20
149.04304373914891
 30
0.0
 11
127.4711404006233
 21
149.54304373914891
 31
0.0
  0
LINE
  5
8B
  8
0
  6
CONTINUOUS
 62
     7
 10
119.6711404006233
 20
149.04304373914891
 30
0.0
 11
119.6711404006233
 21
149.54304373914891
 31
0.0
  0
LINE
  5
93
  8
0
  6
CONTINUOUS
 62
     7
 10
90.058512136796921
 20
183.45956584010341
 30
0.0
 11
90.058512136796921
 21
189.45956584010329
 31
0.0
  0
LINE
  5
94
  8
0
  6
CONTINUOUS
 62
     7
 10
86.358512136796904
 20
183.45956584010341
 30
0.0
 11
90.058512136796921
 21
183.45956584010341
 31
0.0
  0
LINE
  5
95
  8
0
  6
CONTINUOUS
 62
     7
 10
86.358512136796904
 20
189.45956584010329
 30
0.0
 11
90.058512136796921
 21
189.45956584010329
 31
0.0
  0
LINE
  5
96
  8
0
  6
CONTINUOUS
 62
     7
 10
86.358512136796904
 20
183.45956584010341
 30
0.0
 11
86.358512136796904
 21
189.45956584010329
 31
0.0
  0
LINE
  5
9E
  8
0
  6
CONTINUOUS
 62
     7
 10
96.058512136796921
 20
183.45956584010341
 30
0.0
 11
96.058512136796921
 21
189.45956584010329
 31
0.0
  0
LINE
  5
9F
  8
0
  6
CONTINUOUS
 62
     7
 10
96.058512136796921
 20
183.45956584010341
 30
0.0
 11
99.758512136796909
 21
183.45956584010341
 31
0.0
  0
LINE
  5
A0
  8
0
  6
CONTINUOUS
 62
     7
 10
96.058512136796921
 20
189.45956584010329
 30
0.0
 11
99.758512136796909
 21
189.45956584010329
 31
0.0
  0
LINE
  5
A1
  8
0
  6
CONTINUOUS
 62
     7
 10
99.758512136796909
 20
183.45956584010341
 30
0.0
 11
99.758512136796909
 21
189.45956584010329
 31
0.0
  0
LINE
  5
A3
  8
0
  6
CONTINUOUS
 62
     7
 10
96.058512136796921
 20
188.65956584010331
 30
0.0
 11
90.058512136796921
 21
188.65956584010331
 31
0.0
  0
LINE
  5
A4
  8
0
  6
CONTINUOUS
 62
     7
 10
90.058512136796921
 20
184.25956584010331
 30
0.0
 11
96.058512136796921
 21
184.25956584010331
 31
0.0
  0
LINE
  5
A6
  8
0
  6
CONTINUOUS
 62
     7
 10
87.158512136796915
 20
182.55956584010329
 30
0.0
 11
87.158512136796915
 21
174.25956584010331
 31
0.0
  0
LINE
  5
A7
  8
0
  6
CONTINUOUS
 62
     7
 10
87.158512136796915
 20
182.55956584010329
 30
0.0
 11
87.658512136796915
 21
182.05956584010329
 31
0.0
  0
LINE
  5
A8
  8
0
  6
CONTINUOUS
 62
     7
 10
87.658512136796915
 20
182.05956584010329
 30
0.0
 11
87.658512136796915
 21
174.25956584010331
 31
0.0
  0
LINE
  5
A9
  8
0
  6
CONTINUOUS
 62
     7
 10
87.658512136796915
 20
174.25956584010331
 30
0.0
 11
87.158512136796915
 21
174.25956584010331
 31
0.0
  0
LINE
  5
AA
  8
0
  6
CONTINUOUS
 62
     7
 10
98.458512136796926
 20
174.25956584010331
 30
0.0
 11
98.458512136796926
 21
182.05956584010329
 31
0.0
  0
LINE
  5
AB
  8
0
  6
CONTINUOUS
 62
     7
 10
98.958512136796926
 20
182.55956584010329
 30
0.0
 11
98.458512136796926
 21
182.05956584010329
 31
0.0
  0
LINE
  5
AC
  8
0
  6
CONTINUOUS
 62
     7
 10
98.958512136796926
 20
174.25956584010331
 30
0.0
 11
98.958512136796926
 21
182.55956584010329
 31
0.0
  0
LINE
  5
AD
  8
0
  6
CONTINUOUS
 62
     7
 10
98.958512136796926
 20
174.25956584010331
 30
0.0
 11
98.458512136796926
 21
174.25956584010331
 31
0.0
  0
LINE
  5
AE
  8
0
  6
CONTINUOUS
 62
     7
 10
98.958512136796926
 20
182.55956584010329
 30
0.0
 11
87.158512136796915
 21
182.55956584010329
 31
0.0
  0
LINE
  5
AF
  8
0
  6
CONTINUOUS
 62
     7
 10
98.458512136796926
 20
182.05956584010329
 30
0.0
 11
87.658512136796915
 21
182.05956584010329
 31
0.0
  0
LINE
  5
B0
  8
0
  6
CONTINUOUS
 62
     7
 10
95.858512136796918
 20
180.45956584010329
 30
0.0
 11
90.258512136796924
 21
180.45956584010329
 31
0.0
  0
LINE
  5
B1
  8
0
  6
CONTINUOUS
 62
     7
 10
90.258512136796924
 20
180.45956584010329
 30
0.0
 11
90.258512136796924
 21
174.25956584010331
 31
0.0
  0
LINE
  5
B2
  8
0
  6
CONTINUOUS
 62
     7
 10
87.658512136796915
 20
174.25956584010331
 30
0.0
 11
90.258512136796924
 21
174.25956584010331
 31
0.0
  0
LINE
  5
B3
  8
0
  6
CONTINUOUS
 62
     7
 10
95.858512136796918
 20
174.25956584010331
 30
0.0
 11
98.458512136796926
 21
174.25956584010331
 31
0.0
  0
LINE
  5
B4
  8
0
  6
CONTINUOUS
 62
     7
 10
95.858512136796918
 20
174.25956584010331
 30
0.0
 11
95.858512136796918
 21
180.45956584010329
 31
0.0
  0
LINE
  5
B5
  8
0
  6
CONTINUOUS
 62
     7
 10
96.058512136796921
 20
183.45956584010341
 30
0.0
 11
90.058512136796921
 21
183.45956584010341
 31
0.0
  0
LINE
  5
B6
  8
0
  6
CONTINUOUS
 62
     7
 10
99.758512136796909
 20
174.25956584010331
 30
0.0
 11
98.958512136796926
 21
174.25956584010331
 31
0.0
  0
LINE
  5
B7
  8
0
  6
CONTINUOUS
 62
     7
 10
87.158512136796915
 20
174.25956584010331
 30
0.0
 11
86.358512136796904
 21
174.25956584010331
 31
0.0
  0
LINE
  5
B8
  8
0
  6
CONTINUOUS
 62
     7
 10
99.758512136796909
 20
174.25956584010331
 30
0.0
 11
99.758512136796909
 21
183.45956584010341
 31
0.0
  0
LINE
  5
B9
  8
0
  6
CONTINUOUS
 62
     7
 10
86.358512136796904
 20
174.25956584010331
 30
0.0
 11
86.358512136796904
 21
183.45956584010341
 31
0.0
  0
LINE
  5
BE
  8
0
  6
CONTINUOUS
 62
     7
 10
96.058512136796921
 20
189.45956584010329
 30
0.0
 11
90.058512136796921
 21
189.45956584010329
 31
0.0
  0
LINE
  5
BF
  8
0
  6
CONTINUOUS
 62
     7
 10
93.858512136796904
 20
177.0195658401033
 30
0.0
 11
93.858512136796904
 21
178.8595658401033
 31
0.0
  0
LINE
  5
C0
  8
0
  6
CONTINUOUS
 62
     7
 10
92.258512136796924
 20
177.0195658401033
 30
0.0
 11
93.858512136796904
 21
177.0195658401033
 31
0.0
  0
LINE
  5
C1
  8
0
  6
CONTINUOUS
 62
     7
 10
93.858512136796904
 20
178.8595658401033
 30
0.0
 11
92.258512136796924
 21
178.8595658401033
 31
0.0
  0
LINE
  5
C2
  8
0
  6
CONTINUOUS
 62
     7
 10
92.258512136796924
 20
178.8595658401033
 30
0.0
 11
92.258512136796924
 21
177.0195658401033
 31
0.0
  0
ARC
  5
C4
  8
0
  6
CONTINUOUS
 62
     7
 10
97.758512136796924
 20
194.95956584010329
 30
0.0
 40
2.0
 50
0.0
 51
90.0
  0
ARC
  5
C5
  8
0
  6
CONTINUOUS
 62
     7
 10
88.358512136796918
 20
194.95956584010329
 30
0.0
 40
2.0
 50
90.0
 51
180.0
  0
LINE
  5
C6
  8
0
  6
CONTINUOUS
 62
     7
 10
88.358512136796918
 20
196.95956584010329
 30
0.0
 11
97.758512136796924
 21
196.95956584010329
 31
0.0
  0
CIRCLE
  5
C7
  8
0
  6
CONTINUOUS
 62
     7
 10
89.558512136796907
 20
193.45956584010329
 30
0.0
 40
1.75
  0
CIRCLE
  5
C8
  8
0
  6
CONTINUOUS
 62
     7
 10
96.558512136796921
 20
193.45956584010329
 30
0.0
 40
1.75
  0
LINE
  5
C9
  8
0
  6
CONTINUOUS
 62
     7
 10
99.758512136796909
 20
194.95956584010329
 30
0.0
 11
99.758512136796909
 21
189.45956584010329
 31
0.0
  0
LINE
  5
CA
  8
0
  6
CONTINUOUS
 62
     7
 10
86.358512136796904
 20
194.95956584010329
 30
0.0
 11
86.358512136796904
 21
189.45956584010329
 31
0.0
  0
LINE
  5
CB
  8
0
  6
CONTINUOUS
 62
     7
 10
95.858512136796918
 20
175.55956584010329
 30
0.0
 11
90.258512136796924
 21
175.55956584010329
 31
0.0
  0
LINE
  5
CC
  8
0
  6
CONTINUOUS
 62
     7
 10
90.258512136796924
 20
174.25956584010331
 30
0.0
 11
95.858512136796918
 21
174.25956584010331
 31
0.0
  0
LINE
  5
1C2
  8
0
 62
     2
 10
94.908416999316387
 20
186.45956584010329
 30
0.0
 11
93.824100711542002
 21
186.01160488568621
 31
0.0
  0
LINE
  5
1C3
  8
0
 62
     2
 10
94.908416999316387
 20
186.45956584010329
 30
0.0
 11
93.824100711542002
 21
186.93645748174649
 31
0.0
  0
LINE
  5
1C4
  8
0
 62
     2
 10
91.269154828851043
 20
186.45956584010329
 30
0.0
 11
94.908416999316387
 21
186.45956584010329
 31
0.0
  0
LINE
  5
1DB
  8
0
 62
     2
 10
94.908416999316387
 20
155.94304373914889
 30
0.0
 11
93.824100711542002
 21
155.49508278473181
 31
0.0
  0
LINE
  5
1DC
  8
0
 62
     2
 10
94.908416999316387
 20
155.94304373914889
 30
0.0
 11
93.824100711542002
 21
156.41993538079211
 31
0.0
  0
LINE
  5
1DD
  8
0
 62
     2
 10
91.269154828851043
 20
155.943043739149
 30
0.0
 11
94.908416999316387
 21
155.94304373914889
 31
0.0
  0
LINE
  5
20E
  8
0
  6
AM_ISO08W050X2
 62
     4
 10
90.650877955077021
 20
186.45956584010329
 30
0.0
 11
84.542339828552031
 21
186.45956584010329
 31
0.0
  0
LINE
  5
20F
  8
0
  6
AM_ISO08W050X2
 62
     4
 10
95.606836203771309
 20
186.45956584010329
 30
0.0
 11
101.8579354658543
 21
186.45956584010329
 31
0.0
  0
LINE
  5
21A
  8
0
  6
AM_ISO08W050X2
 62
     4
 10
89.558512136796907
 20
195.67952741396579
 30
0.0
 11
89.558512136796907
 21
191.2200104472881
 31
0.0
  0
LINE
  5
21B
  8
0
  6
AM_ISO08W050X2
 62
     4
 10
96.558512136796921
 20
195.70299854497711
 30
0.0
 11
96.558512136796921
 21
191.29042384032209
 31
0.0
  0
LINE
  5
21C
  8
0
  6
AM_ISO08W050X2
 62
     4
 10
87.25416160117129
 20
193.44976893062699
 30
0.0
 11
91.830007578802224
 21
193.44976893062699
 31
0.0
  0
LINE
  5
21D
  8
0
  6
AM_ISO08W050X2
 62
     4
 10
94.246993536910622
 20
193.45956584010329
 30
0.0
 11
98.940169073406878
 21
193.45956584010329
 31
0.0
  0
LINE
  5
21E
  8
0
  6
AM_ISO08W050X2
 62
     4
 10
93.058512136796907
 20
198.15981854210611
 30
0.0
 11
93.058512136796907
 21
173.31749827607311
 31
0.0
  0
LINE
  5
21F
  8
0
  6
AM_ISO08W050X2
 62
     4
 10
90.593144416731548
 20
155.943043739149
 30
0.0
 11
84.609716456422348
 21
155.943043739149
 31
0.0
  0
LINE
  5
220
  8
0
  6
AM_ISO08W050X2
 62
     4
 10
95.460342151309987
 20
155.94304373914889
 30
0.0
 11
101.45368138039591
 21
155.94304373914889
 31
0.0
  0
LINE
  5
221
  8
0
  6
AM_ISO08W050X2
 62
     4
 10
93.058512136796935
 20
158.9517574973421
 30
0.0
 11
93.058512136796935
 21
140.1859596738926
 31
0.0
  0
LINE
  5
222
  8
0
  6
AM_ISO08W050X2
 62
     4
 10
131.87114040062329
 20
160.094743214403
 30
0.0
 11
131.87114040062329
 21
140.39782843286901
 31
0.0
  0
LINE
  5
227
  8
0
  6
AM_ISO08W050X2
 62
     4
 10
138.87114040062329
 20
146.53212905235779
 30
0.0
 11
138.87114040062329
 21
142.23677308437101
 31
0.0
  0
LINE
  5
235
  8
0
  6
AM_ISO08W050X2
 62
     4
 10
127.41951468143451
 20
155.94304373914889
 30
0.0
 11
136.75077082719119
 21
155.94304373914889
 31
0.0
  0
INSERT
  5
23E
  8
0
  2
*U3
 10
0.0
 20
0.0
 30
0.0
  0
ENDSEC
  0
EOF
