  0
SECTION
  2
HEADER
  9
$ACADVER
  1
AC1009
  9
$INSBASE
 10
0.0
 20
0.0
 30
0.0
  9
$EXTMIN
 10
255.41791263334139
 20
-7.6024771633695991
 30
0.0
  9
$EXTMAX
 10
387.5906883326237
 20
65.798449851292091
 30
0.0
  9
$LIMMIN
 10
173.09065729615281
 20
-97.034119529250447
  9
$LIMMAX
 10
351.09065729615281
 20
151.26588047074941
  9
$ORTHOMODE
 70
     0
  9
$REGENMODE
 70
     1
  9
$FILLMODE
 70
     1
  9
$QTEXTMODE
 70
     0
  9
$MIRRTEXT
 70
     1
  9
$DRAGMODE
 70
     2
  9
$LTSCALE
 40
1.0
  9
$OSMODE
 70
   549
  9
$ATTMODE
 70
     1
  9
$TEXTSIZE
 40
3.5
  9
$TRACEWID
 40
0.5
  9
$TEXTSTYLE
  7
STANDARD
  9
$CLAYER
  8
0
  9
$CELTYPE
  6
BYLAYER
  9
$CECOLOR
 62
   256
  9
$DIMSCALE
 40
1.0
  9
$DIMASZ
 40
0.18
  9
$DIMEXO
 40
0.0625
  9
$DIMDLI
 40
0.38
  9
$DIMRND
 40
0.0
  9
$DIMDLE
 40
0.0
  9
$DIMEXE
 40
0.18
  9
$DIMTP
 40
0.0
  9
$DIMTM
 40
0.0
  9
$DIMTXT
 40
0.18
  9
$DIMCEN
 40
0.09
  9
$DIMTSZ
 40
0.0
  9
$DIMTOL
 70
     0
  9
$DIMLIM
 70
     0
  9
$DIMTIH
 70
     1
  9
$DIMTOH
 70
     1
  9
$DIMSE1
 70
     0
  9
$DIMSE2
 70
     0
  9
$DIMTAD
 70
     0
  9
$DIMZIN
 70
     0
  9
$DIMBLK
  1

  9
$DIMASO
 70
     1
  9
$DIMSHO
 70
     1
  9
$DIMPOST
  1

  9
$DIMAPOST
  1

  9
$DIMALT
 70
     0
  9
$DIMALTD
 70
     2
  9
$DIMALTF
 40
25.399999999999999
  9
$DIMLFAC
 40
1.0
  9
$DIMTOFL
 70
     0
  9
$DIMTVP
 40
0.0
  9
$DIMTIX
 70
     0
  9
$DIMSOXD
 70
     0
  9
$DIMSAH
 70
     0
  9
$DIMBLK1
  1

  9
$DIMBLK2
  1

  9
$DIMSTYLE
  2
STANDARD
  9
$DIMCLRD
 70
     0
  9
$DIMCLRE
 70
     0
  9
$DIMCLRT
 70
     0
  9
$DIMTFAC
 40
1.0
  9
$DIMGAP
 40
0.09
  9
$LUNITS
 70
     2
  9
$LUPREC
 70
     4
  9
$SKETCHINC
 40
0.1
  9
$FILLETRAD
 40
2.0
  9
$AUNITS
 70
     0
  9
$AUPREC
 70
     0
  9
$MENU
  1
ACAD
  9
$ELEVATION
 40
0.0
  9
$PELEVATION
 40
0.0
  9
$THICKNESS
 40
0.0
  9
$LIMCHECK
 70
     0
  9
$BLIPMODE
 70
     0
  9
$CHAMFERA
 40
0.0
  9
$CHAMFERB
 40
0.0
  9
$SKPOLY
 70
     0
  9
$TDCREATE
 40
2452598.4522242248
  9
$TDUPDATE
 40
2456497.5989264469
  9
$TDINDWG
 40
0.005644838
  9
$TDUSRTIMER
 40
0.0056446875
  9
$USRTIMER
 70
     1
  9
$ANGBASE
 50
0.0
  9
$ANGDIR
 70
     0
  9
$PDMODE
 70
     0
  9
$PDSIZE
 40
0.0
  9
$PLINEWID
 40
0.0
  9
$COORDS
 70
     1
  9
$SPLFRAME
 70
     0
  9
$SPLINETYPE
 70
     6
  9
$SPLINESEGS
 70
     8
  9
$ATTDIA
 70
     1
  9
$ATTREQ
 70
     1
  9
$HANDLING
 70
     1
  9
$HANDSEED
  5
52C
  9
$SURFTAB1
 70
     6
  9
$SURFTAB2
 70
     6
  9
$SURFTYPE
 70
     6
  9
$SURFU
 70
     6
  9
$SURFV
 70
     6
  9
$UCSNAME
  2

  9
$UCSORG
 10
0.0
 20
0.0
 30
0.0
  9
$UCSXDIR
 10
1.0
 20
0.0
 30
0.0
  9
$UCSYDIR
 10
0.0
 20
1.0
 30
0.0
  9
$PUCSNAME
  2

  9
$PUCSORG
 10
0.0
 20
0.0
 30
0.0
  9
$PUCSXDIR
 10
1.0
 20
0.0
 30
0.0
  9
$PUCSYDIR
 10
0.0
 20
1.0
 30
0.0
  9
$USERI1
 70
     0
  9
$USERI2
 70
     0
  9
$USERI3
 70
     0
  9
$USERI4
 70
     0
  9
$USERI5
 70
     0
  9
$USERR1
 40
0.0
  9
$USERR2
 40
0.0
  9
$USERR3
 40
0.0
  9
$USERR4
 40
0.0
  9
$USERR5
 40
0.0
  9
$WORLDVIEW
 70
     1
  9
$SHADEDGE
 70
     3
  9
$SHADEDIF
 70
    70
  9
$TILEMODE
 70
     1
  9
$MAXACTVP
 70
    64
  9
$PLIMCHECK
 70
     0
  9
$PEXTMIN
 10
1.0000000000000000E+020
 20
1.0000000000000000E+020
 30
1.0000000000000000E+020
  9
$PEXTMAX
 10
-1.0000000000000000E+020
 20
-1.0000000000000000E+020
 30
-1.0000000000000000E+020
  9
$PLIMMIN
 10
0.0
 20
0.0
  9
$PLIMMAX
 10
12.0
 20
9.0
  9
$UNITMODE
 70
     0
  9
$VISRETAIN
 70
     1
  9
$PLINEGEN
 70
     0
  9
$PSLTSCALE
 70
     1
  0
ENDSEC
  0
SECTION
  2
TABLES
  0
TABLE
  2
VPORT
 70
     1
  0
VPORT
  2
*ACTIVE
 70
     0
 10
0.0
 20
0.0
 11
1.0
 21
1.0
 12
330.65187542895529
 22
26.161533951295389
 13
0.0
 23
0.0
 14
1.0
 24
1.0
 15
0.0
 25
0.0
 16
0.0
 26
0.0
 36
1.0
 17
0.0
 27
0.0
 37
0.0
 40
118.6460078430175
 41
1.9560975609756091
 42
50.0
 43
0.0
 44
0.0
 50
0.0
 51
0.0
 71
     0
 72
   100
 73
     1
 74
     1
 75
     0
 76
     0
 77
     0
 78
     0
  0
ENDTAB
  0
TABLE
  2
LTYPE
 70
    24
  0
LTYPE
  2
CONTINUOUS
 70
     0
  3
Solid line
 72
    65
 73
     0
 40
0.0
  0
LTYPE
  2
CENTER
 70
     0
  3
____ _ ____ _
 72
    65
 73
     4
 40
13.068421052631569
 49
8.1677631578947327
 49
-1.6335526315789459
 49
1.6335526315789459
 49
-1.6335526315789459
  0
LTYPE
  2
HIDDEN
 70
     0
  3
_ _ _ _ _ _ _
 72
    65
 73
     2
 40
2.4503289473684182
 49
1.6335526315789459
 49
-0.8167763157894734
  0
LTYPE
  2
AMCONSTR
 70
     0
  3
_______________________
 72
    65
 73
     2
 40
9999.0
 49
9999.0
 49
0.0
  0
LTYPE
  2
PHANTOM2
 70
     0
  3
Phantom (.5x) ___ _ _ ___ _ _ ___ _ _ ___ _ _
 72
    65
 73
     6
 40
1.25
 49
0.625
 49
-0.125
 49
0.125
 49
-0.125
 49
0.125
 49
-0.125
  0
LTYPE
  2
HIDDEN2
 70
     0
  3
Hidden (.5x) _ _ _ _ _ _ _ _ _ _ _ _ _ _ _ _ _
 72
    65
 73
     2
 40
0.1875
 49
0.125
 49
-0.0625
  0
LTYPE
  2
CENTER2
 70
     0
  3
Center (.5x) ___ _ ___ _ ___ _ ___ _ ___ _ ___
 72
    65
 73
     4
 40
1.125
 49
0.75
 49
-0.125
 49
0.125
 49
-0.125
  0
LTYPE
  2
AMZIGZAG2
 70
     0
  3
/\/-/\/-/\/-/\/-/\/-/\/
 72
    65
 73
     2
 40
0.4401
 49
0.0001
 49
-0.4400000000000002
  0
LTYPE
  2
ACANSTGB
 70
     0
  3
__ . . __ . .
 72
    65
 73
     6
 40
0.35433070866
 49
0.15748031496
 49
-0.03937007874
 49
0.03937007874
 49
-0.03937007874
 49
0.03937007874
 49
-0.03937007874
  0
LTYPE
  2
ACANSTGL
 70
     0
  3
_ _ _ _ _
 72
    65
 73
     2
 40
0.11811023622
 49
0.07874015748
 49
-0.03937007874
  0
ENDTAB
  0
TABLE
  2
LAYER
 70
     3
  0
LAYER
  2
0
 70
     0
 62
     7
  6
CONTINUOUS
  0
ENDTAB
  0
TABLE
  2
STYLE
 70
     7
  0
STYLE
  2
STANDARD
 70
     0
 40
0.0
 41
1.0
 50
0.0
 71
     0
 42
3.5
  3
txt
  4

  0
STYLE
  2

 70
     1
 40
0.0
 41
1.0
 50
0.0
 71
     0
 42
3.5
  3
ltypeshp.shx
  4

  0
STYLE
  2
ACANSGDT
 70
     0
 40
0.0
 41
1.0
 50
0.0
 71
     0
 42
3.5
  3
amgdt.shx
  4

  0
ENDTAB
  0
TABLE
  2
VIEW
 70
     0
  0
ENDTAB
  0
TABLE
  2
UCS
 70
     0
  0
ENDTAB
  0
TABLE
  2
APPID
 70
    11
  0
APPID
  2
ACAD
 70
     0
  0
APPID
  2
MCAD_NO_VIS
 70
     0
  0
APPID
  2
ACAD_TEMP_GRAPHIC
 70
     0
  0
APPID
  2
ACATTRIBSERVICES
 70
     0
  0
APPID
  2
DESIGNERASSEMBLIES
 70
     0
  0
APPID
  2
ACAD_DSTYLE_DIMJAG
 70
     0
  0
APPID
  2
ACAD_DSTYLE_DIMBREAK
 70
     0
  0
APPID
  2
ACAD_NAV_VCDISPLAY
 70
     0
  0
APPID
  2
ACAECLAYERSTANDARD
 70
     0
  0
APPID
  2
ACAD_EXEMPT_FROM_CAD_STANDARDS
 70
     0
  0
APPID
  2
ACAD_MLEADERVER
 70
     0
  0
ENDTAB
  0
TABLE
  2
DIMSTYLE
 70
     8
  0
DIMSTYLE
  2
STANDARD
 70
     0
  3

  4

  5

  6

  7

 40
1.0
 41
0.18
 42
0.0625
 43
0.38
 44
0.18
 45
0.0
 46
0.0
 47
0.0
 48
0.0
140
0.18
141
0.09
142
0.0
143
25.399999999999999
144
1.0
145
0.0
146
1.0
147
0.09
 71
     0
 72
     0
 73
     1
 74
     1
 75
     0
 76
     0
 77
     0
 78
     0
170
     0
171
     2
172
     0
173
     0
174
     0
175
     0
176
     0
177
     0
178
     0
  0
DIMSTYLE
  2
AM_ANSI
 70
     0
  3

  4
mm
  5

  6

  7

 40
1.0
 41
0.12
 42
0.05
 43
0.5
 44
0.1
 45
0.0
 46
0.0
 47
0.1
 48
0.1
140
0.12
141
0.0
142
0.0
143
25.399999999999999
144
1.0
145
0.0
146
0.71
147
0.06
 71
     0
 72
     0
 73
     1
 74
     1
 75
     0
 76
     0
 77
     0
 78
     7
170
     0
171
     2
172
     0
173
     0
174
     0
175
     0
176
   256
177
   256
178
     2
  0
DIMSTYLE
  2
AM_ANSI$3
 70
     0
  3

  4
mm
  5

  6

  7

 40
1.0
 41
0.12
 42
0.05
 43
0.5
 44
0.1
 45
0.0
 46
0.0
 47
0.1
 48
0.1
140
0.12
141
0.0
142
0.0
143
25.399999999999999
144
1.0
145
0.0
146
0.71
147
0.06
 71
     0
 72
     0
 73
     1
 74
     1
 75
     0
 76
     0
 77
     0
 78
     7
170
     0
171
     2
172
     0
173
     0
174
     0
175
     0
176
   256
177
   256
178
     2
  0
DIMSTYLE
  2
AM_ANSI$4
 70
     0
  3

  4
mm
  5

  6

  7

 40
1.0
 41
0.12
 42
0.05
 43
0.5
 44
0.1
 45
0.0
 46
0.0
 47
0.1
 48
0.1
140
0.12
141
0.0
142
0.0
143
25.399999999999999
144
1.0
145
0.0
146
0.71
147
0.06
 71
     0
 72
     0
 73
     1
 74
     1
 75
     0
 76
     0
 77
     0
 78
     7
170
     0
171
     2
172
     0
173
     0
174
     0
175
     0
176
   256
177
   256
178
     2
  0
DIMSTYLE
  2
AM_ANSI$7
 70
     0
  3

  4
mm
  5

  6

  7

 40
1.0
 41
0.12
 42
0.05
 43
0.5
 44
0.1
 45
0.0
 46
0.0
 47
0.1
 48
0.1
140
0.12
141
0.0
142
0.0
143
25.399999999999999
144
1.0
145
0.0
146
0.71
147
0.06
 71
     0
 72
     0
 73
     1
 74
     1
 75
     0
 76
     0
 77
     0
 78
     7
170
     0
171
     2
172
     0
173
     0
174
     0
175
     0
176
   256
177
   256
178
     2
  0
DIMSTYLE
  2
AM_ANSI$SF
 70
     0
  3

  4
mm
  5

  6

  7

 40
1.0
 41
0.12
 42
0.05
 43
0.5
 44
0.1
 45
0.0
 46
0.0
 47
0.1
 48
0.1
140
0.12
141
0.0
142
0.0
143
25.399999999999999
144
1.0
145
0.0
146
0.71
147
0.06
 71
     0
 72
     0
 73
     1
 74
     1
 75
     1
 76
     1
 77
     0
 78
     7
170
     0
171
     2
172
     0
173
     0
174
     0
175
     0
176
   256
177
   256
178
     2
  0
DIMSTYLE
  2
AM_ANSI$SH
 70
     0
  3

  4
mm
  5

  6
GENAXEH
  7

 40
1.0
 41
0.12
 42
0.05
 43
0.5
 44
0.1
 45
0.0
 46
0.0
 47
0.1
 48
0.1
140
0.12
141
0.0
142
0.0
143
25.399999999999999
144
1.0
145
0.0
146
0.71
147
0.06
 71
     0
 72
     0
 73
     1
 74
     1
 75
     1
 76
     1
 77
     0
 78
     7
170
     0
171
     2
172
     0
173
     1
174
     0
175
     0
176
   256
177
   256
178
     2
  0
ENDTAB
  0
ENDSEC
  0
SECTION
  2
BLOCKS
  0
BLOCK
  8
0
  2
$MODEL_SPACE
 70
     0
 10
0.0
 20
0.0
 30
0.0
  3
$MODEL_SPACE
  1

  0
ENDBLK
  5
20
  8
0
  0
BLOCK
 67
     1
  8
0
  2
$PAPER_SPACE
 70
     0
 10
0.0
 20
0.0
 30
0.0
  3
$PAPER_SPACE
  1

  0
ENDBLK
  5
1C
 67
     1
  8
0
  0
BLOCK
  8
0
  2
GENAXEH
 70
     0
 10
0.0
 20
0.0
 30
0.0
  3
GENAXEH
  1

  0
LINE
  5
1EB
  8
0
 10
-1.0
 20
0.0
 30
0.0
 11
1.0
 21
0.0
 31
0.0
  0
ENDBLK
  5
1ED
  8
0
  0
BLOCK
  8
0
  2
*U4
 70
     1
 10
0.0
 20
0.0
 30
0.0
  3
*U4
  1

  0
TEXT
  5
521
  8
0
 62
     2
 10
263.77755317271772
 20
6.6999886717998152
 30
0.0
 40
3.5
  1
EMITTER
  0
ENDBLK
  5
523
  8
0
  0
BLOCK
  8
0
  2
*U5
 70
     1
 10
0.0
 20
0.0
 30
0.0
  3
*U5
  1

  0
TEXT
  5
525
  8
0
 62
     2
 10
339.66343792090743
 20
6.6999886717998143
 30
0.0
 40
3.5
  1
RECEIVER
  0
ENDBLK
  5
527
  8
0
  0
BLOCK
  8
0
  2
*U6
 70
     1
 10
0.0
 20
0.0
 30
0.0
  3
*U6
  1

  0
TEXT
  5
529
  8
0
 62
     2
 10
366.59068833262359
 20
-7.6024771633695991
 30
0.0
 40
3.5
  1
ex-11ea
  0
ENDBLK
  5
52B
  8
0
  0
ENDSEC
  0
SECTION
  2
ENTITIES
  0
LINE
  5
33
  8
0
  6
CONTINUOUS
 62
     7
 10
303.43111291471979
 20
25.845955136348589
 30
0.0
 11
303.43111291471979
 21
20.009561368839169
 31
0.0
  0
LINE
  5
34
  8
0
  6
CONTINUOUS
 62
     7
 10
304.4311129147199
 20
25.845955136348589
 30
0.0
 11
304.4311129147199
 21
44.8459551363486
 31
0.0
  0
LINE
  5
35
  8
0
  6
CONTINUOUS
 62
     7
 10
304.4311129147199
 20
25.845955136348589
 30
0.0
 11
300.2311129147202
 21
25.845955136348589
 31
0.0
  0
LINE
  5
36
  8
0
  6
CONTINUOUS
 62
     7
 10
304.4311129147199
 20
44.8459551363486
 30
0.0
 11
299.93111291472007
 21
44.8459551363486
 31
0.0
  0
LINE
  5
37
  8
0
  6
CONTINUOUS
 62
     7
 10
265.4179126333413
 20
30.34595513634844
 30
0.0
 11
264.21214126740131
 21
25.845955136348511
 31
0.0
  0
LINE
  5
38
  8
0
  6
CONTINUOUS
 62
     7
 10
258.41791263334142
 20
30.34595513634844
 30
0.0
 11
259.62368399928152
 21
25.845955136348511
 31
0.0
  0
LINE
  5
39
  8
0
  6
CONTINUOUS
 62
     7
 10
263.16791263334142
 20
25.845955136348511
 30
0.0
 11
263.16791263334181
 21
20.009561368839169
 31
0.0
  0
LINE
  5
3A
  8
0
  6
CONTINUOUS
 62
     7
 10
259.62368399928152
 20
25.845955136348511
 30
0.0
 11
264.21214126740131
 21
25.845955136348511
 31
0.0
  0
LINE
  5
3B
  8
0
  6
CONTINUOUS
 62
     7
 10
260.66791263334142
 20
25.845955136348511
 30
0.0
 11
260.66791263334181
 21
20.009561368839169
 31
0.0
  0
LINE
  5
3C
  8
0
  6
CONTINUOUS
 62
     7
 10
265.4179126333413
 20
30.34595513634844
 30
0.0
 11
265.4179126333413
 21
44.8459551363486
 31
0.0
  0
LINE
  5
3D
  8
0
  6
CONTINUOUS
 62
     7
 10
265.4179126333413
 20
30.34595513634844
 30
0.0
 11
255.41791263334139
 21
30.345955136348721
 31
0.0
  0
LINE
  5
3E
  8
0
  6
CONTINUOUS
 62
     7
 10
265.4179126333413
 20
44.8459551363486
 30
0.0
 11
255.41791263334139
 21
44.8459551363486
 31
0.0
  0
LINE
  5
3F
  8
0
  6
CONTINUOUS
 62
     7
 10
255.41791263334139
 20
30.345955136348721
 30
0.0
 11
255.41791263334139
 21
44.8459551363486
 31
0.0
  0
LINE
  5
40
  8
0
  6
CONTINUOUS
 62
     7
 10
299.93111291472007
 20
30.345955136348611
 30
0.0
 11
304.4311129147199
 21
30.345955136348611
 31
0.0
  0
LINE
  5
41
  8
0
  6
CENTER
 62
     4
 10
257.1679126333413
 20
33.438853275710599
 30
0.0
 11
257.1679126333413
 21
30.692127529761091
 31
0.0
  0
LINE
  5
42
  8
0
  6
CENTER
 62
     4
 10
255.6992196538672
 20
32.095955136348522
 30
0.0
 11
258.51418703325629
 21
32.095955136348522
 31
0.0
  0
LINE
  5
43
  8
0
  6
CENTER
 62
     4
 10
257.1679126333413
 20
44.54517911802828
 30
0.0
 11
257.1679126333413
 21
41.713151330279118
 31
0.0
  0
LINE
  5
44
  8
0
  6
CENTER
 62
     4
 10
255.64803842878729
 20
43.095955136348593
 30
0.0
 11
258.48006621653661
 21
43.095955136348593
 31
0.0
  0
LINE
  5
45
  8
0
  6
CENTER
 62
     4
 10
300.86614167369407
 20
39.0959551363486
 30
0.0
 11
303.38091513718689
 21
39.0959551363486
 31
0.0
  0
LINE
  5
46
  8
0
  6
CENTER
 62
     4
 10
257.1679126333413
 20
60.300957315848692
 30
0.0
 11
257.1679126333413
 21
65.798449851292091
 31
0.0
  0
LINE
  5
47
  8
0
  6
CONTINUOUS
 62
     7
 10
255.41791263334139
 20
60.690296412657972
 30
0.0
 11
255.41791263334139
 21
65.190296412657972
 31
0.0
  0
LINE
  5
48
  8
0
  6
CONTINUOUS
 62
     7
 10
265.4179126333413
 20
65.190296412657972
 30
0.0
 11
265.4179126333413
 21
60.690296412657972
 31
0.0
  0
LINE
  5
49
  8
0
  6
CONTINUOUS
 62
     7
 10
255.41791263334139
 20
65.190296412657972
 30
0.0
 11
265.4179126333413
 21
65.190296412657972
 31
0.0
  0
LINE
  5
4A
  8
0
  6
CONTINUOUS
 62
     7
 10
255.41791263334139
 20
60.690296412657972
 30
0.0
 11
265.4179126333413
 21
60.690296412657972
 31
0.0
  0
LINE
  5
4B
  8
0
  6
CENTER
 62
     4
 10
302.1811129147199
 20
40.775936406290377
 30
0.0
 11
302.1811129147199
 21
37.4857025502506
 31
0.0
  0
LINE
  5
4C
  8
0
  6
CONTINUOUS
 62
     7
 10
299.93111291472007
 20
44.8459551363486
 30
0.0
 11
299.93111291472007
 21
30.345955136348611
 31
0.0
  0
LINE
  5
4D
  8
0
  6
CONTINUOUS
 62
     7
 10
300.23111291472043
 20
30.3459551363486
 30
0.0
 11
300.2311129147202
 21
25.845955136348589
 31
0.0
  0
LINE
  5
4E
  8
0
  6
CONTINUOUS
 62
     7
 10
300.9311129147199
 20
25.845955136348589
 30
0.0
 11
300.9311129147199
 21
20.009561368839169
 31
0.0
  0
LINE
  5
4F
  8
0
  6
CENTER
 62
     4
 10
298.84047170331621
 20
43.095955136348593
 30
0.0
 11
305.8404717033161
 21
43.095955136348593
 31
0.0
  0
LINE
  5
50
  8
0
  6
CENTER
 62
     4
 10
298.80518538933609
 20
32.095955136348522
 30
0.0
 11
305.8051853893362
 21
32.095955136348522
 31
0.0
  0
CIRCLE
  5
5A
  8
0
  6
CONTINUOUS
 62
     7
 10
257.1679126333413
 20
43.095955136348593
 30
0.0
 40
1.0999999999958721
  0
CIRCLE
  5
5B
  8
0
  6
CONTINUOUS
 62
     7
 10
257.1679126333413
 20
32.095955136348522
 30
0.0
 40
1.100000000001579
  0
POLYLINE
  5
5C
  8
0
  6
CONTINUOUS
 62
     2
 66
     1
 10
0.0
 20
0.0
 30
0.0
  0
VERTEX
  5
5D
  8
0
  6
CONTINUOUS
 62
     2
 10
260.66791263334181
 20
20.009561368839169
 30
0.0
 42
0.0122089330334873
  0
VERTEX
  5
5E
  8
0
  6
CONTINUOUS
 62
     2
 10
260.70704491303911
 20
19.913623878497301
 30
0.0
 42
0.0141410505924243
  0
VERTEX
  5
5F
  8
0
  6
CONTINUOUS
 62
     2
 10
260.7472876693015
 20
19.82839351936904
 30
0.0
 42
0.0164360476561737
  0
VERTEX
  5
60
  8
0
  6
CONTINUOUS
 62
     2
 10
260.78857377432507
 20
19.75347101254269
 30
0.0
 42
0.0191317346970759
  0
VERTEX
  5
61
  8
0
  6
CONTINUOUS
 62
     2
 10
260.8308361003061
 20
19.688457079106531
 30
0.0
 42
0.0222303245933675
  0
VERTEX
  5
62
  8
0
  6
CONTINUOUS
 62
     2
 10
260.8740075194408
 20
19.632952440148859
 30
0.0
 42
0.0256594167446101
  0
VERTEX
  5
63
  8
0
  6
CONTINUOUS
 62
     2
 10
260.9180209039252
 20
19.58655781675796
 30
0.0
 42
0.0292200161695675
  0
VERTEX
  5
64
  8
0
  6
CONTINUOUS
 62
     2
 10
260.96280912595552
 20
19.54887393002214
 30
0.0
 42
0.0325440106678912
  0
VERTEX
  5
65
  8
0
  6
CONTINUOUS
 62
     2
 10
261.00830505772802
 20
19.519501501029669
 30
0.0
 42
0.0351131783224623
  0
VERTEX
  5
66
  8
0
  6
CONTINUOUS
 62
     2
 10
261.05444157143887
 20
19.498041250868859
 30
0.0
 42
0.0363953274803345
  0
VERTEX
  5
67
  8
0
  6
CONTINUOUS
 62
     2
 10
261.10115153928439
 20
19.484093900627979
 30
0.0
 42
0.0360737199993191
  0
VERTEX
  5
68
  8
0
  6
CONTINUOUS
 62
     2
 10
261.1483678334605
 20
19.477260171395351
 30
0.0
 42
0.0342176667785406
  0
VERTEX
  5
69
  8
0
  6
CONTINUOUS
 62
     2
 10
261.19602332616353
 20
19.477140784259252
 30
0.0
 42
0.0312432720979185
  0
VERTEX
  5
6A
  8
0
  6
CONTINUOUS
 62
     2
 10
261.24405088958957
 20
19.48333646030796
 30
0.0
 42
0.0277010143011857
  0
VERTEX
  5
6B
  8
0
  6
CONTINUOUS
 62
     2
 10
261.29238339593502
 20
19.49544792062979
 30
0.0
 42
0.0240664811824373
  0
VERTEX
  5
6C
  8
0
  6
CONTINUOUS
 62
     2
 10
261.34095371739579
 20
19.513075886313011
 30
0.0
 42
0.0206472663732617
  0
VERTEX
  5
6D
  8
0
  6
CONTINUOUS
 62
     2
 10
261.3896947261681
 20
19.535821078445942
 30
0.0
 42
0.0175922030051816
  0
VERTEX
  5
6E
  8
0
  6
CONTINUOUS
 62
     2
 10
261.43853929444839
 20
19.563284218116831
 30
0.0
 42
0.0149415819585693
  0
VERTEX
  5
6F
  8
0
  6
CONTINUOUS
 62
     2
 10
261.4874202944327
 20
19.59506602641402
 30
0.0
 42
0.0126760238010698
  0
VERTEX
  5
70
  8
0
  6
CONTINUOUS
 62
     2
 10
261.53627059831717
 20
19.63076722442576
 30
0.0
 42
0.0107499688244239
  0
VERTEX
  5
71
  8
0
  6
CONTINUOUS
 62
     2
 10
261.58502307829798
 20
19.669988533240371
 30
0.0
 42
0.0091106230577098
  0
VERTEX
  5
72
  8
0
  6
CONTINUOUS
 62
     2
 10
261.63361060657132
 20
19.71233067394612
 30
0.0
 42
0.0077071314139612
  0
VERTEX
  5
73
  8
0
  6
CONTINUOUS
 62
     2
 10
261.68196605533359
 20
19.757394367631321
 30
0.0
 42
0.0064941875520689
  0
VERTEX
  5
74
  8
0
  6
CONTINUOUS
 62
     2
 10
261.73002229678059
 20
19.804780335384262
 30
0.0
 42
0.0054328157140224
  0
VERTEX
  5
75
  8
0
  6
CONTINUOUS
 62
     2
 10
261.77771220310871
 20
19.854089298293228
 30
0.0
 42
0.0044898617437359
  0
VERTEX
  5
76
  8
0
  6
CONTINUOUS
 62
     2
 10
261.82496864651421
 20
19.904921977446481
 30
0.0
 42
0.003636975794633
  0
VERTEX
  5
77
  8
0
  6
CONTINUOUS
 62
     2
 10
261.87172449919302
 20
19.956879093932379
 30
0.0
 42
0.0028494454394075
  0
VERTEX
  5
78
  8
0
  6
CONTINUOUS
 62
     2
 10
261.9179126333417
 20
20.009561368839169
 30
0.0
  0
VERTEX
  5
79
  8
0
  6
CONTINUOUS
 62
     2
 10
261.94311923184262
 20
20.038762812242801
 30
0.0
 42
-0.0001135354974189
  0
VERTEX
  5
7A
  8
0
  6
CONTINUOUS
 62
     2
 10
261.99313608665301
 20
20.097001126294721
 30
0.0
 42
-0.0030221088734621
  0
VERTEX
  5
7B
  8
0
  6
CONTINUOUS
 62
     2
 10
262.04292872418063
 20
20.15425046588771
 30
0.0
 42
-0.0061082575121861
  0
VERTEX
  5
7C
  8
0
  6
CONTINUOUS
 62
     2
 10
262.09286223119301
 20
20.209587378079672
 30
0.0
 42
-0.0094872332768037
  0
VERTEX
  5
7D
  8
0
  6
CONTINUOUS
 62
     2
 10
262.14330169445708
 20
20.26208840992852
 30
0.0
 42
-0.0132716770002166
  0
VERTEX
  5
7E
  8
0
  6
CONTINUOUS
 62
     2
 10
262.19461220074021
 20
20.310830108492141
 30
0.0
 42
-0.0175485735038223
  0
VERTEX
  5
7F
  8
0
  6
CONTINUOUS
 62
     2
 10
262.24715883680949
 20
20.35488902082842
 30
0.0
 42
-0.0223291293357882
  0
VERTEX
  5
80
  8
0
  6
CONTINUOUS
 62
     2
 10
262.30130668943212
 20
20.393341693995261
 30
0.0
 42
-0.0274605033941383
  0
VERTEX
  5
81
  8
0
  6
CONTINUOUS
 62
     2
 10
262.3574208453752
 20
20.425264675050549
 30
0.0
 42
-0.0325135503491729
  0
VERTEX
  5
82
  8
0
  6
CONTINUOUS
 62
     2
 10
262.4158663914061
 20
20.449734511052188
 30
0.0
 42
-0.0367311209326273
  0
VERTEX
  5
83
  8
0
  6
CONTINUOUS
 62
     2
 10
262.47700841429207
 20
20.465827749058072
 30
0.0
 42
-0.0391958742661704
  0
VERTEX
  5
84
  8
0
  6
CONTINUOUS
 62
     2
 10
262.5412120008001
 20
20.472620936126098
 30
0.0
 42
-0.0335625704585273
  0
VERTEX
  5
85
  8
0
  6
CONTINUOUS
 62
     2
 10
262.60412097725862
 20
20.469790913342919
 30
0.0
 42
-0.0284366409348994
  0
VERTEX
  5
86
  8
0
  6
CONTINUOUS
 62
     2
 10
262.66469564745972
 20
20.459241035267219
 30
0.0
 42
-0.024470820217341
  0
VERTEX
  5
87
  8
0
  6
CONTINUOUS
 62
     2
 10
262.72635174164282
 20
20.44172924450568
 30
0.0
 42
-0.021804740770236
  0
VERTEX
  5
88
  8
0
  6
CONTINUOUS
 62
     2
 10
262.78801151940468
 20
20.417939392609071
 30
0.0
 42
-0.0202152300192136
  0
VERTEX
  5
89
  8
0
  6
CONTINUOUS
 62
     2
 10
262.84859724034271
 20
20.388555331128149
 30
0.0
 42
-0.0195561884285186
  0
VERTEX
  5
8A
  8
0
  6
CONTINUOUS
 62
     2
 10
262.90703116405359
 20
20.354260911613672
 30
0.0
 42
-0.0197697161007494
  0
VERTEX
  5
8B
  8
0
  6
CONTINUOUS
 62
     2
 10
262.96223555013421
 20
20.315739985616371
 30
0.0
 42
-0.0208883350727715
  0
VERTEX
  5
8C
  8
0
  6
CONTINUOUS
 62
     2
 10
263.01313265818169
 20
20.273676404687009
 30
0.0
 42
-0.0230407216313144
  0
VERTEX
  5
8D
  8
0
  6
CONTINUOUS
 62
     2
 10
263.05864474779321
 20
20.228754020376329
 30
0.0
 42
-0.0264594796121354
  0
VERTEX
  5
8E
  8
0
  6
CONTINUOUS
 62
     2
 10
263.0976940785655
 20
20.181656684235129
 30
0.0
 42
-0.0314706127623358
  0
VERTEX
  5
8F
  8
0
  6
CONTINUOUS
 62
     2
 10
263.12920291009573
 20
20.13306824781408
 30
0.0
 42
-0.0383983868490771
  0
VERTEX
  5
90
  8
0
  6
CONTINUOUS
 62
     2
 10
263.15209350198057
 20
20.08367256266401
 30
0.0
 42
-0.0472263918506344
  0
VERTEX
  5
91
  8
0
  6
CONTINUOUS
 62
     2
 10
263.16528811381721
 20
20.034153480335618
 30
0.0
 42
-0.0558646108545727
  0
VERTEX
  5
92
  8
0
  6
CONTINUOUS
 62
     2
 10
263.16775332151718
 20
19.985250554349548
 30
0.0
 42
-0.0539250466695431
  0
VERTEX
  5
93
  8
0
  6
CONTINUOUS
 62
     2
 10
263.15941948671798
 20
19.93746009463862
 30
0.0
 42
-0.0477440548905513
  0
VERTEX
  5
94
  8
0
  6
CONTINUOUS
 62
     2
 10
263.14110700478739
 20
19.891041050580249
 30
0.0
 42
-0.0404590439162395
  0
VERTEX
  5
95
  8
0
  6
CONTINUOUS
 62
     2
 10
263.11366583700737
 20
19.846309250128279
 30
0.0
 42
-0.0337505695410896
  0
VERTEX
  5
96
  8
0
  6
CONTINUOUS
 62
     2
 10
263.07794594466071
 20
19.803580521236501
 30
0.0
 42
-0.0282815520260948
  0
VERTEX
  5
97
  8
0
  6
CONTINUOUS
 62
     2
 10
263.03479728902983
 20
19.76317069185869
 30
0.0
 42
-0.0241030075132728
  0
VERTEX
  5
98
  8
0
  6
CONTINUOUS
 62
     2
 10
262.98506983139731
 20
19.725395589948668
 30
0.0
 42
-0.0210386578408325
  0
VERTEX
  5
99
  8
0
  6
CONTINUOUS
 62
     2
 10
262.92961353304509
 20
19.690571043460231
 30
0.0
 42
-0.0188779842356245
  0
VERTEX
  5
9A
  8
0
  6
CONTINUOUS
 62
     2
 10
262.86927835525631
 20
19.659012880347209
 30
0.0
 42
-0.0174447065885622
  0
VERTEX
  5
9B
  8
0
  6
CONTINUOUS
 62
     2
 10
262.80491425931291
 20
19.631036928563368
 30
0.0
 42
-0.0166114117394227
  0
VERTEX
  5
9C
  8
0
  6
CONTINUOUS
 62
     2
 10
262.73737120649753
 20
19.606959016062518
 30
0.0
 42
-0.0162963915560129
  0
VERTEX
  5
9D
  8
0
  6
CONTINUOUS
 62
     2
 10
262.6674991580926
 20
19.587094970798461
 30
0.0
 42
-0.0164568609322645
  0
VERTEX
  5
9E
  8
0
  6
CONTINUOUS
 62
     2
 10
262.5961480753806
 20
19.57176062072503
 30
0.0
 42
-0.0170829891000768
  0
VERTEX
  5
9F
  8
0
  6
CONTINUOUS
 62
     2
 10
262.52416791964379
 20
19.561271793795981
 30
0.0
 42
-0.0181932699313902
  0
VERTEX
  5
A0
  8
0
  6
CONTINUOUS
 62
     2
 10
262.4524086521651
 20
19.555944317965139
 30
0.0
 42
-0.0198298484046271
  0
VERTEX
  5
A1
  8
0
  6
CONTINUOUS
 62
     2
 10
262.38172023422658
 20
19.556094021186318
 30
0.0
 42
-0.0220505755225472
  0
VERTEX
  5
A2
  8
0
  6
CONTINUOUS
 62
     2
 10
262.31295262711069
 20
19.562036731413301
 30
0.0
 42
-0.0249117165318714
  0
VERTEX
  5
A3
  8
0
  6
CONTINUOUS
 62
     2
 10
262.24695579209998
 20
19.574088276599891
 30
0.0
 42
-0.0284312431669154
  0
VERTEX
  5
A4
  8
0
  6
CONTINUOUS
 62
     2
 10
262.18457969047699
 20
19.592564484699899
 30
0.0
 42
-0.0325203902426967
  0
VERTEX
  5
A5
  8
0
  6
CONTINUOUS
 62
     2
 10
262.12667428352398
 20
19.61778118366712
 30
0.0
 42
-0.0368817076080984
  0
VERTEX
  5
A6
  8
0
  6
CONTINUOUS
 62
     2
 10
262.07408953252371
 20
19.650054201455369
 30
0.0
 42
-0.0409164776882131
  0
VERTEX
  5
A7
  8
0
  6
CONTINUOUS
 62
     2
 10
262.02767539875811
 20
19.689699366018441
 30
0.0
 42
-0.0437638600406959
  0
VERTEX
  5
A8
  8
0
  6
CONTINUOUS
 62
     2
 10
261.98828184351021
 20
19.737032505310129
 30
0.0
 42
-0.0446033708802561
  0
VERTEX
  5
A9
  8
0
  6
CONTINUOUS
 62
     2
 10
261.95675882806211
 20
19.79236944728423
 30
0.0
 42
-0.0431175722981366
  0
VERTEX
  5
AA
  8
0
  6
CONTINUOUS
 62
     2
 10
261.93395631369629
 20
19.856026019894589
 30
0.0
 42
-0.039705405976979
  0
VERTEX
  5
AB
  8
0
  6
CONTINUOUS
 62
     2
 10
261.92072426169528
 20
19.928318051094958
 30
0.0
 42
-0.0352119594436891
  0
VERTEX
  5
AC
  8
0
  6
CONTINUOUS
 62
     2
 10
261.9179126333417
 20
20.009561368839169
 30
0.0
  0
SEQEND
  5
AD
  8
0
  6
CONTINUOUS
 62
     2
  0
POLYLINE
  5
AE
  8
0
  6
CONTINUOUS
 62
     2
 66
     1
 10
0.0
 20
0.0
 30
0.0
  0
VERTEX
  5
AF
  8
0
  6
CONTINUOUS
 62
     2
 10
300.9311129147199
 20
20.009561368839169
 30
0.0
 42
0.0122089330337413
  0
VERTEX
  5
B0
  8
0
  6
CONTINUOUS
 62
     2
 10
300.97024519441698
 20
19.913623878497301
 30
0.0
 42
0.01414105059108
  0
VERTEX
  5
B1
  8
0
  6
CONTINUOUS
 62
     2
 10
301.01048795067948
 20
19.82839351936904
 30
0.0
 42
0.0164360476561737
  0
VERTEX
  5
B2
  8
0
  6
CONTINUOUS
 62
     2
 10
301.05177405570299
 20
19.75347101254269
 30
0.0
 42
0.0191317346967763
  0
VERTEX
  5
B3
  8
0
  6
CONTINUOUS
 62
     2
 10
301.09403638168402
 20
19.688457079106531
 30
0.0
 42
0.0222303245920969
  0
VERTEX
  5
B4
  8
0
  6
CONTINUOUS
 62
     2
 10
301.13720780081871
 20
19.632952440148859
 30
0.0
 42
0.0256594167436427
  0
VERTEX
  5
B5
  8
0
  6
CONTINUOUS
 62
     2
 10
301.18122118530312
 20
19.58655781675796
 30
0.0
 42
0.0292200161711522
  0
VERTEX
  5
B6
  8
0
  6
CONTINUOUS
 62
     2
 10
301.22600940733361
 20
19.54887393002214
 30
0.0
 42
0.0325440106670032
  0
VERTEX
  5
B7
  8
0
  6
CONTINUOUS
 62
     2
 10
301.271505339106
 20
19.519501501029669
 30
0.0
 42
0.035113178321992
  0
VERTEX
  5
B8
  8
0
  6
CONTINUOUS
 62
     2
 10
301.31764185281702
 20
19.498041250868859
 30
0.0
 42
0.0363953274801309
  0
VERTEX
  5
B9
  8
0
  6
CONTINUOUS
 62
     2
 10
301.36435182066242
 20
19.484093900627979
 30
0.0
 42
0.0360737199993627
  0
VERTEX
  5
BA
  8
0
  6
CONTINUOUS
 62
     2
 10
301.41156811483859
 20
19.477260171395351
 30
0.0
 42
0.0342176667786222
  0
VERTEX
  5
BB
  8
0
  6
CONTINUOUS
 62
     2
 10
301.4592236075415
 20
19.477140784259252
 30
0.0
 42
0.031243272098111
  0
VERTEX
  5
BC
  8
0
  6
CONTINUOUS
 62
     2
 10
301.50725117096772
 20
19.48333646030796
 30
0.0
 42
0.0277010143015724
  0
VERTEX
  5
BD
  8
0
  6
CONTINUOUS
 62
     2
 10
301.55558367731288
 20
19.49544792062979
 30
0.0
 42
0.0240664811824157
  0
VERTEX
  5
BE
  8
0
  6
CONTINUOUS
 62
     2
 10
301.60415399877382
 20
19.513075886313011
 30
0.0
 42
0.020647266373485
  0
VERTEX
  5
BF
  8
0
  6
CONTINUOUS
 62
     2
 10
301.65289500754608
 20
19.535821078445942
 30
0.0
 42
0.0175922030051816
  0
VERTEX
  5
C0
  8
0
  6
CONTINUOUS
 62
     2
 10
301.70173957582648
 20
19.563284218116831
 30
0.0
 42
0.0149415819585693
  0
VERTEX
  5
C1
  8
0
  6
CONTINUOUS
 62
     2
 10
301.75062057581079
 20
19.59506602641402
 30
0.0
 42
0.0126760238021637
  0
VERTEX
  5
C2
  8
0
  6
CONTINUOUS
 62
     2
 10
301.79947087969532
 20
19.63076722442576
 30
0.0
 42
0.0107499688238609
  0
VERTEX
  5
C3
  8
0
  6
CONTINUOUS
 62
     2
 10
301.84822335967601
 20
19.669988533240371
 30
0.0
 42
0.0091106230579973
  0
VERTEX
  5
C4
  8
0
  6
CONTINUOUS
 62
     2
 10
301.8968108879493
 20
19.71233067394612
 30
0.0
 42
0.0077071314142543
  0
VERTEX
  5
C5
  8
0
  6
CONTINUOUS
 62
     2
 10
301.94516633671151
 20
19.757394367631321
 30
0.0
 42
0.006494187552659
  0
VERTEX
  5
C6
  8
0
  6
CONTINUOUS
 62
     2
 10
301.99322257815851
 20
19.804780335384262
 30
0.0
 42
0.0054328157137246
  0
VERTEX
  5
C7
  8
0
  6
CONTINUOUS
 62
     2
 10
302.04091248448691
 20
19.854089298293228
 30
0.0
 42
0.0044898617431361
  0
VERTEX
  5
C8
  8
0
  6
CONTINUOUS
 62
     2
 10
302.0881689278923
 20
19.904921977446481
 30
0.0
 42
0.003636975794332
  0
VERTEX
  5
C9
  8
0
  6
CONTINUOUS
 62
     2
 10
302.13492478057123
 20
19.956879093932379
 30
0.0
 42
0.0028494454394075
  0
VERTEX
  5
CA
  8
0
  6
CONTINUOUS
 62
     2
 10
302.1811129147199
 20
20.009561368839169
 30
0.0
  0
VERTEX
  5
CB
  8
0
  6
CONTINUOUS
 62
     2
 10
302.20631951322059
 20
20.038762812242801
 30
0.0
 42
-0.0001135354988197
  0
VERTEX
  5
CC
  8
0
  6
CONTINUOUS
 62
     2
 10
302.25633636803087
 20
20.097001126294721
 30
0.0
 42
-0.0030221088740261
  0
VERTEX
  5
CD
  8
0
  6
CONTINUOUS
 62
     2
 10
302.30612900555877
 20
20.15425046588771
 30
0.0
 42
-0.0061082575124692
  0
VERTEX
  5
CE
  8
0
  6
CONTINUOUS
 62
     2
 10
302.35606251257099
 20
20.209587378079672
 30
0.0
 42
-0.0094872332768052
  0
VERTEX
  5
CF
  8
0
  6
CONTINUOUS
 62
     2
 10
302.40650197583511
 20
20.26208840992852
 30
0.0
 42
-0.0132716770002166
  0
VERTEX
  5
D0
  8
0
  6
CONTINUOUS
 62
     2
 10
302.4578124821183
 20
20.310830108492141
 30
0.0
 42
-0.0175485735027443
  0
VERTEX
  5
D1
  8
0
  6
CONTINUOUS
 62
     2
 10
302.51035911818752
 20
20.35488902082842
 30
0.0
 42
-0.0223291293342683
  0
VERTEX
  5
D2
  8
0
  6
CONTINUOUS
 62
     2
 10
302.56450697080999
 20
20.393341693995261
 30
0.0
 42
-0.027460503393903
  0
VERTEX
  5
D3
  8
0
  6
CONTINUOUS
 62
     2
 10
302.62062112675312
 20
20.425264675050549
 30
0.0
 42
-0.0325135503495188
  0
VERTEX
  5
D4
  8
0
  6
CONTINUOUS
 62
     2
 10
302.67906667278407
 20
20.449734511052188
 30
0.0
 42
-0.0367311209325952
  0
VERTEX
  5
D5
  8
0
  6
CONTINUOUS
 62
     2
 10
302.74020869567022
 20
20.465827749058072
 30
0.0
 42
-0.0391958742664608
  0
VERTEX
  5
D6
  8
0
  6
CONTINUOUS
 62
     2
 10
302.80441228217819
 20
20.472620936126098
 30
0.0
 42
-0.0335625704585379
  0
VERTEX
  5
D7
  8
0
  6
CONTINUOUS
 62
     2
 10
302.86732125863648
 20
20.469790913342919
 30
0.0
 42
-0.0284366409348749
  0
VERTEX
  5
D8
  8
0
  6
CONTINUOUS
 62
     2
 10
302.92789592883781
 20
20.459241035267219
 30
0.0
 42
-0.0244708202175641
  0
VERTEX
  5
D9
  8
0
  6
CONTINUOUS
 62
     2
 10
302.98955202302079
 20
20.44172924450568
 30
0.0
 42
-0.0218047407697878
  0
VERTEX
  5
DA
  8
0
  6
CONTINUOUS
 62
     2
 10
303.05121180078282
 20
20.417939392609071
 30
0.0
 42
-0.020215230019228
  0
VERTEX
  5
DB
  8
0
  6
CONTINUOUS
 62
     2
 10
303.11179752172092
 20
20.388555331128149
 30
0.0
 42
-0.0195561884293388
  0
VERTEX
  5
DC
  8
0
  6
CONTINUOUS
 62
     2
 10
303.17023144543163
 20
20.354260911613672
 30
0.0
 42
-0.019769716100734
  0
VERTEX
  5
DD
  8
0
  6
CONTINUOUS
 62
     2
 10
303.22543583151241
 20
20.315739985616371
 30
0.0
 42
-0.0208883350727889
  0
VERTEX
  5
DE
  8
0
  6
CONTINUOUS
 62
     2
 10
303.27633293955978
 20
20.273676404687009
 30
0.0
 42
-0.0230407216303784
  0
VERTEX
  5
DF
  8
0
  6
CONTINUOUS
 62
     2
 10
303.32184502917141
 20
20.228754020376329
 30
0.0
 42
-0.0264594796118029
  0
VERTEX
  5
E0
  8
0
  6
CONTINUOUS
 62
     2
 10
303.36089435994359
 20
20.181656684235129
 30
0.0
 42
-0.0314706127623358
  0
VERTEX
  5
E1
  8
0
  6
CONTINUOUS
 62
     2
 10
303.39240319147387
 20
20.13306824781408
 30
0.0
 42
-0.0383983868490771
  0
VERTEX
  5
E2
  8
0
  6
CONTINUOUS
 62
     2
 10
303.41529378335878
 20
20.08367256266401
 30
0.0
 42
-0.0472263918511685
  0
VERTEX
  5
E3
  8
0
  6
CONTINUOUS
 62
     2
 10
303.42848839519547
 20
20.034153480335618
 30
0.0
 42
-0.0558646108528583
  0
VERTEX
  5
E4
  8
0
  6
CONTINUOUS
 62
     2
 10
303.43095360289527
 20
19.985250554349548
 30
0.0
 42
-0.0539250466689575
  0
VERTEX
  5
E5
  8
0
  6
CONTINUOUS
 62
     2
 10
303.42261976809613
 20
19.93746009463862
 30
0.0
 42
-0.0477440548905225
  0
VERTEX
  5
E6
  8
0
  6
CONTINUOUS
 62
     2
 10
303.40430728616531
 20
19.891041050580249
 30
0.0
 42
-0.0404590439191422
  0
VERTEX
  5
E7
  8
0
  6
CONTINUOUS
 62
     2
 10
303.37686611838541
 20
19.846309250128279
 30
0.0
 42
-0.0337505695402743
  0
VERTEX
  5
E8
  8
0
  6
CONTINUOUS
 62
     2
 10
303.34114622603892
 20
19.803580521236501
 30
0.0
 42
-0.0282815520250809
  0
VERTEX
  5
E9
  8
0
  6
CONTINUOUS
 62
     2
 10
303.29799757040797
 20
19.76317069185869
 30
0.0
 42
-0.0241030075135479
  0
VERTEX
  5
EA
  8
0
  6
CONTINUOUS
 62
     2
 10
303.24827011277529
 20
19.725395589948668
 30
0.0
 42
-0.021038657841545
  0
VERTEX
  5
EB
  8
0
  6
CONTINUOUS
 62
     2
 10
303.1928138144234
 20
19.690571043460231
 30
0.0
 42
-0.018877984236222
  0
VERTEX
  5
EC
  8
0
  6
CONTINUOUS
 62
     2
 10
303.1324786366344
 20
19.659012880347209
 30
0.0
 42
-0.0174447065885923
  0
VERTEX
  5
ED
  8
0
  6
CONTINUOUS
 62
     2
 10
303.068114540691
 20
19.631036928563368
 30
0.0
 42
-0.0166114117394092
  0
VERTEX
  5
EE
  8
0
  6
CONTINUOUS
 62
     2
 10
303.00057148787562
 20
19.606959016062518
 30
0.0
 42
-0.0162963915557862
  0
VERTEX
  5
EF
  8
0
  6
CONTINUOUS
 62
     2
 10
302.93069943947069
 20
19.587094970798461
 30
0.0
 42
-0.0164568609325224
  0
VERTEX
  5
F0
  8
0
  6
CONTINUOUS
 62
     2
 10
302.85934835675857
 20
19.57176062072503
 30
0.0
 42
-0.0170829891000768
  0
VERTEX
  5
F1
  8
0
  6
CONTINUOUS
 62
     2
 10
302.78736820102199
 20
19.561271793795981
 30
0.0
 42
-0.0181932699314627
  0
VERTEX
  5
F2
  8
0
  6
CONTINUOUS
 62
     2
 10
302.71560893354308
 20
19.555944317965139
 30
0.0
 42
-0.0198298484046421
  0
VERTEX
  5
F3
  8
0
  6
CONTINUOUS
 62
     2
 10
302.64492051560472
 20
19.556094021186318
 30
0.0
 42
-0.0220505755225996
  0
VERTEX
  5
F4
  8
0
  6
CONTINUOUS
 62
     2
 10
302.57615290848878
 20
19.562036731413301
 30
0.0
 42
-0.0249117165320777
  0
VERTEX
  5
F5
  8
0
  6
CONTINUOUS
 62
     2
 10
302.51015607347819
 20
19.574088276599891
 30
0.0
 42
-0.0284312431673597
  0
VERTEX
  5
F6
  8
0
  6
CONTINUOUS
 62
     2
 10
302.44777997185508
 20
19.592564484699899
 30
0.0
 42
-0.0325203902425173
  0
VERTEX
  5
F7
  8
0
  6
CONTINUOUS
 62
     2
 10
302.38987456490219
 20
19.61778118366712
 30
0.0
 42
-0.0368817076087882
  0
VERTEX
  5
F8
  8
0
  6
CONTINUOUS
 62
     2
 10
302.33728981390169
 20
19.650054201455369
 30
0.0
 42
-0.0409164776876098
  0
VERTEX
  5
F9
  8
0
  6
CONTINUOUS
 62
     2
 10
302.29087568013642
 20
19.689699366018441
 30
0.0
 42
-0.0437638600406959
  0
VERTEX
  5
FA
  8
0
  6
CONTINUOUS
 62
     2
 10
302.25148212488841
 20
19.737032505310129
 30
0.0
 42
-0.0446033708802561
  0
VERTEX
  5
FB
  8
0
  6
CONTINUOUS
 62
     2
 10
302.21995910944008
 20
19.79236944728423
 30
0.0
 42
-0.0431175722969515
  0
VERTEX
  5
FC
  8
0
  6
CONTINUOUS
 62
     2
 10
302.19715659507438
 20
19.856026019894589
 30
0.0
 42
-0.0397054059777493
  0
VERTEX
  5
FD
  8
0
  6
CONTINUOUS
 62
     2
 10
302.18392454307337
 20
19.928318051094958
 30
0.0
 42
-0.0352119594433404
  0
VERTEX
  5
FE
  8
0
  6
CONTINUOUS
 62
     2
 10
302.1811129147199
 20
20.009561368839169
 30
0.0
  0
SEQEND
  5
FF
  8
0
  6
CONTINUOUS
 62
     2
  0
LINE
  5
100
  8
0
  6
CONTINUOUS
 62
     4
 10
265.4179126333413
 20
39.0959551363486
 30
0.0
 11
274.15849703587622
 21
39.0959551363486
 31
0.0
  0
LINE
  5
102
  8
0
  6
CONTINUOUS
 62
     4
 10
265.4179126333413
 20
62.940296412657979
 30
0.0
 11
274.15849703587622
 21
62.940296412657979
 31
0.0
  0
LINE
  5
2DD
  8
0
  6
CENTER
 62
     4
 10
328.75514815185051
 20
32.095955136348522
 30
0.0
 11
336.75514815185051
 21
32.095955136348522
 31
0.0
  0
LINE
  5
2DE
  8
0
  6
CENTER
 62
     4
 10
328.7961202583985
 20
43.093917669254289
 30
0.0
 11
336.7961202583985
 21
43.093917669254289
 31
0.0
  0
LINE
  5
2DF
  8
0
  6
CONTINUOUS
 62
     7
 10
333.90593937215442
 20
21.236510373838449
 30
0.0
 11
333.90593937215442
 21
25.843917669254282
 31
0.0
  0
LINE
  5
2E0
  8
0
  6
CONTINUOUS
 62
     7
 10
331.40593937215442
 20
21.236510373838449
 30
0.0
 11
331.40593937215442
 21
25.843917669254282
 31
0.0
  0
LINE
  5
2E1
  8
0
  6
CENTER
 62
     4
 10
332.65593937215442
 20
37.52507982525416
 30
0.0
 11
332.65593937215442
 21
40.693078842482173
 31
0.0
  0
LINE
  5
2E2
  8
0
  6
CONTINUOUS
 62
     7
 10
363.58888530835588
 20
60.690296412657972
 30
0.0
 11
373.58888530835583
 21
60.690296412657972
 31
0.0
  0
LINE
  5
2E3
  8
0
  6
CONTINUOUS
 62
     7
 10
370.03888530835661
 20
65.190296412657972
 30
0.0
 11
370.03888530835661
 21
60.690296412657972
 31
0.0
  0
LINE
  5
2E4
  8
0
  6
CONTINUOUS
 62
     7
 10
363.58888530835588
 20
65.190296412657972
 30
0.0
 11
373.58888530835583
 21
65.190296412657972
 31
0.0
  0
LINE
  5
2E5
  8
0
  6
CONTINUOUS
 62
     7
 10
363.58888530835588
 20
60.690296412657972
 30
0.0
 11
363.58888530835588
 21
65.190296412657972
 31
0.0
  0
LINE
  5
2E6
  8
0
  6
CENTER
 62
     4
 10
371.83888530835583
 20
65.798449851292077
 30
0.0
 11
371.83888530835583
 21
60.300957315848677
 31
0.0
  0
LINE
  5
2E7
  8
0
  6
CONTINUOUS
 62
     7
 10
373.58888530835583
 20
65.190296412657972
 30
0.0
 11
373.58888530835583
 21
60.690296412657972
 31
0.0
  0
LINE
  5
2E8
  8
0
  6
CONTINUOUS
 62
     7
 10
330.40593937215442
 20
30.34391766925431
 30
0.0
 11
334.90593937215402
 21
30.34391766925431
 31
0.0
  0
LINE
  5
2E9
  8
0
  6
CONTINUOUS
 62
     7
 10
330.40593937215442
 20
25.843917669254282
 30
0.0
 11
330.40593937215442
 21
46.343917669254267
 31
0.0
  0
LINE
  5
2EA
  8
0
  6
CENTER
 62
     4
 10
331.20387808126259
 20
39.093917669254303
 30
0.0
 11
334.1918920647114
 21
39.093917669254303
 31
0.0
  0
LINE
  5
2EB
  8
0
  6
CONTINUOUS
 62
     7
 10
369.38357326209677
 20
25.84563187364099
 30
0.0
 11
370.58888530835583
 21
30.343917669254289
 31
0.0
  0
LINE
  5
2EC
  8
0
  6
CONTINUOUS
 62
     7
 10
368.33888530835588
 20
25.84563187364099
 30
0.0
 11
368.338885308356
 21
21.236510373838449
 31
0.0
  0
LINE
  5
2ED
  8
0
  6
CONTINUOUS
 62
     7
 10
364.79419735461471
 20
25.84563187364099
 30
0.0
 11
369.38357326209677
 21
25.84563187364099
 31
0.0
  0
LINE
  5
2EE
  8
0
  6
CONTINUOUS
 62
     7
 10
365.83888530835571
 20
25.84563187364099
 30
0.0
 11
365.838885308356
 21
21.236510373838449
 31
0.0
  0
LINE
  5
2EF
  8
0
  6
CONTINUOUS
 62
     7
 10
363.58888530835588
 20
30.343917669254068
 30
0.0
 11
364.79419735461471
 21
25.84563187364099
 31
0.0
  0
LINE
  5
2F0
  8
0
  6
CONTINUOUS
 62
     7
 10
363.58888530835588
 20
30.343917669254068
 30
0.0
 11
363.58888530835588
 21
46.343917669254267
 31
0.0
  0
LINE
  5
2F1
  8
0
  6
CONTINUOUS
 62
     7
 10
373.58888530835583
 20
44.843917669254289
 30
0.0
 11
370.03888530835661
 21
44.843917669254289
 31
0.0
  0
LINE
  5
2F2
  8
0
  6
CONTINUOUS
 62
     7
 10
373.58888530835583
 20
44.843917669254289
 30
0.0
 11
373.58888530835583
 21
30.343917669254289
 31
0.0
  0
LINE
  5
2F3
  8
0
  6
CONTINUOUS
 62
     7
 10
373.58888530835583
 20
30.343917669254289
 30
0.0
 11
363.58888530835588
 21
30.343917669254068
 31
0.0
  0
LINE
  5
2F4
  8
0
  6
CONTINUOUS
 62
     7
 10
370.03888530835661
 20
44.843917669254289
 30
0.0
 11
370.03888530835661
 21
46.343917669254267
 31
0.0
  0
LINE
  5
2F5
  8
0
  6
CONTINUOUS
 62
     7
 10
363.58888530835588
 20
46.343917669254267
 30
0.0
 11
370.03888530835661
 21
46.343917669254267
 31
0.0
  0
LINE
  5
2F6
  8
0
  6
CONTINUOUS
 62
     7
 10
334.60593937215401
 20
25.843917669254282
 30
0.0
 11
334.60593937215401
 21
30.343917669254299
 31
0.0
  0
LINE
  5
2F7
  8
0
  6
CONTINUOUS
 62
     7
 10
334.90593937215402
 20
46.343917669254289
 30
0.0
 11
334.90593937215402
 21
30.34391766925431
 31
0.0
  0
LINE
  5
2F8
  8
0
  6
CONTINUOUS
 62
     7
 10
334.90593937215402
 20
46.343917669254289
 30
0.0
 11
330.40593937215442
 21
46.343917669254267
 31
0.0
  0
LINE
  5
2F9
  8
0
  6
CONTINUOUS
 62
     7
 10
334.60593937215401
 20
25.843917669254282
 30
0.0
 11
330.40593937215442
 21
25.843917669254282
 31
0.0
  0
LINE
  5
2FA
  8
0
  6
CENTER
 62
     4
 10
371.83888530835583
 20
33.510957140830982
 30
0.0
 11
371.83888530835583
 21
30.615672768699991
 31
0.0
  0
LINE
  5
2FB
  8
0
  6
CENTER
 62
     4
 10
373.26752651488329
 20
32.095955136348522
 30
0.0
 11
370.40793131837108
 21
32.095955136348522
 31
0.0
  0
LINE
  5
2FC
  8
0
  6
CENTER
 62
     4
 10
370.44243848069527
 20
43.093917669254289
 30
0.0
 11
373.31739985004327
 21
43.093917669254289
 31
0.0
  0
LINE
  5
2FD
  8
0
  6
CENTER
 62
     4
 10
371.83888530835583
 20
44.536433992279989
 30
0.0
 11
371.83888530835583
 21
41.639357535475
 31
0.0
  0
CIRCLE
  5
2FE
  8
0
  6
CONTINUOUS
 62
     7
 10
371.83888530835583
 20
32.095955136348493
 30
0.0
 40
1.1000000000014949
  0
CIRCLE
  5
2FF
  8
0
  6
CONTINUOUS
 62
     7
 10
371.83888530835583
 20
43.093917669254289
 30
0.0
 40
1.0999999999958441
  0
POLYLINE
  5
300
  8
0
  6
CONTINUOUS
 62
     2
 66
     1
 10
0.0
 20
0.0
 30
0.0
  0
VERTEX
  5
301
  8
0
  6
CONTINUOUS
 62
     2
 10
331.40593937215442
 20
21.236510373838449
 30
0.0
 42
0.0093283090543599
  0
VERTEX
  5
302
  8
0
  6
CONTINUOUS
 62
     2
 10
331.44664901069098
 20
21.12772437081043
 30
0.0
 42
0.0108238144422404
  0
VERTEX
  5
303
  8
0
  6
CONTINUOUS
 62
     2
 10
331.48776920596862
 20
21.030258607766939
 30
0.0
 42
0.0126401185420615
  0
VERTEX
  5
304
  8
0
  6
CONTINUOUS
 62
     2
 10
331.52927333906132
 20
20.943718661241679
 30
0.0
 42
0.01484849491208
  0
VERTEX
  5
305
  8
0
  6
CONTINUOUS
 62
     2
 10
331.57113479104339
 20
20.867710107768328
 30
0.0
 42
0.0175240199497711
  0
VERTEX
  5
306
  8
0
  6
CONTINUOUS
 62
     2
 10
331.61332694298937
 20
20.801838523880559
 30
0.0
 42
0.0207287920814862
  0
VERTEX
  5
307
  8
0
  6
CONTINUOUS
 62
     2
 10
331.65582317597352
 20
20.745709486112101
 30
0.0
 42
0.0244754025499711
  0
VERTEX
  5
308
  8
0
  6
CONTINUOUS
 62
     2
 10
331.69859687106998
 20
20.698928570996589
 30
0.0
 42
0.0286611266233137
  0
VERTEX
  5
309
  8
0
  6
CONTINUOUS
 62
     2
 10
331.74162140935363
 20
20.661101355067739
 30
0.0
 42
0.0329766811182882
  0
VERTEX
  5
30A
  8
0
  6
CONTINUOUS
 62
     2
 10
331.78487017189838
 20
20.631833414859219
 30
0.0
 42
0.0368377530070943
  0
VERTEX
  5
30B
  8
0
  6
CONTINUOUS
 62
     2
 10
331.82831653977871
 20
20.61073032690474
 30
0.0
 42
0.0394525763859975
  0
VERTEX
  5
30C
  8
0
  6
CONTINUOUS
 62
     2
 10
331.87193389406889
 20
20.597397667737969
 30
0.0
 42
0.0401201741684313
  0
VERTEX
  5
30D
  8
0
  6
CONTINUOUS
 62
     2
 10
331.9156956158435
 20
20.59144101389262
 30
0.0
 42
0.0386282551004273
  0
VERTEX
  5
30E
  8
0
  6
CONTINUOUS
 62
     2
 10
331.95957508617659
 20
20.592465941902329
 30
0.0
 42
0.0353938549058113
  0
VERTEX
  5
30F
  8
0
  6
CONTINUOUS
 62
     2
 10
332.00354568614279
 20
20.600078028300839
 30
0.0
 42
0.0311956950595954
  0
VERTEX
  5
310
  8
0
  6
CONTINUOUS
 62
     2
 10
332.04758079681631
 20
20.61388284962181
 30
0.0
 42
0.0267756677963717
  0
VERTEX
  5
311
  8
0
  6
CONTINUOUS
 62
     2
 10
332.09165379927151
 20
20.63348598239892
 30
0.0
 42
0.0226205939622186
  0
VERTEX
  5
312
  8
0
  6
CONTINUOUS
 62
     2
 10
332.13573807458249
 20
20.658493003165859
 30
0.0
 42
0.0189568205827954
  0
VERTEX
  5
313
  8
0
  6
CONTINUOUS
 62
     2
 10
332.17980700382429
 20
20.68850948845634
 30
0.0
 42
0.0158364526532883
  0
VERTEX
  5
314
  8
0
  6
CONTINUOUS
 62
     2
 10
332.22383396807078
 20
20.723141014804028
 30
0.0
 42
0.0132224207841112
  0
VERTEX
  5
315
  8
0
  6
CONTINUOUS
 62
     2
 10
332.26779234839631
 20
20.761993158742602
 30
0.0
 42
0.0110435595173015
  0
VERTEX
  5
316
  8
0
  6
CONTINUOUS
 62
     2
 10
332.3116555258751
 20
20.804671496805771
 30
0.0
 42
0.0092231352499774
  0
VERTEX
  5
317
  8
0
  6
CONTINUOUS
 62
     2
 10
332.35539688158212
 20
20.850781605527189
 30
0.0
 42
0.0076910289739434
  0
VERTEX
  5
318
  8
0
  6
CONTINUOUS
 62
     2
 10
332.39898979659102
 20
20.899929061440591
 30
0.0
 42
0.0063875152921841
  0
VERTEX
  5
319
  8
0
  6
CONTINUOUS
 62
     2
 10
332.44240765197651
 20
20.951719441079611
 30
0.0
 42
0.0052632714144776
  0
VERTEX
  5
31A
  8
0
  6
CONTINUOUS
 62
     2
 10
332.48562382881278
 20
21.005758320977971
 30
0.0
 42
0.0042779576923474
  0
VERTEX
  5
31B
  8
0
  6
CONTINUOUS
 62
     2
 10
332.52861170817448
 20
21.061651277669348
 30
0.0
 42
0.0033984333301249
  0
VERTEX
  5
31C
  8
0
  6
CONTINUOUS
 62
     2
 10
332.57134467113582
 20
21.11900388768743
 30
0.0
 42
0.0025970324570289
  0
VERTEX
  5
31D
  8
0
  6
CONTINUOUS
 62
     2
 10
332.61379609877099
 20
21.1774217275659
 30
0.0
 42
0.0018500288164733
  0
VERTEX
  5
31E
  8
0
  6
CONTINUOUS
 62
     2
 10
332.65593937215442
 20
21.236510373838449
 30
0.0
  0
VERTEX
  5
31F
  8
0
  6
CONTINUOUS
 62
     2
 10
332.67962248907997
 20
21.270049469771848
 30
0.0
 42
-0.0008808806373818
  0
VERTEX
  5
320
  8
0
  6
CONTINUOUS
 62
     2
 10
332.72682913067399
 20
21.336891100003101
 30
0.0
 42
-0.0035137100271072
  0
VERTEX
  5
321
  8
0
  6
CONTINUOUS
 62
     2
 10
332.7740918309122
 20
21.402581494485911
 30
0.0
 42
-0.006339382486267
  0
VERTEX
  5
322
  8
0
  6
CONTINUOUS
 62
     2
 10
332.82173320777991
 20
21.466117668939091
 30
0.0
 42
-0.0094956246441418
  0
VERTEX
  5
323
  8
0
  6
CONTINUOUS
 62
     2
 10
332.87007587926189
 20
21.526496639081401
 30
0.0
 42
-0.0131326994423885
  0
VERTEX
  5
324
  8
0
  6
CONTINUOUS
 62
     2
 10
332.91944246334299
 20
21.582715420631651
 30
0.0
 42
-0.0174018876502832
  0
VERTEX
  5
325
  8
0
  6
CONTINUOUS
 62
     2
 10
332.97015557800847
 20
21.633771029308619
 30
0.0
 42
-0.0224152928352862
  0
VERTEX
  5
326
  8
0
  6
CONTINUOUS
 62
     2
 10
333.02253784124298
 20
21.67866048083112
 30
0.0
 42
-0.0281502186833512
  0
VERTEX
  5
327
  8
0
  6
CONTINUOUS
 62
     2
 10
333.07691187103148
 20
21.716380790917921
 30
0.0
 42
-0.0342771789750397
  0
VERTEX
  5
328
  8
0
  6
CONTINUOUS
 62
     2
 10
333.13360028535942
 20
21.7459289752878
 30
0.0
 42
-0.0399658927905842
  0
VERTEX
  5
329
  8
0
  6
CONTINUOUS
 62
     2
 10
333.19292570221131
 20
21.7663020496596
 30
0.0
 42
-0.0439095146873304
  0
VERTEX
  5
32A
  8
0
  6
CONTINUOUS
 62
     2
 10
333.25521073957208
 20
21.77649702975204
 30
0.0
 42
-0.0404213279092834
  0
VERTEX
  5
32B
  8
0
  6
CONTINUOUS
 62
     2
 10
333.31779026795778
 20
21.775835788214589
 30
0.0
 42
-0.0342692026898703
  0
VERTEX
  5
32C
  8
0
  6
CONTINUOUS
 62
     2
 10
333.379843565947
 20
21.76568945282175
 30
0.0
 42
-0.0291129584343723
  0
VERTEX
  5
32D
  8
0
  6
CONTINUOUS
 62
     2
 10
333.44311890148879
 20
21.747020193719191
 30
0.0
 42
-0.0254309593105868
  0
VERTEX
  5
32E
  8
0
  6
CONTINUOUS
 62
     2
 10
333.50652171132469
 20
21.72062339543228
 30
0.0
 42
-0.023012895456522
  0
VERTEX
  5
32F
  8
0
  6
CONTINUOUS
 62
     2
 10
333.5689574321957
 20
21.687294442486451
 30
0.0
 42
-0.0216610893635851
  0
VERTEX
  5
330
  8
0
  6
CONTINUOUS
 62
     2
 10
333.62933150084348
 20
21.647828719407102
 30
0.0
 42
-0.0212458907996727
  0
VERTEX
  5
331
  8
0
  6
CONTINUOUS
 62
     2
 10
333.686549354009
 20
21.60302161071959
 30
0.0
 42
-0.0217157863373507
  0
VERTEX
  5
332
  8
0
  6
CONTINUOUS
 62
     2
 10
333.73951642843372
 20
21.553668500949382
 30
0.0
 42
-0.0230949660178619
  0
VERTEX
  5
333
  8
0
  6
CONTINUOUS
 62
     2
 10
333.78713816085889
 20
21.500564774621829
 30
0.0
 42
-0.0254762103523007
  0
VERTEX
  5
334
  8
0
  6
CONTINUOUS
 62
     2
 10
333.82831998802578
 20
21.444505816262382
 30
0.0
 42
-0.0290009225886812
  0
VERTEX
  5
335
  8
0
  6
CONTINUOUS
 62
     2
 10
333.86196734667578
 20
21.386287010396419
 30
0.0
 42
-0.0337987521612543
  0
VERTEX
  5
336
  8
0
  6
CONTINUOUS
 62
     2
 10
333.88698567355038
 20
21.326703741549348
 30
0.0
 42
-0.0398321643923642
  0
VERTEX
  5
337
  8
0
  6
CONTINUOUS
 62
     2
 10
333.90228040539051
 20
21.266551394246552
 30
0.0
 42
-0.0448958760141468
  0
VERTEX
  5
338
  8
0
  6
CONTINUOUS
 62
     2
 10
333.9068085723178
 20
21.207289187428021
 30
0.0
 42
-0.0434773991188052
  0
VERTEX
  5
339
  8
0
  6
CONTINUOUS
 62
     2
 10
333.90079717964812
 20
21.149493934841949
 30
0.0
 42
-0.0397975367186358
  0
VERTEX
  5
33A
  8
0
  6
CONTINUOUS
 62
     2
 10
333.88511016076188
 20
21.092894801319659
 30
0.0
 42
-0.0354482168935048
  0
VERTEX
  5
33B
  8
0
  6
CONTINUOUS
 62
     2
 10
333.86053643299368
 20
21.037891737361921
 30
0.0
 42
-0.0312024043951972
  0
VERTEX
  5
33C
  8
0
  6
CONTINUOUS
 62
     2
 10
333.8278649136783
 20
20.984884693469539
 30
0.0
 42
-0.0274906506962356
  0
VERTEX
  5
33D
  8
0
  6
CONTINUOUS
 62
     2
 10
333.78788452015039
 20
20.934273620143362
 30
0.0
 42
-0.0244713952213142
  0
VERTEX
  5
33E
  8
0
  6
CONTINUOUS
 62
     2
 10
333.74138416974461
 20
20.88645846788415
 30
0.0
 42
-0.0221515400961648
  0
VERTEX
  5
33F
  8
0
  6
CONTINUOUS
 62
     2
 10
333.68915277979539
 20
20.841839187192711
 30
0.0
 42
-0.0204763790153894
  0
VERTEX
  5
340
  8
0
  6
CONTINUOUS
 62
     2
 10
333.63197926763797
 20
20.800815728569869
 30
0.0
 42
-0.0193793940491331
  0
VERTEX
  5
341
  8
0
  6
CONTINUOUS
 62
     2
 10
333.57065255060672
 20
20.763788042516438
 30
0.0
 42
-0.0188050208343188
  0
VERTEX
  5
342
  8
0
  6
CONTINUOUS
 62
     2
 10
333.50596154603608
 20
20.731156079533189
 30
0.0
 42
-0.0187171224099553
  0
VERTEX
  5
343
  8
0
  6
CONTINUOUS
 62
     2
 10
333.43869517126097
 20
20.70331979012094
 30
0.0
 42
-0.0191007869054657
  0
VERTEX
  5
344
  8
0
  6
CONTINUOUS
 62
     2
 10
333.36964234361642
 20
20.680679124780511
 30
0.0
 42
-0.0199608459717168
  0
VERTEX
  5
345
  8
0
  6
CONTINUOUS
 62
     2
 10
333.2995919804365
 20
20.663634034012691
 30
0.0
 42
-0.021317650369305
  0
VERTEX
  5
346
  8
0
  6
CONTINUOUS
 62
     2
 10
333.22933299905628
 20
20.652584468318292
 30
0.0
 42
-0.0231983984526752
  0
VERTEX
  5
347
  8
0
  6
CONTINUOUS
 62
     2
 10
333.15965431681042
 20
20.647930378198112
 30
0.0
 42
-0.0256201104105885
  0
VERTEX
  5
348
  8
0
  6
CONTINUOUS
 62
     2
 10
333.09134485103328
 20
20.650071714152968
 30
0.0
 42
-0.0285584944224776
  0
VERTEX
  5
349
  8
0
  6
CONTINUOUS
 62
     2
 10
333.02519351905988
 20
20.659408426683662
 30
0.0
 42
-0.0318980359161771
  0
VERTEX
  5
34A
  8
0
  6
CONTINUOUS
 62
     2
 10
332.96198923822482
 20
20.67634046629097
 30
0.0
 42
-0.0353692500606577
  0
VERTEX
  5
34B
  8
0
  6
CONTINUOUS
 62
     2
 10
332.90252092586252
 20
20.701267783475739
 30
0.0
 42
-0.0385070844762806
  0
VERTEX
  5
34C
  8
0
  6
CONTINUOUS
 62
     2
 10
332.84757749930799
 20
20.734590328738761
 30
0.0
 42
-0.040700092772463
  0
VERTEX
  5
34D
  8
0
  6
CONTINUOUS
 62
     2
 10
332.79794787589589
 20
20.77670805258083
 30
0.0
 42
-0.0413859459996687
  0
VERTEX
  5
34E
  8
0
  6
CONTINUOUS
 62
     2
 10
332.7544209729607
 20
20.828020905502751
 30
0.0
 42
-0.0403228211598443
  0
VERTEX
  5
34F
  8
0
  6
CONTINUOUS
 62
     2
 10
332.71778570783738
 20
20.888928838005342
 30
0.0
 42
-0.0377265453437479
  0
VERTEX
  5
350
  8
0
  6
CONTINUOUS
 62
     2
 10
332.68883099786041
 20
20.959831800589409
 30
0.0
 42
-0.0341427430708729
  0
VERTEX
  5
351
  8
0
  6
CONTINUOUS
 62
     2
 10
332.66834576036439
 20
21.04112974375575
 30
0.0
 42
-0.0301758989076454
  0
VERTEX
  5
352
  8
0
  6
CONTINUOUS
 62
     2
 10
332.6571189126841
 20
21.133222618005139
 30
0.0
 42
-0.0262877203645926
  0
VERTEX
  5
353
  8
0
  6
CONTINUOUS
 62
     2
 10
332.65593937215442
 20
21.236510373838449
 30
0.0
  0
SEQEND
  5
354
  8
0
  6
CONTINUOUS
 62
     2
  0
POLYLINE
  5
355
  8
0
  6
CONTINUOUS
 62
     2
 66
     1
 10
0.0
 20
0.0
 30
0.0
  0
VERTEX
  5
356
  8
0
  6
CONTINUOUS
 62
     2
 10
365.838885308356
 20
21.236510373838449
 30
0.0
 42
0.0093283090543686
  0
VERTEX
  5
357
  8
0
  6
CONTINUOUS
 62
     2
 10
365.87959494689278
 20
21.12772437081043
 30
0.0
 42
0.0108238144436973
  0
VERTEX
  5
358
  8
0
  6
CONTINUOUS
 62
     2
 10
365.92071514217031
 20
21.030258607766939
 30
0.0
 42
0.0126401185425758
  0
VERTEX
  5
359
  8
0
  6
CONTINUOUS
 62
     2
 10
365.9622192752629
 20
20.943718661241679
 30
0.0
 42
0.0148484949117931
  0
VERTEX
  5
35A
  8
0
  6
CONTINUOUS
 62
     2
 10
366.00408072724508
 20
20.867710107768328
 30
0.0
 42
0.0175240199503736
  0
VERTEX
  5
35B
  8
0
  6
CONTINUOUS
 62
     2
 10
366.04627287919101
 20
20.801838523880559
 30
0.0
 42
0.0207287920802135
  0
VERTEX
  5
35C
  8
0
  6
CONTINUOUS
 62
     2
 10
366.08876911217487
 20
20.745709486112101
 30
0.0
 42
0.0244754025493153
  0
VERTEX
  5
35D
  8
0
  6
CONTINUOUS
 62
     2
 10
366.13154280727179
 20
20.698928570996589
 30
0.0
 42
0.0286611266243046
  0
VERTEX
  5
35E
  8
0
  6
CONTINUOUS
 62
     2
 10
366.1745673455552
 20
20.661101355067739
 30
0.0
 42
0.0329766811185928
  0
VERTEX
  5
35F
  8
0
  6
CONTINUOUS
 62
     2
 10
366.21781610809978
 20
20.631833414859219
 30
0.0
 42
0.0368377530073798
  0
VERTEX
  5
360
  8
0
  6
CONTINUOUS
 62
     2
 10
366.26126247598029
 20
20.61073032690474
 30
0.0
 42
0.0394525763853688
  0
VERTEX
  5
361
  8
0
  6
CONTINUOUS
 62
     2
 10
366.30487983027052
 20
20.597397667737969
 30
0.0
 42
0.0401201741685676
  0
VERTEX
  5
362
  8
0
  6
CONTINUOUS
 62
     2
 10
366.34864155204508
 20
20.59144101389262
 30
0.0
 42
0.0386282551003425
  0
VERTEX
  5
363
  8
0
  6
CONTINUOUS
 62
     2
 10
366.39252102237828
 20
20.592465941902329
 30
0.0
 42
0.035393854905573
  0
VERTEX
  5
364
  8
0
  6
CONTINUOUS
 62
     2
 10
366.43649162234442
 20
20.600078028300839
 30
0.0
 42
0.0311956950589268
  0
VERTEX
  5
365
  8
0
  6
CONTINUOUS
 62
     2
 10
366.48052673301788
 20
20.61388284962181
 30
0.0
 42
0.026775667796611
  0
VERTEX
  5
366
  8
0
  6
CONTINUOUS
 62
     2
 10
366.52459973547309
 20
20.63348598239892
 30
0.0
 42
0.0226205939619577
  0
VERTEX
  5
367
  8
0
  6
CONTINUOUS
 62
     2
 10
366.5686840107843
 20
20.658493003165859
 30
0.0
 42
0.0189568205824954
  0
VERTEX
  5
368
  8
0
  6
CONTINUOUS
 62
     2
 10
366.61275294002598
 20
20.68850948845634
 30
0.0
 42
0.0158364526520447
  0
VERTEX
  5
369
  8
0
  6
CONTINUOUS
 62
     2
 10
366.65677990427241
 20
20.723141014804028
 30
0.0
 42
0.0132224207841112
  0
VERTEX
  5
36A
  8
0
  6
CONTINUOUS
 62
     2
 10
366.70073828459778
 20
20.761993158742602
 30
0.0
 42
0.0110435595182719
  0
VERTEX
  5
36B
  8
0
  6
CONTINUOUS
 62
     2
 10
366.74460146207679
 20
20.804671496805771
 30
0.0
 42
0.009223135251275
  0
VERTEX
  5
36C
  8
0
  6
CONTINUOUS
 62
     2
 10
366.78834281778347
 20
20.850781605527189
 30
0.0
 42
0.0076910289736198
  0
VERTEX
  5
36D
  8
0
  6
CONTINUOUS
 62
     2
 10
366.83193573279272
 20
20.899929061440591
 30
0.0
 42
0.0063875152905706
  0
VERTEX
  5
36E
  8
0
  6
CONTINUOUS
 62
     2
 10
366.87535358817809
 20
20.951719441079611
 30
0.0
 42
0.0052632714151205
  0
VERTEX
  5
36F
  8
0
  6
CONTINUOUS
 62
     2
 10
366.91856976501458
 20
21.005758320977971
 30
0.0
 42
0.0042779576917074
  0
VERTEX
  5
370
  8
0
  6
CONTINUOUS
 62
     2
 10
366.961557644376
 20
21.061651277669348
 30
0.0
 42
0.0033984333307628
  0
VERTEX
  5
371
  8
0
  6
CONTINUOUS
 62
     2
 10
367.0042906073374
 20
21.11900388768743
 30
0.0
 42
0.0025970324567106
  0
VERTEX
  5
372
  8
0
  6
CONTINUOUS
 62
     2
 10
367.0467420349724
 20
21.1774217275659
 30
0.0
 42
0.0018500288180662
  0
VERTEX
  5
373
  8
0
  6
CONTINUOUS
 62
     2
 10
367.088885308356
 20
21.236510373838449
 30
0.0
  0
VERTEX
  5
374
  8
0
  6
CONTINUOUS
 62
     2
 10
367.11256842528138
 20
21.270049469771848
 30
0.0
 42
-0.0008808806370994
  0
VERTEX
  5
375
  8
0
  6
CONTINUOUS
 62
     2
 10
367.15977506687562
 20
21.336891100003101
 30
0.0
 42
-0.0035137100282462
  0
VERTEX
  5
376
  8
0
  6
CONTINUOUS
 62
     2
 10
367.20703776711389
 20
21.402581494485911
 30
0.0
 42
-0.0063393824865529
  0
VERTEX
  5
377
  8
0
  6
CONTINUOUS
 62
     2
 10
367.25467914398149
 20
21.466117668939091
 30
0.0
 42
-0.0094956246435682
  0
VERTEX
  5
378
  8
0
  6
CONTINUOUS
 62
     2
 10
367.30302181546358
 20
21.526496639081401
 30
0.0
 42
-0.0131326994426739
  0
VERTEX
  5
379
  8
0
  6
CONTINUOUS
 62
     2
 10
367.35238839954462
 20
21.582715420631651
 30
0.0
 42
-0.0174018876519749
  0
VERTEX
  5
37A
  8
0
  6
CONTINUOUS
 62
     2
 10
367.40310151420999
 20
21.633771029308619
 30
0.0
 42
-0.0224152928352941
  0
VERTEX
  5
37B
  8
0
  6
CONTINUOUS
 62
     2
 10
367.4554837774445
 20
21.67866048083112
 30
0.0
 42
-0.0281502186838547
  0
VERTEX
  5
37C
  8
0
  6
CONTINUOUS
 62
     2
 10
367.50985780723329
 20
21.716380790917921
 30
0.0
 42
-0.0342771789750162
  0
VERTEX
  5
37D
  8
0
  6
CONTINUOUS
 62
     2
 10
367.56654622156111
 20
21.7459289752878
 30
0.0
 42
-0.0399658927907641
  0
VERTEX
  5
37E
  8
0
  6
CONTINUOUS
 62
     2
 10
367.62587163841289
 20
21.7663020496596
 30
0.0
 42
-0.0439095146872579
  0
VERTEX
  5
37F
  8
0
  6
CONTINUOUS
 62
     2
 10
367.68815667577371
 20
21.77649702975204
 30
0.0
 42
-0.0404213279092429
  0
VERTEX
  5
380
  8
0
  6
CONTINUOUS
 62
     2
 10
367.75073620415952
 20
21.775835788214589
 30
0.0
 42
-0.0342692026894774
  0
VERTEX
  5
381
  8
0
  6
CONTINUOUS
 62
     2
 10
367.81278950214869
 20
21.76568945282175
 30
0.0
 42
-0.0291129584346158
  0
VERTEX
  5
382
  8
0
  6
CONTINUOUS
 62
     2
 10
367.87606483769048
 20
21.747020193719191
 30
0.0
 42
-0.0254309593107457
  0
VERTEX
  5
383
  8
0
  6
CONTINUOUS
 62
     2
 10
367.93946764752633
 20
21.72062339543228
 30
0.0
 42
-0.023012895457613
  0
VERTEX
  5
384
  8
0
  6
CONTINUOUS
 62
     2
 10
368.00190336839739
 20
21.687294442486451
 30
0.0
 42
-0.0216610893629519
  0
VERTEX
  5
385
  8
0
  6
CONTINUOUS
 62
     2
 10
368.062277437045
 20
21.647828719407102
 30
0.0
 42
-0.0212458907996727
  0
VERTEX
  5
386
  8
0
  6
CONTINUOUS
 62
     2
 10
368.11949529021058
 20
21.60302161071959
 30
0.0
 42
-0.0217157863376182
  0
VERTEX
  5
387
  8
0
  6
CONTINUOUS
 62
     2
 10
368.17246236463518
 20
21.553668500949382
 30
0.0
 42
-0.0230949660169883
  0
VERTEX
  5
388
  8
0
  6
CONTINUOUS
 62
     2
 10
368.22008409706029
 20
21.500564774621829
 30
0.0
 42
-0.0254762103523007
  0
VERTEX
  5
389
  8
0
  6
CONTINUOUS
 62
     2
 10
368.2612659242273
 20
21.444505816262382
 30
0.0
 42
-0.0290009225894122
  0
VERTEX
  5
38A
  8
0
  6
CONTINUOUS
 62
     2
 10
368.29491328287747
 20
21.386287010396419
 30
0.0
 42
-0.0337987521624482
  0
VERTEX
  5
38B
  8
0
  6
CONTINUOUS
 62
     2
 10
368.31993160975179
 20
21.326703741549348
 30
0.0
 42
-0.039832164393231
  0
VERTEX
  5
38C
  8
0
  6
CONTINUOUS
 62
     2
 10
368.33522634159209
 20
21.266551394246552
 30
0.0
 42
-0.0448958760136501
  0
VERTEX
  5
38D
  8
0
  6
CONTINUOUS
 62
     2
 10
368.33975450851949
 20
21.207289187428021
 30
0.0
 42
-0.0434773991197754
  0
VERTEX
  5
38E
  8
0
  6
CONTINUOUS
 62
     2
 10
368.33374311584959
 20
21.149493934841949
 30
0.0
 42
-0.0397975367191011
  0
VERTEX
  5
38F
  8
0
  6
CONTINUOUS
 62
     2
 10
368.3180560969634
 20
21.092894801319659
 30
0.0
 42
-0.0354482168926449
  0
VERTEX
  5
390
  8
0
  6
CONTINUOUS
 62
     2
 10
368.29348236919537
 20
21.037891737361921
 30
0.0
 42
-0.0312024043951972
  0
VERTEX
  5
391
  8
0
  6
CONTINUOUS
 62
     2
 10
368.26081084987982
 20
20.984884693469539
 30
0.0
 42
-0.0274906506951581
  0
VERTEX
  5
392
  8
0
  6
CONTINUOUS
 62
     2
 10
368.22083045635179
 20
20.934273620143362
 30
0.0
 42
-0.0244713952210089
  0
VERTEX
  5
393
  8
0
  6
CONTINUOUS
 62
     2
 10
368.17433010594601
 20
20.88645846788415
 30
0.0
 42
-0.0221515400964506
  0
VERTEX
  5
394
  8
0
  6
CONTINUOUS
 62
     2
 10
368.12209871599703
 20
20.841839187192711
 30
0.0
 42
-0.0204763790151383
  0
VERTEX
  5
395
  8
0
  6
CONTINUOUS
 62
     2
 10
368.06492520383938
 20
20.800815728569869
 30
0.0
 42
-0.0193793940495576
  0
VERTEX
  5
396
  8
0
  6
CONTINUOUS
 62
     2
 10
368.0035984868083
 20
20.763788042516438
 30
0.0
 42
-0.0188050208343188
  0
VERTEX
  5
397
  8
0
  6
CONTINUOUS
 62
     2
 10
367.93890748223748
 20
20.731156079533189
 30
0.0
 42
-0.0187171224098061
  0
VERTEX
  5
398
  8
0
  6
CONTINUOUS
 62
     2
 10
367.87164110746278
 20
20.70331979012094
 30
0.0
 42
-0.0191007869054519
  0
VERTEX
  5
399
  8
0
  6
CONTINUOUS
 62
     2
 10
367.80258827981788
 20
20.680679124780511
 30
0.0
 42
-0.0199608459718392
  0
VERTEX
  5
39A
  8
0
  6
CONTINUOUS
 62
     2
 10
367.73253791663808
 20
20.663634034012691
 30
0.0
 42
-0.0213176503691647
  0
VERTEX
  5
39B
  8
0
  6
CONTINUOUS
 62
     2
 10
367.66227893525797
 20
20.652584468318292
 30
0.0
 42
-0.0231983984525386
  0
VERTEX
  5
39C
  8
0
  6
CONTINUOUS
 62
     2
 10
367.59260025301188
 20
20.647930378198112
 30
0.0
 42
-0.0256201104105874
  0
VERTEX
  5
39D
  8
0
  6
CONTINUOUS
 62
     2
 10
367.52429078723458
 20
20.650071714152968
 30
0.0
 42
-0.0285584944226311
  0
VERTEX
  5
39E
  8
0
  6
CONTINUOUS
 62
     2
 10
367.4581394552614
 20
20.659408426683662
 30
0.0
 42
-0.0318980359161771
  0
VERTEX
  5
39F
  8
0
  6
CONTINUOUS
 62
     2
 10
367.39493517442639
 20
20.67634046629097
 30
0.0
 42
-0.0353692500606577
  0
VERTEX
  5
3A0
  8
0
  6
CONTINUOUS
 62
     2
 10
367.33546686206398
 20
20.701267783475739
 30
0.0
 42
-0.0385070844762806
  0
VERTEX
  5
3A1
  8
0
  6
CONTINUOUS
 62
     2
 10
367.28052343550962
 20
20.734590328738761
 30
0.0
 42
-0.0407000927730017
  0
VERTEX
  5
3A2
  8
0
  6
CONTINUOUS
 62
     2
 10
367.23089381209752
 20
20.77670805258083
 30
0.0
 42
-0.04138594599999
  0
VERTEX
  5
3A3
  8
0
  6
CONTINUOUS
 62
     2
 10
367.18736690916239
 20
20.828020905502751
 30
0.0
 42
-0.0403228211588255
  0
VERTEX
  5
3A4
  8
0
  6
CONTINUOUS
 62
     2
 10
367.1507316440389
 20
20.888928838005342
 30
0.0
 42
-0.037726545343405
  0
VERTEX
  5
3A5
  8
0
  6
CONTINUOUS
 62
     2
 10
367.12177693406193
 20
20.959831800589409
 30
0.0
 42
-0.0341427430708633
  0
VERTEX
  5
3A6
  8
0
  6
CONTINUOUS
 62
     2
 10
367.10129169656591
 20
21.04112974375575
 30
0.0
 42
-0.0301758989079626
  0
VERTEX
  5
3A7
  8
0
  6
CONTINUOUS
 62
     2
 10
367.09006484888567
 20
21.133222618005139
 30
0.0
 42
-0.0262877203634635
  0
VERTEX
  5
3A8
  8
0
  6
CONTINUOUS
 62
     2
 10
367.088885308356
 20
21.236510373838449
 30
0.0
  0
SEQEND
  5
3A9
  8
0
  6
CONTINUOUS
 62
     2
  0
LINE
  5
3C8
  8
0
  6
CONTINUOUS
 62
     4
 10
270.449535857196
 20
61.946483260072263
 30
0.0
 11
274.15849703587622
 21
62.940296412657979
 31
0.0
  0
LINE
  5
3C9
  8
0
  6
CONTINUOUS
 62
     4
 10
274.15849703587622
 20
62.940296412657979
 30
0.0
 11
270.449535857196
 21
63.934109565243709
 31
0.0
  0
LINE
  5
3CA
  8
0
  6
CONTINUOUS
 62
     4
 10
270.449535857196
 20
38.102141983762877
 30
0.0
 11
274.15849703587622
 21
39.0959551363486
 31
0.0
  0
LINE
  5
3CB
  8
0
  6
CONTINUOUS
 62
     4
 10
274.15849703587622
 20
39.0959551363486
 30
0.0
 11
270.449535857196
 21
40.089768288934323
 31
0.0
  0
LINE
  5
3D0
  8
0
  6
CONTINUOUS
 62
     4
 10
354.84830090582102
 20
39.0959551363486
 30
0.0
 11
363.58888530835588
 21
39.0959551363486
 31
0.0
  0
LINE
  5
3D1
  8
0
  6
CONTINUOUS
 62
     4
 10
354.84830090582102
 20
62.940296412657979
 30
0.0
 11
363.58888530835588
 21
62.940296412657979
 31
0.0
  0
LINE
  5
3D2
  8
0
  6
CONTINUOUS
 62
     4
 10
359.8799241296756
 20
61.946483260072263
 30
0.0
 11
363.58888530835588
 21
62.940296412657979
 31
0.0
  0
LINE
  5
3D3
  8
0
  6
CONTINUOUS
 62
     4
 10
363.58888530835588
 20
62.940296412657979
 30
0.0
 11
359.8799241296756
 21
63.934109565243709
 31
0.0
  0
LINE
  5
3D4
  8
0
  6
CONTINUOUS
 62
     4
 10
359.8799241296756
 20
38.102141983762877
 30
0.0
 11
363.58888530835588
 21
39.0959551363486
 31
0.0
  0
LINE
  5
3D5
  8
0
  6
CONTINUOUS
 62
     4
 10
363.58888530835588
 20
39.0959551363486
 30
0.0
 11
359.8799241296756
 21
40.089768288934323
 31
0.0
  0
INSERT
  5
3DD
  8
0
  2
*U4
 10
0.0
 20
0.0
 30
0.0
  0
INSERT
  5
3DE
  8
0
  2
*U5
 10
0.0
 20
0.0
 30
0.0
  0
INSERT
  5
3DF
  8
0
  2
*U6
 10
0.0
 20
0.0
 30
0.0
  0
ENDSEC
  0
EOF
