  0
SECTION
  2
HEADER
  9
$ACADVER
  1
AC1009
  9
$INSBASE
 10
0.0
 20
0.0
 30
0.0
  9
$EXTMIN
 10
72.200066919904486
 20
130.2829467440329
 30
0.0
  9
$EXTMAX
 10
121.062520855814
 20
198.23812963672751
 30
0.0
  9
$LIMMIN
 10
0.0
 20
0.0
  9
$LIMMAX
 10
210.0
 20
297.0
  9
$ORTHOMODE
 70
     0
  9
$REGENMODE
 70
     1
  9
$FILLMODE
 70
     1
  9
$QTEXTMODE
 70
     0
  9
$MIRRTEXT
 70
     1
  9
$DRAGMODE
 70
     2
  9
$LTSCALE
 40
1.0
  9
$OSMODE
 70
    39
  9
$ATTMODE
 70
     1
  9
$TEXTSIZE
 40
2.5
  9
$TRACEWID
 40
1.0
  9
$TEXTSTYLE
  7
STANDARD
  9
$CLAYER
  8
0
  9
$CELTYPE
  6
AM_ISO08W050X2
  9
$CECOLOR
 62
     4
  9
$DIMSCALE
 40
1.0
  9
$DIMASZ
 40
6.0
  9
$DIMEXO
 40
1.0
  9
$DIMDLI
 40
3.75
  9
$DIMRND
 40
0.0
  9
$DIMDLE
 40
0.0
  9
$DIMEXE
 40
1.0
  9
$DIMTP
 40
0.0
  9
$DIMTM
 40
0.0
  9
$DIMTXT
 40
3.5
  9
$DIMCEN
 40
2.5
  9
$DIMTSZ
 40
0.0
  9
$DIMTOL
 70
     0
  9
$DIMLIM
 70
     0
  9
$DIMTIH
 70
     1
  9
$DIMTOH
 70
     1
  9
$DIMSE1
 70
     0
  9
$DIMSE2
 70
     0
  9
$DIMTAD
 70
     1
  9
$DIMZIN
 70
     0
  9
$DIMBLK
  1

  9
$DIMASO
 70
     1
  9
$DIMSHO
 70
     1
  9
$DIMPOST
  1

  9
$DIMAPOST
  1

  9
$DIMALT
 70
     0
  9
$DIMALTD
 70
     3
  9
$DIMALTF
 40
0.0393700787401575
  9
$DIMLFAC
 40
1.0
  9
$DIMTOFL
 70
     1
  9
$DIMTVP
 40
0.0
  9
$DIMTIX
 70
     0
  9
$DIMSOXD
 70
     0
  9
$DIMSAH
 70
     0
  9
$DIMBLK1
  1

  9
$DIMBLK2
  1

  9
$DIMSTYLE
  2
ISO-25
  9
$DIMCLRD
 70
     0
  9
$DIMCLRE
 70
     0
  9
$DIMCLRT
 70
     0
  9
$DIMTFAC
 40
1.0
  9
$DIMGAP
 40
1.524
  9
$LUNITS
 70
     2
  9
$LUPREC
 70
     2
  9
$SKETCHINC
 40
1.0
  9
$FILLETRAD
 40
10.0
  9
$AUNITS
 70
     0
  9
$AUPREC
 70
     2
  9
$MENU
  1
.
  9
$ELEVATION
 40
0.0
  9
$PELEVATION
 40
0.0
  9
$THICKNESS
 40
0.0
  9
$LIMCHECK
 70
     0
  9
$BLIPMODE
 70
     0
  9
$CHAMFERA
 40
10.0
  9
$CHAMFERB
 40
10.0
  9
$SKPOLY
 70
     0
  9
$TDCREATE
 40
2457238.5402442822
  9
$TDUPDATE
 40
2457242.6876681251
  9
$TDINDWG
 40
0.0227378356
  9
$TDUSRTIMER
 40
0.0227378356
  9
$USRTIMER
 70
     1
  9
$ANGBASE
 50
0.0
  9
$ANGDIR
 70
     0
  9
$PDMODE
 70
     0
  9
$PDSIZE
 40
-1.0
  9
$PLINEWID
 40
0.0
  9
$COORDS
 70
     2
  9
$SPLFRAME
 70
     0
  9
$SPLINETYPE
 70
     6
  9
$SPLINESEGS
 70
     8
  9
$ATTDIA
 70
     1
  9
$ATTREQ
 70
     1
  9
$HANDLING
 70
     1
  9
$HANDSEED
  5
4D6
  9
$SURFTAB1
 70
     6
  9
$SURFTAB2
 70
     6
  9
$SURFTYPE
 70
     6
  9
$SURFU
 70
     6
  9
$SURFV
 70
     6
  9
$UCSNAME
  2

  9
$UCSORG
 10
0.0
 20
0.0
 30
0.0
  9
$UCSXDIR
 10
1.0
 20
0.0
 30
0.0
  9
$UCSYDIR
 10
0.0
 20
1.0
 30
0.0
  9
$PUCSNAME
  2

  9
$PUCSORG
 10
0.0
 20
0.0
 30
0.0
  9
$PUCSXDIR
 10
1.0
 20
0.0
 30
0.0
  9
$PUCSYDIR
 10
0.0
 20
1.0
 30
0.0
  9
$USERI1
 70
     0
  9
$USERI2
 70
     0
  9
$USERI3
 70
     0
  9
$USERI4
 70
     0
  9
$USERI5
 70
     0
  9
$USERR1
 40
0.0
  9
$USERR2
 40
0.0
  9
$USERR3
 40
0.0
  9
$USERR4
 40
0.0
  9
$USERR5
 40
0.0
  9
$WORLDVIEW
 70
     1
  9
$SHADEDGE
 70
     3
  9
$SHADEDIF
 70
    70
  9
$TILEMODE
 70
     1
  9
$MAXACTVP
 70
    64
  9
$PLIMCHECK
 70
     0
  9
$PEXTMIN
 10
1.0000000000000000E+020
 20
1.0000000000000000E+020
 30
1.0000000000000000E+020
  9
$PEXTMAX
 10
-1.0000000000000000E+020
 20
-1.0000000000000000E+020
 30
-1.0000000000000000E+020
  9
$PLIMMIN
 10
0.0
 20
0.0
  9
$PLIMMAX
 10
420.0
 20
297.0
  9
$UNITMODE
 70
     0
  9
$VISRETAIN
 70
     1
  9
$PLINEGEN
 70
     0
  9
$PSLTSCALE
 70
     1
  0
ENDSEC
  0
SECTION
  2
TABLES
  0
TABLE
  2
VPORT
 70
     1
  0
VPORT
  2
*ACTIVE
 70
     0
 10
0.0
 20
0.0
 11
1.0
 21
1.0
 12
110.14726321410539
 22
194.8981490737101
 13
0.0
 23
0.0
 14
10.0
 24
10.0
 15
10.0
 25
10.0
 16
0.0
 26
0.0
 36
1.0
 17
0.0
 27
0.0
 37
0.0
 40
164.4280482712993
 41
0.8926673751328372
 42
50.0
 43
0.0
 44
0.0
 50
0.0
 51
0.0
 71
     0
 72
  2000
 73
     1
 74
     3
 75
     0
 76
     0
 77
     0
 78
     0
  0
ENDTAB
  0
TABLE
  2
LTYPE
 70
    17
  0
LTYPE
  2
CONTINUOUS
 70
     0
  3
Solid line
 72
    65
 73
     0
 40
0.0
  0
LTYPE
  2
HIDDEN
 70
     0
  3
Hidden __ __ __ __ __ __ __ __ __ __ __ __ __ __
 72
    65
 73
     2
 40
1.905
 49
1.27
 49
-0.635
  0
LTYPE
  2
PHANTOM
 70
     0
  3
Phantom ______  __  __  ______  __  __  ______
 72
    65
 73
     6
 40
12.699999999999999
 49
6.3499999999999988
 49
-1.27
 49
1.27
 49
-1.27
 49
1.27
 49
-1.27
  0
LTYPE
  2
CENTER
 70
     0
  3
Center ____ _ ____ _ ____ _ ____ _ ____ _ ____
 72
    65
 73
     4
 40
10.16
 49
6.3499999999999988
 49
-1.27
 49
1.27
 49
-1.27
  0
LTYPE
  2
CENTERX2
 70
     0
  3
Center (2x) ________  __  ________  __  _____
 72
    65
 73
     4
 40
20.32
 49
12.699999999999999
 49
-2.54
 49
2.54
 49
-2.54
  0
LTYPE
  2
DOT2
 70
     0
  3
Dot (.5x) ........................................
 72
    65
 73
     2
 40
0.635
 49
0.0
 49
-0.635
  0
LTYPE
  2
PHANTOM2
 70
     0
  3
Phantom (.5x) ___ _ _ ___ _ _ ___ _ _ ___ _ _
 72
    65
 73
     6
 40
31.75
 49
15.875
 49
-3.1749999999999989
 49
3.1749999999999989
 49
-3.1749999999999989
 49
3.1749999999999989
 49
-3.1749999999999989
  0
LTYPE
  2
AM_ISO02W050
 70
     0
  3
__ __ __ __ __ __ __ __ __ __ __ __ __ __ __
 72
    65
 73
     2
 40
7.5
 49
6.0
 49
-1.5
  0
LTYPE
  2
AM_ISO08W050
 70
     0
  3
____ . ____ . ____ . ____ . ____ . ____ . ____
 72
    65
 73
     4
 40
18.0
 49
12.0
 49
-1.5
 49
3.0
 49
-1.5
  0
LTYPE
  2
AM_ISO09W050
 70
     0
  3
_____ . . _____ . . _____ . . ____ .. ____
 72
    65
 73
     6
 40
22.5
 49
12.0
 49
-1.5
 49
3.0
 49
-1.5
 49
3.0
 49
-1.5
  0
LTYPE
  2
AMCONSTR
 70
     0
  3
_______________________
 72
    65
 73
     2
 40
9999.0
 49
9999.0
 49
0.0
  0
LTYPE
  2
AM_ISO08W050X2
 70
     0
  3
__ . __ . __ . __ . __ . __
 72
    65
 73
     4
 40
9.0
 49
6.0
 49
-0.75
 49
1.5
 49
-0.75
  0
LTYPE
  2
AM_ISO02W050X2
 70
     0
  3
 _ _ _ _ _ _ _ _ _ _ _ _
 72
    65
 73
     2
 40
3.75
 49
3.0
 49
-0.75
  0
LTYPE
  2
AMZIGZAG
 70
     0
  3
/\/-/\/-/\/-/\/-/\/-/\/
 72
    65
 73
     2
 40
11.0001
 49
0.0001
 49
-11.0
  0
LTYPE
  2
ACISOWELD
 70
     0
  3
_ _ _ _ _
 72
    65
 73
     2
 40
2.0
 49
2.0
 49
-1.0
  0
LTYPE
  2
ACISOTGL
 70
     0
  3
_ _ _ _ _
 72
    65
 73
     2
 40
3.0
 49
2.0
 49
-1.0
  0
LTYPE
  2
ACISOTGB
 70
     0
  3
__ . . __ . .
 72
    65
 73
     6
 40
9.0
 49
4.0
 49
-1.0
 49
1.0
 49
-1.0
 49
1.0
 49
-1.0
  0
ENDTAB
  0
TABLE
  2
LAYER
 70
     2
  0
LAYER
  2
0
 70
     0
 62
     7
  6
CONTINUOUS
  0
LAYER
  2
AM_CL
 70
     0
 62
     1
  6
AMCONSTR
  0
ENDTAB
  0
TABLE
  2
STYLE
 70
     4
  0
STYLE
  2
STANDARD
 70
     0
 40
0.0
 41
1.0
 50
0.0
 71
     0
 42
2.5
  3
txt
  4
bigfont
  0
STYLE
  2

 70
     1
 40
0.0
 41
1.0
 50
0.0
 71
     0
 42
3.5
  3
genltshp.shx
  4

  0
STYLE
  2
ACISOTS
 70
     0
 40
1.0
 41
1.0
 50
0.0
 71
     0
 42
3.5
  3
isocp.shx
  4
extfont.shx
  0
STYLE
  2
ACISOGDT
 70
     0
 40
0.0
 41
1.0
 50
0.0
 71
     0
 42
3.5
  3
amgdt.shx
  4

  0
ENDTAB
  0
TABLE
  2
VIEW
 70
     0
  0
ENDTAB
  0
TABLE
  2
UCS
 70
     0
  0
ENDTAB
  0
TABLE
  2
APPID
 70
    17
  0
APPID
  2
ACAD
 70
     0
  0
APPID
  2
MCAD_NO_VIS
 70
     0
  0
APPID
  2
ACAD_TEMP_GRAPHIC
 70
     0
  0
APPID
  2
ACATTRIBSERVICES
 70
     0
  0
APPID
  2
DESIGNERASSEMBLIES
 70
     0
  0
APPID
  2
ACAD_DSTYLE_DIMJAG
 70
     0
  0
APPID
  2
ACAD_DSTYLE_DIMBREAK
 70
     0
  0
APPID
  2
ACAD_NAV_VCDISPLAY
 70
     0
  0
APPID
  2
ACAD_PSEXT
 70
     0
  0
APPID
  2
ACAD_EXEMPT_FROM_CAD_STANDARDS
 70
     0
  0
APPID
  2
ACAECLAYERSTANDARD
 70
     0
  0
APPID
  2
ACAD_MLEADERVER
 70
     0
  0
APPID
  2
ACAD_DSTYLE_DIMARC_LENGTH_
 70
     0
  0
APPID
  2
ACAD_DSTYLE_DIM_LINETYPE
 70
     0
  0
APPID
  2
ACAD_DSTYLE_DIM_EXT1_LINETYPE
 70
     0
  0
APPID
  2
ACAD_DSTYLE_DIM_EXT2_LINETYPE
 70
     0
  0
APPID
  2
ACDBDYNAMICBLOCKTRUENAME2
 70
     0
  0
ENDTAB
  0
TABLE
  2
DIMSTYLE
 70
     8
  0
DIMSTYLE
  2
ISO-25
 70
     0
  3

  4

  5

  6

  7

 40
1.0
 41
2.5
 42
0.625
 43
3.75
 44
1.25
 45
0.0
 46
0.0
 47
0.0
 48
0.0
140
2.5
141
2.5
142
0.0
143
0.03937007874016
144
1.0
145
0.0
146
1.0
147
0.625
 71
     0
 72
     0
 73
     0
 74
     0
 75
     0
 76
     0
 77
     1
 78
     8
170
     0
171
     3
172
     1
173
     0
174
     0
175
     0
176
     0
177
     0
178
     0
  0
DIMSTYLE
  2
AM_ISO
 70
     0
  3

  4
"
  5

  6

  7

 40
1.0
 41
3.5
 42
1.0
 43
10.0
 44
1.0
 45
0.0
 46
0.0
 47
0.1
 48
0.1
140
3.5
141
0.0
142
0.0
143
0.0393701
144
1.0
145
0.0
146
0.71
147
1.5
 71
     0
 72
     0
 73
     0
 74
     0
 75
     0
 76
     0
 77
     1
 78
     8
170
     0
171
     2
172
     1
173
     0
174
     0
175
     0
176
   256
177
   256
178
     2
  0
DIMSTYLE
  2
AM_ISO$3
 70
     0
  3

  4
"
  5

  6

  7

 40
1.0
 41
3.5
 42
1.0
 43
10.0
 44
1.0
 45
0.0
 46
0.0
 47
0.1
 48
0.1
140
3.5
141
0.0
142
0.0
143
0.0393701
144
1.0
145
0.0
146
0.71
147
1.5
 71
     0
 72
     0
 73
     0
 74
     1
 75
     0
 76
     0
 77
     1
 78
     8
170
     0
171
     2
172
     0
173
     0
174
     0
175
     0
176
   256
177
   256
178
     2
  0
DIMSTYLE
  2
AM_ISO$4
 70
     0
  3

  4
"
  5

  6

  7

 40
1.0
 41
3.5
 42
1.0
 43
10.0
 44
1.0
 45
0.0
 46
0.0
 47
0.1
 48
0.1
140
3.5
141
0.0
142
0.0
143
0.0393701
144
1.0
145
0.0
146
0.71
147
1.5
 71
     0
 72
     0
 73
     0
 74
     1
 75
     0
 76
     0
 77
     1
 78
     8
170
     0
171
     2
172
     0
173
     0
174
     0
175
     0
176
   256
177
   256
178
     2
  0
DIMSTYLE
  2
AM_ISO$6
 70
     0
  3

  4
"
  5

  6

  7

 40
1.0
 41
3.5
 42
1.0
 43
10.0
 44
1.0
 45
0.0
 46
0.0
 47
0.1
 48
0.1
140
3.5
141
0.0
142
0.0
143
0.0393701
144
1.0
145
0.0
146
0.71
147
1.5
 71
     0
 72
     0
 73
     0
 74
     0
 75
     0
 76
     0
 77
     0
 78
     8
170
     0
171
     2
172
     1
173
     0
174
     0
175
     0
176
   256
177
   256
178
     2
  0
DIMSTYLE
  2
AM_ISO$7
 70
     0
  3

  4
"
  5

  6

  7

 40
1.0
 41
3.5
 42
1.0
 43
10.0
 44
1.0
 45
0.0
 46
0.0
 47
0.1
 48
0.1
140
3.5
141
0.0
142
0.0
143
0.0393701
144
1.0
145
0.0
146
0.71
147
1.5
 71
     0
 72
     0
 73
     0
 74
     0
 75
     0
 76
     0
 77
     1
 78
     8
170
     0
171
     2
172
     1
173
     0
174
     0
175
     0
176
   256
177
   256
178
     2
  0
DIMSTYLE
  2
AM_ISO$SF
 70
     0
  3

  4
"
  5

  6

  7

 40
1.0
 41
3.5
 42
1.0
 43
10.0
 44
1.0
 45
0.0
 46
0.0
 47
0.1
 48
0.1
140
3.5
141
0.0
142
0.0
143
0.0393701
144
1.0
145
0.0
146
0.71
147
1.5
 71
     0
 72
     0
 73
     0
 74
     0
 75
     1
 76
     1
 77
     1
 78
     8
170
     0
171
     2
172
     1
173
     0
174
     0
175
     0
176
   256
177
   256
178
     2
  0
DIMSTYLE
  2
AM_ISO$SH
 70
     0
  3

  4
"
  5

  6
GENAXEH
  7

 40
1.0
 41
3.5
 42
1.0
 43
10.0
 44
1.0
 45
0.0
 46
0.0
 47
0.1
 48
0.1
140
3.5
141
0.0
142
0.0
143
0.0393701
144
2.0
145
0.0
146
0.71
147
1.5
 71
     0
 72
     0
 73
     0
 74
     0
 75
     1
 76
     1
 77
     1
 78
     8
170
     0
171
     2
172
     1
173
     1
174
     0
175
     0
176
   256
177
   256
178
     2
  0
ENDTAB
  0
ENDSEC
  0
SECTION
  2
BLOCKS
  0
BLOCK
  8
0
  2
$MODEL_SPACE
 70
     0
 10
0.0
 20
0.0
 30
0.0
  3
$MODEL_SPACE
  1

  0
ENDBLK
  5
21
  8
0
  0
BLOCK
 67
     1
  8
0
  2
$PAPER_SPACE
 70
     0
 10
0.0
 20
0.0
 30
0.0
  3
$PAPER_SPACE
  1

  0
ENDBLK
  5
1D
 67
     1
  8
0
  0
BLOCK
  8
0
  2
GENAXEH
 70
     0
 10
0.0
 20
0.0
 30
0.0
  3
GENAXEH
  1

  0
LINE
  5
14E
  8
0
 10
-1.0
 20
0.0
 30
0.0
 11
1.0
 21
0.0
 31
0.0
  0
ENDBLK
  5
150
  8
0
  0
BLOCK
  8
0
 62
     4
  2
*U3
 70
     1
 10
0.0
 20
0.0
 30
0.0
  3
*U3
  1

  0
TEXT
  5
4D3
  8
0
  6
AM_ISO08W050X2
 62
     2
 10
88.410772148984378
 20
131.44961341069961
 30
0.0
 40
3.5
  1
pm-r65w
  0
ENDBLK
  5
4D5
  8
0
 62
     4
  0
ENDSEC
  0
SECTION
  2
ENTITIES
  0
LINE
  5
44
  8
0
  6
CONTINUOUS
 62
     7
 10
119.4486259418928
 20
156.392186570451
 30
0.0
 11
119.4486259418928
 21
146.7921861144755
 31
0.0
  0
LINE
  5
45
  8
0
  6
CONTINUOUS
 62
     7
 10
116.9486259977722
 20
156.392186570451
 30
0.0
 11
116.9486259977722
 21
146.7921861144755
 31
0.0
  0
LINE
  5
46
  8
0
  6
CONTINUOUS
 62
     7
 10
116.9486259977722
 20
158.39218643261529
 30
0.0
 11
119.4486259418928
 21
158.39218643261529
 31
0.0
  0
LINE
  5
47
  8
0
  6
CONTINUOUS
 62
     7
 10
119.4486259418928
 20
158.39218643261529
 30
0.0
 11
119.4486259418928
 21
156.392186570451
 31
0.0
  0
LINE
  5
48
  8
0
  6
CONTINUOUS
 62
     7
 10
116.9486259977722
 20
156.392186570451
 30
0.0
 11
116.9486259977722
 21
158.39218643261529
 31
0.0
  0
LINE
  5
49
  8
0
  6
CONTINUOUS
 62
     7
 10
119.4486259418928
 20
144.79218578665001
 30
0.0
 11
116.9486259977722
 21
144.79218578665001
 31
0.0
  0
LINE
  5
4A
  8
0
  6
CONTINUOUS
 62
     7
 10
119.4486259418928
 20
146.7921861144755
 30
0.0
 11
119.4486259418928
 21
144.79218578665001
 31
0.0
  0
LINE
  5
4B
  8
0
  6
CONTINUOUS
 62
     7
 10
116.9486259977722
 20
144.79218578665001
 30
0.0
 11
116.9486259977722
 21
146.7921861144755
 31
0.0
  0
LINE
  5
4C
  8
0
  6
CONTINUOUS
 62
     7
 10
118.34862594785329
 20
143.69218579261039
 30
0.0
 11
117.84862586589691
 21
143.69218579261039
 31
0.0
  0
LINE
  5
4D
  8
0
  6
CONTINUOUS
 62
     7
 10
117.84862586589691
 20
144.79218578665001
 30
0.0
 11
117.84862586589691
 21
143.69218579261039
 31
0.0
  0
LINE
  5
4E
  8
0
  6
CONTINUOUS
 62
     7
 10
118.34862594785329
 20
144.79218578665001
 30
0.0
 11
118.34862594785329
 21
143.69218579261039
 31
0.0
  0
LINE
  5
4F
  8
0
  6
CONTINUOUS
 62
     7
 10
107.04862605141641
 20
143.69218579261039
 30
0.0
 11
106.54862620229061
 21
143.69218579261039
 31
0.0
  0
LINE
  5
50
  8
0
  6
CONTINUOUS
 62
     7
 10
106.54862620229061
 20
151.99218659429289
 30
0.0
 11
106.54862620229061
 21
143.69218579261039
 31
0.0
  0
LINE
  5
51
  8
0
  6
CONTINUOUS
 62
     7
 10
107.04862605141641
 20
151.4921865123365
 30
0.0
 11
106.54862620229061
 21
151.99218659429289
 31
0.0
  0
LINE
  5
52
  8
0
  6
CONTINUOUS
 62
     7
 10
107.04862605141641
 20
151.4921865123365
 30
0.0
 11
107.04862605141641
 21
143.69218579261039
 31
0.0
  0
LINE
  5
53
  8
0
  6
CONTINUOUS
 62
     7
 10
109.64862616035779
 20
143.69218579261039
 30
0.0
 11
107.04862605141641
 21
143.69218579261039
 31
0.0
  0
LINE
  5
54
  8
0
  6
CONTINUOUS
 62
     7
 10
116.9486259977722
 20
151.4921865123365
 30
0.0
 11
107.04862605141641
 21
151.4921865123365
 31
0.0
  0
LINE
  5
55
  8
0
  6
CONTINUOUS
 62
     7
 10
117.84862586589691
 20
143.69218579261039
 30
0.0
 11
115.2486260916495
 21
143.69218579261039
 31
0.0
  0
LINE
  5
56
  8
0
  6
CONTINUOUS
 62
     7
 10
115.2486260916495
 20
149.89218643634061
 30
0.0
 11
115.2486260916495
 21
143.69218579261039
 31
0.0
  0
LINE
  5
57
  8
0
  6
CONTINUOUS
 62
     7
 10
115.2486260916495
 20
149.89218643634061
 30
0.0
 11
109.64862616035779
 21
149.89218643634061
 31
0.0
  0
LINE
  5
58
  8
0
  6
CONTINUOUS
 62
     7
 10
109.64862616035779
 20
149.89218643634061
 30
0.0
 11
109.64862616035779
 21
143.69218579261039
 31
0.0
  0
LINE
  5
59
  8
0
  6
CONTINUOUS
 62
     7
 10
106.54862620229061
 20
151.99218659429289
 30
0.0
 11
116.9486259977722
 21
151.99218659429289
 31
0.0
  0
LINE
  5
5A
  8
0
  6
CONTINUOUS
 62
     7
 10
119.1486264515126
 20
144.79218578665001
 30
0.0
 11
119.1486264515126
 21
143.69218579261039
 31
0.0
  0
LINE
  5
5B
  8
0
  6
CONTINUOUS
 62
     7
 10
119.1486264515126
 20
143.69218579261039
 30
0.0
 11
118.34862594785329
 21
143.69218579261039
 31
0.0
  0
LINE
  5
5C
  8
0
  6
CONTINUOUS
 62
     7
 10
105.7486261642927
 20
143.69218579261039
 30
0.0
 11
105.7486261642927
 21
166.09218662372271
 31
0.0
  0
LINE
  5
5D
  8
0
  6
CONTINUOUS
 62
     7
 10
115.4486262175643
 20
156.69218652649261
 30
0.0
 11
115.4486262175643
 21
166.09218662372271
 31
0.0
  0
LINE
  5
5E
  8
0
  6
CONTINUOUS
 62
     7
 10
115.4486262175643
 20
156.69218652649261
 30
0.0
 11
109.4486261654103
 21
156.69218652649261
 31
0.0
  0
LINE
  5
5F
  8
0
  6
CONTINUOUS
 62
     7
 10
109.4486261654103
 20
166.09218662372271
 30
0.0
 11
109.4486261654103
 21
156.69218652649261
 31
0.0
  0
LINE
  5
60
  8
0
  6
CONTINUOUS
 62
     7
 10
115.4486262175643
 20
166.09218662372271
 30
0.0
 11
119.1486264515126
 21
166.09218662372271
 31
0.0
  0
LINE
  5
61
  8
0
  6
CONTINUOUS
 62
     7
 10
119.1486264515126
 20
166.09218662372271
 30
0.0
 11
119.1486264515126
 21
158.39218643261529
 31
0.0
  0
LINE
  5
62
  8
0
  6
CONTINUOUS
 62
     7
 10
105.7486261642927
 20
166.09218662372271
 30
0.0
 11
109.4486261654103
 21
166.09218662372271
 31
0.0
  0
LINE
  5
63
  8
0
  6
CONTINUOUS
 62
     7
 10
106.54862620229061
 20
143.69218579261039
 30
0.0
 11
105.7486261642927
 21
143.69218579261039
 31
0.0
  0
LINE
  5
68
  8
0
  6
CONTINUOUS
 62
     7
 10
115.4486262175643
 20
157.69218669040541
 30
0.0
 11
109.4486261654103
 21
157.69218669040541
 31
0.0
  0
LINE
  5
6A
  8
0
  6
CONTINUOUS
 62
     7
 10
113.2486262294853
 20
148.2921872916672
 30
0.0
 11
111.6486261534893
 21
148.2921872916672
 31
0.0
  0
LINE
  5
6B
  8
0
  6
CONTINUOUS
 62
     7
 10
113.2486262294853
 20
146.4521863195155
 30
0.0
 11
113.2486262294853
 21
148.2921872916672
 31
0.0
  0
LINE
  5
6C
  8
0
  6
CONTINUOUS
 62
     7
 10
111.6486261534893
 20
146.4521863195155
 30
0.0
 11
113.2486262294853
 21
146.4521863195155
 31
0.0
  0
LINE
  5
6D
  8
0
  6
CONTINUOUS
 62
     7
 10
111.6486261534893
 20
148.2921872916672
 30
0.0
 11
111.6486261534893
 21
146.4521863195155
 31
0.0
  0
LINE
  5
6F
  8
0
  6
CONTINUOUS
 62
     7
 10
115.2486260916495
 20
144.9921873095486
 30
0.0
 11
109.64862616035779
 21
144.9921873095486
 31
0.0
  0
LINE
  5
70
  8
0
  6
CONTINUOUS
 62
     7
 10
109.64862616035779
 20
143.69218579261039
 30
0.0
 11
115.2486260916495
 21
143.69218579261039
 31
0.0
  0
LINE
  5
71
  8
0
  6
CONTINUOUS
 62
     7
 10
105.7486261642927
 20
197.2913748045718
 30
0.0
 11
109.4486261654103
 21
197.2913748045718
 31
0.0
  0
LINE
  5
72
  8
0
  6
CONTINUOUS
 62
     7
 10
109.4486261654103
 20
197.2913748045718
 30
0.0
 11
109.4486261654103
 21
191.29137475241779
 31
0.0
  0
LINE
  5
73
  8
0
  6
CONTINUOUS
 62
     7
 10
105.7486261642927
 20
191.29137475241779
 30
0.0
 11
109.4486261654103
 21
191.29137475241779
 31
0.0
  0
LINE
  5
7B
  8
0
  6
CONTINUOUS
 62
     7
 10
105.7486261642927
 20
197.2913748045718
 30
0.0
 11
105.7486261642927
 21
191.29137475241779
 31
0.0
  0
LINE
  5
7C
  8
0
  6
CONTINUOUS
 62
     7
 10
115.4486262175643
 20
197.2913748045718
 30
0.0
 11
115.4486262175643
 21
191.29137475241779
 31
0.0
  0
LINE
  5
7D
  8
0
  6
CONTINUOUS
 62
     7
 10
119.1486264515126
 20
197.2913748045718
 30
0.0
 11
119.1486264515126
 21
191.29137475241779
 31
0.0
  0
LINE
  5
7E
  8
0
  6
CONTINUOUS
 62
     7
 10
115.4486262175643
 20
191.29137475241779
 30
0.0
 11
119.1486264515126
 21
191.29137475241779
 31
0.0
  0
LINE
  5
86
  8
0
  6
CONTINUOUS
 62
     7
 10
115.4486262175643
 20
197.2913748045718
 30
0.0
 11
119.1486264515126
 21
197.2913748045718
 31
0.0
  0
LINE
  5
87
  8
0
  6
CONTINUOUS
 62
     7
 10
116.9486259977722
 20
191.29137475241779
 30
0.0
 11
116.9486259977722
 21
186.29137439851519
 31
0.0
  0
LINE
  5
88
  8
0
  6
CONTINUOUS
 62
     7
 10
119.1486264515126
 20
191.7913748343741
 30
0.0
 11
119.4486259418928
 21
191.7913748343741
 31
0.0
  0
LINE
  5
89
  8
0
  6
CONTINUOUS
 62
     7
 10
119.4486259418928
 20
191.7913748343741
 30
0.0
 11
119.4486259418928
 21
186.29137439851519
 31
0.0
  0
LINE
  5
8A
  8
0
  6
CONTINUOUS
 62
     7
 10
119.4486259418928
 20
184.29137500201219
 30
0.0
 11
116.9486259977722
 21
184.29137500201219
 31
0.0
  0
LINE
  5
8B
  8
0
  6
CONTINUOUS
 62
     7
 10
116.9486259977722
 20
184.29137500201219
 30
0.0
 11
116.9486259977722
 21
186.29137439851519
 31
0.0
  0
LINE
  5
8C
  8
0
  6
CONTINUOUS
 62
     7
 10
119.4486259418928
 20
186.29137439851519
 30
0.0
 11
119.4486259418928
 21
184.29137500201219
 31
0.0
  0
LINE
  5
8E
  8
0
  6
CONTINUOUS
 62
     7
 10
115.4486262175643
 20
196.4913747665739
 30
0.0
 11
109.4486261654103
 21
196.4913747665739
 31
0.0
  0
LINE
  5
8F
  8
0
  6
CONTINUOUS
 62
     7
 10
115.4486262175643
 20
192.0913747904157
 30
0.0
 11
109.4486261654103
 21
192.0913747904157
 31
0.0
  0
LINE
  5
91
  8
0
  6
CONTINUOUS
 62
     7
 10
115.4486262175643
 20
197.2913748045718
 30
0.0
 11
109.4486261654103
 21
197.2913748045718
 31
0.0
  0
LINE
  5
92
  8
0
  6
CONTINUOUS
 62
     7
 10
115.4486262175643
 20
191.29137475241779
 30
0.0
 11
109.4486261654103
 21
191.29137475241779
 31
0.0
  0
LINE
  5
93
  8
0
  6
CONTINUOUS
 62
     7
 10
119.4486259418928
 20
197.2913748045718
 30
0.0
 11
119.4486259418928
 21
191.7913748343741
 31
0.0
  0
LINE
  5
94
  8
0
  6
CONTINUOUS
 62
     7
 10
119.1486264515126
 20
197.2913748045718
 30
0.0
 11
119.4486259418928
 21
197.2913748045718
 31
0.0
  0
LINE
  5
95
  8
0
  6
CONTINUOUS
 62
     7
 10
116.9486259977722
 20
190.79137467046141
 30
0.0
 11
107.04862605141641
 21
190.79137467046141
 31
0.0
  0
LINE
  5
96
  8
0
  6
CONTINUOUS
 62
     7
 10
107.04862605141641
 20
190.79137467046141
 30
0.0
 11
106.54862620229061
 21
191.29137475241779
 31
0.0
  0
LINE
  5
97
  8
0
  6
CONTINUOUS
 62
     7
 10
73.450799205050544
 20
143.69218579261039
 30
0.0
 11
79.450799257204594
 21
143.69218579261039
 31
0.0
  0
LINE
  5
98
  8
0
  6
CONTINUOUS
 62
     7
 10
73.450799205050544
 20
143.69218579261039
 30
0.0
 11
73.450799205050544
 21
166.09218662372271
 31
0.0
  0
LINE
  5
99
  8
0
  6
CONTINUOUS
 62
     7
 10
73.450799205050544
 20
166.09218662372271
 30
0.0
 11
79.450799257204594
 21
166.09218662372271
 31
0.0
  0
LINE
  5
9A
  8
0
  6
CONTINUOUS
 62
     7
 10
79.450799257204594
 20
143.69218579261039
 30
0.0
 11
79.450799257204594
 21
166.09218662372271
 31
0.0
  0
LINE
  5
9B
  8
0
  6
CONTINUOUS
 62
     7
 10
79.950799339160994
 20
151.4921865123365
 30
0.0
 11
79.950799339160994
 21
143.69218579261039
 31
0.0
  0
LINE
  5
9C
  8
0
  6
CONTINUOUS
 62
     7
 10
79.950799339160994
 20
151.4921865123365
 30
0.0
 11
79.450799257204594
 21
151.99218659429289
 31
0.0
  0
LINE
  5
9D
  8
0
  6
CONTINUOUS
 62
     7
 10
79.950799339160994
 20
143.69218579261039
 30
0.0
 11
79.450799257204594
 21
143.69218579261039
 31
0.0
  0
ARC
  5
9E
  8
0
  6
CONTINUOUS
 62
     7
 10
84.450799231127576
 20
156.39218652872779
 30
0.0
 40
2.0
 50
0.0
 51
90.0
  0
LINE
  5
9F
  8
0
  6
CONTINUOUS
 62
     7
 10
86.450799007610158
 20
156.39218657045109
 30
0.0
 11
86.450799007610158
 21
146.7921861144755
 31
0.0
  0
ARC
  5
A0
  8
0
  6
CONTINUOUS
 62
     7
 10
84.450799231127547
 20
146.7921865287278
 30
0.0
 40
2.0000000000000142
 50
270.00000000000119
 51
0.0
  0
CIRCLE
  5
A1
  8
0
  6
CONTINUOUS
 62
     7
 10
83.450799231127576
 20
155.09218652872781
 30
0.0
 40
1.750000000000014
  0
CIRCLE
  5
A2
  8
0
  6
CONTINUOUS
 62
     7
 10
83.450799231127576
 20
148.09218652872781
 30
0.0
 40
1.750000000000014
  0
LINE
  5
A3
  8
0
  6
CONTINUOUS
 62
     7
 10
84.450799611107186
 20
144.79218578665001
 30
0.0
 11
79.950799339160994
 21
144.79218578665001
 31
0.0
  0
LINE
  5
A4
  8
0
  6
CONTINUOUS
 62
     7
 10
79.450799257204594
 20
158.39218643261529
 30
0.0
 11
84.450799611107186
 21
158.39218643261529
 31
0.0
  0
INSERT
  5
176
  8
0
  6
AM_ISO08W050X2
 62
     4
  2
*U3
 10
0.0
 20
0.0
 30
0.0
  0
LINE
  5
1AA
  8
0
 62
     2
 10
114.3040207147456
 20
194.2913747784948
 30
0.0
 11
113.21970442697121
 21
193.8434138240776
 31
0.0
  0
LINE
  5
1AB
  8
0
 62
     2
 10
114.3040207147456
 20
194.2913747784948
 30
0.0
 11
113.21970442697121
 21
194.76826642013791
 31
0.0
  0
LINE
  5
1AC
  8
0
 62
     2
 10
110.6647585442803
 20
194.2913747784948
 30
0.0
 11
114.3040207147456
 21
194.2913747784948
 31
0.0
  0
LINE
  5
248
  8
0
 62
     2
 10
114.3040207147456
 20
164.09218662372271
 30
0.0
 11
113.21970442697121
 21
163.64422566930551
 31
0.0
  0
LINE
  5
249
  8
0
 62
     2
 10
114.3040207147456
 20
164.09218662372271
 30
0.0
 11
113.21970442697121
 21
164.56907826536579
 31
0.0
  0
LINE
  5
24A
  8
0
 62
     2
 10
110.6647585442803
 20
164.09218662372271
 30
0.0
 11
114.3040207147456
 21
164.09218662372271
 31
0.0
  0
LINE
  5
276
  8
0
  6
AM_ISO08W050X2
 62
     4
 10
104.3711750481522
 20
194.2913747784948
 30
0.0
 11
109.96399067264031
 21
194.2913747784948
 31
0.0
  0
LINE
  5
277
  8
0
  6
AM_ISO08W050X2
 62
     4
 10
114.8778771756771
 20
194.2913747784948
 30
0.0
 11
121.062520855814
 21
194.2913747784948
 31
0.0
  0
LINE
  5
278
  8
0
  6
AM_ISO08W050X2
 62
     4
 10
112.44862619148731
 20
198.23812963672751
 30
0.0
 11
112.44862619148731
 21
189.8603188796998
 31
0.0
  0
LINE
  5
279
  8
0
  6
AM_ISO08W050X2
 62
     4
 10
109.9435897863637
 20
164.09218662372271
 30
0.0
 11
104.1976002408009
 21
164.09218662372271
 31
0.0
  0
LINE
  5
27A
  8
0
  6
AM_ISO08W050X2
 62
     4
 10
114.9476770403402
 20
164.09218662372271
 30
0.0
 11
120.50521844551891
 21
164.09218662372271
 31
0.0
  0
LINE
  5
27B
  8
0
  6
AM_ISO08W050X2
 62
     4
 10
112.44862619148731
 20
167.02102266603251
 30
0.0
 11
112.44862619148731
 21
141.7194124320236
 31
0.0
  0
LINE
  5
27C
  8
0
  6
AM_ISO08W050X2
 62
     4
 10
76.450799231127576
 20
167.7545248991853
 30
0.0
 11
76.450799231127576
 21
142.57131172979371
 31
0.0
  0
LINE
  5
27D
  8
0
  6
AM_ISO08W050X2
 62
     4
 10
83.450799231127576
 20
157.3562883158273
 30
0.0
 11
83.450799231127576
 21
152.85290836785259
 31
0.0
  0
LINE
  5
27E
  8
0
  6
AM_ISO08W050X2
 62
     4
 10
83.450799231127576
 20
150.43258887686079
 30
0.0
 11
83.450799231127576
 21
145.929208928886
 31
0.0
  0
LINE
  5
27F
  8
0
  6
AM_ISO08W050X2
 62
     4
 10
81.182430183334986
 20
155.09218652872781
 30
0.0
 11
85.645133162301235
 21
155.09218652872781
 31
0.0
  0
LINE
  5
280
  8
0
  6
AM_ISO08W050X2
 62
     4
 10
81.182430183334986
 20
148.09218652872781
 30
0.0
 11
85.664967716308979
 21
148.09218652872781
 31
0.0
  0
LINE
  5
281
  8
0
  6
AM_ISO08W050X2
 62
     4
 10
116.1627076744181
 20
155.09218652872781
 30
0.0
 11
120.2667813315708
 21
155.09218652872781
 31
0.0
  0
LINE
  5
282
  8
0
  6
AM_ISO08W050X2
 62
     4
 10
116.33557413720941
 20
148.09218652872781
 30
0.0
 11
120.3639378647345
 21
148.09218652872781
 31
0.0
  0
LINE
  5
3B6
  8
0
  6
AM_ISO08W050X2
 62
     4
 10
80.760729790054086
 20
164.09218662372271
 30
0.0
 11
72.200066919904486
 21
164.09218662372271
 31
0.0
  0
LINE
  5
3BD
  8
0
  6
AM_ISO08W050X2
 62
     4
 10
115.7416056286997
 20
187.2913747784948
 30
0.0
 11
120.5902905142399
 21
187.2913747784948
 31
0.0
  0
ENDSEC
  0
EOF
