  0
SECTION
  2
HEADER
  9
$ACADVER
  1
AC1009
  9
$INSBASE
 10
177.99999979121739
 20
6.7085914059697132
 30
0.0
  9
$EXTMIN
 10
-123.30328519669359
 20
469.30151139581039
 30
0.0
  9
$EXTMAX
 10
-30.42524279248876
 20
593.73237607327928
 30
0.0
  9
$LIMMIN
 10
-185.22394776397221
 20
352.48648918188883
  9
$LIMMAX
 10
-7.2239477639723182
 20
600.78648918188867
  9
$ORTHOMODE
 70
     0
  9
$REGENMODE
 70
     1
  9
$FILLMODE
 70
     1
  9
$QTEXTMODE
 70
     0
  9
$MIRRTEXT
 70
     1
  9
$DRAGMODE
 70
     2
  9
$LTSCALE
 40
1.0
  9
$OSMODE
 70
  3071
  9
$ATTMODE
 70
     1
  9
$TEXTSIZE
 40
5.0
  9
$TRACEWID
 40
1.0
  9
$TEXTSTYLE
  7
STANDARD
  9
$CLAYER
  8
0
  9
$CELTYPE
  6
BYLAYER
  9
$CECOLOR
 62
   256
  9
$DIMSCALE
 40
1.0
  9
$DIMASZ
 40
2.5
  9
$DIMEXO
 40
1.0
  9
$DIMDLI
 40
10.0
  9
$DIMRND
 40
0.0
  9
$DIMDLE
 40
0.0
  9
$DIMEXE
 40
1.0
  9
$DIMTP
 40
0.1
  9
$DIMTM
 40
0.1
  9
$DIMTXT
 40
3.5
  9
$DIMCEN
 40
0.0
  9
$DIMTSZ
 40
0.0
  9
$DIMTOL
 70
     1
  9
$DIMLIM
 70
     0
  9
$DIMTIH
 70
     1
  9
$DIMTOH
 70
     1
  9
$DIMSE1
 70
     0
  9
$DIMSE2
 70
     0
  9
$DIMTAD
 70
     0
  9
$DIMZIN
 70
     8
  9
$DIMBLK
  1
OPEN30
  9
$DIMASO
 70
     1
  9
$DIMSHO
 70
     1
  9
$DIMPOST
  1

  9
$DIMAPOST
  1
"
  9
$DIMALT
 70
     0
  9
$DIMALTD
 70
     2
  9
$DIMALTF
 40
0.0393701
  9
$DIMLFAC
 40
1.0
  9
$DIMTOFL
 70
     1
  9
$DIMTVP
 40
0.0
  9
$DIMTIX
 70
     0
  9
$DIMSOXD
 70
     0
  9
$DIMSAH
 70
     0
  9
$DIMBLK1
  1

  9
$DIMBLK2
  1

  9
$DIMSTYLE
  2
AM_JIS
  9
$DIMCLRD
 70
   256
  9
$DIMCLRE
 70
   256
  9
$DIMCLRT
 70
     2
  9
$DIMTFAC
 40
0.71
  9
$DIMGAP
 40
1.5
  9
$LUNITS
 70
     2
  9
$LUPREC
 70
     2
  9
$SKETCHINC
 40
1.0
  9
$FILLETRAD
 40
0.0
  9
$AUNITS
 70
     0
  9
$AUPREC
 70
     0
  9
$MENU
  1
.
  9
$ELEVATION
 40
0.0
  9
$PELEVATION
 40
0.0
  9
$THICKNESS
 40
0.0
  9
$LIMCHECK
 70
     0
  9
$BLIPMODE
 70
     0
  9
$CHAMFERA
 40
0.0
  9
$CHAMFERB
 40
0.0
  9
$SKPOLY
 70
     0
  9
$TDCREATE
 40
2454700.5488717011
  9
$TDUPDATE
 40
2454700.5802992941
  9
$TDINDWG
 40
0.0103725463
  9
$TDUSRTIMER
 40
0.0103723611
  9
$USRTIMER
 70
     1
  9
$ANGBASE
 50
0.0
  9
$ANGDIR
 70
     0
  9
$PDMODE
 70
     0
  9
$PDSIZE
 40
0.0
  9
$PLINEWID
 40
0.0
  9
$COORDS
 70
     0
  9
$SPLFRAME
 70
     0
  9
$SPLINETYPE
 70
     6
  9
$SPLINESEGS
 70
     8
  9
$ATTDIA
 70
     1
  9
$ATTREQ
 70
     1
  9
$HANDLING
 70
     1
  9
$HANDSEED
  5
336A
  9
$SURFTAB1
 70
     6
  9
$SURFTAB2
 70
     6
  9
$SURFTYPE
 70
     6
  9
$SURFU
 70
     6
  9
$SURFV
 70
     6
  9
$UCSNAME
  2

  9
$UCSORG
 10
0.0
 20
0.0
 30
0.0
  9
$UCSXDIR
 10
1.0
 20
0.0
 30
0.0
  9
$UCSYDIR
 10
0.0
 20
1.0
 30
0.0
  9
$PUCSNAME
  2

  9
$PUCSORG
 10
0.0
 20
0.0
 30
0.0
  9
$PUCSXDIR
 10
1.0
 20
0.0
 30
0.0
  9
$PUCSYDIR
 10
0.0
 20
1.0
 30
0.0
  9
$USERI1
 70
     0
  9
$USERI2
 70
     0
  9
$USERI3
 70
     0
  9
$USERI4
 70
     0
  9
$USERI5
 70
     0
  9
$USERR1
 40
0.0
  9
$USERR2
 40
0.0
  9
$USERR3
 40
0.0
  9
$USERR4
 40
0.0
  9
$USERR5
 40
0.0
  9
$WORLDVIEW
 70
     1
  9
$SHADEDGE
 70
     3
  9
$SHADEDIF
 70
    70
  9
$TILEMODE
 70
     1
  9
$MAXACTVP
 70
    64
  9
$PLIMCHECK
 70
     0
  9
$PEXTMIN
 10
1.0000000000000000E+020
 20
1.0000000000000000E+020
 30
1.0000000000000000E+020
  9
$PEXTMAX
 10
-1.0000000000000000E+020
 20
-1.0000000000000000E+020
 30
-1.0000000000000000E+020
  9
$PLIMMIN
 10
-5.873748779296875
 20
-5.8737497329711923
  9
$PLIMMAX
 10
291.05224609375
 20
204.09957790374739
  9
$UNITMODE
 70
     0
  9
$VISRETAIN
 70
     1
  9
$PLINEGEN
 70
     0
  9
$PSLTSCALE
 70
     1
  0
ENDSEC
  0
SECTION
  2
TABLES
  0
TABLE
  2
VPORT
 70
     3
  0
VPORT
  2
*ACTIVE
 70
     0
 10
0.0
 20
0.0
 11
1.0
 21
1.0
 12
-76.865197937348725
 22
531.51663966520448
 13
0.0
 23
0.0
 14
2.5
 24
2.5
 15
10.0
 25
10.0
 16
0.0
 26
0.0
 36
1.0
 17
0.0
 27
0.0
 37
0.0
 40
125.44326225607379
 41
1.621870882740448
 42
50.0
 43
0.0
 44
0.0
 50
0.0
 51
0.0
 71
     0
 72
   100
 73
     1
 74
     1
 75
     0
 76
     0
 77
     0
 78
     0
  0
ENDTAB
  0
TABLE
  2
LTYPE
 70
    20
  0
LTYPE
  2
CONTINUOUS
 70
     0
  3
Solid line
 72
    65
 73
     0
 40
0.0
  0
LTYPE
  2
AMCONSTR
 70
     0
  3
_______________________
 72
    65
 73
     2
 40
9999.0
 49
9999.0
 49
0.0
  0
LTYPE
  2
CENTER
 70
     0
  3
____ _ ____ _
 72
    65
 73
     4
 40
13.42150481887249
 49
8.3884405117953058
 49
-1.6776881023590591
 49
1.6776881023590591
 49
-1.6776881023590591
  0
LTYPE
  2
HIDDEN
 70
     0
  3
_ _ _ _ _ _ _
 72
    65
 73
     2
 40
2.5165321535385901
 49
1.6776881023590591
 49
-0.8388440511795305
  0
LTYPE
  2
PHANTOM2
 70
     0
  3
Phantom (.5x) ___ _ _ ___ _ _ ___ _ _ ___ _ _
 72
    65
 73
     6
 40
1.25
 49
0.625
 49
-0.125
 49
0.125
 49
-0.125
 49
0.125
 49
-0.125
  0
LTYPE
  2
CENTER2
 70
     0
  3
Center (.5x) ___ _ ___ _ ___ _ ___ _ ___ _ ___
 72
    65
 73
     4
 40
1.125
 49
0.75
 49
-0.125
 49
0.125
 49
-0.125
  0
LTYPE
  2
HIDDEN2
 70
     0
  3
Hidden (.5x) _ _ _ _ _ _ _ _ _ _ _ _ _ _ _ _ _
 72
    65
 73
     2
 40
0.1875
 49
0.125
 49
-0.0625
  0
LTYPE
  2
AMZIGZAG2
 70
     0
  3
/\/-/\/-/\/-/\/-/\/-/\/
 72
    65
 73
     2
 40
0.4401
 49
0.0001
 49
-0.4400000000000001
  0
LTYPE
  2
ACANSTGB
 70
     0
  3
__ . . __ . .
 72
    65
 73
     6
 40
0.35433070866
 49
0.15748031496
 49
-0.03937007874
 49
0.03937007874
 49
-0.03937007874
 49
0.03937007874
 49
-0.03937007874
  0
LTYPE
  2
ACANSTGL
 70
     0
  3
_ _ _ _ _
 72
    65
 73
     2
 40
0.11811023622
 49
0.07874015748
 49
-0.03937007874
  0
ENDTAB
  0
TABLE
  2
LAYER
 70
     1
  0
LAYER
  2
0
 70
     0
 62
     7
  6
CONTINUOUS
  0
ENDTAB
  0
TABLE
  2
STYLE
 70
     6
  0
STYLE
  2
STANDARD
 70
     0
 40
0.0
 41
1.0
 50
0.0
 71
     0
 42
5.0
  3
isocp.shx
  4
extfont.shx
  0
STYLE
  2

 70
     1
 40
0.0
 41
1.0
 50
0.0
 71
     0
 42
2.5
  3
ltypeshp.shx
  4

  0
STYLE
  2
ACANSTS
 70
     0
 40
1.0
 41
1.0
 50
0.0
 71
     0
 42
5.0
  3
romans.shx
  4
extfont.shx
  0
STYLE
  2
ACANSGDT
 70
     0
 40
0.0
 41
1.0
 50
0.0
 71
     0
 42
5.0
  3
amgdtans.shx
  4

  0
ENDTAB
  0
TABLE
  2
VIEW
 70
     6
  0
VIEW
  2
AM_VIEW1
 70
     1
 40
148.4629974365233
 10
102.4788300344005
 20
216.82074642181379
 41
216.70515762739481
 11
0.0
 21
0.0
 31
1.0
 12
0.0
 22
0.0
 32
0.0
 42
50.0
 43
0.0
 44
0.0
 50
0.0
 71
     0
  0
VIEW
  2
AM_VIEW2
 70
     1
 40
148.4629974365233
 10
305.72032768044312
 20
216.82074642181379
 41
216.70515762739481
 11
0.0
 21
0.0
 31
1.0
 12
0.0
 22
0.0
 32
0.0
 42
50.0
 43
0.0
 44
0.0
 50
0.0
 71
     0
  0
VIEW
  2
AM_VIEW3
 70
     1
 40
148.4629974365233
 10
102.4788300344005
 20
68.357748985290513
 41
216.70515762739481
 11
0.0
 21
0.0
 31
1.0
 12
0.0
 22
0.0
 32
0.0
 42
50.0
 43
0.0
 44
0.0
 50
0.0
 71
     0
  0
VIEW
  2
AM_VIEW4
 70
     1
 40
148.4629974365233
 10
305.72032768044312
 20
68.357748985290513
 41
216.70515762739481
 11
0.0
 21
0.0
 31
1.0
 12
0.0
 22
0.0
 32
0.0
 42
50.0
 43
0.0
 44
0.0
 50
0.0
 71
     0
  0
VIEW
  2
AM_VIEW5
 70
     1
 40
148.4629974365233
 10
204.0995788574217
 20
142.5892477035521
 41
216.70515762739461
 11
0.0
 21
0.0
 31
1.0
 12
0.0
 22
0.0
 32
0.0
 42
50.0
 43
0.0
 44
0.0
 50
0.0
 71
     0
  0
VIEW
  2
AM_VIEW6
 70
     1
 40
296.92302561309799
 10
204.0995788574217
 20
142.5892477035521
 41
433.40598115163721
 11
0.0
 21
0.0
 31
1.0
 12
0.0
 22
0.0
 32
0.0
 42
50.0
 43
0.0
 44
0.0
 50
0.0
 71
     0
  0
ENDTAB
  0
TABLE
  2
UCS
 70
     0
  0
ENDTAB
  0
TABLE
  2
APPID
 70
    43
  0
APPID
  2
ACAD
 70
     0
  0
APPID
  2
MCAD_NO_VIS
 70
     0
  0
APPID
  2
ACAD_TEMP_GRAPHIC
 70
     0
  0
APPID
  2
GENIUS_GENODEF_13
 70
     0
  0
APPID
  2
GENIUS_GENOBJ-N-TIT_13
 70
     0
  0
APPID
  2
GENIUS_GENTITLE_13
 70
     0
  0
APPID
  2
GENIUS_GENOENT_13
 70
     0
  0
APPID
  2
GENIUS_GENOREF_13
 70
     0
  0
APPID
  2
GENIUS_GENOLIS_13
 70
     0
  0
APPID
  2
GENIUS_GENZVEED_13
 70
     0
  0
APPID
  2
GENIUS_GENSCREG_15
 70
     0
  0
APPID
  2
GENIUS_GENOBJ-N-SDF_13
 70
     0
  0
APPID
  2
GENIUS_GENOBJ-N-CEN_13
 70
     0
  0
APPID
  2
GENIUS_GENOBJ-N-SEC_13
 70
     0
  0
APPID
  2
GENIUS_GENREC_14
 70
     0
  0
APPID
  2
GENIUS_GENOBJ-N-REC_13
 70
     0
  0
APPID
  2
GENIUS_GENBH_13
 70
     0
  0
APPID
  2
GENIUS_GENOBJ-NBEHI-BHF_13
 70
     0
  0
APPID
  2
GENIUS_GENOBJ-NBEHI-BHB_13
 70
     0
  0
APPID
  2
GENIUS_GENDTOL_13
 70
     0
  0
APPID
  2
GENIUS_GENOBJ-N-HTC_13
 70
     0
  0
APPID
  2
GENIUS_GENHATCH_13
 70
     0
  0
APPID
  2
GENIUS_GENOBJ-N-CRS_13
 70
     0
  0
APPID
  2
GENIUS_GENOBJ-N-CRC_13
 70
     0
  0
APPID
  2
GENIUS_GENCRC_14
 70
     0
  0
APPID
  2
GENIUS_GENOBJ-F-SHCL_13
 70
     0
  0
APPID
  2
GENIUS_GEFMSH_13
 70
     0
  0
APPID
  2
GENIUS_GEFSH_13
 70
     0
  0
APPID
  2
GENIUS_GEFSHP_13
 70
     0
  0
APPID
  2
GENIUS_GENOBJ-F-SHS_13
 70
     0
  0
APPID
  2
GENIUS_GENOBJ-F-SHSS_13
 70
     0
  0
APPID
  2
GENIUS_GEFSHP0_13
 70
     0
  0
APPID
  2
GENIUS_GEFSH0_13
 70
     0
  0
APPID
  2
GEVID995428964
 70
     0
  0
APPID
  2
GEVDC
 70
     0
  0
APPID
  2
GENIUS_GENBH_14
 70
     0
  0
APPID
  2
GEVID995428965
 70
     0
  0
APPID
  2
GEVID995428966
 70
     0
  0
APPID
  2
GENIUS_GENBHRL_14
 70
     0
  0
APPID
  2
GEVID995428967
 70
     0
  0
APPID
  2
GEVID995428968
 70
     0
  0
APPID
  2
GENIUS_GENOBJ-F-SHCV_13
 70
     0
  0
APPID
  2
ACATTRIBSERVICES
 70
     0
  0
ENDTAB
  0
TABLE
  2
DIMSTYLE
 70
    14
  0
DIMSTYLE
  2
AM_JIS
 70
     0
  3

  4
"
  5

  6

  7

 40
1.0
 41
2.5
 42
1.0
 43
10.0
 44
1.0
 45
0.0
 46
0.0
 47
0.1
 48
0.1
140
3.5
141
0.0
142
0.0
143
0.0393701
144
1.0
145
0.0
146
0.71
147
1.5
 71
     1
 72
     0
 73
     1
 74
     1
 75
     0
 76
     0
 77
     0
 78
     8
170
     0
171
     2
172
     1
173
     0
174
     0
175
     0
176
   256
177
   256
178
     2
  0
DIMSTYLE
  2
STANDARD
 70
     0
  3

  4

  5

  6

  7

 40
1.0
 41
0.18
 42
0.0625
 43
0.38
 44
0.18
 45
0.0
 46
0.0
 47
0.0
 48
0.0
140
0.18
141
0.09
142
0.0
143
25.399999999999999
144
1.0
145
0.0
146
1.0
147
0.09
 71
     0
 72
     0
 73
     1
 74
     1
 75
     0
 76
     0
 77
     0
 78
     0
170
     0
171
     2
172
     0
173
     0
174
     0
175
     0
176
     0
177
     0
178
     0
  0
DIMSTYLE
  2
AM_ANSI
 70
     0
  3

  4
mm
  5

  6

  7

 40
1.0
 41
0.1
 42
0.05
 43
0.5
 44
0.1
 45
0.0
 46
0.0
 47
0.1
 48
0.1
140
0.12
141
0.0
142
0.0
143
25.399999999999999
144
1.0
145
0.0
146
0.71
147
0.06
 71
     0
 72
     0
 73
     1
 74
     1
 75
     0
 76
     0
 77
     0
 78
     7
170
     0
171
     2
172
     0
173
     0
174
     0
175
     0
176
   256
177
   256
178
     2
  0
DIMSTYLE
  2
AM_ANSI$3
 70
     0
  3

  4
mm
  5

  6

  7

 40
1.0
 41
0.1
 42
0.05
 43
0.5
 44
0.1
 45
0.0
 46
0.0
 47
0.1
 48
0.1
140
0.12
141
0.0
142
0.0
143
25.399999999999999
144
1.0
145
0.0
146
0.71
147
0.06
 71
     0
 72
     0
 73
     1
 74
     1
 75
     0
 76
     0
 77
     0
 78
     7
170
     0
171
     2
172
     0
173
     0
174
     0
175
     0
176
   256
177
   256
178
     2
  0
DIMSTYLE
  2
AM_ANSI$4
 70
     0
  3

  4
mm
  5

  6

  7

 40
1.0
 41
0.1
 42
0.05
 43
0.5
 44
0.1
 45
0.0
 46
0.0
 47
0.1
 48
0.1
140
0.12
141
0.0
142
0.0
143
25.399999999999999
144
1.0
145
0.0
146
0.71
147
0.06
 71
     0
 72
     0
 73
     1
 74
     1
 75
     0
 76
     0
 77
     0
 78
     7
170
     0
171
     2
172
     0
173
     0
174
     0
175
     0
176
   256
177
   256
178
     2
  0
DIMSTYLE
  2
AM_ANSI$7
 70
     0
  3

  4
mm
  5

  6

  7

 40
1.0
 41
0.1
 42
0.05
 43
0.5
 44
0.1
 45
0.0
 46
0.0
 47
0.1
 48
0.1
140
0.24
141
0.0
142
0.0
143
25.399999999999999
144
1.0
145
0.0
146
0.71
147
0.06
 71
     0
 72
     0
 73
     1
 74
     1
 75
     0
 76
     0
 77
     0
 78
     7
170
     0
171
     2
172
     0
173
     0
174
     0
175
     0
176
   256
177
   256
178
     2
  0
DIMSTYLE
  2
AM_ANSI$SF
 70
     0
  3

  4
mm
  5

  6

  7

 40
1.0
 41
0.1
 42
0.05
 43
0.5
 44
0.1
 45
0.0
 46
0.0
 47
0.1
 48
0.1
140
0.12
141
0.0
142
0.0
143
25.399999999999999
144
1.0
145
0.0
146
0.71
147
0.06
 71
     0
 72
     0
 73
     1
 74
     1
 75
     1
 76
     1
 77
     0
 78
     7
170
     0
171
     2
172
     0
173
     0
174
     0
175
     0
176
   256
177
   256
178
     2
  0
DIMSTYLE
  2
AM_ANSI$SH
 70
     0
  3

  4
mm
  5

  6
GENAXEH
  7

 40
1.0
 41
0.1
 42
0.05
 43
0.5
 44
0.1
 45
0.0
 46
0.0
 47
0.1
 48
0.1
140
0.12
141
0.0
142
0.0
143
25.399999999999999
144
1.0
145
0.0
146
0.71
147
0.06
 71
     0
 72
     0
 73
     1
 74
     1
 75
     1
 76
     1
 77
     0
 78
     7
170
     0
171
     2
172
     0
173
     1
174
     0
175
     0
176
   256
177
   256
178
     2
  0
ENDTAB
  0
ENDSEC
  0
SECTION
  2
BLOCKS
  0
BLOCK
  8
0
  2
$MODEL_SPACE
 70
     0
 10
0.0
 20
0.0
 30
0.0
  3
$MODEL_SPACE
  1

  0
ENDBLK
  5
32C5
  8
0
  0
BLOCK
 67
     1
  8
0
  2
$PAPER_SPACE
 70
     0
 10
0.0
 20
0.0
 30
0.0
  3
$PAPER_SPACE
  1

  0
ENDBLK
  5
32C1
 67
     1
  8
0
  0
BLOCK
  8
0
  2
GENAXEH
 70
     0
 10
0.0
 20
0.0
 30
0.0
  3
GENAXEH
  1

  0
LINE
  5
98
  8
0
 10
-1.0
 20
0.0
 30
0.0
 11
1.0
 21
0.0
 31
0.0
  0
ENDBLK
  5
9A
  8
0
  0
BLOCK
  8
0
 62
     0
  2
_OPEN30
 70
     0
 10
0.0
 20
0.0
 30
0.0
  3
_OPEN30
  1

  0
LINE
  5
21
  8
0
 62
     0
 10
-1.0
 20
0.26794919
 30
0.0
 11
0.0
 21
0.0
 31
0.0
  0
LINE
  5
22
  8
0
 62
     0
 10
0.0
 20
0.0
 30
0.0
 11
-1.0
 21
-0.26794919
 31
0.0
  0
LINE
  5
23
  8
0
 62
     0
 10
0.0
 20
0.0
 30
0.0
 11
-1.0
 21
0.0
 31
0.0
  0
ENDBLK
  5
25
  8
0
 62
     0
  0
ENDSEC
  0
SECTION
  2
ENTITIES
  0
LINE
  5
3159
  8
0
  6
CONTINUOUS
 62
     7
 10
-110.69083016852071
 20
494.56277568187539
 30
0.0
 11
-110.69083016852071
 21
525.56277568187534
 31
0.0
  0
LINE
  5
315A
  8
0
  6
CONTINUOUS
 62
     7
 10
-121.89083016852059
 20
525.56277568187534
 30
0.0
 11
-121.89083016852059
 21
494.56277568187539
 31
0.0
  0
LINE
  5
315B
  8
0
  6
CONTINUOUS
 62
     7
 10
-57.493910360234459
 20
494.56277568187539
 30
0.0
 11
-57.493910360234459
 21
525.56277568187534
 31
0.0
  0
LINE
  5
315C
  8
0
  6
CONTINUOUS
 62
     7
 10
-37.49391036023475
 20
525.56277568187534
 30
0.0
 11
-37.493910360234644
 21
501.56277568187483
 31
0.0
  0
LINE
  5
315D
  8
0
  6
CENTER
 62
     4
 10
-123.30328519669359
 20
497.36277568187518
 30
0.0
 11
-109.2783751403478
 21
497.36277568187518
 31
0.0
  0
LINE
  5
315E
  8
0
  6
CONTINUOUS
 62
     7
 10
-121.89083016852059
 20
494.56277568187539
 30
0.0
 11
-110.69083016852071
 21
494.56277568187539
 31
0.0
  0
LINE
  5
3166
  8
0
  6
CONTINUOUS
 62
     7
 10
-57.493910360234459
 20
494.56277568187539
 30
0.0
 11
-42.99391036023485
 21
494.56277568187539
 31
0.0
  0
LINE
  5
3167
  8
0
  6
CENTER
 62
     4
 10
-58.001323563505281
 20
497.36277568187518
 30
0.0
 11
-50.98649715696407
 21
497.36277568187518
 31
0.0
  0
LINE
  5
3168
  8
0
  6
CENTER
 62
     4
 10
-54.493910360234452
 20
501.02630019917672
 30
0.0
 11
-54.493910360234452
 21
493.6992511645737
 31
0.0
  0
CIRCLE
  5
3169
  8
0
  6
CONTINUOUS
 62
     7
 10
-54.493910360234452
 20
497.36277568187518
 30
0.0
 40
1.3499999999999941
  0
CIRCLE
  5
316A
  8
0
  6
CONTINUOUS
 62
     2
 10
-54.493910360234452
 20
497.36277568187518
 30
0.0
 40
1.5
  0
LINE
  5
316E
  8
0
  6
CONTINUOUS
 62
     4
 10
-54.493910360234452
 20
587.05794074937558
 30
0.0
 11
-67.493910360234651
 21
587.05794074937558
 31
0.0
  0
LINE
  5
316F
  8
0
  6
CONTINUOUS
 62
     4
 10
-67.493910360234651
 20
510.06277568187511
 30
0.0
 11
-54.493910360234452
 21
510.06277568187511
 31
0.0
  0
ARC
  5
3170
  8
0
  6
CONTINUOUS
 62
     7
 10
-115.10407155899171
 20
524.70577383500358
 30
0.0
 40
2.7501786724523201
 50
18.156692740035979
 51
68.397192297993058
  0
LINE
  5
3171
  8
0
  6
CENTER
 62
     4
 10
-112.2908301685205
 20
510.06277568187511
 30
0.0
 11
-120.2908301685206
 21
510.06277568187511
 31
0.0
  0
LINE
  5
3172
  8
0
  6
CENTER
 62
     4
 10
-123.30328519669359
 20
522.76277568187538
 30
0.0
 11
-109.2783751403478
 21
522.76277568187538
 31
0.0
  0
LINE
  5
3173
  8
0
  6
CONTINUOUS
 62
     7
 10
-110.69083016852071
 20
525.56277568187534
 30
0.0
 11
-121.89083016852059
 21
525.56277568187534
 31
0.0
  0
LINE
  5
3174
  8
0
  6
CENTER
 62
     4
 10
-116.2908301685205
 20
514.06277568187534
 30
0.0
 11
-116.2908301685205
 21
506.06277568187511
 31
0.0
  0
ARC
  5
3175
  8
0
  6
CONTINUOUS
 62
     7
 10
-117.47758877804959
 20
524.70577383500358
 30
0.0
 40
2.7501786724524342
 50
111.60280770200841
 51
161.84330725996401
  0
LINE
  5
3176
  8
0
  6
CONTINUOUS
 62
     7
 10
-115.19047627188471
 20
527.62812754867502
 30
0.0
 11
-117.39047627187691
 21
527.62812754867502
 31
0.0
  0
LINE
  5
3177
  8
0
  6
CONTINUOUS
 62
     7
 10
-118.4908301685207
 20
527.26277568187504
 30
0.0
 11
-114.0915379617672
 21
527.26277568187504
 31
0.0
  0
LINE
  5
3178
  8
0
  6
CONTINUOUS
 62
     7
 10
-117.39047627187691
 20
527.26277568187515
 30
0.0
 11
-117.39047627187691
 21
527.62812754867502
 31
0.0
  0
LINE
  5
3179
  8
0
  6
CONTINUOUS
 62
     7
 10
-115.19047627188471
 20
527.62812754867502
 30
0.0
 11
-115.1904762718767
 21
527.26277568187515
 31
0.0
  0
SOLID
  5
317A
  8
0
  6
CONTINUOUS
 62
     4
 10
-63.993910360234537
 20
510.52355942343121
 30
0.0
 11
-63.993910360234537
 21
509.60199194031901
 31
0.0
 12
-67.493910360234651
 22
510.06277568187511
 32
0.0
 13
-67.493910360234651
 23
510.06277568187511
 33
0.0
  0
SOLID
  5
317B
  8
0
  6
CONTINUOUS
 62
     4
 10
-63.993910360234537
 20
587.51872449093162
 30
0.0
 11
-63.993910360234537
 21
586.59715700781976
 31
0.0
 12
-67.493910360234651
 22
587.05794074937558
 32
0.0
 13
-67.493910360234651
 23
587.05794074937558
 33
0.0
  0
ARC
  5
317C
  8
0
  6
CONTINUOUS
 62
     7
 10
-40.981107429788523
 20
586.03903928415275
 30
0.0
 40
1.5393348573290691
 50
309.88987472747363
 51
356.98002291836877
  0
ARC
  5
317D
  8
0
  6
CONTINUOUS
 62
     7
 10
-41.056765164198012
 20
586.06184032193744
 30
0.0
 40
2.012858581347817
 50
307.17186063270287
 51
359.88899906257723
  0
ARC
  5
317E
  8
0
  6
CONTINUOUS
 62
     7
 10
-45.589632972688399
 20
576.66561469309988
 30
0.0
 40
8.1962712987158302
 50
91.777803421964038
 51
126.45652821088279
  0
LINE
  5
317F
  8
0
  6
CONTINUOUS
 62
     7
 10
-51.543910393517322
 20
589.20794074937589
 30
0.0
 11
-51.543909914908888
 21
584.90794074937594
 31
0.0
  0
LINE
  5
3180
  8
0
  6
CENTER
 62
     4
 10
-54.493910360234452
 20
593.73237607327928
 30
0.0
 11
-54.493910360234452
 21
580.38350542547209
 31
0.0
  0
LINE
  5
3181
  8
0
  6
CONTINUOUS
 62
     7
 10
-37.493910360234644
 20
581.45794074937578
 30
0.0
 11
-37.493910360234452
 21
592.6579407493756
 31
0.0
  0
LINE
  5
3182
  8
0
  6
CONTINUOUS
 62
     7
 10
-57.493910360234459
 20
592.65794074937605
 30
0.0
 11
-57.493910360234459
 21
581.45794074937578
 31
0.0
  0
LINE
  5
3183
  8
0
  6
CENTER
 62
     4
 10
-54.493910360234452
 20
526.42630019917692
 30
0.0
 11
-54.493910360234452
 21
519.09925116457373
 31
0.0
  0
CIRCLE
  5
3184
  8
0
  6
CONTINUOUS
 62
     7
 10
-54.493910360234452
 20
522.76277568187538
 30
0.0
 40
1.3499999999999941
  0
CIRCLE
  5
3185
  8
0
  6
CONTINUOUS
 62
     2
 10
-54.493910360234452
 20
522.76277568187538
 30
0.0
 40
1.5
  0
LINE
  5
3186
  8
0
  6
CENTER
 62
     4
 10
-58.001323563505281
 20
522.76277568187538
 30
0.0
 11
-50.98649715696407
 21
522.76277568187538
 31
0.0
  0
ARC
  5
3187
  8
0
  6
CONTINUOUS
 62
     7
 10
-45.53397637307738
 20
513.2114954380487
 30
0.0
 40
14.0520025032631
 50
95.145607165175747
 51
108.691938804381
  0
ARC
  5
3188
  8
0
  6
CONTINUOUS
 62
     7
 10
-49.175298956854661
 20
523.50639070364059
 30
0.0
 40
3.136724116488526
 50
105.9517573527575
 51
139.03608140730131
  0
ARC
  5
3189
  8
0
  6
CONTINUOUS
 62
     7
 10
-49.052257946217921
 20
525.14349670391016
 30
0.0
 40
1.468800138826889
 50
118.5306482470352
 51
163.41384474114869
  0
LINE
  5
318A
  8
0
  6
CONTINUOUS
 62
     7
 10
-57.493910360234459
 20
525.56277568187534
 30
0.0
 11
-37.49391036023475
 21
525.56277568187534
 31
0.0
  0
LINE
  5
318B
  8
0
  6
CONTINUOUS
 62
     7
 10
-45.124363187689838
 20
527.26269865873883
 30
0.0
 11
-39.44391036023454
 21
527.26277563659039
 31
0.0
  0
ARC
  5
318C
  8
0
  6
CONTINUOUS
 62
     7
 10
-45.624921571367807
 20
515.27516661509185
 30
0.0
 40
11.984073909788311
 50
91.285694143606506
 51
100.6370941227644
  0
ARC
  5
318D
  8
0
  6
CONTINUOUS
 62
     7
 10
-46.762192727547401
 20
520.4514829290672
 30
0.0
 40
6.688748920512773
 50
99.247175617580723
 51
116.5679886171047
  0
ARC
  5
318E
  8
0
  6
CONTINUOUS
 62
     7
 10
-45.371985651358088
 20
509.66777343609527
 30
0.0
 40
17.596667595738769
 50
89.193700153825574
 51
94.636065397435303
  0
LINE
  5
318F
  8
0
  6
CONTINUOUS
 62
     7
 10
-44.246440756897719
 20
527.26277568187515
 30
0.0
 11
-44.246440756897719
 21
527.62812754867525
 31
0.0
  0
LINE
  5
3190
  8
0
  6
CONTINUOUS
 62
     7
 10
-46.446440756897744
 20
527.62812754867525
 30
0.0
 11
-46.446440756897729
 21
527.23357487023725
 31
0.0
  0
LINE
  5
3191
  8
0
  6
CONTINUOUS
 62
     7
 10
-46.446440756897744
 20
527.62812754867525
 30
0.0
 11
-44.246440756897719
 21
527.62812754867525
 31
0.0
  0
LINE
  5
3192
  8
0
  6
CONTINUOUS
 62
     7
 10
-40.346440756897749
 20
527.62812754867525
 30
0.0
 11
-42.546440756897752
 21
527.62812754867525
 31
0.0
  0
LINE
  5
3193
  8
0
  6
CONTINUOUS
 62
     7
 10
-42.546440756897752
 20
527.62812754867525
 30
0.0
 11
-42.546440756897738
 21
527.26277568187515
 31
0.0
  0
LINE
  5
3194
  8
0
  6
CONTINUOUS
 62
     7
 10
-40.346440756897749
 20
527.26277568187515
 30
0.0
 11
-40.346440756897749
 21
527.62812754867525
 31
0.0
  0
LINE
  5
3195
  8
0
  6
CONTINUOUS
 62
     7
 10
-39.44391036023454
 20
527.26277563659039
 30
0.0
 11
-39.043910360234527
 21
525.56277568187534
 31
0.0
  0
LINE
  5
3196
  8
0
  6
CONTINUOUS
 62
     7
 10
-39.993910360234587
 20
527.26276834096973
 30
0.0
 11
-39.840580215436887
 21
525.56277568187534
 31
0.0
  0
LINE
  5
3197
  8
0
  6
CONTINUOUS
 62
     7
 10
-50.459961541676421
 20
583.25794074937585
 30
0.0
 11
-47.459954647096417
 21
583.25794074937585
 31
0.0
  0
LINE
  5
3198
  8
0
  6
CONTINUOUS
 62
     7
 10
-57.493910360234459
 20
581.45794074937578
 30
0.0
 11
-37.493910360234644
 21
581.45794074937578
 31
0.0
  0
ARC
  5
3199
  8
0
  6
CONTINUOUS
 62
     7
 10
-49.731572952856887
 20
584.917491374375
 30
0.0
 40
1.812362605346268
 50
180.30193352877291
 51
246.30298750256321
  0
LINE
  5
319A
  8
0
  6
CONTINUOUS
 62
     7
 10
-39.99391036023458
 20
584.85794074937564
 30
0.0
 11
-45.843910360234503
 21
584.85794074937564
 31
0.0
  0
LINE
  5
319B
  8
0
  6
CONTINUOUS
 62
     7
 10
-39.840580215416452
 20
584.45794074937601
 30
0.0
 11
-45.035679076380148
 21
584.45794074937601
 31
0.0
  0
ARC
  5
319C
  8
0
  6
CONTINUOUS
 62
     7
 10
-45.076332951599369
 20
581.49125089007146
 30
0.0
 40
2.9669589559365921
 50
89.228316392524917
 51
143.4549416676945
  0
ARC
  5
319D
  8
0
  6
CONTINUOUS
 62
     7
 10
-49.163878124775131
 20
581.113471869926
 30
0.0
 40
9.9050167083089917
 50
19.73400963150236
 51
22.212180790194061
  0
ARC
  5
319E
  8
0
  6
CONTINUOUS
 62
     7
 10
-45.589632972688399
 20
597.45026680565161
 30
0.0
 40
8.1962712987158302
 50
233.54347178911709
 51
268.22219657803578
  0
LINE
  5
319F
  8
0
  6
CONTINUOUS
 62
     7
 10
-50.459961541676421
 20
590.85794074937598
 30
0.0
 11
-47.459954647096417
 21
590.85794074937598
 31
0.0
  0
LINE
  5
31A0
  8
0
  6
CONTINUOUS
 62
     7
 10
-37.493910360234452
 20
592.6579407493756
 30
0.0
 11
-57.493910360234459
 21
592.65794074937605
 31
0.0
  0
ARC
  5
31A1
  8
0
  6
CONTINUOUS
 62
     7
 10
-49.731572952856887
 20
589.19839012437671
 30
0.0
 40
1.812362605346268
 50
113.6970124974367
 51
179.69806647122709
  0
LINE
  5
31A2
  8
0
  6
CONTINUOUS
 62
     7
 10
-39.982279082498373
 20
589.25794074937585
 30
0.0
 11
-45.843910360234503
 21
589.25794074937585
 31
0.0
  0
LINE
  5
31A3
  8
0
  6
CONTINUOUS
 62
     7
 10
-39.840580215416452
 20
589.65794074937583
 30
0.0
 11
-45.035679076380148
 21
589.65794074937583
 31
0.0
  0
ARC
  5
31A4
  8
0
  6
CONTINUOUS
 62
     7
 10
-45.076332951599369
 20
592.62463060868015
 30
0.0
 40
2.9669589559365921
 50
216.5450583323053
 51
270.7716836074751
  0
CIRCLE
  5
31A5
  8
0
  6
CONTINUOUS
 62
     7
 10
-45.34391036023456
 20
587.0579407493758
 30
0.0
 40
1.1000000000000001
  0
CIRCLE
  5
31A6
  8
0
  6
CONTINUOUS
 62
     7
 10
-41.443910360234547
 20
587.0579407493758
 30
0.0
 40
1.1000000000000001
  0
ARC
  5
31A7
  8
0
  6
CONTINUOUS
 62
     7
 10
-41.056765164198012
 20
588.05404117681428
 30
0.0
 40
2.012858581347817
 50
0.1110009374227218
 51
52.828139367296913
  0
ARC
  5
31A8
  8
0
  6
CONTINUOUS
 62
     7
 10
-40.981107429788523
 20
588.07684221459886
 30
0.0
 40
1.5393348573290691
 50
3.0199770816310281
 51
50.110125272526219
  0
LINE
  5
31A9
  8
0
  6
CONTINUOUS
 62
     7
 10
-39.443910360234533
 20
588.15794074937583
 30
0.0
 11
-39.443910360234568
 21
585.95794074937567
 31
0.0
  0
LINE
  5
31AA
  8
0
  6
CONTINUOUS
 62
     7
 10
-39.043910360234527
 20
588.05794074937558
 30
0.0
 11
-39.043910360234527
 21
586.0579407493758
 31
0.0
  0
ARC
  5
31AB
  8
0
  6
CONTINUOUS
 62
     7
 10
-134.91936247985191
 20
623.11423186421905
 30
0.0
 40
100.7933442844769
 50
340.37284085010981
 51
340.61406573806539
  0
TEXT
  5
31B9
  8
0
 62
     2
 10
-48.800242792488753
 20
469.25336429928711
 30
0.0
 40
3.5
  1
cx-421-z
  0
LINE
  5
324F
  8
0
  6
CONTINUOUS
 62
     7
 10
-39.743910360234757
 20
483.06277568187511
 30
0.0
 11
-46.243910360235063
 21
483.06277568187511
 31
0.0
  0
LINE
  5
3250
  8
0
  6
CONTINUOUS
 62
     7
 10
-39.543909993570061
 20
485.06277568187528
 30
0.0
 11
-46.443910726899873
 21
485.06277568187528
 31
0.0
  0
LINE
  5
3251
  8
0
  6
CONTINUOUS
 62
     7
 10
-37.993910360234381
 20
499.56277568187522
 30
0.0
 11
-42.993910360234388
 21
494.56277568187539
 31
0.0
  0
LINE
  5
3252
  8
0
  6
CONTINUOUS
 62
     7
 10
-44.493910360234267
 20
494.56277568187511
 30
0.0
 11
-37.493910360234644
 21
501.56277568187483
 31
0.0
  0
LINE
  5
3253
  8
0
  6
CONTINUOUS
 62
     7
 10
-38.993910360235148
 20
489.06277568187528
 30
0.0
 11
-46.993910360234757
 21
489.06277568187528
 31
0.0
  0
LINE
  5
3254
  8
0
  6
CONTINUOUS
 62
     7
 10
-38.993910360235049
 20
486.06277568187687
 30
0.0
 11
-46.993910360234757
 21
486.0627756818771
 31
0.0
  0
LINE
  5
3255
  8
0
  6
CONTINUOUS
 62
     7
 10
-38.29391036023447
 20
490.06277568187539
 30
0.0
 11
-47.693910360234362
 21
490.06277568187539
 31
0.0
  0
LINE
  5
3256
  8
0
  6
CONTINUOUS
 62
     7
 10
-46.443910726899873
 20
485.06277568187511
 30
0.0
 11
-46.243910360235063
 21
483.06277268190502
 31
0.0
  0
LINE
  5
3257
  8
0
  6
CONTINUOUS
 62
     7
 10
-47.693910360234362
 20
494.56277568187488
 30
0.0
 11
-47.693910360234362
 21
490.06277568187539
 31
0.0
  0
LINE
  5
3258
  8
0
  6
CONTINUOUS
 62
     7
 10
-46.993910360234757
 20
489.06277568187528
 30
0.0
 11
-46.993910360234757
 21
486.0627756818771
 31
0.0
  0
LINE
  5
3259
  8
0
  6
CONTINUOUS
 62
     7
 10
-46.243910360234857
 20
486.06277568187539
 30
0.0
 11
-46.243910360234857
 21
485.06277568187528
 31
0.0
  0
LINE
  5
325A
  8
0
  6
CONTINUOUS
 62
     7
 10
-46.243910360235148
 20
490.06277568187539
 30
0.0
 11
-46.243910360235063
 21
489.06277568187528
 31
0.0
  0
LINE
  5
325B
  8
0
  6
CONTINUOUS
 62
     7
 10
-39.543909993570061
 20
485.06277568187528
 30
0.0
 11
-39.743910360234757
 21
483.06277268190502
 31
0.0
  0
LINE
  5
325C
  8
0
  6
CONTINUOUS
 62
     7
 10
-38.29391036023447
 20
490.06277568187539
 30
0.0
 11
-38.29391036023447
 21
499.2627756818751
 31
0.0
  0
LINE
  5
325D
  8
0
  6
CONTINUOUS
 62
     7
 10
-38.993910360235049
 20
486.06277568187687
 30
0.0
 11
-38.993910360235148
 21
489.06277568187528
 31
0.0
  0
LINE
  5
325E
  8
0
  6
CONTINUOUS
 62
     7
 10
-39.743910360234757
 20
485.06277568187528
 30
0.0
 11
-39.743910360234757
 21
486.06277568187539
 31
0.0
  0
LINE
  5
325F
  8
0
  6
CONTINUOUS
 62
     7
 10
-39.743910360234757
 20
490.06277568187539
 30
0.0
 11
-39.743910360234757
 21
489.06277568187528
 31
0.0
  0
LINE
  5
3260
  8
0
  6
CONTINUOUS
 62
     7
 10
-37.993910360234253
 20
501.06277568187528
 30
0.0
 11
-37.993910360234381
 21
499.56277568187522
 31
0.0
  0
LINE
  5
3261
  8
0
  6
CENTER
 62
     4
 10
-42.99391036023485
 20
495.49565683809629
 30
0.0
 11
-42.99391036023485
 21
480.56277568187568
 31
0.0
  0
LINE
  5
327B
  8
0
  6
CENTER
 62
     4
 10
-116.2908301685207
 20
480.56277568187568
 30
0.0
 11
-116.2908301685207
 21
495.49565683809629
 31
0.0
  0
LINE
  5
327C
  8
0
  6
CONTINUOUS
 62
     7
 10
-119.7408305351864
 20
485.06277568186761
 30
0.0
 11
-119.5408301685215
 21
483.0627726818978
 31
0.0
  0
LINE
  5
327D
  8
0
  6
CONTINUOUS
 62
     7
 10
-112.8408298018567
 20
485.06277568186761
 30
0.0
 11
-113.0408301685215
 21
483.0627726818978
 31
0.0
  0
LINE
  5
327E
  8
0
  6
CONTINUOUS
 62
     7
 10
-113.0408301685215
 20
483.06277568186778
 30
0.0
 11
-119.5408301685215
 21
483.06277568186778
 31
0.0
  0
LINE
  5
327F
  8
0
  6
CONTINUOUS
 62
     7
 10
-111.5908301685209
 20
490.06277568186778
 30
0.0
 11
-120.9908301685193
 21
490.06277568186778
 31
0.0
  0
LINE
  5
3280
  8
0
  6
CONTINUOUS
 62
     7
 10
-120.9908301685193
 20
490.06277568186778
 30
0.0
 11
-120.9908301685215
 21
494.56277568187539
 31
0.0
  0
LINE
  5
3281
  8
0
  6
CONTINUOUS
 62
     7
 10
-112.8408298018567
 20
485.06277568186761
 30
0.0
 11
-119.7408305351864
 21
485.06277568186761
 31
0.0
  0
LINE
  5
3282
  8
0
  6
CONTINUOUS
 62
     7
 10
-112.2908301685215
 20
489.06277568186761
 30
0.0
 11
-120.2908301685214
 21
489.06277568186761
 31
0.0
  0
LINE
  5
3283
  8
0
  6
CONTINUOUS
 62
     7
 10
-112.2908301685215
 20
486.06277568186931
 30
0.0
 11
-120.29083016852159
 21
486.06277568186931
 31
0.0
  0
LINE
  5
3284
  8
0
  6
CONTINUOUS
 62
     7
 10
-120.2908301685214
 20
489.06277568186761
 30
0.0
 11
-120.29083016852159
 21
486.06277568186931
 31
0.0
  0
LINE
  5
3285
  8
0
  6
CONTINUOUS
 62
     7
 10
-119.5408301685214
 20
486.06277568186772
 30
0.0
 11
-119.5408301685214
 21
485.06277568186761
 31
0.0
  0
LINE
  5
3286
  8
0
  6
CONTINUOUS
 62
     7
 10
-119.5408301685209
 20
490.06277568186778
 30
0.0
 11
-119.5408301685209
 21
489.06277568186761
 31
0.0
  0
LINE
  5
3287
  8
0
  6
CONTINUOUS
 62
     7
 10
-112.2908301685215
 20
486.06277568186931
 30
0.0
 11
-112.2908301685215
 21
489.06277568186761
 31
0.0
  0
LINE
  5
3288
  8
0
  6
CONTINUOUS
 62
     7
 10
-113.0408301685214
 20
485.06277568186761
 30
0.0
 11
-113.0408301685214
 21
486.06277568186772
 31
0.0
  0
LINE
  5
3289
  8
0
  6
CONTINUOUS
 62
     7
 10
-113.0408301685209
 20
490.06277568186778
 30
0.0
 11
-113.0408301685209
 21
489.06277568186761
 31
0.0
  0
LINE
  5
328A
  8
0
  6
CONTINUOUS
 62
     7
 10
-111.5908301685209
 20
490.06277568186778
 30
0.0
 11
-111.5908301685209
 21
494.56277568187539
 31
0.0
  0
VIEWPORT
  5
31B7
 67
     1
  8
0
 10
142.58924865722651
 20
99.112914085388198
 30
0.0
 40
298.7640236092526
 41
234.25815487543659
 68
     1
 69
     1
1001
ACAD
1000
MVIEW
1002
{
1070
    16
1010
0.0
1020
0.0
1030
0.0
1010
0.0
1020
0.0
1030
1.0
1040
0.0
1040
234.25815487543659
1040
142.58924865722651
1040
99.112914085388198
1040
50.0
1040
0.0
1040
0.0
1070
     0
1070
   100
1070
     1
1070
     1
1070
     0
1070
     0
1070
     0
1070
     0
1040
0.0
1040
0.0
1040
0.0
1040
10.0
1040
10.0
1040
10.0
1040
10.0
1070
     0
1002
{
1002
}
1002
}
1001
GENIUS_GENODEF_13
1002
{
1000
HIER
1070
     0
1002
}
1002
{
1000
MANEDIT
1070
     0
1002
}
1002
{
1000
NOSEL
1070
     0
1002
}
1002
{
1000
BEHIND
1070
     0
1002
}
1002
{
1000
OTHER
1070
     0
1002
}
1002
{
1000
REACTOR
1002
}
1001
GENIUS_GENOBJ-N-SDF_13
1002
{
1000
OWNER
1000
GEN
1002
}
1001
GENIUS_GENSCREG_15
1000
PF
1040
1.0
1000
DF
1040
1.0
1000
MIN
1011
-6.7927631473997963
1021
0.0
1031
0.0
1021
-18.01616335233015
1031
0.0
1000
MAX
1011
291.97126046185281
1021
0.0
1031
0.0
1021
216.24199152310649
1031
0.0
1000
FLAGS
1070
     2
  0
ENDSEC
  0
EOF
