  0
SECTION
  2
HEADER
  9
$ACADVER
  1
AC1009
  9
$INSBASE
 10
0.0
 20
0.0
 30
0.0
  9
$EXTMIN
 10
743.62071504730875
 20
325.4337065270019
 30
-0.0015258207003583
  9
$EXTMAX
 10
935.29170544490455
 20
573.74886155631634
 30
0.0000000349246037
  9
$LIMMIN
 10
757.28627290155328
 20
325.44128346354063
  9
$LIMMAX
 10
935.28627290155339
 20
573.74128346354053
  9
$ORTHOMODE
 70
     0
  9
$REGENMODE
 70
     1
  9
$FILLMODE
 70
     1
  9
$QTEXTMODE
 70
     0
  9
$MIRRTEXT
 70
     0
  9
$DRAGMODE
 70
     2
  9
$LTSCALE
 40
1.0
  9
$OSMODE
 70
    39
  9
$ATTMODE
 70
     1
  9
$TEXTSIZE
 40
3.5
  9
$TRACEWID
 40
0.5
  9
$TEXTSTYLE
  7
STANDARD
  9
$CLAYER
  8
0
  9
$CELTYPE
  6
BYLAYER
  9
$CECOLOR
 62
   256
  9
$DIMSCALE
 40
1.0
  9
$DIMASZ
 40
0.18
  9
$DIMEXO
 40
0.0625
  9
$DIMDLI
 40
0.38
  9
$DIMRND
 40
0.0
  9
$DIMDLE
 40
0.0
  9
$DIMEXE
 40
0.18
  9
$DIMTP
 40
0.0
  9
$DIMTM
 40
0.0
  9
$DIMTXT
 40
0.18
  9
$DIMCEN
 40
0.09
  9
$DIMTSZ
 40
0.0
  9
$DIMTOL
 70
     0
  9
$DIMLIM
 70
     0
  9
$DIMTIH
 70
     1
  9
$DIMTOH
 70
     1
  9
$DIMSE1
 70
     0
  9
$DIMSE2
 70
     0
  9
$DIMTAD
 70
     0
  9
$DIMZIN
 70
     0
  9
$DIMBLK
  1

  9
$DIMASO
 70
     1
  9
$DIMSHO
 70
     1
  9
$DIMPOST
  1

  9
$DIMAPOST
  1

  9
$DIMALT
 70
     0
  9
$DIMALTD
 70
     2
  9
$DIMALTF
 40
25.399999999999999
  9
$DIMLFAC
 40
1.0
  9
$DIMTOFL
 70
     0
  9
$DIMTVP
 40
0.0
  9
$DIMTIX
 70
     0
  9
$DIMSOXD
 70
     0
  9
$DIMSAH
 70
     0
  9
$DIMBLK1
  1

  9
$DIMBLK2
  1

  9
$DIMSTYLE
  2
STANDARD
  9
$DIMCLRD
 70
     0
  9
$DIMCLRE
 70
     0
  9
$DIMCLRT
 70
     0
  9
$DIMTFAC
 40
1.0
  9
$DIMGAP
 40
0.09
  9
$LUNITS
 70
     2
  9
$LUPREC
 70
     4
  9
$SKETCHINC
 40
0.1
  9
$FILLETRAD
 40
2.0
  9
$AUNITS
 70
     0
  9
$AUPREC
 70
     0
  9
$MENU
  1
ACAD
  9
$ELEVATION
 40
0.0
  9
$PELEVATION
 40
0.0
  9
$THICKNESS
 40
0.0
  9
$LIMCHECK
 70
     0
  9
$BLIPMODE
 70
     0
  9
$CHAMFERA
 40
0.0
  9
$CHAMFERB
 40
0.0
  9
$SKPOLY
 70
     0
  9
$TDCREATE
 40
2457165.5938280672
  9
$TDUPDATE
 40
2457165.6350054522
  9
$TDINDWG
 40
0.041178287
  9
$TDUSRTIMER
 40
0.041178287
  9
$USRTIMER
 70
     1
  9
$ANGBASE
 50
0.0
  9
$ANGDIR
 70
     0
  9
$PDMODE
 70
     0
  9
$PDSIZE
 40
0.0
  9
$PLINEWID
 40
0.0
  9
$COORDS
 70
     2
  9
$SPLFRAME
 70
     0
  9
$SPLINETYPE
 70
     6
  9
$SPLINESEGS
 70
     8
  9
$ATTDIA
 70
     1
  9
$ATTREQ
 70
     1
  9
$HANDLING
 70
     1
  9
$HANDSEED
  5
2F0
  9
$SURFTAB1
 70
     6
  9
$SURFTAB2
 70
     6
  9
$SURFTYPE
 70
     6
  9
$SURFU
 70
     6
  9
$SURFV
 70
     6
  9
$UCSNAME
  2

  9
$UCSORG
 10
0.0
 20
0.0
 30
0.0
  9
$UCSXDIR
 10
1.0
 20
0.0
 30
0.0
  9
$UCSYDIR
 10
0.0
 20
1.0
 30
0.0
  9
$PUCSNAME
  2

  9
$PUCSORG
 10
0.0
 20
0.0
 30
0.0
  9
$PUCSXDIR
 10
1.0
 20
0.0
 30
0.0
  9
$PUCSYDIR
 10
0.0
 20
1.0
 30
0.0
  9
$USERI1
 70
     0
  9
$USERI2
 70
     0
  9
$USERI3
 70
     0
  9
$USERI4
 70
     0
  9
$USERI5
 70
     0
  9
$USERR1
 40
0.0
  9
$USERR2
 40
0.0
  9
$USERR3
 40
0.0
  9
$USERR4
 40
0.0
  9
$USERR5
 40
0.0
  9
$WORLDVIEW
 70
     1
  9
$SHADEDGE
 70
     3
  9
$SHADEDIF
 70
    70
  9
$TILEMODE
 70
     1
  9
$MAXACTVP
 70
    64
  9
$PLIMCHECK
 70
     0
  9
$PEXTMIN
 10
1.0000000000000000E+020
 20
1.0000000000000000E+020
 30
1.0000000000000000E+020
  9
$PEXTMAX
 10
-1.0000000000000000E+020
 20
-1.0000000000000000E+020
 30
-1.0000000000000000E+020
  9
$PLIMMIN
 10
0.0
 20
0.0
  9
$PLIMMAX
 10
12.0
 20
9.0
  9
$UNITMODE
 70
     0
  9
$VISRETAIN
 70
     1
  9
$PLINEGEN
 70
     0
  9
$PSLTSCALE
 70
     1
  0
ENDSEC
  0
SECTION
  2
TABLES
  0
TABLE
  2
VPORT
 70
     1
  0
VPORT
  2
*ACTIVE
 70
     0
 10
0.0
 20
0.0
 11
1.0
 21
1.0
 12
804.29526527621874
 22
453.40218783658997
 13
0.0
 23
0.0
 14
1.0
 24
1.0
 15
0.0
 25
0.0
 16
0.0
 26
0.0
 36
1.0
 17
0.0
 27
0.0
 37
0.0
 40
188.64571502628539
 41
1.0384226491405451
 42
50.0
 43
0.0
 44
0.0
 50
0.0
 51
0.0
 71
     0
 72
   100
 73
     1
 74
     1
 75
     0
 76
     0
 77
     0
 78
     0
  0
ENDTAB
  0
TABLE
  2
LTYPE
 70
    24
  0
LTYPE
  2
CONTINUOUS
 70
     0
  3
Solid line
 72
    65
 73
     0
 40
0.0
  0
LTYPE
  2
PHANTOM2
 70
     0
  3
Phantom (.5x) ___ _ _ ___ _ _ ___ _ _ ___ _ _
 72
    65
 73
     6
 40
1.25
 49
0.625
 49
-0.125
 49
0.125
 49
-0.125
 49
0.125
 49
-0.125
  0
LTYPE
  2
BORDER
 70
     0
  3
__ __ . __ __ .
 72
    65
 73
     6
 40
11.434868421052631
 49
3.2671052631578918
 49
-1.6335526315789459
 49
3.2671052631578918
 49
-1.6335526315789459
 49
0.0
 49
-1.6335526315789459
  0
LTYPE
  2
CENTER
 70
     0
  3
____ _ ____ _
 72
    65
 73
     4
 40
13.068421052631569
 49
8.1677631578947327
 49
-1.6335526315789459
 49
1.6335526315789459
 49
-1.6335526315789459
  0
LTYPE
  2
DASHDOT
 70
     0
  3
__ . __ . __ .
 72
    65
 73
     4
 40
6.5342105263157846
 49
3.2671052631578918
 49
-1.6335526315789459
 49
0.0
 49
-1.6335526315789459
  0
LTYPE
  2
DASHED
 70
     0
  3
__ __ __ __ __
 72
    65
 73
     2
 40
4.9006578947368391
 49
3.2671052631578918
 49
-1.6335526315789459
  0
LTYPE
  2
DIVIDE
 70
     0
  3
__ . . __ . . 
 72
    65
 73
     6
 40
8.1677631578947327
 49
3.2671052631578918
 49
-1.6335526315789459
 49
0.0
 49
-1.6335526315789459
 49
0.0
 49
-1.6335526315789459
  0
LTYPE
  2
DOT
 70
     0
  3
..............
 72
    65
 73
     4
 40
3.2671052631578918
 49
0.0
 49
-1.6335526315789459
 49
0.0
 49
-1.6335526315789459
  0
LTYPE
  2
HIDDEN
 70
     0
  3
_ _ _ _ _ _ _
 72
    65
 73
     2
 40
2.4503289473684191
 49
1.6335526315789459
 49
-0.8167763157894732
  0
LTYPE
  2
PHANTOM
 70
     0
  3
_____ _ _ _____ _ _ 
 72
    65
 73
     6
 40
16.335526315789469
 49
8.1677631578947327
 49
-1.6335526315789459
 49
1.6335526315789459
 49
-1.6335526315789459
 49
1.6335526315789459
 49
-1.6335526315789459
  0
LTYPE
  2
AM_ISO02W050
 70
     0
  3
__ __ __ __ __ __ __ __ __ __ __ __ __ __ __
 72
    65
 73
     2
 40
7.5
 49
6.0
 49
-1.5
  0
LTYPE
  2
AM_ISO08W050
 70
     0
  3
____ . ____ . ____ . ____ . ____ . ____ . ____
 72
    65
 73
     4
 40
18.0
 49
12.0
 49
-1.5
 49
3.0
 49
-1.5
  0
LTYPE
  2
AM_ISO09W050
 70
     0
  3
_____ . . _____ . . _____ . . ____ .. ____
 72
    65
 73
     6
 40
22.5
 49
12.0
 49
-1.5
 49
3.0
 49
-1.5
 49
3.0
 49
-1.5
  0
LTYPE
  2
AMCONSTR
 70
     0
  3
_______________________
 72
    65
 73
     2
 40
9999.0
 49
9999.0
 49
0.0
  0
LTYPE
  2
AM_ISO08W050X2
 70
     0
  3
__ . __ . __ . __ . __ . __
 72
    65
 73
     4
 40
9.0
 49
6.0
 49
-0.75
 49
1.5
 49
-0.75
  0
LTYPE
  2
AM_ISO02W050X2
 70
     0
  3
 _ _ _ _ _ _ _ _ _ _ _ _
 72
    65
 73
     2
 40
3.75
 49
3.0
 49
-0.75
  0
LTYPE
  2
AMZIGZAG
 70
     0
  3
/\/-/\/-/\/-/\/-/\/-/\/
 72
    65
 73
     2
 40
11.0001
 49
0.0001
 49
-11.0
  0
LTYPE
  2
CENTER2
 70
     0
  3
Center (.5x) ___ _ ___ _ ___ _ ___ _ ___ _ ___
 72
    65
 73
     4
 40
1.125
 49
0.75
 49
-0.125
 49
0.125
 49
-0.125
  0
LTYPE
  2
HIDDEN2
 70
     0
  3
Hidden (.5x) _ _ _ _ _ _ _ _ _ _ _ _ _ _ _ _ _
 72
    65
 73
     2
 40
0.1875
 49
0.125
 49
-0.0625
  0
LTYPE
  2
AMZIGZAG2
 70
     0
  3
/\/-/\/-/\/-/\/-/\/-/\/
 72
    65
 73
     2
 40
0.4401
 49
0.0001
 49
-0.4400000000000001
  0
LTYPE
  2
ACANSTGB
 70
     0
  3
__ . . __ . .
 72
    65
 73
     6
 40
0.35433070866
 49
0.15748031496
 49
-0.03937007874
 49
0.03937007874
 49
-0.03937007874
 49
0.03937007874
 49
-0.03937007874
  0
LTYPE
  2
ACANSTGL
 70
     0
  3
_ _ _ _ _
 72
    65
 73
     2
 40
0.11811023622
 49
0.07874015748
 49
-0.03937007874
  0
ENDTAB
  0
TABLE
  2
LAYER
 70
     2
  0
LAYER
  2
0
 70
     0
 62
     7
  6
CONTINUOUS
  0
LAYER
  2
1
 70
     0
 62
     7
  6
CONTINUOUS
  0
ENDTAB
  0
TABLE
  2
STYLE
 70
     8
  0
STYLE
  2
STANDARD
 70
     0
 40
0.0
 41
1.0
 50
0.0
 71
     0
 42
3.5
  3
txt
  4

  0
STYLE
  2
ANNOTATIVE
 70
     0
 40
0.0
 41
1.0
 50
0.0
 71
     0
 42
0.2
  3
txt
  4

  0
STYLE
  2
SIMPLEX
 70
     0
 40
0.0
 41
1.0
 50
0.0
 71
     0
 42
3.5
  3
simplex
  4

  0
STYLE
  2
COMPLEX
 70
     0
 40
0.0
 41
1.0
 50
0.0
 71
     0
 42
3.5
  3
complex
  4

  0
STYLE
  2
ITALIC
 70
     0
 40
0.0
 41
1.0
 50
0.0
 71
     0
 42
3.5
  3
italic
  4

  0
STYLE
  2

 70
     1
 40
0.0
 41
1.0
 50
0.0
 71
     0
 42
3.5
  3
genltshp.shx
  4

  0
STYLE
  2
ACANSTS
 70
     0
 40
1.0
 41
1.0
 50
0.0
 71
     0
 42
3.5
  3
romans.shx
  4
extfont.shx
  0
STYLE
  2
ACANSGDT
 70
     0
 40
0.0
 41
1.0
 50
0.0
 71
     0
 42
3.5
  3
amgdt.shx
  4

  0
ENDTAB
  0
TABLE
  2
VIEW
 70
     0
  0
ENDTAB
  0
TABLE
  2
UCS
 70
     0
  0
ENDTAB
  0
TABLE
  2
APPID
 70
    12
  0
APPID
  2
ACAD
 70
     0
  0
APPID
  2
ACADANNOTATIVE
 70
     0
  0
APPID
  2
MCAD_NO_VIS
 70
     0
  0
APPID
  2
ACAD_TEMP_GRAPHIC
 70
     0
  0
APPID
  2
ACATTRIBSERVICES
 70
     0
  0
APPID
  2
DESIGNERASSEMBLIES
 70
     0
  0
APPID
  2
ACAD_DSTYLE_DIMJAG
 70
     0
  0
APPID
  2
ACAD_DSTYLE_DIMBREAK
 70
     0
  0
APPID
  2
ACAD_NAV_VCDISPLAY
 70
     0
  0
APPID
  2
ACAD_EXEMPT_FROM_CAD_STANDARDS
 70
     0
  0
APPID
  2
ACDBDYNAMICBLOCKTRUENAME2
 70
     0
  0
APPID
  2
ACAD_MLEADERVER
 70
     0
  0
ENDTAB
  0
TABLE
  2
DIMSTYLE
 70
     9
  0
DIMSTYLE
  2
STANDARD
 70
     0
  3

  4

  5

  6

  7

 40
1.0
 41
0.18
 42
0.0625
 43
0.38
 44
0.18
 45
0.0
 46
0.0
 47
0.0
 48
0.0
140
0.18
141
0.09
142
0.0
143
25.399999999999999
144
1.0
145
0.0
146
1.0
147
0.09
 71
     0
 72
     0
 73
     1
 74
     1
 75
     0
 76
     0
 77
     0
 78
     0
170
     0
171
     2
172
     0
173
     0
174
     0
175
     0
176
     0
177
     0
178
     0
  0
DIMSTYLE
  2
ANNOTATIVE
 70
     0
  3

  4

  5

  6

  7

 40
1.0
 41
0.18
 42
0.0625
 43
0.38
 44
0.18
 45
0.0
 46
0.0
 47
0.0
 48
0.0
140
0.18
141
0.09
142
0.0
143
25.399999999999999
144
1.0
145
0.0
146
1.0
147
0.09
 71
     0
 72
     0
 73
     1
 74
     1
 75
     0
 76
     0
 77
     0
 78
     0
170
     0
171
     2
172
     0
173
     0
174
     0
175
     0
176
     0
177
     0
178
     0
  0
DIMSTYLE
  2
AM_ANSI
 70
     0
  3

  4
mm
  5

  6

  7

 40
1.0
 41
0.12
 42
0.05
 43
0.5
 44
0.1
 45
0.0
 46
0.0
 47
0.1
 48
0.1
140
0.12
141
0.0
142
0.0
143
25.399999999999999
144
1.0
145
0.0
146
0.71
147
0.06
 71
     0
 72
     0
 73
     1
 74
     1
 75
     0
 76
     0
 77
     0
 78
     7
170
     0
171
     2
172
     0
173
     0
174
     0
175
     0
176
   256
177
   256
178
     2
  0
DIMSTYLE
  2
AM_ANSI$3
 70
     0
  3

  4
mm
  5

  6

  7

 40
1.0
 41
0.12
 42
0.05
 43
0.5
 44
0.1
 45
0.0
 46
0.0
 47
0.1
 48
0.1
140
0.12
141
0.0
142
0.0
143
25.399999999999999
144
1.0
145
0.0
146
0.71
147
0.06
 71
     0
 72
     0
 73
     1
 74
     1
 75
     0
 76
     0
 77
     0
 78
     7
170
     0
171
     2
172
     0
173
     0
174
     0
175
     0
176
   256
177
   256
178
     2
  0
DIMSTYLE
  2
AM_ANSI$4
 70
     0
  3

  4
mm
  5

  6

  7

 40
1.0
 41
0.12
 42
0.05
 43
0.5
 44
0.1
 45
0.0
 46
0.0
 47
0.1
 48
0.1
140
0.12
141
0.0
142
0.0
143
25.399999999999999
144
1.0
145
0.0
146
0.71
147
0.06
 71
     0
 72
     0
 73
     1
 74
     1
 75
     0
 76
     0
 77
     0
 78
     7
170
     0
171
     2
172
     0
173
     0
174
     0
175
     0
176
   256
177
   256
178
     2
  0
DIMSTYLE
  2
AM_ANSI$7
 70
     0
  3

  4
mm
  5

  6

  7

 40
1.0
 41
0.12
 42
0.05
 43
0.5
 44
0.1
 45
0.0
 46
0.0
 47
0.1
 48
0.1
140
0.12
141
0.0
142
0.0
143
25.399999999999999
144
1.0
145
0.0
146
0.71
147
0.06
 71
     0
 72
     0
 73
     1
 74
     1
 75
     0
 76
     0
 77
     0
 78
     7
170
     0
171
     2
172
     0
173
     0
174
     0
175
     0
176
   256
177
   256
178
     2
  0
DIMSTYLE
  2
AM_ANSI$SF
 70
     0
  3

  4
mm
  5

  6

  7

 40
1.0
 41
0.12
 42
0.05
 43
0.5
 44
0.1
 45
0.0
 46
0.0
 47
0.1
 48
0.1
140
0.12
141
0.0
142
0.0
143
25.399999999999999
144
1.0
145
0.0
146
0.71
147
0.06
 71
     0
 72
     0
 73
     1
 74
     1
 75
     1
 76
     1
 77
     0
 78
     7
170
     0
171
     2
172
     0
173
     0
174
     0
175
     0
176
   256
177
   256
178
     2
  0
DIMSTYLE
  2
AM_ANSI$SH
 70
     0
  3

  4
mm
  5

  6
GENAXEH
  7

 40
1.0
 41
0.12
 42
0.05
 43
0.5
 44
0.1
 45
0.0
 46
0.0
 47
0.1
 48
0.1
140
0.12
141
0.0
142
0.0
143
25.399999999999999
144
1.0
145
0.0
146
0.71
147
0.06
 71
     0
 72
     0
 73
     1
 74
     1
 75
     1
 76
     1
 77
     0
 78
     7
170
     0
171
     2
172
     0
173
     1
174
     0
175
     0
176
   256
177
   256
178
     2
  0
ENDTAB
  0
ENDSEC
  0
SECTION
  2
BLOCKS
  0
BLOCK
  8
0
  2
$MODEL_SPACE
 70
     0
 10
0.0
 20
0.0
 30
0.0
  3
$MODEL_SPACE
  1

  0
ENDBLK
  5
72
  8
0
  0
BLOCK
 67
     1
  8
0
  2
$PAPER_SPACE
 70
     0
 10
0.0
 20
0.0
 30
0.0
  3
$PAPER_SPACE
  1

  0
ENDBLK
  5
6E
 67
     1
  8
0
  0
BLOCK
  8
0
  2
GENAXEH
 70
     0
 10
0.0
 20
0.0
 30
0.0
  3
GENAXEH
  1

  0
LINE
  5
11F
  8
0
 10
-1.0
 20
0.0
 30
0.0
 11
1.0
 21
0.0
 31
0.0
  0
ENDBLK
  5
121
  8
0
  0
BLOCK
  8
0
  2
*U4
 70
     1
 10
0.0
 20
0.0
 30
0.0
  3
*U4
  1

  0
TEXT
  5
2E5
  8
0
 62
     2
 10
756.25215395576458
 20
417.6566242239391
 30
0.0
 40
3.5
  1
EMITTER
  0
ENDBLK
  5
2E7
  8
0
  0
BLOCK
  8
0
  2
*U5
 70
     1
 10
0.0
 20
0.0
 30
0.0
  3
*U5
  1

  0
TEXT
  5
2E9
  8
0
 62
     2
 10
837.70472386742813
 20
417.6566242239391
 30
0.0
 40
3.5
  1
RECEIVER
  0
ENDBLK
  5
2EB
  8
0
  0
BLOCK
  8
0
  2
*U6
 70
     1
 10
0.0
 20
0.0
 30
0.0
  3
*U6
  1

  0
TEXT
  5
2ED
  8
0
 62
     2
 10
867.18609718775258
 20
403.66684691243512
 30
0.0
 40
3.5
  1
EX-23
  0
ENDBLK
  5
2EF
  8
0
  0
ENDSEC
  0
SECTION
  2
ENTITIES
  0
LINE
  5
8E
  8
0
 62
     7
 10
826.52296061463426
 20
438.30910622616159
 30
0.0
 11
826.52296061463426
 21
457.30670858586819
 31
0.0
  0
LINE
  5
8F
  8
0
 62
     7
 10
826.52296061463426
 20
453.90064261091118
 30
0.0
 11
834.72296061463464
 21
453.90064261091118
 31
0.0
  0
LINE
  5
90
  8
0
 62
     7
 10
834.72296061463464
 20
457.30670858586819
 30
0.0
 11
834.72296061463464
 21
438.30910622616159
 31
0.0
  0
LINE
  5
91
  8
0
 62
     7
 10
826.52296061463426
 20
442.30910622619552
 30
0.0
 11
834.72296061463464
 21
442.30910622619552
 31
0.0
  0
LINE
  5
92
  8
0
 62
     7
 10
869.3737265688568
 20
489.56604781059531
 30
0.0
 11
858.8737265688585
 21
489.56604781059582
 31
0.0
  0
LINE
  5
93
  8
0
 62
     7
 10
858.87372656885691
 20
481.36604781059532
 30
0.0
 11
869.37372656886214
 21
481.36604781059532
 31
0.0
  0
LINE
  5
94
  8
0
 62
     7
 10
860.87372656885987
 20
489.56604781059582
 30
0.0
 11
860.87372656885987
 21
481.36604781059532
 31
0.0
  0
LINE
  5
95
  8
0
  6
CENTER
 62
     4
 10
866.57372656886105
 20
491.06604781059571
 30
0.0
 11
866.57372656886105
 21
479.86604781059521
 31
0.0
  0
LINE
  5
96
  8
0
  6
CENTER
 62
     4
 10
825.02296061463437
 20
441.30910622616159
 30
0.0
 11
836.22296061463476
 21
441.30910622616159
 31
0.0
  0
LINE
  5
97
  8
0
  6
CENTER
 62
     4
 10
825.02296061463437
 20
454.30910622616159
 30
0.0
 11
836.22296061463476
 21
454.30910622616159
 31
0.0
  0
LINE
  5
98
  8
0
  6
CENTER
 62
     4
 10
830.62296061463474
 20
459.34557377585043
 30
0.0
 11
830.62296061463474
 21
428.20963457754118
 31
0.0
  0
LINE
  5
99
  8
0
  6
CENTER
 62
     4
 10
825.02296061463437
 20
447.80670858586831
 30
0.0
 11
836.22296061463476
 21
447.80670858586831
 31
0.0
  0
LINE
  5
9A
  8
0
 62
     7
 10
834.72296061463464
 20
457.30670858586819
 30
0.0
 11
826.52296061463426
 21
457.30670858586819
 31
0.0
  0
LINE
  5
9B
  8
0
 62
     7
 10
829.37296061463417
 20
435.30910622616159
 30
0.0
 11
829.37296061463485
 21
430.41382261459432
 31
0.0
  0
LINE
  5
9C
  8
0
 62
     7
 10
831.87296061463428
 20
435.30910622616159
 30
0.0
 11
831.87296061463485
 21
430.41382261459398
 31
0.0
  0
LINE
  5
9D
  8
0
  6
CENTER
 62
     4
 10
866.57372656886116
 20
439.38910622616157
 30
0.0
 11
866.57372656886116
 21
443.2291062261616
 31
0.0
  0
LINE
  5
9E
  8
0
  6
CENTER
 62
     4
 10
864.6537265688612
 20
441.30910622616159
 30
0.0
 11
868.49372656886135
 21
441.30910622616159
 31
0.0
  0
LINE
  5
9F
  8
0
  6
CENTER
 62
     4
 10
866.57372656886116
 20
452.38910622616157
 30
0.0
 11
866.57372656886116
 21
456.2291062261616
 31
0.0
  0
LINE
  5
A0
  8
0
  6
CENTER
 62
     4
 10
864.6537265688612
 20
454.30910622616159
 30
0.0
 11
868.49372656886135
 21
454.30910622616159
 31
0.0
  0
LINE
  5
A1
  8
0
 62
     7
 10
858.8737265688585
 20
489.56604781059582
 30
0.0
 11
858.87372656885691
 21
481.36604781059532
 31
0.0
  0
LINE
  5
A2
  8
0
 62
     7
 10
869.3737265688568
 20
489.56604781059531
 30
0.0
 11
869.3737265688568
 21
481.36604781059532
 31
0.0
  0
LINE
  5
A3
  8
0
 62
     7
 10
863.62372656886077
 20
430.41382261459398
 30
0.0
 11
863.62372656886077
 21
435.30910622616159
 31
0.0
  0
LINE
  5
A4
  8
0
 62
     7
 10
861.12372656886089
 20
430.41382261459398
 30
0.0
 11
861.12372656886089
 21
435.30910622616159
 31
0.0
  0
LINE
  5
A5
  8
0
 62
     7
 10
858.87372656886259
 20
453.90064261091118
 30
0.0
 11
860.87372656885987
 21
457.30910622616182
 31
0.0
  0
LINE
  5
A6
  8
0
 62
     7
 10
858.87372656886123
 20
442.30910622619552
 30
0.0
 11
858.87372656886259
 21
453.90064261091118
 31
0.0
  0
LINE
  5
A7
  8
0
 62
     7
 10
859.87372656886146
 20
435.30910622616159
 30
0.0
 11
864.77372656886109
 21
435.30910622616159
 31
0.0
  0
LINE
  5
A8
  8
0
 62
     7
 10
864.89372656886144
 20
438.30910622616159
 30
0.0
 11
864.77372656886109
 21
435.30910622616159
 31
0.0
  0
LINE
  5
A9
  8
0
 62
     7
 10
869.37372656886089
 20
457.30910622616159
 30
0.0
 11
869.37372656886089
 21
438.30910622616159
 31
0.0
  0
LINE
  5
AA
  8
0
 62
     7
 10
869.37372656886089
 20
438.30910622616159
 30
0.0
 11
859.87372656886146
 21
438.30910622616159
 31
0.0
  0
LINE
  5
AB
  8
0
 62
     7
 10
859.87372656886146
 20
435.30910622616159
 30
0.0
 11
859.87372656886146
 21
438.30910622616159
 31
0.0
  0
LINE
  5
AC
  8
0
 62
     7
 10
858.87372656886123
 20
442.30910622619552
 30
0.0
 11
859.87372656886146
 21
438.30910622616159
 31
0.0
  0
LINE
  5
AD
  8
0
 62
     7
 10
869.37372656886089
 20
457.30910622616159
 30
0.0
 11
860.87372656885987
 21
457.30910622616182
 31
0.0
  0
LINE
  5
AE
  8
0
 62
     7
 10
826.52296061463426
 20
438.30910622616159
 30
0.0
 11
834.72296061463464
 21
438.30910622616159
 31
0.0
  0
LINE
  5
AF
  8
0
 62
     7
 10
828.12296061463428
 20
435.30910622616159
 30
0.0
 11
833.12296061463474
 21
435.30910622616159
 31
0.0
  0
LINE
  5
B0
  8
0
 62
     7
 10
833.12296061463474
 20
435.30910622616159
 30
0.0
 11
833.12296061463474
 21
438.3115038664551
 31
0.0
  0
LINE
  5
B1
  8
0
 62
     7
 10
828.12296061463428
 20
435.30910622616159
 30
0.0
 11
828.12296061463428
 21
438.3115038664551
 31
0.0
  0
CIRCLE
  5
B8
  8
0
 62
     0
 10
866.57372656886105
 20
441.30910622616159
 30
0.0
 40
1.600000000000023
  0
CIRCLE
  5
B9
  8
0
 62
     7
 10
866.57372656886105
 20
454.30910622616159
 30
0.0
 40
1.600000000000023
  0
LINE
  5
BA
  8
0
 62
     4
 10
850.21519356632507
 20
485.4660478105954
 30
0.0
 11
856.79448017520497
 21
485.4660478105954
 31
0.0
  0
SOLID
  5
BB
  8
0
 62
     4
 10
853.79448017520497
 20
485.86100530335767
 30
0.0
 11
853.79448017520497
 21
485.07109031783341
 31
0.0
 12
856.79448017520497
 22
485.4660478105954
 32
0.0
 13
856.79448017520497
 23
485.4660478105954
 33
0.0
  0
LINE
  5
BC
  8
0
 62
     4
 10
850.06214249851507
 20
447.80670858586831
 30
0.0
 11
857.55039154535677
 21
447.80670858586831
 31
0.0
  0
SOLID
  5
BD
  8
0
 62
     4
 10
854.55039154535666
 20
448.20166607863052
 30
0.0
 11
854.55039154535666
 21
447.41175109310609
 31
0.0
 12
857.55039154535677
 22
447.80670858586831
 32
0.0
 13
857.55039154535677
 23
447.80670858586831
 33
0.0
  0
LINE
  5
147
  8
0
  6
CENTER
 62
     4
 10
871.27407843187336
 20
485.46604781059551
 30
0.0
 11
858.28102395656379
 21
485.46604781059551
 31
0.0
  0
LINE
  5
14A
  8
0
 62
     7
 10
788.37183286454786
 20
438.30910622616159
 30
0.0
 11
788.37183286454786
 21
457.30670858586819
 31
0.0
  0
LINE
  5
14B
  8
0
 62
     7
 10
788.37183286454786
 20
453.90064261091118
 30
0.0
 11
780.17183286454735
 21
453.90064261091118
 31
0.0
  0
LINE
  5
14C
  8
0
 62
     7
 10
780.17183286454735
 20
457.30670858586819
 30
0.0
 11
780.17183286454735
 21
438.30910622616159
 31
0.0
  0
LINE
  5
14D
  8
0
 62
     7
 10
788.37183286454786
 20
442.30910622619552
 30
0.0
 11
780.17183286454735
 21
442.30910622619552
 31
0.0
  0
LINE
  5
14E
  8
0
 62
     7
 10
745.52106691032543
 20
489.56604781059531
 30
0.0
 11
756.02106691032373
 21
489.56604781059582
 31
0.0
  0
LINE
  5
14F
  8
0
 62
     7
 10
756.02106691032532
 20
481.36604781059532
 30
0.0
 11
745.52106691032009
 21
481.36604781059532
 31
0.0
  0
LINE
  5
150
  8
0
 62
     7
 10
754.02106691032225
 20
489.56604781059582
 30
0.0
 11
754.02106691032225
 21
481.36604781059532
 31
0.0
  0
LINE
  5
151
  8
0
  6
CENTER
 62
     4
 10
748.32106691032106
 20
491.06604781059571
 30
0.0
 11
748.32106691032106
 21
479.86604781059521
 31
0.0
  0
LINE
  5
152
  8
0
  6
CENTER
 62
     4
 10
789.87183286454786
 20
441.30910622616159
 30
0.0
 11
778.67183286454735
 21
441.30910622616159
 31
0.0
  0
LINE
  5
153
  8
0
  6
CENTER
 62
     4
 10
789.87183286454786
 20
454.30910622616159
 30
0.0
 11
778.67183286454735
 21
454.30910622616159
 31
0.0
  0
LINE
  5
154
  8
0
  6
CENTER
 62
     4
 10
784.27183286454738
 20
459.34557377585043
 30
0.0
 11
784.27183286454738
 21
428.20963457754118
 31
0.0
  0
LINE
  5
155
  8
0
  6
CENTER
 62
     4
 10
789.87183286454786
 20
447.80670858586831
 30
0.0
 11
778.67183286454735
 21
447.80670858586831
 31
0.0
  0
LINE
  5
156
  8
0
 62
     7
 10
780.17183286454735
 20
457.30670858586819
 30
0.0
 11
788.37183286454786
 21
457.30670858586819
 31
0.0
  0
LINE
  5
157
  8
0
 62
     7
 10
785.52183286454795
 20
435.30910622616159
 30
0.0
 11
785.52183286454738
 21
430.41382261459432
 31
0.0
  0
LINE
  5
158
  8
0
 62
     7
 10
783.02183286454795
 20
435.30910622616159
 30
0.0
 11
783.02183286454726
 21
430.41382261459398
 31
0.0
  0
LINE
  5
159
  8
0
  6
CENTER
 62
     4
 10
748.32106691032095
 20
439.38910622616157
 30
0.0
 11
748.32106691032095
 21
443.2291062261616
 31
0.0
  0
LINE
  5
15A
  8
0
  6
CENTER
 62
     4
 10
750.24106691032102
 20
441.30910622616159
 30
0.0
 11
746.40106691032088
 21
441.30910622616159
 31
0.0
  0
LINE
  5
15B
  8
0
  6
CENTER
 62
     4
 10
748.32106691032095
 20
452.38910622616157
 30
0.0
 11
748.32106691032095
 21
456.2291062261616
 31
0.0
  0
LINE
  5
15C
  8
0
  6
CENTER
 62
     4
 10
750.24106691032102
 20
454.30910622616159
 30
0.0
 11
746.40106691032088
 21
454.30910622616159
 31
0.0
  0
LINE
  5
15D
  8
0
 62
     7
 10
756.02106691032373
 20
489.56604781059582
 30
0.0
 11
756.02106691032532
 21
481.36604781059532
 31
0.0
  0
LINE
  5
15E
  8
0
 62
     7
 10
745.52106691032543
 20
489.56604781059531
 30
0.0
 11
745.52106691032543
 21
481.36604781059532
 31
0.0
  0
LINE
  5
15F
  8
0
 62
     7
 10
751.27106691032134
 20
430.41382261459398
 30
0.0
 11
751.27106691032134
 21
435.30910622616159
 31
0.0
  0
LINE
  5
160
  8
0
 62
     7
 10
753.77106691032134
 20
430.41382261459398
 30
0.0
 11
753.77106691032134
 21
435.30910622616159
 31
0.0
  0
LINE
  5
161
  8
0
 62
     7
 10
756.02106691031963
 20
453.90064261091118
 30
0.0
 11
754.02106691032225
 21
457.30910622616182
 31
0.0
  0
LINE
  5
162
  8
0
 62
     7
 10
756.02106691032088
 20
442.30910622619552
 30
0.0
 11
756.02106691031963
 21
453.90064261091118
 31
0.0
  0
LINE
  5
163
  8
0
 62
     7
 10
755.02106691032066
 20
435.30910622616159
 30
0.0
 11
750.12106691032102
 21
435.30910622616159
 31
0.0
  0
LINE
  5
164
  8
0
 62
     7
 10
750.00106691032079
 20
438.30910622616159
 30
0.0
 11
750.12106691032102
 21
435.30910622616159
 31
0.0
  0
LINE
  5
165
  8
0
 62
     7
 10
745.52106691032134
 20
457.30910622616159
 30
0.0
 11
745.52106691032134
 21
438.30910622616159
 31
0.0
  0
LINE
  5
166
  8
0
 62
     7
 10
745.52106691032134
 20
438.30910622616159
 30
0.0
 11
755.02106691032066
 21
438.30910622616159
 31
0.0
  0
LINE
  5
167
  8
0
 62
     7
 10
755.02106691032066
 20
435.30910622616159
 30
0.0
 11
755.02106691032066
 21
438.30910622616159
 31
0.0
  0
LINE
  5
168
  8
0
 62
     7
 10
756.02106691032088
 20
442.30910622619552
 30
0.0
 11
755.02106691032066
 21
438.30910622616159
 31
0.0
  0
LINE
  5
169
  8
0
 62
     7
 10
745.52106691032134
 20
457.30910622616159
 30
0.0
 11
754.02106691032225
 21
457.30910622616182
 31
0.0
  0
LINE
  5
16A
  8
0
 62
     7
 10
788.37183286454786
 20
438.30910622616159
 30
0.0
 11
780.17183286454735
 21
438.30910622616159
 31
0.0
  0
LINE
  5
16B
  8
0
 62
     7
 10
786.77183286454795
 20
435.30910622616159
 30
0.0
 11
781.77183286454726
 21
435.30910622616159
 31
0.0
  0
LINE
  5
16C
  8
0
 62
     7
 10
781.77183286454726
 20
435.30910622616159
 30
0.0
 11
781.77183286454726
 21
438.3115038664551
 31
0.0
  0
LINE
  5
16D
  8
0
 62
     7
 10
786.77183286454795
 20
435.30910622616159
 30
0.0
 11
786.77183286454795
 21
438.3115038664551
 31
0.0
  0
CIRCLE
  5
174
  8
0
 62
     0
 10
748.32106691032106
 20
441.30910622616159
 30
0.0
 40
1.600000000000023
  0
CIRCLE
  5
175
  8
0
 62
     7
 10
748.32106691032106
 20
454.30910622616159
 30
0.0
 40
1.600000000000023
  0
LINE
  5
176
  8
0
 62
     4
 10
758.10031330397715
 20
485.4660478105954
 30
0.0
 11
764.67959991285716
 21
485.4660478105954
 31
0.0
  0
SOLID
  5
177
  8
0
 62
     4
 10
761.67959991285716
 20
485.86100530335767
 30
0.0
 11
761.67959991285716
 21
485.07109031783341
 31
0.0
 12
764.67959991285716
 22
485.4660478105954
 32
0.0
 13
764.67959991285716
 23
485.4660478105954
 33
0.0
  0
LINE
  5
178
  8
0
 62
     4
 10
757.52006337877935
 20
447.80670858586831
 30
0.0
 11
764.67959991285716
 21
447.80670858586831
 31
0.0
  0
SOLID
  5
179
  8
0
 62
     4
 10
761.67959991285716
 20
448.20166607863052
 30
0.0
 11
761.67959991285716
 21
447.41175109310609
 31
0.0
 12
764.67959991285716
 22
447.80670858586831
 32
0.0
 13
764.67959991285716
 23
447.80670858586831
 33
0.0
  0
LINE
  5
17A
  8
0
  6
CENTER
 62
     4
 10
743.62071504730875
 20
485.46604781059551
 30
0.0
 11
756.61376952261844
 21
485.46604781059551
 31
0.0
  0
INSERT
  5
1ED
  8
0
  2
*U4
 10
0.0
 20
0.0
 30
0.0
  0
INSERT
  5
1EE
  8
0
  2
*U5
 10
0.0
 20
0.0
 30
0.0
  0
INSERT
  5
1EF
  8
0
  2
*U6
 10
0.0
 20
0.0
 30
0.0
  0
ENDSEC
  0
EOF
