  0
SECTION
  2
HEADER
  9
$ACADVER
  1
AC1009
  9
$INSBASE
 10
0.0
 20
0.0
 30
0.0
  9
$EXTMIN
 10
116.7214976958017
 20
131.16563499947731
 30
-0.0015258207003583
  9
$EXTMAX
 10
229.7708137447141
 20
198.96226559202449
 30
0.0000000349246037
  9
$LIMMIN
 10
0.0
 20
0.0
  9
$LIMMAX
 10
420.0
 20
297.0
  9
$ORTHOMODE
 70
     0
  9
$REGENMODE
 70
     1
  9
$FILLMODE
 70
     1
  9
$QTEXTMODE
 70
     0
  9
$MIRRTEXT
 70
     1
  9
$DRAGMODE
 70
     2
  9
$LTSCALE
 40
1.0
  9
$OSMODE
 70
   549
  9
$ATTMODE
 70
     1
  9
$TEXTSIZE
 40
2.5
  9
$TRACEWID
 40
1.0
  9
$TEXTSTYLE
  7
STANDARD
  9
$CLAYER
  8
0
  9
$CELTYPE
  6
BYLAYER
  9
$CECOLOR
 62
   256
  9
$DIMSCALE
 40
1.0
  9
$DIMASZ
 40
3.0
  9
$DIMEXO
 40
1.0
  9
$DIMDLI
 40
3.75
  9
$DIMRND
 40
0.0
  9
$DIMDLE
 40
0.0
  9
$DIMEXE
 40
1.0
  9
$DIMTP
 40
0.0
  9
$DIMTM
 40
0.0
  9
$DIMTXT
 40
3.5
  9
$DIMCEN
 40
2.5
  9
$DIMTSZ
 40
0.0
  9
$DIMTOL
 70
     0
  9
$DIMLIM
 70
     0
  9
$DIMTIH
 70
     1
  9
$DIMTOH
 70
     1
  9
$DIMSE1
 70
     0
  9
$DIMSE2
 70
     0
  9
$DIMTAD
 70
     1
  9
$DIMZIN
 70
     0
  9
$DIMBLK
  1

  9
$DIMASO
 70
     1
  9
$DIMSHO
 70
     1
  9
$DIMPOST
  1

  9
$DIMAPOST
  1

  9
$DIMALT
 70
     0
  9
$DIMALTD
 70
     3
  9
$DIMALTF
 40
0.0393700787
  9
$DIMLFAC
 40
0.5
  9
$DIMTOFL
 70
     1
  9
$DIMTVP
 40
0.0
  9
$DIMTIX
 70
     0
  9
$DIMSOXD
 70
     0
  9
$DIMSAH
 70
     0
  9
$DIMBLK1
  1

  9
$DIMBLK2
  1

  9
$DIMSTYLE
  2
ISO-25
  9
$DIMCLRD
 70
     0
  9
$DIMCLRE
 70
     0
  9
$DIMCLRT
 70
     0
  9
$DIMTFAC
 40
1.0
  9
$DIMGAP
 40
1.524
  9
$LUNITS
 70
     2
  9
$LUPREC
 70
     2
  9
$SKETCHINC
 40
1.0
  9
$FILLETRAD
 40
10.0
  9
$AUNITS
 70
     0
  9
$AUPREC
 70
     3
  9
$MENU
  1
.
  9
$ELEVATION
 40
0.0
  9
$PELEVATION
 40
0.0
  9
$THICKNESS
 40
0.0
  9
$LIMCHECK
 70
     0
  9
$BLIPMODE
 70
     0
  9
$CHAMFERA
 40
10.0
  9
$CHAMFERB
 40
10.0
  9
$SKPOLY
 70
     0
  9
$TDCREATE
 40
2457133.4841485531
  9
$TDUPDATE
 40
2457191.632361134
  9
$TDINDWG
 40
0.1188616782
  9
$TDUSRTIMER
 40
0.1188615741
  9
$USRTIMER
 70
     1
  9
$ANGBASE
 50
0.0
  9
$ANGDIR
 70
     0
  9
$PDMODE
 70
     0
  9
$PDSIZE
 40
-1.0
  9
$PLINEWID
 40
0.0
  9
$COORDS
 70
     2
  9
$SPLFRAME
 70
     0
  9
$SPLINETYPE
 70
     6
  9
$SPLINESEGS
 70
     8
  9
$ATTDIA
 70
     1
  9
$ATTREQ
 70
     1
  9
$HANDLING
 70
     1
  9
$HANDSEED
  5
C79
  9
$SURFTAB1
 70
     6
  9
$SURFTAB2
 70
     6
  9
$SURFTYPE
 70
     6
  9
$SURFU
 70
     6
  9
$SURFV
 70
     6
  9
$UCSNAME
  2

  9
$UCSORG
 10
0.0
 20
0.0
 30
0.0
  9
$UCSXDIR
 10
1.0
 20
0.0
 30
0.0
  9
$UCSYDIR
 10
0.0
 20
1.0
 30
0.0
  9
$PUCSNAME
  2

  9
$PUCSORG
 10
0.0
 20
0.0
 30
0.0
  9
$PUCSXDIR
 10
1.0
 20
0.0
 30
0.0
  9
$PUCSYDIR
 10
0.0
 20
1.0
 30
0.0
  9
$USERI1
 70
     0
  9
$USERI2
 70
     0
  9
$USERI3
 70
     0
  9
$USERI4
 70
     0
  9
$USERI5
 70
     0
  9
$USERR1
 40
0.0
  9
$USERR2
 40
0.0
  9
$USERR3
 40
0.0
  9
$USERR4
 40
0.0
  9
$USERR5
 40
0.0
  9
$WORLDVIEW
 70
     1
  9
$SHADEDGE
 70
     3
  9
$SHADEDIF
 70
    70
  9
$TILEMODE
 70
     1
  9
$MAXACTVP
 70
    64
  9
$PLIMCHECK
 70
     0
  9
$PEXTMIN
 10
1.0000000000000000E+020
 20
1.0000000000000000E+020
 30
1.0000000000000000E+020
  9
$PEXTMAX
 10
-1.0000000000000000E+020
 20
-1.0000000000000000E+020
 30
-1.0000000000000000E+020
  9
$PLIMMIN
 10
0.0
 20
0.0
  9
$PLIMMAX
 10
420.0
 20
297.0
  9
$UNITMODE
 70
     0
  9
$VISRETAIN
 70
     1
  9
$PLINEGEN
 70
     0
  9
$PSLTSCALE
 70
     1
  0
ENDSEC
  0
SECTION
  2
TABLES
  0
TABLE
  2
VPORT
 70
     1
  0
VPORT
  2
*ACTIVE
 70
     0
 10
0.0
 20
0.0
 11
1.0
 21
1.0
 12
174.4251394372084
 22
161.75446162456339
 13
0.0
 23
0.0
 14
10.0
 24
10.0
 15
10.0
 25
10.0
 16
0.0
 26
0.0
 36
1.0
 17
0.0
 27
0.0
 37
0.0
 40
109.21287798154979
 41
2.0438047559449308
 42
50.0
 43
0.0
 44
0.0
 50
0.0
 51
0.0
 71
     0
 72
  2000
 73
     1
 74
     3
 75
     0
 76
     0
 77
     0
 78
     0
  0
ENDTAB
  0
TABLE
  2
LTYPE
 70
    15
  0
LTYPE
  2
CONTINUOUS
 70
     0
  3
Solid line
 72
    65
 73
     0
 40
0.0
  0
LTYPE
  2
AM_ISO02W050
 70
     0
  3
__ __ __ __ __ __ __ __ __ __ __ __ __ __ __
 72
    65
 73
     2
 40
7.5
 49
6.0
 49
-1.5
  0
LTYPE
  2
AM_ISO08W050
 70
     0
  3
____ . ____ . ____ . ____ . ____ . ____ . ____
 72
    65
 73
     4
 40
18.0
 49
12.0
 49
-1.5
 49
3.0
 49
-1.5
  0
LTYPE
  2
AM_ISO09W050
 70
     0
  3
_____ . . _____ . . _____ . . ____ .. ____
 72
    65
 73
     6
 40
22.5
 49
12.0
 49
-1.5
 49
3.0
 49
-1.5
 49
3.0
 49
-1.5
  0
LTYPE
  2
AMCONSTR
 70
     0
  3
_______________________
 72
    65
 73
     2
 40
9999.0
 49
9999.0
 49
0.0
  0
LTYPE
  2
AM_ISO08W050X2
 70
     0
  3
__ . __ . __ . __ . __ . __
 72
    65
 73
     4
 40
9.0
 49
6.0
 49
-0.75
 49
1.5
 49
-0.75
  0
LTYPE
  2
AM_ISO02W050X2
 70
     0
  3
 _ _ _ _ _ _ _ _ _ _ _ _
 72
    65
 73
     2
 40
3.75
 49
3.0
 49
-0.75
  0
LTYPE
  2
AMZIGZAG
 70
     0
  3
/\/-/\/-/\/-/\/-/\/-/\/
 72
    65
 73
     2
 40
11.0001
 49
0.0001
 49
-11.0
  0
LTYPE
  2
ACISOWELD
 70
     0
  3
_ _ _ _ _
 72
    65
 73
     2
 40
2.0
 49
2.0
 49
-1.0
  0
LTYPE
  2
ACISOTGL
 70
     0
  3
_ _ _ _ _
 72
    65
 73
     2
 40
3.0
 49
2.0
 49
-1.0
  0
LTYPE
  2
ACISOTGB
 70
     0
  3
__ . . __ . .
 72
    65
 73
     6
 40
9.0
 49
4.0
 49
-1.0
 49
1.0
 49
-1.0
 49
1.0
 49
-1.0
  0
LTYPE
  2
CENTER
 70
     0
  3
Center ____ _ ____ _ ____ _ ____ _ ____ _ ____
 72
    65
 73
     4
 40
50.799999999999997
 49
31.75
 49
-6.3499999999999988
 49
6.3499999999999988
 49
-6.3499999999999988
  0
ENDTAB
  0
TABLE
  2
LAYER
 70
     1
  0
LAYER
  2
0
 70
     0
 62
     7
  6
CONTINUOUS
  0
ENDTAB
  0
TABLE
  2
STYLE
 70
     3
  0
STYLE
  2
STANDARD
 70
     0
 40
0.0
 41
1.0
 50
0.0
 71
     0
 42
2.5
  3
txt
  4
bigfont
  0
STYLE
  2

 70
     1
 40
0.0
 41
1.0
 50
0.0
 71
     0
 42
3.5
  3
genltshp.shx
  4

  0
STYLE
  2
ACISOGDT
 70
     0
 40
0.0
 41
1.0
 50
0.0
 71
     0
 42
3.5
  3
amgdt.shx
  4

  0
ENDTAB
  0
TABLE
  2
VIEW
 70
     0
  0
ENDTAB
  0
TABLE
  2
UCS
 70
     0
  0
ENDTAB
  0
TABLE
  2
APPID
 70
    18
  0
APPID
  2
ACAD
 70
     0
  0
APPID
  2
MCAD_NO_VIS
 70
     0
  0
APPID
  2
ACAD_TEMP_GRAPHIC
 70
     0
  0
APPID
  2
ACATTRIBSERVICES
 70
     0
  0
APPID
  2
DESIGNERASSEMBLIES
 70
     0
  0
APPID
  2
ACAD_DSTYLE_DIMJAG
 70
     0
  0
APPID
  2
ACAD_DSTYLE_DIMBREAK
 70
     0
  0
APPID
  2
ACAD_NAV_VCDISPLAY
 70
     0
  0
APPID
  2
ACAECLAYERSTANDARD
 70
     0
  0
APPID
  2
ACAD_EXEMPT_FROM_CAD_STANDARDS
 70
     0
  0
APPID
  2
GENIUS_AMGTXT_16
 70
     0
  0
APPID
  2
ACAD_MLEADERVER
 70
     0
  0
APPID
  2
ACAD_DSTYLE_DIMARC_LENGTH_
 70
     0
  0
APPID
  2
ACAD_DSTYLE_DIM_LINETYPE
 70
     0
  0
APPID
  2
ACAD_DSTYLE_DIM_EXT1_LINETYPE
 70
     0
  0
APPID
  2
ACAD_DSTYLE_DIM_EXT2_LINETYPE
 70
     0
  0
APPID
  2
GRADIENTCOLOR1ACI
 70
     0
  0
APPID
  2
GRADIENTCOLOR2ACI
 70
     0
  0
ENDTAB
  0
TABLE
  2
DIMSTYLE
 70
     8
  0
DIMSTYLE
  2
ISO-25
 70
     0
  3

  4

  5

  6

  7

 40
1.0
 41
2.5
 42
0.625
 43
3.75
 44
1.25
 45
0.0
 46
0.0
 47
0.0
 48
0.0
140
2.5
141
2.5
142
0.0
143
0.0393700787
144
1.0
145
0.0
146
1.0
147
0.625
 71
     0
 72
     0
 73
     0
 74
     0
 75
     0
 76
     0
 77
     1
 78
     8
170
     0
171
     3
172
     1
173
     0
174
     0
175
     0
176
     0
177
     0
178
     0
  0
DIMSTYLE
  2
AM_ISO
 70
     0
  3

  4
"
  5

  6

  7

 40
1.0
 41
3.5
 42
1.0
 43
10.0
 44
1.0
 45
0.0
 46
0.0
 47
0.1
 48
0.1
140
3.5
141
0.0
142
0.0
143
0.0393701
144
1.0
145
0.0
146
0.71
147
1.5
 71
     0
 72
     0
 73
     0
 74
     0
 75
     0
 76
     0
 77
     1
 78
     8
170
     0
171
     2
172
     1
173
     0
174
     0
175
     0
176
   256
177
   256
178
     2
  0
DIMSTYLE
  2
AM_ISO$3
 70
     0
  3

  4
"
  5

  6

  7

 40
1.0
 41
3.5
 42
1.0
 43
10.0
 44
1.0
 45
0.0
 46
0.0
 47
0.1
 48
0.1
140
3.5
141
0.0
142
0.0
143
0.0393701
144
1.0
145
0.0
146
0.71
147
1.5
 71
     0
 72
     0
 73
     0
 74
     1
 75
     0
 76
     0
 77
     1
 78
     8
170
     0
171
     2
172
     0
173
     0
174
     0
175
     0
176
   256
177
   256
178
     2
  0
DIMSTYLE
  2
AM_ISO$4
 70
     0
  3

  4
"
  5

  6

  7

 40
1.0
 41
3.5
 42
1.0
 43
10.0
 44
1.0
 45
0.0
 46
0.0
 47
0.1
 48
0.1
140
3.5
141
0.0
142
0.0
143
0.0393701
144
1.0
145
0.0
146
0.71
147
1.5
 71
     0
 72
     0
 73
     0
 74
     1
 75
     0
 76
     0
 77
     1
 78
     8
170
     0
171
     2
172
     0
173
     0
174
     0
175
     0
176
   256
177
   256
178
     2
  0
DIMSTYLE
  2
AM_ISO$6
 70
     0
  3

  4
"
  5

  6

  7

 40
1.0
 41
3.5
 42
1.0
 43
10.0
 44
1.0
 45
0.0
 46
0.0
 47
0.1
 48
0.1
140
3.5
141
0.0
142
0.0
143
0.0393701
144
1.0
145
0.0
146
0.71
147
1.5
 71
     0
 72
     0
 73
     0
 74
     0
 75
     0
 76
     0
 77
     0
 78
     8
170
     0
171
     2
172
     1
173
     0
174
     0
175
     0
176
   256
177
   256
178
     2
  0
DIMSTYLE
  2
AM_ISO$7
 70
     0
  3

  4
"
  5

  6

  7

 40
1.0
 41
3.5
 42
1.0
 43
10.0
 44
1.0
 45
0.0
 46
0.0
 47
0.1
 48
0.1
140
3.5
141
0.0
142
0.0
143
0.0393701
144
1.0
145
0.0
146
0.71
147
1.5
 71
     0
 72
     0
 73
     0
 74
     0
 75
     0
 76
     0
 77
     1
 78
     8
170
     0
171
     2
172
     1
173
     0
174
     0
175
     0
176
   256
177
   256
178
     2
  0
DIMSTYLE
  2
AM_ISO$SF
 70
     0
  3

  4
"
  5

  6

  7

 40
1.0
 41
3.5
 42
1.0
 43
10.0
 44
1.0
 45
0.0
 46
0.0
 47
0.1
 48
0.1
140
3.5
141
0.0
142
0.0
143
0.0393701
144
1.0
145
0.0
146
0.71
147
1.5
 71
     0
 72
     0
 73
     0
 74
     0
 75
     1
 76
     1
 77
     1
 78
     8
170
     0
171
     2
172
     1
173
     0
174
     0
175
     0
176
   256
177
   256
178
     2
  0
DIMSTYLE
  2
AM_ISO$SH
 70
     0
  3

  4
"
  5

  6
GENAXEH
  7

 40
1.0
 41
3.5
 42
1.0
 43
10.0
 44
1.0
 45
0.0
 46
0.0
 47
0.1
 48
0.1
140
3.5
141
0.0
142
0.0
143
0.0393701
144
2.0
145
0.0
146
0.71
147
1.5
 71
     0
 72
     0
 73
     0
 74
     0
 75
     1
 76
     1
 77
     1
 78
     8
170
     0
171
     2
172
     1
173
     1
174
     0
175
     0
176
   256
177
   256
178
     2
  0
ENDTAB
  0
ENDSEC
  0
SECTION
  2
BLOCKS
  0
BLOCK
  8
0
  2
$MODEL_SPACE
 70
     0
 10
0.0
 20
0.0
 30
0.0
  3
$MODEL_SPACE
  1

  0
ENDBLK
  5
21
  8
0
  0
BLOCK
 67
     1
  8
0
  2
$PAPER_SPACE
 70
     0
 10
0.0
 20
0.0
 30
0.0
  3
$PAPER_SPACE
  1

  0
ENDBLK
  5
1D
 67
     1
  8
0
  0
BLOCK
  8
0
  2
GENAXEH
 70
     0
 10
0.0
 20
0.0
 30
0.0
  3
GENAXEH
  1

  0
LINE
  5
66D
  8
0
 10
-1.0
 20
0.0
 30
0.0
 11
1.0
 21
0.0
 31
0.0
  0
ENDBLK
  5
66F
  8
0
  0
BLOCK
  8
0
  2
*U3
 70
     1
 10
0.0
 20
0.0
 30
0.0
  3
*U3
  1

  0
TEXT
  5
C36
  8
0
 62
     2
 10
123.3584056862716
 20
142.90199642606939
 30
0.0
 40
3.5
  1
EMITTER
  0
ENDBLK
  5
C38
  8
0
  0
BLOCK
  8
0
  2
*U4
 70
     1
 10
0.0
 20
0.0
 30
0.0
  3
*U4
  1

  0
TEXT
  5
C4E
  8
0
 62
     2
 10
182.4787541826619
 20
143.2775154492187
 30
0.0
 40
3.5
  1
RECEIVER
  0
ENDBLK
  5
C50
  8
0
  0
BLOCK
  8
0
  2
*U5
 70
     1
 10
0.0
 20
0.0
 30
0.0
  3
*U5
  1

  0
SOLID
  5
C52
  8
0
  6
CONTINUOUS
 62
     4
 10
125.37528178640861
 20
178.9163879721834
 30
0.0
 11
125.37528178640861
 21
178.4941999712
 31
0.0
 12
126.9509088564249
 22
178.4941999712
 32
0.0
 13
126.9509088564249
 23
178.4941999712
 33
0.0
210
0.0
220
0.0
230
1.0
  0
SOLID
  5
C53
  8
0
  6
CONTINUOUS
 62
     4
 10
-125.37528178640861
 20
178.4941999712
 30
0.0
 11
-126.9509088564249
 21
178.4941999712
 31
0.0
 12
-125.37528178640861
 22
178.07201197021649
 32
0.0
 13
-125.37528178640861
 23
178.07201197021649
 33
0.0
210
0.0
220
0.0
230
-1.0
  0
LINE
  5
C54
  8
0
  6
CONTINUOUS
 62
     4
 10
125.37528178640861
 20
178.9163879721834
 30
0.0
 11
125.37528178640861
 21
178.4941999712
 31
0.0
  0
LINE
  5
C55
  8
0
  6
CONTINUOUS
 62
     4
 10
126.9509088564249
 20
178.4941999712
 30
0.0
 11
125.37528178640861
 21
178.9163879721834
 31
0.0
  0
LINE
  5
C56
  8
0
  6
CONTINUOUS
 62
     4
 10
126.9509088564249
 20
178.4941999712
 30
0.0
 11
125.37528178640861
 21
178.07201197021649
 31
0.0
  0
LINE
  5
C57
  8
0
  6
CONTINUOUS
 62
     4
 10
125.37528178640861
 20
178.07201197021649
 30
0.0
 11
125.37528178640861
 21
178.4941999712
 31
0.0
  0
ENDBLK
  5
C59
  8
0
  0
BLOCK
  8
0
  2
*U6
 70
     1
 10
0.0
 20
0.0
 30
0.0
  3
*U6
  1

  0
SOLID
  5
C5B
  8
0
  6
CONTINUOUS
 62
     4
 10
125.37528178640861
 20
195.92878615274361
 30
0.0
 11
125.37528178640861
 21
195.50659815176019
 31
0.0
 12
126.9509088564249
 22
195.50659815176019
 32
0.0
 13
126.9509088564249
 23
195.50659815176019
 33
0.0
210
0.0
220
0.0
230
1.0
  0
SOLID
  5
C5C
  8
0
  6
CONTINUOUS
 62
     4
 10
-125.37528178640861
 20
195.50659815176019
 30
0.0
 11
-126.9509088564249
 21
195.50659815176019
 31
0.0
 12
-125.37528178640861
 22
195.0844101507767
 32
0.0
 13
-125.37528178640861
 23
195.0844101507767
 33
0.0
210
0.0
220
0.0
230
-1.0
  0
LINE
  5
C5D
  8
0
  6
CONTINUOUS
 62
     4
 10
125.37528178640861
 20
195.92878615274361
 30
0.0
 11
125.37528178640861
 21
195.50659815176019
 31
0.0
  0
LINE
  5
C5E
  8
0
  6
CONTINUOUS
 62
     4
 10
126.9509088564249
 20
195.50659815176019
 30
0.0
 11
125.37528178640861
 21
195.92878615274361
 31
0.0
  0
LINE
  5
C5F
  8
0
  6
CONTINUOUS
 62
     4
 10
126.9509088564249
 20
195.50659815176019
 30
0.0
 11
125.37528178640861
 21
195.0844101507767
 31
0.0
  0
LINE
  5
C60
  8
0
  6
CONTINUOUS
 62
     4
 10
125.37528178640861
 20
195.0844101507767
 30
0.0
 11
125.37528178640861
 21
195.50659815176019
 31
0.0
  0
ENDBLK
  5
C62
  8
0
  0
BLOCK
  8
0
  2
*U7
 70
     1
 10
0.0
 20
0.0
 30
0.0
  3
*U7
  1

  0
TEXT
  5
C64
  8
0
 62
     2
 10
208.7595104548576
 20
131.18194459337471
 30
0.0
 40
3.5
  1
EX-Z11A
  0
ENDBLK
  5
C66
  8
0
  0
BLOCK
  8
0
  2
*U8
 70
     1
 10
0.0
 20
0.0
 30
0.0
  3
*U8
  1

  0
SOLID
  5
C68
  8
0
  6
CONTINUOUS
 62
     4
 10
198.6336893862196
 20
195.92878615274361
 30
0.0
 11
198.6336893862196
 21
195.50659815176019
 31
0.0
 12
200.2093164562358
 22
195.50659815176019
 32
0.0
 13
200.2093164562358
 23
195.50659815176019
 33
0.0
210
0.0
220
0.0
230
1.0
  0
SOLID
  5
C69
  8
0
  6
CONTINUOUS
 62
     4
 10
-198.6336893862196
 20
195.50659815176019
 30
0.0
 11
-200.20931645623591
 21
195.50659815176019
 31
0.0
 12
-198.6336893862196
 22
195.0844101507767
 32
0.0
 13
-198.6336893862196
 23
195.0844101507767
 33
0.0
210
0.0
220
0.0
230
-1.0
  0
LINE
  5
C6A
  8
0
  6
CONTINUOUS
 62
     4
 10
198.6336893862196
 20
195.92878615274361
 30
0.0
 11
198.6336893862196
 21
195.50659815176019
 31
0.0
  0
LINE
  5
C6B
  8
0
  6
CONTINUOUS
 62
     4
 10
200.2093164562358
 20
195.50659815176019
 30
0.0
 11
198.6336893862196
 21
195.92878615274361
 31
0.0
  0
LINE
  5
C6C
  8
0
  6
CONTINUOUS
 62
     4
 10
200.20931645623591
 20
195.50659815176019
 30
0.0
 11
198.6336893862196
 21
195.0844101507767
 31
0.0
  0
LINE
  5
C6D
  8
0
  6
CONTINUOUS
 62
     4
 10
198.6336893862196
 20
195.0844101507767
 30
0.0
 11
198.6336893862196
 21
195.50659815176019
 31
0.0
  0
ENDBLK
  5
C6F
  8
0
  0
BLOCK
  8
0
  2
*U9
 70
     1
 10
0.0
 20
0.0
 30
0.0
  3
*U9
  1

  0
SOLID
  5
C71
  8
0
  6
CONTINUOUS
 62
     4
 10
198.6747525729798
 20
178.9163879721834
 30
0.0
 11
198.6747525729798
 21
178.4941999712
 31
0.0
 12
200.25037964299599
 22
178.4941999712
 32
0.0
 13
200.25037964299599
 23
178.4941999712
 33
0.0
210
0.0
220
0.0
230
1.0
  0
SOLID
  5
C72
  8
0
  6
CONTINUOUS
 62
     4
 10
-198.6747525729798
 20
178.4941999712
 30
0.0
 11
-200.25037964299611
 21
178.4941999712
 31
0.0
 12
-198.6747525729798
 22
178.07201197021649
 32
0.0
 13
-198.6747525729798
 23
178.07201197021649
 33
0.0
210
0.0
220
0.0
230
-1.0
  0
LINE
  5
C73
  8
0
  6
CONTINUOUS
 62
     4
 10
198.6747525729798
 20
178.9163879721834
 30
0.0
 11
198.6747525729798
 21
178.4941999712
 31
0.0
  0
LINE
  5
C74
  8
0
  6
CONTINUOUS
 62
     4
 10
200.25037964299599
 20
178.4941999712
 30
0.0
 11
198.6747525729798
 21
178.9163879721834
 31
0.0
  0
LINE
  5
C75
  8
0
  6
CONTINUOUS
 62
     4
 10
200.25037964299611
 20
178.4941999712
 30
0.0
 11
198.6747525729798
 21
178.07201197021649
 31
0.0
  0
LINE
  5
C76
  8
0
  6
CONTINUOUS
 62
     4
 10
198.6747525729798
 20
178.07201197021649
 30
0.0
 11
198.6747525729798
 21
178.4941999712
 31
0.0
  0
ENDBLK
  5
C78
  8
0
  0
ENDSEC
  0
SECTION
  2
ENTITIES
  0
LINE
  5
E5
  8
0
  6
CONTINUOUS
 62
     7
 10
139.96804185409999
 20
168.99419986314999
 30
0.0
 11
139.96804185409999
 21
161.09419977900001
 31
0.0
  0
LINE
  5
E6
  8
0
  6
CONTINUOUS
 62
     7
 10
141.9680419490999
 20
161.09419977900001
 30
0.0
 11
141.9680419490999
 21
168.99419986314999
 31
0.0
  0
LINE
  5
F0
  8
0
  6
CONTINUOUS
 62
     7
 10
138.2180419165
 20
171.49419986081091
 30
0.0
 11
138.2180419165
 21
184.49420007549989
 31
0.0
  0
LINE
  5
F6
  8
0
  6
CONTINUOUS
 62
     7
 10
143.71804188670001
 20
184.49420007549989
 30
0.0
 11
143.71804188670001
 21
171.49419986081091
 31
0.0
  0
LINE
  5
FB
  8
0
  6
CONTINUOUS
 62
     7
 10
142.9023565139
 20
184.89420032734989
 30
0.0
 11
142.96804199659999
 21
184.89420032734989
 31
0.0
  0
LINE
  5
FC
  8
0
  6
CONTINUOUS
 62
     7
 10
142.96804199659999
 20
184.89420032734989
 30
0.0
 11
143.3680420156
 21
184.49420007549989
 31
0.0
  0
LINE
  5
FE
  8
0
  6
CONTINUOUS
 62
     7
 10
143.71804188670001
 20
184.49420007549989
 30
0.0
 11
138.2180419165
 21
184.49420007549989
 31
0.0
  0
LINE
  5
11D
  8
0
  6
CONTINUOUS
 62
     7
 10
139.0337272893
 20
184.89420032734989
 30
0.0
 11
142.9023565139
 21
184.89420032734989
 31
0.0
  0
LINE
  5
11F
  8
0
  6
CONTINUOUS
 62
     7
 10
138.96804180660001
 20
184.89420032734989
 30
0.0
 11
139.0337272893
 21
184.89420032734989
 31
0.0
  0
LINE
  5
120
  8
0
  6
CONTINUOUS
 62
     7
 10
138.96804180660001
 20
184.89420032734989
 30
0.0
 11
138.56804178760001
 21
184.49420007549989
 31
0.0
  0
LINE
  5
126
  8
0
  6
CONTINUOUS
 62
     7
 10
143.71804188670001
 20
171.49419986081091
 30
0.0
 11
142.41804192263189
 21
168.99419986314999
 31
0.0
  0
LINE
  5
127
  8
0
  6
CONTINUOUS
 62
     7
 10
139.51804188056801
 20
168.99419986314999
 30
0.0
 11
138.2180419165
 21
171.49419986081091
 31
0.0
  0
LINE
  5
129
  8
0
  6
CONTINUOUS
 62
     7
 10
142.41804192263189
 20
168.99419986314999
 30
0.0
 11
139.51804188056801
 21
168.99419986314999
 31
0.0
  0
LINE
  5
12E
  8
0
  6
CONTINUOUS
 62
     7
 10
140.9680419016
 20
161.09419977900001
 30
0.0
 11
141.9680419490999
 21
161.09419977900001
 31
0.0
  0
LINE
  5
12F
  8
0
  6
CONTINUOUS
 62
     7
 10
139.96804185409999
 20
161.09419977900001
 30
0.0
 11
140.9680419016
 21
161.09419977900001
 31
0.0
  0
CIRCLE
  5
146
  8
0
  6
CONTINUOUS
 62
     7
 10
140.9680419016
 20
178.4941999712
 30
0.0
 40
0.25
  0
LINE
  5
19F
  8
0
  6
CONTINUOUS
 62
     7
 10
119.9777039733179
 20
168.99419986314999
 30
0.0
 11
119.9777039733179
 21
161.09419977900001
 31
0.0
  0
LINE
  5
1A0
  8
0
  6
CONTINUOUS
 62
     7
 10
121.9777040100678
 20
161.09419977900001
 30
0.0
 11
121.9777040100678
 21
168.99419986314999
 31
0.0
  0
LINE
  5
1A1
  8
0
  6
CONTINUOUS
 62
     7
 10
116.7277041390679
 20
172.5941999687
 30
0.0
 11
116.7277041390679
 21
184.39420024539999
 31
0.0
  0
LINE
  5
1A2
  8
0
  6
CONTINUOUS
 62
     7
 10
116.7277041390679
 20
184.39420024539999
 30
0.0
 11
117.0277040951178
 21
184.39420024539999
 31
0.0
  0
LINE
  5
1A3
  8
0
  6
CONTINUOUS
 62
     7
 10
117.0277040951178
 20
172.5941999687
 30
0.0
 11
116.7277041390679
 21
172.5941999687
 31
0.0
  0
LINE
  5
1BA
  8
0
  6
CONTINUOUS
 62
     7
 10
121.9777040100678
 20
184.49420007549989
 30
0.0
 11
123.2277040112679
 21
184.49420007549989
 31
0.0
  0
LINE
  5
1BD
  8
0
  6
CONTINUOUS
 62
     7
 10
123.2277040112679
 20
184.49420007549989
 30
0.0
 11
123.2277040112679
 21
171.49420002671809
 31
0.0
  0
LINE
  5
1C2
  8
0
  6
CONTINUOUS
 62
     7
 10
119.7277041054918
 20
168.99419986314999
 30
0.0
 11
118.7277040012179
 21
171.494200557532
 31
0.0
  0
LINE
  5
1C3
  8
0
  6
CONTINUOUS
 62
     7
 10
123.2277040112679
 20
171.49420002671809
 30
0.0
 11
122.2277040470418
 21
168.99419986314999
 31
0.0
  0
LINE
  5
1C4
  8
0
  6
CONTINUOUS
 62
     7
 10
118.7277040012179
 20
171.494200557532
 30
0.0
 11
118.7277040012179
 21
172.51515243582969
 31
0.0
  0
LINE
  5
1C9
  8
0
  6
CONTINUOUS
 62
     7
 10
121.9777040100678
 20
184.89420032734989
 30
0.0
 11
122.7620185968678
 21
184.89420032734989
 31
0.0
  0
LINE
  5
1CC
  8
0
  6
CONTINUOUS
 62
     7
 10
122.7620185968678
 20
184.89420032734989
 30
0.0
 11
122.82770402136779
 21
184.89420032734989
 31
0.0
  0
LINE
  5
1CD
  8
0
  6
CONTINUOUS
 62
     7
 10
122.82770402136779
 20
184.89420032734989
 30
0.0
 11
123.2277040112679
 21
184.49420007549989
 31
0.0
  0
LINE
  5
1D2
  8
0
  6
CONTINUOUS
 62
     7
 10
120.72770409621781
 20
184.89420032734989
 30
0.0
 11
120.3277040772178
 21
184.49420007549989
 31
0.0
  0
LINE
  5
1D3
  8
0
  6
CONTINUOUS
 62
     7
 10
120.72770409621781
 20
184.89420032734989
 30
0.0
 11
121.9777040100678
 21
184.89420032734989
 31
0.0
  0
LINE
  5
1D5
  8
0
  6
CONTINUOUS
 62
     7
 10
122.2277040470418
 20
168.99419986314999
 30
0.0
 11
119.7277041054918
 21
168.99419986314999
 31
0.0
  0
LINE
  5
1D7
  8
0
  6
CONTINUOUS
 62
     7
 10
119.9777039733179
 20
161.09419977900001
 30
0.0
 11
121.9777040100678
 21
161.09419977900001
 31
0.0
  0
LINE
  5
1DA
  8
0
  6
CONTINUOUS
 62
     7
 10
121.3777040398178
 20
184.49420007549989
 30
0.0
 11
121.9777040100678
 21
184.49420007549989
 31
0.0
  0
LINE
  5
1DC
  8
0
  6
CONTINUOUS
 62
     7
 10
117.0277040951178
 20
172.57451775769869
 30
0.0
 11
117.0277040951178
 21
172.5941999687
 31
0.0
  0
CIRCLE
  5
1DF
  8
0
  6
CONTINUOUS
 62
     7
 10
118.9277040213678
 20
174.24419997119989
 30
0.0
 40
1.0999999999999941
  0
CIRCLE
  5
1E0
  8
0
  6
CONTINUOUS
 62
     7
 10
118.9277040213678
 20
182.74419997119989
 30
0.0
 40
1.0999999999999941
  0
LINE
  5
1E2
  8
0
  6
CONTINUOUS
 62
     7
 10
117.5277041770678
 20
184.49420007549989
 30
0.0
 11
121.3777040398178
 21
184.49420007549989
 31
0.0
  0
LINE
  5
1E3
  8
0
  6
CONTINUOUS
 62
     7
 10
118.7277040012179
 20
172.51515243582969
 30
0.0
 11
117.0277040951178
 21
172.57451775769869
 31
0.0
  0
LINE
  5
1E6
  8
0
  6
CONTINUOUS
 62
     7
 10
117.5277041770678
 20
184.49420007549989
 30
0.0
 11
117.0277040951178
 21
184.49420007549989
 31
0.0
  0
LINE
  5
1E7
  8
0
  6
CONTINUOUS
 62
     7
 10
117.0277040951178
 20
184.39420024539999
 30
0.0
 11
117.0277040951178
 21
184.49420007549989
 31
0.0
  0
LINE
  5
298
  8
0
  6
CONTINUOUS
 62
     7
 10
116.7277041390679
 20
198.25659813686019
 30
0.0
 11
123.2277040112178
 21
198.25659813686019
 31
0.0
  0
LINE
  5
29D
  8
0
  6
CONTINUOUS
 62
     7
 10
116.7277041390679
 20
198.25659813686019
 30
0.0
 11
116.7277041390679
 21
196.9065981018602
 31
0.0
  0
LINE
  5
29F
  8
0
  6
CONTINUOUS
 62
     7
 10
116.7277041390679
 20
196.80659815531021
 30
0.0
 11
116.7277041390679
 21
196.9065981018602
 31
0.0
  0
LINE
  5
2A2
  8
0
  6
CONTINUOUS
 62
     7
 10
116.7277041390679
 20
192.75659816666021
 30
0.0
 11
123.2277040112178
 21
192.75659816666021
 31
0.0
  0
LINE
  5
2A5
  8
0
  6
CONTINUOUS
 62
     7
 10
116.7277041390679
 20
194.1065982016602
 30
0.0
 11
116.7277041390679
 21
192.75659816666021
 31
0.0
  0
LINE
  5
2A8
  8
0
  6
CONTINUOUS
 62
     7
 10
116.7277041390679
 20
194.1065982016602
 30
0.0
 11
116.7277041390679
 21
194.20659814821019
 31
0.0
  0
LINE
  5
2A9
  8
0
  6
CONTINUOUS
 62
     7
 10
116.7277041390679
 20
196.30659813156021
 30
0.0
 11
116.7277041390679
 21
194.7065981719602
 31
0.0
  0
LINE
  5
2B4
  8
0
  6
CONTINUOUS
 62
     7
 10
116.7277041390679
 20
196.7065982087602
 30
0.0
 11
116.7277041390679
 21
196.80659815531021
 31
0.0
  0
LINE
  5
2B5
  8
0
  6
CONTINUOUS
 62
     7
 10
116.7277041390679
 20
194.20659814821019
 30
0.0
 11
116.7277041390679
 21
194.3065980947602
 31
0.0
  0
LINE
  5
2B6
  8
0
  6
CONTINUOUS
 62
     7
 10
116.7277041390679
 20
196.30659813156021
 30
0.0
 11
116.7277041390679
 21
196.40659813631021
 31
0.0
  0
LINE
  5
2B7
  8
0
  6
CONTINUOUS
 62
     7
 10
116.7277041390679
 20
194.60659816721019
 30
0.0
 11
116.7277041390679
 21
194.7065981719602
 31
0.0
  0
LINE
  5
2B8
  8
0
  6
CONTINUOUS
 62
     7
 10
116.7277041390679
 20
194.60659816721019
 30
0.0
 11
116.7277041390679
 21
194.3065980947602
 31
0.0
  0
LINE
  5
2B9
  8
0
  6
CONTINUOUS
 62
     7
 10
116.7277041390679
 20
196.7065982087602
 30
0.0
 11
116.7277041390679
 21
196.40659813631021
 31
0.0
  0
LINE
  5
2BF
  8
0
  6
CONTINUOUS
 62
     7
 10
120.3277040772178
 20
193.60659811971021
 30
0.0
 11
121.9777040100678
 21
193.60659811971021
 31
0.0
  0
LINE
  5
2C2
  8
0
  6
CONTINUOUS
 62
     7
 10
121.9777040100678
 20
197.40659818381019
 30
0.0
 11
120.3277040772178
 21
197.40659818381019
 31
0.0
  0
LINE
  5
2C5
  8
0
  6
CONTINUOUS
 62
     7
 10
120.3277040772178
 20
197.40659818381019
 30
0.0
 11
120.3277040772178
 21
193.60659811971021
 31
0.0
  0
LINE
  5
2C6
  8
0
  6
CONTINUOUS
 62
     7
 10
121.9777040100678
 20
197.40659818381019
 30
0.0
 11
121.9777040100678
 21
197.90659826576021
 31
0.0
  0
LINE
  5
2CC
  8
0
  6
CONTINUOUS
 62
     7
 10
121.9777040100678
 20
193.10659803776019
 30
0.0
 11
121.9777040100678
 21
193.60659811971021
 31
0.0
  0
LINE
  5
2CE
  8
0
  6
CONTINUOUS
 62
     7
 10
121.9777040100678
 20
193.10659803776019
 30
0.0
 11
122.92770401881781
 21
193.10659803776019
 31
0.0
  0
LINE
  5
2D0
  8
0
  6
CONTINUOUS
 62
     7
 10
122.92770401881781
 20
197.90659826576021
 30
0.0
 11
121.9777040100678
 21
197.90659826576021
 31
0.0
  0
LINE
  5
2D4
  8
0
  6
CONTINUOUS
 62
     7
 10
123.2277040112178
 20
193.40659822666021
 30
0.0
 11
122.92770401881781
 21
193.10659803776019
 31
0.0
  0
LINE
  5
2D6
  8
0
  6
CONTINUOUS
 62
     7
 10
123.2277040112178
 20
198.25659813686019
 30
0.0
 11
123.2277040112178
 21
192.75659816666021
 31
0.0
  0
LINE
  5
2D7
  8
0
  6
CONTINUOUS
 62
     7
 10
122.92770401881781
 20
197.90659826576021
 30
0.0
 11
123.2277040112178
 21
197.60659807686019
 31
0.0
  0
INSERT
  5
6DA
  8
0
  2
*U3
 10
0.0
 20
0.0
 30
0.0
  0
LINE
  5
86B
  8
0
  6
CONTINUOUS
 62
     7
 10
176.91399924292909
 20
168.9941998631499
 30
0.0
 11
176.91399924292909
 21
161.09419977899989
 31
0.0
  0
LINE
  5
86C
  8
0
  6
CONTINUOUS
 62
     7
 10
178.91399933792911
 20
161.09419977899989
 30
0.0
 11
178.91399933792911
 21
168.9941998631499
 31
0.0
  0
CIRCLE
  5
86D
  8
0
  6
CONTINUOUS
 62
     7
 10
177.9139992904291
 20
178.49419997119989
 30
0.0
 40
0.25
  0
LINE
  5
86E
  8
0
  6
CONTINUOUS
 62
     7
 10
177.01399930587911
 20
183.64419965679991
 30
0.0
 11
178.8139992749791
 21
183.64419965679991
 31
0.0
  0
LINE
  5
86F
  8
0
  6
CONTINUOUS
 62
     7
 10
176.81399929637911
 20
184.49420007549989
 30
0.0
 11
177.01399930587911
 21
184.89420032734989
 31
0.0
  0
LINE
  5
870
  8
0
  6
CONTINUOUS
 62
     7
 10
177.01399930587911
 20
184.89420032734989
 30
0.0
 11
178.8139992749791
 21
184.89420032734989
 31
0.0
  0
LINE
  5
871
  8
0
  6
CONTINUOUS
 62
     7
 10
178.8139992749791
 20
184.89420032734989
 30
0.0
 11
179.0139992844791
 21
184.49420007549989
 31
0.0
  0
LINE
  5
872
  8
0
  6
CONTINUOUS
 62
     7
 10
176.8845874939291
 20
184.1941996537999
 30
0.0
 11
177.01399930587911
 21
183.64419965679991
 31
0.0
  0
LINE
  5
873
  8
0
  6
CONTINUOUS
 62
     7
 10
178.8139992749791
 20
183.64419965679991
 30
0.0
 11
178.9434110869291
 21
184.1941996537999
 31
0.0
  0
LINE
  5
874
  8
0
  6
CONTINUOUS
 62
     7
 10
179.0139992844791
 20
184.49420007549989
 30
0.0
 11
180.66399927552911
 21
184.49420007549989
 31
0.0
  0
POLYLINE
  5
875
  8
0
  6
CONTINUOUS
 62
     7
 66
     1
 10
0.0
 20
0.0
 30
0.0
 70
   128
  0
VERTEX
  5
C39
  8
0
  6
CONTINUOUS
 62
     7
 10
178.9434110869291
 20
184.1941996537999
 30
0.0
  0
VERTEX
  5
C3A
  8
0
  6
CONTINUOUS
 62
     7
 10
178.95718208817911
 20
184.25272675834989
 30
0.0
  0
VERTEX
  5
C3B
  8
0
  6
CONTINUOUS
 62
     7
 10
178.97042398177911
 20
184.3090047188999
 30
0.0
  0
VERTEX
  5
C3C
  8
0
  6
CONTINUOUS
 62
     7
 10
178.9826277999791
 20
184.36087100439991
 30
0.0
  0
VERTEX
  5
C3D
  8
0
  6
CONTINUOUS
 62
     7
 10
178.99332450537909
 20
184.40633165324991
 30
0.0
  0
VERTEX
  5
C3E
  8
0
  6
CONTINUOUS
 62
     7
 10
179.0021030355791
 20
184.44364043559989
 30
0.0
  0
VERTEX
  5
C3F
  8
0
  6
CONTINUOUS
 62
     7
 10
179.00862613527909
 20
184.47136404599999
 30
0.0
  0
VERTEX
  5
C40
  8
0
  6
CONTINUOUS
 62
     7
 10
179.0126429295791
 20
184.48843518879991
 30
0.0
  0
VERTEX
  5
C41
  8
0
  6
CONTINUOUS
 62
     7
 10
179.0139992844791
 20
184.49420007549989
 30
0.0
  0
SEQEND
  5
C42
  8
0
  6
CONTINUOUS
 62
     7
  0
LINE
  5
876
  8
0
  6
CONTINUOUS
 62
     7
 10
175.16399930532901
 20
184.49420007549989
 30
0.0
 11
176.81399929637911
 21
184.49420007549989
 31
0.0
  0
POLYLINE
  5
877
  8
0
  6
CONTINUOUS
 62
     7
 66
     1
 10
0.0
 20
0.0
 30
0.0
 70
   128
  0
VERTEX
  5
C43
  8
0
  6
CONTINUOUS
 62
     7
 10
176.81399929637911
 20
184.49420007549989
 30
0.0
  0
VERTEX
  5
C44
  8
0
  6
CONTINUOUS
 62
     7
 10
176.8153556513291
 20
184.48843518879991
 30
0.0
  0
VERTEX
  5
C45
  8
0
  6
CONTINUOUS
 62
     7
 10
176.81937244557909
 20
184.47136404599999
 30
0.0
  0
VERTEX
  5
C46
  8
0
  6
CONTINUOUS
 62
     7
 10
176.825895545279
 20
184.44364043559989
 30
0.0
  0
VERTEX
  5
C47
  8
0
  6
CONTINUOUS
 62
     7
 10
176.83467407547911
 20
184.40633165324991
 30
0.0
  0
VERTEX
  5
C48
  8
0
  6
CONTINUOUS
 62
     7
 10
176.84537078087911
 20
184.36087100439991
 30
0.0
  0
VERTEX
  5
C49
  8
0
  6
CONTINUOUS
 62
     7
 10
176.8575745990791
 20
184.3090047188999
 30
0.0
  0
VERTEX
  5
C4A
  8
0
  6
CONTINUOUS
 62
     7
 10
176.87081649267901
 20
184.25272675834989
 30
0.0
  0
VERTEX
  5
C4B
  8
0
  6
CONTINUOUS
 62
     7
 10
176.8845874939291
 20
184.1941996537999
 30
0.0
  0
SEQEND
  5
C4C
  8
0
  6
CONTINUOUS
 62
     7
  0
LINE
  5
878
  8
0
  6
CONTINUOUS
 62
     7
 10
180.66399927552911
 20
184.49420007549989
 30
0.0
 11
180.66399927552911
 21
171.49419986081099
 31
0.0
  0
LINE
  5
879
  8
0
  6
CONTINUOUS
 62
     7
 10
175.16399930532901
 20
171.49419986081099
 30
0.0
 11
175.16399930532901
 21
184.49420007549989
 31
0.0
  0
LINE
  5
87A
  8
0
  6
CONTINUOUS
 62
     7
 10
180.66399927552911
 20
171.49419986081099
 30
0.0
 11
179.3639993676471
 21
168.99419997119989
 31
0.0
  0
LINE
  5
87B
  8
0
  6
CONTINUOUS
 62
     7
 10
176.4639992132112
 20
168.99419997119989
 30
0.0
 11
175.16399930532901
 21
171.49419986081099
 31
0.0
  0
LINE
  5
87C
  8
0
  6
CONTINUOUS
 62
     7
 10
177.9139992904291
 20
161.09419977899989
 30
0.0
 11
178.91399933792911
 21
161.09419977899989
 31
0.0
  0
LINE
  5
87D
  8
0
  6
CONTINUOUS
 62
     7
 10
176.91399924292909
 20
161.09419977899989
 30
0.0
 11
177.9139992904291
 21
161.09419977899989
 31
0.0
  0
LINE
  5
87E
  8
0
  6
CONTINUOUS
 62
     7
 10
176.4639992132112
 20
168.99419997119989
 30
0.0
 11
179.3639993676471
 21
168.99419997119989
 31
0.0
  0
LINE
  5
87F
  8
0
  6
CONTINUOUS
 62
     7
 10
201.99025653048571
 20
196.60659814581021
 30
0.0
 11
201.75931647168571
 21
196.40659813631021
 31
0.0
  0
LINE
  5
880
  8
0
  6
CONTINUOUS
 62
     7
 10
201.75931647168571
 20
196.40659813631021
 30
0.0
 11
201.4593164574357
 21
196.40659813631021
 31
0.0
  0
LINE
  5
881
  8
0
  6
CONTINUOUS
 62
     7
 10
201.0593164384357
 20
196.60659814581021
 30
0.0
 11
201.4593164574357
 21
196.40659813631021
 31
0.0
  0
LINE
  5
882
  8
0
  6
CONTINUOUS
 62
     7
 10
201.75931647168571
 20
194.60659816721019
 30
0.0
 11
201.4593164574357
 21
194.60659816721019
 31
0.0
  0
LINE
  5
883
  8
0
  6
CONTINUOUS
 62
     7
 10
201.75931647168571
 20
194.60659816721019
 30
0.0
 11
201.99025653048571
 21
194.40659815771019
 31
0.0
  0
LINE
  5
884
  8
0
  6
CONTINUOUS
 62
     7
 10
201.4593164574357
 20
194.60659816721019
 30
0.0
 11
201.0593164384357
 21
194.40659815771019
 31
0.0
  0
LINE
  5
885
  8
0
  6
CONTINUOUS
 62
     7
 10
201.75931647168571
 20
196.40659813631021
 30
0.0
 11
201.75931647168571
 21
194.60659816721019
 31
0.0
  0
LINE
  5
886
  8
0
  6
CONTINUOUS
 62
     7
 10
201.99025653048571
 20
196.60659814581021
 30
0.0
 11
201.99025653048571
 21
194.40659815771019
 31
0.0
  0
LINE
  5
887
  8
0
  6
CONTINUOUS
 62
     7
 10
201.4593164574357
 20
196.40659813631021
 30
0.0
 11
201.4593164574357
 21
194.60659816721019
 31
0.0
  0
LINE
  5
888
  8
0
  6
CONTINUOUS
 62
     7
 10
200.20931645623571
 20
198.25659813686019
 30
0.0
 11
200.20931645623571
 21
192.75659816666021
 31
0.0
  0
LINE
  5
889
  8
0
  6
CONTINUOUS
 62
     7
 10
201.0593164384357
 20
196.60659814581021
 30
0.0
 11
200.20931645623571
 21
196.40659813631021
 31
0.0
  0
LINE
  5
88A
  8
0
  6
CONTINUOUS
 62
     7
 10
200.20931645623571
 20
194.60659816721019
 30
0.0
 11
201.0593164384357
 21
194.40659815771019
 31
0.0
  0
LINE
  5
88B
  8
0
  6
CONTINUOUS
 62
     7
 10
201.99025653048571
 20
196.60659814581021
 30
0.0
 11
200.20931645623571
 21
196.60659814581021
 31
0.0
  0
LINE
  5
88C
  8
0
  6
CONTINUOUS
 62
     7
 10
201.99025653048571
 20
194.40659815771019
 30
0.0
 11
200.20931645623571
 21
194.40659815771019
 31
0.0
  0
LINE
  5
88D
  8
0
  6
CONTINUOUS
 62
     7
 10
206.7093163284357
 20
198.25659813686019
 30
0.0
 11
200.20931645623571
 21
198.25659813686019
 31
0.0
  0
LINE
  5
88E
  8
0
  6
CONTINUOUS
 62
     7
 10
206.7093163284357
 20
192.75659816666021
 30
0.0
 11
206.7093163284357
 21
198.25659813686019
 31
0.0
  0
LINE
  5
88F
  8
0
  6
CONTINUOUS
 62
     7
 10
206.7093163284357
 20
192.75659816666021
 30
0.0
 11
200.20931645623571
 21
192.75659816666021
 31
0.0
  0
LINE
  5
890
  8
0
  6
CONTINUOUS
 62
     7
 10
201.45931645738571
 20
168.9941998631999
 30
0.0
 11
201.45931645738571
 21
161.09419977900001
 31
0.0
  0
LINE
  5
891
  8
0
  6
CONTINUOUS
 62
     7
 10
203.4593164941858
 20
161.09419977900001
 30
0.0
 11
203.4593164941858
 21
168.9941998631999
 31
0.0
  0
LINE
  5
892
  8
0
  6
CONTINUOUS
 62
     7
 10
201.75931647163571
 20
184.89420032734989
 30
0.0
 11
201.45931645738571
 21
184.89420032734989
 31
0.0
  0
LINE
  5
893
  8
0
  6
CONTINUOUS
 62
     7
 10
201.75931647163571
 20
184.89420032734989
 30
0.0
 11
201.99025653048571
 21
184.49420007549989
 31
0.0
  0
LINE
  5
894
  8
0
  6
CONTINUOUS
 62
     7
 10
201.45931645738571
 20
184.89420032734989
 30
0.0
 11
201.05931643838571
 21
184.49420007549989
 31
0.0
  0
LINE
  5
895
  8
0
  6
CONTINUOUS
 62
     7
 10
200.20931645623571
 20
171.49420002673639
 30
0.0
 11
200.20931645623571
 21
184.49420007549989
 31
0.0
  0
LINE
  5
896
  8
0
  6
CONTINUOUS
 62
     7
 10
204.70931646623569
 20
171.4942005575507
 30
0.0
 11
203.70931640523651
 21
168.99419997119989
 31
0.0
  0
LINE
  5
897
  8
0
  6
CONTINUOUS
 62
     7
 10
201.20931637718721
 20
168.99419997119989
 30
0.0
 11
200.20931645623571
 21
171.49420002673639
 31
0.0
  0
LINE
  5
898
  8
0
  6
CONTINUOUS
 62
     7
 10
204.70931646623569
 20
172.5151524358279
 30
0.0
 11
204.70931646623569
 21
171.4942005575507
 31
0.0
  0
LINE
  5
899
  8
0
  6
CONTINUOUS
 62
     7
 10
206.7093163284357
 20
184.3942002453999
 30
0.0
 11
206.7093163284357
 21
172.59419996869991
 31
0.0
  0
LINE
  5
89A
  8
0
  6
CONTINUOUS
 62
     7
 10
206.7093163284357
 20
172.59419996869991
 30
0.0
 11
206.40931637238569
 21
172.59419996869991
 31
0.0
  0
LINE
  5
89B
  8
0
  6
CONTINUOUS
 62
     7
 10
206.40931637238569
 20
184.3942002453999
 30
0.0
 11
206.7093163284357
 21
184.3942002453999
 31
0.0
  0
LINE
  5
89C
  8
0
  6
CONTINUOUS
 62
     7
 10
201.45931645738571
 20
161.09419977900001
 30
0.0
 11
203.4593164941858
 21
161.09419977900001
 31
0.0
  0
LINE
  5
89D
  8
0
  6
CONTINUOUS
 62
     7
 10
206.40931637238569
 20
172.59419996869991
 30
0.0
 11
206.40931637238569
 21
172.57451775769869
 31
0.0
  0
LINE
  5
89E
  8
0
  6
CONTINUOUS
 62
     7
 10
206.40931637238569
 20
184.3942002453999
 30
0.0
 11
206.40931637238569
 21
184.49420007549989
 31
0.0
  0
CIRCLE
  5
89F
  8
0
  6
CONTINUOUS
 62
     7
 10
204.5093164461357
 20
174.24419997119989
 30
0.0
 40
1.0999999999999941
  0
CIRCLE
  5
8A0
  8
0
  6
CONTINUOUS
 62
     7
 10
204.5093164461357
 20
182.74419997119989
 30
0.0
 40
1.0999999999999941
  0
LINE
  5
8A1
  8
0
  6
CONTINUOUS
 62
     7
 10
206.40931637238569
 20
184.49420007549989
 30
0.0
 11
200.20931645623571
 21
184.49420007549989
 31
0.0
  0
LINE
  5
8A2
  8
0
  6
CONTINUOUS
 62
     7
 10
206.40931637238569
 20
172.57451775769869
 30
0.0
 11
204.70931646623569
 21
172.5151524358279
 31
0.0
  0
LINE
  5
8A3
  8
0
  6
CONTINUOUS
 62
     7
 10
203.70931640523651
 20
168.99419997119989
 30
0.0
 11
201.20931637718721
 21
168.99419997119989
 31
0.0
  0
INSERT
  5
8A4
  8
0
  2
*U4
 10
0.0
 20
0.0
 30
0.0
  0
LINE
  5
92A
  8
0
  6
CENTER
 62
     4
 10
118.9277040213678
 20
184.78883258744739
 30
0.0
 11
118.9277040213678
 21
180.69956735495259
 31
0.0
  0
LINE
  5
92C
  8
0
  6
CENTER
 62
     4
 10
120.9723366376153
 20
182.7441999712
 30
0.0
 11
116.8830714051205
 21
182.7441999712
 31
0.0
  0
LINE
  5
92E
  8
0
  6
CENTER
 62
     4
 10
118.9277040213678
 20
176.28883258744739
 30
0.0
 11
118.9277040213678
 21
172.19956735495259
 31
0.0
  0
LINE
  5
92F
  8
0
  6
CENTER
 62
     4
 10
120.9723366376153
 20
174.2441999712
 30
0.0
 11
116.8830714051205
 21
174.2441999712
 31
0.0
  0
LINE
  5
931
  8
0
  6
CENTER
 62
     4
 10
143.01267451784739
 20
178.4941999712
 30
0.0
 11
138.92340928535259
 21
178.4941999712
 31
0.0
  0
LINE
  5
933
  8
0
  6
CENTER
 62
     4
 10
179.95863190667649
 20
178.4941999712
 30
0.0
 11
175.86936667418169
 21
178.4941999712
 31
0.0
  0
LINE
  5
934
  8
0
  6
CENTER
 62
     4
 10
204.5093164461357
 20
184.78883258744739
 30
0.0
 11
204.5093164461357
 21
180.69956735495251
 31
0.0
  0
LINE
  5
935
  8
0
  6
CENTER
 62
     4
 10
206.5539490623832
 20
182.74419997119989
 30
0.0
 11
202.4646838298884
 21
182.74419997119989
 31
0.0
  0
LINE
  5
936
  8
0
  6
CENTER
 62
     4
 10
204.5093164461357
 20
176.28883258744739
 30
0.0
 11
204.5093164461357
 21
172.19956735495251
 31
0.0
  0
LINE
  5
937
  8
0
  6
CENTER
 62
     4
 10
206.5539490623832
 20
174.24419997119989
 30
0.0
 11
202.4646838298884
 21
174.24419997119989
 31
0.0
  0
LINE
  5
942
  8
0
  6
CENTER
 62
     4
 10
144.6428635424281
 20
182.7441999712
 30
0.0
 11
137.2932202607719
 21
182.7441999712
 31
0.0
  0
LINE
  5
943
  8
0
  6
CENTER
 62
     4
 10
144.6428635424281
 20
174.2441999712
 30
0.0
 11
137.2932202607719
 21
174.2441999712
 31
0.0
  0
LINE
  5
94F
  8
0
  6
CENTER
 62
     4
 10
181.5888209312572
 20
182.7441999712
 30
0.0
 11
174.239177649601
 21
182.7441999712
 31
0.0
  0
LINE
  5
950
  8
0
  6
CENTER
 62
     4
 10
181.5888209312572
 20
174.2441999712
 30
0.0
 11
174.239177649601
 21
174.2441999712
 31
0.0
  0
LINE
  5
95A
  8
0
  6
CENTER
 62
     4
 10
118.9277040213678
 20
198.9421461276284
 30
0.0
 11
118.9277040213678
 21
192.071050175892
 31
0.0
  0
LINE
  5
964
  8
0
  6
CENTER
 62
     4
 10
204.50931644608571
 20
198.9421461276284
 30
0.0
 11
204.50931644608571
 21
192.071050175892
 31
0.0
  0
INSERT
  5
982
  8
0
  6
CONTINUOUS
 62
     4
  2
*U5
 10
0.0
 20
0.0
 30
0.0
1001
GRADIENTCOLOR1ACI
1070
     5
1001
GRADIENTCOLOR2ACI
1070
     2
1001
ACAD
1002
{
1000
R14_HATCH_DATA
1000
982
1011
1.0
1021
0.0
1031
0.0
1021
0.0
1031
0.0
1011
0.0
1021
0.0
1031
0.0
1021
1.0
1031
0.0
1011
0.0
1021
0.0
1031
0.0
1021
0.0
1031
1.0
1040
0.0
1010
0.0
1020
0.0
1030
1.0
1000
SOLID
1070
     1
1070
     0
1071
        2
1071
        7
1070
     0
1070
     1
1071
        3
1040
125.37528178640861
1040
178.9163879721834
1040
125.37528178640861
1040
178.4941999712
1040
126.9509088564249
1040
178.4941999712
1071
        0
1071
        7
1070
     0
1070
     1
1071
        3
1040
126.9509088564249
1040
178.4941999712
1040
125.37528178640861
1040
178.4941999712
1040
125.37528178640861
1040
178.07201197021649
1071
        0
1070
     1
1070
     1
1040
0.00554563051541
1071
        2
1040
125.54446827710861
1040
178.64321088816001
1040
0.0
1040
125.54446827710861
1040
178.3104731563906
1040
0.0
1002
}
  0
LINE
  5
983
  8
0
  6
CENTER
 62
     4
 10
126.9509088564248
 20
178.4941999712
 30
0.0
 11
122.5790328586163
 21
178.4941999712
 31
0.0
  0
LINE
  5
98B
  8
0
  6
CENTER
 62
     4
 10
195.83744045842721
 20
178.4941999712
 30
0.0
 11
200.20931645623571
 21
178.4941999712
 31
0.0
  0
INSERT
  5
991
  8
0
  6
CONTINUOUS
 62
     4
  2
*U6
 10
0.0
 20
0.0
 30
0.0
1001
GRADIENTCOLOR1ACI
1070
     5
1001
GRADIENTCOLOR2ACI
1070
     2
1001
ACAD
1002
{
1000
R14_HATCH_DATA
1000
991
1011
1.0
1021
0.0
1031
0.0
1021
0.0
1031
0.0
1011
0.0
1021
0.0
1031
0.0
1021
1.0
1031
0.0
1011
0.0
1021
0.0
1031
0.0
1021
0.0
1031
1.0
1040
0.0
1010
0.0
1020
0.0
1030
1.0
1000
SOLID
1070
     1
1070
     0
1071
        2
1071
        7
1070
     0
1070
     1
1071
        3
1040
125.37528178640861
1040
195.92878615274361
1040
125.37528178640861
1040
195.50659815176019
1040
126.9509088564249
1040
195.50659815176019
1071
        0
1071
        7
1070
     0
1070
     1
1071
        3
1040
126.9509088564249
1040
195.50659815176019
1040
125.37528178640861
1040
195.50659815176019
1040
125.37528178640861
1040
195.0844101507767
1071
        0
1070
     1
1070
     1
1040
0.00554563051541
1071
        2
1040
125.54446827710861
1040
195.6556090687202
1040
0.0
1040
125.54446827710861
1040
195.32287133695081
1040
0.0
1002
}
  0
LINE
  5
992
  8
0
  6
CENTER
 62
     4
 10
126.9509088564248
 20
195.50659815176019
 30
0.0
 11
122.5790328586163
 21
195.50659815176019
 31
0.0
  0
LINE
  5
994
  8
0
  6
CENTER
 62
     4
 10
195.83744045842721
 20
195.50659815176019
 30
0.0
 11
200.20931645623571
 21
195.50659815176019
 31
0.0
  0
LINE
  5
999
  8
0
  6
CENTER
 62
     4
 10
140.9680419016
 20
180.53883258744739
 30
0.0
 11
140.9680419016
 21
176.44956735495259
 31
0.0
  0
LINE
  5
99A
  8
0
  6
CENTER
 62
     4
 10
177.9139992904291
 20
180.53883258744739
 30
0.0
 11
177.9139992904291
 21
176.44956735495251
 31
0.0
  0
INSERT
  5
99D
  8
0
  2
*U7
 10
0.0
 20
0.0
 30
0.0
  0
INSERT
  5
A07
  8
0
  6
CONTINUOUS
 62
     4
  2
*U8
 10
0.0
 20
0.0
 30
0.0
1001
GRADIENTCOLOR1ACI
1070
     5
1001
GRADIENTCOLOR2ACI
1070
     2
1001
ACAD
1002
{
1000
R14_HATCH_DATA
1000
A07
1011
1.0
1021
0.0
1031
0.0
1021
0.0
1031
0.0
1011
0.0
1021
0.0
1031
0.0
1021
1.0
1031
0.0
1011
0.0
1021
0.0
1031
0.0
1021
0.0
1031
1.0
1040
0.0
1010
0.0
1020
0.0
1030
1.0
1000
SOLID
1070
     1
1070
     0
1071
        2
1071
        7
1070
     0
1070
     1
1071
        3
1040
198.6336893862196
1040
195.92878615274361
1040
198.6336893862196
1040
195.50659815176019
1040
200.2093164562358
1040
195.50659815176019
1071
        0
1071
        7
1070
     0
1070
     1
1071
        3
1040
200.20931645623591
1040
195.50659815176019
1040
198.6336893862196
1040
195.50659815176019
1040
198.6336893862196
1040
195.0844101507767
1071
        0
1070
     1
1070
     1
1040
0.00554563051541
1071
        2
1040
198.80287587691959
1040
195.6556090687202
1040
0.0
1040
198.80287587691959
1040
195.32287133695081
1040
0.0
1002
}
  0
INSERT
  5
A09
  8
0
  6
CONTINUOUS
 62
     4
  2
*U9
 10
0.0
 20
0.0
 30
0.0
1001
GRADIENTCOLOR1ACI
1070
     5
1001
GRADIENTCOLOR2ACI
1070
     2
1001
ACAD
1002
{
1000
R14_HATCH_DATA
1000
A09
1011
1.0
1021
0.0
1031
0.0
1021
0.0
1031
0.0
1011
0.0
1021
0.0
1031
0.0
1021
1.0
1031
0.0
1011
0.0
1021
0.0
1031
0.0
1021
0.0
1031
1.0
1040
0.0
1010
0.0
1020
0.0
1030
1.0
1000
SOLID
1070
     1
1070
     0
1071
        2
1071
        7
1070
     0
1070
     1
1071
        3
1040
198.6747525729798
1040
178.9163879721834
1040
198.6747525729798
1040
178.4941999712
1040
200.25037964299599
1040
178.4941999712
1071
        0
1071
        7
1070
     0
1070
     1
1071
        3
1040
200.25037964299611
1040
178.4941999712
1040
198.6747525729798
1040
178.4941999712
1040
198.6747525729798
1040
178.07201197021649
1071
        0
1070
     1
1070
     1
1040
0.00554563051541
1071
        2
1040
198.84393906367981
1040
178.64321088816001
1040
0.0
1040
198.84393906367981
1040
178.3104731563906
1040
0.0
1002
}
  0
ENDSEC
  0
EOF
