ISO-10303-21;
HEADER;
FILE_DESCRIPTION (( 'STEP AP203' ),
    '1' );
FILE_NAME ('pm-l25.STEP',
    '2015-07-23T04:38:18',
    ( '' ),
    ( '' ),
    'SwSTEP 2.0',
    'SolidWorks 2010',
    '' );
FILE_SCHEMA (( 'CONFIG_CONTROL_DESIGN' ));
ENDSEC;

DATA;
#1 = ORIENTED_EDGE ( 'NONE', *, *, #1213, .T. ) ;
#2 = ORIENTED_EDGE ( 'NONE', *, *, #1140, .F. ) ;
#3 = ORIENTED_EDGE ( 'NONE', *, *, #1250, .F. ) ;
#4 = ORIENTED_EDGE ( 'NONE', *, *, #1176, .F. ) ;
#5 = ORIENTED_EDGE ( 'NONE', *, *, #1224, .F. ) ;
#6 = ORIENTED_EDGE ( 'NONE', *, *, #1239, .T. ) ;
#7 = ORIENTED_EDGE ( 'NONE', *, *, #1253, .T. ) ;
#8 = ORIENTED_EDGE ( 'NONE', *, *, #1162, .F. ) ;
#9 = ORIENTED_EDGE ( 'NONE', *, *, #1225, .T. ) ;
#10 = ORIENTED_EDGE ( 'NONE', *, *, #1255, .F. ) ;
#11 = ORIENTED_EDGE ( 'NONE', *, *, #1160, .T. ) ;
#12 = CLOSED_SHELL ( 'NONE', ( #1282, #1284, #1285, #1292, #1289, #1288, #1287, #1277, #1279, #1275, #1273, #1271, #1270, #1272, #1274, #1278, #1280, #1276, #1269, #1402, #1290, #1291, #1403, #1266, #1265, #1267, #1399, #1281, #1408, #1286, #1268, #214, #177, #174, #212, #1409, #1404, #1406, #1407, #1400, #1283, #1401, #1405 ) ) ;
#13 = ORIENTED_EDGE ( 'NONE', *, *, #1207, .F. ) ;
#14 = ORIENTED_EDGE ( 'NONE', *, *, #1164, .T. ) ;
#15 = ORIENTED_EDGE ( 'NONE', *, *, #1221, .F. ) ;
#16 = ORIENTED_EDGE ( 'NONE', *, *, #1189, .F. ) ;
#17 = ORIENTED_EDGE ( 'NONE', *, *, #1171, .T. ) ;
#18 = ORIENTED_EDGE ( 'NONE', *, *, #1143, .F. ) ;
#19 = ORIENTED_EDGE ( 'NONE', *, *, #1235, .F. ) ;
#20 = ORIENTED_EDGE ( 'NONE', *, *, #1179, .T. ) ;
#21 = ORIENTED_EDGE ( 'NONE', *, *, #1233, .T. ) ;
#22 = ORIENTED_EDGE ( 'NONE', *, *, #1248, .T. ) ;
#23 = ORIENTED_EDGE ( 'NONE', *, *, #1163, .T. ) ;
#24 = ORIENTED_EDGE ( 'NONE', *, *, #1257, .T. ) ;
#25 = ORIENTED_EDGE ( 'NONE', *, *, #1136, .F. ) ;
#26 = ORIENTED_EDGE ( 'NONE', *, *, #1139, .F. ) ;
#27 = ORIENTED_EDGE ( 'NONE', *, *, #1237, .T. ) ;
#28 = ORIENTED_EDGE ( 'NONE', *, *, #1139, .T. ) ;
#29 = ORIENTED_EDGE ( 'NONE', *, *, #1137, .T. ) ;
#30 = ORIENTED_EDGE ( 'NONE', *, *, #1182, .F. ) ;
#31 = ORIENTED_EDGE ( 'NONE', *, *, #1220, .T. ) ;
#32 = ORIENTED_EDGE ( 'NONE', *, *, #1169, .T. ) ;
#33 = ORIENTED_EDGE ( 'NONE', *, *, #1196, .T. ) ;
#34 = ORIENTED_EDGE ( 'NONE', *, *, #1192, .T. ) ;
#35 = ORIENTED_EDGE ( 'NONE', *, *, #1160, .F. ) ;
#36 = ORIENTED_EDGE ( 'NONE', *, *, #1142, .T. ) ;
#37 = ORIENTED_EDGE ( 'NONE', *, *, #1214, .T. ) ;
#38 = ORIENTED_EDGE ( 'NONE', *, *, #1243, .T. ) ;
#39 = ORIENTED_EDGE ( 'NONE', *, *, #1196, .F. ) ;
#40 = ORIENTED_EDGE ( 'NONE', *, *, #1209, .T. ) ;
#41 = VECTOR ( 'NONE', #1331, 1000.000000000000000 ) ;
#42 = VECTOR ( 'NONE', #1339, 1000.000000000000000 ) ;
#43 = ORIENTED_EDGE ( 'NONE', *, *, #1216, .T. ) ;
#44 = ORIENTED_EDGE ( 'NONE', *, *, #1224, .T. ) ;
#45 = ORIENTED_EDGE ( 'NONE', *, *, #1210, .T. ) ;
#46 = ORIENTED_EDGE ( 'NONE', *, *, #1136, .T. ) ;
#47 = ORIENTED_EDGE ( 'NONE', *, *, #1259, .F. ) ;
#48 = ORIENTED_EDGE ( 'NONE', *, *, #1193, .T. ) ;
#49 = ORIENTED_EDGE ( 'NONE', *, *, #1192, .F. ) ;
#50 = ORIENTED_EDGE ( 'NONE', *, *, #1230, .T. ) ;
#51 = ORIENTED_EDGE ( 'NONE', *, *, #1259, .T. ) ;
#52 = ORIENTED_EDGE ( 'NONE', *, *, #1142, .F. ) ;
#53 = ORIENTED_EDGE ( 'NONE', *, *, #1145, .F. ) ;
#54 = ORIENTED_EDGE ( 'NONE', *, *, #1144, .T. ) ;
#55 = ORIENTED_EDGE ( 'NONE', *, *, #1199, .T. ) ;
#56 = ORIENTED_EDGE ( 'NONE', *, *, #1207, .T. ) ;
#57 = ORIENTED_EDGE ( 'NONE', *, *, #1172, .F. ) ;
#58 = LINE ( 'NONE', #1340, #42 ) ;
#59 = ORIENTED_EDGE ( 'NONE', *, *, #1262, .T. ) ;
#60 = ORIENTED_EDGE ( 'NONE', *, *, #1219, .F. ) ;
#61 = VECTOR ( 'NONE', #1344, 1000.000000000000000 ) ;
#62 = ORIENTED_EDGE ( 'NONE', *, *, #1187, .T. ) ;
#63 = ORIENTED_EDGE ( 'NONE', *, *, #1221, .T. ) ;
#64 = ORIENTED_EDGE ( 'NONE', *, *, #1204, .F. ) ;
#65 = ORIENTED_EDGE ( 'NONE', *, *, #1195, .F. ) ;
#66 = LINE ( 'NONE', #1346, #61 ) ;
#67 = ORIENTED_EDGE ( 'NONE', *, *, #1256, .F. ) ;
#68 = LINE ( 'NONE', #1327, #300 ) ;
#69 = ORIENTED_EDGE ( 'NONE', *, *, #1197, .F. ) ;
#70 = VECTOR ( 'NONE', #1348, 1000.000000000000000 ) ;
#71 = LINE ( 'NONE', #1353, #70 ) ;
#72 = VECTOR ( 'NONE', #1360, 1000.000000000000000 ) ;
#73 = LINE ( 'NONE', #1361, #72 ) ;
#74 = ORIENTED_EDGE ( 'NONE', *, *, #1233, .F. ) ;
#75 = LINE ( 'NONE', #1359, #561 ) ;
#76 = VECTOR ( 'NONE', #1362, 1000.000000000000100 ) ;
#77 = ORIENTED_EDGE ( 'NONE', *, *, #1173, .F. ) ;
#78 = ORIENTED_EDGE ( 'NONE', *, *, #1248, .F. ) ;
#79 = VECTOR ( 'NONE', #746, 1000.000000000000000 ) ;
#80 = VECTOR ( 'NONE', #1368, 1000.000000000000000 ) ;
#81 = LINE ( 'NONE', #1373, #80 ) ;
#82 = VECTOR ( 'NONE', #1378, 1000.000000000000000 ) ;
#83 = LINE ( 'NONE', #1379, #82 ) ;
#84 = LINE ( 'NONE', #1370, #553 ) ;
#85 = VECTOR ( 'NONE', #1381, 1000.000000000000000 ) ;
#86 = CIRCLE ( 'NONE', #1185, 1.599999999999999900 ) ;
#87 = ORIENTED_EDGE ( 'NONE', *, *, #1184, .F. ) ;
#88 = ORIENTED_EDGE ( 'NONE', *, *, #1239, .F. ) ;
#89 = ORIENTED_EDGE ( 'NONE', *, *, #1218, .T. ) ;
#90 = ORIENTED_EDGE ( 'NONE', *, *, #1199, .F. ) ;
#91 = ORIENTED_EDGE ( 'NONE', *, *, #1190, .T. ) ;
#92 = LINE ( 'NONE', #595, #85 ) ;
#93 = ORIENTED_EDGE ( 'NONE', *, *, #1229, .F. ) ;
#94 = ORIENTED_EDGE ( 'NONE', *, *, #1234, .T. ) ;
#95 = CIRCLE ( 'NONE', #1166, 1.249999999999999800 ) ;
#96 = ORIENTED_EDGE ( 'NONE', *, *, #1168, .T. ) ;
#97 = ORIENTED_EDGE ( 'NONE', *, *, #1253, .F. ) ;
#98 = ORIENTED_EDGE ( 'NONE', *, *, #1174, .F. ) ;
#99 = ORIENTED_EDGE ( 'NONE', *, *, #1230, .F. ) ;
#100 = VECTOR ( 'NONE', #1384, 1000.000000000000000 ) ;
#101 = ORIENTED_EDGE ( 'NONE', *, *, #1170, .T. ) ;
#102 = ORIENTED_EDGE ( 'NONE', *, *, #1176, .T. ) ;
#103 = ORIENTED_EDGE ( 'NONE', *, *, #1137, .F. ) ;
#104 = ORIENTED_EDGE ( 'NONE', *, *, #1171, .F. ) ;
#105 = ORIENTED_EDGE ( 'NONE', *, *, #1174, .T. ) ;
#106 = CIRCLE ( 'NONE', #1236, 1.599999999999999400 ) ;
#107 = ORIENTED_EDGE ( 'NONE', *, *, #1213, .F. ) ;
#108 = ORIENTED_EDGE ( 'NONE', *, *, #1235, .T. ) ;
#109 = LINE ( 'NONE', #1366, #41 ) ;
#110 = LINE ( 'NONE', #1385, #100 ) ;
#111 = VECTOR ( 'NONE', #600, 1000.000000000000000 ) ;
#112 = LINE ( 'NONE', #602, #111 ) ;
#113 = VECTOR ( 'NONE', #606, 1000.000000000000000 ) ;
#114 = VECTOR ( 'NONE', #607, 1000.000000000000000 ) ;
#115 = LINE ( 'NONE', #608, #114 ) ;
#116 = VECTOR ( 'NONE', #610, 1000.000000000000000 ) ;
#117 = LINE ( 'NONE', #611, #116 ) ;
#118 = VECTOR ( 'NONE', #612, 1000.000000000000000 ) ;
#119 = LINE ( 'NONE', #614, #118 ) ;
#120 = VECTOR ( 'NONE', #616, 1000.000000000000000 ) ;
#121 = LINE ( 'NONE', #617, #120 ) ;
#122 = CIRCLE ( 'NONE', #1208, 1.249999999999999800 ) ;
#123 = LINE ( 'NONE', #629, #128 ) ;
#124 = VECTOR ( 'NONE', #622, 1000.000000000000000 ) ;
#125 = LINE ( 'NONE', #623, #124 ) ;
#126 = LINE ( 'NONE', #619, #113 ) ;
#127 = VECTOR ( 'NONE', #625, 1000.000000000000000 ) ;
#128 = VECTOR ( 'NONE', #618, 1000.000000000000000 ) ;
#129 = VECTOR ( 'NONE', #628, 1000.000000000000000 ) ;
#130 = VECTOR ( 'NONE', #631, 1000.000000000000000 ) ;
#131 = LINE ( 'NONE', #632, #130 ) ;
#132 = VECTOR ( 'NONE', #633, 1000.000000000000000 ) ;
#133 = LINE ( 'NONE', #634, #132 ) ;
#134 = VECTOR ( 'NONE', #635, 1000.000000000000000 ) ;
#135 = LINE ( 'NONE', #636, #134 ) ;
#136 = VECTOR ( 'NONE', #637, 1000.000000000000000 ) ;
#137 = LINE ( 'NONE', #638, #136 ) ;
#138 = LINE ( 'NONE', #1383, #76 ) ;
#139 = VECTOR ( 'NONE', #639, 1000.000000000000000 ) ;
#140 = VECTOR ( 'NONE', #641, 1000.000000000000000 ) ;
#141 = LINE ( 'NONE', #642, #140 ) ;
#142 = VECTOR ( 'NONE', #643, 1000.000000000000000 ) ;
#143 = LINE ( 'NONE', #644, #142 ) ;
#144 = LINE ( 'NONE', #630, #127 ) ;
#145 = VECTOR ( 'NONE', #646, 1000.000000000000000 ) ;
#146 = VECTOR ( 'NONE', #649, 1000.000000000000000 ) ;
#147 = LINE ( 'NONE', #650, #146 ) ;
#148 = LINE ( 'NONE', #640, #129 ) ;
#149 = VECTOR ( 'NONE', #651, 1000.000000000000000 ) ;
#150 = CIRCLE ( 'NONE', #1157, 1.599999999999998100 ) ;
#151 = LINE ( 'NONE', #673, #149 ) ;
#152 = LINE ( 'NONE', #648, #139 ) ;
#153 = VECTOR ( 'NONE', #663, 1000.000000000000000 ) ;
#154 = LINE ( 'NONE', #668, #153 ) ;
#155 = LINE ( 'NONE', #652, #145 ) ;
#156 = VECTOR ( 'NONE', #669, 1000.000000000000000 ) ;
#157 = LINE ( 'NONE', #655, #162 ) ;
#158 = VECTOR ( 'NONE', #672, 1000.000000000000000 ) ;
#159 = CIRCLE ( 'NONE', #1223, 1.599999999999999000 ) ;
#160 = LINE ( 'NONE', #684, #158 ) ;
#161 = LINE ( 'NONE', #675, #156 ) ;
#162 = VECTOR ( 'NONE', #653, 1000.000000000000000 ) ;
#163 = CIRCLE ( 'NONE', #1227, 1.600000000000000800 ) ;
#164 = LINE ( 'NONE', #693, #168 ) ;
#165 = VECTOR ( 'NONE', #676, 1000.000000000000000 ) ;
#166 = VECTOR ( 'NONE', #691, 1000.000000000000000 ) ;
#167 = LINE ( 'NONE', #692, #166 ) ;
#168 = VECTOR ( 'NONE', #681, 1000.000000000000000 ) ;
#169 = VECTOR ( 'NONE', #694, 1000.000000000000000 ) ;
#170 = LINE ( 'NONE', #677, #165 ) ;
#171 = VECTOR ( 'NONE', #695, 1000.000000000000000 ) ;
#172 = VECTOR ( 'NONE', #697, 1000.000000000000000 ) ;
#174 = ADVANCED_FACE ( 'NONE', ( #227 ), #229, .F. ) ;
#173 = LINE ( 'NONE', #696, #169 ) ;
#175 = VECTOR ( 'NONE', #699, 1000.000000000000000 ) ;
#176 = LINE ( 'NONE', #698, #171 ) ;
#177 = ADVANCED_FACE ( 'NONE', ( #228 ), #860, .F. ) ;
#178 = VECTOR ( 'NONE', #701, 1000.000000000000000 ) ;
#179 = LINE ( 'NONE', #700, #172 ) ;
#180 = VECTOR ( 'NONE', #703, 1000.000000000000000 ) ;
#181 = CIRCLE ( 'NONE', #1161, 1.249999999999999800 ) ;
#182 = LINE ( 'NONE', #711, #185 ) ;
#183 = LINE ( 'NONE', #706, #180 ) ;
#184 = LINE ( 'NONE', #704, #178 ) ;
#185 = VECTOR ( 'NONE', #705, 1000.000000000000100 ) ;
#186 = VECTOR ( 'NONE', #710, 1000.000000000000000 ) ;
#187 = LINE ( 'NONE', #702, #175 ) ;
#188 = VECTOR ( 'NONE', #712, 1000.000000000000000 ) ;
#189 = VECTOR ( 'NONE', #714, 1000.000000000000000 ) ;
#190 = LINE ( 'NONE', #713, #186 ) ;
#191 = VECTOR ( 'NONE', #716, 1000.000000000000000 ) ;
#192 = LINE ( 'NONE', #715, #188 ) ;
#193 = VECTOR ( 'NONE', #718, 1000.000000000000000 ) ;
#194 = LINE ( 'NONE', #717, #189 ) ;
#195 = VECTOR ( 'NONE', #720, 1000.000000000000000 ) ;
#196 = VECTOR ( 'NONE', #722, 1000.000000000000000 ) ;
#197 = LINE ( 'NONE', #723, #196 ) ;
#198 = LINE ( 'NONE', #719, #191 ) ;
#199 = VECTOR ( 'NONE', #724, 1000.000000000000000 ) ;
#200 = VECTOR ( 'NONE', #726, 1000.000000000000000 ) ;
#201 = LINE ( 'NONE', #727, #200 ) ;
#202 = LINE ( 'NONE', #721, #193 ) ;
#203 = VECTOR ( 'NONE', #728, 1000.000000000000000 ) ;
#204 = VECTOR ( 'NONE', #730, 1000.000000000000000 ) ;
#205 = LINE ( 'NONE', #731, #204 ) ;
#206 = LINE ( 'NONE', #725, #195 ) ;
#207 = VECTOR ( 'NONE', #732, 1000.000000000000000 ) ;
#208 = LINE ( 'NONE', #729, #199 ) ;
#209 = VECTOR ( 'NONE', #734, 1000.000000000000000 ) ;
#210 = LINE ( 'NONE', #733, #203 ) ;
#211 = VECTOR ( 'NONE', #736, 1000.000000000000000 ) ;
#212 = ADVANCED_FACE ( 'NONE', ( #303 ), #858, .F. ) ;
#213 = VECTOR ( 'NONE', #738, 1000.000000000000000 ) ;
#214 = ADVANCED_FACE ( 'NONE', ( #230 ), #223, .F. ) ;
#215 = LINE ( 'NONE', #739, #213 ) ;
#216 = LINE ( 'NONE', #735, #207 ) ;
#217 = VECTOR ( 'NONE', #740, 1000.000000000000000 ) ;
#218 = LINE ( 'NONE', #737, #209 ) ;
#219 = VECTOR ( 'NONE', #742, 1000.000000000000000 ) ;
#220 = LINE ( 'NONE', #741, #211 ) ;
#221 = LINE ( 'NONE', #748, #219 ) ;
#222 = LINE ( 'NONE', #743, #217 ) ;
#223 = CYLINDRICAL_SURFACE ( 'NONE', #1194, 1.600000000000000800 ) ;
#224 = VECTOR ( 'NONE', #744, 1000.000000000000000 ) ;
#225 = LINE ( 'NONE', #747, #79 ) ;
#226 = LINE ( 'NONE', #745, #224 ) ;
#227 = FACE_OUTER_BOUND ( 'NONE', #361, .T. ) ;
#228 = FACE_OUTER_BOUND ( 'NONE', #362, .T. ) ;
#229 = CYLINDRICAL_SURFACE ( 'NONE', #1215, 1.599999999999999000 ) ;
#230 = FACE_OUTER_BOUND ( 'NONE', #378, .T. ) ;
#231 = ORIENTED_EDGE ( 'NONE', *, *, #1243, .F. ) ;
#232 = ORIENTED_EDGE ( 'NONE', *, *, #1158, .T. ) ;
#233 = ORIENTED_EDGE ( 'NONE', *, *, #1205, .T. ) ;
#234 = ORIENTED_EDGE ( 'NONE', *, *, #1158, .F. ) ;
#235 = ORIENTED_EDGE ( 'NONE', *, *, #1244, .F. ) ;
#236 = ORIENTED_EDGE ( 'NONE', *, *, #1151, .T. ) ;
#237 = ORIENTED_EDGE ( 'NONE', *, *, #1242, .F. ) ;
#238 = ORIENTED_EDGE ( 'NONE', *, *, #1155, .F. ) ;
#239 = ORIENTED_EDGE ( 'NONE', *, *, #1245, .T. ) ;
#240 = ORIENTED_EDGE ( 'NONE', *, *, #1217, .T. ) ;
#241 = ORIENTED_EDGE ( 'NONE', *, *, #1155, .T. ) ;
#242 = ORIENTED_EDGE ( 'NONE', *, *, #1202, .T. ) ;
#243 = ORIENTED_EDGE ( 'NONE', *, *, #1156, .F. ) ;
#244 = ORIENTED_EDGE ( 'NONE', *, *, #1220, .F. ) ;
#245 = ORIENTED_EDGE ( 'NONE', *, *, #1218, .F. ) ;
#246 = ORIENTED_EDGE ( 'NONE', *, *, #1141, .F. ) ;
#247 = ORIENTED_EDGE ( 'NONE', *, *, #1209, .F. ) ;
#248 = ORIENTED_EDGE ( 'NONE', *, *, #1169, .F. ) ;
#249 = ORIENTED_EDGE ( 'NONE', *, *, #1241, .F. ) ;
#250 = ORIENTED_EDGE ( 'NONE', *, *, #1149, .F. ) ;
#251 = ORIENTED_EDGE ( 'NONE', *, *, #1179, .F. ) ;
#252 = ORIENTED_EDGE ( 'NONE', *, *, #1241, .T. ) ;
#253 = ORIENTED_EDGE ( 'NONE', *, *, #1186, .F. ) ;
#254 = ORIENTED_EDGE ( 'NONE', *, *, #1211, .T. ) ;
#255 = ORIENTED_EDGE ( 'NONE', *, *, #1254, .F. ) ;
#256 = ORIENTED_EDGE ( 'NONE', *, *, #1156, .T. ) ;
#257 = ORIENTED_EDGE ( 'NONE', *, *, #1182, .T. ) ;
#258 = ORIENTED_EDGE ( 'NONE', *, *, #1178, .F. ) ;
#259 = ORIENTED_EDGE ( 'NONE', *, *, #1261, .T. ) ;
#260 = ORIENTED_EDGE ( 'NONE', *, *, #1210, .F. ) ;
#261 = ORIENTED_EDGE ( 'NONE', *, *, #1163, .F. ) ;
#262 = ORIENTED_EDGE ( 'NONE', *, *, #1177, .T. ) ;
#263 = ORIENTED_EDGE ( 'NONE', *, *, #1172, .T. ) ;
#264 = ORIENTED_EDGE ( 'NONE', *, *, #1184, .T. ) ;
#265 = ORIENTED_EDGE ( 'NONE', *, *, #1232, .F. ) ;
#266 = ORIENTED_EDGE ( 'NONE', *, *, #1191, .F. ) ;
#267 = ORIENTED_EDGE ( 'NONE', *, *, #1217, .F. ) ;
#268 = ORIENTED_EDGE ( 'NONE', *, *, #1198, .T. ) ;
#269 = ORIENTED_EDGE ( 'NONE', *, *, #1234, .F. ) ;
#270 = ORIENTED_EDGE ( 'NONE', *, *, #1188, .F. ) ;
#271 = ORIENTED_EDGE ( 'NONE', *, *, #1202, .F. ) ;
#272 = ORIENTED_EDGE ( 'NONE', *, *, #1191, .T. ) ;
#273 = ORIENTED_EDGE ( 'NONE', *, *, #1245, .F. ) ;
#274 = ORIENTED_EDGE ( 'NONE', *, *, #1242, .T. ) ;
#275 = ORIENTED_EDGE ( 'NONE', *, *, #1167, .T. ) ;
#276 = ORIENTED_EDGE ( 'NONE', *, *, #1240, .F. ) ;
#277 = ORIENTED_EDGE ( 'NONE', *, *, #1264, .F. ) ;
#278 = ORIENTED_EDGE ( 'NONE', *, *, #1212, .F. ) ;
#279 = ORIENTED_EDGE ( 'NONE', *, *, #1247, .T. ) ;
#280 = ORIENTED_EDGE ( 'NONE', *, *, #1187, .F. ) ;
#281 = ORIENTED_EDGE ( 'NONE', *, *, #1178, .T. ) ;
#282 = ORIENTED_EDGE ( 'NONE', *, *, #1263, .F. ) ;
#283 = ORIENTED_EDGE ( 'NONE', *, *, #1231, .F. ) ;
#284 = ORIENTED_EDGE ( 'NONE', *, *, #1164, .F. ) ;
#285 = ORIENTED_EDGE ( 'NONE', *, *, #1183, .T. ) ;
#286 = ORIENTED_EDGE ( 'NONE', *, *, #1255, .T. ) ;
#287 = ORIENTED_EDGE ( 'NONE', *, *, #1225, .F. ) ;
#288 = ORIENTED_EDGE ( 'NONE', *, *, #1240, .T. ) ;
#289 = ORIENTED_EDGE ( 'NONE', *, *, #1181, .T. ) ;
#290 = ORIENTED_EDGE ( 'NONE', *, *, #1200, .T. ) ;
#291 = ORIENTED_EDGE ( 'NONE', *, *, #1244, .T. ) ;
#292 = EDGE_LOOP ( 'NONE', ( #87, #37, #94, #91, #64, #62, #44, #107 ) ) ;
#293 = EDGE_LOOP ( 'NONE', ( #285, #276, #284, #281 ) ) ;
#294 = EDGE_LOOP ( 'NONE', ( #261, #283, #282, #260 ) ) ;
#295 = EDGE_LOOP ( 'NONE', ( #267, #266 ) ) ;
#296 = EDGE_LOOP ( 'NONE', ( #275, #270, #269, #268 ) ) ;
#297 = EDGE_LOOP ( 'NONE', ( #271, #274, #272, #273 ) ) ;
#298 = EDGE_LOOP ( 'NONE', ( #63, #99, #97, #60, #57, #1 ) ) ;
#299 = EDGE_LOOP ( 'NONE', ( #259, #258, #251, #253, #254, #252, #257, #256, #255, #277 ) ) ;
#300 = VECTOR ( 'NONE', #1326, 1000.000000000000000 ) ;
#301 = EDGE_LOOP ( 'NONE', ( #265, #264, #263, #262 ) ) ;
#302 = EDGE_LOOP ( 'NONE', ( #286, #280, #278, #279, #287, #288 ) ) ;
#303 = FACE_OUTER_BOUND ( 'NONE', #367, .T. ) ;
#304 = ORIENTED_EDGE ( 'NONE', *, *, #1190, .F. ) ;
#305 = ORIENTED_EDGE ( 'NONE', *, *, #1188, .T. ) ;
#306 = ORIENTED_EDGE ( 'NONE', *, *, #1203, .T. ) ;
#307 = ORIENTED_EDGE ( 'NONE', *, *, #1150, .F. ) ;
#308 = ORIENTED_EDGE ( 'NONE', *, *, #1168, .F. ) ;
#309 = ORIENTED_EDGE ( 'NONE', *, *, #1148, .T. ) ;
#310 = ORIENTED_EDGE ( 'NONE', *, *, #1238, .T. ) ;
#311 = ORIENTED_EDGE ( 'NONE', *, *, #1148, .F. ) ;
#312 = ORIENTED_EDGE ( 'NONE', *, *, #1262, .F. ) ;
#313 = ORIENTED_EDGE ( 'NONE', *, *, #1153, .T. ) ;
#314 = ORIENTED_EDGE ( 'NONE', *, *, #1175, .T. ) ;
#315 = ORIENTED_EDGE ( 'NONE', *, *, #1153, .F. ) ;
#316 = ORIENTED_EDGE ( 'NONE', *, *, #1170, .F. ) ;
#317 = ORIENTED_EDGE ( 'NONE', *, *, #1154, .T. ) ;
#318 = ORIENTED_EDGE ( 'NONE', *, *, #1249, .T. ) ;
#319 = ORIENTED_EDGE ( 'NONE', *, *, #1154, .F. ) ;
#320 = ORIENTED_EDGE ( 'NONE', *, *, #1216, .F. ) ;
#321 = ORIENTED_EDGE ( 'NONE', *, *, #1150, .T. ) ;
#322 = ORIENTED_EDGE ( 'NONE', *, *, #1222, .T. ) ;
#323 = ORIENTED_EDGE ( 'NONE', *, *, #1151, .F. ) ;
#324 = ORIENTED_EDGE ( 'NONE', *, *, #1200, .F. ) ;
#325 = ORIENTED_EDGE ( 'NONE', *, *, #1152, .T. ) ;
#326 = ORIENTED_EDGE ( 'NONE', *, *, #1180, .T. ) ;
#327 = ORIENTED_EDGE ( 'NONE', *, *, #1152, .F. ) ;
#328 = ORIENTED_EDGE ( 'NONE', *, *, #1181, .F. ) ;
#329 = ORIENTED_EDGE ( 'NONE', *, *, #1159, .T. ) ;
#330 = ORIENTED_EDGE ( 'NONE', *, *, #1252, .T. ) ;
#331 = ORIENTED_EDGE ( 'NONE', *, *, #1159, .F. ) ;
#332 = ORIENTED_EDGE ( 'NONE', *, *, #1144, .F. ) ;
#333 = ORIENTED_EDGE ( 'NONE', *, *, #1147, .F. ) ;
#334 = ORIENTED_EDGE ( 'NONE', *, *, #1250, .T. ) ;
#335 = ORIENTED_EDGE ( 'NONE', *, *, #1140, .T. ) ;
#336 = ORIENTED_EDGE ( 'NONE', *, *, #1147, .T. ) ;
#337 = ORIENTED_EDGE ( 'NONE', *, *, #1145, .T. ) ;
#338 = ORIENTED_EDGE ( 'NONE', *, *, #1143, .T. ) ;
#339 = ORIENTED_EDGE ( 'NONE', *, *, #1254, .T. ) ;
#340 = ORIENTED_EDGE ( 'NONE', *, *, #1141, .T. ) ;
#341 = ORIENTED_EDGE ( 'NONE', *, *, #1193, .F. ) ;
#342 = ORIENTED_EDGE ( 'NONE', *, *, #1138, .F. ) ;
#343 = ORIENTED_EDGE ( 'NONE', *, *, #1229, .T. ) ;
#344 = ORIENTED_EDGE ( 'NONE', *, *, #1189, .T. ) ;
#345 = ORIENTED_EDGE ( 'NONE', *, *, #1264, .T. ) ;
#346 = ORIENTED_EDGE ( 'NONE', *, *, #1138, .T. ) ;
#347 = ORIENTED_EDGE ( 'NONE', *, *, #1173, .T. ) ;
#348 = ORIENTED_EDGE ( 'NONE', *, *, #1149, .T. ) ;
#349 = ORIENTED_EDGE ( 'NONE', *, *, #1211, .F. ) ;
#350 = ORIENTED_EDGE ( 'NONE', *, *, #1146, .F. ) ;
#351 = ORIENTED_EDGE ( 'NONE', *, *, #1256, .T. ) ;
#352 = ORIENTED_EDGE ( 'NONE', *, *, #1146, .T. ) ;
#353 = ORIENTED_EDGE ( 'NONE', *, *, #1186, .T. ) ;
#354 = ORIENTED_EDGE ( 'NONE', *, *, #1195, .T. ) ;
#355 = ORIENTED_EDGE ( 'NONE', *, *, #1260, .T. ) ;
#356 = ORIENTED_EDGE ( 'NONE', *, *, #1198, .F. ) ;
#357 = ORIENTED_EDGE ( 'NONE', *, *, #1214, .F. ) ;
#358 = ORIENTED_EDGE ( 'NONE', *, *, #1232, .T. ) ;
#359 = ORIENTED_EDGE ( 'NONE', *, *, #1258, .T. ) ;
#360 = ORIENTED_EDGE ( 'NONE', *, *, #1206, .F. ) ;
#361 = EDGE_LOOP ( 'NONE', ( #314, #315, #316, #317 ) ) ;
#362 = EDGE_LOOP ( 'NONE', ( #310, #311, #312, #313 ) ) ;
#363 = EDGE_LOOP ( 'NONE', ( #326, #327, #328, #329 ) ) ;
#364 = EDGE_LOOP ( 'NONE', ( #11, #65, #20, #14, #9, #8, #7, #6 ) ) ;
#365 = EDGE_LOOP ( 'NONE', ( #241, #242 ) ) ;
#366 = EDGE_LOOP ( 'NONE', ( #330, #331, #231, #232 ) ) ;
#367 = EDGE_LOOP ( 'NONE', ( #318, #319, #320, #321 ) ) ;
#368 = EDGE_LOOP ( 'NONE', ( #247, #248, #249, #250 ) ) ;
#369 = EDGE_LOOP ( 'NONE', ( #243, #244, #245, #246 ) ) ;
#370 = EDGE_LOOP ( 'NONE', ( #237, #238, #239, #240 ) ) ;
#371 = EDGE_LOOP ( 'NONE', ( #289, #290, #291, #38 ) ) ;
#372 = EDGE_LOOP ( 'NONE', ( #233, #234, #235, #236 ) ) ;
#373 = EDGE_LOOP ( 'NONE', ( #322, #323, #324, #325 ) ) ;
#374 = EDGE_LOOP ( 'NONE', ( #351, #352, #353, #354 ) ) ;
#375 = EDGE_LOOP ( 'NONE', ( #355, #356, #357, #358 ) ) ;
#376 = EDGE_LOOP ( 'NONE', ( #343, #344, #345, #346 ) ) ;
#377 = EDGE_LOOP ( 'NONE', ( #335, #336, #337, #338 ) ) ;
#378 = EDGE_LOOP ( 'NONE', ( #306, #307, #308, #309 ) ) ;
#379 = EDGE_LOOP ( 'NONE', ( #347, #348, #349, #350 ) ) ;
#380 = EDGE_LOOP ( 'NONE', ( #339, #340, #341, #342 ) ) ;
#381 = EDGE_LOOP ( 'NONE', ( #55, #332, #333, #334 ) ) ;
#382 = EDGE_LOOP ( 'NONE', ( #27, #28, #29, #22 ) ) ;
#383 = EDGE_LOOP ( 'NONE', ( #51, #52, #53, #54 ) ) ;
#384 = EDGE_LOOP ( 'NONE', ( #359, #360, #304, #305 ) ) ;
#385 = EDGE_LOOP ( 'NONE', ( #21, #3, #2, #17 ) ) ;
#386 = EDGE_LOOP ( 'NONE', ( #23, #25, #26, #24 ) ) ;
#387 = EDGE_LOOP ( 'NONE', ( #419, #420, #424, #423 ) ) ;
#388 = EDGE_LOOP ( 'NONE', ( #411, #412, #413, #414, #415, #416, #418, #425 ) ) ;
#389 = EDGE_LOOP ( 'NONE', ( #407, #408, #409, #410 ) ) ;
#390 = EDGE_LOOP ( 'NONE', ( #45, #19, #103, #46 ) ) ;
#391 = EDGE_LOOP ( 'NONE', ( #427, #417, #421, #426 ) ) ;
#392 = EDGE_LOOP ( 'NONE', ( #422, #69, #78, #108 ) ) ;
#393 = EDGE_LOOP ( 'NONE', ( #16, #4, #13, #15, #5, #10, #401, #402 ) ) ;
#394 = EDGE_LOOP ( 'NONE', ( #102, #93, #48, #89, #39, #40, #77, #67, #35, #34 ) ) ;
#395 = EDGE_LOOP ( 'NONE', ( #105, #104, #18, #36 ) ) ;
#396 = EDGE_LOOP ( 'NONE', ( #90, #74, #98, #47 ) ) ;
#397 = EDGE_LOOP ( 'NONE', ( #56, #49, #88, #50 ) ) ;
#398 = EDGE_LOOP ( 'NONE', ( #33, #31, #30, #32 ) ) ;
#399 = EDGE_LOOP ( 'NONE', ( #403, #404, #405, #406 ) ) ;
#400 = EDGE_LOOP ( 'NONE', ( #59, #96, #43, #101 ) ) ;
#401 = ORIENTED_EDGE ( 'NONE', *, *, #1183, .F. ) ;
#402 = ORIENTED_EDGE ( 'NONE', *, *, #1261, .F. ) ;
#403 = ORIENTED_EDGE ( 'NONE', *, *, #1205, .F. ) ;
#404 = ORIENTED_EDGE ( 'NONE', *, *, #1222, .F. ) ;
#405 = ORIENTED_EDGE ( 'NONE', *, *, #1180, .F. ) ;
#406 = ORIENTED_EDGE ( 'NONE', *, *, #1252, .F. ) ;
#407 = ORIENTED_EDGE ( 'NONE', *, *, #1249, .F. ) ;
#408 = ORIENTED_EDGE ( 'NONE', *, *, #1203, .F. ) ;
#409 = ORIENTED_EDGE ( 'NONE', *, *, #1238, .F. ) ;
#410 = ORIENTED_EDGE ( 'NONE', *, *, #1175, .F. ) ;
#411 = ORIENTED_EDGE ( 'NONE', *, *, #1167, .F. ) ;
#412 = ORIENTED_EDGE ( 'NONE', *, *, #1260, .F. ) ;
#413 = ORIENTED_EDGE ( 'NONE', *, *, #1177, .F. ) ;
#414 = ORIENTED_EDGE ( 'NONE', *, *, #1219, .T. ) ;
#415 = ORIENTED_EDGE ( 'NONE', *, *, #1162, .T. ) ;
#416 = ORIENTED_EDGE ( 'NONE', *, *, #1247, .F. ) ;
#417 = ORIENTED_EDGE ( 'NONE', *, *, #1246, .T. ) ;
#418 = ORIENTED_EDGE ( 'NONE', *, *, #1246, .F. ) ;
#419 = ORIENTED_EDGE ( 'NONE', *, *, #1231, .T. ) ;
#420 = ORIENTED_EDGE ( 'NONE', *, *, #1257, .F. ) ;
#421 = ORIENTED_EDGE ( 'NONE', *, *, #1212, .T. ) ;
#422 = ORIENTED_EDGE ( 'NONE', *, *, #1263, .T. ) ;
#423 = ORIENTED_EDGE ( 'NONE', *, *, #1197, .T. ) ;
#424 = ORIENTED_EDGE ( 'NONE', *, *, #1237, .F. ) ;
#425 = ORIENTED_EDGE ( 'NONE', *, *, #1258, .F. ) ;
#426 = ORIENTED_EDGE ( 'NONE', *, *, #1204, .T. ) ;
#427 = ORIENTED_EDGE ( 'NONE', *, *, #1206, .T. ) ;
#428 = PRODUCT ( 'pm-l25', 'pm-l25', '', ( #916 ) ) ;
#429 = PERSON ( 'UNSPECIFIED', 'UNSPECIFIED', 'UNSPECIFIED', ('UNSPECIFIED'), ('UNSPECIFIED'), ('UNSPECIFIED') ) ;
#430 = CALENDAR_DATE ( 2015, 23, 7 ) ;
#431 = PERSON_AND_ORGANIZATION ( #429, #466 ) ;
#432 = LINE ( 'NONE', #1295, #593 ) ;
#433 = CIRCLE ( 'NONE', #1228, 1.249999999999999800 ) ;
#434 = APPROVAL_DATE_TIME ( #437, #979 ) ;
#435 = LOCAL_TIME ( 13, 38, 18.00000000000000000, #440 ) ;
#436 = COORDINATED_UNIVERSAL_TIME_OFFSET ( 9, 0, .AHEAD. ) ;
#437 = DATE_AND_TIME ( #594, #435 ) ;
#438 = DATE_AND_TIME ( #430, #443 ) ;
#439 = PERSON_AND_ORGANIZATION ( #429, #466 ) ;
#440 = COORDINATED_UNIVERSAL_TIME_OFFSET ( 9, 0, .AHEAD. ) ;
#441 = LINE ( 'NONE', #1389, #537 ) ;
#442 = VECTOR ( 'NONE', #1305, 1000.000000000000100 ) ;
#443 = LOCAL_TIME ( 13, 38, 18.00000000000000000, #436 ) ;
#444 = APPROVAL_PERSON_ORGANIZATION ( #451, #966, #896 ) ;
#445 = LINE ( 'NONE', #1341, #442 ) ;
#446 = COORDINATED_UNIVERSAL_TIME_OFFSET ( 9, 0, .AHEAD. ) ;
#447 = LOCAL_TIME ( 13, 38, 18.00000000000000000, #446 ) ;
#448 = CALENDAR_DATE ( 2015, 23, 7 ) ;
#449 = DATE_AND_TIME ( #448, #447 ) ;
#450 = APPROVAL_DATE_TIME ( #449, #966 ) ;
#451 = PERSON_AND_ORGANIZATION ( #429, #466 ) ;
#452 = DATE_AND_TIME ( #453, #460 ) ;
#453 = CALENDAR_DATE ( 2015, 23, 7 ) ;
#454 = DATE_AND_TIME ( #462, #461 ) ;
#455 = PERSON_AND_ORGANIZATION ( #429, #466 ) ;
#456 = APPROVAL_DATE_TIME ( #454, #974 ) ;
#457 = PERSON_AND_ORGANIZATION ( #429, #466 ) ;
#458 = PERSON_AND_ORGANIZATION ( #429, #466 ) ;
#459 = COORDINATED_UNIVERSAL_TIME_OFFSET ( 9, 0, .AHEAD. ) ;
#460 = LOCAL_TIME ( 13, 38, 18.00000000000000000, #459 ) ;
#461 = LOCAL_TIME ( 13, 38, 18.00000000000000000, #531 ) ;
#462 = CALENDAR_DATE ( 2015, 23, 7 ) ;
#463 = APPROVAL_PERSON_ORGANIZATION ( #464, #979, #911 ) ;
#464 = PERSON_AND_ORGANIZATION ( #429, #466 ) ;
#465 = PERSON_AND_ORGANIZATION ( #429, #466 ) ;
#466 = ORGANIZATION ( 'UNSPECIFIED', 'UNSPECIFIED', '' ) ;
#467 = SHAPE_DEFINITION_REPRESENTATION ( #1135, #1132 ) ;
#468 =( GEOMETRIC_REPRESENTATION_CONTEXT ( 3 ) GLOBAL_UNCERTAINTY_ASSIGNED_CONTEXT ( ( #1131 ) ) GLOBAL_UNIT_ASSIGNED_CONTEXT ( ( #932, #929, #927 ) ) REPRESENTATION_CONTEXT ( 'NONE', 'WORKASPACE' ) );
#469 = CYLINDRICAL_SURFACE ( 'NONE', #984, 1.599999999999999400 ) ;
#470 = CYLINDRICAL_SURFACE ( 'NONE', #987, 1.600000000000001200 ) ;
#471 = FACE_OUTER_BOUND ( 'NONE', #373, .T. ) ;
#472 = FACE_OUTER_BOUND ( 'NONE', #374, .T. ) ;
#473 = FACE_OUTER_BOUND ( 'NONE', #372, .T. ) ;
#474 = FACE_OUTER_BOUND ( 'NONE', #366, .T. ) ;
#475 = FACE_OUTER_BOUND ( 'NONE', #368, .T. ) ;
#476 = CYLINDRICAL_SURFACE ( 'NONE', #993, 1.249999999999999800 ) ;
#477 = FACE_OUTER_BOUND ( 'NONE', #363, .T. ) ;
#478 = FACE_OUTER_BOUND ( 'NONE', #382, .T. ) ;
#479 = FACE_OUTER_BOUND ( 'NONE', #370, .T. ) ;
#480 = FACE_OUTER_BOUND ( 'NONE', #299, .T. ) ;
#481 = FACE_BOUND ( 'NONE', #295, .T. ) ;
#482 = FACE_OUTER_BOUND ( 'NONE', #301, .T. ) ;
#483 = FACE_BOUND ( 'NONE', #371, .T. ) ;
#484 = CYLINDRICAL_SURFACE ( 'NONE', #1006, 1.249999999999999800 ) ;
#485 = FACE_BOUND ( 'NONE', #294, .T. ) ;
#486 = FACE_OUTER_BOUND ( 'NONE', #296, .T. ) ;
#487 = FACE_OUTER_BOUND ( 'NONE', #297, .T. ) ;
#488 = FACE_OUTER_BOUND ( 'NONE', #365, .T. ) ;
#489 = FACE_OUTER_BOUND ( 'NONE', #379, .T. ) ;
#490 = FACE_OUTER_BOUND ( 'NONE', #397, .T. ) ;
#491 = FACE_OUTER_BOUND ( 'NONE', #394, .T. ) ;
#492 = FACE_OUTER_BOUND ( 'NONE', #298, .T. ) ;
#493 = FACE_OUTER_BOUND ( 'NONE', #392, .T. ) ;
#494 = FACE_OUTER_BOUND ( 'NONE', #391, .T. ) ;
#495 = FACE_OUTER_BOUND ( 'NONE', #398, .T. ) ;
#496 = FACE_OUTER_BOUND ( 'NONE', #388, .T. ) ;
#497 = FACE_OUTER_BOUND ( 'NONE', #390, .T. ) ;
#498 = FACE_OUTER_BOUND ( 'NONE', #369, .T. ) ;
#499 = FACE_BOUND ( 'NONE', #389, .T. ) ;
#500 = FACE_OUTER_BOUND ( 'NONE', #387, .T. ) ;
#501 = LINE ( 'NONE', #1300, #525 ) ;
#502 = FACE_BOUND ( 'NONE', #399, .T. ) ;
#503 = FACE_BOUND ( 'NONE', #396, .T. ) ;
#504 = FACE_OUTER_BOUND ( 'NONE', #380, .T. ) ;
#505 = FACE_OUTER_BOUND ( 'NONE', #364, .T. ) ;
#506 = FACE_OUTER_BOUND ( 'NONE', #384, .T. ) ;
#507 = VECTOR ( 'NONE', #1104, 1000.000000000000000 ) ;
#508 = FACE_OUTER_BOUND ( 'NONE', #393, .T. ) ;
#509 = FACE_OUTER_BOUND ( 'NONE', #375, .T. ) ;
#510 = LINE ( 'NONE', #1106, #507 ) ;
#511 = VECTOR ( 'NONE', #1111, 1000.000000000000000 ) ;
#512 = VECTOR ( 'NONE', #1115, 1000.000000000000000 ) ;
#513 = LINE ( 'NONE', #1112, #511 ) ;
#514 = LINE ( 'NONE', #1118, #512 ) ;
#515 = VECTOR ( 'NONE', #1122, 1000.000000000000000 ) ;
#516 = VECTOR ( 'NONE', #1294, 1000.000000000000000 ) ;
#517 = VECTOR ( 'NONE', #1126, 1000.000000000000000 ) ;
#518 = LINE ( 'NONE', #1124, #515 ) ;
#519 = LINE ( 'NONE', #1293, #517 ) ;
#520 = FACE_OUTER_BOUND ( 'NONE', #293, .T. ) ;
#521 = LINE ( 'NONE', #1296, #516 ) ;
#522 = VECTOR ( 'NONE', #1297, 1000.000000000000000 ) ;
#523 = VECTOR ( 'NONE', #1301, 1000.000000000000000 ) ;
#524 = LINE ( 'NONE', #1298, #522 ) ;
#525 = VECTOR ( 'NONE', #1299, 1000.000000000000000 ) ;
#526 = LINE ( 'NONE', #1302, #523 ) ;
#527 = VECTOR ( 'NONE', #1303, 1000.000000000000000 ) ;
#528 = LINE ( 'NONE', #1304, #527 ) ;
#529 = APPROVAL_PERSON_ORGANIZATION ( #431, #974, #906 ) ;
#530 = FACE_OUTER_BOUND ( 'NONE', #376, .T. ) ;
#531 = COORDINATED_UNIVERSAL_TIME_OFFSET ( 9, 0, .AHEAD. ) ;
#532 = FACE_OUTER_BOUND ( 'NONE', #395, .T. ) ;
#533 = LINE ( 'NONE', #1396, #534 ) ;
#534 = VECTOR ( 'NONE', #1395, 1000.000000000000000 ) ;
#535 = LINE ( 'NONE', #1323, #548 ) ;
#536 = CIRCLE ( 'NONE', #1251, 1.599999999999999400 ) ;
#537 = VECTOR ( 'NONE', #1388, 1000.000000000000000 ) ;
#538 = LINE ( 'NONE', #1387, #539 ) ;
#539 = VECTOR ( 'NONE', #1386, 1000.000000000000000 ) ;
#540 = LINE ( 'NONE', #1382, #541 ) ;
#541 = VECTOR ( 'NONE', #1380, 1000.000000000000000 ) ;
#542 = LINE ( 'NONE', #1377, #543 ) ;
#543 = VECTOR ( 'NONE', #1376, 1000.000000000000000 ) ;
#544 = LINE ( 'NONE', #1375, #545 ) ;
#545 = VECTOR ( 'NONE', #1374, 1000.000000000000000 ) ;
#546 = LINE ( 'NONE', #1372, #547 ) ;
#547 = VECTOR ( 'NONE', #1371, 1000.000000000000000 ) ;
#548 = VECTOR ( 'NONE', #1369, 1000.000000000000000 ) ;
#549 = LINE ( 'NONE', #1367, #550 ) ;
#550 = VECTOR ( 'NONE', #1365, 1000.000000000000000 ) ;
#551 = LINE ( 'NONE', #1364, #552 ) ;
#552 = VECTOR ( 'NONE', #1363, 1000.000000000000000 ) ;
#553 = VECTOR ( 'NONE', #1358, 1000.000000000000000 ) ;
#554 = LINE ( 'NONE', #1335, #573 ) ;
#555 = LINE ( 'NONE', #1357, #556 ) ;
#556 = VECTOR ( 'NONE', #1356, 1000.000000000000000 ) ;
#557 = LINE ( 'NONE', #1355, #558 ) ;
#558 = VECTOR ( 'NONE', #1354, 1000.000000000000000 ) ;
#559 = LINE ( 'NONE', #1351, #560 ) ;
#560 = VECTOR ( 'NONE', #1350, 1000.000000000000000 ) ;
#561 = VECTOR ( 'NONE', #1347, 1000.000000000000100 ) ;
#562 = LINE ( 'NONE', #1311, #566 ) ;
#563 = LINE ( 'NONE', #1345, #564 ) ;
#564 = VECTOR ( 'NONE', #1343, 1000.000000000000000 ) ;
#565 = FACE_OUTER_BOUND ( 'NONE', #377, .T. ) ;
#566 = VECTOR ( 'NONE', #1310, 1000.000000000000000 ) ;
#567 = CIRCLE ( 'NONE', #1226, 1.600000000000001200 ) ;
#568 = VECTOR ( 'NONE', #1332, 1000.000000000000000 ) ;
#569 = LINE ( 'NONE', #1333, #568 ) ;
#570 = LINE ( 'NONE', #1330, #571 ) ;
#571 = VECTOR ( 'NONE', #1329, 1000.000000000000000 ) ;
#572 = LINE ( 'NONE', #1328, #574 ) ;
#573 = VECTOR ( 'NONE', #1334, 1000.000000000000000 ) ;
#574 = VECTOR ( 'NONE', #1325, 1000.000000000000000 ) ;
#575 = LINE ( 'NONE', #1324, #576 ) ;
#576 = VECTOR ( 'NONE', #1322, 1000.000000000000000 ) ;
#577 = LINE ( 'NONE', #1320, #578 ) ;
#578 = VECTOR ( 'NONE', #1319, 1000.000000000000000 ) ;
#579 = LINE ( 'NONE', #1318, #580 ) ;
#580 = VECTOR ( 'NONE', #1317, 1000.000000000000000 ) ;
#581 = FACE_OUTER_BOUND ( 'NONE', #386, .T. ) ;
#582 = FACE_OUTER_BOUND ( 'NONE', #381, .T. ) ;
#583 = CIRCLE ( 'NONE', #1007, 1.600000000000001200 ) ;
#584 = LINE ( 'NONE', #1309, #585 ) ;
#585 = VECTOR ( 'NONE', #1308, 1000.000000000000000 ) ;
#586 = VECTOR ( 'NONE', #1306, 1000.000000000000000 ) ;
#587 = LINE ( 'NONE', #1307, #586 ) ;
#588 = FACE_OUTER_BOUND ( 'NONE', #385, .T. ) ;
#589 = FACE_OUTER_BOUND ( 'NONE', #383, .T. ) ;
#590 = FACE_BOUND ( 'NONE', #400, .T. ) ;
#591 = FACE_OUTER_BOUND ( 'NONE', #302, .T. ) ;
#592 = FACE_OUTER_BOUND ( 'NONE', #292, .T. ) ;
#593 = VECTOR ( 'NONE', #1398, 1000.000000000000000 ) ;
#594 = CALENDAR_DATE ( 2015, 23, 7 ) ;
#595 = CARTESIAN_POINT ( 'NONE',  ( 0.6000000000000014200, -6.000000000000000900, 5.849999999999999600 ) ) ;
#596 = DIRECTION ( 'NONE',  ( 1.000000000000000000, 0.0000000000000000000, 0.0000000000000000000 ) ) ;
#597 = DIRECTION ( 'NONE',  ( -1.294569758191647200E-016, 1.000000000000000000, -0.0000000000000000000 ) ) ;
#598 = CARTESIAN_POINT ( 'NONE',  ( 7.000000000000000000, -6.000000000000000000, 5.849999999999999600 ) ) ;
#599 = CARTESIAN_POINT ( 'NONE',  ( -0.9999999999999995600, -10.00000000000000200, 5.999999999999999100 ) ) ;
#600 = DIRECTION ( 'NONE',  ( 0.0000000000000000000, 0.0000000000000000000, 1.000000000000000000 ) ) ;
#601 = CARTESIAN_POINT ( 'NONE',  ( -0.09999999999999990800, 0.5999999999999999800, -0.4000000000000000200 ) ) ;
#602 = CARTESIAN_POINT ( 'NONE',  ( 6.000000000000000000, -0.5999999999999989800, -0.4000000000000000200 ) ) ;
#603 = CARTESIAN_POINT ( 'NONE',  ( 3.000000000000000400, -8.000000000000001800, 57.50000000000000000 ) ) ;
#604 = CARTESIAN_POINT ( 'NONE',  ( 6.100000000000000500, -0.5999999999999989800, -0.4000000000000000200 ) ) ;
#605 = CARTESIAN_POINT ( 'NONE',  ( 6.000000000000000000, 0.6000000000000009800, 0.4000000000000000200 ) ) ;
#606 = DIRECTION ( 'NONE',  ( -1.294569758191647200E-016, 1.000000000000000000, -0.0000000000000000000 ) ) ;
#607 = DIRECTION ( 'NONE',  ( 1.000000000000000000, -1.577021341797097300E-016, -0.0000000000000000000 ) ) ;
#608 = CARTESIAN_POINT ( 'NONE',  ( -0.09999999999999990800, 0.5999999999999999800, 0.4000000000000000200 ) ) ;
#609 = CARTESIAN_POINT ( 'NONE',  ( 0.6000000000000015300, -6.000000000000000900, 5.999999999999998200 ) ) ;
#610 = DIRECTION ( 'NONE',  ( -0.0000000000000000000, -0.0000000000000000000, -1.000000000000000000 ) ) ;
#611 = CARTESIAN_POINT ( 'NONE',  ( 6.000000000000000900, -3.500000000000000000, 3.000000000000000000 ) ) ;
#612 = DIRECTION ( 'NONE',  ( 1.000000000000000000, -0.0000000000000000000, -0.0000000000000000000 ) ) ;
#613 = CARTESIAN_POINT ( 'NONE',  ( 5.399999999999999500, -6.000000000000000000, 5.999999999999999100 ) ) ;
#614 = CARTESIAN_POINT ( 'NONE',  ( 6.000000000000000000, -4.500000000000000900, 3.000000000000000000 ) ) ;
#615 = CARTESIAN_POINT ( 'NONE',  ( 6.000000000000000000, -0.5999999999999989800, 0.4000000000000000200 ) ) ;
#616 = DIRECTION ( 'NONE',  ( -0.0000000000000000000, 1.000000000000000000, -0.0000000000000000000 ) ) ;
#617 = CARTESIAN_POINT ( 'NONE',  ( 6.000000000000000000, -4.500000000000000900, -2.500000000000000000 ) ) ;
#618 = DIRECTION ( 'NONE',  ( -0.0000000000000000000, -0.0000000000000000000, -1.000000000000000000 ) ) ;
#619 = CARTESIAN_POINT ( 'NONE',  ( 5.000000000000000900, -10.00000000000000000, 7.500000000000001800 ) ) ;
#620 = DIRECTION ( 'NONE',  ( -1.000000000000000000, 0.0000000000000000000, -6.938893903907229400E-016 ) ) ;
#621 = DIRECTION ( 'NONE',  ( -4.336808689942018700E-016, -5.614301377061672700E-032, 1.000000000000000000 ) ) ;
#622 = DIRECTION ( 'NONE',  ( -5.782411586589351700E-016, -0.0000000000000000000, 1.000000000000000000 ) ) ;
#623 = CARTESIAN_POINT ( 'NONE',  ( 1.000000000000000400, -10.00000000000000200, 9.000000000000001800 ) ) ;
#624 = CARTESIAN_POINT ( 'NONE',  ( 6.000000000000000000, -4.000000000000000000, -2.500000000000000000 ) ) ;
#625 = DIRECTION ( 'NONE',  ( -1.000000000000000000, 0.0000000000000000000, 0.0000000000000000000 ) ) ;
#626 = CARTESIAN_POINT ( 'NONE',  ( 3.000000000000000400, -8.000000000000001800, 7.500000000000000000 ) ) ;
#627 = CARTESIAN_POINT ( 'NONE',  ( 6.000000000000000000, 0.6000000000000009800, -0.4000000000000000200 ) ) ;
#628 = DIRECTION ( 'NONE',  ( -1.294569758191647200E-016, 1.000000000000000000, -0.0000000000000000000 ) ) ;
#629 = CARTESIAN_POINT ( 'NONE',  ( 6.000000000000000000, 2.000000000000000000, 3.000000000000000000 ) ) ;
#630 = CARTESIAN_POINT ( 'NONE',  ( 6.000000000000000000, -4.500000000000000900, -3.000000000000000000 ) ) ;
#631 = DIRECTION ( 'NONE',  ( -0.0000000000000000000, -0.0000000000000000000, -1.000000000000000000 ) ) ;
#632 = CARTESIAN_POINT ( 'NONE',  ( -3.700000000000000200, -10.00000000000000000, 3.000000000000000000 ) ) ;
#633 = DIRECTION ( 'NONE',  ( -0.0000000000000000000, -0.0000000000000000000, 1.000000000000000000 ) ) ;
#634 = CARTESIAN_POINT ( 'NONE',  ( 0.0000000000000000000, -4.500000000000000900, 3.000000000000000000 ) ) ;
#635 = DIRECTION ( 'NONE',  ( 1.000000000000000000, -0.0000000000000000000, -0.0000000000000000000 ) ) ;
#636 = CARTESIAN_POINT ( 'NONE',  ( 9.700000000000001100, -10.00000000000000000, 9.000000000000001800 ) ) ;
#637 = DIRECTION ( 'NONE',  ( -1.000000000000000000, -9.376883653928686600E-016, 0.0000000000000000000 ) ) ;
#638 = CARTESIAN_POINT ( 'NONE',  ( 0.0000000000000000000, 2.000000000000001800, -3.000000000000000000 ) ) ;
#639 = DIRECTION ( 'NONE',  ( -0.0000000000000000000, -0.0000000000000000000, -1.000000000000000000 ) ) ;
#640 = CARTESIAN_POINT ( 'NONE',  ( 1.000000000000001300, -10.00000000000000200, 7.500000000000000000 ) ) ;
#641 = DIRECTION ( 'NONE',  ( 2.312964634635743500E-014, 0.0000000000000000000, 1.000000000000000000 ) ) ;
#642 = CARTESIAN_POINT ( 'NONE',  ( -2.600000000000000500, -10.00000000000000200, 5.849999999999999600 ) ) ;
#643 = DIRECTION ( 'NONE',  ( 2.312964634635743500E-014, 0.0000000000000000000, 1.000000000000000000 ) ) ;
#644 = CARTESIAN_POINT ( 'NONE',  ( -2.600000000000000500, -6.000000000000000900, 5.849999999999999600 ) ) ;
#645 = VERTEX_POINT ( 'NONE', #876 ) ;
#646 = DIRECTION ( 'NONE',  ( 1.577021341797097100E-016, 1.000000000000000000, 0.0000000000000000000 ) ) ;
#647 = VERTEX_POINT ( 'NONE', #871 ) ;
#648 = CARTESIAN_POINT ( 'NONE',  ( -8.673617379884035500E-016, -3.500000000000000000, 3.000000000000000000 ) ) ;
#649 = DIRECTION ( 'NONE',  ( -0.0000000000000000000, -0.0000000000000000000, -1.000000000000000000 ) ) ;
#650 = CARTESIAN_POINT ( 'NONE',  ( 0.0000000000000000000, 2.000000000000001800, 3.000000000000000000 ) ) ;
#651 = DIRECTION ( 'NONE',  ( -1.000000000000000000, -1.294569758191647200E-016, 0.0000000000000000000 ) ) ;
#652 = CARTESIAN_POINT ( 'NONE',  ( -8.673617379884035500E-016, -3.500000000000000000, 3.000000000000000000 ) ) ;
#653 = DIRECTION ( 'NONE',  ( 1.577021341797097600E-016, -1.000000000000000000, 0.0000000000000000000 ) ) ;
#654 = VERTEX_POINT ( 'NONE', #874 ) ;
#655 = CARTESIAN_POINT ( 'NONE',  ( 6.000000000000000000, 2.000000000000000000, -3.000000000000000000 ) ) ;
#656 = VERTEX_POINT ( 'NONE', #869 ) ;
#657 = VERTEX_POINT ( 'NONE', #873 ) ;
#658 = VERTEX_POINT ( 'NONE', #868 ) ;
#659 = DIRECTION ( 'NONE',  ( -1.000000000000000000, 0.0000000000000000000, 0.0000000000000000000 ) ) ;
#660 = VERTEX_POINT ( 'NONE', #872 ) ;
#661 = DIRECTION ( 'NONE',  ( -1.294569758191647200E-016, 1.000000000000000000, 0.0000000000000000000 ) ) ;
#662 = VERTEX_POINT ( 'NONE', #867 ) ;
#663 = DIRECTION ( 'NONE',  ( -0.0000000000000000000, -0.0000000000000000000, -1.000000000000000000 ) ) ;
#664 = VERTEX_POINT ( 'NONE', #875 ) ;
#665 = VERTEX_POINT ( 'NONE', #866 ) ;
#666 = VERTEX_POINT ( 'NONE', #865 ) ;
#667 = VERTEX_POINT ( 'NONE', #624 ) ;
#668 = CARTESIAN_POINT ( 'NONE',  ( 6.000000000000000000, 0.6000000000000009800, -0.4000000000000000200 ) ) ;
#669 = DIRECTION ( 'NONE',  ( -0.0000000000000000000, 1.000000000000000000, -0.0000000000000000000 ) ) ;
#670 = VERTEX_POINT ( 'NONE', #609 ) ;
#671 = CARTESIAN_POINT ( 'NONE',  ( 7.000000000000000000, -6.000000000000000000, 5.999999999999999100 ) ) ;
#672 = DIRECTION ( 'NONE',  ( 0.0000000000000000000, 1.000000000000000000, 0.0000000000000000000 ) ) ;
#673 = CARTESIAN_POINT ( 'NONE',  ( 9.700000000000001100, -6.000000000000000000, 9.000000000000001800 ) ) ;
#674 = VERTEX_POINT ( 'NONE', #613 ) ;
#675 = CARTESIAN_POINT ( 'NONE',  ( 6.000000000000000000, -4.500000000000000900, 2.500000000000000000 ) ) ;
#676 = DIRECTION ( 'NONE',  ( -1.000000000000000000, -1.577021341797097600E-016, -0.0000000000000000000 ) ) ;
#677 = CARTESIAN_POINT ( 'NONE',  ( 6.100000000000000500, 0.6000000000000009800, -0.4000000000000000200 ) ) ;
#678 = DIRECTION ( 'NONE',  ( -1.000000000000000000, 0.0000000000000000000, 0.0000000000000000000 ) ) ;
#679 = DIRECTION ( 'NONE',  ( -1.294569758191647200E-016, 1.000000000000000000, 0.0000000000000000000 ) ) ;
#680 = CARTESIAN_POINT ( 'NONE',  ( 7.000000000000000900, -10.00000000000000200, 5.999999999999999100 ) ) ;
#681 = DIRECTION ( 'NONE',  ( 1.000000000000000000, 0.0000000000000000000, -3.614007241618347800E-016 ) ) ;
#682 = VERTEX_POINT ( 'NONE', #615 ) ;
#683 = VERTEX_POINT ( 'NONE', #627 ) ;
#684 = CARTESIAN_POINT ( 'NONE',  ( 9.700000000000001100, -10.00000000000000000, 9.000000000000001800 ) ) ;
#685 = VERTEX_POINT ( 'NONE', #605 ) ;
#686 = VERTEX_POINT ( 'NONE', #604 ) ;
#687 = DIRECTION ( 'NONE',  ( -1.000000000000000000, 0.0000000000000000000, 0.0000000000000000000 ) ) ;
#688 = DIRECTION ( 'NONE',  ( -1.294569758191647200E-016, 1.000000000000000000, 0.0000000000000000000 ) ) ;
#689 = VERTEX_POINT ( 'NONE', #601 ) ;
#690 = CARTESIAN_POINT ( 'NONE',  ( 7.000000000000000900, -10.00000000000000200, 5.849999999999999600 ) ) ;
#691 = DIRECTION ( 'NONE',  ( -1.000000000000000000, -2.168404344971009400E-016, -4.336808689942018700E-016 ) ) ;
#692 = CARTESIAN_POINT ( 'NONE',  ( 1.000000000000000900, -6.000000000000000900, 7.500000000000000000 ) ) ;
#693 = CARTESIAN_POINT ( 'NONE',  ( 6.000000000000000900, -3.500000000000000000, 2.000000000000000000 ) ) ;
#694 = DIRECTION ( 'NONE',  ( -1.000000000000000000, -9.376883653928686600E-016, 0.0000000000000000000 ) ) ;
#695 = DIRECTION ( 'NONE',  ( 0.0000000000000000000, 0.0000000000000000000, -1.000000000000000000 ) ) ;
#696 = CARTESIAN_POINT ( 'NONE',  ( 0.0000000000000000000, 2.000000000000001800, 3.000000000000000000 ) ) ;
#697 = DIRECTION ( 'NONE',  ( -1.000000000000000000, -1.294569758191647200E-016, 0.0000000000000000000 ) ) ;
#698 = CARTESIAN_POINT ( 'NONE',  ( -9.462128050782580700E-017, -0.5999999999999999800, 0.4000000000000000200 ) ) ;
#699 = DIRECTION ( 'NONE',  ( 1.577021341797097600E-016, -1.000000000000000000, 0.0000000000000000000 ) ) ;
#700 = CARTESIAN_POINT ( 'NONE',  ( 9.700000000000001100, -6.000000000000000000, 3.000000000000000000 ) ) ;
#701 = DIRECTION ( 'NONE',  ( -1.294569758191647200E-016, 1.000000000000000000, -0.0000000000000000000 ) ) ;
#702 = CARTESIAN_POINT ( 'NONE',  ( 6.000000000000000000, 2.000000000000000000, 3.000000000000000000 ) ) ;
#703 = DIRECTION ( 'NONE',  ( -1.294569758191647200E-016, 1.000000000000000000, -0.0000000000000000000 ) ) ;
#704 = CARTESIAN_POINT ( 'NONE',  ( -2.600000000000000500, -10.00000000000000200, 5.849999999999999600 ) ) ;
#705 = DIRECTION ( 'NONE',  ( -1.115122484860635400E-016, -0.7071067811865474600, -0.7071067811865474600 ) ) ;
#706 = CARTESIAN_POINT ( 'NONE',  ( 0.6000000000000019800, -10.00000000000000200, 5.849999999999999600 ) ) ;
#707 = DIRECTION ( 'NONE',  ( 1.000000000000000000, 0.0000000000000000000, 0.0000000000000000000 ) ) ;
#708 = DIRECTION ( 'NONE',  ( 0.0000000000000000000, 0.0000000000000000000, 1.000000000000000000 ) ) ;
#709 = CARTESIAN_POINT ( 'NONE',  ( 3.000000000000000400, -8.000000000000001800, 57.50000000000000000 ) ) ;
#710 = DIRECTION ( 'NONE',  ( -1.294569758191647200E-016, 1.000000000000000000, -0.0000000000000000000 ) ) ;
#711 = CARTESIAN_POINT ( 'NONE',  ( -4.731064025391291400E-016, -0.9999999999999995600, 0.4999999999999995600 ) ) ;
#712 = DIRECTION ( 'NONE',  ( -1.294569758191647200E-016, 1.000000000000000000, -0.0000000000000000000 ) ) ;
#713 = CARTESIAN_POINT ( 'NONE',  ( 5.400000000000000400, -10.00000000000000200, 5.999999999999999100 ) ) ;
#714 = DIRECTION ( 'NONE',  ( -1.294569758191647200E-016, 1.000000000000000000, -0.0000000000000000000 ) ) ;
#715 = CARTESIAN_POINT ( 'NONE',  ( 8.599999999999997900, -10.00000000000000200, 5.999999999999999100 ) ) ;
#716 = DIRECTION ( 'NONE',  ( -1.294569758191647200E-016, 1.000000000000000000, -0.0000000000000000000 ) ) ;
#717 = CARTESIAN_POINT ( 'NONE',  ( -2.599999999999997000, -10.00000000000000200, 5.999999999999999100 ) ) ;
#718 = DIRECTION ( 'NONE',  ( -1.294569758191647200E-016, 1.000000000000000000, -0.0000000000000000000 ) ) ;
#719 = CARTESIAN_POINT ( 'NONE',  ( 0.6000000000000019800, -10.00000000000000200, 5.999999999999999100 ) ) ;
#720 = DIRECTION ( 'NONE',  ( -1.000000000000000000, 0.0000000000000000000, 3.614007241618347800E-016 ) ) ;
#721 = CARTESIAN_POINT ( 'NONE',  ( 5.400000000000000400, -10.00000000000000200, 5.849999999999999600 ) ) ;
#722 = DIRECTION ( 'NONE',  ( -1.294569758191647200E-016, 1.000000000000000000, -0.0000000000000000000 ) ) ;
#723 = CARTESIAN_POINT ( 'NONE',  ( 8.599999999999999600, -10.00000000000000200, 5.849999999999999600 ) ) ;
#724 = DIRECTION ( 'NONE',  ( 0.0000000000000000000, 0.0000000000000000000, 1.000000000000000000 ) ) ;
#725 = CARTESIAN_POINT ( 'NONE',  ( 6.000000000000000000, -4.000000000000000000, 2.500000000000000000 ) ) ;
#726 = DIRECTION ( 'NONE',  ( -1.000000000000000000, 0.0000000000000000000, 3.614007241618347800E-016 ) ) ;
#727 = CARTESIAN_POINT ( 'NONE',  ( 6.000000000000000000, -4.500000000000000900, 2.500000000000000000 ) ) ;
#728 = DIRECTION ( 'NONE',  ( 0.0000000000000000000, 1.000000000000000000, 0.0000000000000000000 ) ) ;
#729 = CARTESIAN_POINT ( 'NONE',  ( 6.100000000000000500, -0.5999999999999989800, -0.4000000000000000200 ) ) ;
#730 = DIRECTION ( 'NONE',  ( -1.000000000000000000, -1.577021341797097600E-016, -0.0000000000000000000 ) ) ;
#731 = CARTESIAN_POINT ( 'NONE',  ( 6.100000000000000500, -0.5999999999999989800, 0.4000000000000000200 ) ) ;
#732 = DIRECTION ( 'NONE',  ( -0.0000000000000000000, -0.0000000000000000000, -1.000000000000000000 ) ) ;
#733 = CARTESIAN_POINT ( 'NONE',  ( 6.100000000000000500, -0.5999999999999989800, 0.4000000000000000200 ) ) ;
#734 = DIRECTION ( 'NONE',  ( -1.000000000000000000, -1.577021341797097600E-016, -0.0000000000000000000 ) ) ;
#735 = CARTESIAN_POINT ( 'NONE',  ( 6.100000000000000500, 0.6000000000000009800, -0.4000000000000000200 ) ) ;
#736 = DIRECTION ( 'NONE',  ( 1.000000000000000000, 0.0000000000000000000, 3.614007241618347800E-016 ) ) ;
#737 = CARTESIAN_POINT ( 'NONE',  ( 6.100000000000000500, 0.6000000000000009800, 0.4000000000000000200 ) ) ;
#738 = DIRECTION ( 'NONE',  ( -0.0000000000000000000, -1.000000000000000000, -0.0000000000000000000 ) ) ;
#739 = CARTESIAN_POINT ( 'NONE',  ( 6.100000000000000500, -0.5999999999999989800, -0.4000000000000000200 ) ) ;
#740 = DIRECTION ( 'NONE',  ( 0.0000000000000000000, 0.0000000000000000000, -1.000000000000000000 ) ) ;
#741 = CARTESIAN_POINT ( 'NONE',  ( 6.000000000000000000, -4.000000000000000000, -2.500000000000000000 ) ) ;
#742 = DIRECTION ( 'NONE',  ( 1.000000000000000000, -0.0000000000000000000, 3.614007241618347800E-016 ) ) ;
#743 = CARTESIAN_POINT ( 'NONE',  ( -0.1000000000000001000, -0.5999999999999999800, 0.4000000000000000200 ) ) ;
#744 = DIRECTION ( 'NONE',  ( 1.577021341797097100E-016, 1.000000000000000000, 0.0000000000000000000 ) ) ;
#745 = CARTESIAN_POINT ( 'NONE',  ( -0.1000000000000001000, -0.5999999999999999800, -0.4000000000000000200 ) ) ;
#746 = DIRECTION ( 'NONE',  ( 1.000000000000000000, -1.577021341797097300E-016, -0.0000000000000000000 ) ) ;
#747 = CARTESIAN_POINT ( 'NONE',  ( -0.1000000000000001000, -0.5999999999999999800, -0.4000000000000000200 ) ) ;
#748 = CARTESIAN_POINT ( 'NONE',  ( 6.000000000000000000, -4.500000000000000900, -2.500000000000000000 ) ) ;
#749 = CARTESIAN_POINT ( 'NONE',  ( -0.1000000000000001000, -0.5999999999999999800, -0.4000000000000000200 ) ) ;
#750 = CARTESIAN_POINT ( 'NONE',  ( 0.9999999999999991100, -6.000000000000000900, 9.000000000000001800 ) ) ;
#751 = CARTESIAN_POINT ( 'NONE',  ( -8.673617379884035500E-016, -3.500000000000000000, 2.000000000000002200 ) ) ;
#752 = CARTESIAN_POINT ( 'NONE',  ( 0.0000000000000000000, 2.000000000000001800, -3.000000000000000000 ) ) ;
#753 = CARTESIAN_POINT ( 'NONE',  ( -0.09999999999999990800, 0.5999999999999999800, 0.4000000000000000200 ) ) ;
#754 = CARTESIAN_POINT ( 'NONE',  ( 6.000000000000000000, 2.000000000000000000, -3.000000000000000000 ) ) ;
#755 = CARTESIAN_POINT ( 'NONE',  ( 5.399999999999999500, -6.000000000000000900, 5.849999999999999600 ) ) ;
#756 = CARTESIAN_POINT ( 'NONE',  ( -0.1000000000000001000, -0.5999999999999999800, 0.4000000000000000200 ) ) ;
#757 = CARTESIAN_POINT ( 'NONE',  ( 0.0000000000000000000, 2.000000000000001800, 3.000000000000000000 ) ) ;
#758 = CARTESIAN_POINT ( 'NONE',  ( 9.700000000000001100, -10.00000000000000000, -3.000000000000000000 ) ) ;
#759 = CARTESIAN_POINT ( 'NONE',  ( 9.700000000000001100, 2.000000000000000000, 3.000000000000000000 ) ) ;
#760 = CARTESIAN_POINT ( 'NONE',  ( 6.000000000000000000, -0.5999999999999989800, -0.3999999999999997400 ) ) ;
#761 = CARTESIAN_POINT ( 'NONE',  ( 0.0000000000000000000, -4.500000000000000900, -3.000000000000000000 ) ) ;
#762 = CARTESIAN_POINT ( 'NONE',  ( 5.000000000000000900, -10.00000000000000000, 7.500000000000001800 ) ) ;
#763 = CARTESIAN_POINT ( 'NONE',  ( 9.700000000000001100, 2.000000000000000000, -3.000000000000000000 ) ) ;
#764 = CARTESIAN_POINT ( 'NONE',  ( 0.0000000000000000000, -4.000000000000000000, -2.500000000000002200 ) ) ;
#765 = CARTESIAN_POINT ( 'NONE',  ( 0.0000000000000000000, -4.000000000000000000, 2.500000000000002200 ) ) ;
#766 = CARTESIAN_POINT ( 'NONE',  ( -2.599999999999997000, -10.00000000000000200, 5.999999999999999100 ) ) ;
#767 = CARTESIAN_POINT ( 'NONE',  ( 9.700000000000001100, -6.000000000000000900, 3.000000000000000000 ) ) ;
#768 = CARTESIAN_POINT ( 'NONE',  ( 1.750000000000000700, -8.000000000000001800, 7.499999999999999100 ) ) ;
#769 = CARTESIAN_POINT ( 'NONE',  ( 0.6000000000000014200, -6.000000000000000900, 5.849999999999999600 ) ) ;
#770 = CARTESIAN_POINT ( 'NONE',  ( -3.700000000000000200, -6.000000000000001800, 3.000000000000000000 ) ) ;
#771 = CARTESIAN_POINT ( 'NONE',  ( 9.462128050782580700E-017, 0.5999999999999999800, 0.4000000000000000200 ) ) ;
#772 = CARTESIAN_POINT ( 'NONE',  ( -8.673617379884035500E-016, -3.500000000000000000, -2.000000000000002700 ) ) ;
#773 = CARTESIAN_POINT ( 'NONE',  ( 0.6000000000000015300, -10.00000000000000000, 5.849999999999999600 ) ) ;
#774 = CARTESIAN_POINT ( 'NONE',  ( 9.462128050782580700E-017, 0.5999999999999999800, -0.4000000000000000200 ) ) ;
#775 = CARTESIAN_POINT ( 'NONE',  ( 5.400000000000000400, -10.00000000000000000, 5.999999999999998200 ) ) ;
#776 = CARTESIAN_POINT ( 'NONE',  ( 1.000000000000000900, -6.000000000000000900, 7.500000000000000000 ) ) ;
#777 = CARTESIAN_POINT ( 'NONE',  ( 4.250000000000000000, -8.000000000000001800, 7.500000000000000900 ) ) ;
#778 = CARTESIAN_POINT ( 'NONE',  ( -9.462128050782580700E-017, -0.5999999999999999800, -0.4000000000000000200 ) ) ;
#779 = VERTEX_POINT ( 'NONE', #887 ) ;
#780 = CARTESIAN_POINT ( 'NONE',  ( 8.599999999999999600, -10.00000000000000200, 5.849999999999999600 ) ) ;
#781 = CARTESIAN_POINT ( 'NONE',  ( 8.599999999999999600, -10.00000000000000200, 5.849999999999999600 ) ) ;
#782 = CARTESIAN_POINT ( 'NONE',  ( 0.0000000000000000000, -4.500000000000000900, -2.500000000000002200 ) ) ;
#783 = VERTEX_POINT ( 'NONE', #886 ) ;
#784 = VERTEX_POINT ( 'NONE', #884 ) ;
#785 = CARTESIAN_POINT ( 'NONE',  ( -2.600000000000000500, -10.00000000000000200, 5.849999999999999600 ) ) ;
#786 = CARTESIAN_POINT ( 'NONE',  ( 1.000000000000001300, -10.00000000000000200, 7.500000000000000000 ) ) ;
#787 = CARTESIAN_POINT ( 'NONE',  ( 5.000000000000000000, -6.000000000000000000, 7.500000000000001800 ) ) ;
#788 = CARTESIAN_POINT ( 'NONE',  ( 5.000000000000000900, -10.00000000000000000, 9.000000000000003600 ) ) ;
#789 = CARTESIAN_POINT ( 'NONE',  ( 0.0000000000000000000, -4.500000000000000900, 2.500000000000002200 ) ) ;
#790 = VERTEX_POINT ( 'NONE', #883 ) ;
#791 = CARTESIAN_POINT ( 'NONE',  ( -4.066575051493318400E-031, -4.500000000000000900, 3.000000000000000000 ) ) ;
#792 = CARTESIAN_POINT ( 'NONE',  ( 4.250000000000000000, -8.000000000000001800, 57.50000000000000000 ) ) ;
#793 = CARTESIAN_POINT ( 'NONE',  ( -3.700000000000000200, 1.999999999999998200, -3.000000000000000000 ) ) ;
#794 = CARTESIAN_POINT ( 'NONE',  ( 1.000000000000000400, -10.00000000000000200, 9.000000000000001800 ) ) ;
#795 = CARTESIAN_POINT ( 'NONE',  ( 9.700000000000001100, -10.00000000000000000, 9.000000000000001800 ) ) ;
#796 = CARTESIAN_POINT ( 'NONE',  ( 5.000000000000000000, -6.000000000000000000, 9.000000000000003600 ) ) ;
#797 = CARTESIAN_POINT ( 'NONE',  ( 9.700000000000001100, -6.000000000000000000, 9.000000000000001800 ) ) ;
#798 = CARTESIAN_POINT ( 'NONE',  ( 1.750000000000000700, -8.000000000000001800, 57.50000000000000000 ) ) ;
#799 = CARTESIAN_POINT ( 'NONE',  ( 0.6000000000000019800, -10.00000000000000200, 5.999999999999999100 ) ) ;
#800 = CARTESIAN_POINT ( 'NONE',  ( 8.599999999999997900, -10.00000000000000200, 5.999999999999999100 ) ) ;
#801 = CARTESIAN_POINT ( 'NONE',  ( -3.700000000000000200, -10.00000000000000000, -3.000000000000000000 ) ) ;
#802 = VERTEX_POINT ( 'NONE', #882 ) ;
#803 = VERTEX_POINT ( 'NONE', #881 ) ;
#804 = VERTEX_POINT ( 'NONE', #880 ) ;
#805 = VERTEX_POINT ( 'NONE', #800 ) ;
#806 = VERTEX_POINT ( 'NONE', #787 ) ;
#807 = VERTEX_POINT ( 'NONE', #788 ) ;
#808 = VERTEX_POINT ( 'NONE', #786 ) ;
#809 = VERTEX_POINT ( 'NONE', #796 ) ;
#810 = VERTEX_POINT ( 'NONE', #785 ) ;
#811 = VERTEX_POINT ( 'NONE', #850 ) ;
#812 = VERTEX_POINT ( 'NONE', #798 ) ;
#813 = VERTEX_POINT ( 'NONE', #795 ) ;
#814 = VERTEX_POINT ( 'NONE', #791 ) ;
#815 = VERTEX_POINT ( 'NONE', #794 ) ;
#816 = VERTEX_POINT ( 'NONE', #801 ) ;
#817 = VERTEX_POINT ( 'NONE', #789 ) ;
#818 = VERTEX_POINT ( 'NONE', #797 ) ;
#819 = VERTEX_POINT ( 'NONE', #793 ) ;
#820 = VERTEX_POINT ( 'NONE', #792 ) ;
#821 = VERTEX_POINT ( 'NONE', #848 ) ;
#822 = VERTEX_POINT ( 'NONE', #799 ) ;
#823 = VERTEX_POINT ( 'NONE', #782 ) ;
#824 = DIRECTION ( 'NONE',  ( -1.000000000000000000, 0.0000000000000000000, 0.0000000000000000000 ) ) ;
#825 = VERTEX_POINT ( 'NONE', #781 ) ;
#826 = VERTEX_POINT ( 'NONE', #778 ) ;
#827 = VERTEX_POINT ( 'NONE', #777 ) ;
#828 = VERTEX_POINT ( 'NONE', #776 ) ;
#829 = VERTEX_POINT ( 'NONE', #775 ) ;
#830 = VERTEX_POINT ( 'NONE', #774 ) ;
#831 = CARTESIAN_POINT ( 'NONE',  ( 7.000000000000000900, -10.00000000000000200, 5.999999999999999100 ) ) ;
#832 = VERTEX_POINT ( 'NONE', #773 ) ;
#833 = VERTEX_POINT ( 'NONE', #772 ) ;
#834 = VERTEX_POINT ( 'NONE', #771 ) ;
#835 = VERTEX_POINT ( 'NONE', #770 ) ;
#836 = VERTEX_POINT ( 'NONE', #769 ) ;
#837 = VERTEX_POINT ( 'NONE', #768 ) ;
#838 = VERTEX_POINT ( 'NONE', #767 ) ;
#839 = VERTEX_POINT ( 'NONE', #766 ) ;
#840 = VERTEX_POINT ( 'NONE', #765 ) ;
#841 = VERTEX_POINT ( 'NONE', #764 ) ;
#842 = VERTEX_POINT ( 'NONE', #763 ) ;
#843 = VERTEX_POINT ( 'NONE', #762 ) ;
#844 = VERTEX_POINT ( 'NONE', #761 ) ;
#845 = VERTEX_POINT ( 'NONE', #760 ) ;
#846 = VERTEX_POINT ( 'NONE', #759 ) ;
#847 = VERTEX_POINT ( 'NONE', #758 ) ;
#848 = CARTESIAN_POINT ( 'NONE',  ( -4.100255488672453300E-016, -0.5999999999999998700, 0.3999999999999997400 ) ) ;
#849 = VERTEX_POINT ( 'NONE', #757 ) ;
#850 = CARTESIAN_POINT ( 'NONE',  ( 5.400000000000000400, -10.00000000000000200, 5.849999999999999600 ) ) ;
#851 = VERTEX_POINT ( 'NONE', #756 ) ;
#852 = VERTEX_POINT ( 'NONE', #755 ) ;
#853 = VERTEX_POINT ( 'NONE', #754 ) ;
#854 = VERTEX_POINT ( 'NONE', #753 ) ;
#855 = CARTESIAN_POINT ( 'NONE',  ( 7.000000000000000900, -10.00000000000000200, 5.849999999999999600 ) ) ;
#856 = DIRECTION ( 'NONE',  ( 2.312964634635743500E-014, 0.0000000000000000000, -1.000000000000000000 ) ) ;
#857 = DIRECTION ( 'NONE',  ( 1.000000000000000000, 1.294569758191647200E-016, 2.312964634635743500E-014 ) ) ;
#858 = PLANE ( 'NONE',  #1201 ) ;
#859 = CARTESIAN_POINT ( 'NONE',  ( 5.400000000000000400, -10.00000000000000200, 5.849999999999999600 ) ) ;
#860 = PLANE ( 'NONE',  #1165 ) ;
#861 = DIRECTION ( 'NONE',  ( -1.000000000000000000, 0.0000000000000000000, 0.0000000000000000000 ) ) ;
#862 = DIRECTION ( 'NONE',  ( -1.294569758191647200E-016, 1.000000000000000000, -0.0000000000000000000 ) ) ;
#863 = VERTEX_POINT ( 'NONE', #752 ) ;
#864 = VERTEX_POINT ( 'NONE', #751 ) ;
#865 = CARTESIAN_POINT ( 'NONE',  ( 6.000000000000000900, -3.500000000000000000, 2.000000000000000000 ) ) ;
#866 = CARTESIAN_POINT ( 'NONE',  ( 8.599999999999999600, -6.000000000000000000, 5.849999999999999600 ) ) ;
#867 = CARTESIAN_POINT ( 'NONE',  ( 6.000000000000000000, 2.000000000000000000, 3.000000000000000000 ) ) ;
#868 = CARTESIAN_POINT ( 'NONE',  ( 6.000000000000000000, -4.000000000000000000, 2.500000000000000000 ) ) ;
#869 = CARTESIAN_POINT ( 'NONE',  ( 6.000000000000000000, -4.500000000000000900, -2.500000000000000000 ) ) ;
#870 = VERTEX_POINT ( 'NONE', #750 ) ;
#871 = CARTESIAN_POINT ( 'NONE',  ( 6.000000000000000000, -4.500000000000000900, 2.500000000000000000 ) ) ;
#872 = CARTESIAN_POINT ( 'NONE',  ( -2.600000000000001000, -6.000000000000000900, 5.849999999999999600 ) ) ;
#873 = CARTESIAN_POINT ( 'NONE',  ( 6.100000000000000500, 0.6000000000000009800, 0.4000000000000000200 ) ) ;
#874 = CARTESIAN_POINT ( 'NONE',  ( -2.599999999999997400, -6.000000000000000900, 5.999999999999999100 ) ) ;
#875 = CARTESIAN_POINT ( 'NONE',  ( 8.599999999999997900, -6.000000000000000000, 5.999999999999999100 ) ) ;
#876 = CARTESIAN_POINT ( 'NONE',  ( 6.000000000000000000, -4.500000000000000900, 3.000000000000000000 ) ) ;
#877 = DIRECTION ( 'NONE',  ( 1.294569758191647200E-016, -1.000000000000000000, 0.0000000000000000000 ) ) ;
#878 = DIRECTION ( 'NONE',  ( -1.000000000000000000, -1.294569758191647200E-016, 0.0000000000000000000 ) ) ;
#879 = DIRECTION ( 'NONE',  ( -1.294569758191647200E-016, 1.000000000000000000, -0.0000000000000000000 ) ) ;
#880 = CARTESIAN_POINT ( 'NONE',  ( -3.700000000000000200, -6.000000000000001800, 9.000000000000001800 ) ) ;
#881 = CARTESIAN_POINT ( 'NONE',  ( -3.700000000000000200, 1.999999999999998200, 3.000000000000000000 ) ) ;
#882 = CARTESIAN_POINT ( 'NONE',  ( -3.700000000000000200, -10.00000000000000000, 9.000000000000001800 ) ) ;
#883 = CARTESIAN_POINT ( 'NONE',  ( 6.000000000000000900, -3.500000000000000000, -2.000000000000000000 ) ) ;
#884 = CARTESIAN_POINT ( 'NONE',  ( 6.100000000000000500, 0.6000000000000009800, -0.4000000000000000200 ) ) ;
#885 = VERTEX_POINT ( 'NONE', #749 ) ;
#886 = CARTESIAN_POINT ( 'NONE',  ( 6.100000000000000500, -0.5999999999999989800, 0.4000000000000000200 ) ) ;
#887 = CARTESIAN_POINT ( 'NONE',  ( 6.000000000000000000, -4.500000000000000900, -3.000000000000000000 ) ) ;
#888 = DIRECTION ( 'NONE',  ( -1.294569758191647200E-016, 1.000000000000000000, -0.0000000000000000000 ) ) ;
#889 = CARTESIAN_POINT ( 'NONE',  ( -0.9999999999999995600, -10.00000000000000200, 5.849999999999999600 ) ) ;
#890 = DIRECTION ( 'NONE',  ( 2.312964634635743500E-014, 0.0000000000000000000, 1.000000000000000000 ) ) ;
#891 = DIRECTION ( 'NONE',  ( -1.000000000000000000, -1.294569758191647200E-016, 2.312964634635743500E-014 ) ) ;
#892 = PLANE ( 'NONE',  #988 ) ;
#893 = DIRECTION ( 'NONE',  ( -1.000000000000000000, 0.0000000000000000000, 0.0000000000000000000 ) ) ;
#894 = DIRECTION ( 'NONE',  ( 1.000000000000000000, 0.0000000000000000000, -0.0000000000000000000 ) ) ;
#895 = DIRECTION ( 'NONE',  ( 0.0000000000000000000, 0.0000000000000000000, 1.000000000000000000 ) ) ;
#896 = APPROVAL_ROLE ( '' ) ;
#897 = PLANE ( 'NONE',  #989 ) ;
#898 = CARTESIAN_POINT ( 'NONE',  ( 6.000000000000000000, -4.000000000000000000, 2.500000000000000000 ) ) ;
#899 = APPROVAL_STATUS ( 'not_yet_approved' ) ;
#900 = DATE_TIME_ROLE ( 'classification_date' ) ;
#901 = PERSON_AND_ORGANIZATION_ROLE ( 'classification_officer' ) ;
#902 = SECURITY_CLASSIFICATION_LEVEL ( 'unclassified' ) ;
#903 = DIRECTION ( 'NONE',  ( -1.577021341797097100E-016, -1.000000000000000000, 0.0000000000000000000 ) ) ;
#904 = PERSON_AND_ORGANIZATION_ROLE ( 'design_supplier' ) ;
#905 = PERSON_AND_ORGANIZATION_ROLE ( 'creator' ) ;
#906 = APPROVAL_ROLE ( '' ) ;
#907 = APPROVAL_STATUS ( 'not_yet_approved' ) ;
#908 = DIRECTION ( 'NONE',  ( -1.000000000000000000, 1.577021341797097100E-016, 0.0000000000000000000 ) ) ;
#909 = DATE_TIME_ROLE ( 'creation_date' ) ;
#910 = PERSON_AND_ORGANIZATION_ROLE ( 'creator' ) ;
#911 = APPROVAL_ROLE ( '' ) ;
#912 = APPROVAL_STATUS ( 'not_yet_approved' ) ;
#913 = APPLICATION_PROTOCOL_DEFINITION ( 'international standard', 'config_control_design', 1994, #914 ) ;
#914 = APPLICATION_CONTEXT ( 'configuration controlled 3d designs of mechanical parts and assemblies' ) ;
#915 = PERSON_AND_ORGANIZATION_ROLE ( 'design_owner' ) ;
#916 = MECHANICAL_CONTEXT ( 'NONE', #919, 'mechanical' ) ;
#917 = PLANE ( 'NONE',  #990 ) ;
#918 = APPLICATION_PROTOCOL_DEFINITION ( 'international standard', 'config_control_design', 1994, #919 ) ;
#919 = APPLICATION_CONTEXT ( 'configuration controlled 3d designs of mechanical parts and assemblies' ) ;
#920 = CARTESIAN_POINT ( 'NONE',  ( -2.600000000000000500, -10.00000000000000200, 5.849999999999999600 ) ) ;
#921 = DIRECTION ( 'NONE',  ( 1.000000000000000000, 0.0000000000000000000, 0.0000000000000000000 ) ) ;
#922 = DIRECTION ( 'NONE',  ( 0.0000000000000000000, 0.0000000000000000000, 1.000000000000000000 ) ) ;
#923 = CARTESIAN_POINT ( 'NONE',  ( 0.0000000000000000000, 0.0000000000000000000, 0.0000000000000000000 ) ) ;
#924 = CARTESIAN_POINT ( 'NONE',  ( 6.100000000000000500, -0.5999999999999989800, 0.4000000000000000200 ) ) ;
#925 = DIRECTION ( 'NONE',  ( -0.0000000000000000000, -0.0000000000000000000, -1.000000000000000000 ) ) ;
#926 = DIRECTION ( 'NONE',  ( 0.0000000000000000000, -0.7071067811865474600, -0.7071067811865474600 ) ) ;
#927 =( NAMED_UNIT ( * ) SI_UNIT ( $, .STERADIAN. ) SOLID_ANGLE_UNIT ( ) );
#928 = DIRECTION ( 'NONE',  ( -1.577021341797097100E-016, -1.000000000000000000, 0.0000000000000000000 ) ) ;
#929 =( NAMED_UNIT ( * ) PLANE_ANGLE_UNIT ( ) SI_UNIT ( $, .RADIAN. ) );
#930 = DIRECTION ( 'NONE',  ( -2.555489027805623100E-016, -0.7071067811865475700, 0.7071067811865475700 ) ) ;
#931 = DIRECTION ( 'NONE',  ( 0.0000000000000000000, -1.000000000000000000, 0.0000000000000000000 ) ) ;
#932 =( LENGTH_UNIT ( ) NAMED_UNIT ( * ) SI_UNIT ( .MILLI., .METRE. ) );
#933 = DIRECTION ( 'NONE',  ( 0.0000000000000000000, -0.0000000000000000000, -1.000000000000000000 ) ) ;
#934 = DIRECTION ( 'NONE',  ( 0.0000000000000000000, -0.0000000000000000000, 1.000000000000000000 ) ) ;
#935 = DIRECTION ( 'NONE',  ( 0.0000000000000000000, 1.000000000000000000, 0.0000000000000000000 ) ) ;
#936 = DIRECTION ( 'NONE',  ( -1.294569758191647200E-016, 1.000000000000000000, -0.0000000000000000000 ) ) ;
#937 = CARTESIAN_POINT ( 'NONE',  ( -0.9999999999999995600, -10.00000000000000200, 5.999999999999999100 ) ) ;
#938 = PLANE ( 'NONE',  #991 ) ;
#939 = DIRECTION ( 'NONE',  ( -1.000000000000000000, 0.0000000000000000000, 0.0000000000000000000 ) ) ;
#940 = DIRECTION ( 'NONE',  ( -1.000000000000000000, 1.577021341797097100E-016, 0.0000000000000000000 ) ) ;
#941 = DIRECTION ( 'NONE',  ( -1.294569758191647200E-016, 1.000000000000000000, 0.0000000000000000000 ) ) ;
#942 = DIRECTION ( 'NONE',  ( 1.000000000000000000, 1.294569758191647200E-016, -0.0000000000000000000 ) ) ;
#943 = CARTESIAN_POINT ( 'NONE',  ( -0.09999999999999990800, 0.5999999999999999800, 0.4000000000000000200 ) ) ;
#944 = PLANE ( 'NONE',  #985 ) ;
#945 = CARTESIAN_POINT ( 'NONE',  ( 3.000000000000000400, -8.000000000000001800, 57.50000000000000000 ) ) ;
#946 = CARTESIAN_POINT ( 'NONE',  ( 6.000000000000000000, -4.500000000000000900, 2.500000000000000000 ) ) ;
#947 = CARTESIAN_POINT ( 'NONE',  ( 6.000000000000000000, -4.000000000000000000, -2.500000000000000000 ) ) ;
#948 = PLANE ( 'NONE',  #986 ) ;
#949 = DIRECTION ( 'NONE',  ( -1.000000000000000000, 0.0000000000000000000, 0.0000000000000000000 ) ) ;
#950 = PLANE ( 'NONE',  #992 ) ;
#951 = CARTESIAN_POINT ( 'NONE',  ( 0.6000000000000019800, -10.00000000000000200, 5.849999999999999600 ) ) ;
#952 = DIRECTION ( 'NONE',  ( 0.0000000000000000000, 0.7071067811865474600, -0.7071067811865474600 ) ) ;
#953 = DIRECTION ( 'NONE',  ( -2.555489027805623100E-016, -0.7071067811865475700, -0.7071067811865475700 ) ) ;
#954 = AXIS2_PLACEMENT_3D ( 'NONE', #1113, #1102, #1101 ) ;
#955 = AXIS2_PLACEMENT_3D ( 'NONE', #1077, #1043, #1041 ) ;
#956 = AXIS2_PLACEMENT_3D ( 'NONE', #1083, #1061, #1054 ) ;
#957 = AXIS2_PLACEMENT_3D ( 'NONE', #1013, #1123, #1121 ) ;
#958 = AXIS2_PLACEMENT_3D ( 'NONE', #1119, #1110, #1108 ) ;
#959 = AXIS2_PLACEMENT_3D ( 'NONE', #1065, #1030, #1027 ) ;
#960 = AXIS2_PLACEMENT_3D ( 'NONE', #1052, #1018, #1015 ) ;
#961 = AXIS2_PLACEMENT_3D ( 'NONE', #1316, #1103, #1078 ) ;
#962 = AXIS2_PLACEMENT_3D ( 'NONE', #1093, #1072, #1068 ) ;
#963 = PRODUCT_RELATED_PRODUCT_CATEGORY ( 'detail', '', ( #428 ) ) ;
#964 = CC_DESIGN_SECURITY_CLASSIFICATION ( #970, ( #975 ) ) ;
#965 = CC_DESIGN_APPROVAL ( #966, ( #970 ) ) ;
#966 = APPROVAL ( #899, 'UNSPECIFIED' ) ;
#967 = CC_DESIGN_DATE_AND_TIME_ASSIGNMENT ( #452, #900, ( #970 ) ) ;
#968 = AXIS2_PLACEMENT_3D ( 'NONE', #1127, #1098, #1097 ) ;
#969 = CC_DESIGN_PERSON_AND_ORGANIZATION_ASSIGNMENT ( #457, #901, ( #970 ) ) ;
#970 = SECURITY_CLASSIFICATION ( '', '', #902 ) ;
#971 = CC_DESIGN_PERSON_AND_ORGANIZATION_ASSIGNMENT ( #458, #904, ( #975 ) ) ;
#972 = CC_DESIGN_PERSON_AND_ORGANIZATION_ASSIGNMENT ( #455, #905, ( #975 ) ) ;
#973 = CC_DESIGN_APPROVAL ( #974, ( #975 ) ) ;
#974 = APPROVAL ( #907, 'UNSPECIFIED' ) ;
#975 = PRODUCT_DEFINITION_FORMATION_WITH_SPECIFIED_SOURCE ( 'ANY', '', #428, .NOT_KNOWN. ) ;
#976 = CC_DESIGN_DATE_AND_TIME_ASSIGNMENT ( #438, #909, ( #980 ) ) ;
#977 = CC_DESIGN_PERSON_AND_ORGANIZATION_ASSIGNMENT ( #439, #910, ( #980 ) ) ;
#978 = CC_DESIGN_APPROVAL ( #979, ( #980 ) ) ;
#979 = APPROVAL ( #912, 'UNSPECIFIED' ) ;
#980 = PRODUCT_DEFINITION ( 'UNKNOWN', '', #975, #1134 ) ;
#981 = AXIS2_PLACEMENT_3D ( 'NONE', #923, #922, #921 ) ;
#982 = CC_DESIGN_PERSON_AND_ORGANIZATION_ASSIGNMENT ( #465, #915, ( #428 ) ) ;
#983 = AXIS2_PLACEMENT_3D ( 'NONE', #1026, #1129, #1128 ) ;
#984 = AXIS2_PLACEMENT_3D ( 'NONE', #937, #936, #949 ) ;
#985 = AXIS2_PLACEMENT_3D ( 'NONE', #946, #935, #934 ) ;
#986 = AXIS2_PLACEMENT_3D ( 'NONE', #951, #942, #941 ) ;
#987 = AXIS2_PLACEMENT_3D ( 'NONE', #889, #888, #893 ) ;
#988 = AXIS2_PLACEMENT_3D ( 'NONE', #898, #953, #952 ) ;
#989 = AXIS2_PLACEMENT_3D ( 'NONE', #920, #891, #890 ) ;
#990 = AXIS2_PLACEMENT_3D ( 'NONE', #924, #895, #894 ) ;
#991 = AXIS2_PLACEMENT_3D ( 'NONE', #943, #908, #903 ) ;
#992 = AXIS2_PLACEMENT_3D ( 'NONE', #947, #930, #926 ) ;
#993 = AXIS2_PLACEMENT_3D ( 'NONE', #945, #925, #939 ) ;
#994 = AXIS2_PLACEMENT_3D ( 'NONE', #1014, #931, #933 ) ;
#995 = AXIS2_PLACEMENT_3D ( 'NONE', #1020, #940, #928 ) ;
#996 = AXIS2_PLACEMENT_3D ( 'NONE', #1032, #1019, #1017 ) ;
#997 = AXIS2_PLACEMENT_3D ( 'NONE', #1091, #1088, #1086 ) ;
#998 = AXIS2_PLACEMENT_3D ( 'NONE', #1038, #1023, #1022 ) ;
#999 = AXIS2_PLACEMENT_3D ( 'NONE', #1047, #1029, #1028 ) ;
#1000 = AXIS2_PLACEMENT_3D ( 'NONE', #1044, #1035, #1033 ) ;
#1001 = AXIS2_PLACEMENT_3D ( 'NONE', #1049, #1040, #1039 ) ;
#1002 = AXIS2_PLACEMENT_3D ( 'NONE', #1066, #1046, #1045 ) ;
#1003 = AXIS2_PLACEMENT_3D ( 'NONE', #1058, #1051, #1050 ) ;
#1004 = AXIS2_PLACEMENT_3D ( 'NONE', #1063, #1057, #1056 ) ;
#1005 = AXIS2_PLACEMENT_3D ( 'NONE', #1070, #1062, #1060 ) ;
#1006 = AXIS2_PLACEMENT_3D ( 'NONE', #1075, #1074, #1084 ) ;
#1007 = AXIS2_PLACEMENT_3D ( 'NONE', #1352, #1314, #1313 ) ;
#1008 = AXIS2_PLACEMENT_3D ( 'NONE', #1090, #1073, #1071 ) ;
#1009 = AXIS2_PLACEMENT_3D ( 'NONE', #1025, #1117, #1116 ) ;
#1010 = AXIS2_PLACEMENT_3D ( 'NONE', #1096, #1080, #1079 ) ;
#1011 = AXIS2_PLACEMENT_3D ( 'NONE', #1100, #1087, #1085 ) ;
#1012 = AXIS2_PLACEMENT_3D ( 'NONE', #1107, #1094, #1092 ) ;
#1013 = CARTESIAN_POINT ( 'NONE',  ( 6.000000000000000900, -3.500000000000000000, 3.000000000000000000 ) ) ;
#1014 = CARTESIAN_POINT ( 'NONE',  ( 6.000000000000000000, -4.500000000000000900, -2.500000000000000000 ) ) ;
#1015 = DIRECTION ( 'NONE',  ( 1.000000000000000000, 0.0000000000000000000, -0.0000000000000000000 ) ) ;
#1016 = PLANE ( 'NONE',  #994 ) ;
#1017 = DIRECTION ( 'NONE',  ( -1.000000000000000000, -1.577021341797097600E-016, 0.0000000000000000000 ) ) ;
#1018 = DIRECTION ( 'NONE',  ( 0.0000000000000000000, -0.0000000000000000000, 1.000000000000000000 ) ) ;
#1019 = DIRECTION ( 'NONE',  ( -1.577021341797097600E-016, 1.000000000000000000, 0.0000000000000000000 ) ) ;
#1020 = CARTESIAN_POINT ( 'NONE',  ( -8.673617379884035500E-016, -3.500000000000000000, 3.000000000000000000 ) ) ;
#1021 = PLANE ( 'NONE',  #995 ) ;
#1022 = DIRECTION ( 'NONE',  ( -1.000000000000000000, 0.0000000000000000000, -0.0000000000000000000 ) ) ;
#1023 = DIRECTION ( 'NONE',  ( 0.0000000000000000000, 0.0000000000000000000, -1.000000000000000000 ) ) ;
#1024 = PLANE ( 'NONE',  #996 ) ;
#1025 = CARTESIAN_POINT ( 'NONE',  ( 9.700000000000001100, -6.000000000000000000, 9.000000000000001800 ) ) ;
#1026 = CARTESIAN_POINT ( 'NONE',  ( 9.700000000000001100, -6.000000000000000000, 9.000000000000001800 ) ) ;
#1027 = DIRECTION ( 'NONE',  ( 1.000000000000000000, 0.0000000000000000000, -0.0000000000000000000 ) ) ;
#1028 = DIRECTION ( 'NONE',  ( 1.000000000000000000, 9.376883653928686600E-016, 0.0000000000000000000 ) ) ;
#1029 = DIRECTION ( 'NONE',  ( 9.376883653928686600E-016, -1.000000000000000000, 0.0000000000000000000 ) ) ;
#1030 = DIRECTION ( 'NONE',  ( 0.0000000000000000000, -0.0000000000000000000, 1.000000000000000000 ) ) ;
#1031 = PLANE ( 'NONE',  #998 ) ;
#1032 = CARTESIAN_POINT ( 'NONE',  ( 6.100000000000000500, 0.6000000000000009800, -0.4000000000000000200 ) ) ;
#1033 = DIRECTION ( 'NONE',  ( -0.0000000000000000000, 0.0000000000000000000, -1.000000000000000000 ) ) ;
#1034 = PLANE ( 'NONE',  #960 ) ;
#1035 = DIRECTION ( 'NONE',  ( 1.000000000000000000, 0.0000000000000000000, -0.0000000000000000000 ) ) ;
#1036 = PLANE ( 'NONE',  #957 ) ;
#1037 = PLANE ( 'NONE',  #999 ) ;
#1038 = CARTESIAN_POINT ( 'NONE',  ( 6.100000000000000500, -0.5999999999999989800, -0.4000000000000000200 ) ) ;
#1039 = DIRECTION ( 'NONE',  ( 0.0000000000000000000, -0.0000000000000000000, 1.000000000000000000 ) ) ;
#1040 = DIRECTION ( 'NONE',  ( 0.0000000000000000000, 1.000000000000000000, 0.0000000000000000000 ) ) ;
#1041 = DIRECTION ( 'NONE',  ( 1.000000000000000000, -1.577021341797097300E-016, 0.0000000000000000000 ) ) ;
#1042 = PLANE ( 'NONE',  #1001 ) ;
#1043 = DIRECTION ( 'NONE',  ( -1.577021341797097300E-016, -1.000000000000000000, 0.0000000000000000000 ) ) ;
#1044 = CARTESIAN_POINT ( 'NONE',  ( -3.700000000000000200, 1.999999999999998200, 3.000000000000000000 ) ) ;
#1045 = DIRECTION ( 'NONE',  ( -1.294569758191647200E-016, 1.000000000000000000, 0.0000000000000000000 ) ) ;
#1046 = DIRECTION ( 'NONE',  ( 1.000000000000000000, 1.294569758191647200E-016, 0.0000000000000000000 ) ) ;
#1047 = CARTESIAN_POINT ( 'NONE',  ( 0.0000000000000000000, 2.000000000000001800, 3.000000000000000000 ) ) ;
#1048 = PLANE ( 'NONE',  #959 ) ;
#1049 = CARTESIAN_POINT ( 'NONE',  ( -3.700000000000000200, -10.00000000000000000, 3.000000000000000000 ) ) ;
#1050 = DIRECTION ( 'NONE',  ( 1.000000000000000000, 0.0000000000000000000, -0.0000000000000000000 ) ) ;
#1051 = DIRECTION ( 'NONE',  ( 0.0000000000000000000, -0.0000000000000000000, 1.000000000000000000 ) ) ;
#1052 = CARTESIAN_POINT ( 'NONE',  ( -4.066575051493318400E-031, 2.000000000000001800, 3.000000000000000000 ) ) ;
#1053 = PLANE ( 'NONE',  #1002 ) ;
#1054 = DIRECTION ( 'NONE',  ( -5.782411586589351700E-016, 0.0000000000000000000, 1.000000000000000000 ) ) ;
#1055 = PLANE ( 'NONE',  #1000 ) ;
#1056 = DIRECTION ( 'NONE',  ( -1.000000000000000000, 0.0000000000000000000, -4.336808689942018700E-016 ) ) ;
#1057 = DIRECTION ( 'NONE',  ( 4.336808689942018700E-016, 5.614301377061672700E-032, -1.000000000000000000 ) ) ;
#1058 = CARTESIAN_POINT ( 'NONE',  ( 9.700000000000001100, -6.000000000000000000, 9.000000000000001800 ) ) ;
#1059 = PLANE ( 'NONE',  #1003 ) ;
#1060 = DIRECTION ( 'NONE',  ( 1.000000000000000000, 0.0000000000000000000, -0.0000000000000000000 ) ) ;
#1061 = DIRECTION ( 'NONE',  ( -1.000000000000000000, -1.294569758191647200E-016, -5.782411586589351700E-016 ) ) ;
#1062 = DIRECTION ( 'NONE',  ( 0.0000000000000000000, 0.0000000000000000000, 1.000000000000000000 ) ) ;
#1063 = CARTESIAN_POINT ( 'NONE',  ( 1.000000000000001300, -10.00000000000000200, 7.500000000000000000 ) ) ;
#1064 = PLANE ( 'NONE',  #955 ) ;
#1065 = CARTESIAN_POINT ( 'NONE',  ( -4.066575051493318400E-031, 2.000000000000001800, -3.000000000000000000 ) ) ;
#1066 = CARTESIAN_POINT ( 'NONE',  ( 5.000000000000000900, -10.00000000000000000, 9.000000000000003600 ) ) ;
#1067 = PLANE ( 'NONE',  #1005 ) ;
#1068 = DIRECTION ( 'NONE',  ( 1.000000000000000000, 0.0000000000000000000, 3.614007241618347800E-016 ) ) ;
#1069 = PLANE ( 'NONE',  #1004 ) ;
#1070 = CARTESIAN_POINT ( 'NONE',  ( 3.000000000000000400, -8.000000000000001800, 57.50000000000000000 ) ) ;
#1071 = DIRECTION ( 'NONE',  ( -1.000000000000000000, 0.0000000000000000000, 3.614007241618347800E-016 ) ) ;
#1072 = DIRECTION ( 'NONE',  ( -3.614007241618347800E-016, 0.0000000000000000000, 1.000000000000000000 ) ) ;
#1073 = DIRECTION ( 'NONE',  ( -3.614007241618347800E-016, 0.0000000000000000000, -1.000000000000000000 ) ) ;
#1074 = DIRECTION ( 'NONE',  ( -0.0000000000000000000, -0.0000000000000000000, -1.000000000000000000 ) ) ;
#1075 = CARTESIAN_POINT ( 'NONE',  ( 3.000000000000000400, -8.000000000000001800, 57.50000000000000000 ) ) ;
#1076 = PLANE ( 'NONE',  #956 ) ;
#1077 = CARTESIAN_POINT ( 'NONE',  ( -0.1000000000000001000, -0.5999999999999999800, 0.4000000000000000200 ) ) ;
#1078 = DIRECTION ( 'NONE',  ( 1.000000000000000000, 1.577021341797097600E-016, 0.0000000000000000000 ) ) ;
#1079 = DIRECTION ( 'NONE',  ( -1.000000000000000000, 1.577021341797097300E-016, 0.0000000000000000000 ) ) ;
#1080 = DIRECTION ( 'NONE',  ( 1.577021341797097300E-016, 1.000000000000000000, 0.0000000000000000000 ) ) ;
#1081 = PLANE ( 'NONE',  #962 ) ;
#1082 = PLANE ( 'NONE',  #1008 ) ;
#1083 = CARTESIAN_POINT ( 'NONE',  ( 1.000000000000000400, -10.00000000000000200, 9.000000000000001800 ) ) ;
#1084 = DIRECTION ( 'NONE',  ( -1.000000000000000000, 0.0000000000000000000, 0.0000000000000000000 ) ) ;
#1085 = DIRECTION ( 'NONE',  ( 0.0000000000000000000, -0.0000000000000000000, -1.000000000000000000 ) ) ;
#1086 = DIRECTION ( 'NONE',  ( 0.0000000000000000000, 0.0000000000000000000, -1.000000000000000000 ) ) ;
#1087 = DIRECTION ( 'NONE',  ( 0.0000000000000000000, -1.000000000000000000, 0.0000000000000000000 ) ) ;
#1088 = DIRECTION ( 'NONE',  ( 1.000000000000000000, 0.0000000000000000000, 0.0000000000000000000 ) ) ;
#1089 = PLANE ( 'NONE',  #1010 ) ;
#1090 = CARTESIAN_POINT ( 'NONE',  ( 6.000000000000000000, -4.500000000000000900, 2.500000000000000000 ) ) ;
#1091 = CARTESIAN_POINT ( 'NONE',  ( 6.100000000000000500, 0.6000000000000009800, -0.4000000000000000200 ) ) ;
#1092 = DIRECTION ( 'NONE',  ( 1.000000000000000000, 0.0000000000000000000, -0.0000000000000000000 ) ) ;
#1093 = CARTESIAN_POINT ( 'NONE',  ( 6.000000000000000000, -4.500000000000000900, -2.500000000000000000 ) ) ;
#1094 = DIRECTION ( 'NONE',  ( 0.0000000000000000000, -0.0000000000000000000, 1.000000000000000000 ) ) ;
#1095 = PLANE ( 'NONE',  #1011 ) ;
#1096 = CARTESIAN_POINT ( 'NONE',  ( -0.09999999999999990800, 0.5999999999999999800, 0.4000000000000000200 ) ) ;
#1097 = DIRECTION ( 'NONE',  ( 0.0000000000000000000, 0.0000000000000000000, 1.000000000000000000 ) ) ;
#1098 = DIRECTION ( 'NONE',  ( -1.000000000000000000, 0.0000000000000000000, 0.0000000000000000000 ) ) ;
#1099 = PLANE ( 'NONE',  #1012 ) ;
#1100 = CARTESIAN_POINT ( 'NONE',  ( 9.700000000000001100, 2.000000000000000000, 3.000000000000000000 ) ) ;
#1101 = DIRECTION ( 'NONE',  ( -1.000000000000000000, 0.0000000000000000000, -0.0000000000000000000 ) ) ;
#1102 = DIRECTION ( 'NONE',  ( 0.0000000000000000000, 0.0000000000000000000, -1.000000000000000000 ) ) ;
#1103 = DIRECTION ( 'NONE',  ( 1.577021341797097600E-016, -1.000000000000000000, 0.0000000000000000000 ) ) ;
#1104 = DIRECTION ( 'NONE',  ( 0.0000000000000000000, 0.0000000000000000000, 1.000000000000000000 ) ) ;
#1105 = PLANE ( 'NONE',  #968 ) ;
#1106 = CARTESIAN_POINT ( 'NONE',  ( 0.0000000000000000000, -4.500000000000000900, -3.000000000000000000 ) ) ;
#1107 = CARTESIAN_POINT ( 'NONE',  ( -0.1000000000000001000, -0.5999999999999999800, 0.4000000000000000200 ) ) ;
#1108 = DIRECTION ( 'NONE',  ( -1.577021341797097600E-016, 1.000000000000000000, 0.0000000000000000000 ) ) ;
#1109 = PLANE ( 'NONE',  #997 ) ;
#1110 = DIRECTION ( 'NONE',  ( 1.000000000000000000, 1.577021341797097600E-016, -0.0000000000000000000 ) ) ;
#1111 = DIRECTION ( 'NONE',  ( -0.0000000000000000000, -0.0000000000000000000, 1.000000000000000000 ) ) ;
#1112 = CARTESIAN_POINT ( 'NONE',  ( 9.462128050782580700E-017, 0.5999999999999999800, 0.4000000000000000200 ) ) ;
#1113 = CARTESIAN_POINT ( 'NONE',  ( -0.1000000000000001000, -0.5999999999999999800, -0.4000000000000000200 ) ) ;
#1114 = PLANE ( 'NONE',  #954 ) ;
#1115 = DIRECTION ( 'NONE',  ( 2.312964634635743500E-014, -0.0000000000000000000, -1.000000000000000000 ) ) ;
#1116 = DIRECTION ( 'NONE',  ( 1.000000000000000000, 0.0000000000000000000, -0.0000000000000000000 ) ) ;
#1117 = DIRECTION ( 'NONE',  ( 0.0000000000000000000, -0.0000000000000000000, 1.000000000000000000 ) ) ;
#1118 = CARTESIAN_POINT ( 'NONE',  ( 8.599999999999999600, -10.00000000000000200, 5.849999999999999600 ) ) ;
#1119 = CARTESIAN_POINT ( 'NONE',  ( 6.000000000000000000, 2.000000000000000000, 3.000000000000000000 ) ) ;
#1120 = PLANE ( 'NONE',  #958 ) ;
#1121 = DIRECTION ( 'NONE',  ( 0.0000000000000000000, -0.0000000000000000000, -1.000000000000000000 ) ) ;
#1122 = DIRECTION ( 'NONE',  ( 1.577021341797097100E-016, 1.000000000000000000, 0.0000000000000000000 ) ) ;
#1123 = DIRECTION ( 'NONE',  ( 0.0000000000000000000, -1.000000000000000000, 0.0000000000000000000 ) ) ;
#1124 = CARTESIAN_POINT ( 'NONE',  ( -8.673617379884035500E-016, -3.500000000000000000, -3.000000000000000000 ) ) ;
#1125 = PLANE ( 'NONE',  #1009 ) ;
#1126 = DIRECTION ( 'NONE',  ( 0.0000000000000000000, 0.0000000000000000000, -1.000000000000000000 ) ) ;
#1127 = CARTESIAN_POINT ( 'NONE',  ( 9.700000000000001100, -10.00000000000000000, 3.000000000000000000 ) ) ;
#1128 = DIRECTION ( 'NONE',  ( 1.000000000000000000, 1.294569758191647200E-016, 0.0000000000000000000 ) ) ;
#1129 = DIRECTION ( 'NONE',  ( 1.294569758191647200E-016, -1.000000000000000000, 0.0000000000000000000 ) ) ;
#1130 = PLANE ( 'NONE',  #983 ) ;
#1131 = UNCERTAINTY_MEASURE_WITH_UNIT (LENGTH_MEASURE( 1.000000000000000100E-005 ), #932, 'distance_accuracy_value', 'NONE');
#1132 = ADVANCED_BREP_SHAPE_REPRESENTATION ( 'pm-l25', ( #1133, #981 ), #468 ) ;
#1133 = MANIFOLD_SOLID_BREP ( '–ÊŽæ‚è1', #12 ) ;
#1134 = DESIGN_CONTEXT ( 'detailed design', #914, 'design' ) ;
#1135 = PRODUCT_DEFINITION_SHAPE ( 'NONE', 'NONE',  #980 ) ;
#1136 = EDGE_CURVE ( 'NONE', #885, #826, #225, .T. ) ;
#1137 = EDGE_CURVE ( 'NONE', #885, #689, #226, .T. ) ;
#1138 = EDGE_CURVE ( 'NONE', #823, #656, #221, .T. ) ;
#1139 = EDGE_CURVE ( 'NONE', #851, #885, #222, .T. ) ;
#1140 = EDGE_CURVE ( 'NONE', #784, #686, #215, .T. ) ;
#1141 = EDGE_CURVE ( 'NONE', #841, #667, #220, .T. ) ;
#1142 = EDGE_CURVE ( 'NONE', #657, #685, #218, .T. ) ;
#1143 = EDGE_CURVE ( 'NONE', #657, #784, #216, .T. ) ;
#1144 = EDGE_CURVE ( 'NONE', #783, #682, #205, .T. ) ;
#1145 = EDGE_CURVE ( 'NONE', #783, #657, #210, .T. ) ;
#1146 = EDGE_CURVE ( 'NONE', #647, #817, #201, .T. ) ;
#1147 = EDGE_CURVE ( 'NONE', #686, #783, #208, .T. ) ;
#1148 = EDGE_CURVE ( 'NONE', #825, #665, #197, .T. ) ;
#1149 = EDGE_CURVE ( 'NONE', #658, #840, #206, .T. ) ;
#1150 = EDGE_CURVE ( 'NONE', #811, #852, #202, .T. ) ;
#1151 = EDGE_CURVE ( 'NONE', #822, #670, #198, .T. ) ;
#1152 = EDGE_CURVE ( 'NONE', #839, #654, #194, .T. ) ;
#1153 = EDGE_CURVE ( 'NONE', #805, #664, #192, .T. ) ;
#1154 = EDGE_CURVE ( 'NONE', #829, #674, #190, .T. ) ;
#1155 = EDGE_CURVE ( 'NONE', #812, #820, #181, .T. ) ;
#1156 = EDGE_CURVE ( 'NONE', #833, #841, #182, .T. ) ;
#1157 = AXIS2_PLACEMENT_3D ( 'NONE', #671, #661, #659 ) ;
#1158 = EDGE_CURVE ( 'NONE', #832, #836, #183, .T. ) ;
#1159 = EDGE_CURVE ( 'NONE', #810, #660, #184, .T. ) ;
#1160 = EDGE_CURVE ( 'NONE', #662, #645, #187, .T. ) ;
#1161 = AXIS2_PLACEMENT_3D ( 'NONE', #709, #708, #707 ) ;
#1162 = EDGE_CURVE ( 'NONE', #838, #835, #179, .T. ) ;
#1163 = EDGE_CURVE ( 'NONE', #821, #826, #176, .T. ) ;
#1164 = EDGE_CURVE ( 'NONE', #849, #803, #173, .T. ) ;
#1165 = AXIS2_PLACEMENT_3D ( 'NONE', #780, #857, #856 ) ;
#1166 = AXIS2_PLACEMENT_3D ( 'NONE', #603, #1397, #1394 ) ;
#1167 = EDGE_CURVE ( 'NONE', #806, #828, #167, .T. ) ;
#1168 = EDGE_CURVE ( 'NONE', #825, #811, #163, .T. ) ;
#1169 = EDGE_CURVE ( 'NONE', #864, #666, #164, .T. ) ;
#1170 = EDGE_CURVE ( 'NONE', #829, #805, #159, .T. ) ;
#1171 = EDGE_CURVE ( 'NONE', #784, #683, #170, .T. ) ;
#1172 = EDGE_CURVE ( 'NONE', #813, #818, #160, .T. ) ;
#1173 = EDGE_CURVE ( 'NONE', #647, #658, #161, .T. ) ;
#1174 = EDGE_CURVE ( 'NONE', #685, #683, #154, .T. ) ;
#1175 = EDGE_CURVE ( 'NONE', #674, #664, #150, .T. ) ;
#1176 = EDGE_CURVE ( 'NONE', #853, #779, #157, .T. ) ;
#1177 = EDGE_CURVE ( 'NONE', #818, #809, #151, .T. ) ;
#1178 = EDGE_CURVE ( 'NONE', #849, #863, #147, .T. ) ;
#1179 = EDGE_CURVE ( 'NONE', #814, #849, #155, .T. ) ;
#1180 = EDGE_CURVE ( 'NONE', #660, #654, #143, .T. ) ;
#1181 = EDGE_CURVE ( 'NONE', #810, #839, #141, .T. ) ;
#1182 = EDGE_CURVE ( 'NONE', #864, #833, #152, .T. ) ;
#1183 = EDGE_CURVE ( 'NONE', #863, #819, #137, .T. ) ;
#1184 = EDGE_CURVE ( 'NONE', #807, #813, #135, .T. ) ;
#1185 = AXIS2_PLACEMENT_3D ( 'NONE', #598, #1393, #1390 ) ;
#1186 = EDGE_CURVE ( 'NONE', #817, #814, #133, .T. ) ;
#1187 = EDGE_CURVE ( 'NONE', #802, #816, #131, .T. ) ;
#1188 = EDGE_CURVE ( 'NONE', #808, #828, #148, .T. ) ;
#1189 = EDGE_CURVE ( 'NONE', #779, #844, #144, .T. ) ;
#1190 = EDGE_CURVE ( 'NONE', #808, #815, #125, .T. ) ;
#1191 = EDGE_CURVE ( 'NONE', #827, #837, #122, .T. ) ;
#1192 = EDGE_CURVE ( 'NONE', #662, #853, #123, .T. ) ;
#1193 = EDGE_CURVE ( 'NONE', #656, #667, #121, .T. ) ;
#1194 = AXIS2_PLACEMENT_3D ( 'NONE', #855, #879, #824 ) ;
#1195 = EDGE_CURVE ( 'NONE', #814, #645, #119, .T. ) ;
#1196 = EDGE_CURVE ( 'NONE', #666, #790, #117, .T. ) ;
#1197 = EDGE_CURVE ( 'NONE', #854, #834, #115, .T. ) ;
#1198 = EDGE_CURVE ( 'NONE', #843, #806, #126, .T. ) ;
#1199 = EDGE_CURVE ( 'NONE', #845, #682, #112, .T. ) ;
#1200 = EDGE_CURVE ( 'NONE', #839, #822, #106, .T. ) ;
#1201 = AXIS2_PLACEMENT_3D ( 'NONE', #859, #878, #877 ) ;
#1202 = EDGE_CURVE ( 'NONE', #820, #812, #95, .T. ) ;
#1203 = EDGE_CURVE ( 'NONE', #665, #852, #86, .T. ) ;
#1204 = EDGE_CURVE ( 'NONE', #802, #815, #110, .T. ) ;
#1205 = EDGE_CURVE ( 'NONE', #670, #836, #92, .T. ) ;
#1206 = EDGE_CURVE ( 'NONE', #815, #870, #83, .T. ) ;
#1207 = EDGE_CURVE ( 'NONE', #842, #853, #81, .T. ) ;
#1208 = AXIS2_PLACEMENT_3D ( 'NONE', #626, #621, #620 ) ;
#1209 = EDGE_CURVE ( 'NONE', #666, #658, #138, .T. ) ;
#1210 = EDGE_CURVE ( 'NONE', #826, #830, #73, .T. ) ;
#1211 = EDGE_CURVE ( 'NONE', #817, #840, #71, .T. ) ;
#1212 = EDGE_CURVE ( 'NONE', #804, #802, #66, .T. ) ;
#1213 = EDGE_CURVE ( 'NONE', #813, #847, #58, .T. ) ;
#1214 = EDGE_CURVE ( 'NONE', #807, #843, #109, .T. ) ;
#1215 = AXIS2_PLACEMENT_3D ( 'NONE', #831, #862, #861 ) ;
#1216 = EDGE_CURVE ( 'NONE', #811, #829, #68, .T. ) ;
#1217 = EDGE_CURVE ( 'NONE', #837, #827, #433, .T. ) ;
#1218 = EDGE_CURVE ( 'NONE', #667, #790, #445, .T. ) ;
#1219 = EDGE_CURVE ( 'NONE', #818, #838, #501, .T. ) ;
#1220 = EDGE_CURVE ( 'NONE', #790, #833, #432, .T. ) ;
#1221 = EDGE_CURVE ( 'NONE', #847, #842, #533, .T. ) ;
#1222 = EDGE_CURVE ( 'NONE', #654, #670, #536, .T. ) ;
#1223 = AXIS2_PLACEMENT_3D ( 'NONE', #680, #679, #678 ) ;
#1224 = EDGE_CURVE ( 'NONE', #816, #847, #441, .T. ) ;
#1225 = EDGE_CURVE ( 'NONE', #803, #835, #538, .T. ) ;
#1226 = AXIS2_PLACEMENT_3D ( 'NONE', #1349, #1337, #1336 ) ;
#1227 = AXIS2_PLACEMENT_3D ( 'NONE', #690, #688, #687 ) ;
#1228 = AXIS2_PLACEMENT_3D ( 'NONE', #1338, #1321, #1315 ) ;
#1229 = EDGE_CURVE ( 'NONE', #656, #779, #540, .T. ) ;
#1230 = EDGE_CURVE ( 'NONE', #846, #842, #542, .T. ) ;
#1231 = EDGE_CURVE ( 'NONE', #834, #821, #544, .T. ) ;
#1232 = EDGE_CURVE ( 'NONE', #807, #809, #546, .T. ) ;
#1233 = EDGE_CURVE ( 'NONE', #683, #845, #535, .T. ) ;
#1234 = EDGE_CURVE ( 'NONE', #843, #808, #549, .T. ) ;
#1235 = EDGE_CURVE ( 'NONE', #689, #830, #551, .T. ) ;
#1236 = AXIS2_PLACEMENT_3D ( 'NONE', #599, #597, #596 ) ;
#1237 = EDGE_CURVE ( 'NONE', #854, #851, #84, .T. ) ;
#1238 = EDGE_CURVE ( 'NONE', #664, #665, #555, .T. ) ;
#1239 = EDGE_CURVE ( 'NONE', #846, #662, #557, .T. ) ;
#1240 = EDGE_CURVE ( 'NONE', #803, #819, #559, .T. ) ;
#1241 = EDGE_CURVE ( 'NONE', #840, #864, #75, .T. ) ;
#1242 = EDGE_CURVE ( 'NONE', #820, #827, #563, .T. ) ;
#1243 = EDGE_CURVE ( 'NONE', #832, #810, #567, .T. ) ;
#1244 = EDGE_CURVE ( 'NONE', #822, #832, #554, .T. ) ;
#1245 = EDGE_CURVE ( 'NONE', #812, #837, #569, .T. ) ;
#1246 = EDGE_CURVE ( 'NONE', #870, #804, #570, .T. ) ;
#1247 = EDGE_CURVE ( 'NONE', #804, #835, #572, .T. ) ;
#1248 = EDGE_CURVE ( 'NONE', #689, #854, #575, .T. ) ;
#1249 = EDGE_CURVE ( 'NONE', #852, #674, #577, .T. ) ;
#1250 = EDGE_CURVE ( 'NONE', #686, #845, #579, .T. ) ;
#1251 = AXIS2_PLACEMENT_3D ( 'NONE', #1312, #1392, #1391 ) ;
#1252 = EDGE_CURVE ( 'NONE', #836, #660, #583, .T. ) ;
#1253 = EDGE_CURVE ( 'NONE', #838, #846, #562, .T. ) ;
#1254 = EDGE_CURVE ( 'NONE', #823, #841, #584, .T. ) ;
#1255 = EDGE_CURVE ( 'NONE', #819, #816, #587, .T. ) ;
#1256 = EDGE_CURVE ( 'NONE', #645, #647, #528, .T. ) ;
#1257 = EDGE_CURVE ( 'NONE', #851, #821, #526, .T. ) ;
#1258 = EDGE_CURVE ( 'NONE', #828, #870, #524, .T. ) ;
#1259 = EDGE_CURVE ( 'NONE', #682, #685, #521, .T. ) ;
#1260 = EDGE_CURVE ( 'NONE', #809, #806, #519, .T. ) ;
#1261 = EDGE_CURVE ( 'NONE', #844, #863, #518, .T. ) ;
#1262 = EDGE_CURVE ( 'NONE', #805, #825, #514, .T. ) ;
#1263 = EDGE_CURVE ( 'NONE', #830, #834, #513, .T. ) ;
#1264 = EDGE_CURVE ( 'NONE', #844, #823, #510, .T. ) ;
#1265 = ADVANCED_FACE ( 'NONE', ( #565 ), #1109, .F. ) ;
#1266 = ADVANCED_FACE ( 'NONE', ( #582 ), #1342, .F. ) ;
#1267 = ADVANCED_FACE ( 'NONE', ( #504 ), #1081, .F. ) ;
#1268 = ADVANCED_FACE ( 'NONE', ( #506 ), #1076, .F. ) ;
#1269 = ADVANCED_FACE ( 'NONE', ( #581 ), #1064, .F. ) ;
#1270 = ADVANCED_FACE ( 'NONE', ( #508 ), #1048, .F. ) ;
#1271 = ADVANCED_FACE ( 'NONE', ( #505 ), #1034, .T. ) ;
#1272 = ADVANCED_FACE ( 'NONE', ( #502, #499, #496 ), #1130, .F. ) ;
#1273 = ADVANCED_FACE ( 'NONE', ( #495 ), #1036, .F. ) ;
#1274 = ADVANCED_FACE ( 'NONE', ( #494 ), #1125, .T. ) ;
#1275 = ADVANCED_FACE ( 'NONE', ( #503, #491 ), #1120, .F. ) ;
#1276 = ADVANCED_FACE ( 'NONE', ( #497 ), #1114, .F. ) ;
#1277 = ADVANCED_FACE ( 'NONE', ( #492 ), #1105, .F. ) ;
#1278 = ADVANCED_FACE ( 'NONE', ( #500 ), #1099, .F. ) ;
#1279 = ADVANCED_FACE ( 'NONE', ( #490 ), #1095, .F. ) ;
#1280 = ADVANCED_FACE ( 'NONE', ( #493 ), #1089, .F. ) ;
#1281 = ADVANCED_FACE ( 'NONE', ( #489 ), #1082, .F. ) ;
#1282 = ADVANCED_FACE ( 'NONE', ( #487 ), #484, .T. ) ;
#1283 = ADVANCED_FACE ( 'NONE', ( #488 ), #1067, .T. ) ;
#1284 = ADVANCED_FACE ( 'NONE', ( #486, #481 ), #1069, .F. ) ;
#1285 = ADVANCED_FACE ( 'NONE', ( #482 ), #1059, .T. ) ;
#1286 = ADVANCED_FACE ( 'NONE', ( #509 ), #1053, .F. ) ;
#1287 = ADVANCED_FACE ( 'NONE', ( #483, #590, #592 ), #1042, .F. ) ;
#1288 = ADVANCED_FACE ( 'NONE', ( #591 ), #1055, .F. ) ;
#1289 = ADVANCED_FACE ( 'NONE', ( #520 ), #1037, .F. ) ;
#1290 = ADVANCED_FACE ( 'NONE', ( #588 ), #1031, .F. ) ;
#1291 = ADVANCED_FACE ( 'NONE', ( #532 ), #1024, .F. ) ;
#1292 = ADVANCED_FACE ( 'NONE', ( #485, #480 ), #1021, .F. ) ;
#1293 = CARTESIAN_POINT ( 'NONE',  ( 5.000000000000000000, -6.000000000000000000, 9.000000000000003600 ) ) ;
#1294 = DIRECTION ( 'NONE',  ( 0.0000000000000000000, 1.000000000000000000, 0.0000000000000000000 ) ) ;
#1295 = CARTESIAN_POINT ( 'NONE',  ( 6.000000000000002700, -3.500000000000000000, -2.000000000000000900 ) ) ;
#1296 = CARTESIAN_POINT ( 'NONE',  ( 6.000000000000000000, -0.5999999999999989800, 0.4000000000000000200 ) ) ;
#1297 = DIRECTION ( 'NONE',  ( -5.782411586589351700E-016, -0.0000000000000000000, 1.000000000000000000 ) ) ;
#1298 = CARTESIAN_POINT ( 'NONE',  ( 1.000000000000000000, -6.000000000000000900, 9.000000000000001800 ) ) ;
#1299 = DIRECTION ( 'NONE',  ( -0.0000000000000000000, -0.0000000000000000000, -1.000000000000000000 ) ) ;
#1300 = CARTESIAN_POINT ( 'NONE',  ( 9.700000000000001100, -6.000000000000000000, 9.000000000000001800 ) ) ;
#1301 = DIRECTION ( 'NONE',  ( 1.000000000000000000, -1.577021341797097300E-016, -0.0000000000000000000 ) ) ;
#1302 = CARTESIAN_POINT ( 'NONE',  ( -0.1000000000000001000, -0.5999999999999999800, 0.4000000000000000200 ) ) ;
#1303 = DIRECTION ( 'NONE',  ( 0.0000000000000000000, 0.0000000000000000000, -1.000000000000000000 ) ) ;
#1304 = CARTESIAN_POINT ( 'NONE',  ( 6.000000000000000000, -4.500000000000000900, 3.000000000000000000 ) ) ;
#1305 = DIRECTION ( 'NONE',  ( -1.115122484860635600E-016, 0.7071067811865474600, 0.7071067811865474600 ) ) ;
#1306 = DIRECTION ( 'NONE',  ( 0.0000000000000000000, -1.000000000000000000, 0.0000000000000000000 ) ) ;
#1307 = CARTESIAN_POINT ( 'NONE',  ( -3.700000000000000200, 1.999999999999998200, -3.000000000000000000 ) ) ;
#1308 = DIRECTION ( 'NONE',  ( -0.0000000000000000000, 1.000000000000000000, -0.0000000000000000000 ) ) ;
#1309 = CARTESIAN_POINT ( 'NONE',  ( 0.0000000000000000000, -4.500000000000000900, -2.500000000000002200 ) ) ;
#1310 = DIRECTION ( 'NONE',  ( 0.0000000000000000000, 1.000000000000000000, 0.0000000000000000000 ) ) ;
#1311 = CARTESIAN_POINT ( 'NONE',  ( 9.700000000000001100, -10.00000000000000000, 3.000000000000000000 ) ) ;
#1312 = CARTESIAN_POINT ( 'NONE',  ( -1.000000000000000000, -6.000000000000000900, 5.999999999999999100 ) ) ;
#1313 = DIRECTION ( 'NONE',  ( 1.000000000000000000, 0.0000000000000000000, 0.0000000000000000000 ) ) ;
#1314 = DIRECTION ( 'NONE',  ( -1.294569758191647200E-016, 1.000000000000000000, -0.0000000000000000000 ) ) ;
#1315 = DIRECTION ( 'NONE',  ( -1.000000000000000000, 0.0000000000000000000, -6.938893903907229400E-016 ) ) ;
#1316 = CARTESIAN_POINT ( 'NONE',  ( 6.100000000000000500, -0.5999999999999989800, -0.4000000000000000200 ) ) ;
#1317 = DIRECTION ( 'NONE',  ( -1.000000000000000000, -1.577021341797097600E-016, -0.0000000000000000000 ) ) ;
#1318 = CARTESIAN_POINT ( 'NONE',  ( 6.100000000000000500, -0.5999999999999989800, -0.4000000000000000200 ) ) ;
#1319 = DIRECTION ( 'NONE',  ( 0.0000000000000000000, 0.0000000000000000000, 1.000000000000000000 ) ) ;
#1320 = CARTESIAN_POINT ( 'NONE',  ( 5.399999999999999500, -6.000000000000000000, 5.849999999999999600 ) ) ;
#1321 = DIRECTION ( 'NONE',  ( -4.336808689942018700E-016, -5.614301377061672700E-032, 1.000000000000000000 ) ) ;
#1322 = DIRECTION ( 'NONE',  ( -0.0000000000000000000, -0.0000000000000000000, 1.000000000000000000 ) ) ;
#1323 = CARTESIAN_POINT ( 'NONE',  ( 6.000000000000000000, -0.5999999999999989800, -0.4000000000000000200 ) ) ;
#1324 = CARTESIAN_POINT ( 'NONE',  ( -0.09999999999999990800, 0.5999999999999999800, 0.4000000000000000200 ) ) ;
#1325 = DIRECTION ( 'NONE',  ( -0.0000000000000000000, -0.0000000000000000000, -1.000000000000000000 ) ) ;
#1326 = DIRECTION ( 'NONE',  ( 0.0000000000000000000, 0.0000000000000000000, 1.000000000000000000 ) ) ;
#1327 = CARTESIAN_POINT ( 'NONE',  ( 5.400000000000000400, -10.00000000000000200, 5.849999999999999600 ) ) ;
#1328 = CARTESIAN_POINT ( 'NONE',  ( -3.700000000000000200, -6.000000000000001800, 9.000000000000001800 ) ) ;
#1329 = DIRECTION ( 'NONE',  ( -1.000000000000000000, -1.294569758191647200E-016, 0.0000000000000000000 ) ) ;
#1330 = CARTESIAN_POINT ( 'NONE',  ( 9.700000000000001100, -6.000000000000000000, 9.000000000000001800 ) ) ;
#1331 = DIRECTION ( 'NONE',  ( 0.0000000000000000000, 0.0000000000000000000, -1.000000000000000000 ) ) ;
#1332 = DIRECTION ( 'NONE',  ( -0.0000000000000000000, -0.0000000000000000000, -1.000000000000000000 ) ) ;
#1333 = CARTESIAN_POINT ( 'NONE',  ( 1.750000000000000700, -8.000000000000001800, 57.50000000000000000 ) ) ;
#1334 = DIRECTION ( 'NONE',  ( -0.0000000000000000000, -0.0000000000000000000, -1.000000000000000000 ) ) ;
#1335 = CARTESIAN_POINT ( 'NONE',  ( 0.6000000000000019800, -10.00000000000000200, 5.849999999999999600 ) ) ;
#1336 = DIRECTION ( 'NONE',  ( 1.000000000000000000, 0.0000000000000000000, 0.0000000000000000000 ) ) ;
#1337 = DIRECTION ( 'NONE',  ( -1.294569758191647200E-016, 1.000000000000000000, -0.0000000000000000000 ) ) ;
#1338 = CARTESIAN_POINT ( 'NONE',  ( 3.000000000000000400, -8.000000000000001800, 7.500000000000000000 ) ) ;
#1339 = DIRECTION ( 'NONE',  ( -0.0000000000000000000, -0.0000000000000000000, -1.000000000000000000 ) ) ;
#1340 = CARTESIAN_POINT ( 'NONE',  ( 9.700000000000001100, -10.00000000000000000, 3.000000000000000000 ) ) ;
#1341 = CARTESIAN_POINT ( 'NONE',  ( 6.000000000000000000, 1.749999999999999800, 3.250000000000000400 ) ) ;
#1342 = PLANE ( 'NONE',  #961 ) ;
#1343 = DIRECTION ( 'NONE',  ( -0.0000000000000000000, -0.0000000000000000000, -1.000000000000000000 ) ) ;
#1344 = DIRECTION ( 'NONE',  ( -0.0000000000000000000, -1.000000000000000000, -0.0000000000000000000 ) ) ;
#1345 = CARTESIAN_POINT ( 'NONE',  ( 4.250000000000000000, -8.000000000000001800, 57.50000000000000000 ) ) ;
#1346 = CARTESIAN_POINT ( 'NONE',  ( -3.700000000000000200, -10.00000000000000000, 9.000000000000001800 ) ) ;
#1347 = DIRECTION ( 'NONE',  ( 1.115122484860635400E-016, 0.7071067811865474600, -0.7071067811865474600 ) ) ;
#1348 = DIRECTION ( 'NONE',  ( -0.0000000000000000000, 1.000000000000000000, -0.0000000000000000000 ) ) ;
#1349 = CARTESIAN_POINT ( 'NONE',  ( -0.9999999999999995600, -10.00000000000000200, 5.849999999999999600 ) ) ;
#1350 = DIRECTION ( 'NONE',  ( -0.0000000000000000000, -0.0000000000000000000, -1.000000000000000000 ) ) ;
#1351 = CARTESIAN_POINT ( 'NONE',  ( -3.700000000000000200, 1.999999999999998200, 3.000000000000000000 ) ) ;
#1352 = CARTESIAN_POINT ( 'NONE',  ( -1.000000000000000000, -6.000000000000000900, 5.849999999999999600 ) ) ;
#1353 = CARTESIAN_POINT ( 'NONE',  ( 0.0000000000000000000, -4.500000000000000900, 2.500000000000002200 ) ) ;
#1354 = DIRECTION ( 'NONE',  ( -1.000000000000000000, 0.0000000000000000000, 0.0000000000000000000 ) ) ;
#1355 = CARTESIAN_POINT ( 'NONE',  ( 9.700000000000001100, 2.000000000000000000, 3.000000000000000000 ) ) ;
#1356 = DIRECTION ( 'NONE',  ( 2.312964634635743500E-014, -0.0000000000000000000, -1.000000000000000000 ) ) ;
#1357 = CARTESIAN_POINT ( 'NONE',  ( 8.599999999999999600, -6.000000000000000000, 5.849999999999999600 ) ) ;
#1358 = DIRECTION ( 'NONE',  ( -1.577021341797097100E-016, -1.000000000000000000, -0.0000000000000000000 ) ) ;
#1359 = CARTESIAN_POINT ( 'NONE',  ( -9.462128050782580900E-016, -3.999999999999999100, 2.500000000000001300 ) ) ;
#1360 = DIRECTION ( 'NONE',  ( 1.577021341797097100E-016, 1.000000000000000000, 0.0000000000000000000 ) ) ;
#1361 = CARTESIAN_POINT ( 'NONE',  ( -9.462128050782580700E-017, -0.5999999999999999800, -0.4000000000000000200 ) ) ;
#1362 = DIRECTION ( 'NONE',  ( 1.115122484860635600E-016, -0.7071067811865474600, 0.7071067811865474600 ) ) ;
#1363 = DIRECTION ( 'NONE',  ( 1.000000000000000000, -1.577021341797097300E-016, -0.0000000000000000000 ) ) ;
#1364 = CARTESIAN_POINT ( 'NONE',  ( -0.09999999999999990800, 0.5999999999999999800, -0.4000000000000000200 ) ) ;
#1365 = DIRECTION ( 'NONE',  ( -1.000000000000000000, -2.168404344971009400E-016, -4.336808689942018700E-016 ) ) ;
#1366 = CARTESIAN_POINT ( 'NONE',  ( 5.000000000000000900, -10.00000000000000000, 9.000000000000003600 ) ) ;
#1367 = CARTESIAN_POINT ( 'NONE',  ( 1.000000000000001300, -10.00000000000000200, 7.500000000000000000 ) ) ;
#1368 = DIRECTION ( 'NONE',  ( -1.000000000000000000, 0.0000000000000000000, 0.0000000000000000000 ) ) ;
#1369 = DIRECTION ( 'NONE',  ( -0.0000000000000000000, -1.000000000000000000, -0.0000000000000000000 ) ) ;
#1370 = CARTESIAN_POINT ( 'NONE',  ( -0.1000000000000001000, -0.5999999999999999800, 0.4000000000000000200 ) ) ;
#1371 = DIRECTION ( 'NONE',  ( -1.294569758191647200E-016, 1.000000000000000000, -0.0000000000000000000 ) ) ;
#1372 = CARTESIAN_POINT ( 'NONE',  ( 5.000000000000000900, -10.00000000000000000, 9.000000000000003600 ) ) ;
#1373 = CARTESIAN_POINT ( 'NONE',  ( 9.700000000000001100, 2.000000000000000000, -3.000000000000000000 ) ) ;
#1374 = DIRECTION ( 'NONE',  ( -1.577021341797097100E-016, -1.000000000000000000, -0.0000000000000000000 ) ) ;
#1375 = CARTESIAN_POINT ( 'NONE',  ( -9.462128050782580700E-017, -0.5999999999999999800, 0.4000000000000000200 ) ) ;
#1376 = DIRECTION ( 'NONE',  ( -0.0000000000000000000, -0.0000000000000000000, -1.000000000000000000 ) ) ;
#1377 = CARTESIAN_POINT ( 'NONE',  ( 9.700000000000001100, 2.000000000000000000, 3.000000000000000000 ) ) ;
#1378 = DIRECTION ( 'NONE',  ( -1.294569758191647200E-016, 1.000000000000000000, -0.0000000000000000000 ) ) ;
#1379 = CARTESIAN_POINT ( 'NONE',  ( 1.000000000000000400, -10.00000000000000200, 9.000000000000001800 ) ) ;
#1380 = DIRECTION ( 'NONE',  ( -0.0000000000000000000, -0.0000000000000000000, -1.000000000000000000 ) ) ;
#1381 = DIRECTION ( 'NONE',  ( -0.0000000000000000000, -0.0000000000000000000, -1.000000000000000000 ) ) ;
#1382 = CARTESIAN_POINT ( 'NONE',  ( 6.000000000000000000, -4.500000000000000900, -3.000000000000000000 ) ) ;
#1383 = CARTESIAN_POINT ( 'NONE',  ( 6.000000000000000900, -1.250000000000000200, -0.2500000000000002200 ) ) ;
#1384 = DIRECTION ( 'NONE',  ( 1.000000000000000000, -0.0000000000000000000, -0.0000000000000000000 ) ) ;
#1385 = CARTESIAN_POINT ( 'NONE',  ( 9.700000000000001100, -10.00000000000000000, 9.000000000000001800 ) ) ;
#1386 = DIRECTION ( 'NONE',  ( 0.0000000000000000000, -1.000000000000000000, 0.0000000000000000000 ) ) ;
#1387 = CARTESIAN_POINT ( 'NONE',  ( -3.700000000000000200, 1.999999999999998200, 3.000000000000000000 ) ) ;
#1388 = DIRECTION ( 'NONE',  ( 1.000000000000000000, 0.0000000000000000000, 0.0000000000000000000 ) ) ;
#1389 = CARTESIAN_POINT ( 'NONE',  ( -3.700000000000000200, -10.00000000000000000, -3.000000000000000000 ) ) ;
#1390 = DIRECTION ( 'NONE',  ( -1.000000000000000000, 0.0000000000000000000, 0.0000000000000000000 ) ) ;
#1391 = DIRECTION ( 'NONE',  ( 1.000000000000000000, 0.0000000000000000000, 0.0000000000000000000 ) ) ;
#1392 = DIRECTION ( 'NONE',  ( -1.294569758191647200E-016, 1.000000000000000000, -0.0000000000000000000 ) ) ;
#1393 = DIRECTION ( 'NONE',  ( -1.294569758191647200E-016, 1.000000000000000000, 0.0000000000000000000 ) ) ;
#1394 = DIRECTION ( 'NONE',  ( 1.000000000000000000, 0.0000000000000000000, 0.0000000000000000000 ) ) ;
#1395 = DIRECTION ( 'NONE',  ( 0.0000000000000000000, 1.000000000000000000, 0.0000000000000000000 ) ) ;
#1396 = CARTESIAN_POINT ( 'NONE',  ( 9.700000000000001100, -10.00000000000000000, -3.000000000000000000 ) ) ;
#1397 = DIRECTION ( 'NONE',  ( 0.0000000000000000000, 0.0000000000000000000, 1.000000000000000000 ) ) ;
#1398 = DIRECTION ( 'NONE',  ( -1.000000000000000000, 0.0000000000000000000, -3.614007241618347800E-016 ) ) ;
#1399 = ADVANCED_FACE ( 'NONE', ( #530 ), #1016, .F. ) ;
#1400 = ADVANCED_FACE ( 'NONE', ( #479 ), #476, .T. ) ;
#1401 = ADVANCED_FACE ( 'NONE', ( #498 ), #950, .F. ) ;
#1402 = ADVANCED_FACE ( 'NONE', ( #478 ), #938, .F. ) ;
#1403 = ADVANCED_FACE ( 'NONE', ( #589 ), #917, .F. ) ;
#1404 = ADVANCED_FACE ( 'NONE', ( #477 ), #897, .F. ) ;
#1405 = ADVANCED_FACE ( 'NONE', ( #475 ), #892, .F. ) ;
#1406 = ADVANCED_FACE ( 'NONE', ( #474 ), #470, .F. ) ;
#1407 = ADVANCED_FACE ( 'NONE', ( #473 ), #948, .F. ) ;
#1408 = ADVANCED_FACE ( 'NONE', ( #472 ), #944, .T. ) ;
#1409 = ADVANCED_FACE ( 'NONE', ( #471 ), #469, .F. ) ;
ENDSEC;
END-ISO-10303-21;
