  0
SECTION
  2
HEADER
  9
$ACADVER
  1
AC1009
  9
$INSBASE
 10
177.9999997912175
 20
6.7085914059697132
 30
0.0
  9
$EXTMIN
 10
150.25340154197301
 20
153.461193275738
 30
0.0
  9
$EXTMAX
 10
215.10931992962711
 20
211.82238568356371
 30
0.0
  9
$LIMMIN
 10
0.0
 20
0.0
  9
$LIMMAX
 10
190.0
 20
277.0
  9
$ORTHOMODE
 70
     0
  9
$REGENMODE
 70
     1
  9
$FILLMODE
 70
     1
  9
$QTEXTMODE
 70
     0
  9
$MIRRTEXT
 70
     1
  9
$DRAGMODE
 70
     2
  9
$LTSCALE
 40
1.0
  9
$OSMODE
 70
   549
  9
$ATTMODE
 70
     1
  9
$TEXTSIZE
 40
5.0
  9
$TRACEWID
 40
1.0
  9
$TEXTSTYLE
  7
STANDARD
  9
$CLAYER
  8
0
  9
$CELTYPE
  6
BYLAYER
  9
$CECOLOR
 62
   256
  9
$DIMSCALE
 40
1.0
  9
$DIMASZ
 40
2.5
  9
$DIMEXO
 40
1.0
  9
$DIMDLI
 40
10.0
  9
$DIMRND
 40
0.0
  9
$DIMDLE
 40
0.0
  9
$DIMEXE
 40
1.0
  9
$DIMTP
 40
0.1
  9
$DIMTM
 40
0.1
  9
$DIMTXT
 40
3.5
  9
$DIMCEN
 40
0.0
  9
$DIMTSZ
 40
0.0
  9
$DIMTOL
 70
     1
  9
$DIMLIM
 70
     0
  9
$DIMTIH
 70
     0
  9
$DIMTOH
 70
     0
  9
$DIMSE1
 70
     0
  9
$DIMSE2
 70
     0
  9
$DIMTAD
 70
     3
  9
$DIMZIN
 70
     8
  9
$DIMBLK
  1
OPEN30
  9
$DIMASO
 70
     1
  9
$DIMSHO
 70
     1
  9
$DIMPOST
  1

  9
$DIMAPOST
  1
"
  9
$DIMALT
 70
     0
  9
$DIMALTD
 70
     2
  9
$DIMALTF
 40
0.0393701
  9
$DIMLFAC
 40
1.0
  9
$DIMTOFL
 70
     1
  9
$DIMTVP
 40
0.0
  9
$DIMTIX
 70
     0
  9
$DIMSOXD
 70
     0
  9
$DIMSAH
 70
     0
  9
$DIMBLK1
  1

  9
$DIMBLK2
  1

  9
$DIMSTYLE
  2
AM_JIS
  9
$DIMCLRD
 70
   256
  9
$DIMCLRE
 70
   256
  9
$DIMCLRT
 70
     2
  9
$DIMTFAC
 40
0.71
  9
$DIMGAP
 40
1.5
  9
$LUNITS
 70
     2
  9
$LUPREC
 70
     2
  9
$SKETCHINC
 40
1.0
  9
$FILLETRAD
 40
0.0
  9
$AUNITS
 70
     0
  9
$AUPREC
 70
     0
  9
$MENU
  1
.
  9
$ELEVATION
 40
0.0
  9
$PELEVATION
 40
0.0
  9
$THICKNESS
 40
0.0
  9
$LIMCHECK
 70
     0
  9
$BLIPMODE
 70
     0
  9
$CHAMFERA
 40
0.0
  9
$CHAMFERB
 40
0.0
  9
$SKPOLY
 70
     0
  9
$TDCREATE
 40
2457185.5835300121
  9
$TDUPDATE
 40
2457235.4686220139
  9
$TDINDWG
 40
0.1365043056
  9
$TDUSRTIMER
 40
0.1365041319
  9
$USRTIMER
 70
     1
  9
$ANGBASE
 50
0.0
  9
$ANGDIR
 70
     0
  9
$PDMODE
 70
     0
  9
$PDSIZE
 40
0.0
  9
$PLINEWID
 40
0.0
  9
$COORDS
 70
     2
  9
$SPLFRAME
 70
     0
  9
$SPLINETYPE
 70
     6
  9
$SPLINESEGS
 70
     8
  9
$ATTDIA
 70
     1
  9
$ATTREQ
 70
     1
  9
$HANDLING
 70
     1
  9
$HANDSEED
  5
67A4
  9
$SURFTAB1
 70
     6
  9
$SURFTAB2
 70
     6
  9
$SURFTYPE
 70
     6
  9
$SURFU
 70
     6
  9
$SURFV
 70
     6
  9
$UCSNAME
  2

  9
$UCSORG
 10
0.0
 20
0.0
 30
0.0
  9
$UCSXDIR
 10
1.0
 20
0.0
 30
0.0
  9
$UCSYDIR
 10
0.0
 20
1.0
 30
0.0
  9
$PUCSNAME
  2

  9
$PUCSORG
 10
0.0
 20
0.0
 30
0.0
  9
$PUCSXDIR
 10
1.0
 20
0.0
 30
0.0
  9
$PUCSYDIR
 10
0.0
 20
1.0
 30
0.0
  9
$USERI1
 70
     0
  9
$USERI2
 70
     0
  9
$USERI3
 70
     0
  9
$USERI4
 70
     0
  9
$USERI5
 70
     0
  9
$USERR1
 40
0.0
  9
$USERR2
 40
0.0
  9
$USERR3
 40
0.0
  9
$USERR4
 40
0.0
  9
$USERR5
 40
0.0
  9
$WORLDVIEW
 70
     1
  9
$SHADEDGE
 70
     3
  9
$SHADEDIF
 70
    70
  9
$TILEMODE
 70
     1
  9
$MAXACTVP
 70
    64
  9
$PLIMCHECK
 70
     0
  9
$PEXTMIN
 10
1.0000000000000000E+020
 20
1.0000000000000000E+020
 30
1.0000000000000000E+020
  9
$PEXTMAX
 10
-1.0000000000000000E+020
 20
-1.0000000000000000E+020
 30
-1.0000000000000000E+020
  9
$PLIMMIN
 10
-5.873748779296875
 20
-5.8737497329711914
  9
$PLIMMAX
 10
291.09457397460932
 20
204.0995779037475
  9
$UNITMODE
 70
     0
  9
$VISRETAIN
 70
     1
  9
$PLINEGEN
 70
     0
  9
$PSLTSCALE
 70
     1
  0
ENDSEC
  0
SECTION
  2
TABLES
  0
TABLE
  2
VPORT
 70
     1
  0
VPORT
  2
*ACTIVE
 70
     0
 10
0.0
 20
0.0
 11
1.0
 21
1.0
 12
176.68687197315739
 22
186.4964258510181
 13
0.0
 23
0.0
 14
2.5
 24
2.5
 15
10.0
 25
10.0
 16
0.0
 26
0.0
 36
1.0
 17
0.0
 27
0.0
 37
0.0
 40
93.908947150490604
 41
1.6309523809523809
 42
50.0
 43
0.0
 44
0.0
 50
0.0
 51
0.0
 71
     0
 72
   100
 73
     1
 74
     1
 75
     0
 76
     0
 77
     0
 78
     0
  0
ENDTAB
  0
TABLE
  2
LTYPE
 70
    19
  0
LTYPE
  2
CONTINUOUS
 70
     0
  3
Solid line
 72
    65
 73
     0
 40
0.0
  0
LTYPE
  2
AM_ISO02W050
 70
     0
  3
__ __ __ __ __ __ __ __ __ __ __ __ __ __ __
 72
    65
 73
     2
 40
7.5
 49
6.0
 49
-1.5
  0
LTYPE
  2
AM_ISO08W050
 70
     0
  3
____ . ____ . ____ . ____ . ____ . ____ . ____
 72
    65
 73
     4
 40
18.0
 49
12.0
 49
-1.5
 49
3.0
 49
-1.5
  0
LTYPE
  2
AM_ISO09W050
 70
     0
  3
_____ . . _____ . . _____ . . ____ .. ____
 72
    65
 73
     6
 40
22.5
 49
12.0
 49
-1.5
 49
3.0
 49
-1.5
 49
3.0
 49
-1.5
  0
LTYPE
  2
AMCONSTR
 70
     0
  3
_______________________
 72
    65
 73
     2
 40
9999.0
 49
9999.0
 49
0.0
  0
LTYPE
  2
AM_ISO02W050X2
 70
     0
  3
 _ _ _ _ _ _ _ _ _ _ _ _
 72
    65
 73
     2
 40
3.75
 49
3.0
 49
-0.75
  0
LTYPE
  2
AM_ISO08W050X2
 70
     0
  3
__ . __ . __ . __ . __ . __
 72
    65
 73
     4
 40
9.0
 49
6.0
 49
-0.75
 49
1.5
 49
-0.75
  0
LTYPE
  2
AMZIGZAG
 70
     0
  3
/\/-/\/-/\/-/\/-/\/-/\/
 72
    65
 73
     2
 40
11.0001
 49
0.0001
 49
-11.0
  0
LTYPE
  2
CENTER
 70
     0
  3
____ _ ____ _
 72
    65
 73
     4
 40
13.42150481887249
 49
8.3884405117953058
 49
-1.67768810235906
 49
1.67768810235906
 49
-1.67768810235906
  0
LTYPE
  2
HIDDEN
 70
     0
  3
_ _ _ _ _ _ _
 72
    65
 73
     2
 40
2.5165321535385901
 49
1.67768810235906
 49
-0.8388440511795305
  0
LTYPE
  2
PHANTOM2
 70
     0
  3
Phantom (.5x) ___ _ _ ___ _ _ ___ _ _ ___ _ _
 72
    65
 73
     6
 40
1.25
 49
0.625
 49
-0.125
 49
0.125
 49
-0.125
 49
0.125
 49
-0.125
  0
LTYPE
  2
ACJISTGB
 70
     0
  3
__ . . __ . .
 72
    65
 73
     6
 40
9.0
 49
4.0
 49
-1.0
 49
1.0
 49
-1.0
 49
1.0
 49
-1.0
  0
LTYPE
  2
ACJISTGL
 70
     0
  3
_ _ _ _ _
 72
    65
 73
     2
 40
3.0
 49
2.0
 49
-1.0
  0
LTYPE
  2
ACANSTGBM
 70
     0
  3
__ . . __ . .
 72
    65
 73
     6
 40
9.0
 49
4.0
 49
-1.0
 49
1.0
 49
-1.0
 49
1.0
 49
-1.0
  0
LTYPE
  2
ACANSTGLM
 70
     0
  3
_ _ _ _ _
 72
    65
 73
     2
 40
3.0
 49
2.0
 49
-1.0
  0
LTYPE
  2
ACISOWELD
 70
     0
  3
_ _ _ _ _
 72
    65
 73
     2
 40
2.0
 49
2.0
 49
-1.0
  0
LTYPE
  2
ACISOTGL
 70
     0
  3
_ _ _ _ _
 72
    65
 73
     2
 40
3.0
 49
2.0
 49
-1.0
  0
LTYPE
  2
ACISOTGB
 70
     0
  3
__ . . __ . .
 72
    65
 73
     6
 40
9.0
 49
4.0
 49
-1.0
 49
1.0
 49
-1.0
 49
1.0
 49
-1.0
  0
ENDTAB
  0
TABLE
  2
LAYER
 70
     3
  0
LAYER
  2
0
 70
     0
 62
     7
  6
CONTINUOUS
  0
LAYER
  2
DEFPOINTS
 70
     0
 62
     7
  6
CONTINUOUS
  0
ENDTAB
  0
TABLE
  2
STYLE
 70
     7
  0
STYLE
  2
STANDARD
 70
     0
 40
0.0
 41
1.0
 50
0.0
 71
     0
 42
5.0
  3
isocp.shx
  4
extfont.shx
  0
STYLE
  2

 70
     1
 40
0.0
 41
1.0
 50
0.0
 71
     0
 42
2.5
  3
ltypeshp.shx
  4

  0
STYLE
  2
ACJISTS
 70
     0
 40
1.0
 41
1.0
 50
0.0
 71
     0
 42
3.5
  3
isocp.shx
  4
bigfont.shx
  0
STYLE
  2
ACJISGDT
 70
     0
 40
0.0
 41
1.0
 50
0.0
 71
     0
 42
3.5
  3
amgdt.shx
  4

  0
STYLE
  2
ACANSTS
 70
     0
 40
1.0
 41
1.0
 50
0.0
 71
     0
 42
5.0
  3
romans.shx
  4
extfont.shx
  0
STYLE
  2
ACANSGDT
 70
     0
 40
0.0
 41
1.0
 50
0.0
 71
     0
 42
5.0
  3
amgdtans.shx
  4

  0
STYLE
  2
ACISOGDT
 70
     0
 40
0.0
 41
1.0
 50
0.0
 71
     0
 42
2.5
  3
amgdt.shx
  4

  0
ENDTAB
  0
TABLE
  2
VIEW
 70
     6
  0
VIEW
  2
AM_VIEW1
 70
     1
 40
210.0
 10
215.76588321825781
 20
297.20624923706049
 41
443.11926605504578
 11
0.0
 21
0.0
 31
1.0
 12
0.0
 22
0.0
 32
0.0
 42
50.0
 43
0.0
 44
0.0
 50
0.0
 71
     0
  0
VIEW
  2
AM_VIEW2
 70
     1
 40
210.0
 10
366.64661716321189
 20
297.20624923706049
 41
443.11926605504578
 11
0.0
 21
0.0
 31
1.0
 12
0.0
 22
0.0
 32
0.0
 42
50.0
 43
0.0
 44
0.0
 50
0.0
 71
     0
  0
VIEW
  2
AM_VIEW3
 70
     1
 40
210.0
 10
215.76588321825781
 20
87.206249237060547
 41
443.11926605504578
 11
0.0
 21
0.0
 31
1.0
 12
0.0
 22
0.0
 32
0.0
 42
50.0
 43
0.0
 44
0.0
 50
0.0
 71
     0
  0
VIEW
  2
AM_VIEW4
 70
     1
 40
210.0
 10
366.64661716321189
 20
87.206249237060547
 41
443.11926605504578
 11
0.0
 21
0.0
 31
1.0
 12
0.0
 22
0.0
 32
0.0
 42
50.0
 43
0.0
 44
0.0
 50
0.0
 71
     0
  0
VIEW
  2
AM_VIEW5
 70
     1
 40
210.0
 10
291.20625019073492
 20
192.20624923706049
 41
443.1192660550459
 11
0.0
 21
0.0
 31
1.0
 12
0.0
 22
0.0
 32
0.0
 42
50.0
 43
0.0
 44
0.0
 50
0.0
 71
     0
  0
VIEW
  2
AM_VIEW6
 70
     1
 40
419.99579999999997
 10
291.20625019073492
 20
192.20624923706049
 41
886.2296697247707
 11
0.0
 21
0.0
 31
1.0
 12
0.0
 22
0.0
 32
0.0
 42
50.0
 43
0.0
 44
0.0
 50
0.0
 71
     0
  0
ENDTAB
  0
TABLE
  2
UCS
 70
     0
  0
ENDTAB
  0
TABLE
  2
APPID
 70
    61
  0
APPID
  2
ACAD
 70
     0
  0
APPID
  2
MCAD_NO_VIS
 70
     0
  0
APPID
  2
ACAD_TEMP_GRAPHIC
 70
     0
  0
APPID
  2
GENIUS_GENODEF_13
 70
     0
  0
APPID
  2
GENIUS_GENOBJ-N-TIT_13
 70
     0
  0
APPID
  2
GENIUS_GENTITLE_13
 70
     0
  0
APPID
  2
GENIUS_GENOENT_13
 70
     0
  0
APPID
  2
GENIUS_GENOREF_13
 70
     0
  0
APPID
  2
GENIUS_GENOLIS_13
 70
     0
  0
APPID
  2
GENIUS_GENZVEED_13
 70
     0
  0
APPID
  2
GENIUS_GENSCREG_15
 70
     0
  0
APPID
  2
GENIUS_GENOBJ-N-SDF_13
 70
     0
  0
APPID
  2
GENIUS_GENOBJ-N-CEN_13
 70
     0
  0
APPID
  2
GENIUS_GENOBJ-N-SEC_13
 70
     0
  0
APPID
  2
GENIUS_GENREC_14
 70
     0
  0
APPID
  2
GENIUS_GENOBJ-N-REC_13
 70
     0
  0
APPID
  2
GENIUS_GENBH_13
 70
     0
  0
APPID
  2
GENIUS_GENOBJ-NBEHI-BHF_13
 70
     0
  0
APPID
  2
GENIUS_GENOBJ-NBEHI-BHB_13
 70
     0
  0
APPID
  2
GENIUS_GENDTOL_13
 70
     0
  0
APPID
  2
GENIUS_GENOBJ-N-HTC_13
 70
     0
  0
APPID
  2
GENIUS_GENHATCH_13
 70
     0
  0
APPID
  2
GENIUS_GENOBJ-N-CRS_13
 70
     0
  0
APPID
  2
GENIUS_GENOBJ-N-CRC_13
 70
     0
  0
APPID
  2
GENIUS_GENCRC_14
 70
     0
  0
APPID
  2
GENIUS_GENOBJ-F-SHCL_13
 70
     0
  0
APPID
  2
GENIUS_GEFMSH_13
 70
     0
  0
APPID
  2
GENIUS_GEFSH_13
 70
     0
  0
APPID
  2
GENIUS_GEFSHP_13
 70
     0
  0
APPID
  2
GENIUS_GENOBJ-F-SHS_13
 70
     0
  0
APPID
  2
GENIUS_GENOBJ-F-SHSS_13
 70
     0
  0
APPID
  2
GENIUS_GEFSHP0_13
 70
     0
  0
APPID
  2
GENIUS_GEFSH0_13
 70
     0
  0
APPID
  2
GEVID995428964
 70
     0
  0
APPID
  2
GEVDC
 70
     0
  0
APPID
  2
GENIUS_GENBH_14
 70
     0
  0
APPID
  2
GEVID995428965
 70
     0
  0
APPID
  2
GEVID995428966
 70
     0
  0
APPID
  2
GENIUS_GENBHRL_14
 70
     0
  0
APPID
  2
GEVID995428967
 70
     0
  0
APPID
  2
GEVID995428968
 70
     0
  0
APPID
  2
GENIUS_GENOBJ-F-SHCV_13
 70
     0
  0
APPID
  2
ACATTRIBSERVICES
 70
     0
  0
APPID
  2
GENIUS_GENTRA_14
 70
     0
  0
APPID
  2
DESIGNERASSEMBLIES
 70
     0
  0
APPID
  2
ACAD_NAV_VCDISPLAY
 70
     0
  0
APPID
  2
ACAD_DSTYLE_DIMJAG
 70
     0
  0
APPID
  2
ACAD_DSTYLE_DIMBREAK
 70
     0
  0
APPID
  2
ACAECLAYERSTANDARD
 70
     0
  0
APPID
  2
GENIUS_GENCEN_19
 70
     0
  0
APPID
  2
ACAD_EXEMPT_FROM_CAD_STANDARDS
 70
     0
  0
APPID
  2
GRADIENTCOLOR1ACI
 70
     0
  0
APPID
  2
GRADIENTCOLOR2ACI
 70
     0
  0
APPID
  2
ACAD_DSTYLE_DIMINSPECT
 70
     0
  0
APPID
  2
ACAD_MLEADERVER
 70
     0
  0
APPID
  2
ACAD_PSEXT
 70
     0
  0
APPID
  2
GENIUS_AMGTXT_16
 70
     0
  0
APPID
  2
ACAD_DSTYLE_DIMARC_LENGTH_
 70
     0
  0
APPID
  2
ACAD_DSTYLE_DIM_LINETYPE
 70
     0
  0
APPID
  2
ACAD_DSTYLE_DIM_EXT1_LINETYPE
 70
     0
  0
APPID
  2
ACAD_DSTYLE_DIM_EXT2_LINETYPE
 70
     0
  0
ENDTAB
  0
TABLE
  2
DIMSTYLE
 70
    16
  0
DIMSTYLE
  2
AM_JIS
 70
     0
  3

  4
"
  5
OPEN30
  6

  7

 40
1.0
 41
2.5
 42
1.0
 43
10.0
 44
1.0
 45
0.0
 46
0.0
 47
0.1
 48
0.1
140
3.5
141
0.0
142
0.0
143
0.0393701
144
1.0
145
0.0
146
0.71
147
1.5
 71
     1
 72
     0
 73
     0
 74
     0
 75
     0
 76
     0
 77
     3
 78
     8
170
     0
171
     2
172
     1
173
     0
174
     0
175
     0
176
   256
177
   256
178
     2
  0
DIMSTYLE
  2
AM_JIS$3
 70
     0
  3

  4
"
  5
OPEN30
  6

  7

 40
1.0
 41
2.5
 42
1.0
 43
10.0
 44
1.0
 45
0.0
 46
0.0
 47
0.1
 48
0.1
140
3.5
141
0.0
142
0.0
143
0.0393701
144
1.0
145
0.0
146
0.71
147
1.5
 71
     1
 72
     0
 73
     0
 74
     1
 75
     0
 76
     0
 77
     3
 78
     8
170
     0
171
     2
172
     0
173
     0
174
     0
175
     0
176
   256
177
   256
178
     2
  0
DIMSTYLE
  2
AM_JIS$4
 70
     0
  3

  4
"
  5
OPEN30
  6

  7

 40
1.0
 41
2.5
 42
1.0
 43
10.0
 44
1.0
 45
0.0
 46
0.0
 47
0.1
 48
0.1
140
3.5
141
0.0
142
0.0
143
0.0393701
144
1.0
145
0.0
146
0.71
147
1.5
 71
     1
 72
     0
 73
     0
 74
     1
 75
     0
 76
     0
 77
     3
 78
     8
170
     0
171
     2
172
     0
173
     0
174
     0
175
     0
176
   256
177
   256
178
     2
  0
DIMSTYLE
  2
AM_JIS$6
 70
     0
  3

  4
"
  5
OPEN30
  6

  7

 40
1.0
 41
2.5
 42
1.0
 43
10.0
 44
1.0
 45
0.0
 46
0.0
 47
0.1
 48
0.1
140
3.5
141
0.0
142
0.0
143
0.0393701
144
1.0
145
0.0
146
0.71
147
1.5
 71
     1
 72
     0
 73
     0
 74
     0
 75
     0
 76
     0
 77
     0
 78
     8
170
     0
171
     2
172
     1
173
     0
174
     0
175
     0
176
   256
177
   256
178
     2
  0
DIMSTYLE
  2
AM_JIS$7
 70
     0
  3

  4
"
  5
OPEN30
  6

  7

 40
1.0
 41
2.5
 42
1.0
 43
10.0
 44
1.0
 45
0.0
 46
0.0
 47
0.1
 48
0.1
140
5.0
141
0.0
142
0.0
143
0.0393701
144
1.0
145
0.0
146
0.71
147
1.5
 71
     1
 72
     0
 73
     0
 74
     0
 75
     0
 76
     0
 77
     3
 78
     8
170
     0
171
     2
172
     1
173
     0
174
     0
175
     0
176
   256
177
   256
178
     2
  0
DIMSTYLE
  2
AM_JIS$SF
 70
     0
  3

  4
"
  5
OPEN30
  6
OPEN30
  7
OPEN30
 40
1.0
 41
2.5
 42
1.0
 43
10.0
 44
1.0
 45
0.0
 46
0.0
 47
0.1
 48
0.1
140
3.5
141
0.0
142
0.0
143
0.0393701
144
1.0
145
0.0
146
0.71
147
1.5
 71
     0
 72
     0
 73
     0
 74
     0
 75
     1
 76
     1
 77
     3
 78
     8
170
     0
171
     2
172
     1
173
     0
174
     0
175
     0
176
   256
177
   256
178
     2
  0
DIMSTYLE
  2
AM_JIS$SH
 70
     0
  3

  4
"
  5
OPEN30
  6
GENAXEH
  7
OPEN30
 40
1.0
 41
2.5
 42
1.0
 43
10.0
 44
1.0
 45
0.0
 46
0.0
 47
0.1
 48
0.1
140
3.5
141
0.0
142
0.0
143
0.0393701
144
2.0
145
0.0
146
0.71
147
1.5
 71
     0
 72
     0
 73
     0
 74
     0
 75
     1
 76
     1
 77
     3
 78
     8
170
     0
171
     2
172
     1
173
     1
174
     0
175
     0
176
   256
177
   256
178
     2
  0
DIMSTYLE
  2
STANDARD
 70
     0
  3

  4

  5

  6

  7

 40
1.0
 41
0.18
 42
0.0625
 43
0.38
 44
0.18
 45
0.0
 46
0.0
 47
0.0
 48
0.0
140
0.18
141
0.09
142
0.0
143
25.399999999999999
144
1.0
145
0.0
146
1.0
147
0.09
 71
     0
 72
     0
 73
     1
 74
     1
 75
     0
 76
     0
 77
     0
 78
     0
170
     0
171
     2
172
     0
173
     0
174
     0
175
     0
176
     0
177
     0
178
     0
  0
DIMSTYLE
  2
AM_ISO
 70
     0
  3

  4
"
  5

  6

  7

 40
1.0
 41
3.5
 42
1.0
 43
10.0
 44
1.0
 45
0.0
 46
0.0
 47
0.1
 48
0.1
140
3.5
141
0.0
142
0.0
143
0.0393701
144
1.0
145
0.0
146
0.71
147
1.5
 71
     0
 72
     0
 73
     0
 74
     0
 75
     0
 76
     0
 77
     1
 78
     8
170
     0
171
     2
172
     1
173
     0
174
     0
175
     0
176
   256
177
   256
178
     2
  0
DIMSTYLE
  2
AM_ISO$3
 70
     0
  3

  4
"
  5

  6

  7

 40
1.0
 41
3.5
 42
1.0
 43
10.0
 44
1.0
 45
0.0
 46
0.0
 47
0.1
 48
0.1
140
3.5
141
0.0
142
0.0
143
0.0393701
144
1.0
145
0.0
146
0.71
147
1.5
 71
     0
 72
     0
 73
     0
 74
     1
 75
     0
 76
     0
 77
     1
 78
     8
170
     0
171
     2
172
     0
173
     0
174
     0
175
     0
176
   256
177
   256
178
     2
  0
DIMSTYLE
  2
AM_ISO$4
 70
     0
  3

  4
"
  5

  6

  7

 40
1.0
 41
3.5
 42
1.0
 43
10.0
 44
1.0
 45
0.0
 46
0.0
 47
0.1
 48
0.1
140
3.5
141
0.0
142
0.0
143
0.0393701
144
1.0
145
0.0
146
0.71
147
1.5
 71
     0
 72
     0
 73
     0
 74
     1
 75
     0
 76
     0
 77
     1
 78
     8
170
     0
171
     2
172
     0
173
     0
174
     0
175
     0
176
   256
177
   256
178
     2
  0
DIMSTYLE
  2
AM_ISO$6
 70
     0
  3

  4
"
  5

  6

  7

 40
1.0
 41
3.5
 42
1.0
 43
10.0
 44
1.0
 45
0.0
 46
0.0
 47
0.1
 48
0.1
140
3.5
141
0.0
142
0.0
143
0.0393701
144
1.0
145
0.0
146
0.71
147
1.5
 71
     0
 72
     0
 73
     0
 74
     0
 75
     0
 76
     0
 77
     0
 78
     8
170
     0
171
     2
172
     1
173
     0
174
     0
175
     0
176
   256
177
   256
178
     2
  0
DIMSTYLE
  2
AM_ISO$7
 70
     0
  3

  4
"
  5

  6

  7

 40
1.0
 41
3.5
 42
1.0
 43
10.0
 44
1.0
 45
0.0
 46
0.0
 47
0.1
 48
0.1
140
3.5
141
0.0
142
0.0
143
0.0393701
144
1.0
145
0.0
146
0.71
147
1.5
 71
     0
 72
     0
 73
     0
 74
     0
 75
     0
 76
     0
 77
     1
 78
     8
170
     0
171
     2
172
     1
173
     0
174
     0
175
     0
176
   256
177
   256
178
     2
  0
DIMSTYLE
  2
AM_ISO$SF
 70
     0
  3

  4
"
  5

  6

  7

 40
1.0
 41
3.5
 42
1.0
 43
10.0
 44
1.0
 45
0.0
 46
0.0
 47
0.1
 48
0.1
140
3.5
141
0.0
142
0.0
143
0.0393701
144
1.0
145
0.0
146
0.71
147
1.5
 71
     0
 72
     0
 73
     0
 74
     0
 75
     1
 76
     1
 77
     1
 78
     8
170
     0
171
     2
172
     1
173
     0
174
     0
175
     0
176
   256
177
   256
178
     2
  0
DIMSTYLE
  2
AM_ISO$SH
 70
     0
  3

  4
"
  5

  6
GENAXEH
  7

 40
1.0
 41
3.5
 42
1.0
 43
10.0
 44
1.0
 45
0.0
 46
0.0
 47
0.1
 48
0.1
140
3.5
141
0.0
142
0.0
143
0.0393701
144
2.0
145
0.0
146
0.71
147
1.5
 71
     0
 72
     0
 73
     0
 74
     0
 75
     1
 76
     1
 77
     1
 78
     8
170
     0
171
     2
172
     1
173
     1
174
     0
175
     0
176
   256
177
   256
178
     2
  0
ENDTAB
  0
ENDSEC
  0
SECTION
  2
BLOCKS
  0
BLOCK
  8
0
  2
$MODEL_SPACE
 70
     2
 10
0.0
 20
0.0
 30
0.0
  3
$MODEL_SPACE
  1

  0
ENDBLK
  5
A
  8
0
  0
BLOCK
 67
     1
  8
0
  2
$PAPER_SPACE
 70
     0
 10
0.0
 20
0.0
 30
0.0
  3
$PAPER_SPACE
  1

  0
ENDBLK
  5
6599
 67
     1
  8
0
  0
BLOCK
  8
0
  2
GENAXEH
 70
     0
 10
0.0
 20
0.0
 30
0.0
  3
GENAXEH
  1

  0
LINE
  5
98
  8
0
 10
-1.0
 20
0.0
 30
0.0
 11
1.0
 21
0.0
 31
0.0
  0
ENDBLK
  5
9A
  8
0
  0
BLOCK
  8
0
 62
     0
  2
_OPEN30
 70
     0
 10
0.0
 20
0.0
 30
0.0
  3
_OPEN30
  1

  0
LINE
  5
21
  8
0
 62
     0
 10
-1.0
 20
0.26794919
 30
0.0
 11
0.0
 21
0.0
 31
0.0
  0
LINE
  5
22
  8
0
 62
     0
 10
0.0
 20
0.0
 30
0.0
 11
-1.0
 21
-0.26794919
 31
0.0
  0
LINE
  5
23
  8
0
 62
     0
 10
0.0
 20
0.0
 30
0.0
 11
-1.0
 21
0.0
 31
0.0
  0
ENDBLK
  5
25
  8
0
 62
     0
  0
BLOCK
  8
0
  2
*U4
 70
     1
 10
0.0
 20
0.0
 30
0.0
  3
*U4
  1

  0
TEXT
  5
679E
  8
0
 62
     2
 10
199.884319929627
 20
153.28619327573799
 30
0.0
 40
3.5
  1
PM-L25
  0
ENDBLK
  5
67A0
  8
0
  0
ENDSEC
  0
SECTION
  2
ENTITIES
  0
LINE
  5
5B2E
  8
0
  6
CONTINUOUS
 62
     7
 10
196.1070150176196
 20
168.27338015986049
 30
0.0
 11
206.1070150176196
 21
168.27338015986049
 31
0.0
  0
LINE
  5
5B2F
  8
0
  6
CONTINUOUS
 62
     7
 10
206.1070150176196
 20
170.7733799875659
 30
0.0
 11
196.1070150176196
 21
170.7733799875659
 31
0.0
  0
LINE
  5
5B30
  8
0
  6
CONTINUOUS
 62
     7
 10
206.1070150176196
 20
170.7733799875659
 30
0.0
 11
206.1070150176196
 21
168.27338015986049
 31
0.0
  0
LINE
  5
5B52
  8
0
  6
CONTINUOUS
 62
     7
 10
190.1070154311268
 20
179.5233801412341
 30
0.0
 11
190.1070154311268
 21
171.5233799940851
 31
0.0
  0
LINE
  5
5B54
  8
0
  6
CONTINUOUS
 62
     7
 10
184.1070153789727
 20
167.52338003692589
 30
0.0
 11
196.1070150176196
 21
167.52338003692589
 31
0.0
  0
LINE
  5
5B55
  8
0
  6
CONTINUOUS
 62
     7
 10
184.1070153789727
 20
167.52338003692589
 30
0.0
 11
184.1070153789727
 21
179.5233801412341
 31
0.0
  0
LINE
  5
5B5E
  8
0
  6
CONTINUOUS
 62
     7
 10
184.1070153789727
 20
179.5233801412341
 30
0.0
 11
190.1070154311268
 21
179.5233801412341
 31
0.0
  0
LINE
  5
5B61
  8
0
  6
CONTINUOUS
 62
     7
 10
190.1070154311268
 20
171.5233799940851
 30
0.0
 11
196.1070150176196
 21
171.5233799940851
 31
0.0
  0
LINE
  5
5B68
  8
0
  6
CONTINUOUS
 62
     7
 10
196.1070150176196
 20
167.52338003692589
 30
0.0
 11
196.1070150176196
 21
171.5233799940851
 31
0.0
  0
LINE
  5
5B6C
  8
0
  6
CENTER
 62
     4
 10
187.10701540504971
 20
180.0089126489766
 30
0.0
 11
187.10701540504971
 21
166.44733802148431
 31
0.0
  0
LINE
  5
5B77
  8
0
  6
CONTINUOUS
 62
     7
 10
160.08374592007709
 20
200.56779730882221
 30
0.0
 11
160.08374592007709
 21
210.56779730882221
 31
0.0
  0
LINE
  5
5B78
  8
0
  6
CONTINUOUS
 62
     7
 10
157.58374597595639
 20
210.56779730882221
 30
0.0
 11
157.58374597595639
 21
200.56779730882221
 31
0.0
  0
LINE
  5
5B79
  8
0
  6
CONTINUOUS
 62
     7
 10
157.58374597595639
 20
210.56779730882221
 30
0.0
 11
160.08374592007709
 21
210.56779730882221
 31
0.0
  0
LINE
  5
5BFE
  8
0
  6
CONTINUOUS
 62
     7
 10
161.8337459740938
 20
195.25994338843699
 30
0.0
 11
155.83374592193971
 21
195.25994338843699
 31
0.0
  0
LINE
  5
5BFF
  8
0
  6
CONTINUOUS
 62
     7
 10
155.83374592193971
 20
190.8756515644836
 30
0.0
 11
161.8337459740938
 21
190.8756515644836
 31
0.0
  0
LINE
  5
5C1B
  8
0
  6
CONTINUOUS
 62
     7
 10
165.53374574238069
 20
202.06779708903011
 30
0.0
 11
165.53374574238069
 21
190.06779745038321
 31
0.0
  0
LINE
  5
5C23
  8
0
  6
CONTINUOUS
 62
     7
 10
152.13374615365279
 20
190.06779745038321
 30
0.0
 11
152.13374615365279
 21
202.06779708903011
 31
0.0
  0
LINE
  5
5C6A
  8
0
  6
CONTINUOUS
 62
     7
 10
165.53374574238069
 20
190.06779745038321
 30
0.0
 11
152.13374615365279
 21
190.06779745038321
 31
0.0
  0
LINE
  5
5C6C
  8
0
  6
CONTINUOUS
 62
     7
 10
165.53374574238069
 20
196.0677975025373
 30
0.0
 11
152.13374615365279
 21
196.0677975025373
 31
0.0
  0
LINE
  5
5C70
  8
0
  6
CONTINUOUS
 62
     7
 10
164.43374574834121
 20
198.9177973177629
 30
0.0
 11
164.43374574834121
 21
199.06779752861431
 31
0.0
  0
ARC
  5
5C71
  8
0
  6
CONTINUOUS
 62
     7
 10
162.8337459480168
 20
199.0677974764603
 30
0.0
 40
1.600000000000005
 50
0.0
 51
180.0
  0
LINE
  5
5C72
  8
0
  6
CONTINUOUS
 62
     7
 10
161.2337460620106
 20
199.06779752861431
 30
0.0
 11
161.2337460620106
 21
198.9177973177629
 31
0.0
  0
ARC
  5
5C73
  8
0
  6
CONTINUOUS
 62
     7
 10
162.8337459480168
 20
198.91779747646029
 30
0.0
 40
1.600000000000005
 50
180.0
 51
0.0
  0
LINE
  5
5C74
  8
0
  6
CONTINUOUS
 62
     7
 10
156.43374583402289
 20
198.9177973177629
 30
0.0
 11
156.43374583402289
 21
199.06779752861431
 31
0.0
  0
ARC
  5
5C75
  8
0
  6
CONTINUOUS
 62
     7
 10
154.83374594801671
 20
199.0677974764603
 30
0.0
 40
1.6000000000000001
 50
0.0
 51
180.0
  0
LINE
  5
5C76
  8
0
  6
CONTINUOUS
 62
     7
 10
153.2337461476923
 20
199.06779752861431
 30
0.0
 11
153.2337461476923
 21
198.9177973177629
 31
0.0
  0
ARC
  5
5C77
  8
0
  6
CONTINUOUS
 62
     7
 10
154.83374594801671
 20
198.91779747646029
 30
0.0
 40
1.6000000000000001
 50
180.0
 51
0.0
  0
LINE
  5
5C7D
  8
0
  6
CONTINUOUS
 62
     7
 10
156.8337459480168
 20
200.56779730882221
 30
0.0
 11
160.8337459480168
 21
200.56779730882221
 31
0.0
  0
LINE
  5
5C83
  8
0
  6
CONTINUOUS
 62
     7
 10
160.8337459480168
 20
202.06779708903011
 30
0.0
 11
165.53374574238069
 21
202.06779708903011
 31
0.0
  0
LINE
  5
5C84
  8
0
  6
CONTINUOUS
 62
     7
 10
152.13374615365279
 20
202.06779708903011
 30
0.0
 11
156.8337459480168
 21
202.06779708903011
 31
0.0
  0
LINE
  5
5C87
  8
0
  6
CENTER
 62
     4
 10
166.3120737522288
 20
193.0677974764603
 30
0.0
 11
151.08535615960719
 21
193.0677974764603
 31
0.0
  0
LINE
  5
5C88
  8
0
  6
CENTER
 62
     4
 10
158.83374594801671
 20
189.1349465662872
 30
0.0
 11
158.83374594801671
 21
211.82238568356371
 31
0.0
  0
LINE
  5
5C89
  8
0
  6
CENTER
 62
     4
 10
162.8337459480168
 20
196.9426603390055
 30
0.0
 11
162.8337459480168
 21
201.19328989220841
 31
0.0
  0
LINE
  5
5C8A
  8
0
  6
CENTER
 62
     4
 10
156.76121928219149
 20
199.0677974764603
 30
0.0
 11
153.11494001351329
 21
199.0677974764603
 31
0.0
  0
LINE
  5
5C8B
  8
0
  6
CENTER
 62
     4
 10
154.83374594801671
 20
196.9426603390055
 30
0.0
 11
154.83374594801671
 21
201.0189050900257
 31
0.0
  0
LINE
  5
5C8C
  8
0
  6
CENTER
 62
     4
 10
156.76121928219149
 20
198.91779747646029
 30
0.0
 11
153.11494001351329
 21
198.91779747646029
 31
0.0
  0
LINE
  5
5C8D
  8
0
  6
CENTER
 62
     4
 10
164.72914114487801
 20
198.91779747646029
 30
0.0
 11
160.91025131517199
 21
198.91779747646029
 31
0.0
  0
LINE
  5
5C8E
  8
0
  6
CENTER
 62
     4
 10
164.72914114487801
 20
199.0677974764603
 30
0.0
 11
160.91025131517199
 21
199.0677974764603
 31
0.0
  0
POINT
  5
5C90
  8
0
  6
CONTINUOUS
 62
     7
 10
154.83374594801671
 20
200.66779747646029
 30
0.0
 50
180.0
  0
LINE
  5
5E80
  8
0
  6
CONTINUOUS
 62
     7
 10
165.53374574238069
 20
179.5233801412341
 30
0.0
 11
165.53374574238069
 21
167.52338003692589
 31
0.0
  0
LINE
  5
5E85
  8
0
  6
CONTINUOUS
 62
     7
 10
152.13374615365279
 20
167.52338003692589
 30
0.0
 11
165.53374574238069
 21
167.52338003692589
 31
0.0
  0
LINE
  5
5E88
  8
0
  6
CONTINUOUS
 62
     7
 10
152.13374615365279
 20
167.52338003692589
 30
0.0
 11
152.13374615365279
 21
179.5233801412341
 31
0.0
  0
LINE
  5
5E8D
  8
0
  6
CONTINUOUS
 62
     7
 10
155.83374592193971
 20
173.02337994891599
 30
0.0
 11
161.8337459740938
 21
173.02337994891599
 31
0.0
  0
LINE
  5
5E9D
  8
0
  6
CONTINUOUS
 62
     7
 10
152.13374615365279
 20
179.5233801412341
 30
0.0
 11
155.83374592193971
 21
179.5233801412341
 31
0.0
  0
LINE
  5
5EA1
  8
0
  6
CONTINUOUS
 62
     7
 10
161.8337459740938
 20
173.72338405670041
 30
0.0
 11
155.83374592193971
 21
173.72338405670041
 31
0.0
  0
LINE
  5
5EA2
  8
0
  6
CONTINUOUS
 62
     7
 10
161.8337459740938
 20
174.02337993820581
 30
0.0
 11
155.83374592193971
 21
174.02337993820581
 31
0.0
  0
LINE
  5
5ECB
  8
0
  6
CONTINUOUS
 62
     7
 10
165.53374574238069
 20
179.5233801412341
 30
0.0
 11
161.8337459740938
 21
179.5233801412341
 31
0.0
  0
LINE
  5
65B2
  8
0
  6
CONTINUOUS
 62
     7
 10
155.83374592193971
 20
173.02337994891599
 30
0.0
 11
155.83374592193971
 21
179.5233801412341
 31
0.0
  0
LINE
  5
65B3
  8
0
  6
CONTINUOUS
 62
     7
 10
161.8337459740938
 20
173.02337994891599
 30
0.0
 11
161.8337459740938
 21
179.5233801412341
 31
0.0
  0
LINE
  5
65B6
  8
0
  6
CONTINUOUS
 62
     7
 10
155.83374592193971
 20
196.0677975025373
 30
0.0
 11
155.83374592193971
 21
190.06779745038321
 31
0.0
  0
LINE
  5
65B7
  8
0
  6
CONTINUOUS
 62
     7
 10
155.83374592193971
 20
190.5677974764603
 30
0.0
 11
161.8337459740938
 21
190.5677974764603
 31
0.0
  0
LINE
  5
65B8
  8
0
  6
CONTINUOUS
 62
     7
 10
161.8337459740938
 20
190.06779745038321
 30
0.0
 11
161.8337459740938
 21
196.0677975025373
 31
0.0
  0
LINE
  5
65B9
  8
0
  6
CONTINUOUS
 62
     7
 10
161.8337459740938
 20
195.5677974764603
 30
0.0
 11
155.83374592193971
 21
195.5677974764603
 31
0.0
  0
LINE
  5
65BC
  8
0
  6
CONTINUOUS
 62
     7
 10
156.8337459480168
 20
200.56779730882221
 30
0.0
 11
156.8337459480168
 21
202.06779708903011
 31
0.0
  0
LINE
  5
65BD
  8
0
  6
CONTINUOUS
 62
     7
 10
160.8337459480168
 20
200.56779730882221
 30
0.0
 11
160.8337459480168
 21
202.06779708903011
 31
0.0
  0
LINE
  5
65BE
  8
0
  6
CENTER
 62
     4
 10
158.83374594801671
 20
166.5905291528299
 30
0.0
 11
158.83374594801671
 21
181.1628963437619
 31
0.0
  0
LINE
  5
65C8
  8
0
  6
CENTER
 62
     4
 10
195.00346086152371
 20
169.52338007371321
 30
0.0
 11
208.01624023411631
 21
169.52338007371321
 31
0.0
  0
INSERT
  5
65CA
  8
0
  2
*U4
 10
0.0
 20
0.0
 30
0.0
  0
LINE
  5
65D4
  8
0
  6
CENTER
 62
     4
 10
182.32563465770011
 20
177.5233801412341
 30
0.0
 11
192.052999794844
 21
177.5233801412341
 31
0.0
  0
LINE
  5
66F3
  8
0
  6
CONTINUOUS
 62
     2
 10
156.35620469492119
 20
177.5233801412341
 30
0.0
 11
158.0764762466377
 21
177.98432551427871
 31
0.0
  0
LINE
  5
66F4
  8
0
  6
CONTINUOUS
 62
     2
 10
156.35620469492119
 20
177.5233801412341
 30
0.0
 11
158.0764762466377
 21
177.06243476818941
 31
0.0
  0
LINE
  5
66F5
  8
0
  6
CONTINUOUS
 62
     2
 10
156.35620469492119
 20
177.5233801412341
 30
0.0
 11
161.31128720111229
 21
177.5233801412341
 31
0.0
  0
LINE
  5
66FA
  8
0
  6
CONTINUOUS
 62
     2
 10
156.35620469492119
 20
193.0677974764603
 30
0.0
 11
158.0764762466377
 21
193.52874284950491
 31
0.0
  0
LINE
  5
66FB
  8
0
  6
CONTINUOUS
 62
     2
 10
156.35620469492119
 20
193.0677974764603
 30
0.0
 11
158.0764762466377
 21
192.6068521034156
 31
0.0
  0
LINE
  5
66FC
  8
0
  6
CONTINUOUS
 62
     2
 10
156.35620469492119
 20
193.0677974764603
 30
0.0
 11
161.31128720111229
 21
193.0677974764603
 31
0.0
  0
VIEWPORT
  5
659D
 67
     1
  8
0
 10
142.61041259765619
 20
99.112914085388184
 30
0.0
 40
362.3189755670457
 41
222.15178063964851
 68
     1
 69
     1
1001
ACAD
1000
MVIEW
1002
{
1070
    16
1010
0.0
1020
0.0
1030
0.0
1010
0.0
1020
0.0
1030
1.0
1040
0.0
1040
222.15178063964851
1040
142.61041259765619
1040
99.112914085388184
1040
50.0
1040
0.0
1040
0.0
1070
     0
1070
   100
1070
     1
1070
     1
1070
     0
1070
     0
1070
     0
1070
     0
1040
0.0
1040
0.0
1040
0.0
1040
10.0
1040
10.0
1040
10.0
1040
10.0
1070
     0
1002
{
1002
}
1002
}
1001
GENIUS_GENOBJ-N-SDF_13
1002
{
1000
OWNER
1000
GEN
1002
}
1001
GENIUS_GENODEF_13
1002
{
1000
HIER
1070
     0
1002
}
1002
{
1000
MANEDIT
1070
     0
1002
}
1002
{
1000
NOSEL
1070
     0
1002
}
1002
{
1000
BEHIND
1070
     0
1002
}
1002
{
1000
OTHER
1070
     0
1002
}
1002
{
1000
REACTOR
1002
}
1001
GENIUS_GENSCREG_15
1000
PF
1040
1.0
1000
DF
1040
1.0
1000
MIN
1011
-38.54907518586657
1021
0.0
1031
0.0
1021
-11.96297623443604
1031
0.0
1000
MAX
1011
323.76990038117913
1021
0.0
1031
0.0
1021
210.18880440521241
1031
0.0
1000
FLAGS
1070
     4
  0
ENDSEC
  0
EOF
