  0
SECTION
  2
HEADER
  9
$ACADVER
  1
AC1009
  9
$INSBASE
 10
177.9999997912175
 20
6.7085914059697132
 30
0.0
  9
$EXTMIN
 10
48.207802369887418
 20
548.25690458290057
 30
0.0
  9
$EXTMAX
 10
155.9313767998367
 20
656.13926814015019
 30
0.0
  9
$LIMMIN
 10
-185.22394776397229
 20
352.48648918188883
  9
$LIMMAX
 10
-7.2239477639723182
 20
600.78648918188867
  9
$ORTHOMODE
 70
     0
  9
$REGENMODE
 70
     1
  9
$FILLMODE
 70
     1
  9
$QTEXTMODE
 70
     0
  9
$MIRRTEXT
 70
     1
  9
$DRAGMODE
 70
     2
  9
$LTSCALE
 40
1.0
  9
$OSMODE
 70
   549
  9
$ATTMODE
 70
     1
  9
$TEXTSIZE
 40
5.0
  9
$TRACEWID
 40
1.0
  9
$TEXTSTYLE
  7
STANDARD
  9
$CLAYER
  8
0
  9
$CELTYPE
  6
BYLAYER
  9
$CECOLOR
 62
   256
  9
$DIMSCALE
 40
1.0
  9
$DIMASZ
 40
2.5
  9
$DIMEXO
 40
1.0
  9
$DIMDLI
 40
10.0
  9
$DIMRND
 40
0.0
  9
$DIMDLE
 40
0.0
  9
$DIMEXE
 40
1.0
  9
$DIMTP
 40
0.1
  9
$DIMTM
 40
0.1
  9
$DIMTXT
 40
3.5
  9
$DIMCEN
 40
0.0
  9
$DIMTSZ
 40
0.0
  9
$DIMTOL
 70
     1
  9
$DIMLIM
 70
     0
  9
$DIMTIH
 70
     0
  9
$DIMTOH
 70
     0
  9
$DIMSE1
 70
     0
  9
$DIMSE2
 70
     0
  9
$DIMTAD
 70
     3
  9
$DIMZIN
 70
     8
  9
$DIMBLK
  1
OPEN30
  9
$DIMASO
 70
     1
  9
$DIMSHO
 70
     1
  9
$DIMPOST
  1

  9
$DIMAPOST
  1
"
  9
$DIMALT
 70
     0
  9
$DIMALTD
 70
     2
  9
$DIMALTF
 40
0.0393701
  9
$DIMLFAC
 40
1.0
  9
$DIMTOFL
 70
     1
  9
$DIMTVP
 40
0.0
  9
$DIMTIX
 70
     0
  9
$DIMSOXD
 70
     0
  9
$DIMSAH
 70
     0
  9
$DIMBLK1
  1

  9
$DIMBLK2
  1

  9
$DIMSTYLE
  2
AM_JIS
  9
$DIMCLRD
 70
   256
  9
$DIMCLRE
 70
   256
  9
$DIMCLRT
 70
     2
  9
$DIMTFAC
 40
0.71
  9
$DIMGAP
 40
1.5
  9
$LUNITS
 70
     2
  9
$LUPREC
 70
     2
  9
$SKETCHINC
 40
1.0
  9
$FILLETRAD
 40
0.0
  9
$AUNITS
 70
     0
  9
$AUPREC
 70
     0
  9
$MENU
  1
.
  9
$ELEVATION
 40
0.0
  9
$PELEVATION
 40
0.0
  9
$THICKNESS
 40
0.0
  9
$LIMCHECK
 70
     0
  9
$BLIPMODE
 70
     0
  9
$CHAMFERA
 40
0.0
  9
$CHAMFERB
 40
0.0
  9
$SKPOLY
 70
     0
  9
$TDCREATE
 40
2456442.4687185879
  9
$TDUPDATE
 40
2456486.642315567
  9
$TDINDWG
 40
0.0221802778
  9
$TDUSRTIMER
 40
0.0221716435
  9
$USRTIMER
 70
     1
  9
$ANGBASE
 50
0.0
  9
$ANGDIR
 70
     0
  9
$PDMODE
 70
     0
  9
$PDSIZE
 40
0.0
  9
$PLINEWID
 40
0.0
  9
$COORDS
 70
     1
  9
$SPLFRAME
 70
     0
  9
$SPLINETYPE
 70
     6
  9
$SPLINESEGS
 70
     8
  9
$ATTDIA
 70
     1
  9
$ATTREQ
 70
     1
  9
$HANDLING
 70
     1
  9
$HANDSEED
  5
450A
  9
$SURFTAB1
 70
     6
  9
$SURFTAB2
 70
     6
  9
$SURFTYPE
 70
     6
  9
$SURFU
 70
     6
  9
$SURFV
 70
     6
  9
$UCSNAME
  2

  9
$UCSORG
 10
0.0
 20
0.0
 30
0.0
  9
$UCSXDIR
 10
1.0
 20
0.0
 30
0.0
  9
$UCSYDIR
 10
0.0
 20
1.0
 30
0.0
  9
$PUCSNAME
  2

  9
$PUCSORG
 10
0.0
 20
0.0
 30
0.0
  9
$PUCSXDIR
 10
1.0
 20
0.0
 30
0.0
  9
$PUCSYDIR
 10
0.0
 20
1.0
 30
0.0
  9
$USERI1
 70
     0
  9
$USERI2
 70
     0
  9
$USERI3
 70
     0
  9
$USERI4
 70
     0
  9
$USERI5
 70
     0
  9
$USERR1
 40
0.0
  9
$USERR2
 40
0.0
  9
$USERR3
 40
0.0
  9
$USERR4
 40
0.0
  9
$USERR5
 40
0.0
  9
$WORLDVIEW
 70
     1
  9
$SHADEDGE
 70
     3
  9
$SHADEDIF
 70
    70
  9
$TILEMODE
 70
     1
  9
$MAXACTVP
 70
    64
  9
$PLIMCHECK
 70
     0
  9
$PEXTMIN
 10
0.0
 20
0.0
 30
0.0
  9
$PEXTMAX
 10
0.0
 20
0.0
 30
0.0
  9
$PLIMMIN
 10
0.0
 20
0.0
  9
$PLIMMAX
 10
12.0
 20
9.0
  9
$UNITMODE
 70
     0
  9
$VISRETAIN
 70
     1
  9
$PLINEGEN
 70
     0
  9
$PSLTSCALE
 70
     1
  0
ENDSEC
  0
SECTION
  2
TABLES
  0
TABLE
  2
VPORT
 70
     1
  0
VPORT
  2
*ACTIVE
 70
     0
 10
0.0
 20
0.0
 11
1.0
 21
1.0
 12
102.7671698931367
 22
582.83134286288191
 13
0.0
 23
0.0
 14
2.5
 24
2.5
 15
10.0
 25
10.0
 16
0.0
 26
0.0
 36
1.0
 17
0.0
 27
0.0
 37
0.0
 40
255.4161989854083
 41
1.443645083932853
 42
50.0
 43
0.0
 44
0.0
 50
0.0
 51
0.0
 71
     0
 72
   100
 73
     1
 74
     1
 75
     0
 76
     0
 77
     0
 78
     0
  0
ENDTAB
  0
TABLE
  2
LTYPE
 70
    16
  0
LTYPE
  2
CONTINUOUS
 70
     0
  3
Solid line
 72
    65
 73
     0
 40
0.0
  0
LTYPE
  2
PHANTOM2
 70
     0
  3
Phantom (.5x) ___ _ _ ___ _ _ ___ _ _ ___ _ _
 72
    65
 73
     6
 40
1.25
 49
0.625
 49
-0.125
 49
0.125
 49
-0.125
 49
0.125
 49
-0.125
  0
LTYPE
  2
AMCONSTR
 70
     0
  3
_______________________
 72
    65
 73
     2
 40
9999.0
 49
9999.0
 49
0.0
  0
LTYPE
  2
CENTER
 70
     0
  3
____ _ ____ _
 72
    65
 73
     4
 40
13.42150481887249
 49
8.3884405117953058
 49
-1.6776881023590591
 49
1.6776881023590591
 49
-1.6776881023590591
  0
LTYPE
  2
HIDDEN
 70
     0
  3
_ _ _ _ _ _ _
 72
    65
 73
     2
 40
2.5165321535385901
 49
1.6776881023590591
 49
-0.8388440511795305
  0
LTYPE
  2
CENTER2
 70
     0
  3
Center (.5x) ___ _ ___ _ ___ _ ___ _ ___ _ ___
 72
    65
 73
     4
 40
1.125
 49
0.75
 49
-0.125
 49
0.125
 49
-0.125
  0
LTYPE
  2
HIDDEN2
 70
     0
  3
Hidden (.5x) _ _ _ _ _ _ _ _ _ _ _ _ _ _ _ _ _
 72
    65
 73
     2
 40
0.1875
 49
0.125
 49
-0.0625
  0
LTYPE
  2
AMZIGZAG2
 70
     0
  3
/\/-/\/-/\/-/\/-/\/-/\/
 72
    65
 73
     2
 40
0.4401
 49
0.0001
 49
-0.4400000000000003
  0
LTYPE
  2
ACANSTGB
 70
     0
  3
__ . . __ . .
 72
    65
 73
     6
 40
0.35433070866
 49
0.15748031496
 49
-0.03937007874
 49
0.03937007874
 49
-0.03937007874
 49
0.03937007874
 49
-0.03937007874
  0
LTYPE
  2
ACANSTGL
 70
     0
  3
_ _ _ _ _
 72
    65
 73
     2
 40
0.11811023622
 49
0.07874015748
 49
-0.03937007874
  0
ENDTAB
  0
TABLE
  2
LAYER
 70
     3
  0
LAYER
  2
0
 70
     0
 62
     7
  6
CONTINUOUS
  0
LAYER
  2
DEFPOINTS
 70
     0
 62
     7
  6
CONTINUOUS
  0
ENDTAB
  0
TABLE
  2
STYLE
 70
     5
  0
STYLE
  2
STANDARD
 70
     0
 40
0.0
 41
1.0
 50
0.0
 71
     0
 42
5.0
  3
isocp.shx
  4
extfont.shx
  0
STYLE
  2
ACANSGDT
 70
     0
 40
0.0
 41
1.0
 50
0.0
 71
     0
 42
5.0
  3
amgdt.shx
  4

  0
ENDTAB
  0
TABLE
  2
VIEW
 70
     6
  0
VIEW
  2
AM_VIEW1
 70
     1
 40
148.46299743652341
 10
150.7615237454755
 20
216.82074642181399
 41
313.27054504954492
 11
0.0
 21
0.0
 31
1.0
 12
0.0
 22
0.0
 32
0.0
 42
50.0
 43
0.0
 44
0.0
 50
0.0
 71
     0
  0
VIEW
  2
AM_VIEW2
 70
     1
 40
148.46299743652341
 10
257.43763396936822
 20
216.82074642181399
 41
313.27054504954492
 11
0.0
 21
0.0
 31
1.0
 12
0.0
 22
0.0
 32
0.0
 42
50.0
 43
0.0
 44
0.0
 50
0.0
 71
     0
  0
VIEW
  2
AM_VIEW3
 70
     1
 40
148.46299743652341
 10
150.7615237454755
 20
68.357748985290513
 41
313.27054504954492
 11
0.0
 21
0.0
 31
1.0
 12
0.0
 22
0.0
 32
0.0
 42
50.0
 43
0.0
 44
0.0
 50
0.0
 71
     0
  0
VIEW
  2
AM_VIEW4
 70
     1
 40
148.46299743652341
 10
257.43763396936822
 20
68.357748985290513
 41
313.27054504954492
 11
0.0
 21
0.0
 31
1.0
 12
0.0
 22
0.0
 32
0.0
 42
50.0
 43
0.0
 44
0.0
 50
0.0
 71
     0
  0
VIEW
  2
AM_VIEW5
 70
     1
 40
148.46299743652341
 10
204.0995788574219
 20
142.58924770355219
 41
313.27054504954481
 11
0.0
 21
0.0
 31
1.0
 12
0.0
 22
0.0
 32
0.0
 42
50.0
 43
0.0
 44
0.0
 50
0.0
 71
     0
  0
VIEW
  2
AM_VIEW6
 70
     1
 40
296.92302561309828
 10
204.0995788574219
 20
142.58924770355219
 41
626.53482468818868
 11
0.0
 21
0.0
 31
1.0
 12
0.0
 22
0.0
 32
0.0
 42
50.0
 43
0.0
 44
0.0
 50
0.0
 71
     0
  0
ENDTAB
  0
TABLE
  2
UCS
 70
     0
  0
ENDTAB
  0
TABLE
  2
APPID
 70
    53
  0
APPID
  2
ACAD
 70
     0
  0
APPID
  2
ACADANNOTATIVE
 70
     0
  0
APPID
  2
MCAD_NO_VIS
 70
     0
  0
APPID
  2
ACAD_TEMP_GRAPHIC
 70
     0
  0
APPID
  2
GENIUS_GENODEF_13
 70
     0
  0
APPID
  2
GENIUS_GENOBJ-N-TIT_13
 70
     0
  0
APPID
  2
GENIUS_GENTITLE_13
 70
     0
  0
APPID
  2
GENIUS_GENOENT_13
 70
     0
  0
APPID
  2
GENIUS_GENOREF_13
 70
     0
  0
APPID
  2
GENIUS_GENOLIS_13
 70
     0
  0
APPID
  2
GENIUS_GENZVEED_13
 70
     0
  0
APPID
  2
GENIUS_GENSCREG_15
 70
     0
  0
APPID
  2
GENIUS_GENOBJ-N-SDF_13
 70
     0
  0
APPID
  2
GENIUS_GENOBJ-N-CEN_13
 70
     0
  0
APPID
  2
GENIUS_GENOBJ-N-SEC_13
 70
     0
  0
APPID
  2
GENIUS_GENREC_14
 70
     0
  0
APPID
  2
GENIUS_GENOBJ-N-REC_13
 70
     0
  0
APPID
  2
GENIUS_GENBH_13
 70
     0
  0
APPID
  2
GENIUS_GENOBJ-NBEHI-BHF_13
 70
     0
  0
APPID
  2
GENIUS_GENOBJ-NBEHI-BHB_13
 70
     0
  0
APPID
  2
GENIUS_GENDTOL_13
 70
     0
  0
APPID
  2
GENIUS_GENOBJ-N-HTC_13
 70
     0
  0
APPID
  2
GENIUS_GENHATCH_13
 70
     0
  0
APPID
  2
GENIUS_GENOBJ-N-CRS_13
 70
     0
  0
APPID
  2
GENIUS_GENOBJ-N-CRC_13
 70
     0
  0
APPID
  2
GENIUS_GENCRC_14
 70
     0
  0
APPID
  2
GENIUS_GENOBJ-F-SHCL_13
 70
     0
  0
APPID
  2
GENIUS_GEFMSH_13
 70
     0
  0
APPID
  2
GENIUS_GEFSH_13
 70
     0
  0
APPID
  2
GENIUS_GEFSHP_13
 70
     0
  0
APPID
  2
GENIUS_GENOBJ-F-SHS_13
 70
     0
  0
APPID
  2
GENIUS_GENOBJ-F-SHSS_13
 70
     0
  0
APPID
  2
GENIUS_GEFSHP0_13
 70
     0
  0
APPID
  2
GENIUS_GEFSH0_13
 70
     0
  0
APPID
  2
GEVID995428964
 70
     0
  0
APPID
  2
GEVDC
 70
     0
  0
APPID
  2
GENIUS_GENBH_14
 70
     0
  0
APPID
  2
GEVID995428965
 70
     0
  0
APPID
  2
GEVID995428966
 70
     0
  0
APPID
  2
GENIUS_GENBHRL_14
 70
     0
  0
APPID
  2
GEVID995428967
 70
     0
  0
APPID
  2
GEVID995428968
 70
     0
  0
APPID
  2
GENIUS_GENOBJ-F-SHCV_13
 70
     0
  0
APPID
  2
ACATTRIBSERVICES
 70
     0
  0
APPID
  2
GENIUS_GENTRA_14
 70
     0
  0
APPID
  2
DESIGNERASSEMBLIES
 70
     0
  0
APPID
  2
GENIUS_GENOBJ-N-FIL_13
 70
     0
  0
APPID
  2
ACAD_DSTYLE_DIMJAG
 70
     0
  0
APPID
  2
ACAD_DSTYLE_DIMBREAK
 70
     0
  0
APPID
  2
ACAD_NAV_VCDISPLAY
 70
     0
  0
APPID
  2
ACAD_EXEMPT_FROM_CAD_STANDARDS
 70
     0
  0
APPID
  2
ACAD_MLEADERVER
 70
     0
  0
APPID
  2
ACAECLAYERSTANDARD
 70
     0
  0
ENDTAB
  0
TABLE
  2
DIMSTYLE
 70
     9
  0
DIMSTYLE
  2
STANDARD
 70
     0
  3

  4

  5

  6

  7

 40
1.0
 41
0.18
 42
0.0625
 43
0.38
 44
0.18
 45
0.0
 46
0.0
 47
0.0
 48
0.0
140
0.18
141
0.09
142
0.0
143
25.399999999999999
144
1.0
145
0.0
146
1.0
147
0.09
 71
     0
 72
     0
 73
     1
 74
     1
 75
     0
 76
     0
 77
     0
 78
     0
170
     0
171
     2
172
     0
173
     0
174
     0
175
     0
176
     0
177
     0
178
     0
  0
DIMSTYLE
  2
AM_JIS
 70
     0
  3

  4
"
  5

  6

  7

 40
1.0
 41
2.5
 42
1.0
 43
10.0
 44
1.0
 45
0.0
 46
0.0
 47
0.1
 48
0.1
140
3.5
141
0.0
142
0.0
143
0.0393701
144
1.0
145
0.0
146
0.71
147
1.5
 71
     1
 72
     0
 73
     0
 74
     0
 75
     0
 76
     0
 77
     3
 78
     8
170
     0
171
     2
172
     1
173
     0
174
     0
175
     0
176
   256
177
   256
178
     2
  0
DIMSTYLE
  2
AM_ANSI
 70
     0
  3

  4
mm
  5

  6

  7

 40
1.0
 41
0.12
 42
0.05
 43
0.5
 44
0.1
 45
0.0
 46
0.0
 47
0.1
 48
0.1
140
0.12
141
0.0
142
0.0
143
25.399999999999999
144
1.0
145
0.0
146
0.71
147
0.06
 71
     0
 72
     0
 73
     1
 74
     1
 75
     0
 76
     0
 77
     0
 78
     7
170
     0
171
     2
172
     0
173
     0
174
     0
175
     0
176
   256
177
   256
178
     2
  0
DIMSTYLE
  2
AM_ANSI$3
 70
     0
  3

  4
mm
  5

  6

  7

 40
1.0
 41
0.12
 42
0.05
 43
0.5
 44
0.1
 45
0.0
 46
0.0
 47
0.1
 48
0.1
140
0.12
141
0.0
142
0.0
143
25.399999999999999
144
1.0
145
0.0
146
0.71
147
0.06
 71
     0
 72
     0
 73
     1
 74
     1
 75
     0
 76
     0
 77
     0
 78
     7
170
     0
171
     2
172
     0
173
     0
174
     0
175
     0
176
   256
177
   256
178
     2
  0
DIMSTYLE
  2
AM_ANSI$4
 70
     0
  3

  4
mm
  5

  6

  7

 40
1.0
 41
0.12
 42
0.05
 43
0.5
 44
0.1
 45
0.0
 46
0.0
 47
0.1
 48
0.1
140
0.12
141
0.0
142
0.0
143
25.399999999999999
144
1.0
145
0.0
146
0.71
147
0.06
 71
     0
 72
     0
 73
     1
 74
     1
 75
     0
 76
     0
 77
     0
 78
     7
170
     0
171
     2
172
     0
173
     0
174
     0
175
     0
176
   256
177
   256
178
     2
  0
DIMSTYLE
  2
AM_ANSI$7
 70
     0
  3

  4
mm
  5

  6

  7

 40
1.0
 41
0.12
 42
0.05
 43
0.5
 44
0.1
 45
0.0
 46
0.0
 47
0.1
 48
0.1
140
0.12
141
0.0
142
0.0
143
25.399999999999999
144
1.0
145
0.0
146
0.71
147
0.06
 71
     0
 72
     0
 73
     1
 74
     1
 75
     0
 76
     0
 77
     0
 78
     7
170
     0
171
     2
172
     0
173
     0
174
     0
175
     0
176
   256
177
   256
178
     2
  0
DIMSTYLE
  2
AM_ANSI$SF
 70
     0
  3

  4
mm
  5

  6

  7

 40
1.0
 41
0.12
 42
0.05
 43
0.5
 44
0.1
 45
0.0
 46
0.0
 47
0.1
 48
0.1
140
0.12
141
0.0
142
0.0
143
25.399999999999999
144
1.0
145
0.0
146
0.71
147
0.06
 71
     0
 72
     0
 73
     1
 74
     1
 75
     1
 76
     1
 77
     0
 78
     7
170
     0
171
     2
172
     0
173
     0
174
     0
175
     0
176
   256
177
   256
178
     2
  0
DIMSTYLE
  2
AM_ANSI$SH
 70
     0
  3

  4
mm
  5

  6

  7

 40
1.0
 41
0.12
 42
0.05
 43
0.5
 44
0.1
 45
0.0
 46
0.0
 47
0.1
 48
0.1
140
0.12
141
0.0
142
0.0
143
25.399999999999999
144
1.0
145
0.0
146
0.71
147
0.06
 71
     0
 72
     0
 73
     1
 74
     1
 75
     1
 76
     1
 77
     0
 78
     7
170
     0
171
     2
172
     0
173
     1
174
     0
175
     0
176
   256
177
   256
178
     2
  0
ENDTAB
  0
ENDSEC
  0
SECTION
  2
BLOCKS
  0
BLOCK
  8
0
  2
$MODEL_SPACE
 70
     0
 10
0.0
 20
0.0
 30
0.0
  3
$MODEL_SPACE
  1

  0
ENDBLK
  5
42FD
  8
0
  0
BLOCK
 67
     1
  8
0
  2
$PAPER_SPACE
 70
     0
 10
0.0
 20
0.0
 30
0.0
  3
$PAPER_SPACE
  1

  0
ENDBLK
  5
42F9
 67
     1
  8
0
  0
BLOCK
  8
0
 62
     0
  2
_OPEN30
 70
     0
 10
0.0
 20
0.0
 30
0.0
  3
_OPEN30
  1

  0
LINE
  5
21
  8
0
 62
     0
 10
-1.0
 20
0.26794919
 30
0.0
 11
0.0
 21
0.0
 31
0.0
  0
LINE
  5
22
  8
0
 62
     0
 10
0.0
 20
0.0
 30
0.0
 11
-1.0
 21
-0.26794919
 31
0.0
  0
LINE
  5
23
  8
0
 62
     0
 10
0.0
 20
0.0
 30
0.0
 11
-1.0
 21
0.0
 31
0.0
  0
ENDBLK
  5
25
  8
0
 62
     0
  0
ENDSEC
  0
SECTION
  2
ENTITIES
  0
LINE
  5
3D58
  8
0
  6
CENTER
 62
     4
 10
55.139339139956178
 20
572.8701044416722
 30
0.0
 11
55.139339139956171
 21
580.30753417561198
 31
0.0
  0
LINE
  5
3D5B
  8
0
  6
CONTINUOUS
 62
     7
 10
60.73933913995613
 20
566.98533520093315
 30
0.0
 11
60.73933913995613
 21
597.98533520093326
 31
0.0
  0
LINE
  5
3D5C
  8
0
  6
CONTINUOUS
 62
     7
 10
49.539339139956162
 20
597.98533520093326
 30
0.0
 11
49.539339139956162
 21
566.98533520093315
 31
0.0
  0
LINE
  5
3D5D
  8
0
  6
CONTINUOUS
 62
     7
 10
49.539339139956162
 20
566.98533520093315
 30
0.0
 11
60.73933913995613
 21
566.98533520093315
 31
0.0
  0
LINE
  5
3D62
  8
0
  6
CONTINUOUS
 62
     7
 10
49.539339139956162
 20
597.98533520093326
 30
0.0
 11
60.73933913995613
 21
597.98533520093326
 31
0.0
  0
ARC
  5
3D63
  8
0
  6
CONTINUOUS
 62
     7
 10
53.635303147544491
 20
598.18533520093365
 30
0.0
 40
2.197726097583879
 50
90.0
 51
177.7054690934097
  0
ARC
  5
3D64
  8
0
  6
CONTINUOUS
 62
     7
 10
56.643375132367709
 20
598.18533520093365
 30
0.0
 40
2.197726097583883
 50
2.2945309065903361
 51
89.999999999993477
  0
LINE
  5
3D6C
  8
0
  6
CENTER
 62
     4
 10
105.06560330463731
 20
598.84885971823496
 30
0.0
 11
105.06560330463731
 21
591.52181068363154
 31
0.0
  0
LINE
  5
3D6D
  8
0
  6
CONTINUOUS
 62
     7
 10
122.06560330463731
 20
597.98533520093326
 30
0.0
 11
102.06560330463731
 21
597.98533520093326
 31
0.0
  0
LINE
  5
3D6F
  8
0
  6
CONTINUOUS
 62
     7
 10
102.06560330463731
 20
597.98533520093326
 30
0.0
 11
102.06560330463731
 21
566.98533520093315
 31
0.0
  0
LINE
  5
3D71
  8
0
  6
CENTER
 62
     4
 10
105.06560330463731
 20
573.4488597182351
 30
0.0
 11
105.06560330463731
 21
566.12181068363179
 31
0.0
  0
CIRCLE
  5
3D72
  8
0
  6
CONTINUOUS
 62
     7
 10
105.06560330463731
 20
569.78533520093322
 30
0.0
 40
1.5
  0
CIRCLE
  5
3D73
  8
0
  6
CONTINUOUS
 62
     2
 10
105.06560330463731
 20
569.78533520093322
 30
0.0
 40
1.3500000000000221
  0
LINE
  5
3D74
  8
0
  6
CONTINUOUS
 62
     7
 10
102.06560330463731
 20
566.98533520093315
 30
0.0
 11
115.06560330463741
 21
566.98533520093315
 31
0.0
  0
LINE
  5
3D76
  8
0
  6
CONTINUOUS
 62
     7
 10
104.56560330463731
 20
566.98533520093315
 30
0.0
 11
105.06560330463731
 21
566.98533520093315
 31
0.0
  0
LINE
  5
3D79
  8
0
  6
CENTER
 62
     4
 10
101.5581901013668
 20
569.78533520093322
 30
0.0
 11
108.57301650790779
 21
569.78533520093322
 31
0.0
  0
LINE
  5
3D7C
  8
0
  6
CENTER
 62
     4
 10
101.5581901013668
 20
595.18533520093365
 30
0.0
 11
108.57301650790779
 21
595.18533520093365
 31
0.0
  0
CIRCLE
  5
3D7D
  8
0
  6
CONTINUOUS
 62
     7
 10
105.06560330463731
 20
595.18533520093285
 30
0.0
 40
1.5
  0
CIRCLE
  5
3D7E
  8
0
  6
CONTINUOUS
 62
     2
 10
105.06560330463731
 20
595.18533520093285
 30
0.0
 40
1.3500000000000221
  0
LINE
  5
3D81
  8
0
  6
CONTINUOUS
 62
     7
 10
122.06560330463731
 20
573.98533520093315
 30
0.0
 11
122.06560330463731
 21
597.98533520093326
 31
0.0
  0
LINE
  5
3D82
  8
0
  6
CENTER
 62
     4
 10
117.7765667252212
 20
571.27437178034916
 30
0.0
 11
127.08489706913269
 21
561.96604143643776
 31
0.0
  0
LINE
  5
3D83
  8
0
  6
CONTINUOUS
 62
     7
 10
122.1718478886885
 20
571.40457401647564
 30
0.0
 11
117.64636448909491
 21
566.87909061688208
 31
0.0
  0
LINE
  5
3D85
  8
0
  6
CONTINUOUS
 62
     7
 10
115.06560330463741
 20
566.98533520093315
 30
0.0
 11
122.06560330463731
 21
573.98533520093315
 31
0.0
  0
LINE
  5
3D86
  8
0
  6
CONTINUOUS
 62
     7
 10
121.2172537340868
 20
570.449979861874
 30
0.0
 11
126.6232448901235
 21
565.04398870583725
 31
0.0
  0
LINE
  5
3D87
  8
0
  6
CONTINUOUS
 62
     7
 10
118.6009586436967
 20
567.83368477148383
 30
0.0
 11
124.00694979973331
 21
562.4276936154472
 31
0.0
  0
LINE
  5
3D88
  8
0
  6
CONTINUOUS
 62
     7
 10
117.64636448909491
 20
566.87909061688208
 30
0.0
 11
116.3028616048404
 21
568.22259350113643
 31
0.0
  0
LINE
  5
3D8A
  8
0
  6
CONTINUOUS
 62
     7
 10
120.8283450044341
 20
572.74807690072976
 30
0.0
 11
122.1718478886885
 21
571.40457401647564
 31
0.0
  0
LINE
  5
3DAD
  8
0
  6
CONTINUOUS
 62
     7
 10
116.56560330463731
 20
650.62115017300926
 30
0.0
 11
116.56560330463731
 21
647.82115017300919
 31
0.0
1001
GENIUS_GENREC_14
1002
{
1000
PYDIR
1011
111.39621326590959
1021
0.0
1031
0.0
1021
645.9211501730091
1031
0.0
1002
}
1002
{
1000
PXDIR
1011
116.56560330463731
1021
0.0
1031
0.0
1021
652.52115017300923
1031
0.0
1002
}
1002
{
1000
PORI
1011
111.39621326590959
1021
0.0
1031
0.0
1021
652.52115017300923
1031
0.0
1002
}
1002
{
1000
PINS
1011
111.39621326590959
1021
0.0
1031
0.0
1021
652.52115017300923
1031
0.0
1002
}
1002
{
1000
PINS2
1011
116.56560330463731
1021
0.0
1031
0.0
1021
645.9211501730091
1031
0.0
1002
}
1002
{
1000
C
1070
     1
1002
}
1001
GENIUS_GENODEF_13
1002
{
1000
HIER
1070
     0
1002
}
1002
{
1000
MANEDIT
1070
     0
1002
}
1002
{
1000
NOSEL
1070
     0
1002
}
1002
{
1000
BEHIND
1070
     0
1002
}
1002
{
1000
REACTOR
1002
}
1001
GENIUS_GENOBJ-N-REC_13
1002
{
1000
OWNER
1000
GEN
1002
}
  0
LINE
  5
3DAE
  8
0
  6
CONTINUOUS
 62
     7
 10
102.06560330463731
 20
654.8211501730093
 30
0.0
 11
102.06560330463731
 21
643.62115017300926
 31
0.0
  0
LINE
  5
3DAF
  8
0
  6
CONTINUOUS
 62
     7
 10
122.06560330463731
 20
643.62115017300926
 30
0.0
 11
122.06560330463741
 21
654.8211501730093
 31
0.0
  0
LINE
  5
3DB1
  8
0
  6
CONTINUOUS
 62
     7
 10
102.06560330463731
 20
643.62115017300926
 30
0.0
 11
122.06560330463731
 21
643.62115017300926
 31
0.0
  0
LINE
  5
3DB2
  8
0
  6
CONTINUOUS
 62
     7
 10
113.8674945580203
 20
600.38533520093245
 30
0.0
 11
114.46749455802031
 21
600.38533520093245
 31
0.0
  0
LINE
  5
3DB3
  8
0
  6
CONTINUOUS
 62
     7
 10
113.7007395099817
 20
600.38533511856224
 30
0.0
 11
114.5674945580199
 21
600.38533520093335
 31
0.0
  0
ARC
  5
3DB4
  8
0
  6
CONTINUOUS
 62
     7
 10
113.7007424714191
 20
597.98533511857352
 30
0.0
 40
2.399999999990539
 50
90.0
 51
173.62062979171591
  0
ARC
  5
3DB9
  8
0
  6
CONTINUOUS
 62
     7
 10
114.5674945580199
 20
598.38533520093335
 30
0.0
 40
2.0000000000000191
 50
357.508093631017
 51
90.0
  0
LINE
  5
3DBC
  8
0
  6
CONTINUOUS
 62
     7
 10
122.06560330463741
 20
654.8211501730093
 30
0.0
 11
102.06560330463731
 21
654.8211501730093
 31
0.0
  0
LINE
  5
3DD5
  8
0
  6
CONTINUOUS
 62
     7
 10
116.56560330463731
 20
647.52115017300923
 30
0.0
 11
116.56560330463741
 21
650.92115017300921
 31
0.0
  0
LINE
  5
3DD6
  8
0
  6
CONTINUOUS
 62
     7
 10
111.31560330463731
 20
647.52115017300923
 30
0.0
 11
111.31560330463741
 21
650.92115017300921
 31
0.0
  0
LINE
  5
3DD7
  8
0
  6
CONTINUOUS
 62
     7
 10
113.31560330463741
 20
652.92115017300921
 30
0.0
 11
114.56560330463741
 21
652.92115017300921
 31
0.0
  0
LINE
  5
3DD8
  8
0
  6
CONTINUOUS
 62
     7
 10
113.31560330463731
 20
645.52115017300923
 30
0.0
 11
114.56560330463731
 21
645.52115017300923
 31
0.0
  0
ARC
  5
3DD9
  8
0
  6
CONTINUOUS
 62
     7
 10
113.31560330463741
 20
650.92115017300921
 30
0.0
 40
2.0
 50
90.0
 51
180.0
  0
ARC
  5
3DDA
  8
0
  6
CONTINUOUS
 62
     7
 10
114.56560330463741
 20
650.92115017300921
 30
0.0
 40
2.0
 50
0.0
 51
90.0
  0
ARC
  5
3DDB
  8
0
  6
CONTINUOUS
 62
     7
 10
114.56560330463731
 20
647.52115017300935
 30
0.0
 40
2.0
 50
270.0
 51
0.0
  0
ARC
  5
3DDC
  8
0
  6
CONTINUOUS
 62
     7
 10
113.31560330463731
 20
647.52115017300923
 30
0.0
 40
2.0
 50
180.0
 51
270.0
  0
LINE
  5
3DDD
  8
0
  6
CONTINUOUS
 62
     7
 10
56.643375132367957
 20
600.38306129851753
 30
0.0
 11
53.635303147544391
 21
600.38306129851685
 31
0.0
  0
LINE
  5
3E04
  8
0
  6
CONTINUOUS
 62
     7
 10
51.439339139956132
 20
598.27332427626493
 30
0.0
 11
51.439339139956132
 21
597.98533520093326
 31
0.0
  0
LINE
  5
3E05
  8
0
  6
CONTINUOUS
 62
     7
 10
58.83933913995611
 20
598.27332427626504
 30
0.0
 11
58.83933913995611
 21
597.98533520093326
 31
0.0
  0
LINE
  5
3E06
  8
0
  6
CONTINUOUS
 62
     7
 10
51.439339836940228
 20
598.27011252218915
 30
0.0
 11
51.439464830195163
 21
597.98212347398226
 31
0.0
  0
LINE
  5
3E07
  8
0
  6
CONTINUOUS
 62
     7
 10
58.83933913995611
 20
598.27332427626504
 30
0.0
 11
58.839464133211038
 21
597.98533522805803
 31
0.0
  0
LINE
  5
3E08
  8
0
  6
CONTINUOUS
 62
     7
 10
51.439339836940228
 20
598.27011252218915
 30
0.0
 11
51.439464830195163
 21
597.98212347398226
 31
0.0
  0
LINE
  5
3E09
  8
0
  6
CONTINUOUS
 62
     7
 10
58.83933913995611
 20
598.27332427626504
 30
0.0
 11
58.839464133211038
 21
597.98533522805803
 31
0.0
  0
LINE
  5
3E0A
  8
0
  6
CONTINUOUS
 62
     7
 10
51.439339836940228
 20
598.27011252218915
 30
0.0
 11
51.439464830195163
 21
597.98212347398226
 31
0.0
  0
LINE
  5
3E0B
  8
0
  6
CONTINUOUS
 62
     7
 10
58.83933913995611
 20
598.27332427626504
 30
0.0
 11
58.839464133211038
 21
597.98533522805803
 31
0.0
  0
LINE
  5
3E0C
  8
0
  6
CONTINUOUS
 62
     7
 10
51.439339836940228
 20
598.27011252218915
 30
0.0
 11
51.439464830195163
 21
597.98212347398226
 31
0.0
  0
LINE
  5
3E0D
  8
0
  6
CONTINUOUS
 62
     7
 10
58.83933913995611
 20
598.27332427626504
 30
0.0
 11
58.839464133211038
 21
597.98533522805803
 31
0.0
  0
LINE
  5
3E12
  8
0
  6
CONTINUOUS
 62
     7
 10
111.31560329542801
 20
598.25200178523244
 30
0.0
 11
111.31560329542801
 21
597.98533520093326
 31
0.0
  0
LINE
  5
3E13
  8
0
  6
CONTINUOUS
 62
     7
 10
116.5656033046418
 20
598.29837867919389
 30
0.0
 11
116.5656033046418
 21
597.98533520093326
 31
0.0
  0
LINE
  5
3E16
  8
0
  6
CENTER
 62
     4
 10
51.127935429089568
 20
576.48533520093338
 30
0.0
 11
59.111396113889221
 21
576.48533520093338
 31
0.0
  0
LINE
  5
3E1A
  8
0
  6
CONTINUOUS
 62
     2
 10
103.506352841788
 20
576.48533520093338
 30
0.0
 11
92.193119912489763
 21
576.48533520093338
 31
0.0
  0
LINE
  5
3E1E
  8
0
  6
CONTINUOUS
 62
     2
 10
94.425160047875124
 20
577.08340855268375
 30
0.0
 11
92.193119912489763
 21
576.48533520093338
 31
0.0
  0
LINE
  5
3E1F
  8
0
  6
CONTINUOUS
 62
     2
 10
92.193119912489763
 20
576.48533520093338
 30
0.0
 11
94.425160047875124
 21
575.88726184918301
 31
0.0
  0
LINE
  5
406D
  8
0
  6
CONTINUOUS
 62
     2
 10
103.15512266983551
 20
649.22115017300928
 30
0.0
 11
92.193119912489763
 21
649.22115017300928
 31
0.0
  0
LINE
  5
407A
  8
0
  6
CONTINUOUS
 62
     2
 10
94.425160047875124
 20
649.81922352475965
 30
0.0
 11
92.193119912489763
 21
649.22115017300928
 31
0.0
  0
LINE
  5
407B
  8
0
  6
CONTINUOUS
 62
     2
 10
92.193119912489763
 20
649.22115017300928
 30
0.0
 11
94.425160047875124
 21
648.62307682125891
 31
0.0
  0
LINE
  5
407F
  8
0
  6
CENTER
 62
     4
 10
48.207802369887418
 20
595.18533520093365
 30
0.0
 11
62.217099443134032
 21
595.18533520093365
 31
0.0
  0
LINE
  5
4080
  8
0
  6
CENTER
 62
     4
 10
48.46723379716974
 20
569.78533520093322
 30
0.0
 11
62.009554301308178
 21
569.78533520093322
 31
0.0
  0
LINE
  5
4081
  8
0
  6
CENTER
 62
     4
 10
105.06560330463731
 20
656.13926814015019
 30
0.0
 11
105.06560330463731
 21
642.44652507032356
 31
0.0
  0
TEXT
  5
442A
  8
0
 62
     2
 10
119.6813767998367
 20
548.00887308683764
 30
0.0
 40
5.0
  1
cx-461a-c05
  0
ENDSEC
  0
EOF
